<svg width="1539" height="801" xmlns="http://www.w3.org/2000/svg" xmlns:xlink="http://www.w3.org/1999/xlink" overflow="hidden"><defs><clipPath id="clip0"><path d="M195 23 1734 23 1734 824 195 824Z" fill-rule="evenodd" clip-rule="evenodd"/></clipPath></defs><g clip-path="url(#clip0)" transform="translate(-195 -23)"><path d="M0 0 1536.62 567.397" stroke="#5B9BD5" stroke-miterlimit="8" fill="none" fill-rule="evenodd" transform="matrix(1 0 0 -1 196.5 822.897)"/><text font-family="CMU Classical Serif,CMU Classical Serif_MSFontService,sans-serif" font-style="italic" font-weight="500" font-size="125" transform="translate(456.517 663)">0</text><path d="M538 693.5C538 689.91 540.91 687 544.5 687 548.09 687 551 689.91 551 693.5 551 697.09 548.09 700 544.5 700 540.91 700 538 697.09 538 693.5Z" fill="#5B9BD5" fill-rule="evenodd"/><path d="M0 0 392.5 648.75" stroke="#5B9BD5" stroke-miterlimit="8" fill="none" fill-rule="evenodd" transform="matrix(1 0 0 -1 496.5 774.25)"/><path d="M727.5 395.5 751.719 617.375" stroke="#5B9BD5" stroke-miterlimit="8" fill="none" fill-rule="evenodd"/><path d="M798.5 276.5 833.537 587.055" stroke="#5B9BD5" stroke-miterlimit="8" fill="none" fill-rule="evenodd"/><path d="M650.5 520.5 664.637 650.012" stroke="#5B9BD5" stroke-miterlimit="8" fill="none" fill-rule="evenodd"/><path d="M605.5 595.5 613.533 669.094" stroke="#5B9BD5" stroke-miterlimit="8" fill="none" fill-rule="evenodd"/><path d="M870.5 154.5 914.435 557" stroke="#5B9BD5" stroke-miterlimit="8" fill="none" fill-rule="evenodd"/><path d="M959.5 57.5 1010.13 521.346" stroke="#5B9BD5" stroke-miterlimit="8" fill="none" fill-rule="evenodd"/><path d="M1050.5 24.5 1101.13 488.346" stroke="#5B9BD5" stroke-miterlimit="8" fill="none" fill-rule="evenodd"/><path d="M658 588.5C658 584.91 660.91 582 664.5 582 668.09 582 671 584.91 671 588.5 671 592.09 668.09 595 664.5 595 660.91 595 658 592.09 658 588.5Z" fill="#5B9BD5" fill-rule="evenodd"/><path d="M809 594.5C809 590.91 811.91 588 815.5 588 819.09 588 822 590.91 822 594.5 822 598.09 819.09 601 815.5 601 811.91 601 809 598.09 809 594.5Z" fill="#5B9BD5" fill-rule="evenodd"/><path d="M774 306.5C774 302.91 776.91 300 780.5 300 784.09 300 787 302.91 787 306.5 787 310.09 784.09 313 780.5 313 776.91 313 774 310.09 774 306.5Z" fill="#5B9BD5" fill-rule="evenodd"/><path d="M779 430.5C779 426.91 781.91 424 785.5 424 789.09 424 792 426.91 792 430.5 792 434.09 789.09 437 785.5 437 781.91 437 779 434.09 779 430.5Z" fill="#5B9BD5" fill-rule="evenodd"/><path d="M1023 362.5C1023 358.91 1025.91 356 1029.5 356 1033.09 356 1036 358.91 1036 362.5 1036 366.09 1033.09 369 1029.5 369 1025.91 369 1023 366.09 1023 362.5Z" fill="#5B9BD5" fill-rule="evenodd"/><path d="M908 217.5C908 213.91 910.686 211 914 211 917.314 211 920 213.91 920 217.5 920 221.09 917.314 224 914 224 910.686 224 908 221.09 908 217.5Z" fill="#5B9BD5" fill-rule="evenodd"/></g></svg>