<?xml version="1.0" encoding="UTF-8"?>
<svg xmlns="http://www.w3.org/2000/svg" xmlns:xlink="http://www.w3.org/1999/xlink" width="310.07999pt" height="204.95999pt" viewBox="0 0 310.07999 204.95999" version="1.1">
<defs>
<clipPath id="clip1">
  <path d="M 0 0 L 310 0 L 310 204.515625 L 0 204.515625 Z M 0 0 "/>
</clipPath>
</defs>
<g id="surface1">
<g clip-path="url(#clip1)" clip-rule="nonzero">
<path style=" stroke:none;fill-rule:nonzero;fill:rgb(100%,100%,100%);fill-opacity:1;" d="M 0 0 L 310 0 L 310 204.515625 L 0 204.515625 Z M 0 0 "/>
</g>
<path style="fill-rule:nonzero;fill:rgb(83.918762%,84.709167%,85.099792%);fill-opacity:1;stroke-width:2;stroke-linecap:butt;stroke-linejoin:miter;stroke:rgb(0%,0%,0%);stroke-opacity:1;stroke-miterlimit:4;" d="M 134.001189 149.002328 C 134.00077 150.309505 133.905141 151.618284 133.71231 152.921228 C 133.51948 154.224173 133.232168 155.516569 132.847655 156.80313 C 132.463141 158.089692 131.989591 159.356276 131.416846 160.60959 C 130.844101 161.862904 130.182319 163.096241 129.4315 164.309601 C 128.683402 165.518246 127.844276 166.699479 126.91412 167.853298 C 125.988678 169.009839 124.982365 170.13226 123.887744 171.222553 C 122.793124 172.312847 121.627789 173.362314 120.381583 174.377661 C 119.133384 175.385572 117.816464 176.360093 116.426838 177.286351 C 115.037212 178.212609 113.582315 179.088611 112.064141 179.921795 C 110.541253 180.752257 108.967966 181.528479 107.334124 182.257167 C 105.700281 182.985856 104.01604 183.660304 102.284123 184.275798 C 100.549484 184.896006 98.774605 185.455268 96.959485 185.953582 C 95.146358 186.459333 93.295712 186.899423 91.416977 187.279295 C 89.538241 187.659167 87.634137 187.974108 85.706657 188.231552 C 83.779176 188.488997 81.833764 188.679517 79.879848 188.808557 C 77.925932 188.937597 75.966234 189.000442 73.998032 189.001806 C 72.037266 189.001178 70.075432 188.937076 68.119967 188.807509 C 66.164501 188.677942 64.220119 188.485631 62.294254 188.228583 C 60.365668 187.97625 58.463037 187.657188 56.583638 187.276112 C 54.701517 186.89975 52.852787 186.454666 51.041433 185.955733 C 49.225364 185.454079 47.449393 184.893861 45.718233 184.277801 C 43.982359 183.659019 42.300725 182.98984 40.666625 182.260104 C 39.032524 181.530368 37.457378 180.752956 35.939193 179.920432 C 34.418287 179.092621 32.961779 178.207706 31.570931 177.285272 C 30.182806 176.358124 28.863063 175.388744 27.619139 174.375137 C 26.375216 173.361531 25.201667 172.313128 24.108652 171.223222 C 23.020351 170.136037 22.009861 169.012063 21.086611 167.856743 C 20.158647 166.698701 19.319915 165.51675 18.565701 164.308167 C 17.814209 163.09487 17.153941 161.865099 16.582906 160.611419 C 16.011871 159.357738 15.536775 158.090306 15.152904 156.8064 C 14.771755 155.517779 14.481101 154.224835 14.2911 152.920861 C 14.096386 151.614166 14.001595 150.30859 14.002014 149.001413 C 13.997718 147.691514 14.098061 146.385457 14.286178 145.07979 C 14.479009 143.776846 14.769042 142.479736 15.150833 141.197888 C 15.535347 139.911327 16.011619 138.640028 16.584364 137.386714 C 17.154388 136.138114 17.81617 134.904777 18.566989 133.691418 C 19.3198 132.485494 20.156934 131.296826 21.08709 130.143007 C 22.00981 128.99118 23.018845 127.864045 24.110744 126.778465 C 25.205365 125.688172 26.370699 124.638705 27.616905 123.623357 C 28.867826 122.610732 30.182024 121.640926 31.57165 120.714668 C 32.961276 119.78841 34.416173 118.912407 35.934347 118.079224 C 37.457235 117.248762 39.033244 116.467826 40.667086 115.739137 C 42.298207 115.015163 43.982448 114.340715 45.714365 113.725221 C 47.449004 113.105012 49.223883 112.545751 51.039003 112.047436 C 52.856844 111.544407 54.702776 111.101596 56.581512 110.721724 C 58.464962 110.344573 60.367074 110.022197 62.291832 109.769466 C 64.224026 109.514744 66.164724 109.321501 68.11864 109.192462 C 70.072556 109.063422 72.032254 109.000577 74.000456 108.999213 C 75.965937 109.002563 77.923056 109.063943 79.878521 109.19351 C 81.836709 109.318363 83.77837 109.515388 85.706956 109.767721 C 87.63282 110.024768 89.535452 110.34383 91.417572 110.720193 C 93.296971 111.101269 95.145701 111.546353 96.96177 112.048007 C 98.773124 112.54694 100.549095 113.107158 102.284969 113.72594 C 104.016129 114.341999 105.702477 115.013901 107.331864 115.740915 C 108.965964 116.47065 110.545825 117.250784 112.066731 118.078595 C 113.584916 118.911119 115.039431 119.788598 116.427557 120.715746 C 117.815682 121.642894 119.135425 122.612275 120.379349 123.625881 C 121.625994 124.634773 122.796821 125.687891 123.889837 126.777797 C 124.978138 127.864982 125.988628 128.988956 126.916592 130.146998 C 127.842564 131.297603 128.681295 132.479555 129.432788 133.692852 C 130.187001 134.901434 130.844547 136.13592 131.415582 137.3896 C 131.986617 138.643281 132.461713 139.910713 132.845584 141.194619 C 133.229455 142.478525 133.517387 143.776183 133.712102 145.082879 C 133.904824 146.382139 133.999615 147.687714 134.001189 149.002328 Z M 134.001189 149.002328 " transform="matrix(0.621453,-0.358796,0.358796,0.621453,-46.346343,40.875661)"/>
<path style="fill-rule:nonzero;fill:rgb(0%,0%,0%);fill-opacity:1;stroke-width:5.066242;stroke-linecap:butt;stroke-linejoin:miter;stroke:rgb(0%,0%,0%);stroke-opacity:0.2941;stroke-miterlimit:4;" d="M 307.966609 23.943412 C 347.257368 23.943412 383.371427 41.259668 415.974397 76.057096 C 448.744562 110.689608 465.296839 150.929288 465.965618 196.941054 C 465.965618 238.994818 448.744562 268.020161 413.96806 284.017084 C 343.411889 301.993006 297.934926 314.36176 278.038754 320.958429 C 257.975388 327.720015 243.931032 334.316684 236.07288 341.07827 C 195.946148 368.949196 176.049976 409.353793 176.049976 461.962227 C 176.049976 502.696658 186.583243 539.638004 207.984167 572.951182 C 229.385091 606.26436 250.95321 631.331702 273.022913 647.988291 C 292.250305 664.64488 315.657566 678.003134 343.0775 688.063054 C 370.330239 697.958058 391.731163 703.40031 406.945882 704.059976 L 425.002912 704.059976 C 489.038489 704.059976 535.351426 682.620802 563.941723 640.072288 C 564.610501 640.072288 568.957564 644.360123 576.982911 652.935792 C 585.008257 661.676379 593.702382 671.406465 603.065287 681.961136 C 612.260996 692.680723 618.948785 699.937058 622.961458 704.059976 C 623.630237 704.059976 624.967795 704.059976 626.974131 704.059976 C 628.980468 704.059976 630.652415 704.38981 631.989973 705.049477 C 640.684098 705.049477 645.031161 702.740643 645.031161 697.958058 C 645.031161 693.340389 635.668257 652.935792 616.942448 577.0741 C 598.383834 501.047491 587.683373 461.632394 585.008257 458.993726 C 582.333142 456.355059 576.982911 455.365558 568.957564 456.025225 C 555.749181 456.025225 549.061393 458.993726 549.061393 464.930728 C 549.061393 469.053646 549.395782 472.351981 550.064561 474.990648 C 550.064561 476.969649 550.39895 483.401401 551.067729 493.956072 C 551.736508 504.675659 552.405287 513.251328 553.074066 520.012914 C 553.074066 542.606505 550.064561 562.396512 544.045551 579.053101 C 538.026541 595.70969 532.007531 608.078444 525.988521 615.994446 C 519.969512 624.075366 511.609776 632.321202 501.076508 641.061788 C 477.000469 655.07971 449.74773 662.006212 418.983902 662.006212 C 381.030701 662.006212 345.58542 646.668957 312.98245 615.994446 C 280.37948 585.319936 263.660008 550.027757 262.99123 509.952994 C 262.99123 489.99807 268.007071 472.681814 278.038754 458.004226 C 288.070437 443.326638 301.61321 432.936884 319.00146 426.999882 C 321.676576 425.680548 344.916642 419.413713 389.056047 408.034459 C 433.028258 396.655205 455.265156 390.718203 455.933934 390.058536 C 478.672416 382.637284 500.742119 366.640362 521.975848 342.06777 C 543.376772 317.330262 554.077234 284.017084 554.077234 241.963319 C 554.077234 224.647063 551.402119 206.011474 546.051888 186.05655 C 542.707993 171.378962 536.688983 155.052206 527.994858 137.076283 C 519.300733 118.935444 507.262713 99.310354 492.047994 78.036097 C 476.66608 56.596923 454.596377 36.641999 426.00608 18.00641 C 397.415783 -0.62918 365.983176 -13.327768 332.042648 -19.924437 C 324.017302 -21.408687 312.648061 -22.068354 297.934926 -22.068354 C 232.060207 -22.068354 180.731428 -3.597681 143.94859 33.013831 L 133.916907 44.063252 L 105.995389 13.058908 C 90.613475 -5.081932 81.250571 -15.306768 78.073871 -17.945436 C 74.729977 -20.74902 70.382914 -22.068354 65.032683 -22.068354 C 56.338558 -22.068354 51.991495 -19.26477 51.991495 -13.987435 C 51.991495 -12.008434 71.386082 66.327009 110.008062 221.018895 C 111.34562 224.976897 118.033409 226.955897 130.071429 226.955897 L 142.945422 226.955897 C 146.958095 222.997896 148.964432 219.369728 148.964432 216.071394 C 148.964432 214.587143 148.630042 211.618642 147.961263 207.000974 C 147.292485 202.383306 145.954927 195.291887 143.94859 186.05655 C 141.942254 176.656297 141.273475 165.606877 141.942254 153.073206 C 143.279811 127.016363 149.298821 105.082439 159.999283 86.9416 C 170.699745 68.965677 185.078491 55.607422 202.968326 47.031753 C 221.025355 38.291167 238.413606 32.354165 254.965883 29.05583 C 271.685355 25.592579 289.407995 23.943412 307.966609 23.943412 Z M 307.966609 23.943412 " transform="matrix(0.0233635,0,0,-0.0236862,45.925923,113.574941)"/>
<path style=" stroke:none;fill-rule:nonzero;fill:rgb(83.918762%,84.709167%,85.099792%);fill-opacity:0.3;" d="M 217.222656 196.5 L 131.46875 110.746094 L 195.328125 46.886719 L 281.082031 132.640625 Z M 217.222656 196.5 "/>
<path style="fill:none;stroke-width:1;stroke-linecap:butt;stroke-linejoin:miter;stroke:rgb(0%,0%,0%);stroke-opacity:1;stroke-miterlimit:10;" d="M 391.000034 184.11796 L 271.002443 64.120369 " transform="matrix(0.717593,0,0,0.717593,0.358796,0.358796)"/>
<path style="fill:none;stroke-width:1;stroke-linecap:butt;stroke-linejoin:miter;stroke:rgb(0%,0%,0%);stroke-opacity:1;stroke-miterlimit:10;" d="M 381.000235 173.121991 L 375.741767 177.857878 " transform="matrix(0.717593,0,0,0.717593,0.358796,0.358796)"/>
<path style="fill-rule:nonzero;fill:rgb(0%,0%,0%);fill-opacity:1;stroke-width:1;stroke-linecap:butt;stroke-linejoin:miter;stroke:rgb(0%,0%,0%);stroke-opacity:1;stroke-miterlimit:10;" d="M 371.827855 181.368967 L 375.469589 174.951023 L 375.741767 177.857878 L 378.59963 178.418564 Z M 371.827855 181.368967 " transform="matrix(0.717593,0,0,0.717593,0.358796,0.358796)"/>
<path style=" stroke:none;fill-rule:nonzero;fill:rgb(83.918762%,84.709167%,85.099792%);fill-opacity:0.3;" d="M 225.800781 20.679688 L 257.191406 137.820312 L 165.105469 162.496094 L 133.71875 45.355469 Z M 225.800781 20.679688 "/>
<path style="fill:none;stroke-width:1;stroke-linecap:butt;stroke-linejoin:miter;stroke:rgb(0%,0%,0%);stroke-opacity:1;stroke-miterlimit:10;" d="M 186.001428 63.118756 L 230.001633 227.121996 " transform="matrix(0.717593,0,0,0.717593,0.358796,0.358796)"/>
<path style="fill:none;stroke-width:1;stroke-linecap:butt;stroke-linejoin:miter;stroke:rgb(0%,0%,0%);stroke-opacity:1;stroke-miterlimit:10;" d="M 190.002436 77.119563 L 196.801428 75.551821 " transform="matrix(0.717593,0,0,0.717593,0.358796,0.358796)"/>
<path style="fill-rule:nonzero;fill:rgb(0%,0%,0%);fill-opacity:1;stroke-width:1;stroke-linecap:butt;stroke-linejoin:miter;stroke:rgb(0%,0%,0%);stroke-opacity:1;stroke-miterlimit:10;" d="M 201.907477 74.370571 L 195.620178 78.21916 L 196.801428 75.551821 L 194.569573 73.668353 Z M 201.907477 74.370571 " transform="matrix(0.717593,0,0,0.717593,0.358796,0.358796)"/>
<path style=" stroke:none;fill-rule:nonzero;fill:rgb(83.918762%,84.709167%,85.099792%);fill-opacity:0.3;" d="M 183.800781 173.980469 L 152.414062 56.839844 L 220.929688 38.480469 L 252.316406 155.621094 Z M 183.800781 173.980469 "/>
<path style="fill:none;stroke-width:1;stroke-linecap:butt;stroke-linejoin:miter;stroke:rgb(0%,0%,0%);stroke-opacity:1;stroke-miterlimit:10;" d="M 352.00245 216.120583 L 308.002245 52.117343 " transform="matrix(0.717593,0,0,0.717593,0.358796,0.358796)"/>
<path style="fill:none;stroke-width:1;stroke-linecap:butt;stroke-linejoin:miter;stroke:rgb(0%,0%,0%);stroke-opacity:1;stroke-miterlimit:10;" d="M 348.001442 202.119776 L 341.088135 204.237316 " transform="matrix(0.717593,0,0,0.717593,0.358796,0.358796)"/>
<path style="fill-rule:nonzero;fill:rgb(0%,0%,0%);fill-opacity:1;stroke-width:1;stroke-linecap:butt;stroke-linejoin:miter;stroke:rgb(0%,0%,0%);stroke-opacity:1;stroke-miterlimit:10;" d="M 336.069183 205.788728 L 342.067973 201.499211 L 341.088135 204.237316 L 343.450635 205.957478 Z M 336.069183 205.788728 " transform="matrix(0.717593,0,0,0.717593,0.358796,0.358796)"/>
<path style="fill:none;stroke-width:1;stroke-linecap:butt;stroke-linejoin:miter;stroke:rgb(0%,0%,0%);stroke-opacity:1;stroke-miterlimit:10;" d="M 291.998211 70.119159 L 172.00062 190.122194 " transform="matrix(0.717593,0,0,0.717593,0.358796,0.358796)"/>
<path style=" stroke:none;fill-rule:nonzero;fill:rgb(83.918762%,84.709167%,85.099792%);fill-opacity:0.3;" d="M 124.296875 136.691406 L 210.050781 50.9375 L 260.207031 101.097656 L 174.457031 186.847656 Z M 124.296875 136.691406 "/>
<path style="fill:none;stroke-width:1;stroke-linecap:butt;stroke-linejoin:miter;stroke:rgb(0%,0%,0%);stroke-opacity:1;stroke-miterlimit:10;" d="M 281.998412 80.118959 L 287.529057 85.448193 " transform="matrix(0.717593,0,0,0.717593,0.358796,0.358796)"/>
<path style="fill-rule:nonzero;fill:rgb(0%,0%,0%);fill-opacity:1;stroke-width:1;stroke-linecap:butt;stroke-linejoin:miter;stroke:rgb(0%,0%,0%);stroke-opacity:1;stroke-miterlimit:10;" d="M 291.312324 89.100814 L 284.64942 85.921782 L 287.529057 85.448193 L 287.888332 82.557669 Z M 291.312324 89.100814 " transform="matrix(0.717593,0,0,0.717593,0.358796,0.358796)"/>
<path style=" stroke:none;fill-rule:nonzero;fill:rgb(83.918762%,84.709167%,85.099792%);fill-opacity:0.3;" d="M 120.914062 70.769531 L 242.1875 70.769531 L 242.1875 141.703125 L 120.914062 141.703125 Z M 120.914062 70.769531 "/>
<path style="fill:none;stroke-width:1;stroke-linecap:butt;stroke-linejoin:miter;stroke:rgb(0%,0%,0%);stroke-opacity:1;stroke-miterlimit:10;" d="M 167.999611 197.122598 L 338.001642 197.122598 " transform="matrix(0.717593,0,0,0.717593,0.358796,0.358796)"/>
<path style="fill:none;stroke-width:1;stroke-linecap:butt;stroke-linejoin:miter;stroke:rgb(0%,0%,0%);stroke-opacity:1;stroke-miterlimit:10;" d="M 182.000419 197.122598 L 182.000419 189.479855 " transform="matrix(0.717593,0,0,0.717593,0.358796,0.358796)"/>
<path style="fill-rule:nonzero;fill:rgb(0%,0%,0%);fill-opacity:1;stroke-width:1;stroke-linecap:butt;stroke-linejoin:miter;stroke:rgb(0%,0%,0%);stroke-opacity:1;stroke-miterlimit:10;" d="M 182.000419 184.232274 L 184.341145 191.232678 L 182.000419 189.479855 L 179.67058 191.232678 Z M 182.000419 184.232274 " transform="matrix(0.717593,0,0,0.717593,0.358796,0.358796)"/>
<path style=" stroke:none;fill-rule:nonzero;fill:rgb(83.918762%,84.709167%,85.099792%);fill-opacity:0.3;" d="M 112.367188 87.671875 L 229.507812 56.285156 L 247.867188 124.800781 L 130.726562 156.1875 Z M 112.367188 87.671875 "/>
<path style="fill:none;stroke-width:1;stroke-linecap:butt;stroke-linejoin:miter;stroke:rgb(0%,0%,0%);stroke-opacity:1;stroke-miterlimit:10;" d="M 182.000419 218.118366 L 345.998216 174.11816 " transform="matrix(0.717593,0,0,0.717593,0.358796,0.358796)"/>
<path style="fill:none;stroke-width:1;stroke-linecap:butt;stroke-linejoin:miter;stroke:rgb(0%,0%,0%);stroke-opacity:1;stroke-miterlimit:10;" d="M 196.001227 214.117357 L 193.290339 207.062518 " transform="matrix(0.717593,0,0,0.717593,0.358796,0.358796)"/>
<path style="fill-rule:nonzero;fill:rgb(0%,0%,0%);fill-opacity:1;stroke-width:1;stroke-linecap:butt;stroke-linejoin:miter;stroke:rgb(0%,0%,0%);stroke-opacity:1;stroke-miterlimit:10;" d="M 191.401428 202.157881 L 196.088324 207.86272 L 193.290339 207.062518 L 191.738928 209.528446 Z M 191.401428 202.157881 " transform="matrix(0.717593,0,0,0.717593,0.358796,0.358796)"/>
<path style=" stroke:none;fill-rule:nonzero;fill:rgb(83.918762%,84.709167%,85.099792%);fill-opacity:0.3;" d="M 109.152344 109.425781 L 214.179688 48.789062 L 249.644531 110.21875 L 144.621094 170.855469 Z M 109.152344 109.425781 "/>
<path style="fill:none;stroke-width:1;stroke-linecap:butt;stroke-linejoin:miter;stroke:rgb(0%,0%,0%);stroke-opacity:1;stroke-miterlimit:10;" d="M 200.998405 238.117964 L 348.001442 153.122392 " transform="matrix(0.717593,0,0,0.717593,0.358796,0.358796)"/>
<path style="fill:none;stroke-width:1;stroke-linecap:butt;stroke-linejoin:miter;stroke:rgb(0%,0%,0%);stroke-opacity:1;stroke-miterlimit:10;" d="M 213.997599 231.11756 L 209.528446 224.421995 " transform="matrix(0.717593,0,0,0.717593,0.358796,0.358796)"/>
<path style="fill-rule:nonzero;fill:rgb(0%,0%,0%);fill-opacity:1;stroke-width:1;stroke-linecap:butt;stroke-linejoin:miter;stroke:rgb(0%,0%,0%);stroke-opacity:1;stroke-miterlimit:10;" d="M 206.621591 220.050826 L 212.451631 224.579858 L 209.528446 224.421995 L 208.559494 227.170988 Z M 206.621591 220.050826 " transform="matrix(0.717593,0,0,0.717593,0.358796,0.358796)"/>
<path style=" stroke:none;fill-rule:nonzero;fill:rgb(83.918762%,84.709167%,85.099792%);fill-opacity:0.3;" d="M 123.78125 122.074219 L 209.535156 36.324219 L 259.695312 86.480469 L 173.941406 172.234375 Z M 123.78125 122.074219 "/>
<path style="fill:none;stroke-width:1;stroke-linecap:butt;stroke-linejoin:miter;stroke:rgb(0%,0%,0%);stroke-opacity:1;stroke-miterlimit:10;" d="M 242.108086 239.881674 L 362.11112 119.87864 " transform="matrix(0.717593,0,0,0.717593,0.358796,0.358796)"/>
<path style="fill:none;stroke-width:1;stroke-linecap:butt;stroke-linejoin:miter;stroke:rgb(0%,0%,0%);stroke-opacity:1;stroke-miterlimit:10;" d="M 252.107885 229.881875 L 246.582683 224.541753 " transform="matrix(0.717593,0,0,0.717593,0.358796,0.358796)"/>
<path style="fill-rule:nonzero;fill:rgb(0%,0%,0%);fill-opacity:1;stroke-width:1;stroke-linecap:butt;stroke-linejoin:miter;stroke:rgb(0%,0%,0%);stroke-opacity:1;stroke-miterlimit:10;" d="M 242.799416 220.900019 L 249.46232 224.079052 L 246.582683 224.541753 L 246.217965 227.437721 Z M 242.799416 220.900019 " transform="matrix(0.717593,0,0,0.717593,0.358796,0.358796)"/>
<path style="fill:none;stroke-width:2;stroke-linecap:butt;stroke-linejoin:miter;stroke:rgb(0%,0%,0%);stroke-opacity:1;stroke-miterlimit:4;" d="M 332.001665 150.117912 C 331.998524 151.429804 331.902895 152.738583 331.710064 154.041527 C 331.517233 155.344472 331.229922 156.636868 330.845409 157.923429 C 330.463617 159.205277 329.987345 160.476575 329.4146 161.729889 C 328.846569 162.985925 328.184787 164.219262 327.431975 165.425186 C 326.681156 166.638545 325.84203 167.819778 324.916588 168.976319 C 323.986432 170.130138 322.980119 171.252559 321.885498 172.342852 C 320.798313 173.431154 319.625543 174.482613 318.379337 175.49796 C 317.135852 176.508593 315.81694 177.475677 314.427314 178.401935 C 313.037687 179.328193 311.580069 180.20891 310.061895 181.042094 C 308.546443 181.870563 306.970434 182.651499 305.331878 183.377466 C 303.698035 184.106154 302.013794 184.780603 300.281877 185.396097 C 298.54996 186.011591 296.775081 186.570852 294.961954 187.076603 C 293.146834 187.574918 291.296188 188.015008 289.417452 188.39488 C 287.535995 188.779466 285.63189 189.094406 283.70441 189.351851 C 281.77693 189.609296 279.838954 189.797824 277.880324 189.924142 C 275.923686 190.057896 273.963988 190.120741 271.998508 190.117391 C 270.03502 190.121476 268.073186 190.057375 266.117721 189.927808 C 264.162255 189.798241 262.222587 189.608651 260.296722 189.351604 C 258.368136 189.099271 256.46079 188.777487 254.581392 188.396411 C 252.701993 188.015334 250.855255 187.577687 249.039187 187.076032 C 247.223118 186.574378 245.447147 186.01416 243.715987 185.3981 C 241.980113 184.779318 240.301201 184.105424 238.664378 183.380403 C 237.030278 182.650667 235.455132 181.873255 233.936947 181.040731 C 232.418763 180.208206 230.964247 179.330727 229.576121 178.403579 C 228.185274 177.481145 226.868253 176.50705 225.616893 175.495436 C 224.372969 174.48183 223.206857 173.431435 222.113842 172.341528 C 221.020826 171.251621 220.007615 170.132362 219.084365 168.977042 C 218.1564 167.819 217.317668 166.637049 216.566176 165.423752 C 215.816677 164.217891 215.151695 162.985398 214.58066 161.731718 C 214.01434 160.480759 213.534529 159.210605 213.15338 157.921984 C 212.769509 156.638078 212.478855 155.345134 212.288854 154.04116 C 212.098854 152.737186 211.999349 151.428889 211.999768 150.121712 C 212.002908 148.80982 212.095815 147.505755 212.291368 146.198097 C 212.484199 144.895152 212.77151 143.602756 213.156023 142.316195 C 213.533101 141.031626 214.014087 139.763049 214.582118 138.507013 C 215.154863 137.253699 215.813924 136.025076 216.564743 134.811717 C 217.320276 133.601079 218.159402 132.419846 219.084844 131.263305 C 220.010285 130.106765 221.021313 128.987065 222.11122 127.89405 C 223.203119 126.808471 224.371175 125.754289 225.619374 124.746378 C 226.86558 123.731031 228.184492 122.763947 229.574118 121.837689 C 230.963745 120.911431 232.416648 120.027992 233.936815 119.202244 C 235.454989 118.369061 237.030998 117.588125 238.66484 116.859436 C 240.298683 116.130748 241.980202 115.461014 243.714841 114.840805 C 245.446758 114.225311 247.221637 113.66605 249.039478 113.163021 C 250.854598 112.664706 252.70053 112.221895 254.58398 111.844744 C 256.465437 111.460158 258.369542 111.145218 260.297022 110.887773 C 262.22178 110.635042 264.162478 110.4418 266.116394 110.31276 C 268.075024 110.186442 270.037444 110.118883 271.99821 110.119512 C 273.966412 110.118148 275.925524 110.186963 277.883711 110.311816 C 279.839177 110.441383 281.778845 110.630973 283.70471 110.88802 C 285.630574 111.145067 287.535927 111.459415 289.415326 111.840492 C 291.299439 112.22429 293.146177 112.661937 294.962245 113.163592 C 296.778314 113.665246 298.549571 114.222743 300.285445 114.841524 C 302.016605 115.457584 303.700231 116.1342 305.334332 116.863935 C 306.971154 117.588957 308.546301 118.366369 310.064485 119.198893 C 311.582669 120.031418 313.037185 120.908897 314.425311 121.836045 C 315.813436 122.763193 317.133179 123.732574 318.379824 124.741466 C 319.628463 125.757794 320.794575 126.808189 321.88759 127.898096 C 322.980606 128.988003 323.986381 130.109255 324.917067 131.262582 C 325.840317 132.417902 326.679049 133.599853 327.430541 134.813151 C 328.184755 136.021733 328.845023 137.251504 329.413336 138.509899 C 329.984371 139.763579 330.464181 141.033734 330.848052 142.31764 C 331.231923 143.601546 331.515141 144.896482 331.712578 146.198464 C 331.902578 147.502438 332.002083 148.810735 332.001665 150.117912 Z M 332.001665 150.117912 " transform="matrix(0.621453,-0.358796,0.358796,0.621453,-27.71264,112.02499)"/>
<path style="fill-rule:nonzero;fill:rgb(0%,0%,0%);fill-opacity:1;stroke-width:5.066242;stroke-linecap:butt;stroke-linejoin:miter;stroke:rgb(0%,0%,0%);stroke-opacity:0.2941;stroke-miterlimit:4;" d="M 308.078519 24.05937 C 347.369278 24.05937 383.316143 41.375626 415.919113 76.008138 C 448.689277 110.64065 465.408749 151.045247 466.077528 197.057013 C 466.077528 238.94586 448.689277 267.971203 414.079971 283.968125 C 343.356605 301.944048 298.046836 314.312802 277.98347 321.074388 C 257.920104 327.671057 244.042942 334.267726 236.017596 341.029312 C 196.058058 369.065154 175.994692 409.304835 175.994692 462.078186 C 175.994692 502.6477 186.695154 539.589046 207.928883 573.067141 C 229.329807 606.380319 251.06512 631.282744 272.967629 647.939333 C 292.362216 664.595922 315.602282 677.954176 343.022215 688.014096 C 370.274955 698.074016 391.675879 703.351352 407.057793 704.011018 L 424.947627 704.011018 C 488.983205 704.011018 535.296142 682.736761 564.053633 640.02333 C 564.722412 640.02333 569.069475 644.311165 576.927626 653.051751 C 584.952973 661.627421 593.647098 671.357507 603.010002 682.077094 C 612.372907 692.631765 619.060695 700.053017 623.073369 704.011018 C 623.742148 704.011018 625.079705 704.011018 626.918847 704.011018 C 628.925184 704.011018 630.597131 704.340852 631.934689 705.000519 C 640.628814 705.000519 644.975877 702.691685 644.975877 698.074016 C 644.975877 693.291431 635.612973 653.051751 617.054359 577.025142 C 598.32855 500.998533 587.628088 461.748353 584.952973 458.944768 C 582.277857 456.306101 576.927626 455.3166 569.069475 455.976267 C 555.693897 455.976267 549.006108 458.944768 549.006108 465.046687 C 549.006108 469.004688 549.340498 472.303023 550.009277 474.94169 C 550.009277 476.920691 550.343666 483.352443 551.012445 494.07203 C 551.681224 504.626701 552.350003 513.367287 553.018782 519.963956 C 553.018782 542.722464 550.009277 562.347554 543.990267 579.004143 C 537.971257 595.660732 531.952247 608.029486 525.933237 615.945488 C 520.081422 624.026408 511.721686 632.272244 501.021224 641.01283 C 476.945185 655.030752 449.692446 661.957254 418.928618 661.957254 C 380.975417 661.957254 345.697331 646.619999 312.927166 615.945488 C 280.324196 585.270978 263.604724 549.978799 262.935945 510.068952 C 262.935945 489.949112 267.951787 472.632856 277.98347 457.955268 C 288.015153 443.27768 301.72512 433.052843 318.946176 426.950924 C 321.621292 425.63159 345.028552 419.364755 389.000763 407.985501 C 432.972974 396.606247 455.377066 390.669245 456.045845 390.009578 C 478.617132 382.588326 500.686835 366.591404 521.920564 342.018812 C 543.321488 317.281303 554.02195 283.968125 554.02195 242.079278 C 554.02195 224.598105 551.346834 205.962516 545.996604 186.007592 C 542.652709 171.330004 536.633699 155.003248 527.939574 137.027325 C 519.412643 119.051403 507.374624 99.261396 491.99271 77.987139 C 476.610795 56.712881 454.708287 36.593041 425.950796 17.957452 C 397.360499 -0.678138 365.927892 -13.376726 331.987364 -19.973395 C 323.962018 -21.292728 312.592777 -21.952395 298.046836 -21.952395 C 232.004923 -21.952395 180.676144 -3.646639 144.060501 32.964873 L 134.028818 44.014294 L 105.940105 13.00995 C 90.725386 -4.965973 81.362481 -15.355726 78.018587 -17.994394 C 74.674693 -20.633062 70.32763 -21.952395 64.977399 -21.952395 C 56.283274 -21.952395 51.936211 -19.313728 51.936211 -14.036393 C 51.936211 -12.057392 71.330798 66.278051 109.952778 220.969937 C 111.290336 224.927939 117.978125 227.071856 130.016144 227.071856 L 143.057332 227.071856 C 147.070006 222.948938 149.076342 219.32077 149.076342 216.022436 C 149.076342 214.703102 148.741953 211.734601 148.073174 206.952016 C 147.404395 202.334348 146.066837 195.407845 144.060501 186.007592 C 142.054164 176.607339 141.385385 165.722835 142.054164 153.024248 C 143.391722 126.967405 149.410732 105.033481 159.943999 87.057558 C 170.644461 69.081636 185.023207 55.723381 203.080236 46.982795 C 220.970071 38.407125 238.358322 32.305206 255.077794 29.006872 C 271.630071 25.708538 289.352711 24.05937 308.078519 24.05937 Z M 308.078519 24.05937 " transform="matrix(0.0233635,0,0,-0.0236862,188.009246,114.292531)"/>
</g>
</svg>
