<?xml version="1.0" encoding="UTF-8"?>
<!DOCTYPE svg PUBLIC "-//W3C//DTD SVG 1.1//EN" "http://www.w3.org/Graphics/SVG/1.1/DTD/svg11.dtd">
<svg xmlns="http://www.w3.org/2000/svg" xmlns:xlink="http://www.w3.org/1999/xlink" version="1.1" width="401px" height="169px" viewBox="-0.5 -0.5 401 169"><defs><style type="text/css">@font-face {&#xa;font-family: "Palatino";&#xa;src: url("https://github.com/MerkulovDaniil/merkulovdaniil.github.io/raw/main/css/fonts/PalatinoLinotype-Roman.ttf");&#xa;}&#xa;</style></defs><g><path d="M 53.37 164 L 61.19 114.8 L 89.61 114.8 L 97.43 164 Z" fill="#d6d8d9" stroke="none" transform="rotate(90,75.4,139.4)" pointer-events="all"/><rect x="330" y="102" width="60" height="60.5" fill="#d6d8d9" stroke="rgb(0, 0, 0)" pointer-events="all"/><ellipse cx="160" cy="132.5" rx="35" ry="35" fill="#d6d8d9" stroke="rgb(0, 0, 0)" pointer-events="all"/><ellipse cx="50" cy="35" rx="50" ry="35" fill="#d6d8d9" stroke="rgb(0, 0, 0)" pointer-events="all"/><path d="M 150 5 L 170 5 L 210 37 L 210 65 L 110 65 L 110 37 Z" fill="#d6d8d9" stroke="rgb(0, 0, 0)" stroke-miterlimit="10" pointer-events="all"/><path d="M 0 111.5 Q 16.67 95.3 33.33 111.5 Q 50 127.7 66.67 111.5 Q 83.33 95.3 100 111.5 L 100 153.5 Q 83.33 137.3 66.67 153.5 Q 50 169.7 33.33 153.5 Q 16.67 137.3 0 153.5 Z" fill="#d6d8d9" stroke="none" pointer-events="all"/><rect x="226" y="2.5" width="80" height="65" fill="#d6d8d9" stroke="rgb(0, 0, 0)" pointer-events="all"/><path d="M 330 -5 L 390 35 L 330 75 Z" fill="#d6d8d9" stroke="none" transform="rotate(-90,360,35)" pointer-events="all"/><rect x="220" y="95" width="80" height="70" fill="#d6d8d9" stroke="none" pointer-events="none"/><path d="M 220 95 M 300 95 L 300 165 L 220 165" fill="none" stroke="rgb(0, 0, 0)" stroke-linecap="square" stroke-miterlimit="10" pointer-events="none"/><path d="M 220 95 M 300 95 L 300 165 L 220 165" fill="none" stroke="rgb(0, 0, 0)" stroke-linecap="square" stroke-miterlimit="10" transform="rotate(180,260,130)" pointer-events="none"/><rect x="13" y="103.4" width="74" height="25" rx="3.75" ry="3.75" fill="#d6d8d9" stroke="none" pointer-events="none"/><path d="M 2.56 164 L 10.38 114.8 L 38.8 114.8 L 46.62 164 Z" fill="#d6d8d9" stroke="none" transform="translate(24.59,0)scale(-1,1)translate(-24.59,0)rotate(90,24.59,139.4)" pointer-events="none"/></g></svg>