<?xml version="1.0" encoding="UTF-8"?>
<!DOCTYPE svg PUBLIC "-//W3C//DTD SVG 1.1//EN" "http://www.w3.org/Graphics/SVG/1.1/DTD/svg11.dtd">
<svg xmlns="http://www.w3.org/2000/svg" xmlns:xlink="http://www.w3.org/1999/xlink" version="1.1" width="401px" height="169px" viewBox="-0.5 -0.5 401 169"><defs><style type="text/css">@font-face {&#xa;font-family: "Palatino";&#xa;src: url("https://github.com/MerkulovDaniil/merkulovdaniil.github.io/raw/main/css/fonts/PalatinoLinotype-Roman.ttf");&#xa;}&#xa;</style></defs><g><ellipse cx="50" cy="35" rx="50" ry="35" fill="#d6d8d9" stroke="rgb(0, 0, 0)" pointer-events="all"/><path d="M 150 5 L 170 5 L 210 37 L 210 65 L 110 65 L 110 37 Z" fill="#d6d8d9" stroke="rgb(0, 0, 0)" stroke-miterlimit="10" pointer-events="all"/><path d="M 0 111.5 Q 16.67 95.3 33.33 111.5 Q 50 127.7 66.67 111.5 Q 83.33 95.3 100 111.5 L 100 153.5 Q 83.33 137.3 66.67 153.5 Q 50 169.7 33.33 153.5 Q 16.67 137.3 0 153.5 Z" fill="#d6d8d9" stroke="none" pointer-events="all"/><path d="M 125 132.5 C 125 113.17 140.67 97.5 160 97.5 C 179.33 97.5 195 113.17 195 132.5 C 195 151.83 179.33 167.5 160 167.5 C 140.67 167.5 125 151.83 125 132.5 Z M 180.27 146.29 C 186.92 136.56 185.71 123.47 177.37 115.13 C 169.03 106.79 155.94 105.58 146.21 112.23 Z M 139.81 118.71 C 133.17 128.43 134.38 141.49 142.69 149.82 C 151 158.15 164.05 159.4 173.79 152.8 Z" fill="#d6d8d9" stroke="rgb(0, 0, 0)" stroke-miterlimit="10" pointer-events="all"/><path d="M 330 102.5 Q 360 132.5 390 102.5 Q 360 132.5 390 162.5 Q 360 132.5 330 162.5 Q 360 132.5 330 102.5" fill="#d6d8d9" stroke="rgb(0, 0, 0)" stroke-miterlimit="10" pointer-events="all"/><rect x="226" y="2.5" width="80" height="65" fill="#d6d8d9" stroke="rgb(0, 0, 0)" pointer-events="all"/><path d="M 330 -5 L 390 35 L 330 75 Z" fill="#d6d8d9" stroke="none" transform="rotate(-90,360,35)" pointer-events="all"/><rect x="220" y="95" width="80" height="70" fill="#d6d8d9" stroke="none" pointer-events="none"/><path d="M 220 95 M 300 95 L 300 165 L 220 165" fill="none" stroke="rgb(0, 0, 0)" stroke-linecap="square" stroke-miterlimit="10" pointer-events="none"/><path d="M 220 95 M 270 95 L 270 135 L 220 135" fill="none" stroke="rgb(0, 0, 0)" stroke-linecap="square" stroke-miterlimit="10" transform="rotate(180,245,115)" pointer-events="none"/></g></svg>