<svg width="1539" height="801" xmlns="http://www.w3.org/2000/svg" xmlns:xlink="http://www.w3.org/1999/xlink" overflow="hidden"><defs><clipPath id="clip0"><path d="M195 23 1734 23 1734 824 195 824Z" fill-rule="evenodd" clip-rule="evenodd"/></clipPath></defs><g clip-path="url(#clip0)" transform="translate(-195 -23)"><path d="M0 0 1536.62 567.397" stroke="#5B9BD5" stroke-miterlimit="8" fill="none" fill-rule="evenodd" transform="matrix(1 0 0 -1 196.5 822.897)"/><text font-family="CMU Classical Serif,CMU Classical Serif_MSFontService,sans-serif" font-style="italic" font-weight="500" font-size="125" transform="translate(456.517 663)">0</text><path d="M538 693.5C538 689.91 540.91 687 544.5 687 548.09 687 551 689.91 551 693.5 551 697.09 548.09 700 544.5 700 540.91 700 538 697.09 538 693.5Z" fill="#5B9BD5" fill-rule="evenodd"/><path d="M0 0 392.5 648.75" stroke="#5B9BD5" stroke-miterlimit="8" fill="none" fill-rule="evenodd" transform="matrix(1 0 0 -1 496.5 774.25)"/><path d="M727.5 395.5 751.719 617.375" stroke="#5B9BD5" stroke-miterlimit="8" fill="none" fill-rule="evenodd"/><path d="M798.5 276.5 833.537 587.055" stroke="#5B9BD5" stroke-miterlimit="8" fill="none" fill-rule="evenodd"/><path d="M650.5 520.5 664.637 650.012" stroke="#5B9BD5" stroke-miterlimit="8" fill="none" fill-rule="evenodd"/><path d="M605.5 595.5 613.533 669.094" stroke="#5B9BD5" stroke-miterlimit="8" fill="none" fill-rule="evenodd"/><path d="M870.5 154.5 914.435 557" stroke="#5B9BD5" stroke-miterlimit="8" fill="none" fill-rule="evenodd"/><path d="M959.5 57.5 1010.13 521.346" stroke="#5B9BD5" stroke-miterlimit="8" fill="none" fill-rule="evenodd"/><path d="M1050.5 24.5 1101.13 488.346" stroke="#5B9BD5" stroke-miterlimit="8" fill="none" fill-rule="evenodd"/></g></svg>