<svg width="1539" height="753" xmlns="http://www.w3.org/2000/svg" xmlns:xlink="http://www.w3.org/1999/xlink" overflow="hidden"><defs><clipPath id="clip0"><path d="M195 140 1734 140 1734 893 195 893Z" fill-rule="evenodd" clip-rule="evenodd"/></clipPath></defs><g clip-path="url(#clip0)" transform="translate(-195 -140)"><path d="M0 0 1536.62 567.397" stroke="#5B9BD5" stroke-miterlimit="8" fill="none" fill-rule="evenodd" transform="matrix(1 0 0 -1 196.5 822.897)"/><text font-family="CMU Classical Serif,CMU Classical Serif_MSFontService,sans-serif" font-style="italic" font-weight="500" font-size="125" transform="translate(454.091 593)">x<tspan font-size="83" x="57.8125" y="30">1</tspan><tspan x="851.364" y="-307">x</tspan><tspan font-size="83" x="909.176" y="-277">2</tspan></text><path d="M538 693.5C538 689.91 540.91 687 544.5 687 548.09 687 551 689.91 551 693.5 551 697.09 548.09 700 544.5 700 540.91 700 538 697.09 538 693.5Z" fill="#5B9BD5" fill-rule="evenodd"/><path d="M1372 386.5C1372 382.91 1374.91 380 1378.5 380 1382.09 380 1385 382.91 1385 386.5 1385 390.09 1382.09 393 1378.5 393 1374.91 393 1372 390.09 1372 386.5Z" fill="#5B9BD5" fill-rule="evenodd"/><path d="M0 0 833.35 307.714" stroke="#5B9BD5" stroke-width="5" stroke-miterlimit="8" fill="none" fill-rule="evenodd" transform="matrix(1 0 0 -1 545.5 693.214)"/><text font-family="Cambria,Cambria_MSFontService,sans-serif" font-style="italic" font-weight="400" font-size="83" transform="translate(528.446 814)">θ<tspan font-family="CMU Classical Serif,CMU Classical Serif_MSFontService,sans-serif" font-weight="500" x="81.25" y="0">= 1</tspan><tspan x="806.25" y="-299">θ</tspan><tspan font-family="CMU Classical Serif,CMU Classical Serif_MSFontService,sans-serif" font-weight="500" x="887.5" y="-299">= 0</tspan><tspan x="355.958" y="-117">θ</tspan><tspan font-family="CMU Classical Serif,CMU Classical Serif_MSFontService,sans-serif" font-weight="500" x="437.208" y="-117">= 0.6</tspan></text><path d="M882 566.5C882 562.91 884.91 560 888.5 560 892.09 560 895 562.91 895 566.5 895 570.09 892.09 573 888.5 573 884.91 573 882 570.09 882 566.5Z" fill="#5B9BD5" fill-rule="evenodd"/></g></svg>