<svg width="1966" height="1218" xmlns="http://www.w3.org/2000/svg" xmlns:xlink="http://www.w3.org/1999/xlink" overflow="hidden"><defs><clipPath id="clip0"><path d="M-44-26 1922-26 1922 1192-44 1192Z" fill-rule="evenodd" clip-rule="evenodd"/></clipPath></defs><g clip-path="url(#clip0)" transform="translate(44 26)"><text font-family="CMU Classical Serif,CMU Classical Serif_MSFontService,sans-serif" font-style="italic" font-weight="500" font-size="125" transform="translate(488.372 522)">X</text><path d="M0 0 399.838 147.64" stroke="#5B9BD5" stroke-width="13" stroke-miterlimit="8" fill="none" fill-rule="evenodd" transform="matrix(1 0 0 -1 335.5 647.14)"/><path d="M329.5 647C329.5 643.41 332.41 640.5 336 640.5 339.59 640.5 342.5 643.41 342.5 647 342.5 650.59 339.59 653.5 336 653.5 332.41 653.5 329.5 650.59 329.5 647Z" stroke="#41719C" stroke-width="13" stroke-miterlimit="8" fill="#5B9BD5" fill-rule="evenodd"/><path d="M722.5 499C722.5 495.41 725.41 492.5 729 492.5 732.59 492.5 735.5 495.41 735.5 499 735.5 502.59 732.59 505.5 729 505.5 725.41 505.5 722.5 502.59 722.5 499Z" stroke="#41719C" stroke-width="13" stroke-miterlimit="8" fill="#5B9BD5" fill-rule="evenodd"/><path d="M3-5.28909e-07 3.00016 924.516-2.99984 924.516-3 5.28909e-07ZM13.0915 908.027 0.000163816 930.469-13.0912 908.027C-13.926 906.595-13.4426 904.758-12.0115 903.924-10.5803 903.089-8.74335 903.572-7.9085 905.003L2.5915 923.003-2.59117 923.003 7.90882 905.003C8.74366 903.572 10.5806 903.089 12.0118 903.924 13.4429 904.758 13.9263 906.595 13.0915 908.027Z" fill="#5B9BD5" transform="matrix(1 0 0 -1 170 1066.45)"/><path d="M6.42499e-07-3 760.017-2.99984 760.017 3.00016-6.42499e-07 3ZM743.528-13.0912 765.97 0.000163592 743.528 13.0915C742.096 13.9263 740.259 13.4429 739.425 12.0118 738.59 10.5806 739.073 8.74366 740.504 7.90882L758.504-2.59117 758.504 2.5915 740.504-7.9085C739.073-8.74335 738.59-10.5803 739.425-12.0115 740.259-13.4426 742.096-13.926 743.528-13.0912Z" fill="#5B9BD5" transform="matrix(1 0 0 -1 37 971)"/><text font-family="CMU Classical Serif,CMU Classical Serif_MSFontService,sans-serif" font-style="italic" font-weight="500" font-size="125" transform="translate(752.505 1073)">x<tspan font-size="83" x="57.8125" y="30">1</tspan><tspan x="-720.358" y="-954">x</tspan><tspan font-size="83" x="-662.546" y="-924">2</tspan></text><path d="M0 0 399.838 147.64" stroke="#5B9BD5" stroke-width="13" stroke-miterlimit="8" fill="none" fill-rule="evenodd" transform="matrix(1 0 0 -1 1449.5 647.14)"/><path d="M3-5.28909e-07 3.00016 924.516-2.99984 924.516-3 5.28909e-07ZM13.0915 908.027 0.000163816 930.469-13.0912 908.027C-13.926 906.595-13.4426 904.758-12.0115 903.924-10.5803 903.089-8.74335 903.572-7.9085 905.003L2.5915 923.003-2.59117 923.003 7.90882 905.003C8.74366 903.572 10.5806 903.089 12.0118 903.924 13.4429 904.758 13.9263 906.595 13.0915 908.027Z" fill="#5B9BD5" transform="matrix(1 0 0 -1 1189 1066.45)"/><path d="M6.42499e-07-3 760.017-2.99984 760.017 3.00016-6.42499e-07 3ZM743.528-13.0912 765.97 0.000163592 743.528 13.0915C742.096 13.9263 740.259 13.4429 739.425 12.0118 738.59 10.5806 739.073 8.74366 740.504 7.90882L758.504-2.59117 758.504 2.5915 740.504-7.9085C739.073-8.74335 738.59-10.5803 739.425-12.0115 740.259-13.4426 742.096-13.926 743.528-13.0912Z" fill="#5B9BD5" transform="matrix(1 0 0 -1 1056 971)"/><text font-family="CMU Classical Serif,CMU Classical Serif_MSFontService,sans-serif" font-style="italic" font-weight="500" font-size="125" transform="translate(1770.99 1073)">x<tspan font-size="83" x="57.8125" y="30">1</tspan><tspan x="-625.031" y="-954">x</tspan><tspan font-size="83" x="-567.219" y="-924">2</tspan><tspan x="-560.514" y="-551">r</tspan><tspan x="-507.649" y="-551">elint</tspan><tspan x="-268.066" y="-551">(X)</tspan></text><path d="M1419.5 647C1419.5 630.155 1433.16 616.5 1450 616.5 1466.84 616.5 1480.5 630.155 1480.5 647 1480.5 663.845 1466.84 677.5 1450 677.5 1433.16 677.5 1419.5 663.845 1419.5 647Z" stroke="#41719C" stroke-width="13" stroke-miterlimit="8" fill="#FFFFFF" fill-rule="evenodd"/><path d="M1819.5 499C1819.5 482.155 1833.16 468.5 1850 468.5 1866.84 468.5 1880.5 482.155 1880.5 499 1880.5 515.845 1866.84 529.5 1850 529.5 1833.16 529.5 1819.5 515.845 1819.5 499Z" stroke="#41719C" stroke-width="13" stroke-miterlimit="8" fill="#FFFFFF" fill-rule="evenodd"/></g></svg>