<svg width="1191" height="211" xmlns="http://www.w3.org/2000/svg" xmlns:xlink="http://www.w3.org/1999/xlink" overflow="hidden"><defs><clipPath id="clip0"><path d="M50 257 1241 257 1241 468 50 468Z" fill-rule="evenodd" clip-rule="evenodd"/></clipPath><clipPath id="clip1"><path d="M537 257 743 257 743 463 537 463Z" fill-rule="evenodd" clip-rule="evenodd"/></clipPath><clipPath id="clip2"><path d="M537 257 743 257 743 463 537 463Z" fill-rule="evenodd" clip-rule="evenodd"/></clipPath><clipPath id="clip3"><path d="M537 257 743 257 743 463 537 463Z" fill-rule="evenodd" clip-rule="evenodd"/></clipPath><clipPath id="clip4"><path d="M537 257 743 257 743 463 537 463Z" fill-rule="evenodd" clip-rule="evenodd"/></clipPath></defs><g clip-path="url(#clip0)" transform="translate(-50 -257)"><path d="M51.5001 453C51.5001 449.41 54.8579 446.5 59.0001 446.5 63.1422 446.5 66.5001 449.41 66.5001 453 66.5001 456.59 63.1422 459.5 59.0001 459.5 54.8579 459.5 51.5001 456.59 51.5001 453Z" stroke="#41719C" stroke-miterlimit="8" fill="#5B9BD5" fill-rule="evenodd"/><path d="M109.5 457C109.5 453.41 112.858 450.5 117 450.5 121.142 450.5 124.5 453.41 124.5 457 124.5 460.59 121.142 463.5 117 463.5 112.858 463.5 109.5 460.59 109.5 457Z" stroke="#41719C" stroke-miterlimit="8" fill="#5B9BD5" fill-rule="evenodd"/><path d="M893.5 455.598C924.01 455.309 961.905 457.185 987.712 427.893 1013.52 398.602 1032.49 286.487 1048.34 279.849 1064.2 273.212 1073.45 363.106 1082.86 388.069 1092.26 413.031 1091.8 418.659 1104.78 429.625 1117.76 440.591 1138.13 449.682 1160.75 453.866 1183.37 458.05 1211.93 456.391 1240.5 454.732" stroke="#41719C" stroke-miterlimit="8" fill="none" fill-rule="evenodd"/><path d="M135.5 407C135.5 403.41 138.858 400.5 143 400.5 147.142 400.5 150.5 403.41 150.5 407 150.5 410.59 147.142 413.5 143 413.5 138.858 413.5 135.5 410.59 135.5 407Z" stroke="#41719C" stroke-miterlimit="8" fill="#5B9BD5" fill-rule="evenodd"/><path d="M164.5 375C164.5 371.41 167.858 368.5 172 368.5 176.142 368.5 179.5 371.41 179.5 375 179.5 378.59 176.142 381.5 172 381.5 167.858 381.5 164.5 378.59 164.5 375Z" stroke="#41719C" stroke-miterlimit="8" fill="#5B9BD5" fill-rule="evenodd"/><path d="M172.5 318C172.5 314.41 175.634 311.5 179.5 311.5 183.366 311.5 186.5 314.41 186.5 318 186.5 321.59 183.366 324.5 179.5 324.5 175.634 324.5 172.5 321.59 172.5 318Z" stroke="#41719C" stroke-miterlimit="8" fill="#5B9BD5" fill-rule="evenodd"/><path d="M189.5 282C189.5 278.41 192.858 275.5 197 275.5 201.142 275.5 204.5 278.41 204.5 282 204.5 285.59 201.142 288.5 197 288.5 192.858 288.5 189.5 285.59 189.5 282Z" stroke="#41719C" stroke-miterlimit="8" fill="#5B9BD5" fill-rule="evenodd"/><path d="M210.5 324C210.5 320.41 213.858 317.5 218 317.5 222.142 317.5 225.5 320.41 225.5 324 225.5 327.59 222.142 330.5 218 330.5 213.858 330.5 210.5 327.59 210.5 324Z" stroke="#41719C" stroke-miterlimit="8" fill="#5B9BD5" fill-rule="evenodd"/><path d="M227.5 368C227.5 364.41 230.858 361.5 235 361.5 239.142 361.5 242.5 364.41 242.5 368 242.5 371.59 239.142 374.5 235 374.5 230.858 374.5 227.5 371.59 227.5 368Z" stroke="#41719C" stroke-miterlimit="8" fill="#5B9BD5" fill-rule="evenodd"/><path d="M233.5 420C233.5 416.41 236.858 413.5 241 413.5 245.142 413.5 248.5 416.41 248.5 420 248.5 423.59 245.142 426.5 241 426.5 236.858 426.5 233.5 423.59 233.5 420Z" stroke="#41719C" stroke-miterlimit="8" fill="#5B9BD5" fill-rule="evenodd"/><path d="M80.5001 450C80.5001 446.41 83.8579 443.5 88.0001 443.5 92.1422 443.5 95.5001 446.41 95.5001 450 95.5001 453.59 92.1422 456.5 88.0001 456.5 83.8579 456.5 80.5001 453.59 80.5001 450Z" stroke="#41719C" stroke-miterlimit="8" fill="#5B9BD5" fill-rule="evenodd"/><path d="M261.5 439C261.5 435.41 264.858 432.5 269 432.5 273.142 432.5 276.5 435.41 276.5 439 276.5 442.59 273.142 445.5 269 445.5 264.858 445.5 261.5 442.59 261.5 439Z" stroke="#41719C" stroke-miterlimit="8" fill="#5B9BD5" fill-rule="evenodd"/><path d="M307.5 453C307.5 449.41 310.858 446.5 315 446.5 319.142 446.5 322.5 449.41 322.5 453 322.5 456.59 319.142 459.5 315 459.5 310.858 459.5 307.5 456.59 307.5 453Z" stroke="#41719C" stroke-miterlimit="8" fill="#5B9BD5" fill-rule="evenodd"/><path d="M361.5 444C361.5 440.41 364.634 437.5 368.5 437.5 372.366 437.5 375.5 440.41 375.5 444 375.5 447.59 372.366 450.5 368.5 450.5 364.634 450.5 361.5 447.59 361.5 444Z" stroke="#41719C" stroke-miterlimit="8" fill="#5B9BD5" fill-rule="evenodd"/><path d="M334.5 461C334.5 457.41 337.858 454.5 342 454.5 346.142 454.5 349.5 457.41 349.5 461 349.5 464.59 346.142 467.5 342 467.5 337.858 467.5 334.5 464.59 334.5 461Z" stroke="#41719C" stroke-miterlimit="8" fill="#5B9BD5" fill-rule="evenodd"/><g clip-path="url(#clip1)"><g clip-path="url(#clip2)"><g clip-path="url(#clip3)"><g clip-path="url(#clip4)"><path d="M0 0C0-50.5673 40.994-91.5556 91.5556-91.5556 142.123-91.5556 183.111-50.5673 183.111 0 183.111 50.5616 142.123 91.5556 91.5556 91.5556 40.994 91.5556 0 50.5616 0 0" fill="#FFCC4D" transform="matrix(1 0 0 -1 548.444 348.556)"/><path d="M0 0C0-7.90239-5.12711-14.3056-11.4444-14.3056-17.7618-14.3056-22.8889-7.90239-22.8889 0-22.8889 7.89667-17.7618 14.3056-11.4444 14.3056-5.12711 14.3056 0 7.89667 0 0" fill="#664500" transform="matrix(1 0 0 -1 625.158 317.083)"/><path d="M0 0C0-7.90239-5.12139-14.3056-11.4444-14.3056-17.7618-14.3056-22.8889-7.90239-22.8889 0-22.8889 7.89667-17.7618 14.3056-11.4444 14.3056-5.12139 14.3056 0 7.89667 0 0" fill="#664500" transform="matrix(1 0 0 -1 685.778 322.806)"/><path d="M0 0C-0.938444 0.497833-1.73383 1.27606-2.23739 2.27744-3.47339 4.73228-2.46628 7.58194 0.0114444 8.64628 24.4224 19.1179 44.0668 8.89233 44.8908 8.45172 47.3686 7.12989 48.3699 4.1715 47.1282 1.84828 45.8922-0.469222 42.8938-1.27606 40.4161 0.0286111 39.7122 0.394833 24.2107 8.22283 4.49194-0.240333 3.02133-0.864056 1.36189-0.726722 0 0" fill="#664500" transform="matrix(1 0 0 -1 592.339 293.239)"/><path d="M0 0C-0.778222 0.726722-1.35044 1.67661-1.57933 2.781-2.14583 5.46472-0.446333 7.96533 2.22594 8.35444 28.5024 12.2341 44.8679-2.68372 45.5603-3.31889 47.6203-5.23011 47.8206-8.33728 46.0296-10.2714 44.2442-12.1941 41.1371-12.2055 39.0828-10.3057 38.4877-9.77928 25.5097 1.75672 4.28022-1.37333 2.69517-1.60794 1.12728-1.05289 0 0" fill="#664500" transform="matrix(1 0 0 -1 621.361 368.997)"/><path d="M0 0C-0.892667 0.560778-1.63656 1.3905-2.07144 2.42622-3.1415 4.95544-1.93983 7.73644 0.600833 8.62911 25.6699 17.4184 44.5761 5.88244 45.3715 5.38461 47.7462 3.89683 48.5416 0.881222 47.1511-1.35617 45.7663-3.58783 42.7107-4.18867 40.3359-2.71806 39.6493-2.30033 24.7257 6.55767 4.47478-0.543611 2.96411-1.07006 1.31611-0.818278 0 0" fill="#664500" transform="matrix(1 0 0 -1 653.909 314.697)"/><path d="M0 0C0 0 7.23861 2.35183 8.17706 7.73644 9.167 13.2927 4.60639 14.4143 4.60639 14.4143 4.60639 14.4143 10.5632 15.6045 11.3128 22.2881 12.0167 28.5825 6.38028 30.0874 6.38028 30.0874 6.38028 30.0874 11.9308 32.3763 12.1941 38.8939 12.4115 44.3816 6.50044 47.0653 6.50044 47.0653 6.50044 47.0653 35.329 54.0464 38.2874 54.7331 41.2401 55.4254 45.8464 58.2579 44.4102 64.4322 42.9853 70.6122 37.5206 70.8297 34.6938 70.1716 31.8671 69.5078-3.89683 61.2049-16.2339 58.3323-17.5501 58.0291-23.7186 56.6042-24.4682 56.4211-27.5582 55.6944-28.9602 57.0563-26.7857 59.3509-23.8731 62.418-22.0191 65.8113-21.3668 71.4419-20.6858 77.3702-22.6943 84.6832-23.8445 87.5157-25.9846 92.7858-29.5953 96.9516-33.7668 98.3822-40.2787 100.614-44.9023 96.5453-42.5905 89.4498-39.1343 78.8351-41.3946 70.1373-47.3571 64.8843-61.3708 52.5414-67.8942 43.7407-63.551 24.9832-58.8187 4.52628-38.5048-8.64056-18.0479-3.90256-16.9664-3.66222 0 0 0 0" fill="#F4900C" transform="matrix(1 0 0 -1 635.859 458.032)"/></g></g></g></g><path d="M401 358 492.872 358 492.872 362 401 362ZM490.872 354 502.872 360 490.872 366Z" fill="#5B9BD5"/><path d="M771 358 862.872 358 862.872 362 771 362ZM860.872 354 872.872 360 860.872 366Z" fill="#5B9BD5"/></g></svg>