<?xml version="1.0" encoding="utf-8" standalone="no"?>
<!DOCTYPE svg PUBLIC "-//W3C//DTD SVG 1.1//EN"
  "http://www.w3.org/Graphics/SVG/1.1/DTD/svg11.dtd">
<!-- Created with matplotlib (https://matplotlib.org/) -->
<svg height="288pt" version="1.1" viewBox="0 0 432 288" width="432pt" xmlns="http://www.w3.org/2000/svg" xmlns:xlink="http://www.w3.org/1999/xlink">
 <defs>
  <style type="text/css">
*{stroke-linecap:butt;stroke-linejoin:round;}
  </style>
 </defs>
 <g id="figure_1">
  <g id="patch_1">
   <path d="M 0 288 
L 432 288 
L 432 0 
L 0 0 
z
" style="fill:#ffffff;"/>
  </g>
  <g id="axes_1">
   <g id="patch_2">
    <path d="M 54 252 
L 388.8 252 
L 388.8 34.56 
L 54 34.56 
z
" style="fill:#eaeaf2;"/>
   </g>
   <g id="matplotlib.axis_1">
    <g id="xtick_1">
     <g id="line2d_1">
      <path clip-path="url(#pa5b0adf7f6)" d="M 69.218182 252 
L 69.218182 34.56 
" style="fill:none;stroke:#ffffff;stroke-linecap:round;"/>
     </g>
     <g id="text_1">
      <!-- −10.0 -->
      <defs>
       <path d="M 10.59375 35.5 
L 73.1875 35.5 
L 73.1875 27.203125 
L 10.59375 27.203125 
z
" id="DejaVuSans-8722"/>
       <path d="M 12.40625 8.296875 
L 28.515625 8.296875 
L 28.515625 63.921875 
L 10.984375 60.40625 
L 10.984375 69.390625 
L 28.421875 72.90625 
L 38.28125 72.90625 
L 38.28125 8.296875 
L 54.390625 8.296875 
L 54.390625 0 
L 12.40625 0 
z
" id="DejaVuSans-49"/>
       <path d="M 31.78125 66.40625 
Q 24.171875 66.40625 20.328125 58.90625 
Q 16.5 51.421875 16.5 36.375 
Q 16.5 21.390625 20.328125 13.890625 
Q 24.171875 6.390625 31.78125 6.390625 
Q 39.453125 6.390625 43.28125 13.890625 
Q 47.125 21.390625 47.125 36.375 
Q 47.125 51.421875 43.28125 58.90625 
Q 39.453125 66.40625 31.78125 66.40625 
z
M 31.78125 74.21875 
Q 44.046875 74.21875 50.515625 64.515625 
Q 56.984375 54.828125 56.984375 36.375 
Q 56.984375 17.96875 50.515625 8.265625 
Q 44.046875 -1.421875 31.78125 -1.421875 
Q 19.53125 -1.421875 13.0625 8.265625 
Q 6.59375 17.96875 6.59375 36.375 
Q 6.59375 54.828125 13.0625 64.515625 
Q 19.53125 74.21875 31.78125 74.21875 
z
" id="DejaVuSans-48"/>
       <path d="M 10.6875 12.40625 
L 21 12.40625 
L 21 0 
L 10.6875 0 
z
" id="DejaVuSans-46"/>
      </defs>
      <g style="fill:#262626;" transform="translate(52.36326 269.858281)scale(0.11 -0.11)">
       <use xlink:href="#DejaVuSans-8722"/>
       <use x="83.789062" xlink:href="#DejaVuSans-49"/>
       <use x="147.412109" xlink:href="#DejaVuSans-48"/>
       <use x="211.035156" xlink:href="#DejaVuSans-46"/>
       <use x="242.822266" xlink:href="#DejaVuSans-48"/>
      </g>
     </g>
    </g>
    <g id="xtick_2">
     <g id="line2d_2">
      <path clip-path="url(#pa5b0adf7f6)" d="M 107.263636 252 
L 107.263636 34.56 
" style="fill:none;stroke:#ffffff;stroke-linecap:round;"/>
     </g>
     <g id="text_2">
      <!-- −7.5 -->
      <defs>
       <path d="M 8.203125 72.90625 
L 55.078125 72.90625 
L 55.078125 68.703125 
L 28.609375 0 
L 18.3125 0 
L 43.21875 64.59375 
L 8.203125 64.59375 
z
" id="DejaVuSans-55"/>
       <path d="M 10.796875 72.90625 
L 49.515625 72.90625 
L 49.515625 64.59375 
L 19.828125 64.59375 
L 19.828125 46.734375 
Q 21.96875 47.46875 24.109375 47.828125 
Q 26.265625 48.1875 28.421875 48.1875 
Q 40.625 48.1875 47.75 41.5 
Q 54.890625 34.8125 54.890625 23.390625 
Q 54.890625 11.625 47.5625 5.09375 
Q 40.234375 -1.421875 26.90625 -1.421875 
Q 22.3125 -1.421875 17.546875 -0.640625 
Q 12.796875 0.140625 7.71875 1.703125 
L 7.71875 11.625 
Q 12.109375 9.234375 16.796875 8.0625 
Q 21.484375 6.890625 26.703125 6.890625 
Q 35.15625 6.890625 40.078125 11.328125 
Q 45.015625 15.765625 45.015625 23.390625 
Q 45.015625 31 40.078125 35.4375 
Q 35.15625 39.890625 26.703125 39.890625 
Q 22.75 39.890625 18.8125 39.015625 
Q 14.890625 38.140625 10.796875 36.28125 
z
" id="DejaVuSans-53"/>
      </defs>
      <g style="fill:#262626;" transform="translate(93.908089 269.858281)scale(0.11 -0.11)">
       <use xlink:href="#DejaVuSans-8722"/>
       <use x="83.789062" xlink:href="#DejaVuSans-55"/>
       <use x="147.412109" xlink:href="#DejaVuSans-46"/>
       <use x="179.199219" xlink:href="#DejaVuSans-53"/>
      </g>
     </g>
    </g>
    <g id="xtick_3">
     <g id="line2d_3">
      <path clip-path="url(#pa5b0adf7f6)" d="M 145.309091 252 
L 145.309091 34.56 
" style="fill:none;stroke:#ffffff;stroke-linecap:round;"/>
     </g>
     <g id="text_3">
      <!-- −5.0 -->
      <g style="fill:#262626;" transform="translate(131.953544 269.858281)scale(0.11 -0.11)">
       <use xlink:href="#DejaVuSans-8722"/>
       <use x="83.789062" xlink:href="#DejaVuSans-53"/>
       <use x="147.412109" xlink:href="#DejaVuSans-46"/>
       <use x="179.199219" xlink:href="#DejaVuSans-48"/>
      </g>
     </g>
    </g>
    <g id="xtick_4">
     <g id="line2d_4">
      <path clip-path="url(#pa5b0adf7f6)" d="M 183.354545 252 
L 183.354545 34.56 
" style="fill:none;stroke:#ffffff;stroke-linecap:round;"/>
     </g>
     <g id="text_4">
      <!-- −2.5 -->
      <defs>
       <path d="M 19.1875 8.296875 
L 53.609375 8.296875 
L 53.609375 0 
L 7.328125 0 
L 7.328125 8.296875 
Q 12.9375 14.109375 22.625 23.890625 
Q 32.328125 33.6875 34.8125 36.53125 
Q 39.546875 41.84375 41.421875 45.53125 
Q 43.3125 49.21875 43.3125 52.78125 
Q 43.3125 58.59375 39.234375 62.25 
Q 35.15625 65.921875 28.609375 65.921875 
Q 23.96875 65.921875 18.8125 64.3125 
Q 13.671875 62.703125 7.8125 59.421875 
L 7.8125 69.390625 
Q 13.765625 71.78125 18.9375 73 
Q 24.125 74.21875 28.421875 74.21875 
Q 39.75 74.21875 46.484375 68.546875 
Q 53.21875 62.890625 53.21875 53.421875 
Q 53.21875 48.921875 51.53125 44.890625 
Q 49.859375 40.875 45.40625 35.40625 
Q 44.1875 33.984375 37.640625 27.21875 
Q 31.109375 20.453125 19.1875 8.296875 
z
" id="DejaVuSans-50"/>
      </defs>
      <g style="fill:#262626;" transform="translate(169.998999 269.858281)scale(0.11 -0.11)">
       <use xlink:href="#DejaVuSans-8722"/>
       <use x="83.789062" xlink:href="#DejaVuSans-50"/>
       <use x="147.412109" xlink:href="#DejaVuSans-46"/>
       <use x="179.199219" xlink:href="#DejaVuSans-53"/>
      </g>
     </g>
    </g>
    <g id="xtick_5">
     <g id="line2d_5">
      <path clip-path="url(#pa5b0adf7f6)" d="M 221.4 252 
L 221.4 34.56 
" style="fill:none;stroke:#ffffff;stroke-linecap:round;"/>
     </g>
     <g id="text_5">
      <!-- 0.0 -->
      <g style="fill:#262626;" transform="translate(212.653281 269.858281)scale(0.11 -0.11)">
       <use xlink:href="#DejaVuSans-48"/>
       <use x="63.623047" xlink:href="#DejaVuSans-46"/>
       <use x="95.410156" xlink:href="#DejaVuSans-48"/>
      </g>
     </g>
    </g>
    <g id="xtick_6">
     <g id="line2d_6">
      <path clip-path="url(#pa5b0adf7f6)" d="M 259.445455 252 
L 259.445455 34.56 
" style="fill:none;stroke:#ffffff;stroke-linecap:round;"/>
     </g>
     <g id="text_6">
      <!-- 2.5 -->
      <g style="fill:#262626;" transform="translate(250.698736 269.858281)scale(0.11 -0.11)">
       <use xlink:href="#DejaVuSans-50"/>
       <use x="63.623047" xlink:href="#DejaVuSans-46"/>
       <use x="95.410156" xlink:href="#DejaVuSans-53"/>
      </g>
     </g>
    </g>
    <g id="xtick_7">
     <g id="line2d_7">
      <path clip-path="url(#pa5b0adf7f6)" d="M 297.490909 252 
L 297.490909 34.56 
" style="fill:none;stroke:#ffffff;stroke-linecap:round;"/>
     </g>
     <g id="text_7">
      <!-- 5.0 -->
      <g style="fill:#262626;" transform="translate(288.74419 269.858281)scale(0.11 -0.11)">
       <use xlink:href="#DejaVuSans-53"/>
       <use x="63.623047" xlink:href="#DejaVuSans-46"/>
       <use x="95.410156" xlink:href="#DejaVuSans-48"/>
      </g>
     </g>
    </g>
    <g id="xtick_8">
     <g id="line2d_8">
      <path clip-path="url(#pa5b0adf7f6)" d="M 335.536364 252 
L 335.536364 34.56 
" style="fill:none;stroke:#ffffff;stroke-linecap:round;"/>
     </g>
     <g id="text_8">
      <!-- 7.5 -->
      <g style="fill:#262626;" transform="translate(326.789645 269.858281)scale(0.11 -0.11)">
       <use xlink:href="#DejaVuSans-55"/>
       <use x="63.623047" xlink:href="#DejaVuSans-46"/>
       <use x="95.410156" xlink:href="#DejaVuSans-53"/>
      </g>
     </g>
    </g>
    <g id="xtick_9">
     <g id="line2d_9">
      <path clip-path="url(#pa5b0adf7f6)" d="M 373.581818 252 
L 373.581818 34.56 
" style="fill:none;stroke:#ffffff;stroke-linecap:round;"/>
     </g>
     <g id="text_9">
      <!-- 10.0 -->
      <g style="fill:#262626;" transform="translate(361.335724 269.858281)scale(0.11 -0.11)">
       <use xlink:href="#DejaVuSans-49"/>
       <use x="63.623047" xlink:href="#DejaVuSans-48"/>
       <use x="127.246094" xlink:href="#DejaVuSans-46"/>
       <use x="159.033203" xlink:href="#DejaVuSans-48"/>
      </g>
     </g>
    </g>
    <g id="text_10">
     <!-- x -->
     <defs>
      <path d="M 54.890625 54.6875 
L 35.109375 28.078125 
L 55.90625 0 
L 45.3125 0 
L 29.390625 21.484375 
L 13.484375 0 
L 2.875 0 
L 24.125 28.609375 
L 4.6875 54.6875 
L 15.28125 54.6875 
L 29.78125 35.203125 
L 44.28125 54.6875 
z
" id="DejaVuSans-120"/>
     </defs>
     <g style="fill:#262626;" transform="translate(217.84875 285.264063)scale(0.12 -0.12)">
      <use xlink:href="#DejaVuSans-120"/>
     </g>
    </g>
   </g>
   <g id="matplotlib.axis_2">
    <g id="ytick_1">
     <g id="line2d_10">
      <path clip-path="url(#pa5b0adf7f6)" d="M 54 237.788893 
L 388.8 237.788893 
" style="fill:none;stroke:#ffffff;stroke-linecap:round;"/>
     </g>
     <g id="text_11">
      <!-- −10 -->
      <g style="fill:#262626;" transform="translate(21.284844 241.968033)scale(0.11 -0.11)">
       <use xlink:href="#DejaVuSans-8722"/>
       <use x="83.789062" xlink:href="#DejaVuSans-49"/>
       <use x="147.412109" xlink:href="#DejaVuSans-48"/>
      </g>
     </g>
    </g>
    <g id="ytick_2">
     <g id="line2d_11">
      <path clip-path="url(#pa5b0adf7f6)" d="M 54 192.024623 
L 388.8 192.024623 
" style="fill:none;stroke:#ffffff;stroke-linecap:round;"/>
     </g>
     <g id="text_12">
      <!-- −5 -->
      <g style="fill:#262626;" transform="translate(28.283594 196.203763)scale(0.11 -0.11)">
       <use xlink:href="#DejaVuSans-8722"/>
       <use x="83.789062" xlink:href="#DejaVuSans-53"/>
      </g>
     </g>
    </g>
    <g id="ytick_3">
     <g id="line2d_12">
      <path clip-path="url(#pa5b0adf7f6)" d="M 54 146.260353 
L 388.8 146.260353 
" style="fill:none;stroke:#ffffff;stroke-linecap:round;"/>
     </g>
     <g id="text_13">
      <!-- 0 -->
      <g style="fill:#262626;" transform="translate(37.50125 150.439493)scale(0.11 -0.11)">
       <use xlink:href="#DejaVuSans-48"/>
      </g>
     </g>
    </g>
    <g id="ytick_4">
     <g id="line2d_13">
      <path clip-path="url(#pa5b0adf7f6)" d="M 54 100.496082 
L 388.8 100.496082 
" style="fill:none;stroke:#ffffff;stroke-linecap:round;"/>
     </g>
     <g id="text_14">
      <!-- 5 -->
      <g style="fill:#262626;" transform="translate(37.50125 104.675223)scale(0.11 -0.11)">
       <use xlink:href="#DejaVuSans-53"/>
      </g>
     </g>
    </g>
    <g id="ytick_5">
     <g id="line2d_14">
      <path clip-path="url(#pa5b0adf7f6)" d="M 54 54.731812 
L 388.8 54.731812 
" style="fill:none;stroke:#ffffff;stroke-linecap:round;"/>
     </g>
     <g id="text_15">
      <!-- 10 -->
      <g style="fill:#262626;" transform="translate(30.5025 58.910953)scale(0.11 -0.11)">
       <use xlink:href="#DejaVuSans-49"/>
       <use x="63.623047" xlink:href="#DejaVuSans-48"/>
      </g>
     </g>
    </g>
    <g id="text_16">
     <!-- Function value -->
     <defs>
      <path d="M 9.8125 72.90625 
L 51.703125 72.90625 
L 51.703125 64.59375 
L 19.671875 64.59375 
L 19.671875 43.109375 
L 48.578125 43.109375 
L 48.578125 34.8125 
L 19.671875 34.8125 
L 19.671875 0 
L 9.8125 0 
z
" id="DejaVuSans-70"/>
      <path d="M 8.5 21.578125 
L 8.5 54.6875 
L 17.484375 54.6875 
L 17.484375 21.921875 
Q 17.484375 14.15625 20.5 10.265625 
Q 23.53125 6.390625 29.59375 6.390625 
Q 36.859375 6.390625 41.078125 11.03125 
Q 45.3125 15.671875 45.3125 23.6875 
L 45.3125 54.6875 
L 54.296875 54.6875 
L 54.296875 0 
L 45.3125 0 
L 45.3125 8.40625 
Q 42.046875 3.421875 37.71875 1 
Q 33.40625 -1.421875 27.6875 -1.421875 
Q 18.265625 -1.421875 13.375 4.4375 
Q 8.5 10.296875 8.5 21.578125 
z
M 31.109375 56 
z
" id="DejaVuSans-117"/>
      <path d="M 54.890625 33.015625 
L 54.890625 0 
L 45.90625 0 
L 45.90625 32.71875 
Q 45.90625 40.484375 42.875 44.328125 
Q 39.84375 48.1875 33.796875 48.1875 
Q 26.515625 48.1875 22.3125 43.546875 
Q 18.109375 38.921875 18.109375 30.90625 
L 18.109375 0 
L 9.078125 0 
L 9.078125 54.6875 
L 18.109375 54.6875 
L 18.109375 46.1875 
Q 21.34375 51.125 25.703125 53.5625 
Q 30.078125 56 35.796875 56 
Q 45.21875 56 50.046875 50.171875 
Q 54.890625 44.34375 54.890625 33.015625 
z
" id="DejaVuSans-110"/>
      <path d="M 48.78125 52.59375 
L 48.78125 44.1875 
Q 44.96875 46.296875 41.140625 47.34375 
Q 37.3125 48.390625 33.40625 48.390625 
Q 24.65625 48.390625 19.8125 42.84375 
Q 14.984375 37.3125 14.984375 27.296875 
Q 14.984375 17.28125 19.8125 11.734375 
Q 24.65625 6.203125 33.40625 6.203125 
Q 37.3125 6.203125 41.140625 7.25 
Q 44.96875 8.296875 48.78125 10.40625 
L 48.78125 2.09375 
Q 45.015625 0.34375 40.984375 -0.53125 
Q 36.96875 -1.421875 32.421875 -1.421875 
Q 20.0625 -1.421875 12.78125 6.34375 
Q 5.515625 14.109375 5.515625 27.296875 
Q 5.515625 40.671875 12.859375 48.328125 
Q 20.21875 56 33.015625 56 
Q 37.15625 56 41.109375 55.140625 
Q 45.0625 54.296875 48.78125 52.59375 
z
" id="DejaVuSans-99"/>
      <path d="M 18.3125 70.21875 
L 18.3125 54.6875 
L 36.8125 54.6875 
L 36.8125 47.703125 
L 18.3125 47.703125 
L 18.3125 18.015625 
Q 18.3125 11.328125 20.140625 9.421875 
Q 21.96875 7.515625 27.59375 7.515625 
L 36.8125 7.515625 
L 36.8125 0 
L 27.59375 0 
Q 17.1875 0 13.234375 3.875 
Q 9.28125 7.765625 9.28125 18.015625 
L 9.28125 47.703125 
L 2.6875 47.703125 
L 2.6875 54.6875 
L 9.28125 54.6875 
L 9.28125 70.21875 
z
" id="DejaVuSans-116"/>
      <path d="M 9.421875 54.6875 
L 18.40625 54.6875 
L 18.40625 0 
L 9.421875 0 
z
M 9.421875 75.984375 
L 18.40625 75.984375 
L 18.40625 64.59375 
L 9.421875 64.59375 
z
" id="DejaVuSans-105"/>
      <path d="M 30.609375 48.390625 
Q 23.390625 48.390625 19.1875 42.75 
Q 14.984375 37.109375 14.984375 27.296875 
Q 14.984375 17.484375 19.15625 11.84375 
Q 23.34375 6.203125 30.609375 6.203125 
Q 37.796875 6.203125 41.984375 11.859375 
Q 46.1875 17.53125 46.1875 27.296875 
Q 46.1875 37.015625 41.984375 42.703125 
Q 37.796875 48.390625 30.609375 48.390625 
z
M 30.609375 56 
Q 42.328125 56 49.015625 48.375 
Q 55.71875 40.765625 55.71875 27.296875 
Q 55.71875 13.875 49.015625 6.21875 
Q 42.328125 -1.421875 30.609375 -1.421875 
Q 18.84375 -1.421875 12.171875 6.21875 
Q 5.515625 13.875 5.515625 27.296875 
Q 5.515625 40.765625 12.171875 48.375 
Q 18.84375 56 30.609375 56 
z
" id="DejaVuSans-111"/>
      <path id="DejaVuSans-32"/>
      <path d="M 2.984375 54.6875 
L 12.5 54.6875 
L 29.59375 8.796875 
L 46.6875 54.6875 
L 56.203125 54.6875 
L 35.6875 0 
L 23.484375 0 
z
" id="DejaVuSans-118"/>
      <path d="M 34.28125 27.484375 
Q 23.390625 27.484375 19.1875 25 
Q 14.984375 22.515625 14.984375 16.5 
Q 14.984375 11.71875 18.140625 8.90625 
Q 21.296875 6.109375 26.703125 6.109375 
Q 34.1875 6.109375 38.703125 11.40625 
Q 43.21875 16.703125 43.21875 25.484375 
L 43.21875 27.484375 
z
M 52.203125 31.203125 
L 52.203125 0 
L 43.21875 0 
L 43.21875 8.296875 
Q 40.140625 3.328125 35.546875 0.953125 
Q 30.953125 -1.421875 24.3125 -1.421875 
Q 15.921875 -1.421875 10.953125 3.296875 
Q 6 8.015625 6 15.921875 
Q 6 25.140625 12.171875 29.828125 
Q 18.359375 34.515625 30.609375 34.515625 
L 43.21875 34.515625 
L 43.21875 35.40625 
Q 43.21875 41.609375 39.140625 45 
Q 35.0625 48.390625 27.6875 48.390625 
Q 23 48.390625 18.546875 47.265625 
Q 14.109375 46.140625 10.015625 43.890625 
L 10.015625 52.203125 
Q 14.9375 54.109375 19.578125 55.046875 
Q 24.21875 56 28.609375 56 
Q 40.484375 56 46.34375 49.84375 
Q 52.203125 43.703125 52.203125 31.203125 
z
" id="DejaVuSans-97"/>
      <path d="M 9.421875 75.984375 
L 18.40625 75.984375 
L 18.40625 0 
L 9.421875 0 
z
" id="DejaVuSans-108"/>
      <path d="M 56.203125 29.59375 
L 56.203125 25.203125 
L 14.890625 25.203125 
Q 15.484375 15.921875 20.484375 11.0625 
Q 25.484375 6.203125 34.421875 6.203125 
Q 39.59375 6.203125 44.453125 7.46875 
Q 49.3125 8.734375 54.109375 11.28125 
L 54.109375 2.78125 
Q 49.265625 0.734375 44.1875 -0.34375 
Q 39.109375 -1.421875 33.890625 -1.421875 
Q 20.796875 -1.421875 13.15625 6.1875 
Q 5.515625 13.8125 5.515625 26.8125 
Q 5.515625 40.234375 12.765625 48.109375 
Q 20.015625 56 32.328125 56 
Q 43.359375 56 49.78125 48.890625 
Q 56.203125 41.796875 56.203125 29.59375 
z
M 47.21875 32.234375 
Q 47.125 39.59375 43.09375 43.984375 
Q 39.0625 48.390625 32.421875 48.390625 
Q 24.90625 48.390625 20.390625 44.140625 
Q 15.875 39.890625 15.1875 32.171875 
z
" id="DejaVuSans-101"/>
     </defs>
     <g style="fill:#262626;" transform="translate(14.789219 187.419375)rotate(-90)scale(0.12 -0.12)">
      <use xlink:href="#DejaVuSans-70"/>
      <use x="57.441406" xlink:href="#DejaVuSans-117"/>
      <use x="120.820312" xlink:href="#DejaVuSans-110"/>
      <use x="184.199219" xlink:href="#DejaVuSans-99"/>
      <use x="239.179688" xlink:href="#DejaVuSans-116"/>
      <use x="278.388672" xlink:href="#DejaVuSans-105"/>
      <use x="306.171875" xlink:href="#DejaVuSans-111"/>
      <use x="367.353516" xlink:href="#DejaVuSans-110"/>
      <use x="430.732422" xlink:href="#DejaVuSans-32"/>
      <use x="462.519531" xlink:href="#DejaVuSans-118"/>
      <use x="521.699219" xlink:href="#DejaVuSans-97"/>
      <use x="582.978516" xlink:href="#DejaVuSans-108"/>
      <use x="610.761719" xlink:href="#DejaVuSans-117"/>
      <use x="674.140625" xlink:href="#DejaVuSans-101"/>
     </g>
    </g>
   </g>
   <g id="line2d_15">
    <defs>
     <path d="M 0 3 
C 0.795609 3 1.55874 2.683901 2.12132 2.12132 
C 2.683901 1.55874 3 0.795609 3 0 
C 3 -0.795609 2.683901 -1.55874 2.12132 -2.12132 
C 1.55874 -2.683901 0.795609 -3 0 -3 
C -0.795609 -3 -1.55874 -2.683901 -2.12132 -2.12132 
C -2.683901 -1.55874 -3 -0.795609 -3 0 
C -3 0.795609 -2.683901 1.55874 -2.12132 2.12132 
C -1.55874 2.683901 -0.795609 3 0 3 
z
" id="m998695419f" style="stroke:#c44e52;"/>
    </defs>
    <g clip-path="url(#pa5b0adf7f6)">
     <use style="fill:#c44e52;stroke:#c44e52;" x="69.218182" xlink:href="#m998695419f" y="226.174948"/>
     <use style="fill:#c44e52;stroke:#c44e52;" x="75.429685" xlink:href="#m998695419f" y="226.525834"/>
     <use style="fill:#c44e52;stroke:#c44e52;" x="81.641187" xlink:href="#m998695419f" y="226.099034"/>
     <use style="fill:#c44e52;stroke:#c44e52;" x="87.85269" xlink:href="#m998695419f" y="242.116364"/>
     <use style="fill:#c44e52;stroke:#c44e52;" x="94.064193" xlink:href="#m998695419f" y="236.535433"/>
     <use style="fill:#c44e52;stroke:#c44e52;" x="100.275696" xlink:href="#m998695419f" y="230.992091"/>
     <use style="fill:#c44e52;stroke:#c44e52;" x="106.487199" xlink:href="#m998695419f" y="228.550165"/>
     <use style="fill:#c44e52;stroke:#c44e52;" x="112.698701" xlink:href="#m998695419f" y="222.967188"/>
     <use style="fill:#c44e52;stroke:#c44e52;" x="118.910204" xlink:href="#m998695419f" y="236.934076"/>
     <use style="fill:#c44e52;stroke:#c44e52;" x="125.121707" xlink:href="#m998695419f" y="204.438609"/>
     <use style="fill:#c44e52;stroke:#c44e52;" x="131.33321" xlink:href="#m998695419f" y="196.88048"/>
     <use style="fill:#c44e52;stroke:#c44e52;" x="137.544712" xlink:href="#m998695419f" y="171.456262"/>
     <use style="fill:#c44e52;stroke:#c44e52;" x="143.756215" xlink:href="#m998695419f" y="174.65302"/>
     <use style="fill:#c44e52;stroke:#c44e52;" x="149.967718" xlink:href="#m998695419f" y="162.696923"/>
     <use style="fill:#c44e52;stroke:#c44e52;" x="156.179221" xlink:href="#m998695419f" y="147.20551"/>
     <use style="fill:#c44e52;stroke:#c44e52;" x="162.390724" xlink:href="#m998695419f" y="184.470253"/>
     <use style="fill:#c44e52;stroke:#c44e52;" x="168.602226" xlink:href="#m998695419f" y="165.690124"/>
     <use style="fill:#c44e52;stroke:#c44e52;" x="174.813729" xlink:href="#m998695419f" y="183.195732"/>
     <use style="fill:#c44e52;stroke:#c44e52;" x="181.025232" xlink:href="#m998695419f" y="178.628768"/>
     <use style="fill:#c44e52;stroke:#c44e52;" x="187.236735" xlink:href="#m998695419f" y="187.786393"/>
     <use style="fill:#c44e52;stroke:#c44e52;" x="193.448237" xlink:href="#m998695419f" y="195.63022"/>
     <use style="fill:#c44e52;stroke:#c44e52;" x="199.65974" xlink:href="#m998695419f" y="160.349213"/>
     <use style="fill:#c44e52;stroke:#c44e52;" x="205.871243" xlink:href="#m998695419f" y="158.503605"/>
     <use style="fill:#c44e52;stroke:#c44e52;" x="212.082746" xlink:href="#m998695419f" y="162.503239"/>
     <use style="fill:#c44e52;stroke:#c44e52;" x="218.294249" xlink:href="#m998695419f" y="157.646274"/>
     <use style="fill:#c44e52;stroke:#c44e52;" x="224.505751" xlink:href="#m998695419f" y="133.629052"/>
     <use style="fill:#c44e52;stroke:#c44e52;" x="230.717254" xlink:href="#m998695419f" y="129.568247"/>
     <use style="fill:#c44e52;stroke:#c44e52;" x="236.928757" xlink:href="#m998695419f" y="115.984044"/>
     <use style="fill:#c44e52;stroke:#c44e52;" x="243.14026" xlink:href="#m998695419f" y="107.210182"/>
     <use style="fill:#c44e52;stroke:#c44e52;" x="249.351763" xlink:href="#m998695419f" y="100.681423"/>
     <use style="fill:#c44e52;stroke:#c44e52;" x="255.563265" xlink:href="#m998695419f" y="110.170278"/>
     <use style="fill:#c44e52;stroke:#c44e52;" x="261.774768" xlink:href="#m998695419f" y="110.00416"/>
     <use style="fill:#c44e52;stroke:#c44e52;" x="267.986271" xlink:href="#m998695419f" y="119.805834"/>
     <use style="fill:#c44e52;stroke:#c44e52;" x="274.197774" xlink:href="#m998695419f" y="115.011959"/>
     <use style="fill:#c44e52;stroke:#c44e52;" x="280.409276" xlink:href="#m998695419f" y="111.123394"/>
     <use style="fill:#c44e52;stroke:#c44e52;" x="286.620779" xlink:href="#m998695419f" y="108.522219"/>
     <use style="fill:#c44e52;stroke:#c44e52;" x="292.832282" xlink:href="#m998695419f" y="114.407522"/>
     <use style="fill:#c44e52;stroke:#c44e52;" x="299.043785" xlink:href="#m998695419f" y="127.463021"/>
     <use style="fill:#c44e52;stroke:#c44e52;" x="305.255288" xlink:href="#m998695419f" y="102.760127"/>
     <use style="fill:#c44e52;stroke:#c44e52;" x="311.46679" xlink:href="#m998695419f" y="82.561389"/>
     <use style="fill:#c44e52;stroke:#c44e52;" x="317.678293" xlink:href="#m998695419f" y="93.182374"/>
     <use style="fill:#c44e52;stroke:#c44e52;" x="323.889796" xlink:href="#m998695419f" y="94.285187"/>
     <use style="fill:#c44e52;stroke:#c44e52;" x="330.101299" xlink:href="#m998695419f" y="76.626754"/>
     <use style="fill:#c44e52;stroke:#c44e52;" x="336.312801" xlink:href="#m998695419f" y="48.363225"/>
     <use style="fill:#c44e52;stroke:#c44e52;" x="342.524304" xlink:href="#m998695419f" y="61.701103"/>
     <use style="fill:#c44e52;stroke:#c44e52;" x="348.735807" xlink:href="#m998695419f" y="44.443636"/>
     <use style="fill:#c44e52;stroke:#c44e52;" x="354.94731" xlink:href="#m998695419f" y="59.583238"/>
     <use style="fill:#c44e52;stroke:#c44e52;" x="361.158813" xlink:href="#m998695419f" y="47.758238"/>
     <use style="fill:#c44e52;stroke:#c44e52;" x="367.370315" xlink:href="#m998695419f" y="66.967046"/>
     <use style="fill:#c44e52;stroke:#c44e52;" x="373.581818" xlink:href="#m998695419f" y="70.165094"/>
    </g>
   </g>
   <g id="line2d_16">
    <path clip-path="url(#pa5b0adf7f6)" d="M 69.218182 226.68226 
L 75.429685 230.193221 
L 81.641187 234.226206 
L 87.85269 237.509586 
L 94.064193 238.894893 
L 100.275696 237.545505 
L 106.487199 233.074103 
L 112.698701 225.606306 
L 118.910204 215.760034 
L 125.121707 204.54398 
L 131.33321 193.191893 
L 137.544712 182.959867 
L 143.756215 174.919977 
L 149.967718 169.784134 
L 156.179221 167.787124 
L 162.390724 168.64803 
L 168.602226 171.616388 
L 174.813729 175.595486 
L 181.025232 179.32255 
L 187.236735 181.576215 
L 193.448237 181.37719 
L 199.65974 178.149156 
L 205.871243 171.813449 
L 212.082746 162.801989 
L 218.294249 151.986315 
L 224.505751 140.53439 
L 230.717254 129.718716 
L 236.928757 120.707256 
L 243.14026 114.371549 
L 249.351763 111.143515 
L 255.563265 110.94449 
L 261.774768 113.198155 
L 267.986271 116.925219 
L 274.197774 120.904317 
L 280.409276 123.872675 
L 286.620779 124.733581 
L 292.832282 122.736571 
L 299.043785 117.600728 
L 305.255288 109.560838 
L 311.46679 99.328812 
L 317.678293 87.976725 
L 323.889796 76.760671 
L 330.101299 66.914399 
L 336.312801 59.446602 
L 342.524304 54.9752 
L 348.735807 53.625812 
L 354.94731 55.011119 
L 361.158813 58.294499 
L 367.370315 62.327484 
L 373.581818 65.838445 
" style="fill:none;stroke:#4c72b0;stroke-linecap:round;stroke-width:1.5;"/>
   </g>
   <g id="patch_3">
    <path d="M 54 252 
L 54 34.56 
" style="fill:none;stroke:#ffffff;stroke-linecap:square;stroke-linejoin:miter;stroke-width:1.25;"/>
   </g>
   <g id="patch_4">
    <path d="M 388.8 252 
L 388.8 34.56 
" style="fill:none;stroke:#ffffff;stroke-linecap:square;stroke-linejoin:miter;stroke-width:1.25;"/>
   </g>
   <g id="patch_5">
    <path d="M 54 252 
L 388.8 252 
" style="fill:none;stroke:#ffffff;stroke-linecap:square;stroke-linejoin:miter;stroke-width:1.25;"/>
   </g>
   <g id="patch_6">
    <path d="M 54 34.56 
L 388.8 34.56 
" style="fill:none;stroke:#ffffff;stroke-linecap:square;stroke-linejoin:miter;stroke-width:1.25;"/>
   </g>
   <g id="text_17">
    <!-- Linear least squares. $\theta_0 = 0.992, \theta_1 = 2.09$ -->
    <defs>
     <path d="M 9.8125 72.90625 
L 19.671875 72.90625 
L 19.671875 8.296875 
L 55.171875 8.296875 
L 55.171875 0 
L 9.8125 0 
z
" id="DejaVuSans-76"/>
     <path d="M 41.109375 46.296875 
Q 39.59375 47.171875 37.8125 47.578125 
Q 36.03125 48 33.890625 48 
Q 26.265625 48 22.1875 43.046875 
Q 18.109375 38.09375 18.109375 28.8125 
L 18.109375 0 
L 9.078125 0 
L 9.078125 54.6875 
L 18.109375 54.6875 
L 18.109375 46.1875 
Q 20.953125 51.171875 25.484375 53.578125 
Q 30.03125 56 36.53125 56 
Q 37.453125 56 38.578125 55.875 
Q 39.703125 55.765625 41.0625 55.515625 
z
" id="DejaVuSans-114"/>
     <path d="M 44.28125 53.078125 
L 44.28125 44.578125 
Q 40.484375 46.53125 36.375 47.5 
Q 32.28125 48.484375 27.875 48.484375 
Q 21.1875 48.484375 17.84375 46.4375 
Q 14.5 44.390625 14.5 40.28125 
Q 14.5 37.15625 16.890625 35.375 
Q 19.28125 33.59375 26.515625 31.984375 
L 29.59375 31.296875 
Q 39.15625 29.25 43.1875 25.515625 
Q 47.21875 21.78125 47.21875 15.09375 
Q 47.21875 7.46875 41.1875 3.015625 
Q 35.15625 -1.421875 24.609375 -1.421875 
Q 20.21875 -1.421875 15.453125 -0.5625 
Q 10.6875 0.296875 5.421875 2 
L 5.421875 11.28125 
Q 10.40625 8.6875 15.234375 7.390625 
Q 20.0625 6.109375 24.8125 6.109375 
Q 31.15625 6.109375 34.5625 8.28125 
Q 37.984375 10.453125 37.984375 14.40625 
Q 37.984375 18.0625 35.515625 20.015625 
Q 33.0625 21.96875 24.703125 23.78125 
L 21.578125 24.515625 
Q 13.234375 26.265625 9.515625 29.90625 
Q 5.8125 33.546875 5.8125 39.890625 
Q 5.8125 47.609375 11.28125 51.796875 
Q 16.75 56 26.8125 56 
Q 31.78125 56 36.171875 55.265625 
Q 40.578125 54.546875 44.28125 53.078125 
z
" id="DejaVuSans-115"/>
     <path d="M 14.796875 27.296875 
Q 14.796875 17.390625 18.875 11.75 
Q 22.953125 6.109375 30.078125 6.109375 
Q 37.203125 6.109375 41.296875 11.75 
Q 45.40625 17.390625 45.40625 27.296875 
Q 45.40625 37.203125 41.296875 42.84375 
Q 37.203125 48.484375 30.078125 48.484375 
Q 22.953125 48.484375 18.875 42.84375 
Q 14.796875 37.203125 14.796875 27.296875 
z
M 45.40625 8.203125 
Q 42.578125 3.328125 38.25 0.953125 
Q 33.9375 -1.421875 27.875 -1.421875 
Q 17.96875 -1.421875 11.734375 6.484375 
Q 5.515625 14.40625 5.515625 27.296875 
Q 5.515625 40.1875 11.734375 48.09375 
Q 17.96875 56 27.875 56 
Q 33.9375 56 38.25 53.625 
Q 42.578125 51.265625 45.40625 46.390625 
L 45.40625 54.6875 
L 54.390625 54.6875 
L 54.390625 -20.796875 
L 45.40625 -20.796875 
z
" id="DejaVuSans-113"/>
     <path d="M 45.515625 34.671875 
L 14.453125 34.671875 
Q 12.359375 20.0625 14.5 13.875 
Q 17.1875 6.25 24.46875 6.25 
Q 31.78125 6.25 37.359375 13.921875 
Q 42.234375 20.65625 45.515625 34.671875 
z
M 47.015625 42.96875 
Q 48.34375 56.84375 46.625 61.71875 
Q 43.953125 69.4375 36.765625 69.4375 
Q 29.296875 69.4375 23.828125 61.8125 
Q 19.53125 55.671875 16.15625 42.96875 
z
M 38.1875 76.765625 
Q 49.90625 76.765625 54.59375 66.40625 
Q 59.28125 56.109375 55.71875 37.84375 
Q 52.203125 19.625 43.453125 9.28125 
Q 34.765625 -1.125 23.046875 -1.125 
Q 11.28125 -1.125 6.640625 9.28125 
Q 2 19.625 5.515625 37.84375 
Q 9.078125 56.109375 17.71875 66.40625 
Q 26.421875 76.765625 38.1875 76.765625 
z
" id="DejaVuSans-Oblique-952"/>
     <path d="M 10.59375 45.40625 
L 73.1875 45.40625 
L 73.1875 37.203125 
L 10.59375 37.203125 
z
M 10.59375 25.484375 
L 73.1875 25.484375 
L 73.1875 17.1875 
L 10.59375 17.1875 
z
" id="DejaVuSans-61"/>
     <path d="M 10.984375 1.515625 
L 10.984375 10.5 
Q 14.703125 8.734375 18.5 7.8125 
Q 22.3125 6.890625 25.984375 6.890625 
Q 35.75 6.890625 40.890625 13.453125 
Q 46.046875 20.015625 46.78125 33.40625 
Q 43.953125 29.203125 39.59375 26.953125 
Q 35.25 24.703125 29.984375 24.703125 
Q 19.046875 24.703125 12.671875 31.3125 
Q 6.296875 37.9375 6.296875 49.421875 
Q 6.296875 60.640625 12.9375 67.421875 
Q 19.578125 74.21875 30.609375 74.21875 
Q 43.265625 74.21875 49.921875 64.515625 
Q 56.59375 54.828125 56.59375 36.375 
Q 56.59375 19.140625 48.40625 8.859375 
Q 40.234375 -1.421875 26.421875 -1.421875 
Q 22.703125 -1.421875 18.890625 -0.6875 
Q 15.09375 0.046875 10.984375 1.515625 
z
M 30.609375 32.421875 
Q 37.25 32.421875 41.125 36.953125 
Q 45.015625 41.5 45.015625 49.421875 
Q 45.015625 57.28125 41.125 61.84375 
Q 37.25 66.40625 30.609375 66.40625 
Q 23.96875 66.40625 20.09375 61.84375 
Q 16.21875 57.28125 16.21875 49.421875 
Q 16.21875 41.5 20.09375 36.953125 
Q 23.96875 32.421875 30.609375 32.421875 
z
" id="DejaVuSans-57"/>
     <path d="M 11.71875 12.40625 
L 22.015625 12.40625 
L 22.015625 4 
L 14.015625 -11.625 
L 7.71875 -11.625 
L 11.71875 4 
z
" id="DejaVuSans-44"/>
    </defs>
    <g style="fill:#262626;" transform="translate(95.52 28.56)scale(0.12 -0.12)">
     <use transform="translate(0 0.234375)" xlink:href="#DejaVuSans-76"/>
     <use transform="translate(55.712891 0.234375)" xlink:href="#DejaVuSans-105"/>
     <use transform="translate(83.496094 0.234375)" xlink:href="#DejaVuSans-110"/>
     <use transform="translate(146.875 0.234375)" xlink:href="#DejaVuSans-101"/>
     <use transform="translate(208.398438 0.234375)" xlink:href="#DejaVuSans-97"/>
     <use transform="translate(269.677734 0.234375)" xlink:href="#DejaVuSans-114"/>
     <use transform="translate(310.791016 0.234375)" xlink:href="#DejaVuSans-32"/>
     <use transform="translate(342.578125 0.234375)" xlink:href="#DejaVuSans-108"/>
     <use transform="translate(370.361328 0.234375)" xlink:href="#DejaVuSans-101"/>
     <use transform="translate(431.884766 0.234375)" xlink:href="#DejaVuSans-97"/>
     <use transform="translate(493.164062 0.234375)" xlink:href="#DejaVuSans-115"/>
     <use transform="translate(545.263672 0.234375)" xlink:href="#DejaVuSans-116"/>
     <use transform="translate(584.472656 0.234375)" xlink:href="#DejaVuSans-32"/>
     <use transform="translate(616.259766 0.234375)" xlink:href="#DejaVuSans-115"/>
     <use transform="translate(668.359375 0.234375)" xlink:href="#DejaVuSans-113"/>
     <use transform="translate(731.835938 0.234375)" xlink:href="#DejaVuSans-117"/>
     <use transform="translate(795.214844 0.234375)" xlink:href="#DejaVuSans-97"/>
     <use transform="translate(856.494141 0.234375)" xlink:href="#DejaVuSans-114"/>
     <use transform="translate(897.607422 0.234375)" xlink:href="#DejaVuSans-101"/>
     <use transform="translate(959.130859 0.234375)" xlink:href="#DejaVuSans-115"/>
     <use transform="translate(1011.230469 0.234375)" xlink:href="#DejaVuSans-46"/>
     <use transform="translate(1043.017578 0.234375)" xlink:href="#DejaVuSans-32"/>
     <use transform="translate(1074.804688 0.234375)" xlink:href="#DejaVuSans-Oblique-952"/>
     <use transform="translate(1135.986328 -16.171875)scale(0.7)" xlink:href="#DejaVuSans-48"/>
     <use transform="translate(1202.739258 0.234375)" xlink:href="#DejaVuSans-61"/>
     <use transform="translate(1306.010742 0.234375)" xlink:href="#DejaVuSans-48"/>
     <use transform="translate(1369.633789 0.234375)" xlink:href="#DejaVuSans-46"/>
     <use transform="translate(1401.420898 0.234375)" xlink:href="#DejaVuSans-57"/>
     <use transform="translate(1465.043945 0.234375)" xlink:href="#DejaVuSans-57"/>
     <use transform="translate(1528.651367 0.234375)" xlink:href="#DejaVuSans-50"/>
     <use transform="translate(1592.274414 0.234375)" xlink:href="#DejaVuSans-44"/>
     <use transform="translate(1643.543945 0.234375)" xlink:href="#DejaVuSans-Oblique-952"/>
     <use transform="translate(1704.725586 -16.171875)scale(0.7)" xlink:href="#DejaVuSans-49"/>
     <use transform="translate(1771.478516 0.234375)" xlink:href="#DejaVuSans-61"/>
     <use transform="translate(1874.75 0.234375)" xlink:href="#DejaVuSans-50"/>
     <use transform="translate(1938.373047 0.234375)" xlink:href="#DejaVuSans-46"/>
     <use transform="translate(1970.160156 0.234375)" xlink:href="#DejaVuSans-48"/>
     <use transform="translate(2033.783203 0.234375)" xlink:href="#DejaVuSans-57"/>
    </g>
   </g>
   <g id="legend_1">
    <g id="patch_7">
     <path d="M 61.7 76.25 
L 275.43 76.25 
Q 277.63 76.25 277.63 74.05 
L 277.63 42.26 
Q 277.63 40.06 275.43 40.06 
L 61.7 40.06 
Q 59.5 40.06 59.5 42.26 
L 59.5 74.05 
Q 59.5 76.25 61.7 76.25 
z
" style="fill:#eaeaf2;opacity:0.8;stroke:#cccccc;stroke-linejoin:miter;"/>
    </g>
    <g id="line2d_17"/>
    <g id="line2d_18">
     <g>
      <use style="fill:#c44e52;stroke:#c44e52;" x="74.9" xlink:href="#m998695419f" y="49.41"/>
     </g>
    </g>
    <g id="text_18">
     <!-- Data. $y(x) =  x + 2\sin (x) +  \mathcal{N}(0,1)$ -->
     <defs>
      <path d="M 19.671875 64.796875 
L 19.671875 8.109375 
L 31.59375 8.109375 
Q 46.6875 8.109375 53.6875 14.9375 
Q 60.6875 21.78125 60.6875 36.53125 
Q 60.6875 51.171875 53.6875 57.984375 
Q 46.6875 64.796875 31.59375 64.796875 
z
M 9.8125 72.90625 
L 30.078125 72.90625 
Q 51.265625 72.90625 61.171875 64.09375 
Q 71.09375 55.28125 71.09375 36.53125 
Q 71.09375 17.671875 61.125 8.828125 
Q 51.171875 0 30.078125 0 
L 9.8125 0 
z
" id="DejaVuSans-68"/>
      <path d="M 24.8125 -5.078125 
Q 18.5625 -15.578125 14.625 -18.1875 
Q 10.6875 -20.796875 4.59375 -20.796875 
L -2.484375 -20.796875 
L -0.984375 -13.28125 
L 4.203125 -13.28125 
Q 7.953125 -13.28125 10.59375 -11.234375 
Q 13.234375 -9.1875 16.5 -3.21875 
L 19.28125 2 
L 7.171875 54.6875 
L 16.703125 54.6875 
L 25.78125 12.796875 
L 50.875 54.6875 
L 60.296875 54.6875 
z
" id="DejaVuSans-Oblique-121"/>
      <path d="M 31 75.875 
Q 24.46875 64.65625 21.28125 53.65625 
Q 18.109375 42.671875 18.109375 31.390625 
Q 18.109375 20.125 21.3125 9.0625 
Q 24.515625 -2 31 -13.1875 
L 23.1875 -13.1875 
Q 15.875 -1.703125 12.234375 9.375 
Q 8.59375 20.453125 8.59375 31.390625 
Q 8.59375 42.28125 12.203125 53.3125 
Q 15.828125 64.359375 23.1875 75.875 
z
" id="DejaVuSans-40"/>
      <path d="M 60.015625 54.6875 
L 34.90625 27.875 
L 50.296875 0 
L 39.984375 0 
L 28.421875 21.6875 
L 8.296875 0 
L -2.59375 0 
L 24.3125 28.8125 
L 10.015625 54.6875 
L 20.3125 54.6875 
L 30.8125 34.90625 
L 49.125 54.6875 
z
" id="DejaVuSans-Oblique-120"/>
      <path d="M 8.015625 75.875 
L 15.828125 75.875 
Q 23.140625 64.359375 26.78125 53.3125 
Q 30.421875 42.28125 30.421875 31.390625 
Q 30.421875 20.453125 26.78125 9.375 
Q 23.140625 -1.703125 15.828125 -13.1875 
L 8.015625 -13.1875 
Q 14.5 -2 17.703125 9.0625 
Q 20.90625 20.125 20.90625 31.390625 
Q 20.90625 42.671875 17.703125 53.65625 
Q 14.5 64.65625 8.015625 75.875 
z
" id="DejaVuSans-41"/>
      <path d="M 46 62.703125 
L 46 35.5 
L 73.1875 35.5 
L 73.1875 27.203125 
L 46 27.203125 
L 46 0 
L 37.796875 0 
L 37.796875 27.203125 
L 10.59375 27.203125 
L 10.59375 35.5 
L 37.796875 35.5 
L 37.796875 62.703125 
z
" id="DejaVuSans-43"/>
      <path d="M 67.09375 12.5 
L 67.203125 12.5 
Q 82.703125 63.59375 84.5 68.40625 
Q 85.5 70.90625 86.296875 72.09375 
Q 91.09375 79.5 97.703125 79.5 
Q 101.40625 79.5 103.90625 77.046875 
Q 106.40625 74.59375 106.40625 71.09375 
Q 106.40625 68.40625 105 66.75 
Q 103.59375 65.09375 101.09375 65.09375 
Q 99.5 65.09375 98.390625 66 
Q 97.296875 66.90625 96.84375 67.953125 
Q 96.40625 69 95.59375 69.890625 
Q 94.796875 70.796875 93.796875 70.796875 
Q 92.796875 70.796875 91.890625 70.4375 
Q 91 70.09375 90.390625 69.640625 
Q 89.796875 69.203125 89.140625 68.296875 
Q 88.5 67.40625 88.09375 66.796875 
Q 87.703125 66.203125 87.25 65.046875 
Q 86.796875 63.90625 86.640625 63.40625 
Q 86.5 62.90625 86.09375 61.75 
Q 85.703125 60.59375 85.703125 60.40625 
L 66.59375 -2.40625 
L 64.59375 -2.40625 
Q 48.09375 20 38.796875 45.203125 
L 38.59375 45.203125 
Q 37.59375 40.296875 36.84375 36.890625 
Q 36.09375 33.5 34.59375 28 
Q 33.09375 22.5 31.6875 18.59375 
Q 30.296875 14.703125 28.1875 10.203125 
Q 26.09375 5.703125 23.890625 2.890625 
Q 21.703125 0.09375 18.796875 -1.796875 
Q 15.90625 -3.703125 12.703125 -3.703125 
Q 9 -3.703125 6.5 -1.25 
Q 4 1.203125 4 4.703125 
Q 4 7.40625 5.390625 9.046875 
Q 6.796875 10.703125 9.296875 10.703125 
Q 10.90625 10.703125 12 9.796875 
Q 13.09375 8.90625 13.546875 7.84375 
Q 14 6.796875 14.796875 5.890625 
Q 15.59375 5 16.59375 5 
Q 19.09375 5 21.390625 7.5 
Q 23.703125 10 25.59375 14.5 
Q 27.5 19 29.09375 24.09375 
Q 30.703125 29.203125 32.140625 35.75 
Q 33.59375 42.296875 34.59375 47.390625 
Q 35.59375 52.5 36.6875 58.453125 
Q 37.796875 64.40625 38.40625 67.09375 
L 41.09375 67.09375 
Q 41.90625 65.09375 44.90625 57.5 
Q 47.90625 49.90625 49.09375 47 
Q 50.296875 44.09375 53 37.84375 
Q 55.703125 31.59375 57.546875 28.09375 
Q 59.40625 24.59375 62 20.1875 
Q 64.59375 15.796875 67.09375 12.5 
z
" id="STIXNonUnicode-Italic-57914"/>
     </defs>
     <g style="fill:#262626;" transform="translate(94.7 53.26)scale(0.11 -0.11)">
      <use transform="translate(0 0.5)" xlink:href="#DejaVuSans-68"/>
      <use transform="translate(77.001953 0.5)" xlink:href="#DejaVuSans-97"/>
      <use transform="translate(138.28125 0.5)" xlink:href="#DejaVuSans-116"/>
      <use transform="translate(177.490234 0.5)" xlink:href="#DejaVuSans-97"/>
      <use transform="translate(238.769531 0.5)" xlink:href="#DejaVuSans-46"/>
      <use transform="translate(270.556641 0.5)" xlink:href="#DejaVuSans-32"/>
      <use transform="translate(302.34375 0.5)" xlink:href="#DejaVuSans-Oblique-121"/>
      <use transform="translate(361.523438 0.5)" xlink:href="#DejaVuSans-40"/>
      <use transform="translate(400.537109 0.5)" xlink:href="#DejaVuSans-Oblique-120"/>
      <use transform="translate(459.716797 0.5)" xlink:href="#DejaVuSans-41"/>
      <use transform="translate(518.212891 0.5)" xlink:href="#DejaVuSans-61"/>
      <use transform="translate(621.484375 0.5)" xlink:href="#DejaVuSans-Oblique-120"/>
      <use transform="translate(700.146484 0.5)" xlink:href="#DejaVuSans-43"/>
      <use transform="translate(803.417969 0.5)" xlink:href="#DejaVuSans-50"/>
      <use transform="translate(867.041016 0.5)" xlink:href="#DejaVuSans-115"/>
      <use transform="translate(919.140625 0.5)" xlink:href="#DejaVuSans-105"/>
      <use transform="translate(946.923828 0.5)" xlink:href="#DejaVuSans-110"/>
      <use transform="translate(1010.302734 0.5)" xlink:href="#DejaVuSans-40"/>
      <use transform="translate(1049.316406 0.5)" xlink:href="#DejaVuSans-Oblique-120"/>
      <use transform="translate(1108.496094 0.5)" xlink:href="#DejaVuSans-41"/>
      <use transform="translate(1166.992188 0.5)" xlink:href="#DejaVuSans-43"/>
      <use transform="translate(1270.263672 0.5)" xlink:href="#STIXNonUnicode-Italic-57914"/>
      <use transform="translate(1365.963654 0.5)" xlink:href="#DejaVuSans-40"/>
      <use transform="translate(1404.977325 0.5)" xlink:href="#DejaVuSans-48"/>
      <use transform="translate(1468.600372 0.5)" xlink:href="#DejaVuSans-44"/>
      <use transform="translate(1519.869904 0.5)" xlink:href="#DejaVuSans-49"/>
      <use transform="translate(1583.49295 0.5)" xlink:href="#DejaVuSans-41"/>
     </g>
    </g>
    <g id="line2d_19">
     <path d="M 63.9 65.69 
L 85.9 65.69 
" style="fill:none;stroke:#4c72b0;stroke-linecap:round;stroke-width:1.5;"/>
    </g>
    <g id="line2d_20"/>
    <g id="text_19">
     <!-- Fit.     $y(x) = \theta_0 \cdot x + \theta_1 \cdot \sin (x)$ -->
     <defs>
      <path d="M 10.6875 40.921875 
L 21 40.921875 
L 21 28.515625 
L 10.6875 28.515625 
z
" id="DejaVuSans-8901"/>
     </defs>
     <g style="fill:#262626;" transform="translate(94.7 69.54)scale(0.11 -0.11)">
      <use transform="translate(0 0.234375)" xlink:href="#DejaVuSans-70"/>
      <use transform="translate(57.519531 0.234375)" xlink:href="#DejaVuSans-105"/>
      <use transform="translate(85.302734 0.234375)" xlink:href="#DejaVuSans-116"/>
      <use transform="translate(124.511719 0.234375)" xlink:href="#DejaVuSans-46"/>
      <use transform="translate(156.298828 0.234375)" xlink:href="#DejaVuSans-32"/>
      <use transform="translate(188.085938 0.234375)" xlink:href="#DejaVuSans-32"/>
      <use transform="translate(219.873047 0.234375)" xlink:href="#DejaVuSans-32"/>
      <use transform="translate(251.660156 0.234375)" xlink:href="#DejaVuSans-32"/>
      <use transform="translate(283.447266 0.234375)" xlink:href="#DejaVuSans-32"/>
      <use transform="translate(315.234375 0.234375)" xlink:href="#DejaVuSans-Oblique-121"/>
      <use transform="translate(374.414062 0.234375)" xlink:href="#DejaVuSans-40"/>
      <use transform="translate(413.427734 0.234375)" xlink:href="#DejaVuSans-Oblique-120"/>
      <use transform="translate(472.607422 0.234375)" xlink:href="#DejaVuSans-41"/>
      <use transform="translate(531.103516 0.234375)" xlink:href="#DejaVuSans-61"/>
      <use transform="translate(634.375 0.234375)" xlink:href="#DejaVuSans-Oblique-952"/>
      <use transform="translate(695.556641 -16.171875)scale(0.7)" xlink:href="#DejaVuSans-48"/>
      <use transform="translate(762.30957 0.234375)" xlink:href="#DejaVuSans-8901"/>
      <use transform="translate(813.579102 0.234375)" xlink:href="#DejaVuSans-Oblique-120"/>
      <use transform="translate(892.241211 0.234375)" xlink:href="#DejaVuSans-43"/>
      <use transform="translate(995.512695 0.234375)" xlink:href="#DejaVuSans-Oblique-952"/>
      <use transform="translate(1056.694336 -16.171875)scale(0.7)" xlink:href="#DejaVuSans-49"/>
      <use transform="translate(1123.447266 0.234375)" xlink:href="#DejaVuSans-8901"/>
      <use transform="translate(1174.716797 0.234375)" xlink:href="#DejaVuSans-115"/>
      <use transform="translate(1226.816406 0.234375)" xlink:href="#DejaVuSans-105"/>
      <use transform="translate(1254.599609 0.234375)" xlink:href="#DejaVuSans-110"/>
      <use transform="translate(1317.978516 0.234375)" xlink:href="#DejaVuSans-40"/>
      <use transform="translate(1356.992188 0.234375)" xlink:href="#DejaVuSans-Oblique-120"/>
      <use transform="translate(1416.171875 0.234375)" xlink:href="#DejaVuSans-41"/>
     </g>
    </g>
   </g>
  </g>
 </g>
 <defs>
  <clipPath id="pa5b0adf7f6">
   <rect height="217.44" width="334.8" x="54" y="34.56"/>
  </clipPath>
 </defs>
</svg>
