<?xml version="1.0" encoding="UTF-8" standalone="no"?>
<svg
   xmlns:dc="http://purl.org/dc/elements/1.1/"
   xmlns:cc="http://creativecommons.org/ns#"
   xmlns:rdf="http://www.w3.org/1999/02/22-rdf-syntax-ns#"
   xmlns:svg="http://www.w3.org/2000/svg"
   xmlns="http://www.w3.org/2000/svg"
   xmlns:sodipodi="http://sodipodi.sourceforge.net/DTD/sodipodi-0.dtd"
   xmlns:inkscape="http://www.inkscape.org/namespaces/inkscape"
   width="1743.4879"
   height="517.58398"
   overflow="hidden"
   version="1.1"
   id="svg67"
   sodipodi:docname="ordered_crossover.svg"
   style="overflow:hidden"
   inkscape:version="0.92.4 (5da689c313, 2019-01-14)">
  <metadata
     id="metadata71">
    <rdf:RDF>
      <cc:Work
         rdf:about="">
        <dc:format>image/svg+xml</dc:format>
        <dc:type
           rdf:resource="http://purl.org/dc/dcmitype/StillImage" />
      </cc:Work>
    </rdf:RDF>
  </metadata>
  <sodipodi:namedview
     pagecolor="#ffffff"
     bordercolor="#666666"
     borderopacity="1"
     objecttolerance="10"
     gridtolerance="10"
     guidetolerance="10"
     inkscape:pageopacity="0"
     inkscape:pageshadow="2"
     inkscape:window-width="640"
     inkscape:window-height="480"
     id="namedview69"
     showgrid="false"
     inkscape:zoom="0.20081833"
     inkscape:cx="1037.8771"
     inkscape:cy="102.9553"
     inkscape:window-x="0"
     inkscape:window-y="0"
     inkscape:window-maximized="0"
     inkscape:current-layer="g65" />
  <defs
     id="defs5">
    <clipPath
       id="clip0">
      <path
         d="M 0,0 H 2000 V 1125 H 0 Z"
         id="path2"
         inkscape:connector-curvature="0"
         style="clip-rule:evenodd;fill-rule:evenodd" />
    </clipPath>
  </defs>
  <g
     clip-path="url(#clip0)"
     id="g65"
     transform="translate(-19.582039,-122.80859)">
    <text
       font-weight="400"
       font-stretch="semi-condensed"
       font-size="92"
       transform="translate(633.917,191)"
       id="text29"
       style="font-weight:400;font-stretch:semi-condensed;font-size:92px;font-family:'Lucida Console', 'Lucida Console_MSFontService', sans-serif">8 4 7 <tspan
   x="331.25"
   y="0"
   id="tspan9"
   style="fill:#ff0000">3 6 2 5 1</tspan>
9 0<tspan
   x="0"
   y="221"
   id="tspan11"
   style="fill:#00b050">0</tspan>
<tspan
   x="110.417"
   y="221"
   id="tspan13">1</tspan>
<tspan
   x="220.83299"
   y="221"
   id="tspan15">2</tspan>
<tspan
   x="331.25"
   y="221"
   id="tspan17">3</tspan>
<tspan
   x="441.66699"
   y="221"
   id="tspan19"
   style="fill:#00b050">4</tspan>
<tspan
   x="552.08301"
   y="221"
   id="tspan21">5</tspan>
<tspan
   x="662.5"
   y="221"
   id="tspan23">6</tspan>
<tspan
   x="772.91699"
   y="221"
   id="tspan25"
   style="fill:#00b050">7</tspan>
<tspan
   x="883.33301"
   y="221"
   id="tspan27">8 9</tspan>
</text>
    <path
       d="m 743.917,385.578 h 56 v 5 h -56 z"
       id="path31"
       inkscape:connector-curvature="0"
       style="fill-rule:evenodd" />
    <path
       d="m 854.917,385.578 h 55 v 5 h -55 z"
       id="path33"
       inkscape:connector-curvature="0"
       style="fill-rule:evenodd" />
    <path
       d="m 964.917,385.578 h 55.003 v 5 h -55.003 z"
       id="path35"
       inkscape:connector-curvature="0"
       style="fill-rule:evenodd" />
    <path
       d="m 1185.92,385.578 h 55 v 5 h -55 z"
       id="path37"
       inkscape:connector-curvature="0"
       style="fill-rule:evenodd" />
    <path
       d="m 1296.92,385.578 h 55 v 5 h -55 z"
       id="path39"
       inkscape:connector-curvature="0"
       style="fill-rule:evenodd" />
    <text
       font-weight="400"
       font-stretch="semi-condensed"
       font-size="92"
       transform="translate(633.917,633)"
       id="text49"
       style="font-weight:400;font-stretch:semi-condensed;font-size:92px;font-family:'Lucida Console', 'Lucida Console_MSFontService', sans-serif">0 4 7 <tspan
   x="331.25"
   y="0"
   id="tspan41"
   style="fill:#ff0000">3 6 2 5 1</tspan>
8 9<tspan
   x="-618.91699"
   y="-442"
   id="tspan43">Parent 1</tspan>
<tspan
   x="-618.91699"
   y="-221"
   id="tspan45">Parent 2</tspan>
<tspan
   x="-618.91699"
   y="6"
   id="tspan47">Child</tspan>
</text>
    <path
       d="m 947.178,537.282 -19.151,-1.542 -23.483,-2.317 -22.922,-2.693 -22.363,-3.069 -21.679,-3.446 -21.048,-3.822 -20.365,-4.073 -19.685,-4.451 -18.935,-4.765 -18.248,-5.079 -17.442,-5.333 -16.634,-5.649 -15.824,-5.903 -14.95,-6.156 -14.15,-6.352 -13.216,-6.671 -12.345,-6.802 -11.424,-7.069 -10.424,-7.265 -9.498,-7.409 -8.45,-7.624 -7.449,-7.831 -6.392,-7.926 -5.329,-8.153 -4.257,-8.321 -3.046,-8.425 -1.886,-8.52 -0.652,-8.669 0.587,-8.671 1.884,-8.773 3.11,-8.745 4.443,-8.694 4.179,-6.492 4.799,-6.399 5.492,-6.258 6.11,-6.11 6.79,-6.029 7.344,-5.888 7.907,-5.756 8.527,-5.621 9.086,-5.49 9.639,-5.292 10.194,-5.223 10.694,-5.032 11.192,-4.905 11.749,-4.712 12.181,-4.583 12.678,-4.394 13.112,-4.266 13.552,-4.078 13.987,-3.889 14.421,-3.699 14.789,-3.509 15.167,-3.385 15.607,-3.134 15.924,-2.946 32.881,-5.261 34.199,-4.385 35.321,-3.507 36.348,-2.565 0.352,4.988 -36.313,2.562 0.072,-0.006 -35.25,3.5 0.07,-0.008 -34.125,4.375 0.077,-0.011 -32.812,5.25 0.06,-0.01 -15.875,2.937 0.037,-0.007 -15.562,3.125 0.052,-0.011 -15.125,3.375 0.033,-0.008 -14.75,3.5 0.044,-0.01 -14.375,3.687 0.048,-0.013 -13.937,3.875 0.05,-0.015 -13.5,4.063 0.053,-0.017 -13.062,4.25 0.045,-0.015 -12.625,4.375 0.062,-0.022 -12.125,4.562 0.05,-0.019 -11.687,4.687 0.072,-0.03 -11.125,4.875 0.062,-0.028 -10.625,5 0.075,-0.037 -10.125,5.187 0.063,-0.033 -9.562,5.25 0.089,-0.052 -9,5.438 0.084,-0.053 -8.438,5.563 0.095,-0.066 -7.812,5.687 0.092,-0.07 -7.25,5.812 0.096,-0.081 -6.687,5.937 0.108,-0.101 -6,6 0.111,-0.119 -5.375,6.125 0.121,-0.149 -4.687,6.25 0.102,-0.147 -4.063,6.312 0.124,-0.215 -4.312,8.438 0.129,-0.3 -3,8.437 0.089,-0.312 -1.813,8.437 0.05,-0.356 -0.562,8.312 -0.002,-0.356 0.625,8.313 -0.052,-0.353 1.813,8.187 -0.09,-0.31 2.938,8.125 -0.126,-0.288 4.125,8.062 -0.133,-0.229 5.188,7.938 -0.147,-0.202 6.25,7.75 -0.135,-0.154 7.313,7.688 -0.137,-0.133 8.313,7.5 -0.137,-0.115 9.375,7.312 -0.108,-0.079 10.312,7.187 -0.114,-0.075 11.312,7 -0.108,-0.064 12.25,6.75 -0.08,-0.042 13.125,6.625 -0.103,-0.049 14.062,6.313 -0.072,-0.031 14.875,6.125 -0.078,-0.031 15.75,5.875 -0.07,-0.025 16.563,5.625 -0.073,-0.023 17.375,5.312 -0.061,-0.017 18.188,5.062 -0.06,-0.016 18.875,4.75 -0.059,-0.014 19.625,4.438 -0.061,-0.013 20.312,4.062 -0.043,-0.008 21,3.812 -0.055,-0.009 21.625,3.438 -0.052,-0.008 22.312,3.062 -0.048,-0.006 22.875,2.688 -0.046,-0.005 23.437,2.312 -0.044,-0.004 19.128,1.54 z m -12.62,-14.469 17.766,12.375 -19.517,9.374 c -1.245,0.597 -2.738,0.073 -3.336,-1.172 -0.598,-1.244 -0.073,-2.738 1.171,-3.335 l 15.654,-7.518 -0.346,4.305 -14.25,-9.926 c -1.133,-0.789 -1.411,-2.347 -0.622,-3.48 0.789,-1.133 2.347,-1.412 3.48,-0.623 z"
       id="path51"
       inkscape:connector-curvature="0"
       style="fill:#ff0000" />
    <path
       d="m 1481.13,207.395 18.53,2.379 18.07,2.76 17.56,3.199 17.06,3.512 16.56,3.828 15.95,4.207 15.38,4.583 14.82,4.835 14.26,5.152 13.59,5.407 12.95,5.724 12.33,5.976 11.66,6.174 10.97,6.496 10.22,6.687 9.54,6.886 8.86,7.149 8.05,7.288 7.3,7.495 6.49,7.697 5.74,7.843 4.86,7.993 4.04,8.08 3.15,8.297 2.25,8.371 1.36,8.457 0.39,8.523 -0.52,8.591 -1.55,8.65 -2.51,8.622 -3.47,8.605 -4.47,8.565 -3.65,5.896 -4.09,5.751 -4.52,5.598 -4.9,5.595 -5.33,5.402 -5.71,5.322 -6.07,5.19 -6.47,5.136 -14.01,9.844 -15.45,9.27 -16.75,8.815 -18.05,8.242 -19.17,7.668 -20.36,7.099 -21.48,6.405 -22.4,5.774 -23.34,5.082 -24.21,4.39 -25.02,3.638 -20.81,2.278 -0.55,-4.97 20.77,-2.274 -0.09,0.012 24.94,-3.625 -0.09,0.014 24.13,-4.375 -0.09,0.017 23.25,-5.063 -0.09,0.022 22.31,-5.75 -0.09,0.025 21.38,-6.375 -0.11,0.035 20.25,-7.062 -0.11,0.039 19.06,-7.625 -0.11,0.047 17.94,-8.187 -0.12,0.062 16.62,-8.75 -0.12,0.068 15.31,-9.187 -0.15,0.098 13.88,-9.75 -0.12,0.088 6.37,-5.063 -0.07,0.057 6,-5.125 -0.08,0.073 5.63,-5.25 -0.08,0.071 5.25,-5.313 -0.1,0.111 4.81,-5.5 -0.06,0.077 4.44,-5.5 -0.09,0.121 4,-5.625 -0.09,0.132 3.56,-5.75 -0.09,0.159 4.37,-8.375 -0.1,0.223 3.38,-8.375 -0.09,0.236 2.44,-8.375 -0.06,0.258 1.5,-8.375 -0.03,0.29 0.5,-8.312 v 0.264 l -0.38,-8.25 0.03,0.282 -1.31,-8.188 0.05,0.254 -2.19,-8.125 0.08,0.238 -3.06,-8.062 0.1,0.23 -3.94,-7.875 0.1,0.181 -4.75,-7.813 0.12,0.178 -5.63,-7.688 0.11,0.135 -6.37,-7.562 0.12,0.133 -7.19,-7.375 0.11,0.109 -7.94,-7.188 0.11,0.092 -8.75,-7.062 0.11,0.082 -9.44,-6.813 0.1,0.065 -10.13,-6.625 0.1,0.059 -10.88,-6.437 0.1,0.058 -11.56,-6.125 0.08,0.04 -12.25,-5.937 0.08,0.037 -12.87,-5.688 0.08,0.036 -13.5,-5.375 0.08,0.029 -14.19,-5.125 0.07,0.025 -14.75,-4.812 0.07,0.019 -15.32,-4.563 0.08,0.022 -15.88,-4.188 0.08,0.019 -16.5,-3.813 0.06,0.013 -17,-3.5 0.05,0.011 -17.5,-3.187 0.07,0.011 -18,-2.75 0.06,0.009 -18.5,-2.375 z m 2.2,337.29 -19.78,-8.809 17.4,-12.88 c 1.11,-0.821 2.68,-0.587 3.5,0.522 0.82,1.11 0.59,2.676 -0.52,3.497 l -13.96,10.331 -0.47,-4.293 15.86,7.065 c 1.26,0.562 1.83,2.04 1.27,3.301 -0.56,1.261 -2.04,1.828 -3.3,1.266 z"
       id="path53"
       inkscape:connector-curvature="0"
       style="fill:#ff0000" />
    <path
       d="m 666,443.5 v 91.205 h -1 V 443.5 Z m 5.75,89.122 -6.25,12.5 -6.25,-12.5 z"
       id="path55"
       inkscape:connector-curvature="0"
       style="fill:#70ad47" />
    <path
       d="M 0.177486,-0.467439 298.874,112.947 298.519,113.882 -0.177486,0.467439 Z M 298.968,106.832 l 9.467,10.28 -13.904,1.406 z"
       transform="matrix(-1,-8.74228e-8,-8.74228e-8,1,1094.94,428.5)"
       id="path57"
       inkscape:connector-curvature="0"
       style="fill:#70ad47" />
    <path
       d="M 0.108791,-0.488021 515.291,114.358 515.073,115.334 -0.108791,0.488021 Z M 514.508,108.292 l 10.84,8.82 -13.56,3.381 z"
       transform="matrix(-1,-8.74228e-8,-8.74228e-8,1,1416.85,428.5)"
       id="path59"
       inkscape:connector-curvature="0"
       style="fill:#70ad47" />
    <path
       d="m 1546,443.5 v 91.205 h -1 V 443.5 Z m 5.75,89.122 -6.25,12.5 -6.25,-12.5 z"
       id="path61"
       inkscape:connector-curvature="0"
       style="fill:#70ad47" />
    <path
       d="m 1654,443.5 v 91.205 h -1 V 443.5 Z m 5.75,89.122 -6.25,12.5 -6.25,-12.5 z"
       id="path63"
       inkscape:connector-curvature="0"
       style="fill:#70ad47" />
  </g>
</svg>
