<?xml version="1.0" encoding="utf-8" standalone="no"?>
<!DOCTYPE svg PUBLIC "-//W3C//DTD SVG 1.1//EN"
  "http://www.w3.org/Graphics/SVG/1.1/DTD/svg11.dtd">
<!-- Created with matplotlib (https://matplotlib.org/) -->
<svg height="288pt" version="1.1" viewBox="0 0 432 288" width="432pt" xmlns="http://www.w3.org/2000/svg" xmlns:xlink="http://www.w3.org/1999/xlink">
 <defs>
  <style type="text/css">
*{stroke-linecap:butt;stroke-linejoin:round;}
  </style>
 </defs>
 <g id="figure_1">
  <g id="patch_1">
   <path d="M 0 288 
L 432 288 
L 432 0 
L 0 0 
z
" style="fill:#ffffff;"/>
  </g>
  <g id="axes_1">
   <g id="patch_2">
    <path d="M 54 252 
L 388.8 252 
L 388.8 34.56 
L 54 34.56 
z
" style="fill:#eaeaf2;"/>
   </g>
   <g id="matplotlib.axis_1">
    <g id="xtick_1">
     <g id="line2d_1">
      <path clip-path="url(#p94d78adb62)" d="M 58.467592 252 
L 58.467592 34.56 
" style="fill:none;stroke:#ffffff;stroke-linecap:round;"/>
     </g>
     <g id="text_1">
      <!-- −3 -->
      <defs>
       <path d="M 52.828125 31.203125 
L 5.5625 31.203125 
L 5.5625 39.40625 
L 52.828125 39.40625 
z
" id="ArialMT-8722"/>
       <path d="M 4.203125 18.890625 
L 12.984375 20.0625 
Q 14.5 12.59375 18.140625 9.296875 
Q 21.78125 6 27 6 
Q 33.203125 6 37.46875 10.296875 
Q 41.75 14.59375 41.75 20.953125 
Q 41.75 27 37.796875 30.921875 
Q 33.84375 34.859375 27.734375 34.859375 
Q 25.25 34.859375 21.53125 33.890625 
L 22.515625 41.609375 
Q 23.390625 41.5 23.921875 41.5 
Q 29.546875 41.5 34.03125 44.421875 
Q 38.53125 47.359375 38.53125 53.46875 
Q 38.53125 58.296875 35.25 61.46875 
Q 31.984375 64.65625 26.8125 64.65625 
Q 21.6875 64.65625 18.265625 61.421875 
Q 14.84375 58.203125 13.875 51.765625 
L 5.078125 53.328125 
Q 6.6875 62.15625 12.390625 67.015625 
Q 18.109375 71.875 26.609375 71.875 
Q 32.46875 71.875 37.390625 69.359375 
Q 42.328125 66.84375 44.9375 62.5 
Q 47.5625 58.15625 47.5625 53.265625 
Q 47.5625 48.640625 45.0625 44.828125 
Q 42.578125 41.015625 37.703125 38.765625 
Q 44.046875 37.3125 47.5625 32.6875 
Q 51.078125 28.078125 51.078125 21.140625 
Q 51.078125 11.765625 44.234375 5.25 
Q 37.40625 -1.265625 26.953125 -1.265625 
Q 17.53125 -1.265625 11.296875 4.34375 
Q 5.078125 9.96875 4.203125 18.890625 
z
" id="ArialMT-51"/>
      </defs>
      <g style="fill:#262626;" transform="translate(52.196733 269.373594)scale(0.11 -0.11)">
       <use xlink:href="#ArialMT-8722"/>
       <use x="58.398438" xlink:href="#ArialMT-51"/>
      </g>
     </g>
    </g>
    <g id="xtick_2">
     <g id="line2d_2">
      <path clip-path="url(#p94d78adb62)" d="M 108.079274 252 
L 108.079274 34.56 
" style="fill:none;stroke:#ffffff;stroke-linecap:round;"/>
     </g>
     <g id="text_2">
      <!-- −2 -->
      <defs>
       <path d="M 50.34375 8.453125 
L 50.34375 0 
L 3.03125 0 
Q 2.9375 3.171875 4.046875 6.109375 
Q 5.859375 10.9375 9.828125 15.625 
Q 13.8125 20.3125 21.34375 26.46875 
Q 33.015625 36.03125 37.109375 41.625 
Q 41.21875 47.21875 41.21875 52.203125 
Q 41.21875 57.421875 37.46875 61 
Q 33.734375 64.59375 27.734375 64.59375 
Q 21.390625 64.59375 17.578125 60.78125 
Q 13.765625 56.984375 13.71875 50.25 
L 4.6875 51.171875 
Q 5.609375 61.28125 11.65625 66.578125 
Q 17.71875 71.875 27.9375 71.875 
Q 38.234375 71.875 44.234375 66.15625 
Q 50.25 60.453125 50.25 52 
Q 50.25 47.703125 48.484375 43.546875 
Q 46.734375 39.40625 42.65625 34.8125 
Q 38.578125 30.21875 29.109375 22.21875 
Q 21.1875 15.578125 18.9375 13.203125 
Q 16.703125 10.84375 15.234375 8.453125 
z
" id="ArialMT-50"/>
      </defs>
      <g style="fill:#262626;" transform="translate(101.808414 269.373594)scale(0.11 -0.11)">
       <use xlink:href="#ArialMT-8722"/>
       <use x="58.398438" xlink:href="#ArialMT-50"/>
      </g>
     </g>
    </g>
    <g id="xtick_3">
     <g id="line2d_3">
      <path clip-path="url(#p94d78adb62)" d="M 157.690955 252 
L 157.690955 34.56 
" style="fill:none;stroke:#ffffff;stroke-linecap:round;"/>
     </g>
     <g id="text_3">
      <!-- −1 -->
      <defs>
       <path d="M 37.25 0 
L 28.46875 0 
L 28.46875 56 
Q 25.296875 52.984375 20.140625 49.953125 
Q 14.984375 46.921875 10.890625 45.40625 
L 10.890625 53.90625 
Q 18.265625 57.375 23.78125 62.296875 
Q 29.296875 67.234375 31.59375 71.875 
L 37.25 71.875 
z
" id="ArialMT-49"/>
      </defs>
      <g style="fill:#262626;" transform="translate(151.420096 269.373594)scale(0.11 -0.11)">
       <use xlink:href="#ArialMT-8722"/>
       <use x="58.398438" xlink:href="#ArialMT-49"/>
      </g>
     </g>
    </g>
    <g id="xtick_4">
     <g id="line2d_4">
      <path clip-path="url(#p94d78adb62)" d="M 207.302637 252 
L 207.302637 34.56 
" style="fill:none;stroke:#ffffff;stroke-linecap:round;"/>
     </g>
     <g id="text_4">
      <!-- 0 -->
      <defs>
       <path d="M 4.15625 35.296875 
Q 4.15625 48 6.765625 55.734375 
Q 9.375 63.484375 14.515625 67.671875 
Q 19.671875 71.875 27.484375 71.875 
Q 33.25 71.875 37.59375 69.546875 
Q 41.9375 67.234375 44.765625 62.859375 
Q 47.609375 58.5 49.21875 52.21875 
Q 50.828125 45.953125 50.828125 35.296875 
Q 50.828125 22.703125 48.234375 14.96875 
Q 45.65625 7.234375 40.5 3 
Q 35.359375 -1.21875 27.484375 -1.21875 
Q 17.140625 -1.21875 11.234375 6.203125 
Q 4.15625 15.140625 4.15625 35.296875 
z
M 13.1875 35.296875 
Q 13.1875 17.671875 17.3125 11.828125 
Q 21.4375 6 27.484375 6 
Q 33.546875 6 37.671875 11.859375 
Q 41.796875 17.71875 41.796875 35.296875 
Q 41.796875 52.984375 37.671875 58.78125 
Q 33.546875 64.59375 27.390625 64.59375 
Q 21.34375 64.59375 17.71875 59.46875 
Q 13.1875 52.9375 13.1875 35.296875 
z
" id="ArialMT-48"/>
      </defs>
      <g style="fill:#262626;" transform="translate(204.244121 269.373594)scale(0.11 -0.11)">
       <use xlink:href="#ArialMT-48"/>
      </g>
     </g>
    </g>
    <g id="xtick_5">
     <g id="line2d_5">
      <path clip-path="url(#p94d78adb62)" d="M 256.914319 252 
L 256.914319 34.56 
" style="fill:none;stroke:#ffffff;stroke-linecap:round;"/>
     </g>
     <g id="text_5">
      <!-- 1 -->
      <g style="fill:#262626;" transform="translate(253.855803 269.373594)scale(0.11 -0.11)">
       <use xlink:href="#ArialMT-49"/>
      </g>
     </g>
    </g>
    <g id="xtick_6">
     <g id="line2d_6">
      <path clip-path="url(#p94d78adb62)" d="M 306.526 252 
L 306.526 34.56 
" style="fill:none;stroke:#ffffff;stroke-linecap:round;"/>
     </g>
     <g id="text_6">
      <!-- 2 -->
      <g style="fill:#262626;" transform="translate(303.467485 269.373594)scale(0.11 -0.11)">
       <use xlink:href="#ArialMT-50"/>
      </g>
     </g>
    </g>
    <g id="xtick_7">
     <g id="line2d_7">
      <path clip-path="url(#p94d78adb62)" d="M 356.137682 252 
L 356.137682 34.56 
" style="fill:none;stroke:#ffffff;stroke-linecap:round;"/>
     </g>
     <g id="text_7">
      <!-- 3 -->
      <g style="fill:#262626;" transform="translate(353.079166 269.373594)scale(0.11 -0.11)">
       <use xlink:href="#ArialMT-51"/>
      </g>
     </g>
    </g>
    <g id="text_8">
     <!-- PC 1 -->
     <defs>
      <path d="M 7.71875 0 
L 7.71875 71.578125 
L 34.71875 71.578125 
Q 41.84375 71.578125 45.609375 70.90625 
Q 50.875 70.015625 54.4375 67.546875 
Q 58.015625 65.09375 60.1875 60.640625 
Q 62.359375 56.203125 62.359375 50.875 
Q 62.359375 41.75 56.546875 35.421875 
Q 50.734375 29.109375 35.546875 29.109375 
L 17.1875 29.109375 
L 17.1875 0 
z
M 17.1875 37.546875 
L 35.6875 37.546875 
Q 44.875 37.546875 48.734375 40.96875 
Q 52.59375 44.390625 52.59375 50.59375 
Q 52.59375 55.078125 50.3125 58.265625 
Q 48.046875 61.46875 44.34375 62.5 
Q 41.9375 63.140625 35.5 63.140625 
L 17.1875 63.140625 
z
" id="ArialMT-80"/>
      <path d="M 58.796875 25.09375 
L 68.265625 22.703125 
Q 65.28125 11.03125 57.546875 4.90625 
Q 49.8125 -1.21875 38.625 -1.21875 
Q 27.046875 -1.21875 19.796875 3.484375 
Q 12.546875 8.203125 8.765625 17.140625 
Q 4.984375 26.078125 4.984375 36.328125 
Q 4.984375 47.515625 9.25 55.828125 
Q 13.53125 64.15625 21.40625 68.46875 
Q 29.296875 72.796875 38.765625 72.796875 
Q 49.515625 72.796875 56.828125 67.328125 
Q 64.15625 61.859375 67.046875 51.953125 
L 57.71875 49.75 
Q 55.21875 57.5625 50.484375 61.125 
Q 45.75 64.703125 38.578125 64.703125 
Q 30.328125 64.703125 24.78125 60.734375 
Q 19.234375 56.78125 16.984375 50.109375 
Q 14.75 43.453125 14.75 36.375 
Q 14.75 27.25 17.40625 20.4375 
Q 20.0625 13.625 25.671875 10.25 
Q 31.296875 6.890625 37.84375 6.890625 
Q 45.796875 6.890625 51.3125 11.46875 
Q 56.84375 16.0625 58.796875 25.09375 
z
" id="ArialMT-67"/>
      <path id="ArialMT-32"/>
     </defs>
     <g style="fill:#262626;" transform="translate(208.06125 284.149219)scale(0.12 -0.12)">
      <use xlink:href="#ArialMT-80"/>
      <use x="66.699219" xlink:href="#ArialMT-67"/>
      <use x="138.916016" xlink:href="#ArialMT-32"/>
      <use x="166.699219" xlink:href="#ArialMT-49"/>
     </g>
    </g>
   </g>
   <g id="matplotlib.axis_2">
    <g id="ytick_1">
     <g id="line2d_8">
      <path clip-path="url(#p94d78adb62)" d="M 54 216.36031 
L 388.8 216.36031 
" style="fill:none;stroke:#ffffff;stroke-linecap:round;"/>
     </g>
     <g id="text_9">
      <!-- −2 -->
      <g style="fill:#262626;" transform="translate(31.958281 220.297107)scale(0.11 -0.11)">
       <use xlink:href="#ArialMT-8722"/>
       <use x="58.398438" xlink:href="#ArialMT-50"/>
      </g>
     </g>
    </g>
    <g id="ytick_2">
     <g id="line2d_9">
      <path clip-path="url(#p94d78adb62)" d="M 54 180.019932 
L 388.8 180.019932 
" style="fill:none;stroke:#ffffff;stroke-linecap:round;"/>
     </g>
     <g id="text_10">
      <!-- −1 -->
      <g style="fill:#262626;" transform="translate(31.958281 183.956728)scale(0.11 -0.11)">
       <use xlink:href="#ArialMT-8722"/>
       <use x="58.398438" xlink:href="#ArialMT-49"/>
      </g>
     </g>
    </g>
    <g id="ytick_3">
     <g id="line2d_10">
      <path clip-path="url(#p94d78adb62)" d="M 54 143.679553 
L 388.8 143.679553 
" style="fill:none;stroke:#ffffff;stroke-linecap:round;"/>
     </g>
     <g id="text_11">
      <!-- 0 -->
      <g style="fill:#262626;" transform="translate(38.382969 147.61635)scale(0.11 -0.11)">
       <use xlink:href="#ArialMT-48"/>
      </g>
     </g>
    </g>
    <g id="ytick_4">
     <g id="line2d_11">
      <path clip-path="url(#p94d78adb62)" d="M 54 107.339175 
L 388.8 107.339175 
" style="fill:none;stroke:#ffffff;stroke-linecap:round;"/>
     </g>
     <g id="text_12">
      <!-- 1 -->
      <g style="fill:#262626;" transform="translate(38.382969 111.275972)scale(0.11 -0.11)">
       <use xlink:href="#ArialMT-49"/>
      </g>
     </g>
    </g>
    <g id="ytick_5">
     <g id="line2d_12">
      <path clip-path="url(#p94d78adb62)" d="M 54 70.998797 
L 388.8 70.998797 
" style="fill:none;stroke:#ffffff;stroke-linecap:round;"/>
     </g>
     <g id="text_13">
      <!-- 2 -->
      <g style="fill:#262626;" transform="translate(38.382969 74.935593)scale(0.11 -0.11)">
       <use xlink:href="#ArialMT-50"/>
      </g>
     </g>
    </g>
    <g id="ytick_6">
     <g id="line2d_13">
      <path clip-path="url(#p94d78adb62)" d="M 54 34.658418 
L 388.8 34.658418 
" style="fill:none;stroke:#ffffff;stroke-linecap:round;"/>
     </g>
     <g id="text_14">
      <!-- 3 -->
      <g style="fill:#262626;" transform="translate(38.382969 38.595215)scale(0.11 -0.11)">
       <use xlink:href="#ArialMT-51"/>
      </g>
     </g>
    </g>
    <g id="text_15">
     <!-- PC 2 -->
     <g style="fill:#262626;" transform="translate(25.573281 156.61875)rotate(-90)scale(0.12 -0.12)">
      <use xlink:href="#ArialMT-80"/>
      <use x="66.699219" xlink:href="#ArialMT-67"/>
      <use x="138.916016" xlink:href="#ArialMT-32"/>
      <use x="166.699219" xlink:href="#ArialMT-50"/>
     </g>
    </g>
   </g>
   <g id="PathCollection_1">
    <defs>
     <path d="M 0 3 
C 0.795609 3 1.55874 2.683901 2.12132 2.12132 
C 2.683901 1.55874 3 0.795609 3 0 
C 3 -0.795609 2.683901 -1.55874 2.12132 -2.12132 
C 1.55874 -2.683901 0.795609 -3 0 -3 
C -0.795609 -3 -1.55874 -2.683901 -2.12132 -2.12132 
C -2.683901 -1.55874 -3 -0.795609 -3 0 
C -3 0.795609 -2.683901 1.55874 -2.12132 2.12132 
C -1.55874 2.683901 -0.795609 3 0 3 
z
" id="m92f91e7e85" style="stroke:#4c72b0;"/>
    </defs>
    <g clip-path="url(#p94d78adb62)">
     <use style="fill:#4c72b0;stroke:#4c72b0;" x="94.946922" xlink:href="#m92f91e7e85" y="161.123901"/>
     <use style="fill:#4c72b0;stroke:#4c72b0;" x="104.062655" xlink:href="#m92f91e7e85" y="119.181285"/>
     <use style="fill:#4c72b0;stroke:#4c72b0;" x="90.009258" xlink:href="#m92f91e7e85" y="131.254486"/>
     <use style="fill:#4c72b0;stroke:#4c72b0;" x="93.226319" xlink:href="#m92f91e7e85" y="121.970011"/>
     <use style="fill:#4c72b0;stroke:#4c72b0;" x="88.738548" xlink:href="#m92f91e7e85" y="167.185796"/>
     <use style="fill:#4c72b0;stroke:#4c72b0;" x="104.327095" xlink:href="#m92f91e7e85" y="197.796828"/>
     <use style="fill:#4c72b0;stroke:#4c72b0;" x="86.050257" xlink:href="#m92f91e7e85" y="145.410961"/>
     <use style="fill:#4c72b0;stroke:#4c72b0;" x="96.527335" xlink:href="#m92f91e7e85" y="151.788839"/>
     <use style="fill:#4c72b0;stroke:#4c72b0;" x="91.477197" xlink:href="#m92f91e7e85" y="103.148124"/>
     <use style="fill:#4c72b0;stroke:#4c72b0;" x="98.934443" xlink:href="#m92f91e7e85" y="126.635423"/>
     <use style="fill:#4c72b0;stroke:#4c72b0;" x="99.82835" xlink:href="#m92f91e7e85" y="181.607666"/>
     <use style="fill:#4c72b0;stroke:#4c72b0;" x="91.899373" xlink:href="#m92f91e7e85" y="148.51567"/>
     <use style="fill:#4c72b0;stroke:#4c72b0;" x="97.241557" xlink:href="#m92f91e7e85" y="117.199186"/>
     <use style="fill:#4c72b0;stroke:#4c72b0;" x="76.670084" xlink:href="#m92f91e7e85" y="108.738035"/>
     <use style="fill:#4c72b0;stroke:#4c72b0;" x="98.219418" xlink:href="#m92f91e7e85" y="211.274732"/>
     <use style="fill:#4c72b0;stroke:#4c72b0;" x="95.07037" xlink:href="#m92f91e7e85" y="241.300148"/>
     <use style="fill:#4c72b0;stroke:#4c72b0;" x="97.780499" xlink:href="#m92f91e7e85" y="197.594479"/>
     <use style="fill:#4c72b0;stroke:#4c72b0;" x="98.635715" xlink:href="#m92f91e7e85" y="161.444123"/>
     <use style="fill:#4c72b0;stroke:#4c72b0;" x="113.111288" xlink:href="#m92f91e7e85" y="194.738468"/>
     <use style="fill:#4c72b0;stroke:#4c72b0;" x="91.044158" xlink:href="#m92f91e7e85" y="184.666026"/>
     <use style="fill:#4c72b0;stroke:#4c72b0;" x="112.329854" xlink:href="#m92f91e7e85" y="158.537524"/>
     <use style="fill:#4c72b0;stroke:#4c72b0;" x="97.809019" xlink:href="#m92f91e7e85" y="177.262476"/>
     <use style="fill:#4c72b0;stroke:#4c72b0;" x="69.662731" xlink:href="#m92f91e7e85" y="160.335936"/>
     <use style="fill:#4c72b0;stroke:#4c72b0;" x="117.075383" xlink:href="#m92f91e7e85" y="146.788782"/>
     <use style="fill:#4c72b0;stroke:#4c72b0;" x="96.80932" xlink:href="#m92f91e7e85" y="148.667432"/>
     <use style="fill:#4c72b0;stroke:#4c72b0;" x="110.468258" xlink:href="#m92f91e7e85" y="120.944337"/>
     <use style="fill:#4c72b0;stroke:#4c72b0;" x="105.541568" xlink:href="#m92f91e7e85" y="152.479868"/>
     <use style="fill:#4c72b0;stroke:#4c72b0;" x="99.715877" xlink:href="#m92f91e7e85" y="162.836366"/>
     <use style="fill:#4c72b0;stroke:#4c72b0;" x="101.155296" xlink:href="#m92f91e7e85" y="155.062007"/>
     <use style="fill:#4c72b0;stroke:#4c72b0;" x="94.919205" xlink:href="#m92f91e7e85" y="131.406248"/>
     <use style="fill:#4c72b0;stroke:#4c72b0;" x="101.127579" xlink:href="#m92f91e7e85" y="125.344354"/>
     <use style="fill:#4c72b0;stroke:#4c72b0;" x="116.43414" xlink:href="#m92f91e7e85" y="159.076792"/>
     <use style="fill:#4c72b0;stroke:#4c72b0;" x="77.570673" xlink:href="#m92f91e7e85" y="208.858778"/>
     <use style="fill:#4c72b0;stroke:#4c72b0;" x="85.943663" xlink:href="#m92f91e7e85" y="221.837818"/>
     <use style="fill:#4c72b0;stroke:#4c72b0;" x="102.623235" xlink:href="#m92f91e7e85" y="126.955644"/>
     <use style="fill:#4c72b0;stroke:#4c72b0;" x="97.769525" xlink:href="#m92f91e7e85" y="136.189532"/>
     <use style="fill:#4c72b0;stroke:#4c72b0;" x="105.839495" xlink:href="#m92f91e7e85" y="167.720825"/>
     <use style="fill:#4c72b0;stroke:#4c72b0;" x="81.917451" xlink:href="#m92f91e7e85" y="165.203697"/>
     <use style="fill:#4c72b0;stroke:#4c72b0;" x="86.764479" xlink:href="#m92f91e7e85" y="110.821309"/>
     <use style="fill:#4c72b0;stroke:#4c72b0;" x="99.65964" xlink:href="#m92f91e7e85" y="153.450716"/>
     <use style="fill:#4c72b0;stroke:#4c72b0;" x="93.86676" xlink:href="#m92f91e7e85" y="159.731658"/>
     <use style="fill:#4c72b0;stroke:#4c72b0;" x="115.118057" xlink:href="#m92f91e7e85" y="58.737002"/>
     <use style="fill:#4c72b0;stroke:#4c72b0;" x="80.612342" xlink:href="#m92f91e7e85" y="126.268853"/>
     <use style="fill:#4c72b0;stroke:#4c72b0;" x="109.843084" xlink:href="#m92f91e7e85" y="160.844083"/>
     <use style="fill:#4c72b0;stroke:#4c72b0;" x="101.279546" xlink:href="#m92f91e7e85" y="185.188597"/>
     <use style="fill:#4c72b0;stroke:#4c72b0;" x="104.619142" xlink:href="#m92f91e7e85" y="117.839628"/>
     <use style="fill:#4c72b0;stroke:#4c72b0;" x="88.992014" xlink:href="#m92f91e7e85" y="184.396393"/>
     <use style="fill:#4c72b0;stroke:#4c72b0;" x="88.513602" xlink:href="#m92f91e7e85" y="129.643196"/>
     <use style="fill:#4c72b0;stroke:#4c72b0;" x="96.696045" xlink:href="#m92f91e7e85" y="179.945789"/>
     <use style="fill:#4c72b0;stroke:#4c72b0;" x="97.966754" xlink:href="#m92f91e7e85" y="144.014479"/>
    </g>
   </g>
   <g id="PathCollection_2">
    <defs>
     <path d="M 0 3 
C 0.795609 3 1.55874 2.683901 2.12132 2.12132 
C 2.683901 1.55874 3 0.795609 3 0 
C 3 -0.795609 2.683901 -1.55874 2.12132 -2.12132 
C 1.55874 -2.683901 0.795609 -3 0 -3 
C -0.795609 -3 -1.55874 -2.683901 -2.12132 -2.12132 
C -2.683901 -1.55874 -3 -0.795609 -3 0 
C -3 0.795609 -2.683901 1.55874 -2.12132 2.12132 
C -1.55874 2.683901 -0.795609 3 0 3 
z
" id="m5c91719168" style="stroke:#dd8452;"/>
    </defs>
    <g clip-path="url(#p94d78adb62)">
     <use style="fill:#dd8452;stroke:#dd8452;" x="261.963854" xlink:href="#m5c91719168" y="175.040297"/>
     <use style="fill:#dd8452;stroke:#dd8452;" x="243.585517" xlink:href="#m5c91719168" y="165.288077"/>
     <use style="fill:#dd8452;stroke:#dd8452;" x="268.869708" xlink:href="#m5c91719168" y="166.076043"/>
     <use style="fill:#dd8452;stroke:#dd8452;" x="227.518557" xlink:href="#m5c91719168" y="79.923849"/>
     <use style="fill:#dd8452;stroke:#dd8452;" x="260.658746" xlink:href="#m5c91719168" y="136.105454"/>
     <use style="fill:#dd8452;stroke:#dd8452;" x="226.58607" xlink:href="#m5c91719168" y="122.119401"/>
     <use style="fill:#dd8452;stroke:#dd8452;" x="244.339233" xlink:href="#m5c91719168" y="171.771368"/>
     <use style="fill:#dd8452;stroke:#dd8452;" x="183.125736" xlink:href="#m5c91719168" y="76.361579"/>
     <use style="fill:#dd8452;stroke:#dd8452;" x="253.337398" xlink:href="#m5c91719168" y="144.850661"/>
     <use style="fill:#dd8452;stroke:#dd8452;" x="207.86951" xlink:href="#m5c91719168" y="106.102938"/>
     <use style="fill:#dd8452;stroke:#dd8452;" x="201.835614" xlink:href="#m5c91719168" y="47.229543"/>
     <use style="fill:#dd8452;stroke:#dd8452;" x="229.16618" xlink:href="#m5c91719168" y="141.379382"/>
     <use style="fill:#dd8452;stroke:#dd8452;" x="235.189775" xlink:href="#m5c91719168" y="79.548802"/>
     <use style="fill:#dd8452;stroke:#dd8452;" x="243.001312" xlink:href="#m5c91719168" y="136.912081"/>
     <use style="fill:#dd8452;stroke:#dd8452;" x="205.647854" xlink:href="#m5c91719168" y="127.726011"/>
     <use style="fill:#dd8452;stroke:#dd8452;" x="250.73306" xlink:href="#m5c91719168" y="162.17913"/>
     <use style="fill:#dd8452;stroke:#dd8452;" x="224.679211" xlink:href="#m5c91719168" y="136.545511"/>
     <use style="fill:#dd8452;stroke:#dd8452;" x="215.181471" xlink:href="#m5c91719168" y="114.894494"/>
     <use style="fill:#dd8452;stroke:#dd8452;" x="268.081592" xlink:href="#m5c91719168" y="84.7266"/>
     <use style="fill:#dd8452;stroke:#dd8452;" x="215.484491" xlink:href="#m5c91719168" y="96.342241"/>
     <use style="fill:#dd8452;stroke:#dd8452;" x="243.900314" xlink:href="#m5c91719168" y="158.091114"/>
     <use style="fill:#dd8452;stroke:#dd8452;" x="230.932046" xlink:href="#m5c91719168" y="128.513976"/>
     <use style="fill:#dd8452;stroke:#dd8452;" x="268.532288" xlink:href="#m5c91719168" y="109.762143"/>
     <use style="fill:#dd8452;stroke:#dd8452;" x="238.699797" xlink:href="#m5c91719168" y="128.547866"/>
     <use style="fill:#dd8452;stroke:#dd8452;" x="242.16284" xlink:href="#m5c91719168" y="141.375144"/>
     <use style="fill:#dd8452;stroke:#dd8452;" x="250.676823" xlink:href="#m5c91719168" y="152.79348"/>
     <use style="fill:#dd8452;stroke:#dd8452;" x="269.640167" xlink:href="#m5c91719168" y="140.87204"/>
     <use style="fill:#dd8452;stroke:#dd8452;" x="274.6954" xlink:href="#m5c91719168" y="155.719545"/>
     <use style="fill:#dd8452;stroke:#dd8452;" x="240.284501" xlink:href="#m5c91719168" y="135.46925"/>
     <use style="fill:#dd8452;stroke:#dd8452;" x="205.30534" xlink:href="#m5c91719168" y="105.205321"/>
     <use style="fill:#dd8452;stroke:#dd8452;" x="213.791606" xlink:href="#m5c91719168" y="86.906004"/>
     <use style="fill:#dd8452;stroke:#dd8452;" x="208.466164" xlink:href="#m5c91719168" y="86.535195"/>
     <use style="fill:#dd8452;stroke:#dd8452;" x="219.285757" xlink:href="#m5c91719168" y="115.433762"/>
     <use style="fill:#dd8452;stroke:#dd8452;" x="259.945325" xlink:href="#m5c91719168" y="120.64545"/>
     <use style="fill:#dd8452;stroke:#dd8452;" x="218.414601" xlink:href="#m5c91719168" y="133.221755"/>
     <use style="fill:#dd8452;stroke:#dd8452;" x="228.59295" xlink:href="#m5c91719168" y="174.408332"/>
     <use style="fill:#dd8452;stroke:#dd8452;" x="259.331799" xlink:href="#m5c91719168" y="162.651113"/>
     <use style="fill:#dd8452;stroke:#dd8452;" x="259.123596" xlink:href="#m5c91719168" y="93.42122"/>
     <use style="fill:#dd8452;stroke:#dd8452;" x="210.755031" xlink:href="#m5c91719168" y="135.702719"/>
     <use style="fill:#dd8452;stroke:#dd8452;" x="221.36642" xlink:href="#m5c91719168" y="95.371393"/>
     <use style="fill:#dd8452;stroke:#dd8452;" x="221.148155" xlink:href="#m5c91719168" y="102.977293"/>
     <use style="fill:#dd8452;stroke:#dd8452;" x="238.288595" xlink:href="#m5c91719168" y="144.585266"/>
     <use style="fill:#dd8452;stroke:#dd8452;" x="223.998475" xlink:href="#m5c91719168" y="107.760577"/>
     <use style="fill:#dd8452;stroke:#dd8452;" x="189.33411" xlink:href="#m5c91719168" y="70.299685"/>
     <use style="fill:#dd8452;stroke:#dd8452;" x="221.619886" xlink:href="#m5c91719168" y="112.58199"/>
     <use style="fill:#dd8452;stroke:#dd8452;" x="211.835193" xlink:href="#m5c91719168" y="137.094963"/>
     <use style="fill:#dd8452;stroke:#dd8452;" x="218.600054" xlink:href="#m5c91719168" y="129.691412"/>
     <use style="fill:#dd8452;stroke:#dd8452;" x="235.898229" xlink:href="#m5c91719168" y="138.051388"/>
     <use style="fill:#dd8452;stroke:#dd8452;" x="185.093123" xlink:href="#m5c91719168" y="87.577567"/>
     <use style="fill:#dd8452;stroke:#dd8452;" x="220.039473" xlink:href="#m5c91719168" y="121.917052"/>
    </g>
   </g>
   <g id="PathCollection_3">
    <defs>
     <path d="M 0 3 
C 0.795609 3 1.55874 2.683901 2.12132 2.12132 
C 2.683901 1.55874 3 0.795609 3 0 
C 3 -0.795609 2.683901 -1.55874 2.12132 -2.12132 
C 1.55874 -2.683901 0.795609 -3 0 -3 
C -0.795609 -3 -1.55874 -2.683901 -2.12132 -2.12132 
C -2.683901 -1.55874 -3 -0.795609 -3 0 
C -3 0.795609 -2.683901 1.55874 -2.12132 2.12132 
C -1.55874 2.683901 -0.795609 3 0 3 
z
" id="mef7c0c5c78" style="stroke:#55a868;"/>
    </defs>
    <g clip-path="url(#p94d78adb62)">
     <use style="fill:#55a868;stroke:#55a868;" x="298.814801" xlink:href="#mef7c0c5c78" y="175.310993"/>
     <use style="fill:#55a868;stroke:#55a868;" x="264.747091" xlink:href="#mef7c0c5c78" y="118.282358"/>
     <use style="fill:#55a868;stroke:#55a868;" x="316.709631" xlink:href="#mef7c0c5c78" y="164.103227"/>
     <use style="fill:#55a868;stroke:#55a868;" x="278.750933" xlink:href="#mef7c0c5c78" y="141.972007"/>
     <use style="fill:#55a868;stroke:#55a868;" x="299.967942" xlink:href="#mef7c0c5c78" y="154.401594"/>
     <use style="fill:#55a868;stroke:#55a868;" x="343.827701" xlink:href="#mef7c0c5c78" y="172.766726"/>
     <use style="fill:#55a868;stroke:#55a868;" x="225.511002" xlink:href="#mef7c0c5c78" y="86.933947"/>
     <use style="fill:#55a868;stroke:#55a868;" x="321.53053" xlink:href="#mef7c0c5c78" y="158.944895"/>
     <use style="fill:#55a868;stroke:#55a868;" x="306.857727" xlink:href="#mef7c0c5c78" y="117.825603"/>
     <use style="fill:#55a868;stroke:#55a868;" x="319.413992" xlink:href="#mef7c0c5c78" y="213.489797"/>
     <use style="fill:#55a868;stroke:#55a868;" x="274.981677" xlink:href="#mef7c0c5c78" y="168.854585"/>
     <use style="fill:#55a868;stroke:#55a868;" x="286.814221" xlink:href="#mef7c0c5c78" y="128.354799"/>
     <use style="fill:#55a868;stroke:#55a868;" x="300.766119" xlink:href="#mef7c0c5c78" y="158.915244"/>
     <use style="fill:#55a868;stroke:#55a868;" x="269.819066" xlink:href="#mef7c0c5c78" y="101.44257"/>
     <use style="fill:#55a868;stroke:#55a868;" x="280.114984" xlink:href="#mef7c0c5c78" y="127.607236"/>
     <use style="fill:#55a868;stroke:#55a868;" x="286.189047" xlink:href="#mef7c0c5c78" y="168.254545"/>
     <use style="fill:#55a868;stroke:#55a868;" x="280.302826" xlink:href="#mef7c0c5c78" y="152.968947"/>
     <use style="fill:#55a868;stroke:#55a868;" x="327.676898" xlink:href="#mef7c0c5c78" y="236.58959"/>
     <use style="fill:#55a868;stroke:#55a868;" x="371.551812" xlink:href="#mef7c0c5c78" y="144.32572"/>
     <use style="fill:#55a868;stroke:#55a868;" x="270.000227" xlink:href="#mef7c0c5c78" y="81.65578"/>
     <use style="fill:#55a868;stroke:#55a868;" x="308.39717" xlink:href="#mef7c0c5c78" y="176.766283"/>
     <use style="fill:#55a868;stroke:#55a868;" x="255.821906" xlink:href="#mef7c0c5c78" y="122.901421"/>
     <use style="fill:#55a868;stroke:#55a868;" x="351.06" xlink:href="#mef7c0c5c78" y="158.711426"/>
     <use style="fill:#55a868;stroke:#55a868;" x="273.446527" xlink:href="#mef7c0c5c78" y="126.170351"/>
     <use style="fill:#55a868;stroke:#55a868;" x="291.678906" xlink:href="#mef7c0c5c78" y="180.525858"/>
     <use style="fill:#55a868;stroke:#55a868;" x="304.260071" xlink:href="#mef7c0c5c78" y="180.302572"/>
     <use style="fill:#55a868;stroke:#55a868;" x="265.601504" xlink:href="#mef7c0c5c78" y="132.181658"/>
     <use style="fill:#55a868;stroke:#55a868;" x="257.953711" xlink:href="#mef7c0c5c78" y="146.017912"/>
     <use style="fill:#55a868;stroke:#55a868;" x="296.025684" xlink:href="#mef7c0c5c78" y="136.870776"/>
     <use style="fill:#55a868;stroke:#55a868;" x="299.761326" xlink:href="#mef7c0c5c78" y="164.113411"/>
     <use style="fill:#55a868;stroke:#55a868;" x="328.154398" xlink:href="#mef7c0c5c78" y="153.102048"/>
     <use style="fill:#55a868;stroke:#55a868;" x="321.653977" xlink:href="#mef7c0c5c78" y="239.121142"/>
     <use style="fill:#55a868;stroke:#55a868;" x="299.714476" xlink:href="#mef7c0c5c78" y="137.190997"/>
     <use style="fill:#55a868;stroke:#55a868;" x="262.57738" xlink:href="#mef7c0c5c78" y="133.034634"/>
     <use style="fill:#55a868;stroke:#55a868;" x="266.95936" xlink:href="#mef7c0c5c78" y="114.196049"/>
     <use style="fill:#55a868;stroke:#55a868;" x="346.154346" xlink:href="#mef7c0c5c78" y="174.81611"/>
     <use style="fill:#55a868;stroke:#55a868;" x="285.503344" xlink:href="#mef7c0c5c78" y="182.512195"/>
     <use style="fill:#55a868;stroke:#55a868;" x="274.094452" xlink:href="#mef7c0c5c78" y="159.030841"/>
     <use style="fill:#55a868;stroke:#55a868;" x="253.184756" xlink:href="#mef7c0c5c78" y="144.305447"/>
     <use style="fill:#55a868;stroke:#55a868;" x="299.185707" xlink:href="#mef7c0c5c78" y="168.250307"/>
     <use style="fill:#55a868;stroke:#55a868;" x="307.260771" xlink:href="#mef7c0c5c78" y="165.98839"/>
     <use style="fill:#55a868;stroke:#55a868;" x="301.653344" xlink:href="#mef7c0c5c78" y="168.738988"/>
     <use style="fill:#55a868;stroke:#55a868;" x="264.747091" xlink:href="#mef7c0c5c78" y="118.282358"/>
     <use style="fill:#55a868;stroke:#55a868;" x="308.538162" xlink:href="#mef7c0c5c78" y="175.20558"/>
     <use style="fill:#55a868;stroke:#55a868;" x="306.434075" xlink:href="#mef7c0c5c78" y="181.806742"/>
     <use style="fill:#55a868;stroke:#55a868;" x="300.101451" xlink:href="#mef7c0c5c78" y="157.742047"/>
     <use style="fill:#55a868;stroke:#55a868;" x="284.924106" xlink:href="#mef7c0c5c78" y="111.093615"/>
     <use style="fill:#55a868;stroke:#55a868;" x="282.770464" xlink:href="#mef7c0c5c78" y="153.457628"/>
     <use style="fill:#55a868;stroke:#55a868;" x="275.408948" xlink:href="#mef7c0c5c78" y="180.428921"/>
     <use style="fill:#55a868;stroke:#55a868;" x="254.962398" xlink:href="#mef7c0c5c78" y="142.795331"/>
    </g>
   </g>
   <g id="patch_3">
    <path d="M 54 252 
L 54 34.56 
" style="fill:none;stroke:#ffffff;stroke-linecap:square;stroke-linejoin:miter;stroke-width:1.25;"/>
   </g>
   <g id="patch_4">
    <path d="M 388.8 252 
L 388.8 34.56 
" style="fill:none;stroke:#ffffff;stroke-linecap:square;stroke-linejoin:miter;stroke-width:1.25;"/>
   </g>
   <g id="patch_5">
    <path d="M 54 252 
L 388.8 252 
" style="fill:none;stroke:#ffffff;stroke-linecap:square;stroke-linejoin:miter;stroke-width:1.25;"/>
   </g>
   <g id="patch_6">
    <path d="M 54 34.56 
L 388.8 34.56 
" style="fill:none;stroke:#ffffff;stroke-linecap:square;stroke-linejoin:miter;stroke-width:1.25;"/>
   </g>
   <g id="legend_1">
    <g id="patch_7">
     <path d="M 298.835469 90.168438 
L 381.1 90.168438 
Q 383.3 90.168438 383.3 87.968438 
L 383.3 42.26 
Q 383.3 40.06 381.1 40.06 
L 298.835469 40.06 
Q 296.635469 40.06 296.635469 42.26 
L 296.635469 87.968438 
Q 296.635469 90.168438 298.835469 90.168438 
z
" style="fill:#eaeaf2;opacity:0.8;stroke:#cccccc;stroke-linejoin:miter;"/>
    </g>
    <g id="PathCollection_4">
     <g>
      <use style="fill:#4c72b0;stroke:#4c72b0;" x="312.035469" xlink:href="#m92f91e7e85" y="49.446094"/>
     </g>
    </g>
    <g id="text_16">
     <!-- setosa -->
     <defs>
      <path d="M 3.078125 15.484375 
L 11.765625 16.84375 
Q 12.5 11.625 15.84375 8.84375 
Q 19.1875 6.0625 25.203125 6.0625 
Q 31.25 6.0625 34.171875 8.515625 
Q 37.109375 10.984375 37.109375 14.3125 
Q 37.109375 17.28125 34.515625 19 
Q 32.71875 20.171875 25.53125 21.96875 
Q 15.875 24.421875 12.140625 26.203125 
Q 8.40625 27.984375 6.46875 31.125 
Q 4.546875 34.28125 4.546875 38.09375 
Q 4.546875 41.546875 6.125 44.5 
Q 7.71875 47.46875 10.453125 49.421875 
Q 12.5 50.921875 16.03125 51.96875 
Q 19.578125 53.03125 23.640625 53.03125 
Q 29.734375 53.03125 34.34375 51.265625 
Q 38.96875 49.515625 41.15625 46.5 
Q 43.359375 43.5 44.1875 38.484375 
L 35.59375 37.3125 
Q 35.015625 41.3125 32.203125 43.546875 
Q 29.390625 45.796875 24.265625 45.796875 
Q 18.21875 45.796875 15.625 43.796875 
Q 13.03125 41.796875 13.03125 39.109375 
Q 13.03125 37.40625 14.109375 36.03125 
Q 15.1875 34.625 17.484375 33.6875 
Q 18.796875 33.203125 25.25 31.453125 
Q 34.578125 28.953125 38.25 27.359375 
Q 41.9375 25.78125 44.03125 22.75 
Q 46.140625 19.734375 46.140625 15.234375 
Q 46.140625 10.84375 43.578125 6.953125 
Q 41.015625 3.078125 36.171875 0.953125 
Q 31.34375 -1.171875 25.25 -1.171875 
Q 15.140625 -1.171875 9.84375 3.03125 
Q 4.546875 7.234375 3.078125 15.484375 
z
" id="ArialMT-115"/>
      <path d="M 42.09375 16.703125 
L 51.171875 15.578125 
Q 49.03125 7.625 43.21875 3.21875 
Q 37.40625 -1.171875 28.375 -1.171875 
Q 17 -1.171875 10.328125 5.828125 
Q 3.65625 12.84375 3.65625 25.484375 
Q 3.65625 38.578125 10.390625 45.796875 
Q 17.140625 53.03125 27.875 53.03125 
Q 38.28125 53.03125 44.875 45.953125 
Q 51.46875 38.875 51.46875 26.03125 
Q 51.46875 25.25 51.421875 23.6875 
L 12.75 23.6875 
Q 13.234375 15.140625 17.578125 10.59375 
Q 21.921875 6.0625 28.421875 6.0625 
Q 33.25 6.0625 36.671875 8.59375 
Q 40.09375 11.140625 42.09375 16.703125 
z
M 13.234375 30.90625 
L 42.1875 30.90625 
Q 41.609375 37.453125 38.875 40.71875 
Q 34.671875 45.796875 27.984375 45.796875 
Q 21.921875 45.796875 17.796875 41.75 
Q 13.671875 37.703125 13.234375 30.90625 
z
" id="ArialMT-101"/>
      <path d="M 25.78125 7.859375 
L 27.046875 0.09375 
Q 23.34375 -0.6875 20.40625 -0.6875 
Q 15.625 -0.6875 12.984375 0.828125 
Q 10.359375 2.34375 9.28125 4.8125 
Q 8.203125 7.28125 8.203125 15.1875 
L 8.203125 45.015625 
L 1.765625 45.015625 
L 1.765625 51.859375 
L 8.203125 51.859375 
L 8.203125 64.703125 
L 16.9375 69.96875 
L 16.9375 51.859375 
L 25.78125 51.859375 
L 25.78125 45.015625 
L 16.9375 45.015625 
L 16.9375 14.703125 
Q 16.9375 10.9375 17.40625 9.859375 
Q 17.875 8.796875 18.921875 8.15625 
Q 19.96875 7.515625 21.921875 7.515625 
Q 23.390625 7.515625 25.78125 7.859375 
z
" id="ArialMT-116"/>
      <path d="M 3.328125 25.921875 
Q 3.328125 40.328125 11.328125 47.265625 
Q 18.015625 53.03125 27.640625 53.03125 
Q 38.328125 53.03125 45.109375 46.015625 
Q 51.90625 39.015625 51.90625 26.65625 
Q 51.90625 16.65625 48.90625 10.90625 
Q 45.90625 5.171875 40.15625 2 
Q 34.421875 -1.171875 27.640625 -1.171875 
Q 16.75 -1.171875 10.03125 5.8125 
Q 3.328125 12.796875 3.328125 25.921875 
z
M 12.359375 25.921875 
Q 12.359375 15.96875 16.703125 11.015625 
Q 21.046875 6.0625 27.640625 6.0625 
Q 34.1875 6.0625 38.53125 11.03125 
Q 42.875 16.015625 42.875 26.21875 
Q 42.875 35.84375 38.5 40.796875 
Q 34.125 45.75 27.640625 45.75 
Q 21.046875 45.75 16.703125 40.8125 
Q 12.359375 35.890625 12.359375 25.921875 
z
" id="ArialMT-111"/>
      <path d="M 40.4375 6.390625 
Q 35.546875 2.25 31.03125 0.53125 
Q 26.515625 -1.171875 21.34375 -1.171875 
Q 12.796875 -1.171875 8.203125 3 
Q 3.609375 7.171875 3.609375 13.671875 
Q 3.609375 17.484375 5.34375 20.625 
Q 7.078125 23.78125 9.890625 25.6875 
Q 12.703125 27.59375 16.21875 28.5625 
Q 18.796875 29.25 24.03125 29.890625 
Q 34.671875 31.15625 39.703125 32.90625 
Q 39.75 34.71875 39.75 35.203125 
Q 39.75 40.578125 37.25 42.78125 
Q 33.890625 45.75 27.25 45.75 
Q 21.046875 45.75 18.09375 43.578125 
Q 15.140625 41.40625 13.71875 35.890625 
L 5.125 37.0625 
Q 6.296875 42.578125 8.984375 45.96875 
Q 11.671875 49.359375 16.75 51.1875 
Q 21.828125 53.03125 28.515625 53.03125 
Q 35.15625 53.03125 39.296875 51.46875 
Q 43.453125 49.90625 45.40625 47.53125 
Q 47.359375 45.171875 48.140625 41.546875 
Q 48.578125 39.3125 48.578125 33.453125 
L 48.578125 21.734375 
Q 48.578125 9.46875 49.140625 6.21875 
Q 49.703125 2.984375 51.375 0 
L 42.1875 0 
Q 40.828125 2.734375 40.4375 6.390625 
z
M 39.703125 26.03125 
Q 34.90625 24.078125 25.34375 22.703125 
Q 19.921875 21.921875 17.671875 20.9375 
Q 15.4375 19.96875 14.203125 18.09375 
Q 12.984375 16.21875 12.984375 13.921875 
Q 12.984375 10.40625 15.640625 8.0625 
Q 18.3125 5.71875 23.4375 5.71875 
Q 28.515625 5.71875 32.46875 7.9375 
Q 36.421875 10.15625 38.28125 14.015625 
Q 39.703125 17 39.703125 22.796875 
z
" id="ArialMT-97"/>
     </defs>
     <g style="fill:#262626;" transform="translate(331.835469 52.333594)scale(0.11 -0.11)">
      <use xlink:href="#ArialMT-115"/>
      <use x="50" xlink:href="#ArialMT-101"/>
      <use x="105.615234" xlink:href="#ArialMT-116"/>
      <use x="133.398438" xlink:href="#ArialMT-111"/>
      <use x="189.013672" xlink:href="#ArialMT-115"/>
      <use x="239.013672" xlink:href="#ArialMT-97"/>
     </g>
    </g>
    <g id="PathCollection_5">
     <g>
      <use style="fill:#dd8452;stroke:#dd8452;" x="312.035469" xlink:href="#m5c91719168" y="65.005938"/>
     </g>
    </g>
    <g id="text_17">
     <!-- versicolor -->
     <defs>
      <path d="M 21 0 
L 1.265625 51.859375 
L 10.546875 51.859375 
L 21.6875 20.796875 
Q 23.484375 15.765625 25 10.359375 
Q 26.171875 14.453125 28.265625 20.21875 
L 39.796875 51.859375 
L 48.828125 51.859375 
L 29.203125 0 
z
" id="ArialMT-118"/>
      <path d="M 6.5 0 
L 6.5 51.859375 
L 14.40625 51.859375 
L 14.40625 44 
Q 17.4375 49.515625 20 51.265625 
Q 22.5625 53.03125 25.640625 53.03125 
Q 30.078125 53.03125 34.671875 50.203125 
L 31.640625 42.046875 
Q 28.421875 43.953125 25.203125 43.953125 
Q 22.3125 43.953125 20.015625 42.21875 
Q 17.71875 40.484375 16.75 37.40625 
Q 15.28125 32.71875 15.28125 27.15625 
L 15.28125 0 
z
" id="ArialMT-114"/>
      <path d="M 6.640625 61.46875 
L 6.640625 71.578125 
L 15.4375 71.578125 
L 15.4375 61.46875 
z
M 6.640625 0 
L 6.640625 51.859375 
L 15.4375 51.859375 
L 15.4375 0 
z
" id="ArialMT-105"/>
      <path d="M 40.4375 19 
L 49.078125 17.875 
Q 47.65625 8.9375 41.8125 3.875 
Q 35.984375 -1.171875 27.484375 -1.171875 
Q 16.84375 -1.171875 10.375 5.78125 
Q 3.90625 12.75 3.90625 25.734375 
Q 3.90625 34.125 6.6875 40.421875 
Q 9.46875 46.734375 15.15625 49.875 
Q 20.84375 53.03125 27.546875 53.03125 
Q 35.984375 53.03125 41.359375 48.75 
Q 46.734375 44.484375 48.25 36.625 
L 39.703125 35.296875 
Q 38.484375 40.53125 35.375 43.15625 
Q 32.28125 45.796875 27.875 45.796875 
Q 21.234375 45.796875 17.078125 41.03125 
Q 12.9375 36.28125 12.9375 25.984375 
Q 12.9375 15.53125 16.9375 10.796875 
Q 20.953125 6.0625 27.390625 6.0625 
Q 32.5625 6.0625 36.03125 9.234375 
Q 39.5 12.40625 40.4375 19 
z
" id="ArialMT-99"/>
      <path d="M 6.390625 0 
L 6.390625 71.578125 
L 15.1875 71.578125 
L 15.1875 0 
z
" id="ArialMT-108"/>
     </defs>
     <g style="fill:#262626;" transform="translate(331.835469 67.893438)scale(0.11 -0.11)">
      <use xlink:href="#ArialMT-118"/>
      <use x="50" xlink:href="#ArialMT-101"/>
      <use x="105.615234" xlink:href="#ArialMT-114"/>
      <use x="138.916016" xlink:href="#ArialMT-115"/>
      <use x="188.916016" xlink:href="#ArialMT-105"/>
      <use x="211.132812" xlink:href="#ArialMT-99"/>
      <use x="261.132812" xlink:href="#ArialMT-111"/>
      <use x="316.748047" xlink:href="#ArialMT-108"/>
      <use x="338.964844" xlink:href="#ArialMT-111"/>
      <use x="394.580078" xlink:href="#ArialMT-114"/>
     </g>
    </g>
    <g id="PathCollection_6">
     <g>
      <use style="fill:#55a868;stroke:#55a868;" x="312.035469" xlink:href="#mef7c0c5c78" y="80.565781"/>
     </g>
    </g>
    <g id="text_18">
     <!-- virginica -->
     <defs>
      <path d="M 4.984375 -4.296875 
L 13.53125 -5.5625 
Q 14.0625 -9.515625 16.5 -11.328125 
Q 19.78125 -13.765625 25.4375 -13.765625 
Q 31.546875 -13.765625 34.859375 -11.328125 
Q 38.1875 -8.890625 39.359375 -4.5 
Q 40.046875 -1.8125 39.984375 6.78125 
Q 34.234375 0 25.640625 0 
Q 14.9375 0 9.078125 7.71875 
Q 3.21875 15.4375 3.21875 26.21875 
Q 3.21875 33.640625 5.90625 39.90625 
Q 8.59375 46.1875 13.6875 49.609375 
Q 18.796875 53.03125 25.6875 53.03125 
Q 34.859375 53.03125 40.828125 45.609375 
L 40.828125 51.859375 
L 48.921875 51.859375 
L 48.921875 7.03125 
Q 48.921875 -5.078125 46.453125 -10.125 
Q 44 -15.1875 38.640625 -18.109375 
Q 33.296875 -21.046875 25.484375 -21.046875 
Q 16.21875 -21.046875 10.5 -16.875 
Q 4.78125 -12.703125 4.984375 -4.296875 
z
M 12.25 26.859375 
Q 12.25 16.65625 16.296875 11.96875 
Q 20.359375 7.28125 26.46875 7.28125 
Q 32.515625 7.28125 36.609375 11.9375 
Q 40.71875 16.609375 40.71875 26.5625 
Q 40.71875 36.078125 36.5 40.90625 
Q 32.28125 45.75 26.3125 45.75 
Q 20.453125 45.75 16.34375 40.984375 
Q 12.25 36.234375 12.25 26.859375 
z
" id="ArialMT-103"/>
      <path d="M 6.59375 0 
L 6.59375 51.859375 
L 14.5 51.859375 
L 14.5 44.484375 
Q 20.21875 53.03125 31 53.03125 
Q 35.6875 53.03125 39.625 51.34375 
Q 43.5625 49.65625 45.515625 46.921875 
Q 47.46875 44.1875 48.25 40.4375 
Q 48.734375 37.984375 48.734375 31.890625 
L 48.734375 0 
L 39.9375 0 
L 39.9375 31.546875 
Q 39.9375 36.921875 38.90625 39.578125 
Q 37.890625 42.234375 35.28125 43.8125 
Q 32.671875 45.40625 29.15625 45.40625 
Q 23.53125 45.40625 19.453125 41.84375 
Q 15.375 38.28125 15.375 28.328125 
L 15.375 0 
z
" id="ArialMT-110"/>
     </defs>
     <g style="fill:#262626;" transform="translate(331.835469 83.453281)scale(0.11 -0.11)">
      <use xlink:href="#ArialMT-118"/>
      <use x="50" xlink:href="#ArialMT-105"/>
      <use x="72.216797" xlink:href="#ArialMT-114"/>
      <use x="105.517578" xlink:href="#ArialMT-103"/>
      <use x="161.132812" xlink:href="#ArialMT-105"/>
      <use x="183.349609" xlink:href="#ArialMT-110"/>
      <use x="238.964844" xlink:href="#ArialMT-105"/>
      <use x="261.181641" xlink:href="#ArialMT-99"/>
      <use x="311.181641" xlink:href="#ArialMT-97"/>
     </g>
    </g>
   </g>
  </g>
 </g>
 <defs>
  <clipPath id="p94d78adb62">
   <rect height="217.44" width="334.8" x="54" y="34.56"/>
  </clipPath>
 </defs>
</svg>
