<svg width="1309" height="754" xmlns="http://www.w3.org/2000/svg" xmlns:xlink="http://www.w3.org/1999/xlink" overflow="hidden"><defs><clipPath id="clip0"><path d="M-12 17 1297 17 1297 771-12 771Z" fill-rule="evenodd" clip-rule="evenodd"/></clipPath></defs><g clip-path="url(#clip0)" transform="translate(12 -17)"><path d="M2-3.52606e-07 2.0001 591.532-1.9999 591.532-2 3.52606e-07ZM8.72766 580.539 0.0001047 595.5-8.72746 580.539C-9.28402 579.585-8.96174 578.36-8.00764 577.804-7.05354 577.247-5.8289 577.569-5.27234 578.523L1.72766 590.523-1.72745 590.523 5.27254 578.523C5.8291 577.569 7.05374 577.247 8.00784 577.804 8.96195 578.36 9.28422 579.585 8.72766 580.539Z" fill="#5B9BD5" transform="matrix(1 0 0 -1 179 682.491)"/><path d="M1.80541e-07-2 1159.06-1.9999 1159.06 2.0001-1.80541e-07 2ZM1148.08-8.72745 1163.04 0.00010504 1148.08 8.72766C1147.12 9.28422 1145.9 8.96195 1145.34 8.00784 1144.78 7.05374 1145.11 5.82911 1146.06 5.27254L1158.06-1.72745 1158.06 1.72766 1146.06-5.27234C1145.11-5.8289 1144.78-7.05353 1145.34-8.00764 1145.9-8.96174 1147.12-9.28401 1148.08-8.72745Z" fill="#5B9BD5" transform="matrix(1 0 0 -1 94 621)"/><text font-family="CMU Classical Serif,CMU Classical Serif_MSFontService,sans-serif" font-style="italic" font-weight="500" font-size="53" transform="translate(45.9166 193)">f<tspan x="16.3333" y="0">(</tspan>x<tspan font-size="36" x="62.8333" y="12">k</tspan><tspan x="79.1667" y="0">)</tspan><tspan font-family="Cambria Math,Cambria Math_MSFontService,sans-serif" font-style="normal" font-weight="400" font-size="32" x="366.693" y="491">𝜙</tspan><tspan font-family="Cambria Math,Cambria Math_MSFontService,sans-serif" font-style="normal" font-weight="400" font-size="23" x="387.786" y="498">1</tspan><tspan font-family="Cambria Math,Cambria Math_MSFontService,sans-serif" font-style="normal" font-weight="400" font-size="32" x="402.613" y="491">(</tspan><tspan font-size="32" x="415.947" y="491">η</tspan><tspan font-family="Cambria Math,Cambria Math_MSFontService,sans-serif" font-style="normal" font-weight="400" font-size="32" x="433.78" y="491">)</tspan></text><path d="M180 179.975C216.091 280.291 252.181 380.608 295.776 444.724 339.37 508.841 382.536 537.543 441.567 564.675 500.599 591.807 585.787 611.37 649.964 607.515 714.141 603.659 779.032 573.672 826.629 541.542 874.226 509.412 908.815 484.993 935.544 414.737 962.273 344.48 974.636 232.24 987 120" stroke="#ED7D31" stroke-width="6" stroke-miterlimit="8" fill="none" fill-rule="evenodd"/><path d="M162.5 184C162.5 175.44 169.663 168.5 178.5 168.5 187.337 168.5 194.5 175.44 194.5 184 194.5 192.56 187.337 199.5 178.5 199.5 169.663 199.5 162.5 192.56 162.5 184Z" stroke="#41719C" stroke-miterlimit="8" fill="#FF0000" fill-rule="evenodd"/><path d="M1145.5 247C1145.5 238.44 1152.44 231.5 1161 231.5 1169.56 231.5 1176.5 238.44 1176.5 247 1176.5 255.56 1169.56 262.5 1161 262.5 1152.44 262.5 1145.5 255.56 1145.5 247Z" stroke="#41719C" stroke-miterlimit="8" fill="#FF0000" fill-rule="evenodd"/><rect x="591" y="610" width="92" height="106" fill="#FFFFFF" fill-opacity="0.278431"/><text font-family="CMU Classical Serif,CMU Classical Serif_MSFontService,sans-serif" font-style="italic" font-weight="500" font-size="80" transform="translate(600.577 682)">η<tspan font-size="53" x="44.5" y="19">*</tspan><tspan font-family="Cambria Math,Cambria Math_MSFontService,sans-serif" font-style="normal" font-weight="400" font-size="32" x="418.863" y="-315">𝜙</tspan><tspan font-family="Cambria Math,Cambria Math_MSFontService,sans-serif" font-style="normal" font-weight="400" font-size="23" x="440.696" y="-308">2</tspan><tspan font-family="Cambria Math,Cambria Math_MSFontService,sans-serif" font-style="normal" font-weight="400" font-size="32" x="455.523" y="-315">(</tspan><tspan font-size="32" x="468.856" y="-315">η</tspan><tspan font-family="Cambria Math,Cambria Math_MSFontService,sans-serif" font-style="normal" font-weight="400" font-size="32" x="486.69" y="-315">)</tspan></text><path d="M178 179 1057.2 405.286" stroke="#5B9BD5" stroke-width="6" stroke-miterlimit="8" fill="none" fill-rule="evenodd"/><path d="M180 184 525.096 683.096" stroke="#5B9BD5" stroke-width="6" stroke-miterlimit="8" fill="none" fill-rule="evenodd"/><rect x="1194" y="606" width="64" height="107" fill="#FFFFFF" fill-opacity="0.278431"/><text font-family="CMU Classical Serif,CMU Classical Serif_MSFontService,sans-serif" font-style="italic" font-weight="500" font-size="80" transform="translate(1203.19 679)">η<tspan font-family="Cambria Math,Cambria Math_MSFontService,sans-serif" font-style="normal" font-weight="400" font-size="32" x="-196.247" y="-542">𝜙</tspan></text><path d="M1061.59 112.891C1064.63 113.693 1066.96 115.425 1068.59 118.087 1070.23 120.748 1071.04 123.959 1071.04 127.719 1071.04 131.49 1070.23 134.701 1068.6 137.352 1066.98 140.003 1064.64 141.73 1061.59 142.532L1061.21 141.329C1063.62 140.527 1065.41 138.943 1066.58 136.579 1067.75 134.214 1068.34 131.209 1068.34 127.563 1068.34 124.042 1067.75 121.118 1066.59 118.79 1065.42 116.462 1063.61 114.897 1061.17 114.094ZM1041.72 112.891 1042.15 114.094C1039.71 114.897 1037.9 116.462 1036.73 118.79 1035.56 121.118 1034.97 124.042 1034.97 127.563 1034.97 131.209 1035.56 134.214 1036.73 136.579 1037.9 138.943 1039.69 140.527 1042.1 141.329L1041.72 142.532C1038.67 141.73 1036.33 140.003 1034.71 137.352 1033.08 134.701 1032.27 131.49 1032.27 127.719 1032.27 123.959 1033.09 120.748 1034.72 118.087 1036.35 115.425 1038.68 113.693 1041.72 112.891Z" fill-rule="evenodd"/><text font-family="CMU Classical Serif,CMU Classical Serif_MSFontService,sans-serif" font-style="italic" font-weight="500" font-size="32" transform="translate(1042.74 137)">η</text><path d="M27.5847 63.5693C22.9753 63.8036 18.9845 65.7958 15.6121 69.5458 12.2397 73.2958 10.5535 77.9182 10.5535 83.413 10.5535 86.7984 11.4519 89.637 13.2488 91.9286 15.0457 94.2203 17.4545 95.5094 20.4754 95.7958ZM33.7566 63.4911 26.6472 95.7568C29.8243 95.6266 32.7149 94.676 35.3191 92.9052 37.9233 91.1344 39.9675 88.7385 41.4519 85.7177 42.9363 82.6969 43.6785 79.4156 43.6785 75.874 43.6785 73.7906 43.3139 71.8505 42.5847 70.0536 41.8556 68.2568 40.7293 66.7659 39.2058 65.581 37.6824 64.3961 35.866 63.6995 33.7566 63.4911ZM31.9597 43.6083 38.1316 43.6083 34.4597 60.3661C39.7201 60.7568 43.724 62.2932 46.4714 64.9755 49.2188 67.6578 50.5925 71.2906 50.5925 75.874 50.5925 79.3375 49.9806 82.482 48.7566 85.3076 47.5326 88.1331 45.7358 90.607 43.366 92.7294 40.9962 94.8518 38.4636 96.4143 35.7683 97.4169 33.073 98.4195 29.7852 98.9208 25.905 98.9208L22.3503 115.171 16.1785 115.171 19.7332 98.9208C14.5769 98.5302 10.6121 96.9872 7.83863 94.2919 5.06519 91.5966 3.67847 87.9443 3.67847 83.3349 3.67847 79.4026 4.70061 75.6852 6.74488 72.1826 8.78915 68.68 11.6277 65.8544 15.2605 63.706 18.8933 61.5576 23.2488 60.4443 28.3269 60.3661Z" fill-rule="evenodd"/><text fill="#000000" fill-opacity="0" font-family="Arial,Arial_MSFontService,sans-serif" font-size="71.5625" x="3.67847" y="106.226">𝜙</text><path d="M136.437 38.4753C144.041 40.4805 149.881 44.81 153.957 51.4636 158.032 58.1172 160.07 66.1446 160.07 75.5456 160.07 84.9727 158.039 93.0001 153.976 99.6277 149.914 106.255 144.067 110.572 136.437 112.577L135.5 109.569C141.515 107.564 145.988 103.606 148.917 97.6941 151.847 91.7826 153.312 84.2696 153.312 75.155 153.312 66.3529 151.854 59.0417 148.937 53.2214 146.02 47.4011 141.502 43.4883 135.382 41.4831ZM86.862 38.4753 87.9167 41.4831C81.823 43.4883 77.3112 47.4011 74.3815 53.2214 71.4519 59.0417 69.987 66.3529 69.987 75.155 69.987 84.2696 71.4519 91.7826 74.3815 97.6941 77.3112 103.606 81.7839 107.564 87.7995 109.569L86.862 112.577C79.2318 110.572 73.3855 106.255 69.323 99.6277 65.2605 93.0001 63.2292 84.9727 63.2292 75.5456 63.2292 66.1446 65.267 58.1172 69.3425 51.4636 73.418 44.81 79.2579 40.4805 86.862 38.4753Z" fill-rule="evenodd"/><path d="M126.66 63.0224C129.422 63.0224 131.564 63.9534 133.088 65.8154 134.612 67.6774 135.375 70.0536 135.375 72.9443 135.375 74.4807 134.983 76.7984 134.199 79.8974L124.562 118.374 118.555 118.374C118.659 117.905 118.835 117.215 119.082 116.304 119.329 115.392 119.504 114.702 119.608 114.233L128.305 79.1552C128.825 76.8635 129.098 75.4052 129.125 74.7802 129.125 72.5927 128.39 70.8024 126.921 69.4091 125.451 68.0159 123.598 67.3193 121.361 67.3193 119.281 67.3193 117.233 67.818 115.217 68.8156 113.202 69.8131 111.791 70.7448 110.985 71.6107 110.673 71.926 110.322 72.8185 109.931 74.2883L103.89 98.374 97.6401 98.374 103.46 74.8583C104.267 71.9677 104.67 70.4964 104.67 70.4443 104.67 69.637 104.436 68.9143 103.968 68.2763 103.5 67.6383 102.824 67.3193 101.942 67.3193 101.212 67.3193 100.305 67.6448 99.2228 68.2958 99.2228 68.1917 99.2634 68.0289 99.3446 67.8076 99.4257 67.5862 99.4663 67.4365 99.4663 67.3583 99.4663 67.2802 99.4934 67.15 99.5475 66.9677 99.6016 66.7854 99.6557 66.6682 99.7098 66.6161 99.764 66.5641 99.8316 66.4599 99.9128 66.3036 99.994 66.1474 100.095 66.0107 100.217 65.8935 100.339 65.7763 100.467 65.6526 100.602 65.5224 100.738 65.3922 100.9 65.275 101.09 65.1708 101.279 65.0667 101.482 64.9365 101.698 64.7802 103.495 63.6604 105.318 63.1005 107.167 63.1005 109.715 63.1005 110.989 64.7802 110.989 68.1396L110.989 69.0771C116.017 65.0146 121.241 62.9964 126.66 63.0224Z" fill-rule="evenodd"/><text fill="#000000" fill-opacity="0" font-family="Arial,Arial_MSFontService,sans-serif" font-size="55.3518" x="97.6401" y="111.455">η</text><rect x="100" y="621" width="61" height="107" fill="#FFFFFF" fill-opacity="0.278431"/><text font-family="CMU Classical Serif,CMU Classical Serif_MSFontService,sans-serif" font-style="italic" font-weight="500" font-size="80" transform="translate(109.668 694)">0</text></g></svg>