<?xml version="1.0" encoding="UTF-8" standalone="no"?>
<svg
   xmlns:dc="http://purl.org/dc/elements/1.1/"
   xmlns:cc="http://creativecommons.org/ns#"
   xmlns:rdf="http://www.w3.org/1999/02/22-rdf-syntax-ns#"
   xmlns:svg="http://www.w3.org/2000/svg"
   xmlns="http://www.w3.org/2000/svg"
   viewBox="0 0 582.71997 248"
   height="248"
   width="582.71997"
   xml:space="preserve"
   id="svg2"
   version="1.1"><metadata
     id="metadata8"><rdf:RDF><cc:Work
         rdf:about=""><dc:format>image/svg+xml</dc:format><dc:type
           rdf:resource="http://purl.org/dc/dcmitype/StillImage" /></cc:Work></rdf:RDF></metadata><defs
     id="defs6"><clipPath
       id="clipPath18"
       clipPathUnits="userSpaceOnUse"><path
         style="clip-rule:evenodd"
         id="path16"
         d="M 0,0 H 1820.8333 V 773.92914 H 0 Z" /></clipPath><clipPath
       id="clipPath30"
       clipPathUnits="userSpaceOnUse"><path
         style="clip-rule:evenodd"
         id="path28"
         d="M 0,0 H 1820.8333 V 767.92969 H 0 Z" /></clipPath></defs><g
     transform="matrix(0.31999998,0,0,0.31999998,0,6.2e-6)"
     id="g10"><g
       id="g12"><g
         clip-path="url(#clipPath18)"
         id="g14"><g
           transform="scale(2.9997253)"
           id="g20"><path
             id="path22"
             style="fill:#ffffff;fill-opacity:1;fill-rule:nonzero;stroke:none"
             d="M 0,0 H 607 V 258 H 0 Z" /></g></g></g><g
       id="g24"><g
         clip-path="url(#clipPath30)"
         id="g26"><g
           transform="scale(2.9997253)"
           id="g32"><path
             id="path34"
             style="fill:none;stroke:#000000;stroke-width:1;stroke-linecap:butt;stroke-linejoin:miter;stroke-miterlimit:10;stroke-dasharray:none;stroke-opacity:1"
             d="M 1,45 C 11,165.66667 47,220.83333 109,210.5 171,200.16667 225.33333,145 272,45" /><path
             id="path36"
             style="fill:none;stroke:#000000;stroke-width:1;stroke-linecap:butt;stroke-linejoin:miter;stroke-miterlimit:10;stroke-dasharray:none;stroke-opacity:1"
             d="M 341,45 461,205 561,45" /></g><g
           transform="matrix(0.08361354,0,0,-0.08399231,315.03101,173.98407)"
           id="g38"><path
             id="path40"
             style="fill:#000000;fill-opacity:1;fill-rule:nonzero;stroke:none"
             d="m 118,-162 c 1.33334,0 3.33334,-0.66667 6,-2 2.66666,-1.33333 6.33333,-2.33333 11,-3 4.66667,-0.66667 8.66667,-1 12,-1 8.66667,0 16.66667,4.33333 24,13 7.33333,8.66667 12.66667,18.33333 16,29 6.66667,18 18,69 34,153 16,84 31.33333,164 46,240 14.66666,76 22,114.33334 22,115 v 3 h -47 c -31.33333,0 -48,0.66666 -50,2 -2.66667,2 -4,5.33334 -4,10 l 7,28 c 1.33333,3.33334 4,5 8,5 4,0 19.66667,0.33334 47,1 32,0 48,0.33334 48,1 0,1.33334 3,18 9,50 6,32 10,51.33331 12,58 24.66666,110 73.33331,165 146,165 24.66666,-1.33331 45,-8.66669 61,-22 16,-13.33331 24,-31 24,-53 0,-24 -7,-41.33331 -21,-52 -14,-10.66669 -28,-16.33331 -42,-17 -29.33334,0 -44,14 -44,42 0,12.66669 3.66666,23.66669 11,33 7.33334,9.33331 15.33334,16.33331 24,21 l 9,5 c -10.66666,4 -20.66666,6 -30,6 -8,0 -15.66666,-3.33331 -23,-10 -7.33334,-6.66669 -12.33334,-16 -15,-28 -4.66666,-19.33331 -10,-45.33331 -16,-78 -6,-32.66669 -11.33334,-60.33334 -16,-83 -4.66666,-22.66666 -7,-34.66666 -7,-36 0,-1.33334 18.33334,-2 55,-2 30,0 47.33334,-0.33334 52,-1 4.66666,-0.66666 8.33334,-2.66666 11,-6 0.66666,-2.66666 0,-8.33334 -2,-17 -2,-8.66666 -3.66666,-14 -5,-16 -1.33334,-3.33334 -4.33334,-5 -9,-5 -4.66666,0 -22.66666,-0.33334 -54,-1 H 372 L 349,263 C 317,97.666656 294.66666,-5.6666641 282,-47 c -18,-56.66667 -41.33333,-98.66667 -70,-126 -24.66667,-21.33333 -49,-32 -73,-32 -21.33334,0 -40.666664,6.33333 -58,19 -17.333336,12.66667 -26,30.66667 -26,54 0,24.66667 7,42.666664 21,54 14,11.333336 28,17 42,17 29.33333,0 44,-14 44,-42 0,-12.66666 -3.66667,-23.66666 -11,-33 -7.33333,-9.33333 -15.33333,-16.33333 -24,-21 z" /><path
             id="path42"
             style="fill:none;stroke:#000000;stroke-width:1;stroke-linecap:butt;stroke-linejoin:miter;stroke-miterlimit:10;stroke-dasharray:none;stroke-opacity:0.25139998"
             d="m 118,-162 c 1.33334,0 3.33334,-0.66667 6,-2 2.66666,-1.33333 6.33333,-2.33333 11,-3 4.66667,-0.66667 8.66667,-1 12,-1 8.66667,0 16.66667,4.33333 24,13 7.33333,8.66667 12.66667,18.33333 16,29 6.66667,18 18,69 34,153 16,84 31.33333,164 46,240 14.66666,76 22,114.33334 22,115 v 3 h -47 c -31.33333,0 -48,0.66666 -50,2 -2.66667,2 -4,5.33334 -4,10 l 7,28 c 1.33333,3.33334 4,5 8,5 4,0 19.66667,0.33334 47,1 32,0 48,0.33334 48,1 0,1.33334 3,18 9,50 6,32 10,51.33331 12,58 24.66666,110 73.33331,165 146,165 24.66666,-1.33331 45,-8.66669 61,-22 16,-13.33331 24,-31 24,-53 0,-24 -7,-41.33331 -21,-52 -14,-10.66669 -28,-16.33331 -42,-17 -29.33334,0 -44,14 -44,42 0,12.66669 3.66666,23.66669 11,33 7.33334,9.33331 15.33334,16.33331 24,21 l 9,5 c -10.66666,4 -20.66666,6 -30,6 -8,0 -15.66666,-3.33331 -23,-10 -7.33334,-6.66669 -12.33334,-16 -15,-28 -4.66666,-19.33331 -10,-45.33331 -16,-78 -6,-32.66669 -11.33334,-60.33334 -16,-83 -4.66666,-22.66666 -7,-34.66666 -7,-36 0,-1.33334 18.33334,-2 55,-2 30,0 47.33334,-0.33334 52,-1 4.66666,-0.66666 8.33334,-2.66666 11,-6 0.66666,-2.66666 0,-8.33334 -2,-17 -2,-8.66666 -3.66666,-14 -5,-16 -1.33334,-3.33334 -4.33334,-5 -9,-5 -4.66666,0 -22.66666,-0.33334 -54,-1 H 372 L 349,263 C 317,97.666656 294.66666,-5.6666641 282,-47 c -18,-56.66667 -41.33333,-98.66667 -70,-126 -24.66667,-21.33333 -49,-32 -73,-32 -21.33334,0 -40.666664,6.33333 -58,19 -17.333336,12.66667 -26,30.66667 -26,54 0,24.66667 7,42.666664 21,54 14,11.333336 28,17 42,17 29.33333,0 44,-14 44,-42 0,-12.66666 -3.66667,-23.66666 -11,-33 -7.33333,-9.33333 -15.33333,-16.33333 -24,-21 z" /></g><g
           transform="matrix(0.08361354,0,0,-0.08399231,361.01846,173.98407)"
           id="g44"><path
             id="path46"
             style="fill:#000000;fill-opacity:1;fill-rule:nonzero;stroke:none"
             d="m 94,250 c 0,46 3.333336,89.66666 10,131 6.66666,41.33334 14.33334,77 23,107 8.66667,30 21,59.33331 37,88 16,28.66669 28.66667,51 38,67 9.33333,16 23.33333,33.33331 42,52 18.66666,18.66669 29.66666,30 33,34 3.33334,4 11.66666,11 25,21 h 13 4 c 9.33334,0 14,-3 14,-9 0,-2 -5.66666,-9 -17,-21 -11.33334,-12 -25,-29.66669 -41,-53 -16,-23.33331 -32.33333,-52 -49,-86 -16.66667,-34 -30.66667,-80 -42,-138 -11.33333,-58 -17,-122.33331 -17,-193 0,-70.66667 5.66667,-134.66666 17,-192 11.33333,-57.33333588 25,-103.666664 41,-139 16,-35.33334 32.33334,-64 49,-86 16.66666,-22 30.66666,-39.66667 42,-53 11.33334,-13.33333 17,-20.33333 17,-21 0,-6 -5,-9 -15,-9 h -3 -13 l -28,24 C 211.33333,-169.33333 165.66667,-98.666672 137,-14 108.33333,70.666672 94,158.66666 94,250 Z" /><path
             id="path48"
             style="fill:none;stroke:#000000;stroke-width:1;stroke-linecap:butt;stroke-linejoin:miter;stroke-miterlimit:10;stroke-dasharray:none;stroke-opacity:0.25139998"
             d="m 94,250 c 0,46 3.333336,89.66666 10,131 6.66666,41.33334 14.33334,77 23,107 8.66667,30 21,59.33331 37,88 16,28.66669 28.66667,51 38,67 9.33333,16 23.33333,33.33331 42,52 18.66666,18.66669 29.66666,30 33,34 3.33334,4 11.66666,11 25,21 h 13 4 c 9.33334,0 14,-3 14,-9 0,-2 -5.66666,-9 -17,-21 -11.33334,-12 -25,-29.66669 -41,-53 -16,-23.33331 -32.33333,-52 -49,-86 -16.66667,-34 -30.66667,-80 -42,-138 -11.33333,-58 -17,-122.33331 -17,-193 0,-70.66667 5.66667,-134.66666 17,-192 11.33333,-57.33333588 25,-103.666664 41,-139 16,-35.33334 32.33334,-64 49,-86 16.66666,-22 30.66666,-39.66667 42,-53 11.33334,-13.33333 17,-20.33333 17,-21 0,-6 -5,-9 -15,-9 h -3 -13 l -28,24 C 211.33333,-169.33333 165.66667,-98.666672 137,-14 108.33333,70.666672 94,158.66666 94,250 Z" /></g><g
           transform="matrix(0.08361354,0,0,-0.08399231,393.54413,173.98407)"
           id="g50"><path
             id="path52"
             style="fill:#000000;fill-opacity:1;fill-rule:nonzero;stroke:none"
             d="m 52,289 c 4.666668,28 22.666664,60.33334 54,97 31.33333,36.66666 70,55.33334 116,56 23.33333,0 44.66666,-6 64,-18 19.33334,-12 33.66666,-27 43,-45 28,42 61.66666,63 101,63 24.66666,0 46,-7.33334 64,-22 18,-14.66666 27.33331,-34.33334 28,-59 0,-19.33334 -4.66669,-35 -14,-47 -9.33334,-12 -18.33334,-19.33334 -27,-22 -8.66666,-2.66666 -16.33334,-4 -23,-4 -12.66666,0 -23,3.66666 -31,11 -8,7.33334 -12,17 -12,29 0,30.66666 16.66666,51.66666 50,63 -7.33334,8.66666 -20.66666,13 -40,13 -8.66666,0 -15,-0.66666 -19,-2 -25.33334,-10.66666 -44,-32.66666 -56,-66 -40,-147.33334 -60,-233.33333 -60,-258 0,-18.666668 5.33334,-32 16,-40 10.66666,-8 22.33334,-12 35,-12 24.66666,0 49,11 73,33 24,22 40.33334,49 49,81 2,6.66667 4,10.33333 6,11 2,0.66667 7.33334,1.33333 16,2 h 4 c 10,0 15,-2.66667 15,-8 0,-0.66667 -0.66666,-4.33333 -2,-11 C 491.33334,96 470.66666,62.333336 440,33 409.33334,3.666666 373.66666,-11 333,-11 286.33334,-11 251,10 227,52 199.66667,10.666664 168.33334,-10 133,-10 h -6 C 94.333328,-10 71,-1.333334 57,16 43,33.333336 35.666668,51.666664 35,71 c 0,21.333336 6.333332,38.66666 19,52 12.666664,13.33333 27.666664,20 45,20 28.66667,0 43,-14 43,-42 C 142,87.666664 138,76 130,66 122,56 114.33334,49.333332 107,46 99.666664,42.666668 95.333336,41 94,41 l -3,-1 c 0,-0.666668 2,-2 6,-4 4,-2 9.33334,-4.333334 16,-7 6.66666,-2.666666 13,-3.666666 19,-3 24,0 44.66667,15 62,45 6,10.666664 13.66667,33.33333 23,68 9.33333,34.66667 18.66667,70.66666 28,108 9.33333,37.33334 14.66666,59.33334 16,66 3.33334,18 5,31 5,39 0,18.66666 -5,32 -15,40 -10,8 -21.33333,12 -34,12 -26.66667,0 -51.66667,-10.66666 -75,-32 -23.33334,-21.33334 -39.66666,-48.66666 -49,-82 -1.333336,-6 -3,-9.33334 -5,-10 -2,-0.66666 -7.333336,-1.33334 -16,-2 H 58 c -4,4 -6,7.66666 -6,11 z" /><path
             id="path54"
             style="fill:none;stroke:#000000;stroke-width:1;stroke-linecap:butt;stroke-linejoin:miter;stroke-miterlimit:10;stroke-dasharray:none;stroke-opacity:0.25139998"
             d="m 52,289 c 4.666668,28 22.666664,60.33334 54,97 31.33333,36.66666 70,55.33334 116,56 23.33333,0 44.66666,-6 64,-18 19.33334,-12 33.66666,-27 43,-45 28,42 61.66666,63 101,63 24.66666,0 46,-7.33334 64,-22 18,-14.66666 27.33331,-34.33334 28,-59 0,-19.33334 -4.66669,-35 -14,-47 -9.33334,-12 -18.33334,-19.33334 -27,-22 -8.66666,-2.66666 -16.33334,-4 -23,-4 -12.66666,0 -23,3.66666 -31,11 -8,7.33334 -12,17 -12,29 0,30.66666 16.66666,51.66666 50,63 -7.33334,8.66666 -20.66666,13 -40,13 -8.66666,0 -15,-0.66666 -19,-2 -25.33334,-10.66666 -44,-32.66666 -56,-66 -40,-147.33334 -60,-233.33333 -60,-258 0,-18.666668 5.33334,-32 16,-40 10.66666,-8 22.33334,-12 35,-12 24.66666,0 49,11 73,33 24,22 40.33334,49 49,81 2,6.66667 4,10.33333 6,11 2,0.66667 7.33334,1.33333 16,2 h 4 c 10,0 15,-2.66667 15,-8 0,-0.66667 -0.66666,-4.33333 -2,-11 C 491.33334,96 470.66666,62.333336 440,33 409.33334,3.666666 373.66666,-11 333,-11 286.33334,-11 251,10 227,52 199.66667,10.666664 168.33334,-10 133,-10 h -6 C 94.333328,-10 71,-1.333334 57,16 43,33.333336 35.666668,51.666664 35,71 c 0,21.333336 6.333332,38.66666 19,52 12.666664,13.33333 27.666664,20 45,20 28.66667,0 43,-14 43,-42 C 142,87.666664 138,76 130,66 122,56 114.33334,49.333332 107,46 99.666664,42.666668 95.333336,41 94,41 l -3,-1 c 0,-0.666668 2,-2 6,-4 4,-2 9.33334,-4.333334 16,-7 6.66666,-2.666666 13,-3.666666 19,-3 24,0 44.66667,15 62,45 6,10.666664 13.66667,33.33333 23,68 9.33333,34.66667 18.66667,70.66666 28,108 9.33333,37.33334 14.66666,59.33334 16,66 3.33334,18 5,31 5,39 0,18.66666 -5,32 -15,40 -10,8 -21.33333,12 -34,12 -26.66667,0 -51.66667,-10.66666 -75,-32 -23.33334,-21.33334 -39.66666,-48.66666 -49,-82 -1.333336,-6 -3,-9.33334 -5,-10 -2,-0.66666 -7.333336,-1.33334 -16,-2 H 58 c -4,4 -6,7.66666 -6,11 z" /></g><g
           transform="matrix(0.08361354,0,0,-0.08399231,441.37106,173.98407)"
           id="g56"><path
             id="path58"
             style="fill:#000000;fill-opacity:1;fill-rule:nonzero;stroke:none"
             d="m 60,749 4,1 c 3.333336,0 6.666664,0 10,0 h 12 l 28,-24 c 62.66667,-56.66669 108.33333,-127.33331 137,-212 28.66666,-84.66669 43,-172.66666 43,-264 0,-45.33334 -3.33334,-89 -10,-131 -6.66666,-42 -14.33334,-77.666664 -23,-107 -8.66667,-29.333334 -21,-58.666664 -37,-88 -16,-29.33334 -28.66667,-51.66666 -38,-67 -9.33333,-15.33333 -23,-32.33333 -41,-51 -18,-18.66667 -28.66666,-29.66667 -32,-33 -3.33334,-3.33333 -11,-9.66667 -23,-19 -2,-2 -3.333336,-3.33333 -4,-4 H 74 c -5.333336,0 -9,0 -11,0 -2,0 -3.666668,1 -5,3 -1.333332,2 -2.333332,5 -3,9 0.666668,0.66667 4.333332,5 11,13 103.33334,107.33334 155,265.666656 155,475 0,209.33334 -51.66666,367.66669 -155,475 -6.666668,8 -10.333332,12.33331 -11,13 0,5.33331 1.666668,9 5,11 z" /><path
             id="path60"
             style="fill:none;stroke:#000000;stroke-width:1;stroke-linecap:butt;stroke-linejoin:miter;stroke-miterlimit:10;stroke-dasharray:none;stroke-opacity:0.25139998"
             d="m 60,749 4,1 c 3.333336,0 6.666664,0 10,0 h 12 l 28,-24 c 62.66667,-56.66669 108.33333,-127.33331 137,-212 28.66666,-84.66669 43,-172.66666 43,-264 0,-45.33334 -3.33334,-89 -10,-131 -6.66666,-42 -14.33334,-77.666664 -23,-107 -8.66667,-29.333334 -21,-58.666664 -37,-88 -16,-29.33334 -28.66667,-51.66666 -38,-67 -9.33333,-15.33333 -23,-32.33333 -41,-51 -18,-18.66667 -28.66666,-29.66667 -32,-33 -3.33334,-3.33333 -11,-9.66667 -23,-19 -2,-2 -3.333336,-3.33333 -4,-4 H 74 c -5.333336,0 -9,0 -11,0 -2,0 -3.666668,1 -5,3 -1.333332,2 -2.333332,5 -3,9 0.666668,0.66667 4.333332,5 11,13 103.33334,107.33334 155,265.666656 155,475 0,209.33334 -51.66666,367.66669 -155,475 -6.666668,8 -10.333332,12.33331 -11,13 0,5.33331 1.666668,9 5,11 z" /></g><g
           transform="matrix(0.08488315,0,0,-0.08399231,1337.9332,173.98407)"
           id="g62"><path
             id="path64"
             style="fill:#000000;fill-opacity:1;fill-rule:nonzero;stroke:none"
             d="m 21,287 c 0.666666,2 1.333334,4.66666 2,8 0.666666,3.33334 2.333334,10.66666 5,22 2.666666,11.33334 6,21.66666 10,31 4,9.33334 9,20.33334 15,33 6,12.66666 12.666664,22.66666 20,30 7.333336,7.33334 16,14.66666 26,22 10,7.33334 21,10.33334 33,9 19.33333,0 36.33333,-4 51,-12 14.66667,-8 25,-15.33334 31,-22 6,-6.66666 9.66667,-13.33334 11,-20 1.33333,-4 2.33333,-6 3,-6 0.66667,0 3.33333,2.33334 8,7 32,34.66666 69,52 111,52 h 3 c 32,0 56,-13.66666 72,-41 5.33334,-12.66666 8,-25 8,-37 0,-20 -4.33334,-36 -13,-48 -8.66666,-12 -17.33334,-19.66666 -26,-23 -8.66666,-3.33334 -17,-4.66666 -25,-4 -13.33334,0 -24,3.66666 -32,11 -8,7.33334 -12,17 -12,29 0,32 18.66666,53.33334 56,64 -14.66666,8.66666 -26.66666,13 -36,13 -37.33334,0 -71.66666,-24.66666 -103,-74 -6.66667,-10.66666 -11.66667,-21.66666 -15,-33 C 220.66667,286.66666 209.33333,242.33334 190,165 167.33333,71.666664 154.33333,22 151,16 c -8.66667,-18 -23,-27 -43,-27 -8.666664,0 -15.666664,2 -21,6 -5.333336,4 -9,8 -11,12 -2,4 -2.666664,7.333333 -2,10 0,8.666668 13.333328,66 40,172 26.66667,106 40,165 40,177 0,26 -8.66667,39 -26,39 -14,0 -26,-9.33334 -36,-28 C 82,358.33334 74,338 68,316 62,294 58.333332,282 57,280 55.666668,278.66666 50.333336,278 41,278 H 27 c -4,4 -6,7 -6,9 z" /><path
             id="path66"
             style="fill:none;stroke:#000000;stroke-width:1;stroke-linecap:butt;stroke-linejoin:miter;stroke-miterlimit:10;stroke-dasharray:none;stroke-opacity:0.25330003"
             d="m 21,287 c 0.666666,2 1.333334,4.66666 2,8 0.666666,3.33334 2.333334,10.66666 5,22 2.666666,11.33334 6,21.66666 10,31 4,9.33334 9,20.33334 15,33 6,12.66666 12.666664,22.66666 20,30 7.333336,7.33334 16,14.66666 26,22 10,7.33334 21,10.33334 33,9 19.33333,0 36.33333,-4 51,-12 14.66667,-8 25,-15.33334 31,-22 6,-6.66666 9.66667,-13.33334 11,-20 1.33333,-4 2.33333,-6 3,-6 0.66667,0 3.33333,2.33334 8,7 32,34.66666 69,52 111,52 h 3 c 32,0 56,-13.66666 72,-41 5.33334,-12.66666 8,-25 8,-37 0,-20 -4.33334,-36 -13,-48 -8.66666,-12 -17.33334,-19.66666 -26,-23 -8.66666,-3.33334 -17,-4.66666 -25,-4 -13.33334,0 -24,3.66666 -32,11 -8,7.33334 -12,17 -12,29 0,32 18.66666,53.33334 56,64 -14.66666,8.66666 -26.66666,13 -36,13 -37.33334,0 -71.66666,-24.66666 -103,-74 -6.66667,-10.66666 -11.66667,-21.66666 -15,-33 C 220.66667,286.66666 209.33333,242.33334 190,165 167.33333,71.666664 154.33333,22 151,16 c -8.66667,-18 -23,-27 -43,-27 -8.666664,0 -15.666664,2 -21,6 -5.333336,4 -9,8 -11,12 -2,4 -2.666664,7.333333 -2,10 0,8.666668 13.333328,66 40,172 26.66667,106 40,165 40,177 0,26 -8.66667,39 -26,39 -14,0 -26,-9.33334 -36,-28 C 82,358.33334 74,338 68,316 62,294 58.333332,282 57,280 55.666668,278.66666 50.333336,278 41,278 H 27 c -4,4 -6,7 -6,9 z" /></g><g
           transform="matrix(0.08488315,0,0,-0.08399231,1376.2156,173.98407)"
           id="g68"><path
             id="path70"
             style="fill:#000000;fill-opacity:1;fill-rule:nonzero;stroke:none"
             d="m 94,250 c 0,46 3.333336,89.66666 10,131 6.66666,41.33334 14.33334,77 23,107 8.66667,30 21,59.33331 37,88 16,28.66669 28.66667,51 38,67 9.33333,16 23.33333,33.33331 42,52 18.66666,18.66669 29.66666,30 33,34 3.33334,4 11.66666,11 25,21 h 13 4 c 9.33334,0 14,-3 14,-9 0,-2 -5.66666,-9 -17,-21 -11.33334,-12 -25,-29.66669 -41,-53 -16,-23.33331 -32.33333,-52 -49,-86 -16.66667,-34 -30.66667,-80 -42,-138 -11.33333,-58 -17,-122.33331 -17,-193 0,-70.66667 5.66667,-134.66666 17,-192 11.33333,-57.33333588 25,-103.666664 41,-139 16,-35.33334 32.33334,-64 49,-86 16.66666,-22 30.66666,-39.66667 42,-53 11.33334,-13.33333 17,-20.33333 17,-21 0,-6 -5,-9 -15,-9 h -3 -13 l -28,24 C 211.33333,-169.33333 165.66667,-98.666672 137,-14 108.33333,70.666672 94,158.66666 94,250 Z" /><path
             id="path72"
             style="fill:none;stroke:#000000;stroke-width:1;stroke-linecap:butt;stroke-linejoin:miter;stroke-miterlimit:10;stroke-dasharray:none;stroke-opacity:0.25330003"
             d="m 94,250 c 0,46 3.333336,89.66666 10,131 6.66666,41.33334 14.33334,77 23,107 8.66667,30 21,59.33331 37,88 16,28.66669 28.66667,51 38,67 9.33333,16 23.33333,33.33331 42,52 18.66666,18.66669 29.66666,30 33,34 3.33334,4 11.66666,11 25,21 h 13 4 c 9.33334,0 14,-3 14,-9 0,-2 -5.66666,-9 -17,-21 -11.33334,-12 -25,-29.66669 -41,-53 -16,-23.33331 -32.33333,-52 -49,-86 -16.66667,-34 -30.66667,-80 -42,-138 -11.33333,-58 -17,-122.33331 -17,-193 0,-70.66667 5.66667,-134.66666 17,-192 11.33333,-57.33333588 25,-103.666664 41,-139 16,-35.33334 32.33334,-64 49,-86 16.66666,-22 30.66666,-39.66667 42,-53 11.33334,-13.33333 17,-20.33333 17,-21 0,-6 -5,-9 -15,-9 h -3 -13 l -28,24 C 211.33333,-169.33333 165.66667,-98.666672 137,-14 108.33333,70.666672 94,158.66666 94,250 Z" /></g><g
           transform="matrix(0.08488315,0,0,-0.08399231,1409.235,173.98407)"
           id="g74"><path
             id="path76"
             style="fill:#000000;fill-opacity:1;fill-rule:nonzero;stroke:none"
             d="m 52,289 c 4.666668,28 22.666664,60.33334 54,97 31.33333,36.66666 70,55.33334 116,56 23.33333,0 44.66666,-6 64,-18 19.33334,-12 33.66666,-27 43,-45 28,42 61.66666,63 101,63 24.66666,0 46,-7.33334 64,-22 18,-14.66666 27.33331,-34.33334 28,-59 0,-19.33334 -4.66669,-35 -14,-47 -9.33334,-12 -18.33334,-19.33334 -27,-22 -8.66666,-2.66666 -16.33334,-4 -23,-4 -12.66666,0 -23,3.66666 -31,11 -8,7.33334 -12,17 -12,29 0,30.66666 16.66666,51.66666 50,63 -7.33334,8.66666 -20.66666,13 -40,13 -8.66666,0 -15,-0.66666 -19,-2 -25.33334,-10.66666 -44,-32.66666 -56,-66 -40,-147.33334 -60,-233.33333 -60,-258 0,-18.666668 5.33334,-32 16,-40 10.66666,-8 22.33334,-12 35,-12 24.66666,0 49,11 73,33 24,22 40.33334,49 49,81 2,6.66667 4,10.33333 6,11 2,0.66667 7.33334,1.33333 16,2 h 4 c 10,0 15,-2.66667 15,-8 0,-0.66667 -0.66666,-4.33333 -2,-11 C 491.33334,96 470.66666,62.333336 440,33 409.33334,3.666666 373.66666,-11 333,-11 286.33334,-11 251,10 227,52 199.66667,10.666664 168.33334,-10 133,-10 h -6 C 94.333328,-10 71,-1.333334 57,16 43,33.333336 35.666668,51.666664 35,71 c 0,21.333336 6.333332,38.66666 19,52 12.666664,13.33333 27.666664,20 45,20 28.66667,0 43,-14 43,-42 C 142,87.666664 138,76 130,66 122,56 114.33334,49.333332 107,46 99.666664,42.666668 95.333336,41 94,41 l -3,-1 c 0,-0.666668 2,-2 6,-4 4,-2 9.33334,-4.333334 16,-7 6.66666,-2.666666 13,-3.666666 19,-3 24,0 44.66667,15 62,45 6,10.666664 13.66667,33.33333 23,68 9.33333,34.66667 18.66667,70.66666 28,108 9.33333,37.33334 14.66666,59.33334 16,66 3.33334,18 5,31 5,39 0,18.66666 -5,32 -15,40 -10,8 -21.33333,12 -34,12 -26.66667,0 -51.66667,-10.66666 -75,-32 -23.33334,-21.33334 -39.66666,-48.66666 -49,-82 -1.333336,-6 -3,-9.33334 -5,-10 -2,-0.66666 -7.333336,-1.33334 -16,-2 H 58 c -4,4 -6,7.66666 -6,11 z" /><path
             id="path78"
             style="fill:none;stroke:#000000;stroke-width:1;stroke-linecap:butt;stroke-linejoin:miter;stroke-miterlimit:10;stroke-dasharray:none;stroke-opacity:0.25330003"
             d="m 52,289 c 4.666668,28 22.666664,60.33334 54,97 31.33333,36.66666 70,55.33334 116,56 23.33333,0 44.66666,-6 64,-18 19.33334,-12 33.66666,-27 43,-45 28,42 61.66666,63 101,63 24.66666,0 46,-7.33334 64,-22 18,-14.66666 27.33331,-34.33334 28,-59 0,-19.33334 -4.66669,-35 -14,-47 -9.33334,-12 -18.33334,-19.33334 -27,-22 -8.66666,-2.66666 -16.33334,-4 -23,-4 -12.66666,0 -23,3.66666 -31,11 -8,7.33334 -12,17 -12,29 0,30.66666 16.66666,51.66666 50,63 -7.33334,8.66666 -20.66666,13 -40,13 -8.66666,0 -15,-0.66666 -19,-2 -25.33334,-10.66666 -44,-32.66666 -56,-66 -40,-147.33334 -60,-233.33333 -60,-258 0,-18.666668 5.33334,-32 16,-40 10.66666,-8 22.33334,-12 35,-12 24.66666,0 49,11 73,33 24,22 40.33334,49 49,81 2,6.66667 4,10.33333 6,11 2,0.66667 7.33334,1.33333 16,2 h 4 c 10,0 15,-2.66667 15,-8 0,-0.66667 -0.66666,-4.33333 -2,-11 C 491.33334,96 470.66666,62.333336 440,33 409.33334,3.666666 373.66666,-11 333,-11 286.33334,-11 251,10 227,52 199.66667,10.666664 168.33334,-10 133,-10 h -6 C 94.333328,-10 71,-1.333334 57,16 43,33.333336 35.666668,51.666664 35,71 c 0,21.333336 6.333332,38.66666 19,52 12.666664,13.33333 27.666664,20 45,20 28.66667,0 43,-14 43,-42 C 142,87.666664 138,76 130,66 122,56 114.33334,49.333332 107,46 99.666664,42.666668 95.333336,41 94,41 l -3,-1 c 0,-0.666668 2,-2 6,-4 4,-2 9.33334,-4.333334 16,-7 6.66666,-2.666666 13,-3.666666 19,-3 24,0 44.66667,15 62,45 6,10.666664 13.66667,33.33333 23,68 9.33333,34.66667 18.66667,70.66666 28,108 9.33333,37.33334 14.66666,59.33334 16,66 3.33334,18 5,31 5,39 0,18.66666 -5,32 -15,40 -10,8 -21.33333,12 -34,12 -26.66667,0 -51.66667,-10.66666 -75,-32 -23.33334,-21.33334 -39.66666,-48.66666 -49,-82 -1.333336,-6 -3,-9.33334 -5,-10 -2,-0.66666 -7.333336,-1.33334 -16,-2 H 58 c -4,4 -6,7.66666 -6,11 z" /></g><g
           transform="matrix(0.08488315,0,0,-0.08399231,1457.7882,173.98407)"
           id="g80"><path
             id="path82"
             style="fill:#000000;fill-opacity:1;fill-rule:nonzero;stroke:none"
             d="m 60,749 4,1 c 3.333336,0 6.666664,0 10,0 h 12 l 28,-24 c 62.66667,-56.66669 108.33333,-127.33331 137,-212 28.66666,-84.66669 43,-172.66666 43,-264 0,-45.33334 -3.33334,-89 -10,-131 -6.66666,-42 -14.33334,-77.666664 -23,-107 -8.66667,-29.333334 -21,-58.666664 -37,-88 -16,-29.33334 -28.66667,-51.66666 -38,-67 -9.33333,-15.33333 -23,-32.33333 -41,-51 -18,-18.66667 -28.66666,-29.66667 -32,-33 -3.33334,-3.33333 -11,-9.66667 -23,-19 -2,-2 -3.333336,-3.33333 -4,-4 H 74 c -5.333336,0 -9,0 -11,0 -2,0 -3.666668,1 -5,3 -1.333332,2 -2.333332,5 -3,9 0.666668,0.66667 4.333332,5 11,13 103.33334,107.33334 155,265.666656 155,475 0,209.33334 -51.66666,367.66669 -155,475 -6.666668,8 -10.333332,12.33331 -11,13 0,5.33331 1.666668,9 5,11 z" /><path
             id="path84"
             style="fill:none;stroke:#000000;stroke-width:1;stroke-linecap:butt;stroke-linejoin:miter;stroke-miterlimit:10;stroke-dasharray:none;stroke-opacity:0.25330003"
             d="m 60,749 4,1 c 3.333336,0 6.666664,0 10,0 h 12 l 28,-24 c 62.66667,-56.66669 108.33333,-127.33331 137,-212 28.66666,-84.66669 43,-172.66666 43,-264 0,-45.33334 -3.33334,-89 -10,-131 -6.66666,-42 -14.33334,-77.666664 -23,-107 -8.66667,-29.333334 -21,-58.666664 -37,-88 -16,-29.33334 -28.66667,-51.66666 -38,-67 -9.33333,-15.33333 -23,-32.33333 -41,-51 -18,-18.66667 -28.66666,-29.66667 -32,-33 -3.33334,-3.33333 -11,-9.66667 -23,-19 -2,-2 -3.333336,-3.33333 -4,-4 H 74 c -5.333336,0 -9,0 -11,0 -2,0 -3.666668,1 -5,3 -1.333332,2 -2.333332,5 -3,9 0.666668,0.66667 4.333332,5 11,13 103.33334,107.33334 155,265.666656 155,475 0,209.33334 -51.66666,367.66669 -155,475 -6.666668,8 -10.333332,12.33331 -11,13 0,5.33331 1.666668,9 5,11 z" /></g><g
           transform="matrix(0.08868082,0,0,-0.0811801,899.9176,368.30374)"
           id="g86"><path
             id="path88"
             style="fill:#000000;fill-opacity:1;fill-rule:nonzero;stroke:none"
             d="m 56,237 c 0,0 0,4.33333 0,13 0,8.66666 4.666664,15.33334 14,20 h 299 v 150 l 1,150 c 6.66666,8.66669 13,13 19,13 8.66666,0 15.33334,-5 20,-15 V 270 h 298 c 10,-5.33334 15,-12 15,-20 0,-8 -5,-14.66667 -15,-20 H 409 V -68 c -5.33334,-9.333336 -11.33334,-14 -18,-14 h -2 -2 c -8,0 -14,4.666664 -18,14 V 230 H 70 c -9.333336,4.66667 -14,11.33333 -14,20 z" /><path
             id="path90"
             style="fill:none;stroke:#000000;stroke-width:1;stroke-linecap:butt;stroke-linejoin:miter;stroke-miterlimit:10;stroke-dasharray:none;stroke-opacity:0.25450003"
             d="m 56,237 c 0,0 0,4.33333 0,13 0,8.66666 4.666664,15.33334 14,20 h 299 v 150 l 1,150 c 6.66666,8.66669 13,13 19,13 8.66666,0 15.33334,-5 20,-15 V 270 h 298 c 10,-5.33334 15,-12 15,-20 0,-8 -5,-14.66667 -15,-20 H 409 V -68 c -5.33334,-9.333336 -11.33334,-14 -18,-14 h -2 -2 c -8,0 -14,4.666664 -18,14 V 230 H 70 c -9.333336,4.66667 -14,11.33333 -14,20 z" /></g><g
           transform="matrix(0.08547508,0,0,-0.08664861,251.97693,730.02637)"
           id="g92"><path
             id="path94"
             style="fill:#000000;fill-opacity:1;fill-rule:nonzero;stroke:none"
             d="m 55,507 c 0,55.33331 19,102 57,140 38,38 81.66666,57 131,57 h 14 c 56.66666,0 106,-21 148,-63 l 21,31 c 3.33334,4.66669 6.66666,9.66669 10,15 3.33334,5.33331 6.66666,9.66669 10,13 l 3,4 c 0.66666,0 2,0 4,0 2,0 4,0.33331 6,1 h 4 c 2,0 5,-2 9,-6 V 462 l -6,-6 h -18 c -7.33334,0 -11.66666,1 -13,3 -1.33334,2 -3,8.66666 -5,20 -11.33334,84 -45,139.66669 -101,167 -24.66666,10.66669 -49.66666,16 -75,16 -35.33334,0 -64,-12 -86,-36 -22,-24 -33,-52 -33,-84 0,-22.66669 5.66667,-43.33334 17,-62 11.33333,-18.66666 27.33333,-33.66666 48,-45 6.66667,-2.66666 35.33333,-10.33334 86,-23 50.66666,-12.66666 78.66666,-20.33334 84,-23 38,-14.66666 69,-39.66666 93,-75 24,-35.33334 36.33334,-76.33333 37,-123 C 500,137 482.66666,88.333336 448,45 413.33334,1.6666641 364.33334,-20.333334 301,-21 263.66666,-21 230.33333,-15.333334 201,-4 171.66667,7.333334 151.33333,17.666666 140,27 L 122,41 C 119.33334,37.666668 114.33334,31 107,21 99.666664,11 93,1.666667 87,-7 c -6,-8.666667 -9,-13.333334 -9,-14 -1.333336,-0.666666 -4.666664,-1 -10,-1 h -4 c -2,0 -5,2 -9,6 v 117 c 0,79.33334 0.333332,119.66667 1,121 1.333332,3.33333 8,5 20,5 h 13 c 4,-4 6,-8.33333 6,-13 0,-21.33333 3.333336,-42.33333 10,-63 6.66666,-20.66667 18,-41 34,-61 16,-20 38,-36 66,-48 28,-12 61.33334,-18 100,-18 31.33334,0 58.33334,12.666664 81,38 22.66666,25.333336 34,56.33333 34,93 0,28.66667 -7.33334,54.66667 -22,78 -14.66666,23.33334 -34,39.33334 -58,48 -37.33334,9.33334 -62,15.66666 -74,19 -3.33334,0.66666 -12.33333,2.66666 -27,6 -14.66667,3.33334 -25.66667,6 -33,8 -7.33333,2 -18,5.66666 -32,11 -14,5.33334 -25,11.33334 -33,18 -8,6.66666 -17.66666,14.66666 -29,24 -11.33334,9.33334 -20.333336,21 -27,35 -20,32.66666 -30,67.66666 -30,105 z" /><path
             id="path96"
             style="fill:none;stroke:#000000;stroke-width:1;stroke-linecap:butt;stroke-linejoin:miter;stroke-miterlimit:10;stroke-dasharray:none;stroke-opacity:0.25820001"
             d="m 55,507 c 0,55.33331 19,102 57,140 38,38 81.66666,57 131,57 h 14 c 56.66666,0 106,-21 148,-63 l 21,31 c 3.33334,4.66669 6.66666,9.66669 10,15 3.33334,5.33331 6.66666,9.66669 10,13 l 3,4 c 0.66666,0 2,0 4,0 2,0 4,0.33331 6,1 h 4 c 2,0 5,-2 9,-6 V 462 l -6,-6 h -18 c -7.33334,0 -11.66666,1 -13,3 -1.33334,2 -3,8.66666 -5,20 -11.33334,84 -45,139.66669 -101,167 -24.66666,10.66669 -49.66666,16 -75,16 -35.33334,0 -64,-12 -86,-36 -22,-24 -33,-52 -33,-84 0,-22.66669 5.66667,-43.33334 17,-62 11.33333,-18.66666 27.33333,-33.66666 48,-45 6.66667,-2.66666 35.33333,-10.33334 86,-23 50.66666,-12.66666 78.66666,-20.33334 84,-23 38,-14.66666 69,-39.66666 93,-75 24,-35.33334 36.33334,-76.33333 37,-123 C 500,137 482.66666,88.333336 448,45 413.33334,1.6666641 364.33334,-20.333334 301,-21 263.66666,-21 230.33333,-15.333334 201,-4 171.66667,7.333334 151.33333,17.666666 140,27 L 122,41 C 119.33334,37.666668 114.33334,31 107,21 99.666664,11 93,1.666667 87,-7 c -6,-8.666667 -9,-13.333334 -9,-14 -1.333336,-0.666666 -4.666664,-1 -10,-1 h -4 c -2,0 -5,2 -9,6 v 117 c 0,79.33334 0.333332,119.66667 1,121 1.333332,3.33333 8,5 20,5 h 13 c 4,-4 6,-8.33333 6,-13 0,-21.33333 3.333336,-42.33333 10,-63 6.66666,-20.66667 18,-41 34,-61 16,-20 38,-36 66,-48 28,-12 61.33334,-18 100,-18 31.33334,0 58.33334,12.666664 81,38 22.66666,25.333336 34,56.33333 34,93 0,28.66667 -7.33334,54.66667 -22,78 -14.66666,23.33334 -34,39.33334 -58,48 -37.33334,9.33334 -62,15.66666 -74,19 -3.33334,0.66666 -12.33333,2.66666 -27,6 -14.66667,3.33334 -25.66667,6 -33,8 -7.33333,2 -18,5.66666 -32,11 -14,5.33334 -25,11.33334 -33,18 -8,6.66666 -17.66666,14.66666 -29,24 -11.33334,9.33334 -20.333336,21 -27,35 -20,32.66666 -30,67.66666 -30,105 z" /></g><g
           transform="matrix(0.08547508,0,0,-0.08664861,299.50107,730.02637)"
           id="g98"><path
             id="path100"
             style="fill:#000000;fill-opacity:1;fill-rule:nonzero;stroke:none"
             d="m 41,46 h 14 c 26,0 41.666664,4.666664 47,14 v 8 c 0,6 0,13.666664 0,23 0,9.33334 0,19.66666 0,31 0,11.33333 0.33334,24.33333 1,39 0.66666,14.66667 0.66666,28.66667 0,42 0,20.66667 0,42.66667 0,66 0,23.33334 -0.33334,43 -1,59 v 23 c -2,12.66666 -6.666664,21 -14,25 -7.333336,4 -22.333328,7 -45,9 H 25 v 23 c 0,15.33334 0.666666,23 2,23 l 10,1 c 6.666668,0.66666 16,1.33334 28,2 12,0.66666 24.333336,1.33334 37,2 11.33334,0.66666 23.33334,1.33334 36,2 12.66667,0.66666 22.33333,1.66666 29,3 6.66667,1.33334 10.33333,1.66666 11,1 h 3 v -40 c 0,-25.33334 0.33333,-38 1,-38 0.66667,0 2.33333,1.66666 5,5 2.66667,3.33334 6.66667,8.33334 12,15 5.33333,6.66666 11.66667,12.66666 19,18 7.33333,5.33334 17,11.66666 29,19 12,7.33334 24.66666,12.66666 38,16 13.33334,3.33334 30.33334,5 51,5 10,0 19.33334,-0.66666 28,-2 8.66666,-1.33334 16.33334,-3.33334 23,-6 6.66666,-2.66666 13,-5.33334 19,-8 6,-2.66666 11,-5.66666 15,-9 4,-3.33334 7.66666,-7 11,-11 3.33334,-4 6.33334,-7.66666 9,-11 2.66666,-3.33334 5,-7 7,-11 2,-4 3.33334,-7.33334 4,-10 0.66666,-2.66666 1.66666,-5.33334 3,-8 l 2,-5 3,4 c 2,2.66666 4,5.33334 6,8 2,2.66666 5,6.33334 9,11 4,4.66666 8.33334,9 13,13 4.66666,4 9.66666,8.33334 15,13 5.33334,4.66666 12,8.66666 20,12 8,3.33334 15.66669,6.66666 23,10 7.33331,3.33334 16,5.66666 26,7 10,1.33334 20.33331,2.33334 31,3 84,0 129.66669,-37.66666 137,-113 0.66669,-4.66666 1,-51 1,-139 v -86 c 0,-25.333336 0.66669,-40.333332 2,-45 1.33331,-4.666668 5,-8 11,-10 14,-2 30.33331,-3 49,-3 h 16 V 0 h -8 L 788,1 C 772,1.6666667 755,2 737,2 719,2 706.33331,2.3333333 699,3 630.33331,3 593,2 587,0 h -8 v 46 h 16 c 40.66669,0 61,5.333332 61,16 0.66669,1.333332 1,47.33333 1,138 -0.66669,90 -1.33331,137.66666 -2,143 -4,18.66666 -10.66669,32.66666 -20,42 -9.33331,9.33334 -17.33331,15 -24,17 -6.66669,2 -15.33331,2.66666 -26,2 -30,0 -56.33331,-11.33334 -79,-34 -18,-18 -29.33334,-36.33334 -34,-55 -4.66666,-18.66666 -7.33334,-46.33334 -8,-83 v -64 -60 c 0,-20 0.33334,-33.333336 1,-40 0.66666,-6.666668 1.66666,-11 3,-13 1.33334,-2 4.33334,-4 9,-6 14,-2 30.33334,-3 49,-3 h 16 V 0 h -8 L 510,1 C 494.66666,1.6666667 478,2 460,2 442,2 429.33334,2.3333333 422,3 353.33331,3 316,2 310,0 h -8 v 46 h 16 c 40.66666,0 61,5.333332 61,16 0.66666,1.333332 1,47.33333 1,138 -0.66666,90 -1.33334,137.66666 -2,143 -4,18.66666 -10.66666,32.66666 -20,42 -9.33334,9.33334 -17.33334,15 -24,17 -6.66666,2 -15.33334,2.66666 -26,2 -30,0 -56.33333,-11.33334 -79,-34 -18,-18 -29.33333,-36.33334 -34,-55 -4.66667,-18.66666 -7.33333,-46.33334 -8,-83 v -64 -60 c 0,-20 0.33333,-33.333336 1,-40 0.66667,-6.666668 1.66667,-11 3,-13 1.33333,-2 4.33333,-4 9,-6 14,-2 30.33333,-3 49,-3 h 16 V 0 h -8 L 234,1 C 218,1.6666667 201,2 183,2 165,2 152.33333,2.3333333 145,3 76.333328,3 39,2 33,0 h -8 v 46 z" /><path
             id="path102"
             style="fill:none;stroke:#000000;stroke-width:1;stroke-linecap:butt;stroke-linejoin:miter;stroke-miterlimit:10;stroke-dasharray:none;stroke-opacity:0.25820001"
             d="m 41,46 h 14 c 26,0 41.666664,4.666664 47,14 v 8 c 0,6 0,13.666664 0,23 0,9.33334 0,19.66666 0,31 0,11.33333 0.33334,24.33333 1,39 0.66666,14.66667 0.66666,28.66667 0,42 0,20.66667 0,42.66667 0,66 0,23.33334 -0.33334,43 -1,59 v 23 c -2,12.66666 -6.666664,21 -14,25 -7.333336,4 -22.333328,7 -45,9 H 25 v 23 c 0,15.33334 0.666666,23 2,23 l 10,1 c 6.666668,0.66666 16,1.33334 28,2 12,0.66666 24.333336,1.33334 37,2 11.33334,0.66666 23.33334,1.33334 36,2 12.66667,0.66666 22.33333,1.66666 29,3 6.66667,1.33334 10.33333,1.66666 11,1 h 3 v -40 c 0,-25.33334 0.33333,-38 1,-38 0.66667,0 2.33333,1.66666 5,5 2.66667,3.33334 6.66667,8.33334 12,15 5.33333,6.66666 11.66667,12.66666 19,18 7.33333,5.33334 17,11.66666 29,19 12,7.33334 24.66666,12.66666 38,16 13.33334,3.33334 30.33334,5 51,5 10,0 19.33334,-0.66666 28,-2 8.66666,-1.33334 16.33334,-3.33334 23,-6 6.66666,-2.66666 13,-5.33334 19,-8 6,-2.66666 11,-5.66666 15,-9 4,-3.33334 7.66666,-7 11,-11 3.33334,-4 6.33334,-7.66666 9,-11 2.66666,-3.33334 5,-7 7,-11 2,-4 3.33334,-7.33334 4,-10 0.66666,-2.66666 1.66666,-5.33334 3,-8 l 2,-5 3,4 c 2,2.66666 4,5.33334 6,8 2,2.66666 5,6.33334 9,11 4,4.66666 8.33334,9 13,13 4.66666,4 9.66666,8.33334 15,13 5.33334,4.66666 12,8.66666 20,12 8,3.33334 15.66669,6.66666 23,10 7.33331,3.33334 16,5.66666 26,7 10,1.33334 20.33331,2.33334 31,3 84,0 129.66669,-37.66666 137,-113 0.66669,-4.66666 1,-51 1,-139 v -86 c 0,-25.333336 0.66669,-40.333332 2,-45 1.33331,-4.666668 5,-8 11,-10 14,-2 30.33331,-3 49,-3 h 16 V 0 h -8 L 788,1 C 772,1.6666667 755,2 737,2 719,2 706.33331,2.3333333 699,3 630.33331,3 593,2 587,0 h -8 v 46 h 16 c 40.66669,0 61,5.333332 61,16 0.66669,1.333332 1,47.33333 1,138 -0.66669,90 -1.33331,137.66666 -2,143 -4,18.66666 -10.66669,32.66666 -20,42 -9.33331,9.33334 -17.33331,15 -24,17 -6.66669,2 -15.33331,2.66666 -26,2 -30,0 -56.33331,-11.33334 -79,-34 -18,-18 -29.33334,-36.33334 -34,-55 -4.66666,-18.66666 -7.33334,-46.33334 -8,-83 v -64 -60 c 0,-20 0.33334,-33.333336 1,-40 0.66666,-6.666668 1.66666,-11 3,-13 1.33334,-2 4.33334,-4 9,-6 14,-2 30.33334,-3 49,-3 h 16 V 0 h -8 L 510,1 C 494.66666,1.6666667 478,2 460,2 442,2 429.33334,2.3333333 422,3 353.33331,3 316,2 310,0 h -8 v 46 h 16 c 40.66666,0 61,5.333332 61,16 0.66666,1.333332 1,47.33333 1,138 -0.66666,90 -1.33334,137.66666 -2,143 -4,18.66666 -10.66666,32.66666 -20,42 -9.33334,9.33334 -17.33334,15 -24,17 -6.66666,2 -15.33334,2.66666 -26,2 -30,0 -56.33333,-11.33334 -79,-34 -18,-18 -29.33333,-36.33334 -34,-55 -4.66667,-18.66666 -7.33333,-46.33334 -8,-83 v -64 -60 c 0,-20 0.33333,-33.333336 1,-40 0.66667,-6.666668 1.66667,-11 3,-13 1.33333,-2 4.33333,-4 9,-6 14,-2 30.33333,-3 49,-3 h 16 V 0 h -8 L 234,1 C 218,1.6666667 201,2 183,2 165,2 152.33333,2.3333333 145,3 76.333328,3 39,2 33,0 h -8 v 46 z" /></g><g
           transform="matrix(0.08547508,0,0,-0.08664861,370.70181,730.02637)"
           id="g104"><path
             id="path106"
             style="fill:#000000;fill-opacity:1;fill-rule:nonzero;stroke:none"
             d="m 28,214 c 0,63.33334 21.666664,118 65,164 43.33334,46 95.66666,69.33334 157,70 60,0 111.66666,-22.66666 155,-68 43.33334,-45.33334 65.33334,-100.33331 66,-165 C 471,151.66666 449.66666,98.333336 407,55 364.33334,11.666664 312,-10 250,-10 185.33333,-10 132.33334,12.333332 91,57 49.666664,101.66667 28.666666,154 28,214 Z M 250,30 c 81.33334,0 122,54.333328 122,163 v 32 25 c 0,14.66666 -0.33334,27.33334 -1,38 -0.66666,10.66666 -3,23.33334 -7,38 -4,14.66666 -9.33334,26.66666 -16,36 -6.66666,9.33334 -17,18.66666 -31,28 -14,9.33334 -30.33334,16 -49,20 -3.33334,0.66666 -8.66666,1 -16,1 -20,0 -39,-4 -57,-12 -28.66667,-14.66666 -47.33333,-35 -56,-61 -8.66667,-26 -13,-56.66666 -13,-92 v -20 c 0,-64 6.33333,-109 19,-135 21.33333,-40.666668 56.33333,-61 105,-61 z" /><path
             id="path108"
             style="fill:none;stroke:#000000;stroke-width:1;stroke-linecap:butt;stroke-linejoin:miter;stroke-miterlimit:10;stroke-dasharray:none;stroke-opacity:0.25820001"
             d="m 28,214 c 0,63.33334 21.666664,118 65,164 43.33334,46 95.66666,69.33334 157,70 60,0 111.66666,-22.66666 155,-68 43.33334,-45.33334 65.33334,-100.33331 66,-165 C 471,151.66666 449.66666,98.333336 407,55 364.33334,11.666664 312,-10 250,-10 185.33333,-10 132.33334,12.333332 91,57 49.666664,101.66667 28.666666,154 28,214 Z M 250,30 c 81.33334,0 122,54.333328 122,163 v 32 25 c 0,14.66666 -0.33334,27.33334 -1,38 -0.66666,10.66666 -3,23.33334 -7,38 -4,14.66666 -9.33334,26.66666 -16,36 -6.66666,9.33334 -17,18.66666 -31,28 -14,9.33334 -30.33334,16 -49,20 -3.33334,0.66666 -8.66666,1 -16,1 -20,0 -39,-4 -57,-12 -28.66667,-14.66666 -47.33333,-35 -56,-61 -8.66667,-26 -13,-56.66666 -13,-92 v -20 c 0,-64 6.33333,-109 19,-135 21.33333,-40.666668 56.33333,-61 105,-61 z" /></g><g
           transform="matrix(0.08547508,0,0,-0.08664861,413.43933,730.02637)"
           id="g110"><path
             id="path112"
             style="fill:#000000;fill-opacity:1;fill-rule:nonzero;stroke:none"
             d="m 28,214 c 0,63.33334 21.666664,118 65,164 43.33334,46 95.66666,69.33334 157,70 60,0 111.66666,-22.66666 155,-68 43.33334,-45.33334 65.33334,-100.33331 66,-165 C 471,151.66666 449.66666,98.333336 407,55 364.33334,11.666664 312,-10 250,-10 185.33333,-10 132.33334,12.333332 91,57 49.666664,101.66667 28.666666,154 28,214 Z M 250,30 c 81.33334,0 122,54.333328 122,163 v 32 25 c 0,14.66666 -0.33334,27.33334 -1,38 -0.66666,10.66666 -3,23.33334 -7,38 -4,14.66666 -9.33334,26.66666 -16,36 -6.66666,9.33334 -17,18.66666 -31,28 -14,9.33334 -30.33334,16 -49,20 -3.33334,0.66666 -8.66666,1 -16,1 -20,0 -39,-4 -57,-12 -28.66667,-14.66666 -47.33333,-35 -56,-61 -8.66667,-26 -13,-56.66666 -13,-92 v -20 c 0,-64 6.33333,-109 19,-135 21.33333,-40.666668 56.33333,-61 105,-61 z" /><path
             id="path114"
             style="fill:none;stroke:#000000;stroke-width:1;stroke-linecap:butt;stroke-linejoin:miter;stroke-miterlimit:10;stroke-dasharray:none;stroke-opacity:0.25820001"
             d="m 28,214 c 0,63.33334 21.666664,118 65,164 43.33334,46 95.66666,69.33334 157,70 60,0 111.66666,-22.66666 155,-68 43.33334,-45.33334 65.33334,-100.33331 66,-165 C 471,151.66666 449.66666,98.333336 407,55 364.33334,11.666664 312,-10 250,-10 185.33333,-10 132.33334,12.333332 91,57 49.666664,101.66667 28.666666,154 28,214 Z M 250,30 c 81.33334,0 122,54.333328 122,163 v 32 25 c 0,14.66666 -0.33334,27.33334 -1,38 -0.66666,10.66666 -3,23.33334 -7,38 -4,14.66666 -9.33334,26.66666 -16,36 -6.66666,9.33334 -17,18.66666 -31,28 -14,9.33334 -30.33334,16 -49,20 -3.33334,0.66666 -8.66666,1 -16,1 -20,0 -39,-4 -57,-12 -28.66667,-14.66666 -47.33333,-35 -56,-61 -8.66667,-26 -13,-56.66666 -13,-92 v -20 c 0,-64 6.33333,-109 19,-135 21.33333,-40.666668 56.33333,-61 105,-61 z" /></g><g
           transform="matrix(0.08547508,0,0,-0.08664861,456.17691,730.02637)"
           id="g116"><path
             id="path118"
             style="fill:#000000;fill-opacity:1;fill-rule:nonzero;stroke:none"
             d="m 27,422 c 35.333336,2.66666 62.666664,21.33334 82,56 19.33333,34.66669 30,75.33331 32,122 v 15 h 40 V 431 H 316 V 385 H 181 V 241 c 0.66667,-83.33334 1,-130.33334 1,-141 0,-10.666664 2.33333,-21.333336 7,-32 9.33333,-26 25.66667,-39 49,-39 29.33334,0 47.33334,23.666664 54,71 0.66666,5.33334 1,20.66666 1,46 v 35 h 40 V 146 134 C 333,82.666664 319,43.666668 291,17 273,-1 249.66667,-10 221,-10 c -22.66667,0 -42.33333,4 -59,12 -16.66667,8 -29.33333,18.333332 -38,31 -8.66666,12.666668 -15,24.333332 -19,35 -4,10.666664 -6.333336,21.333336 -7,32 -0.666664,4.66666 -1,54 -1,148 V 385 H 18 v 37 z" /><path
             id="path120"
             style="fill:none;stroke:#000000;stroke-width:1;stroke-linecap:butt;stroke-linejoin:miter;stroke-miterlimit:10;stroke-dasharray:none;stroke-opacity:0.25820001"
             d="m 27,422 c 35.333336,2.66666 62.666664,21.33334 82,56 19.33333,34.66669 30,75.33331 32,122 v 15 h 40 V 431 H 316 V 385 H 181 V 241 c 0.66667,-83.33334 1,-130.33334 1,-141 0,-10.666664 2.33333,-21.333336 7,-32 9.33333,-26 25.66667,-39 49,-39 29.33334,0 47.33334,23.666664 54,71 0.66666,5.33334 1,20.66666 1,46 v 35 h 40 V 146 134 C 333,82.666664 319,43.666668 291,17 273,-1 249.66667,-10 221,-10 c -22.66667,0 -42.33333,4 -59,12 -16.66667,8 -29.33333,18.333332 -38,31 -8.66666,12.666668 -15,24.333332 -19,35 -4,10.666664 -6.333336,21.333336 -7,32 -0.666664,4.66666 -1,54 -1,148 V 385 H 18 v 37 z" /></g><g
           transform="matrix(0.08547508,0,0,-0.08664861,489.4267,730.02637)"
           id="g122"><path
             id="path124"
             style="fill:#000000;fill-opacity:1;fill-rule:nonzero;stroke:none"
             d="m 41,46 h 14 c 26,0 41.666664,4.666664 47,14 v 8 c 0,6 0,13.666664 0,23 0,9.33334 0,20.33334 0,33 0,12.66667 0,27 0,43 0,16 0.33334,32.66667 1,50 0.66666,17.33333 0.66666,35.66667 0,55 -0.66666,19.33334 -0.66666,38.33334 0,57 0,24.66666 0,50.66666 0,78 0,27.33334 0,52.33334 0,75 0,22.66666 -0.33334,42.66669 -1,60 -0.66666,17.33331 -0.66666,32 0,44 0.66666,12 0.66666,17.66669 0,17 -2,12.66669 -6.666664,21 -14,25 -7.333336,4 -22.333328,7 -45,9 H 25 v 23 c 0,15.33331 0.666666,23 2,23 l 10,1 c 6.666668,0.66669 16.333332,1.33331 29,2 12.666664,0.66669 25,1.33331 37,2 11.33334,0.66669 23.66666,1.33331 37,2 13.33333,0.66669 23.33333,1.66669 30,3 6.66667,1.33331 10.33333,1.66669 11,1 h 3 V 367 c 40,50 88,75 144,75 82,0 127,-37.66666 135,-113 0.66666,-4.66666 1,-51 1,-139 v -86 c 0,-25.333336 0.66666,-40.333332 2,-45 1.33334,-4.666668 5,-8 11,-10 14,-2 30.33334,-3 49,-3 h 16 V 0 h -8 L 510,1 C 494.66666,1.6666667 478,2 460,2 442,2 429.33334,2.3333333 422,3 353.33331,3 316,2 310,0 h -8 v 46 h 16 c 40.66666,0 61,5.333332 61,16 0.66666,1.333332 1,47.33333 1,138 -0.66666,90 -1.33334,137.66666 -2,143 -4,18.66666 -10.66666,32.66666 -20,42 -9.33334,9.33334 -17.33334,15 -24,17 -6.66666,2 -15.33334,2.66666 -26,2 -30,0 -56.33333,-11.33334 -79,-34 -18,-18 -29.33333,-36.33334 -34,-55 -4.66667,-18.66666 -7.33333,-46.33334 -8,-83 v -64 -60 c 0,-20 0.33333,-33.333336 1,-40 0.66667,-6.666668 1.66667,-11 3,-13 1.33333,-2 4.33333,-4 9,-6 14,-2 30.33333,-3 49,-3 h 16 V 0 h -8 L 234,1 C 218,1.6666667 201,2 183,2 165,2 152.33333,2.3333333 145,3 76.333328,3 39,2 33,0 h -8 v 46 z" /><path
             id="path126"
             style="fill:none;stroke:#000000;stroke-width:1;stroke-linecap:butt;stroke-linejoin:miter;stroke-miterlimit:10;stroke-dasharray:none;stroke-opacity:0.25820001"
             d="m 41,46 h 14 c 26,0 41.666664,4.666664 47,14 v 8 c 0,6 0,13.666664 0,23 0,9.33334 0,20.33334 0,33 0,12.66667 0,27 0,43 0,16 0.33334,32.66667 1,50 0.66666,17.33333 0.66666,35.66667 0,55 -0.66666,19.33334 -0.66666,38.33334 0,57 0,24.66666 0,50.66666 0,78 0,27.33334 0,52.33334 0,75 0,22.66666 -0.33334,42.66669 -1,60 -0.66666,17.33331 -0.66666,32 0,44 0.66666,12 0.66666,17.66669 0,17 -2,12.66669 -6.666664,21 -14,25 -7.333336,4 -22.333328,7 -45,9 H 25 v 23 c 0,15.33331 0.666666,23 2,23 l 10,1 c 6.666668,0.66669 16.333332,1.33331 29,2 12.666664,0.66669 25,1.33331 37,2 11.33334,0.66669 23.66666,1.33331 37,2 13.33333,0.66669 23.33333,1.66669 30,3 6.66667,1.33331 10.33333,1.66669 11,1 h 3 V 367 c 40,50 88,75 144,75 82,0 127,-37.66666 135,-113 0.66666,-4.66666 1,-51 1,-139 v -86 c 0,-25.333336 0.66666,-40.333332 2,-45 1.33334,-4.666668 5,-8 11,-10 14,-2 30.33334,-3 49,-3 h 16 V 0 h -8 L 510,1 C 494.66666,1.6666667 478,2 460,2 442,2 429.33334,2.3333333 422,3 353.33331,3 316,2 310,0 h -8 v 46 h 16 c 40.66666,0 61,5.333332 61,16 0.66666,1.333332 1,47.33333 1,138 -0.66666,90 -1.33334,137.66666 -2,143 -4,18.66666 -10.66666,32.66666 -20,42 -9.33334,9.33334 -17.33334,15 -24,17 -6.66666,2 -15.33334,2.66666 -26,2 -30,0 -56.33333,-11.33334 -79,-34 -18,-18 -29.33333,-36.33334 -34,-55 -4.66667,-18.66666 -7.33333,-46.33334 -8,-83 v -64 -60 c 0,-20 0.33333,-33.333336 1,-40 0.66667,-6.666668 1.66667,-11 3,-13 1.33333,-2 4.33333,-4 9,-6 14,-2 30.33333,-3 49,-3 h 16 V 0 h -8 L 234,1 C 218,1.6666667 201,2 183,2 165,2 152.33333,2.3333333 145,3 76.333328,3 39,2 33,0 h -8 v 46 z" /></g><g
           transform="matrix(0.0852798,0,0,-0.08509859,1187.91,727.99719)"
           id="g128"><path
             id="path130"
             style="fill:#000000;fill-opacity:1;fill-rule:nonzero;stroke:none"
             d="m 42,46 c 21.333336,1.333332 38.666664,4.666668 52,10 13.33334,5.333332 21.33334,9.666664 24,13 2.66666,3.333336 6,9 10,17 v 548 h -4 c -6.66666,2 -30.666664,3 -72,3 H 25 v 46 h 207 l 3,-3 c 1.33333,-0.66669 30.33334,-42.66669 87,-126 56.66666,-83.33334 113.66666,-167 171,-251 l 85,-125 v 420 c -4,6.66669 -7.33331,11.66669 -10,15 -2.66669,3.33331 -10.66669,8 -24,14 -13.33331,6 -30.66669,9.33331 -52,10 h -17 v 46 h 8 c 10,-2 49,-3 117,-3 70.66669,0 109,1 115,3 h 9 v -46 h -17 c -48.66669,-2.66669 -77,-15.66669 -85,-39 L 621,302 V 6 L 614,0 H 600 C 590,0 584,1 582,3 580,5 546.33331,54 481,150 415.66666,246 349.33334,343.66666 282,443 214.66666,542.33331 177.66667,596.33331 171,605 V 345 l 1,-259 c 7.33333,-24 35.66666,-37.333332 85,-40 h 17 V 0 h -9 C 255,2 216.66667,3 150,3 82,3 43,2 33,0 h -8 v 46 z" /><path
             id="path132"
             style="fill:none;stroke:#000000;stroke-width:1;stroke-linecap:butt;stroke-linejoin:miter;stroke-miterlimit:10;stroke-dasharray:none;stroke-opacity:0.25560004"
             d="m 42,46 c 21.333336,1.333332 38.666664,4.666668 52,10 13.33334,5.333332 21.33334,9.666664 24,13 2.66666,3.333336 6,9 10,17 v 548 h -4 c -6.66666,2 -30.666664,3 -72,3 H 25 v 46 h 207 l 3,-3 c 1.33333,-0.66669 30.33334,-42.66669 87,-126 56.66666,-83.33334 113.66666,-167 171,-251 l 85,-125 v 420 c -4,6.66669 -7.33331,11.66669 -10,15 -2.66669,3.33331 -10.66669,8 -24,14 -13.33331,6 -30.66669,9.33331 -52,10 h -17 v 46 h 8 c 10,-2 49,-3 117,-3 70.66669,0 109,1 115,3 h 9 v -46 h -17 c -48.66669,-2.66669 -77,-15.66669 -85,-39 L 621,302 V 6 L 614,0 H 600 C 590,0 584,1 582,3 580,5 546.33331,54 481,150 415.66666,246 349.33334,343.66666 282,443 214.66666,542.33331 177.66667,596.33331 171,605 V 345 l 1,-259 c 7.33333,-24 35.66666,-37.333332 85,-40 h 17 V 0 h -9 C 255,2 216.66667,3 150,3 82,3 43,2 33,0 h -8 v 46 z" /></g><g
           transform="matrix(0.0852798,0,0,-0.08509859,1251.8699,727.99719)"
           id="g134"><path
             id="path136"
             style="fill:#000000;fill-opacity:1;fill-rule:nonzero;stroke:none"
             d="m 28,214 c 0,63.33334 21.666664,118 65,164 43.33334,46 95.66666,69.33334 157,70 60,0 111.66666,-22.66666 155,-68 43.33334,-45.33334 65.33334,-100.33331 66,-165 C 471,151.66666 449.66666,98.333336 407,55 364.33334,11.666664 312,-10 250,-10 185.33333,-10 132.33334,12.333332 91,57 49.666664,101.66667 28.666666,154 28,214 Z M 250,30 c 81.33334,0 122,54.333328 122,163 v 32 25 c 0,14.66666 -0.33334,27.33334 -1,38 -0.66666,10.66666 -3,23.33334 -7,38 -4,14.66666 -9.33334,26.66666 -16,36 -6.66666,9.33334 -17,18.66666 -31,28 -14,9.33334 -30.33334,16 -49,20 -3.33334,0.66666 -8.66666,1 -16,1 -20,0 -39,-4 -57,-12 -28.66667,-14.66666 -47.33333,-35 -56,-61 -8.66667,-26 -13,-56.66666 -13,-92 v -20 c 0,-64 6.33333,-109 19,-135 21.33333,-40.666668 56.33333,-61 105,-61 z" /><path
             id="path138"
             style="fill:none;stroke:#000000;stroke-width:1;stroke-linecap:butt;stroke-linejoin:miter;stroke-miterlimit:10;stroke-dasharray:none;stroke-opacity:0.25560004"
             d="m 28,214 c 0,63.33334 21.666664,118 65,164 43.33334,46 95.66666,69.33334 157,70 60,0 111.66666,-22.66666 155,-68 43.33334,-45.33334 65.33334,-100.33331 66,-165 C 471,151.66666 449.66666,98.333336 407,55 364.33334,11.666664 312,-10 250,-10 185.33333,-10 132.33334,12.333332 91,57 49.666664,101.66667 28.666666,154 28,214 Z M 250,30 c 81.33334,0 122,54.333328 122,163 v 32 25 c 0,14.66666 -0.33334,27.33334 -1,38 -0.66666,10.66666 -3,23.33334 -7,38 -4,14.66666 -9.33334,26.66666 -16,36 -6.66666,9.33334 -17,18.66666 -31,28 -14,9.33334 -30.33334,16 -49,20 -3.33334,0.66666 -8.66666,1 -16,1 -20,0 -39,-4 -57,-12 -28.66667,-14.66666 -47.33333,-35 -56,-61 -8.66667,-26 -13,-56.66666 -13,-92 v -20 c 0,-64 6.33333,-109 19,-135 21.33333,-40.666668 56.33333,-61 105,-61 z" /></g><g
           transform="matrix(0.0852798,0,0,-0.08509859,1294.5098,727.99719)"
           id="g140"><path
             id="path142"
             style="fill:#000000;fill-opacity:1;fill-rule:nonzero;stroke:none"
             d="m 41,46 h 14 c 26,0 41.666664,4.666664 47,14 v 8 c 0,6 0,13.666664 0,23 0,9.33334 0,19.66666 0,31 0,11.33333 0.33334,24.33333 1,39 0.66666,14.66667 0.66666,28.66667 0,42 0,20.66667 0,42.66667 0,66 0,23.33334 -0.33334,43 -1,59 v 23 c -2,12.66666 -6.666664,21 -14,25 -7.333336,4 -22.333328,7 -45,9 H 25 v 23 c 0,15.33334 0.666666,23 2,23 l 10,1 c 6.666668,0.66666 16,1.33334 28,2 12,0.66666 24.333336,1.33334 37,2 11.33334,0.66666 23.33334,1.33334 36,2 12.66667,0.66666 22.33333,1.66666 29,3 6.66667,1.33334 10.33333,1.66666 11,1 h 3 v -40 c 0,-25.33334 0.33333,-38 1,-38 0.66667,0 2.33333,1.66666 5,5 2.66667,3.33334 6.66667,8.33334 12,15 5.33333,6.66666 11.66667,12.66666 19,18 7.33333,5.33334 17,11.66666 29,19 12,7.33334 24.66666,12.66666 38,16 13.33334,3.33334 30.33334,5 51,5 76,-2.66666 118.33334,-40.33331 127,-113 0.66666,-4.66666 1,-51 1,-139 v -86 c 0,-25.333336 0.66666,-40.333332 2,-45 1.33334,-4.666668 5,-8 11,-10 14,-2 30.33334,-3 49,-3 h 16 V 0 h -8 L 510,1 C 494.66666,1.6666667 478,2 460,2 442,2 429.33334,2.3333333 422,3 353.33331,3 316,2 310,0 h -8 v 46 h 16 c 40.66666,0 61,5.333332 61,16 0.66666,1.333332 1,47.33333 1,138 -0.66666,90 -1.33334,137.66666 -2,143 -4,18.66666 -10.66666,32.66666 -20,42 -9.33334,9.33334 -17.33334,15 -24,17 -6.66666,2 -15.33334,2.66666 -26,2 -30,0 -56.33333,-11.33334 -79,-34 -18,-18 -29.33333,-36.33334 -34,-55 -4.66667,-18.66666 -7.33333,-46.33334 -8,-83 v -64 -60 c 0,-20 0.33333,-33.333336 1,-40 0.66667,-6.666668 1.66667,-11 3,-13 1.33333,-2 4.33333,-4 9,-6 14,-2 30.33333,-3 49,-3 h 16 V 0 h -8 L 234,1 C 218,1.6666667 201,2 183,2 165,2 152.33333,2.3333333 145,3 76.333328,3 39,2 33,0 h -8 v 46 z" /><path
             id="path144"
             style="fill:none;stroke:#000000;stroke-width:1;stroke-linecap:butt;stroke-linejoin:miter;stroke-miterlimit:10;stroke-dasharray:none;stroke-opacity:0.25560004"
             d="m 41,46 h 14 c 26,0 41.666664,4.666664 47,14 v 8 c 0,6 0,13.666664 0,23 0,9.33334 0,19.66666 0,31 0,11.33333 0.33334,24.33333 1,39 0.66666,14.66667 0.66666,28.66667 0,42 0,20.66667 0,42.66667 0,66 0,23.33334 -0.33334,43 -1,59 v 23 c -2,12.66666 -6.666664,21 -14,25 -7.333336,4 -22.333328,7 -45,9 H 25 v 23 c 0,15.33334 0.666666,23 2,23 l 10,1 c 6.666668,0.66666 16,1.33334 28,2 12,0.66666 24.333336,1.33334 37,2 11.33334,0.66666 23.33334,1.33334 36,2 12.66667,0.66666 22.33333,1.66666 29,3 6.66667,1.33334 10.33333,1.66666 11,1 h 3 v -40 c 0,-25.33334 0.33333,-38 1,-38 0.66667,0 2.33333,1.66666 5,5 2.66667,3.33334 6.66667,8.33334 12,15 5.33333,6.66666 11.66667,12.66666 19,18 7.33333,5.33334 17,11.66666 29,19 12,7.33334 24.66666,12.66666 38,16 13.33334,3.33334 30.33334,5 51,5 76,-2.66666 118.33334,-40.33331 127,-113 0.66666,-4.66666 1,-51 1,-139 v -86 c 0,-25.333336 0.66666,-40.333332 2,-45 1.33334,-4.666668 5,-8 11,-10 14,-2 30.33334,-3 49,-3 h 16 V 0 h -8 L 510,1 C 494.66666,1.6666667 478,2 460,2 442,2 429.33334,2.3333333 422,3 353.33331,3 316,2 310,0 h -8 v 46 h 16 c 40.66666,0 61,5.333332 61,16 0.66666,1.333332 1,47.33333 1,138 -0.66666,90 -1.33334,137.66666 -2,143 -4,18.66666 -10.66666,32.66666 -20,42 -9.33334,9.33334 -17.33334,15 -24,17 -6.66666,2 -15.33334,2.66666 -26,2 -30,0 -56.33333,-11.33334 -79,-34 -18,-18 -29.33333,-36.33334 -34,-55 -4.66667,-18.66666 -7.33333,-46.33334 -8,-83 v -64 -60 c 0,-20 0.33333,-33.333336 1,-40 0.66667,-6.666668 1.66667,-11 3,-13 1.33333,-2 4.33333,-4 9,-6 14,-2 30.33333,-3 49,-3 h 16 V 0 h -8 L 234,1 C 218,1.6666667 201,2 183,2 165,2 152.33333,2.3333333 145,3 76.333328,3 39,2 33,0 h -8 v 46 z" /></g><g
           transform="matrix(0.0852798,0,0,-0.08509859,1341.9253,727.99719)"
           id="g146"><path
             id="path148"
             style="fill:#000000;fill-opacity:1;fill-rule:nonzero;stroke:none"
             d="m 11,179 v 73 h 266 v -73 z" /><path
             id="path150"
             style="fill:none;stroke:#000000;stroke-width:1;stroke-linecap:butt;stroke-linejoin:miter;stroke-miterlimit:10;stroke-dasharray:none;stroke-opacity:0.25560004"
             d="m 11,179 v 73 h 266 v -73 z" /></g><g
           transform="matrix(0.0852798,0,0,-0.08509859,1370.3235,727.99719)"
           id="g152"><path
             id="path154"
             style="fill:#000000;fill-opacity:1;fill-rule:nonzero;stroke:none"
             d="m 295,316 c 0,26.66666 -9,49.66666 -27,69 -18,19.33334 -44,29 -78,29 -24,0 -44.66667,-4.33334 -62,-13 -20,-12.66666 -30,-30 -30,-52 -0.666664,-3.33334 -0.666664,-7.66666 0,-13 0.666664,-5.33334 6,-13.33334 16,-24 10,-10.66666 24.33333,-19 43,-25 12,-3.33334 26.66667,-6.33334 44,-9 17.33333,-2.66666 32,-5.66666 44,-9 12,-3.33334 22.66666,-7.66666 32,-13 11.33334,-5.33333 22.33334,-12 33,-20 10.66666,-8 21.33334,-21.66667 32,-41 10.66666,-19.33333 16.33334,-40 17,-62 C 359,91.666664 346.33334,57.666668 321,31 295.66666,4.3333321 254.66667,-9.333333 198,-10 h -8 C 155.33333,-10 123.33334,2 94,26 L 86,19 77,10 C 73,6 69,2.3333335 65,-1 L 54,-11 h -8 -4 c -2,0 -5,2 -9,6 v 79 58 c 0,14 0.666668,22.33333 2,25 1.333332,2.66667 4.666668,4.33333 10,5 h 9 c 8,0 13.333336,-1.33333 16,-4 2.666664,-2.66667 4.333336,-6.66667 5,-12 0.666664,-5.33333 3,-14.33333 7,-27 4,-12.66666 10.333336,-26.666664 19,-42 23.33334,-34 55.66666,-51 97,-51 64.66669,0 97,26 97,78 0,19.33334 -6,35 -18,47 -13.33334,16 -41,28 -83,36 -42,8 -69.66666,15.66667 -83,23 -24,11.33333 -43,26.66667 -57,46 -14,19.33334 -21,40 -21,62 0,26 5.666664,48 17,66 11.333336,18 25.666664,31.33334 43,40 17.33334,8.66666 34,14.66666 50,18 16,3.33334 30.66667,5 44,5 h 11 c 26.66667,0 50,-5 70,-15 l 15,-8 9,7 c 6.66666,6 14,11.66666 22,17 h 8 4 c 2,0 5,-2 9,-6 V 310 l -6,-6 h -28 c -4,4 -6,8 -6,12 z" /><path
             id="path156"
             style="fill:none;stroke:#000000;stroke-width:1;stroke-linecap:butt;stroke-linejoin:miter;stroke-miterlimit:10;stroke-dasharray:none;stroke-opacity:0.25560004"
             d="m 295,316 c 0,26.66666 -9,49.66666 -27,69 -18,19.33334 -44,29 -78,29 -24,0 -44.66667,-4.33334 -62,-13 -20,-12.66666 -30,-30 -30,-52 -0.666664,-3.33334 -0.666664,-7.66666 0,-13 0.666664,-5.33334 6,-13.33334 16,-24 10,-10.66666 24.33333,-19 43,-25 12,-3.33334 26.66667,-6.33334 44,-9 17.33333,-2.66666 32,-5.66666 44,-9 12,-3.33334 22.66666,-7.66666 32,-13 11.33334,-5.33333 22.33334,-12 33,-20 10.66666,-8 21.33334,-21.66667 32,-41 10.66666,-19.33333 16.33334,-40 17,-62 C 359,91.666664 346.33334,57.666668 321,31 295.66666,4.3333321 254.66667,-9.333333 198,-10 h -8 C 155.33333,-10 123.33334,2 94,26 L 86,19 77,10 C 73,6 69,2.3333335 65,-1 L 54,-11 h -8 -4 c -2,0 -5,2 -9,6 v 79 58 c 0,14 0.666668,22.33333 2,25 1.333332,2.66667 4.666668,4.33333 10,5 h 9 c 8,0 13.333336,-1.33333 16,-4 2.666664,-2.66667 4.333336,-6.66667 5,-12 0.666664,-5.33333 3,-14.33333 7,-27 4,-12.66666 10.333336,-26.666664 19,-42 23.33334,-34 55.66666,-51 97,-51 64.66669,0 97,26 97,78 0,19.33334 -6,35 -18,47 -13.33334,16 -41,28 -83,36 -42,8 -69.66666,15.66667 -83,23 -24,11.33333 -43,26.66667 -57,46 -14,19.33334 -21,40 -21,62 0,26 5.666664,48 17,66 11.333336,18 25.666664,31.33334 43,40 17.33334,8.66666 34,14.66666 50,18 16,3.33334 30.66667,5 44,5 h 11 c 26.66667,0 50,-5 70,-15 l 15,-8 9,7 c 6.66666,6 14,11.66666 22,17 h 8 4 c 2,0 5,-2 9,-6 V 310 l -6,-6 h -28 c -4,4 -6,8 -6,12 z" /></g><g
           transform="matrix(0.0852798,0,0,-0.08509859,1403.9237,727.99719)"
           id="g158"><path
             id="path160"
             style="fill:#000000;fill-opacity:1;fill-rule:nonzero;stroke:none"
             d="m 41,46 h 14 c 26,0 41.666664,4.666664 47,14 v 8 c 0,6 0,13.666664 0,23 0,9.33334 0,19.66666 0,31 0,11.33333 0.33334,24.33333 1,39 0.66666,14.66667 0.66666,28.66667 0,42 0,20.66667 0,42.66667 0,66 0,23.33334 -0.33334,43 -1,59 v 23 c -2,12.66666 -6.666664,21 -14,25 -7.333336,4 -22.333328,7 -45,9 H 25 v 23 c 0,15.33334 0.666666,23 2,23 l 10,1 c 6.666668,0.66666 16,1.33334 28,2 12,0.66666 24.333336,1.33334 37,2 11.33334,0.66666 23.33334,1.33334 36,2 12.66667,0.66666 22.33333,1.66666 29,3 6.66667,1.33334 10.33333,1.66666 11,1 h 3 v -40 c 0,-25.33334 0.33333,-38 1,-38 0.66667,0 2.33333,1.66666 5,5 2.66667,3.33334 6.66667,8.33334 12,15 5.33333,6.66666 11.66667,12.66666 19,18 7.33333,5.33334 17,11.66666 29,19 12,7.33334 24.66666,12.66666 38,16 13.33334,3.33334 30.33334,5 51,5 10,0 19.33334,-0.66666 28,-2 8.66666,-1.33334 16.33334,-3.33334 23,-6 6.66666,-2.66666 13,-5.33334 19,-8 6,-2.66666 11,-5.66666 15,-9 4,-3.33334 7.66666,-7 11,-11 3.33334,-4 6.33334,-7.66666 9,-11 2.66666,-3.33334 5,-7 7,-11 2,-4 3.33334,-7.33334 4,-10 0.66666,-2.66666 1.66666,-5.33334 3,-8 l 2,-5 3,4 c 2,2.66666 4,5.33334 6,8 2,2.66666 5,6.33334 9,11 4,4.66666 8.33334,9 13,13 4.66666,4 9.66666,8.33334 15,13 5.33334,4.66666 12,8.66666 20,12 8,3.33334 15.66669,6.66666 23,10 7.33331,3.33334 16,5.66666 26,7 10,1.33334 20.33331,2.33334 31,3 84,0 129.66669,-37.66666 137,-113 0.66669,-4.66666 1,-51 1,-139 v -86 c 0,-25.333336 0.66669,-40.333332 2,-45 1.33331,-4.666668 5,-8 11,-10 14,-2 30.33331,-3 49,-3 h 16 V 0 h -8 L 788,1 C 772,1.6666667 755,2 737,2 719,2 706.33331,2.3333333 699,3 630.33331,3 593,2 587,0 h -8 v 46 h 16 c 40.66669,0 61,5.333332 61,16 0.66669,1.333332 1,47.33333 1,138 -0.66669,90 -1.33331,137.66666 -2,143 -4,18.66666 -10.66669,32.66666 -20,42 -9.33331,9.33334 -17.33331,15 -24,17 -6.66669,2 -15.33331,2.66666 -26,2 -30,0 -56.33331,-11.33334 -79,-34 -18,-18 -29.33334,-36.33334 -34,-55 -4.66666,-18.66666 -7.33334,-46.33334 -8,-83 v -64 -60 c 0,-20 0.33334,-33.333336 1,-40 0.66666,-6.666668 1.66666,-11 3,-13 1.33334,-2 4.33334,-4 9,-6 14,-2 30.33334,-3 49,-3 h 16 V 0 h -8 L 510,1 C 494.66666,1.6666667 478,2 460,2 442,2 429.33334,2.3333333 422,3 353.33331,3 316,2 310,0 h -8 v 46 h 16 c 40.66666,0 61,5.333332 61,16 0.66666,1.333332 1,47.33333 1,138 -0.66666,90 -1.33334,137.66666 -2,143 -4,18.66666 -10.66666,32.66666 -20,42 -9.33334,9.33334 -17.33334,15 -24,17 -6.66666,2 -15.33334,2.66666 -26,2 -30,0 -56.33333,-11.33334 -79,-34 -18,-18 -29.33333,-36.33334 -34,-55 -4.66667,-18.66666 -7.33333,-46.33334 -8,-83 v -64 -60 c 0,-20 0.33333,-33.333336 1,-40 0.66667,-6.666668 1.66667,-11 3,-13 1.33333,-2 4.33333,-4 9,-6 14,-2 30.33333,-3 49,-3 h 16 V 0 h -8 L 234,1 C 218,1.6666667 201,2 183,2 165,2 152.33333,2.3333333 145,3 76.333328,3 39,2 33,0 h -8 v 46 z" /><path
             id="path162"
             style="fill:none;stroke:#000000;stroke-width:1;stroke-linecap:butt;stroke-linejoin:miter;stroke-miterlimit:10;stroke-dasharray:none;stroke-opacity:0.25560004"
             d="m 41,46 h 14 c 26,0 41.666664,4.666664 47,14 v 8 c 0,6 0,13.666664 0,23 0,9.33334 0,19.66666 0,31 0,11.33333 0.33334,24.33333 1,39 0.66666,14.66667 0.66666,28.66667 0,42 0,20.66667 0,42.66667 0,66 0,23.33334 -0.33334,43 -1,59 v 23 c -2,12.66666 -6.666664,21 -14,25 -7.333336,4 -22.333328,7 -45,9 H 25 v 23 c 0,15.33334 0.666666,23 2,23 l 10,1 c 6.666668,0.66666 16,1.33334 28,2 12,0.66666 24.333336,1.33334 37,2 11.33334,0.66666 23.33334,1.33334 36,2 12.66667,0.66666 22.33333,1.66666 29,3 6.66667,1.33334 10.33333,1.66666 11,1 h 3 v -40 c 0,-25.33334 0.33333,-38 1,-38 0.66667,0 2.33333,1.66666 5,5 2.66667,3.33334 6.66667,8.33334 12,15 5.33333,6.66666 11.66667,12.66666 19,18 7.33333,5.33334 17,11.66666 29,19 12,7.33334 24.66666,12.66666 38,16 13.33334,3.33334 30.33334,5 51,5 10,0 19.33334,-0.66666 28,-2 8.66666,-1.33334 16.33334,-3.33334 23,-6 6.66666,-2.66666 13,-5.33334 19,-8 6,-2.66666 11,-5.66666 15,-9 4,-3.33334 7.66666,-7 11,-11 3.33334,-4 6.33334,-7.66666 9,-11 2.66666,-3.33334 5,-7 7,-11 2,-4 3.33334,-7.33334 4,-10 0.66666,-2.66666 1.66666,-5.33334 3,-8 l 2,-5 3,4 c 2,2.66666 4,5.33334 6,8 2,2.66666 5,6.33334 9,11 4,4.66666 8.33334,9 13,13 4.66666,4 9.66666,8.33334 15,13 5.33334,4.66666 12,8.66666 20,12 8,3.33334 15.66669,6.66666 23,10 7.33331,3.33334 16,5.66666 26,7 10,1.33334 20.33331,2.33334 31,3 84,0 129.66669,-37.66666 137,-113 0.66669,-4.66666 1,-51 1,-139 v -86 c 0,-25.333336 0.66669,-40.333332 2,-45 1.33331,-4.666668 5,-8 11,-10 14,-2 30.33331,-3 49,-3 h 16 V 0 h -8 L 788,1 C 772,1.6666667 755,2 737,2 719,2 706.33331,2.3333333 699,3 630.33331,3 593,2 587,0 h -8 v 46 h 16 c 40.66669,0 61,5.333332 61,16 0.66669,1.333332 1,47.33333 1,138 -0.66669,90 -1.33331,137.66666 -2,143 -4,18.66666 -10.66669,32.66666 -20,42 -9.33331,9.33334 -17.33331,15 -24,17 -6.66669,2 -15.33331,2.66666 -26,2 -30,0 -56.33331,-11.33334 -79,-34 -18,-18 -29.33334,-36.33334 -34,-55 -4.66666,-18.66666 -7.33334,-46.33334 -8,-83 v -64 -60 c 0,-20 0.33334,-33.333336 1,-40 0.66666,-6.666668 1.66666,-11 3,-13 1.33334,-2 4.33334,-4 9,-6 14,-2 30.33334,-3 49,-3 h 16 V 0 h -8 L 510,1 C 494.66666,1.6666667 478,2 460,2 442,2 429.33334,2.3333333 422,3 353.33331,3 316,2 310,0 h -8 v 46 h 16 c 40.66666,0 61,5.333332 61,16 0.66666,1.333332 1,47.33333 1,138 -0.66666,90 -1.33334,137.66666 -2,143 -4,18.66666 -10.66666,32.66666 -20,42 -9.33334,9.33334 -17.33334,15 -24,17 -6.66666,2 -15.33334,2.66666 -26,2 -30,0 -56.33333,-11.33334 -79,-34 -18,-18 -29.33333,-36.33334 -34,-55 -4.66667,-18.66666 -7.33333,-46.33334 -8,-83 v -64 -60 c 0,-20 0.33333,-33.333336 1,-40 0.66667,-6.666668 1.66667,-11 3,-13 1.33333,-2 4.33333,-4 9,-6 14,-2 30.33333,-3 49,-3 h 16 V 0 h -8 L 234,1 C 218,1.6666667 201,2 183,2 165,2 152.33333,2.3333333 145,3 76.333328,3 39,2 33,0 h -8 v 46 z" /></g><g
           transform="matrix(0.0852798,0,0,-0.08509859,1474.9618,727.99719)"
           id="g164"><path
             id="path166"
             style="fill:#000000;fill-opacity:1;fill-rule:nonzero;stroke:none"
             d="m 28,214 c 0,63.33334 21.666664,118 65,164 43.33334,46 95.66666,69.33334 157,70 60,0 111.66666,-22.66666 155,-68 43.33334,-45.33334 65.33334,-100.33331 66,-165 C 471,151.66666 449.66666,98.333336 407,55 364.33334,11.666664 312,-10 250,-10 185.33333,-10 132.33334,12.333332 91,57 49.666664,101.66667 28.666666,154 28,214 Z M 250,30 c 81.33334,0 122,54.333328 122,163 v 32 25 c 0,14.66666 -0.33334,27.33334 -1,38 -0.66666,10.66666 -3,23.33334 -7,38 -4,14.66666 -9.33334,26.66666 -16,36 -6.66666,9.33334 -17,18.66666 -31,28 -14,9.33334 -30.33334,16 -49,20 -3.33334,0.66666 -8.66666,1 -16,1 -20,0 -39,-4 -57,-12 -28.66667,-14.66666 -47.33333,-35 -56,-61 -8.66667,-26 -13,-56.66666 -13,-92 v -20 c 0,-64 6.33333,-109 19,-135 21.33333,-40.666668 56.33333,-61 105,-61 z" /><path
             id="path168"
             style="fill:none;stroke:#000000;stroke-width:1;stroke-linecap:butt;stroke-linejoin:miter;stroke-miterlimit:10;stroke-dasharray:none;stroke-opacity:0.25560004"
             d="m 28,214 c 0,63.33334 21.666664,118 65,164 43.33334,46 95.66666,69.33334 157,70 60,0 111.66666,-22.66666 155,-68 43.33334,-45.33334 65.33334,-100.33331 66,-165 C 471,151.66666 449.66666,98.333336 407,55 364.33334,11.666664 312,-10 250,-10 185.33333,-10 132.33334,12.333332 91,57 49.666664,101.66667 28.666666,154 28,214 Z M 250,30 c 81.33334,0 122,54.333328 122,163 v 32 25 c 0,14.66666 -0.33334,27.33334 -1,38 -0.66666,10.66666 -3,23.33334 -7,38 -4,14.66666 -9.33334,26.66666 -16,36 -6.66666,9.33334 -17,18.66666 -31,28 -14,9.33334 -30.33334,16 -49,20 -3.33334,0.66666 -8.66666,1 -16,1 -20,0 -39,-4 -57,-12 -28.66667,-14.66666 -47.33333,-35 -56,-61 -8.66667,-26 -13,-56.66666 -13,-92 v -20 c 0,-64 6.33333,-109 19,-135 21.33333,-40.666668 56.33333,-61 105,-61 z" /></g><g
           transform="matrix(0.0852798,0,0,-0.08509859,1517.6017,727.99719)"
           id="g170"><path
             id="path172"
             style="fill:#000000;fill-opacity:1;fill-rule:nonzero;stroke:none"
             d="m 28,214 c 0,63.33334 21.666664,118 65,164 43.33334,46 95.66666,69.33334 157,70 60,0 111.66666,-22.66666 155,-68 43.33334,-45.33334 65.33334,-100.33331 66,-165 C 471,151.66666 449.66666,98.333336 407,55 364.33334,11.666664 312,-10 250,-10 185.33333,-10 132.33334,12.333332 91,57 49.666664,101.66667 28.666666,154 28,214 Z M 250,30 c 81.33334,0 122,54.333328 122,163 v 32 25 c 0,14.66666 -0.33334,27.33334 -1,38 -0.66666,10.66666 -3,23.33334 -7,38 -4,14.66666 -9.33334,26.66666 -16,36 -6.66666,9.33334 -17,18.66666 -31,28 -14,9.33334 -30.33334,16 -49,20 -3.33334,0.66666 -8.66666,1 -16,1 -20,0 -39,-4 -57,-12 -28.66667,-14.66666 -47.33333,-35 -56,-61 -8.66667,-26 -13,-56.66666 -13,-92 v -20 c 0,-64 6.33333,-109 19,-135 21.33333,-40.666668 56.33333,-61 105,-61 z" /><path
             id="path174"
             style="fill:none;stroke:#000000;stroke-width:1;stroke-linecap:butt;stroke-linejoin:miter;stroke-miterlimit:10;stroke-dasharray:none;stroke-opacity:0.25560004"
             d="m 28,214 c 0,63.33334 21.666664,118 65,164 43.33334,46 95.66666,69.33334 157,70 60,0 111.66666,-22.66666 155,-68 43.33334,-45.33334 65.33334,-100.33331 66,-165 C 471,151.66666 449.66666,98.333336 407,55 364.33334,11.666664 312,-10 250,-10 185.33333,-10 132.33334,12.333332 91,57 49.666664,101.66667 28.666666,154 28,214 Z M 250,30 c 81.33334,0 122,54.333328 122,163 v 32 25 c 0,14.66666 -0.33334,27.33334 -1,38 -0.66666,10.66666 -3,23.33334 -7,38 -4,14.66666 -9.33334,26.66666 -16,36 -6.66666,9.33334 -17,18.66666 -31,28 -14,9.33334 -30.33334,16 -49,20 -3.33334,0.66666 -8.66666,1 -16,1 -20,0 -39,-4 -57,-12 -28.66667,-14.66666 -47.33333,-35 -56,-61 -8.66667,-26 -13,-56.66666 -13,-92 v -20 c 0,-64 6.33333,-109 19,-135 21.33333,-40.666668 56.33333,-61 105,-61 z" /></g><g
           transform="matrix(0.0852798,0,0,-0.08509859,1560.2417,727.99719)"
           id="g176"><path
             id="path178"
             style="fill:#000000;fill-opacity:1;fill-rule:nonzero;stroke:none"
             d="m 27,422 c 35.333336,2.66666 62.666664,21.33334 82,56 19.33333,34.66669 30,75.33331 32,122 v 15 h 40 V 431 H 316 V 385 H 181 V 241 c 0.66667,-83.33334 1,-130.33334 1,-141 0,-10.666664 2.33333,-21.333336 7,-32 9.33333,-26 25.66667,-39 49,-39 29.33334,0 47.33334,23.666664 54,71 0.66666,5.33334 1,20.66666 1,46 v 35 h 40 V 146 134 C 333,82.666664 319,43.666668 291,17 273,-1 249.66667,-10 221,-10 c -22.66667,0 -42.33333,4 -59,12 -16.66667,8 -29.33333,18.333332 -38,31 -8.66666,12.666668 -15,24.333332 -19,35 -4,10.666664 -6.333336,21.333336 -7,32 -0.666664,4.66666 -1,54 -1,148 V 385 H 18 v 37 z" /><path
             id="path180"
             style="fill:none;stroke:#000000;stroke-width:1;stroke-linecap:butt;stroke-linejoin:miter;stroke-miterlimit:10;stroke-dasharray:none;stroke-opacity:0.25560004"
             d="m 27,422 c 35.333336,2.66666 62.666664,21.33334 82,56 19.33333,34.66669 30,75.33331 32,122 v 15 h 40 V 431 H 316 V 385 H 181 V 241 c 0.66667,-83.33334 1,-130.33334 1,-141 0,-10.666664 2.33333,-21.333336 7,-32 9.33333,-26 25.66667,-39 49,-39 29.33334,0 47.33334,23.666664 54,71 0.66666,5.33334 1,20.66666 1,46 v 35 h 40 V 146 134 C 333,82.666664 319,43.666668 291,17 273,-1 249.66667,-10 221,-10 c -22.66667,0 -42.33333,4 -59,12 -16.66667,8 -29.33333,18.333332 -38,31 -8.66666,12.666668 -15,24.333332 -19,35 -4,10.666664 -6.333336,21.333336 -7,32 -0.666664,4.66666 -1,54 -1,148 V 385 H 18 v 37 z" /></g><g
           transform="matrix(0.0852798,0,0,-0.08509859,1593.4155,727.99719)"
           id="g182"><path
             id="path184"
             style="fill:#000000;fill-opacity:1;fill-rule:nonzero;stroke:none"
             d="m 41,46 h 14 c 26,0 41.666664,4.666664 47,14 v 8 c 0,6 0,13.666664 0,23 0,9.33334 0,20.33334 0,33 0,12.66667 0,27 0,43 0,16 0.33334,32.66667 1,50 0.66666,17.33333 0.66666,35.66667 0,55 -0.66666,19.33334 -0.66666,38.33334 0,57 0,24.66666 0,50.66666 0,78 0,27.33334 0,52.33334 0,75 0,22.66666 -0.33334,42.66669 -1,60 -0.66666,17.33331 -0.66666,32 0,44 0.66666,12 0.66666,17.66669 0,17 -2,12.66669 -6.666664,21 -14,25 -7.333336,4 -22.333328,7 -45,9 H 25 v 23 c 0,15.33331 0.666666,23 2,23 l 10,1 c 6.666668,0.66669 16.333332,1.33331 29,2 12.666664,0.66669 25,1.33331 37,2 11.33334,0.66669 23.66666,1.33331 37,2 13.33333,0.66669 23.33333,1.66669 30,3 6.66667,1.33331 10.33333,1.66669 11,1 h 3 V 367 c 40,50 88,75 144,75 82,0 127,-37.66666 135,-113 0.66666,-4.66666 1,-51 1,-139 v -86 c 0,-25.333336 0.66666,-40.333332 2,-45 1.33334,-4.666668 5,-8 11,-10 14,-2 30.33334,-3 49,-3 h 16 V 0 h -8 L 510,1 C 494.66666,1.6666667 478,2 460,2 442,2 429.33334,2.3333333 422,3 353.33331,3 316,2 310,0 h -8 v 46 h 16 c 40.66666,0 61,5.333332 61,16 0.66666,1.333332 1,47.33333 1,138 -0.66666,90 -1.33334,137.66666 -2,143 -4,18.66666 -10.66666,32.66666 -20,42 -9.33334,9.33334 -17.33334,15 -24,17 -6.66666,2 -15.33334,2.66666 -26,2 -30,0 -56.33333,-11.33334 -79,-34 -18,-18 -29.33333,-36.33334 -34,-55 -4.66667,-18.66666 -7.33333,-46.33334 -8,-83 v -64 -60 c 0,-20 0.33333,-33.333336 1,-40 0.66667,-6.666668 1.66667,-11 3,-13 1.33333,-2 4.33333,-4 9,-6 14,-2 30.33333,-3 49,-3 h 16 V 0 h -8 L 234,1 C 218,1.6666667 201,2 183,2 165,2 152.33333,2.3333333 145,3 76.333328,3 39,2 33,0 h -8 v 46 z" /><path
             id="path186"
             style="fill:none;stroke:#000000;stroke-width:1;stroke-linecap:butt;stroke-linejoin:miter;stroke-miterlimit:10;stroke-dasharray:none;stroke-opacity:0.25560004"
             d="m 41,46 h 14 c 26,0 41.666664,4.666664 47,14 v 8 c 0,6 0,13.666664 0,23 0,9.33334 0,20.33334 0,33 0,12.66667 0,27 0,43 0,16 0.33334,32.66667 1,50 0.66666,17.33333 0.66666,35.66667 0,55 -0.66666,19.33334 -0.66666,38.33334 0,57 0,24.66666 0,50.66666 0,78 0,27.33334 0,52.33334 0,75 0,22.66666 -0.33334,42.66669 -1,60 -0.66666,17.33331 -0.66666,32 0,44 0.66666,12 0.66666,17.66669 0,17 -2,12.66669 -6.666664,21 -14,25 -7.333336,4 -22.333328,7 -45,9 H 25 v 23 c 0,15.33331 0.666666,23 2,23 l 10,1 c 6.666668,0.66669 16.333332,1.33331 29,2 12.666664,0.66669 25,1.33331 37,2 11.33334,0.66669 23.66666,1.33331 37,2 13.33333,0.66669 23.33333,1.66669 30,3 6.66667,1.33331 10.33333,1.66669 11,1 h 3 V 367 c 40,50 88,75 144,75 82,0 127,-37.66666 135,-113 0.66666,-4.66666 1,-51 1,-139 v -86 c 0,-25.333336 0.66666,-40.333332 2,-45 1.33334,-4.666668 5,-8 11,-10 14,-2 30.33334,-3 49,-3 h 16 V 0 h -8 L 510,1 C 494.66666,1.6666667 478,2 460,2 442,2 429.33334,2.3333333 422,3 353.33331,3 316,2 310,0 h -8 v 46 h 16 c 40.66666,0 61,5.333332 61,16 0.66666,1.333332 1,47.33333 1,138 -0.66666,90 -1.33334,137.66666 -2,143 -4,18.66666 -10.66666,32.66666 -20,42 -9.33334,9.33334 -17.33334,15 -24,17 -6.66666,2 -15.33334,2.66666 -26,2 -30,0 -56.33333,-11.33334 -79,-34 -18,-18 -29.33333,-36.33334 -34,-55 -4.66667,-18.66666 -7.33333,-46.33334 -8,-83 v -64 -60 c 0,-20 0.33333,-33.333336 1,-40 0.66667,-6.666668 1.66667,-11 3,-13 1.33333,-2 4.33333,-4 9,-6 14,-2 30.33333,-3 49,-3 h 16 V 0 h -8 L 234,1 C 218,1.6666667 201,2 183,2 165,2 152.33333,2.3333333 145,3 76.333328,3 39,2 33,0 h -8 v 46 z" /></g></g></g></g></svg>