<svg xmlns="http://www.w3.org/2000/svg" xmlns:xlink="http://www.w3.org/1999/xlink" version="1.1" width="1579.9999pt" height="818.69796pt" viewBox="0 0 1579.9999 818.69796">
<defs>
<clipPath id="clip_1">
<path transform="matrix(2.7777777,0,0,-2.7777777,0,818.69796)" d="M42.60625 37.54375H279V273.9375H42.60625Z"/>
</clipPath>
<g id="font_2_52">
<path transform="matrix(.001,0,0,.001,0,0)" d="M378 643 129 254H378V643ZM352 729H476V254H580V172H476V0H378V172H49V267L352 729Z"/>
</g>
<clipPath id="clip_3">
<path transform="matrix(.027777777,0,0,-.027777777,163.55121,754.9479)" d="M-1021-463H1794V1233H-1021Z"/>
</clipPath>
<clipPath id="clip_4">
<path transform="matrix(2.7777777,0,0,-2.7777777,0,818.69796)" d="M42.60625 37.54375H279V273.9375H42.60625Z"/>
</clipPath>
<g id="font_2_50">
<path transform="matrix(.001,0,0,.001,0,0)" d="M192 83H536V0H73V83C110 121 161 173 226 239 290 304 331 346 348 365 380 400 402 430 414 455 426 479 433 504 433 528 433 566 419 598 392 622 365 646 330 659 286 659 255 659 222 653 188 643 154 632 117 616 78 594V694C118 710 155 722 189 730 223 738 255 742 284 742 359 742 419 723 464 685 509 647 532 597 532 534 532 504 526 475 515 449 504 422 484 390 454 354 446 344 420 317 376 272 332 227 271 164 192 83Z"/>
</g>
<clipPath id="clip_5">
<path transform="matrix(.027777777,0,0,-.027777777,294.88108,754.9479)" d="M-1021-463H1794V1233H-1021Z"/>
</clipPath>
<clipPath id="clip_6">
<path transform="matrix(2.7777777,0,0,-2.7777777,0,818.69796)" d="M42.60625 37.54375H279V273.9375H42.60625Z"/>
</clipPath>
<g id="font_2_48">
<path transform="matrix(.001,0,0,.001,0,0)" d="M318 664C267 664 229 639 203 589 177 539 165 464 165 364 165 264 177 189 203 139 229 89 267 64 318 64 369 64 407 89 433 139 458 189 471 264 471 364 471 464 458 539 433 589 407 639 369 664 318 664ZM318 742C399 742 461 709 505 645 548 580 570 486 570 364 570 241 548 147 505 83 461 19 399-13 317-13 235-13 173 19 130 83 87 147 66 241 66 364 66 486 87 580 130 645 173 709 236 742 318 742Z"/>
</g>
<clipPath id="clip_7">
<path transform="matrix(2.7777777,0,0,-2.7777777,0,818.69796)" d="M42.60625 37.54375H279V273.9375H42.60625Z"/>
</clipPath>
<clipPath id="clip_8">
<path transform="matrix(2.7777777,0,0,-2.7777777,0,818.69796)" d="M42.60625 37.54375H279V273.9375H42.60625Z"/>
</clipPath>
<g id="font_9_120">
<path transform="matrix(.001,0,0,.001,0,0)" d="M600 547 349 279 503 0H400L284 217 83 0H-25L243 288 100 547H203L308 349 491 547H600Z"/>
</g>
<g id="font_2_49">
<path transform="matrix(.001,0,0,.001,0,0)" d="M124 83H285V639L110 604V694L284 729H383V83H544V0H124V83Z"/>
</g>
<clipPath id="clip_10">
<path transform="matrix(2.7777777,0,0,-2.7777777,0,818.69796)" d="M42.60625 37.54375H279V273.9375H42.60625Z"/>
</clipPath>
<clipPath id="clip_11">
<path transform="matrix(.027777777,0,0,-.027777777,57.977434,659.2917)" d="M-1021-463H1794V1233H-1021Z"/>
</clipPath>
<clipPath id="clip_12">
<path transform="matrix(2.7777777,0,0,-2.7777777,0,818.69796)" d="M42.60625 37.54375H279V273.9375H42.60625Z"/>
</clipPath>
<clipPath id="clip_13">
<path transform="matrix(.027777777,0,0,-.027777777,57.977434,527.9618)" d="M-1021-463H1794V1233H-1021Z"/>
</clipPath>
<clipPath id="clip_14">
<path transform="matrix(2.7777777,0,0,-2.7777777,0,818.69796)" d="M42.60625 37.54375H279V273.9375H42.60625Z"/>
</clipPath>
<clipPath id="clip_15">
<path transform="matrix(2.7777777,0,0,-2.7777777,0,818.69796)" d="M42.60625 37.54375H279V273.9375H42.60625Z"/>
</clipPath>
<clipPath id="clip_16">
<path transform="matrix(2.7777777,0,0,-2.7777777,0,818.69796)" d="M42.60625 37.54375H279V273.9375H42.60625Z"/>
</clipPath>
<clipPath id="clip_17">
<path transform="matrix(2.7777777,0,0,-2.7777777,0,818.69796)" d="M42.60625 37.54375H279V273.9375H42.60625Z"/>
</clipPath>
<g id="font_2_61">
<path transform="matrix(.001,0,0,.001,0,0)" d="M106 454H732V372H106V454ZM106 255H732V172H106V255Z"/>
</g>
<g id="font_2_46">
<path transform="matrix(.001,0,0,.001,0,0)" d="M107 124H210V0H107V124Z"/>
</g>
<clipPath id="clip_18">
<path transform="matrix(.027777777,0,0,-.027777777,398.06425,39.48788)" d="M-1016-351H1660V1068H-1016Z"/>
</clipPath>
<clipPath id="clip_19">
<path transform="matrix(2.7777777,0,0,-2.7777777,0,818.69796)" d="M42.60625 37.54375H279V273.9375H42.60625Z"/>
</clipPath>
<clipPath id="clip_20">
<path transform="matrix(2.7777777,0,0,-2.7777777,643.6701,189.0903)" d="M-6.5-6.5H6.5V6.5H-6.5Z"/>
</clipPath>
<clipPath id="clip_21">
<path transform="matrix(2.7777777,0,0,-2.7777777,446.67536,386.08509)" d="M-6.5-6.5H6.5V6.5H-6.5Z"/>
</clipPath>
<clipPath id="clip_22">
<path transform="matrix(2.7777777,0,0,-2.7777777,446.67536,386.08509)" d="M-6.5-6.5H6.5V6.5H-6.5Z"/>
</clipPath>
<clipPath id="clip_23">
<path transform="matrix(2.7777777,0,0,-2.7777777,446.67536,386.08509)" d="M-6.5-6.5H6.5V6.5H-6.5Z"/>
</clipPath>
<clipPath id="clip_24">
<path transform="matrix(2.7777777,0,0,-2.7777777,446.67536,386.08509)" d="M-6.5-6.5H6.5V6.5H-6.5Z"/>
</clipPath>
<clipPath id="clip_25">
<path transform="matrix(2.7777777,0,0,-2.7777777,446.67536,386.08509)" d="M-6.5-6.5H6.5V6.5H-6.5Z"/>
</clipPath>
<clipPath id="clip_26">
<path transform="matrix(2.7777777,0,0,-2.7777777,446.67536,386.08509)" d="M-6.5-6.5H6.5V6.5H-6.5Z"/>
</clipPath>
<clipPath id="clip_27">
<path transform="matrix(2.7777777,0,0,-2.7777777,446.67536,386.08509)" d="M-6.5-6.5H6.5V6.5H-6.5Z"/>
</clipPath>
<clipPath id="clip_28">
<path transform="matrix(2.7777777,0,0,-2.7777777,0,818.69796)" d="M42.60625 37.54375H279V273.9375H42.60625Z"/>
</clipPath>
<clipPath id="clip_29">
<path transform="matrix(2.7777777,0,0,-2.7777777,0,818.69796)" d="M42.60625 37.54375H279V273.9375H42.60625Z"/>
</clipPath>
<clipPath id="clip_30">
<path transform="matrix(2.7777777,0,0,-2.7777777,0,818.69796)" d="M325.20625 37.54375H561.6V273.9375H325.20625Z"/>
</clipPath>
<clipPath id="clip_31">
<path transform="matrix(.027777777,0,0,-.027777777,948.55117,754.9479)" d="M-1021-463H1794V1233H-1021Z"/>
</clipPath>
<clipPath id="clip_32">
<path transform="matrix(2.7777777,0,0,-2.7777777,0,818.69796)" d="M325.20625 37.54375H561.6V273.9375H325.20625Z"/>
</clipPath>
<clipPath id="clip_33">
<path transform="matrix(.027777777,0,0,-.027777777,1079.8811,754.9479)" d="M-1021-463H1794V1233H-1021Z"/>
</clipPath>
<clipPath id="clip_34">
<path transform="matrix(2.7777777,0,0,-2.7777777,0,818.69796)" d="M325.20625 37.54375H561.6V273.9375H325.20625Z"/>
</clipPath>
<clipPath id="clip_35">
<path transform="matrix(2.7777777,0,0,-2.7777777,0,818.69796)" d="M325.20625 37.54375H561.6V273.9375H325.20625Z"/>
</clipPath>
<clipPath id="clip_36">
<path transform="matrix(2.7777777,0,0,-2.7777777,0,818.69796)" d="M325.20625 37.54375H561.6V273.9375H325.20625Z"/>
</clipPath>
<clipPath id="clip_37">
<path transform="matrix(2.7777777,0,0,-2.7777777,0,818.69796)" d="M325.20625 37.54375H561.6V273.9375H325.20625Z"/>
</clipPath>
<clipPath id="clip_38">
<path transform="matrix(.027777777,0,0,-.027777777,842.97738,659.2917)" d="M-1021-463H1794V1233H-1021Z"/>
</clipPath>
<clipPath id="clip_39">
<path transform="matrix(2.7777777,0,0,-2.7777777,0,818.69796)" d="M325.20625 37.54375H561.6V273.9375H325.20625Z"/>
</clipPath>
<clipPath id="clip_40">
<path transform="matrix(.027777777,0,0,-.027777777,842.97738,527.9618)" d="M-1021-463H1794V1233H-1021Z"/>
</clipPath>
<clipPath id="clip_41">
<path transform="matrix(2.7777777,0,0,-2.7777777,0,818.69796)" d="M325.20625 37.54375H561.6V273.9375H325.20625Z"/>
</clipPath>
<clipPath id="clip_42">
<path transform="matrix(2.7777777,0,0,-2.7777777,0,818.69796)" d="M325.20625 37.54375H561.6V273.9375H325.20625Z"/>
</clipPath>
<clipPath id="clip_43">
<path transform="matrix(2.7777777,0,0,-2.7777777,0,818.69796)" d="M325.20625 37.54375H561.6V273.9375H325.20625Z"/>
</clipPath>
<clipPath id="clip_44">
<path transform="matrix(2.7777777,0,0,-2.7777777,0,818.69796)" d="M325.20625 37.54375H561.6V273.9375H325.20625Z"/>
</clipPath>
<clipPath id="clip_45">
<path transform="matrix(.027777777,0,0,-.027777777,1165.0087,39.48788)" d="M-1016-351H1660V1068H-1016Z"/>
</clipPath>
<clipPath id="clip_46">
<path transform="matrix(2.7777777,0,0,-2.7777777,0,818.69796)" d="M325.20625 37.54375H561.6V273.9375H325.20625Z"/>
</clipPath>
<clipPath id="clip_47">
<path transform="matrix(2.7777777,0,0,-2.7777777,1428.67,189.0903)" d="M-6.5-6.5H6.5V6.5H-6.5Z"/>
</clipPath>
<clipPath id="clip_48">
<path transform="matrix(2.7777777,0,0,-2.7777777,1495.4464,315.4078)" d="M-6.5-6.5H6.5V6.5H-6.5Z"/>
</clipPath>
<clipPath id="clip_49">
<path transform="matrix(2.7777777,0,0,-2.7777777,1420.9454,196.8148)" d="M-6.5-6.5H6.5V6.5H-6.5Z"/>
</clipPath>
<clipPath id="clip_50">
<path transform="matrix(2.7777777,0,0,-2.7777777,1485.1035,318.17918)" d="M-6.5-6.5H6.5V6.5H-6.5Z"/>
</clipPath>
<clipPath id="clip_51">
<path transform="matrix(2.7777777,0,0,-2.7777777,1413.5239,204.23645)" d="M-6.5-6.5H6.5V6.5H-6.5Z"/>
</clipPath>
<clipPath id="clip_52">
<path transform="matrix(2.7777777,0,0,-2.7777777,1475.1661,320.8419)" d="M-6.5-6.5H6.5V6.5H-6.5Z"/>
</clipPath>
<clipPath id="clip_53">
<path transform="matrix(2.7777777,0,0,-2.7777777,1406.3933,211.36705)" d="M-6.5-6.5H6.5V6.5H-6.5Z"/>
</clipPath>
<clipPath id="clip_54">
<path transform="matrix(2.7777777,0,0,-2.7777777,1465.6183,323.40019)" d="M-6.5-6.5H6.5V6.5H-6.5Z"/>
</clipPath>
<clipPath id="clip_55">
<path transform="matrix(2.7777777,0,0,-2.7777777,0,818.69796)" d="M325.20625 37.54375H561.6V273.9375H325.20625Z"/>
</clipPath>
<clipPath id="clip_56">
<path transform="matrix(2.7777777,0,0,-2.7777777,0,818.69796)" d="M325.20625 37.54375H561.6V273.9375H325.20625Z"/>
</clipPath>
</defs>
<path transform="matrix(2.7777777,0,0,-2.7777777,0,818.69796)" d="M0 0H568.8V294.73127H0Z" fill="#ffffff"/>
<path transform="matrix(2.7777777,0,0,-2.7777777,0,818.69796)" d="M42.60625 37.54375H279V273.9375H42.60625Z" fill="#ffffff"/>
<g clip-path="url(#clip_1)">
<path transform="matrix(2.7777777,0,0,-2.7777777,0,818.69796)" stroke-width=".8" stroke-linecap="butt" stroke-dasharray=".8,1.32" stroke-linejoin="round" fill="none" stroke="#b0b0b0" stroke-opacity=".4" d="M66.24563 37.54375V273.9375"/>
</g>
<path transform="matrix(2.7777777,0,0,-2.7777777,0,818.69796)" d="M66.24563 37.54375V34.04375"/>
<path transform="matrix(2.7777777,0,0,-2.7777777,0,818.69796)" stroke-width=".8" stroke-linecap="butt" stroke-linejoin="round" fill="none" stroke="#000000" d="M66.24563 37.54375V34.04375"/>
<use data-text="4" xlink:href="#font_2_52" transform="matrix(27.777777,0,0,-27.777777,186.82595,754.9479)"/>
<g clip-path="url(#clip_3)">
<path transform="matrix(.027777777,0,0,-.027777777,163.55121,754.9479)" d="M106 355H732V272H106V355Z"/>
</g>
<g clip-path="url(#clip_4)">
<path transform="matrix(2.7777777,0,0,-2.7777777,0,818.69796)" stroke-width=".8" stroke-linecap="butt" stroke-dasharray=".8,1.32" stroke-linejoin="round" fill="none" stroke="#b0b0b0" stroke-opacity=".4" d="M113.524379 37.54375V273.9375"/>
</g>
<path transform="matrix(2.7777777,0,0,-2.7777777,0,818.69796)" d="M113.524379 37.54375V34.04375"/>
<path transform="matrix(2.7777777,0,0,-2.7777777,0,818.69796)" stroke-width=".8" stroke-linecap="butt" stroke-linejoin="round" fill="none" stroke="#000000" d="M113.524379 37.54375V34.04375"/>
<use data-text="2" xlink:href="#font_2_50" transform="matrix(27.777777,0,0,-27.777777,318.15583,754.9479)"/>
<g clip-path="url(#clip_5)">
<path transform="matrix(.027777777,0,0,-.027777777,294.88108,754.9479)" d="M106 355H732V272H106V355Z"/>
</g>
<g clip-path="url(#clip_6)">
<path transform="matrix(2.7777777,0,0,-2.7777777,0,818.69796)" stroke-width=".8" stroke-linecap="butt" stroke-dasharray=".8,1.32" stroke-linejoin="round" fill="none" stroke="#b0b0b0" stroke-opacity=".4" d="M160.80313 37.54375V273.9375"/>
</g>
<path transform="matrix(2.7777777,0,0,-2.7777777,0,818.69796)" d="M160.80313 37.54375V34.04375"/>
<path transform="matrix(2.7777777,0,0,-2.7777777,0,818.69796)" stroke-width=".8" stroke-linecap="butt" stroke-linejoin="round" fill="none" stroke="#000000" d="M160.80313 37.54375V34.04375"/>
<use data-text="0" xlink:href="#font_2_48" transform="matrix(27.777777,0,0,-27.777777,437.8429,754.9479)"/>
<g clip-path="url(#clip_7)">
<path transform="matrix(2.7777777,0,0,-2.7777777,0,818.69796)" stroke-width=".8" stroke-linecap="butt" stroke-dasharray=".8,1.32" stroke-linejoin="round" fill="none" stroke="#b0b0b0" stroke-opacity=".4" d="M208.08188 37.54375V273.9375"/>
</g>
<path transform="matrix(2.7777777,0,0,-2.7777777,0,818.69796)" d="M208.08188 37.54375V34.04375"/>
<path transform="matrix(2.7777777,0,0,-2.7777777,0,818.69796)" stroke-width=".8" stroke-linecap="butt" stroke-linejoin="round" fill="none" stroke="#000000" d="M208.08188 37.54375V34.04375"/>
<use data-text="2" xlink:href="#font_2_50" transform="matrix(27.777777,0,0,-27.777777,569.1727,754.9479)"/>
<g clip-path="url(#clip_8)">
<path transform="matrix(2.7777777,0,0,-2.7777777,0,818.69796)" stroke-width=".8" stroke-linecap="butt" stroke-dasharray=".8,1.32" stroke-linejoin="round" fill="none" stroke="#b0b0b0" stroke-opacity=".4" d="M255.36063 37.54375V273.9375"/>
</g>
<path transform="matrix(2.7777777,0,0,-2.7777777,0,818.69796)" d="M255.36063 37.54375V34.04375"/>
<path transform="matrix(2.7777777,0,0,-2.7777777,0,818.69796)" stroke-width=".8" stroke-linecap="butt" stroke-linejoin="round" fill="none" stroke="#000000" d="M255.36063 37.54375V34.04375"/>
<use data-text="4" xlink:href="#font_2_52" transform="matrix(27.777777,0,0,-27.777777,700.50259,754.9479)"/>
<use data-text="x" xlink:href="#font_9_120" transform="matrix(27.777777,0,0,-27.777777,431.39759,791.4496)"/>
<use data-text="1" xlink:href="#font_2_49" transform="matrix(19.444443,0,0,-19.444443,447.8364,796.0069)"/>
<g clip-path="url(#clip_10)">
<path transform="matrix(2.7777777,0,0,-2.7777777,0,818.69796)" stroke-width=".8" stroke-linecap="butt" stroke-dasharray=".8,1.32" stroke-linejoin="round" fill="none" stroke="#b0b0b0" stroke-opacity=".4" d="M42.60625 61.183126H279"/>
</g>
<path transform="matrix(2.7777777,0,0,-2.7777777,0,818.69796)" d="M42.60625 61.183126H39.10625"/>
<path transform="matrix(2.7777777,0,0,-2.7777777,0,818.69796)" stroke-width=".8" stroke-linecap="butt" stroke-linejoin="round" fill="none" stroke="#000000" d="M42.60625 61.183126H39.10625"/>
<use data-text="4" xlink:href="#font_2_52" transform="matrix(27.777777,0,0,-27.777777,81.25217,659.2917)"/>
<g clip-path="url(#clip_11)">
<path transform="matrix(.027777777,0,0,-.027777777,57.977434,659.2917)" d="M106 355H732V272H106V355Z"/>
</g>
<g clip-path="url(#clip_12)">
<path transform="matrix(2.7777777,0,0,-2.7777777,0,818.69796)" stroke-width=".8" stroke-linecap="butt" stroke-dasharray=".8,1.32" stroke-linejoin="round" fill="none" stroke="#b0b0b0" stroke-opacity=".4" d="M42.60625 108.461879H279"/>
</g>
<path transform="matrix(2.7777777,0,0,-2.7777777,0,818.69796)" d="M42.60625 108.461879H39.10625"/>
<path transform="matrix(2.7777777,0,0,-2.7777777,0,818.69796)" stroke-width=".8" stroke-linecap="butt" stroke-linejoin="round" fill="none" stroke="#000000" d="M42.60625 108.461879H39.10625"/>
<use data-text="2" xlink:href="#font_2_50" transform="matrix(27.777777,0,0,-27.777777,81.25217,527.9618)"/>
<g clip-path="url(#clip_13)">
<path transform="matrix(.027777777,0,0,-.027777777,57.977434,527.9618)" d="M106 355H732V272H106V355Z"/>
</g>
<g clip-path="url(#clip_14)">
<path transform="matrix(2.7777777,0,0,-2.7777777,0,818.69796)" stroke-width=".8" stroke-linecap="butt" stroke-dasharray=".8,1.32" stroke-linejoin="round" fill="none" stroke="#b0b0b0" stroke-opacity=".4" d="M42.60625 155.74063H279"/>
</g>
<path transform="matrix(2.7777777,0,0,-2.7777777,0,818.69796)" d="M42.60625 155.74063H39.10625"/>
<path transform="matrix(2.7777777,0,0,-2.7777777,0,818.69796)" stroke-width=".8" stroke-linecap="butt" stroke-linejoin="round" fill="none" stroke="#000000" d="M42.60625 155.74063H39.10625"/>
<use data-text="0" xlink:href="#font_2_48" transform="matrix(27.777777,0,0,-27.777777,81.24132,396.63197)"/>
<g clip-path="url(#clip_15)">
<path transform="matrix(2.7777777,0,0,-2.7777777,0,818.69796)" stroke-width=".8" stroke-linecap="butt" stroke-dasharray=".8,1.32" stroke-linejoin="round" fill="none" stroke="#b0b0b0" stroke-opacity=".4" d="M42.60625 203.01938H279"/>
</g>
<path transform="matrix(2.7777777,0,0,-2.7777777,0,818.69796)" d="M42.60625 203.01938H39.10625"/>
<path transform="matrix(2.7777777,0,0,-2.7777777,0,818.69796)" stroke-width=".8" stroke-linecap="butt" stroke-linejoin="round" fill="none" stroke="#000000" d="M42.60625 203.01938H39.10625"/>
<use data-text="2" xlink:href="#font_2_50" transform="matrix(27.777777,0,0,-27.777777,81.24132,265.3021)"/>
<g clip-path="url(#clip_16)">
<path transform="matrix(2.7777777,0,0,-2.7777777,0,818.69796)" stroke-width=".8" stroke-linecap="butt" stroke-dasharray=".8,1.32" stroke-linejoin="round" fill="none" stroke="#b0b0b0" stroke-opacity=".4" d="M42.60625 250.29813H279"/>
</g>
<path transform="matrix(2.7777777,0,0,-2.7777777,0,818.69796)" d="M42.60625 250.29813H39.10625"/>
<path transform="matrix(2.7777777,0,0,-2.7777777,0,818.69796)" stroke-width=".8" stroke-linecap="butt" stroke-linejoin="round" fill="none" stroke="#000000" d="M42.60625 250.29813H39.10625"/>
<use data-text="4" xlink:href="#font_2_52" transform="matrix(27.777777,0,0,-27.777777,81.24132,133.97225)"/>
<use data-text="x" xlink:href="#font_9_120" transform="matrix(0,-27.777777,-27.777777,-0,39.618055,401.36286)"/>
<use data-text="2" xlink:href="#font_2_50" transform="matrix(0,-19.444443,-19.444443,-0,44.175344,384.92405)"/>
<g clip-path="url(#clip_17)">
<path transform="matrix(2.7777777,0,0,-2.7777777,0,818.69796)" stroke-width="1.5" stroke-linecap="butt" stroke-linejoin="round" fill="none" stroke="#f7fcfd" d="M160.20917 154.56896 159.63146 155.14667V156.33458L160.20917 156.91231H161.39708L161.97481 156.33458V155.14667L161.39708 154.56896H160.20917"/>
<path transform="matrix(2.7777777,0,0,-2.7777777,0,818.69796)" stroke-width="1.5" stroke-linecap="butt" stroke-linejoin="round" fill="none" stroke="#f7fcfd" d="M160.20917 153.41306 159.11777 153.95876 159.02126 154.05527 158.47556 155.14667V156.33458L159.02126 157.42598 159.11777 157.52249 160.20917 158.06819H161.39708L162.48848 157.52249 162.58499 157.42598 163.13069 156.33458V155.14667L162.58499 154.05527 162.48848 153.95876 161.39708 153.41306H160.20917Z"/>
<path transform="matrix(2.7777777,0,0,-2.7777777,0,818.69796)" stroke-width="1.5" stroke-linecap="butt" stroke-linejoin="round" fill="none" stroke="#f7fcfd" d="M160.20917 151.54204 160.04553 151.58295 159.02126 151.92436 157.83336 152.71631 157.77881 152.77086 156.98686 153.95876 156.64545 154.98303 156.60454 155.14667V156.33458L156.64545 156.49822 156.98686 157.52249 157.77881 158.7104 157.83336 158.76494 159.02126 159.55689 160.04553 159.8983 160.20917 159.93921H161.39708L161.56072 159.8983 162.58499 159.55689 163.7729 158.76494 163.82744 158.7104 164.61939 157.52249 164.9608 156.49822 165.00171 156.33458V155.14667L164.9608 154.98303 164.61939 153.95876 163.82744 152.77086 163.7729 152.71631 162.58499 151.92436 161.56072 151.58295 161.39708 151.54204H160.20917"/>
<path transform="matrix(2.7777777,0,0,-2.7777777,0,818.69796)" stroke-width="1.5" stroke-linecap="butt" stroke-linejoin="round" fill="none" stroke="#f7fcfd" d="M157.83336 149.09545 157.60997 149.20713 156.64545 149.78585 155.88396 150.39504 155.45754 150.82146 154.84835 151.58295 154.26963 152.54747 154.15795 152.77086 153.76197 153.95876 153.56398 155.14667V156.33458L153.76197 157.52249 154.15795 158.7104 154.26963 158.93378 154.84835 159.8983 155.45754 160.65979 155.88396 161.08621 156.64545 161.6954 157.60997 162.27413 157.83336 162.38582 159.02126 162.78179 160.20917 162.97977H161.39708L162.58499 162.78179 163.7729 162.38582 163.99628 162.27413 164.9608 161.6954 165.72229 161.08621 166.14871 160.65979 166.7579 159.8983 167.33663 158.93378 167.44832 158.7104 167.84429 157.52249 168.04227 156.33458V155.14667L167.84429 153.95876 167.44832 152.77086 167.33663 152.54747 166.7579 151.58295 166.14871 150.82146 165.72229 150.39504 164.9608 149.78585 163.99628 149.20713 163.7729 149.09545 162.58499 148.69947 161.39708 148.50148H160.20917L159.02126 148.69947 157.83336 149.09545Z"/>
<path transform="matrix(2.7777777,0,0,-2.7777777,0,818.69796)" stroke-width="1.5" stroke-linecap="butt" stroke-linejoin="round" fill="none" stroke="#eff6fa" d="M160.20917 143.24987 160.0142 143.2676 159.02126 143.36688 157.83336 143.60446 156.64545 143.96083 155.45754 144.436 155.41855 144.45549 154.26963 145.09378 153.44519 145.6434 153.08173 145.91602 152.03566 146.83132 151.89382 146.97316 150.97852 148.01923 150.7059 148.38269 150.15628 149.20713 149.51799 150.35605 149.4985 150.39504 149.02333 151.58295 148.66696 152.77086 148.42938 153.95876 148.3301 154.9517 148.31237 155.14667V156.33458L148.3301 156.52956 148.42938 157.52249 148.66696 158.7104 149.02333 159.8983 149.4985 161.08621 149.51799 161.12522 150.15628 162.27413 150.7059 163.09856 150.97852 163.46204 151.89382 164.50809 152.03566 164.64994 153.08173 165.56525 153.44519 165.83785 154.26963 166.38747 155.41855 167.02576 155.45754 167.04526 156.64545 167.52042 157.83336 167.87679 159.02126 168.11437 160.0142 168.21367 160.20917 168.23139H161.39708L161.59206 168.21367 162.58499 168.11437 163.7729 167.87679 164.9608 167.52042 166.14871 167.04526 166.18772 167.02576 167.33663 166.38747 168.16106 165.83785 168.52454 165.56525 169.57059 164.64994 169.71244 164.50809 170.62775 163.46204 170.90035 163.09856 171.44997 162.27413 172.08826 161.12522 172.10776 161.08621 172.58292 159.8983 172.93929 158.7104 173.17687 157.52249 173.27617 156.52956 173.29389 156.33458V155.14667L173.27617 154.9517 173.17687 153.95876 172.93929 152.77086 172.58292 151.58295 172.10776 150.39504 172.08826 150.35605 171.44997 149.20713 170.90035 148.38269 170.62775 148.01923 169.71244 146.97316 169.57059 146.83132 168.52454 145.91602 168.16106 145.6434 167.33663 145.09378 166.18772 144.45549 166.14871 144.436 164.9608 143.96083 163.7729 143.60446 162.58499 143.36688 161.59206 143.2676 161.39708 143.24987H160.20917"/>
<path transform="matrix(2.7777777,0,0,-2.7777777,0,818.69796)" stroke-width="1.5" stroke-linecap="butt" stroke-linejoin="round" fill="none" stroke="#e4eef5" d="M156.64545 134.69065 155.46833 134.95223 155.45754 134.95478 154.26963 135.30416 153.08173 135.72342 152.06967 136.14014 151.89382 136.21707 150.7059 136.81104 149.78678 137.32805 149.51799 137.4893 148.3301 138.28125 148.01004 138.51596 147.14218 139.19785 146.55182 139.70386 145.95427 140.25545 145.31795 140.89177 144.76636 141.48932 144.26035 142.07968 143.57846 142.94754 143.34375 143.2676 142.5518 144.45549 142.39055 144.72428 141.87354 145.6434 141.27957 146.83132 141.20264 147.00717 140.78592 148.01923 140.36666 149.20713 140.01728 150.39504 140.01473 150.40583 139.75315 151.58295 139.55516 152.77086 139.42317 153.95876 139.35718 155.14667V156.33458L139.42317 157.52249 139.55516 158.7104 139.75315 159.8983 140.01473 161.07544 140.01728 161.08621 140.36666 162.27413 140.78592 163.46204 141.20264 164.47408 141.27957 164.64994 141.87354 165.83785 142.39055 166.75699 142.5518 167.02576 143.34375 168.21367 143.57846 168.53372 144.26035 169.40157 144.76636 169.99193 145.31795 170.58948 145.95427 171.2258 146.55182 171.77739 147.14218 172.28342 148.01004 172.9653 148.3301 173.2 149.51799 173.99195 149.78678 174.1532 150.7059 174.67021 151.89382 175.26418 152.06967 175.34111 153.08173 175.75785 154.26963 176.1771 155.45754 176.52649 155.46833 176.52902 156.64545 176.7906 157.83336 176.98859 159.02126 177.12058 160.20917 177.18657H161.39708L162.58499 177.12058 163.7729 176.98859 164.9608 176.7906 166.13794 176.52902 166.14871 176.52649 167.33663 176.1771 168.52454 175.75785 169.53658 175.34111 169.71244 175.26418 170.90035 174.67021 171.81949 174.1532 172.08826 173.99195 173.27617 173.2 173.59622 172.9653 174.46407 172.28342 175.05443 171.77739 175.65198 171.2258 176.2883 170.58948 176.83989 169.99193 177.34592 169.40157 178.0278 168.53372 178.2625 168.21367 179.05445 167.02576 179.2157 166.75699 179.73271 165.83785 180.32668 164.64994 180.40361 164.47408 180.82035 163.46204 181.2396 162.27413 181.58899 161.08621 181.59152 161.07544 181.8531 159.8983 182.05109 158.7104 182.18308 157.52249 182.24907 156.33458V155.14667L182.18308 153.95876 182.05109 152.77086 181.8531 151.58295 181.59152 150.40583 181.58899 150.39504 181.2396 149.20713 180.82035 148.01923 180.40361 147.00717 180.32668 146.83132 179.73271 145.6434 179.2157 144.72428 179.05445 144.45549 178.2625 143.2676 178.0278 142.94754 177.34592 142.07968 176.83989 141.48932 176.2883 140.89177 175.65198 140.25545 175.05443 139.70386 174.46407 139.19785 173.59622 138.51596 173.27617 138.28125 172.08826 137.4893 171.81949 137.32805 170.90035 136.81104 169.71244 136.21707 169.53658 136.14014 168.52454 135.72342 167.33663 135.30416 166.14871 134.95478 166.13794 134.95223 164.9608 134.69065 163.7729 134.49266 162.58499 134.36067 161.39708 134.29468H160.20917L159.02126 134.36067 157.83336 134.49266 156.64545 134.69065Z"/>
<path transform="matrix(2.7777777,0,0,-2.7777777,0,818.69796)" stroke-width="1.5" stroke-linecap="butt" stroke-linejoin="round" fill="none" stroke="#d4e3ef" d="M154.26963 119.49139 154.17647 119.50942 153.08173 119.72837 151.89382 120.00555 150.7059 120.32233 149.51799 120.678699 149.4621 120.69733 148.3301 121.08768 147.14218 121.53826 146.30365 121.88524 145.95427 122.03497 144.76636 122.5865 143.79308 123.07315 143.57846 123.18443 142.39055 123.84438 141.68741 124.261058 141.20264 124.55938 140.01473 125.33608 139.85169 125.44897 138.82683 126.18687 138.23471 126.63687 137.63892 127.10854 136.77944 127.82478 136.451 128.11037 135.46276 129.0127 135.26309 129.20326 134.26576 130.20059 134.0752 130.40026 133.17287 131.3885 132.88729 131.71694 132.17104 132.57642 131.69937 133.17221 131.24936 133.76433 130.51146 134.78919 130.39859 134.95223 129.62187 136.14014 129.32357 136.62491 128.90688 137.32805 128.24694 138.51596 128.13565 138.73058 127.649 139.70386 127.09747 140.89177 126.94774 141.24115 126.60076 142.07968 126.15018 143.2676 125.75983 144.3996 125.741199 144.45549 125.38483 145.6434 125.06805 146.83132 124.79087 148.01923 124.57192 149.11397 124.55389 149.20713 124.36229 150.39504 124.209018 151.58295 124.094058 152.77086 124.01742 153.95876 123.979099 155.14667V156.33458L124.01742 157.52249 124.094058 158.7104 124.209018 159.8983 124.36229 161.08621 124.55389 162.27413 124.57192 162.3673 124.79087 163.46204 125.06805 164.64994 125.38483 165.83785 125.741199 167.02576 125.75983 167.08165 126.15018 168.21367 126.60076 169.40157 126.94774 170.2401 127.09747 170.58948 127.649 171.77739 128.13565 172.75067 128.24694 172.9653 128.90688 174.1532 129.32357 174.85634 129.62187 175.34111 130.39859 176.52902 130.51146 176.69207 131.24936 177.71694 131.69937 178.30904 132.17104 178.90483 132.88729 179.76433 133.17287 180.09275 134.0752 181.08101 134.26576 181.28066 135.26309 182.27799 135.46276 182.46857 136.451 183.37088 136.77944 183.65647 137.63892 184.37271 138.23471 184.84438 138.82683 185.29439 139.85169 186.03229 140.01473 186.14516 141.20264 186.92188 141.68741 187.2202 142.39055 187.63687 143.57846 188.29682 143.79308 188.4081 144.76636 188.89475 145.95427 189.44628 146.30365 189.59601 147.14218 189.943 148.3301 190.39357 149.4621 190.78392 149.51799 190.80255 150.7059 191.15892 151.89382 191.47571 153.08173 191.75289 154.17647 191.97183 154.26963 191.98986 155.45754 192.18146 156.64545 192.33473 157.83336 192.44969 159.02126 192.52634 160.20917 192.56465H161.39708L162.58499 192.52634 163.7729 192.44969 164.9608 192.33473 166.14871 192.18146 167.33663 191.98986 167.4298 191.97183 168.52454 191.75289 169.71244 191.47571 170.90035 191.15892 172.08826 190.80255 172.14415 190.78392 173.27617 190.39357 174.46407 189.943 175.3026 189.59601 175.65198 189.44628 176.83989 188.89475 177.81317 188.4081 178.0278 188.29682 179.2157 187.63687 179.91884 187.2202 180.40361 186.92188 181.59152 186.14516 181.75457 186.03229 182.77944 185.29439 183.37154 184.84438 183.96733 184.37271 184.82683 183.65647 185.15525 183.37088 186.14351 182.46857 186.34316 182.27799 187.34049 181.28066 187.53107 181.08101 188.43338 180.09275 188.71897 179.76433 189.43521 178.90483 189.90688 178.30904 190.35689 177.71694 191.09479 176.69207 191.20766 176.52902 191.98438 175.34111 192.2827 174.85634 192.69937 174.1532 193.35932 172.9653 193.4706 172.75067 193.95725 171.77739 194.50878 170.58948 194.65851 170.2401 195.0055 169.40157 195.45607 168.21367 195.84642 167.08165 195.86505 167.02576 196.22142 165.83785 196.53821 164.64994 196.81539 163.46204 197.03433 162.3673 197.05236 162.27413 197.24396 161.08621 197.39723 159.8983 197.51219 158.7104 197.58884 157.52249 197.62715 156.33458V155.14667L197.58884 153.95876 197.51219 152.77086 197.39723 151.58295 197.24396 150.39504 197.05236 149.20713 197.03433 149.11397 196.81539 148.01923 196.53821 146.83132 196.22142 145.6434 195.86505 144.45549 195.84642 144.3996 195.45607 143.2676 195.0055 142.07968 194.65851 141.24115 194.50878 140.89177 193.95725 139.70386 193.4706 138.73058 193.35932 138.51596 192.69937 137.32805 192.2827 136.62491 191.98438 136.14014 191.20766 134.95223 191.09479 134.78919 190.35689 133.76433 189.90688 133.17221 189.43521 132.57642 188.71897 131.71694 188.43338 131.3885 187.53107 130.40026 187.34049 130.20059 186.34316 129.20326 186.14351 129.0127 185.15525 128.11037 184.82683 127.82478 183.96733 127.10854 183.37154 126.63687 182.77944 126.18687 181.75457 125.44897 181.59152 125.33608 180.40361 124.55938 179.91884 124.261058 179.2157 123.84438 178.0278 123.18443 177.81317 123.07315 176.83989 122.5865 175.65198 122.03497 175.3026 121.88524 174.46407 121.53826 173.27617 121.08768 172.14415 120.69733 172.08826 120.678699 170.90035 120.32233 169.71244 120.00555 168.52454 119.72837 167.4298 119.50942 167.33663 119.49139 166.14871 119.29979 164.9608 119.146518 163.7729 119.031558 162.58499 118.95492 161.39708 118.916599H160.20917L159.02126 118.95492 157.83336 119.031558 156.64545 119.146518 155.45754 119.29979 154.26963 119.49139Z"/>
<path transform="matrix(2.7777777,0,0,-2.7777777,0,818.69796)" stroke-width="1.5" stroke-linecap="butt" stroke-linejoin="round" fill="none" stroke="#c4d7e8" d="M150.7059 93.33873 150.48975 93.37544 149.51799 93.543628 148.3301 93.77207 147.14218 94.02336 145.95427 94.29749 144.89084 94.56335 144.76636 94.59508 143.57846 94.92117 142.39055 95.27055 141.20264 95.643238 140.87857 95.75126 140.01473 96.04496 138.82683 96.47261 137.63892 96.92401 137.60103 96.93916 136.451 97.40856 135.26309 97.91767 134.79669 98.127079 134.0752 98.45776 132.88729 99.02697 132.31127 99.31498 131.69937 99.62743 130.51146 100.2593 130.07112 100.50289 129.32357 100.92543 128.13565 101.62268 128.02375 101.690799 126.94774 102.36031 126.14333 102.87871 125.75983 103.13147 124.57192 103.94141 124.3942 104.06661 123.38401 104.79489 122.76639 105.254528 122.196109 105.68902 121.23722 106.44243 121.008197 106.62677 119.82029 107.61186 119.798648 107.63034 118.63238 108.65082 118.44635 108.818248 117.44447 109.74306 117.16715 110.00616 116.25656 110.892787 115.955287 111.19406 115.06866 112.10465 114.80556 112.38197 113.880748 113.38385 113.71332 113.56988 112.69284 114.736148 112.67436 114.75779 111.68927 115.945697 111.50493 116.17472 110.75152 117.133609 110.317028 117.70389 109.85739 118.32151 109.12911 119.3317 109.00391 119.50942 108.19397 120.69733 107.94121 121.08083 107.42281 121.88524 106.753299 122.96124 106.68518 123.07315 105.98793 124.261058 105.56539 125.00863 105.3218 125.44897 104.68993 126.63687 104.37748 127.24876 104.08947 127.82478 103.52026 129.0127 103.189579 129.73419 102.98017 130.20059 102.47106 131.3885 102.00166 132.53853 101.98651 132.57642 101.53511 133.76433 101.10746 134.95223 100.81376 135.81607 100.705738 136.14014 100.33305 137.32805 99.98367 138.51596 99.65758 139.70386 99.62585 139.82834 99.35999 140.89177 99.08586 142.07968 98.83457 143.2676 98.606128 144.45549 98.43794 145.42725 98.40123 145.6434 98.221927 146.83132 98.06503 148.01923 97.93055 149.20713 97.81849 150.39504 97.72883 151.58295 97.66159 152.77086 97.61677 153.95876 97.59435 155.14667V156.33458L97.61677 157.52249 97.66159 158.7104 97.72883 159.8983 97.81849 161.08621 97.93055 162.27413 98.06503 163.46204 98.221927 164.64994 98.40123 165.83785 98.43794 166.054 98.606128 167.02576 98.83457 168.21367 99.08586 169.40157 99.35999 170.58948 99.62585 171.65291 99.65758 171.77739 99.98367 172.9653 100.33305 174.1532 100.705738 175.34111 100.81376 175.66518 101.10746 176.52902 101.53511 177.71694 101.98651 178.90483 102.00166 178.94272 102.47106 180.09275 102.98017 181.28066 103.189579 181.74706 103.52026 182.46857 104.08947 183.65647 104.37748 184.2325 104.68993 184.84438 105.3218 186.03229 105.56539 186.47263 105.98793 187.2202 106.68518 188.4081 106.753299 188.52 107.42281 189.59601 107.94121 190.40042 108.19397 190.78392 109.00391 191.97183 109.12911 192.14954 109.85739 193.15973 110.317028 193.77736 110.75152 194.34764 111.50493 195.30654 111.68927 195.53556 112.67436 196.72347 112.69284 196.7451 113.71332 197.91136 113.880748 198.0974 114.80556 199.09928 115.06866 199.3766 115.955287 200.28719 116.25656 200.58847 117.16715 201.4751 117.44447 201.73819 118.44635 202.66301 118.63238 202.83043 119.798648 203.8509 119.82029 203.86939 121.008197 204.85448 121.23722 205.03882 122.196109 205.79222 122.76639 206.22673 123.38401 206.68636 124.3942 207.41464 124.57192 207.53984 125.75983 208.34978 126.14333 208.60254 126.94774 209.12094 128.02375 209.79045 128.13565 209.85857 129.32357 210.55582 130.07112 210.97837 130.51146 211.22196 131.69937 211.85382 132.31127 212.16628 132.88729 212.45429 134.0752 213.02349 134.79669 213.35417 135.26309 213.56359 136.451 214.07268 137.60103 214.54209 137.63892 214.55724 138.82683 215.00864 140.01473 215.4363 140.87857 215.73 141.20264 215.83802 142.39055 216.2107 143.57846 216.56008 144.76636 216.88617 144.89084 216.91791 145.95427 217.18376 147.14218 217.45789 148.3301 217.70919 149.51799 217.93762 150.48975 218.1058 150.7059 218.14252 151.89382 218.32183 153.08173 218.47872 154.26963 218.6132 155.45754 218.72527 156.64545 218.81491 157.83336 218.88216 159.02126 218.92699 160.20917 218.9494H161.39708L162.58499 218.92699 163.7729 218.88216 164.9608 218.81491 166.14871 218.72527 167.33663 218.6132 168.52454 218.47872 169.71244 218.32183 170.90035 218.14252 171.1165 218.1058 172.08826 217.93762 173.27617 217.70919 174.46407 217.45789 175.65198 217.18376 176.71541 216.91791 176.83989 216.88617 178.0278 216.56008 179.2157 216.2107 180.40361 215.83802 180.72768 215.73 181.59152 215.4363 182.77944 215.00864 183.96733 214.55724 184.00522 214.54209 185.15525 214.07268 186.34316 213.56359 186.80956 213.35417 187.53107 213.02349 188.71897 212.45429 189.295 212.16628 189.90688 211.85382 191.09479 211.22196 191.53513 210.97837 192.2827 210.55582 193.4706 209.85857 193.5825 209.79045 194.65851 209.12094 195.46292 208.60254 195.84642 208.34978 197.03433 207.53984 197.21204 207.41464 198.22223 206.68636 198.83986 206.22673 199.41014 205.79222 200.36904 205.03882 200.59806 204.85448 201.78597 203.86939 201.8076 203.8509 202.97386 202.83043 203.1599 202.66301 204.16178 201.73819 204.4391 201.4751 205.34969 200.58847 205.65097 200.28719 206.5376 199.3766 206.80069 199.09928 207.72551 198.0974 207.89293 197.91136 208.9134 196.7451 208.93189 196.72347 209.91698 195.53556 210.10132 195.30654 210.85472 194.34764 211.28923 193.77736 211.74886 193.15973 212.47714 192.14954 212.60234 191.97183 213.41228 190.78392 213.66504 190.40042 214.18344 189.59601 214.85295 188.52 214.92107 188.4081 215.61832 187.2202 216.04087 186.47263 216.28446 186.03229 216.91632 184.84438 217.22878 184.2325 217.51679 183.65647 218.08599 182.46857 218.41667 181.74706 218.62609 181.28066 219.13518 180.09275 219.60459 178.94272 219.61974 178.90483 220.07114 177.71694 220.4988 176.52902 220.7925 175.66518 220.90052 175.34111 221.2732 174.1532 221.62258 172.9653 221.94867 171.77739 221.98041 171.65291 222.24626 170.58948 222.52039 169.40157 222.77169 168.21367 223.00012 167.02576 223.1683 166.054 223.20502 165.83785 223.38433 164.64994 223.54122 163.46204 223.6757 162.27413 223.78777 161.08621 223.87741 159.8983 223.94466 158.7104 223.98949 157.52249 224.0119 156.33458V155.14667L223.98949 153.95876 223.94466 152.77086 223.87741 151.58295 223.78777 150.39504 223.6757 149.20713 223.54122 148.01923 223.38433 146.83132 223.20502 145.6434 223.1683 145.42725 223.00012 144.45549 222.77169 143.2676 222.52039 142.07968 222.24626 140.89177 221.98041 139.82834 221.94867 139.70386 221.62258 138.51596 221.2732 137.32805 220.90052 136.14014 220.7925 135.81607 220.4988 134.95223 220.07114 133.76433 219.61974 132.57642 219.60459 132.53853 219.13518 131.3885 218.62609 130.20059 218.41667 129.73419 218.08599 129.0127 217.51679 127.82478 217.22878 127.24876 216.91632 126.63687 216.28446 125.44897 216.04087 125.00863 215.61832 124.261058 214.92107 123.07315 214.85295 122.96124 214.18344 121.88524 213.66504 121.08083 213.41228 120.69733 212.60234 119.50942 212.47714 119.3317 211.74886 118.32151 211.28923 117.70389 210.85472 117.133609 210.10132 116.17472 209.91698 115.945697 208.93189 114.75779 208.9134 114.736148 207.89293 113.56988 207.72551 113.38385 206.80069 112.38197 206.5376 112.10465 205.65097 111.19406 205.34969 110.892787 204.4391 110.00616 204.16178 109.74306 203.1599 108.818248 202.97386 108.65082 201.8076 107.63034 201.78597 107.61186 200.59806 106.62677 200.36904 106.44243 199.41014 105.68902 198.83986 105.254528 198.22223 104.79489 197.21204 104.06661 197.03433 103.94141 195.84642 103.13147 195.46292 102.87871 194.65851 102.36031 193.5825 101.690799 193.4706 101.62268 192.2827 100.92543 191.53513 100.50289 191.09479 100.2593 189.90688 99.62743 189.295 99.31498 188.71897 99.02697 187.53107 98.45776 186.80956 98.127079 186.34316 97.91767 185.15525 97.40856 184.00522 96.93916 183.96733 96.92401 182.77944 96.47261 181.59152 96.04496 180.72768 95.75126 180.40361 95.643238 179.2157 95.27055 178.0278 94.92117 176.83989 94.59508 176.71541 94.56335 175.65198 94.29749 174.46407 94.02336 173.27617 93.77207 172.08826 93.543628 171.1165 93.37544 170.90035 93.33873 169.71244 93.159427 168.52454 93.00253 167.33663 92.86805 166.14871 92.75599 164.9608 92.66633 163.7729 92.59909 162.58499 92.55427 161.39708 92.53185H160.20917L159.02126 92.55427 157.83336 92.59909 156.64545 92.66633 155.45754 92.75599 154.26963 92.86805 153.08173 93.00253 151.89382 93.159427 150.7059 93.33873Z"/>
<path transform="matrix(2.7777777,0,0,-2.7777777,0,818.69796)" stroke-width="1.5" stroke-linecap="butt" stroke-linejoin="round" fill="none" stroke="#b3cbe2" d="M147.14218 48.117086 146.24857 48.234926 145.95427 48.274164 144.76636 48.44575 143.57846 48.630537 142.39055 48.82852 141.20264 49.039705 140.01473 49.264089 139.22101 49.422834 138.82683 49.502557 137.63892 49.756155 136.451 50.023099 135.26309 50.30339 134.0752 50.59703 134.02214 50.61074 132.88729 50.907354 131.69937 51.231328 130.51146 51.5688 129.73352 51.79865 129.32357 51.921167 128.13565 52.28983 126.94774 52.672143 126.00449 52.986558 125.75983 53.06906 124.57192 53.483449 123.38401 53.911649 122.67769 54.174467 122.196109 54.355768 121.008197 54.816957 119.82029 55.292119 119.649669 55.362375 118.63238 55.786245 117.44447 56.29535 116.8657 56.55028 116.25656 56.821828 115.06866 57.36569 114.275897 57.73819 113.880748 57.926126 112.69284 58.505594 111.85183 58.926099 111.50493 59.10169 110.317028 59.71764 109.57038 60.11401 109.12911 60.35119 107.94121 61.004537 107.41253 61.301916 106.753299 61.67743 105.56539 62.36912 105.36251 62.489824 104.37748 63.083368 103.41164 63.67773 103.189579 63.816164 102.00166 64.572109 101.549617 64.86564 100.81376 65.34976 99.76497 66.05355 99.62585 66.148159 98.43794 66.97177 98.056308 67.241458 97.25003 67.818927 96.4135 68.42937 96.062129 68.689289 94.874217 69.58429 94.831218 69.61727 93.68631 70.50776 93.310619 70.80518 92.4984 71.457248 91.842449 71.99309 91.31049 72.43385 90.42405 73.181 90.12258 73.438777 89.052928 74.368907 88.93467 74.47325 87.746768 75.53887 87.72709 75.556819 86.55886 76.63786 86.44521 76.74472 85.37095 77.77016 85.2034 77.93263 84.18304 78.93729 83.99979 79.12054 82.99513 80.1409 82.83266 80.30845 81.80722 81.38271 81.70036 81.49636 80.619319 82.66459 80.60137 82.684268 79.53575 83.87217 79.431407 83.990428 78.501277 85.06008 78.2435 85.36155 77.49635 86.24799 77.05559 86.779949 76.519748 87.4359 75.86768 88.248119 75.57026 88.62381 74.67977 89.768718 74.64679 89.811717 73.751789 90.999629 73.49187 91.351 72.881427 92.18753 72.303958 92.993808 72.03427 93.37544 71.210659 94.56335 71.11605 94.70247 70.41226 95.75126 69.92814 96.487117 69.634609 96.93916 68.87866 98.127079 68.740238 98.34914 68.14587 99.31498 67.55232 100.30001 67.431629 100.50289 66.73993 101.690799 66.36442 102.35003 66.06704 102.87871 65.41369 104.06661 65.176509 104.50788 64.78014 105.254528 64.164188 106.44243 63.988599 106.78933 63.568094 107.63034 62.988626 108.818248 62.80069 109.213397 62.42819 110.00616 61.884328 111.19406 61.61278 111.8032 61.35785 112.38197 60.848745 113.56988 60.424875 114.587169 60.354619 114.75779 59.879457 115.945697 59.418268 117.133609 59.236967 117.61519 58.974149 118.32151 58.545949 119.50942 58.13156 120.69733 58.049058 120.94199 57.734643 121.88524 57.35233 123.07315 56.983667 124.261058 56.86115 124.67101 56.6313 125.44897 56.293828 126.63687 55.969854 127.82478 55.67324 128.95964 55.65953 129.0127 55.36589 130.20059 55.085599 131.3885 54.818655 132.57642 54.565057 133.76433 54.485334 134.15851 54.326589 134.95223 54.102205 136.14014 53.89102 137.32805 53.693037 138.51596 53.50825 139.70386 53.336664 140.89177 53.297426 141.18607 53.179586 142.07968 53.03599 143.2676 52.905454 144.45549 52.787969 145.6434 52.683538 146.83132 52.59216 148.01923 52.513837 149.20713 52.448568 150.39504 52.39635 151.58295 52.357187 152.77086 52.33108 153.95876 52.318029 155.14667V156.33458L52.33108 157.52249 52.357187 158.7104 52.39635 159.8983 52.448568 161.08621 52.513837 162.27413 52.59216 163.46204 52.683538 164.64994 52.787969 165.83785 52.905454 167.02576 53.03599 168.21367 53.179586 169.40157 53.297426 170.29518 53.336664 170.58948 53.50825 171.77739 53.693037 172.9653 53.89102 174.1532 54.102205 175.34111 54.326589 176.52902 54.485334 177.32276 54.565057 177.71694 54.818655 178.90483 55.085599 180.09275 55.36589 181.28066 55.65953 182.46857 55.67324 182.5216 55.969854 183.65647 56.293828 184.84438 56.6313 186.03229 56.86115 186.81023 56.983667 187.2202 57.35233 188.4081 57.734643 189.59601 58.049058 190.53926 58.13156 190.78392 58.545949 191.97183 58.974149 193.15973 59.236967 193.86606 59.418268 194.34764 59.879457 195.53556 60.354619 196.72347 60.424875 196.89409 60.848745 197.91136 61.35785 199.09928 61.61278 199.67806 61.884328 200.28719 62.42819 201.4751 62.80069 202.26786 62.988626 202.66301 63.568094 203.8509 63.988599 204.69193 64.164188 205.03882 64.78014 206.22673 65.176509 206.97338 65.41369 207.41464 66.06704 208.60254 66.36442 209.13123 66.73993 209.79045 67.431629 210.97837 67.55232 211.18125 68.14587 212.16628 68.740238 213.13211 68.87866 213.35417 69.634609 214.54209 69.92814 214.99414 70.41226 215.73 71.11605 216.77878 71.210659 216.91791 72.03427 218.1058 72.303958 218.48744 72.881427 219.29372 73.49187 220.13025 73.751789 220.48163 74.64679 221.66954 74.67977 221.71254 75.57026 222.85744 75.86768 223.23314 76.519748 224.04535 77.05559 224.70131 77.49635 225.23326 78.2435 226.1197 78.501277 226.42118 79.431407 227.49083 79.53575 227.60907 80.60137 228.79698 80.619319 228.81667 81.70036 229.9849 81.80722 230.09854 82.83266 231.1728 82.99513 231.34035 83.99979 232.3607 84.18304 232.54396 85.2034 233.54862 85.37095 233.71109 86.44521 234.73653 86.55886 234.84339 87.72709 235.92444 87.746768 235.94239 88.93467 237.008 89.052928 237.11235 90.12258 238.04248 90.42405 238.30025 91.31049 239.0474 91.842449 239.48816 92.4984 240.024 93.310619 240.67607 93.68631 240.9735 94.831218 241.86399 94.874217 241.89696 96.062129 242.79196 96.4135 243.05188 97.25003 243.66233 98.056308 244.23979 98.43794 244.50948 99.62585 245.3331 99.76497 245.4277 100.81376 246.13149 101.549617 246.61562 102.00166 246.90915 103.189579 247.66509 103.41164 247.80352 104.37748 248.39789 105.36251 248.99143 105.56539 249.11212 106.753299 249.80382 107.41253 250.17934 107.94121 250.47672 109.12911 251.13007 109.57038 251.36725 110.317028 251.76361 111.50493 252.37957 111.85183 252.55515 112.69284 252.97566 113.880748 253.55513 114.275897 253.74306 115.06866 254.11557 116.25656 254.65943 116.8657 254.93097 117.44447 255.1859 118.63238 255.695 119.649669 256.11888 119.82029 256.18913 121.008197 256.6643 122.196109 257.1255 122.67769 257.3068 123.38401 257.5696 124.57192 257.9978 125.75983 258.4122 126.00449 258.4947 126.94774 258.8091 128.13565 259.19145 129.32357 259.5601 129.73352 259.6826 130.51146 259.91246 131.69937 260.2499 132.88729 260.57389 134.02214 260.8705 134.0752 260.88423 135.26309 261.17787 136.451 261.45817 137.63892 261.7251 138.82683 261.9787 139.22101 262.0584 140.01473 262.21717 141.20264 262.44157 142.39055 262.65275 143.57846 262.8507 144.76636 263.0355 145.95427 263.2071 146.24857 263.24635 147.14218 263.36418 148.3301 263.50776 149.51799 263.6383 150.7059 263.75578 151.89382 263.8602 153.08173 263.9516 154.26963 264.0299 155.45754 264.09519 156.64545 264.1474 157.83336 264.18656 159.02126 264.21269 160.20917 264.22575H161.39708L162.58499 264.21269 163.7729 264.18656 164.9608 264.1474 166.14871 264.09519 167.33663 264.0299 168.52454 263.9516 169.71244 263.8602 170.90035 263.75578 172.08826 263.6383 173.27617 263.50776 174.46407 263.36418 175.35768 263.24635 175.65198 263.2071 176.83989 263.0355 178.0278 262.8507 179.2157 262.65275 180.40361 262.44157 181.59152 262.21717 182.38526 262.0584 182.77944 261.9787 183.96733 261.7251 185.15525 261.45817 186.34316 261.17787 187.53107 260.88423 187.5841 260.8705 188.71897 260.57389 189.90688 260.2499 191.09479 259.91246 191.87273 259.6826 192.2827 259.5601 193.4706 259.19145 194.65851 258.8091 195.60176 258.4947 195.84642 258.4122 197.03433 257.9978 198.22223 257.5696 198.92856 257.3068 199.41014 257.1255 200.59806 256.6643 201.78597 256.18913 201.95659 256.11888 202.97386 255.695 204.16178 255.1859 204.74056 254.93097 205.34969 254.65943 206.5376 254.11557 207.33036 253.74306 207.72551 253.55513 208.9134 252.97566 209.75443 252.55515 210.10132 252.37957 211.28923 251.76361 212.03588 251.36725 212.47714 251.13007 213.66504 250.47672 214.19373 250.17934 214.85295 249.80382 216.04087 249.11212 216.24375 248.99143 217.22878 248.39789 218.19461 247.80352 218.41667 247.66509 219.60459 246.90915 220.05664 246.61562 220.7925 246.13149 221.84128 245.4277 221.98041 245.3331 223.1683 244.50948 223.54994 244.23979 224.35622 243.66233 225.19275 243.05188 225.54413 242.79196 226.73204 241.89696 226.77504 241.86399 227.91994 240.9735 228.29564 240.67607 229.10785 240.024 229.76381 239.48816 230.29576 239.0474 231.1822 238.30025 231.48368 238.04248 232.55333 237.11235 232.67157 237.008 233.85948 235.94239 233.87917 235.92444 235.0474 234.84339 235.16104 234.73653 236.2353 233.71109 236.40285 233.54862 237.4232 232.54396 237.60646 232.3607 238.61112 231.34035 238.77359 231.1728 239.79903 230.09854 239.90589 229.9849 240.98694 228.81667 241.00489 228.79698 242.0705 227.60907 242.17485 227.49083 243.10498 226.42118 243.36275 226.1197 244.1099 225.23326 244.55066 224.70131 245.0865 224.04535 245.73857 223.23314 246.036 222.85744 246.92649 221.71254 246.95946 221.66954 247.85446 220.48163 248.11438 220.13025 248.72483 219.29372 249.30229 218.48744 249.57198 218.1058 250.3956 216.91791 250.4902 216.77878 251.19399 215.73 251.67812 214.99414 251.97165 214.54209 252.72759 213.35417 252.86602 213.13211 253.46039 212.16628 254.05393 211.18125 254.17462 210.97837 254.86632 209.79045 255.24184 209.13123 255.53922 208.60254 256.19258 207.41464 256.42976 206.97338 256.8261 206.22673 257.44206 205.03882 257.61766 204.69193 258.03816 203.8509 258.6176 202.66301 258.80558 202.26786 259.17808 201.4751 259.72193 200.28719 259.99348 199.67806 260.2484 199.09928 260.7575 197.91136 261.18138 196.89409 261.25163 196.72347 261.7268 195.53556 262.188 194.34764 262.3693 193.86606 262.6321 193.15973 263.0603 191.97183 263.4747 190.78392 263.5572 190.53926 263.8716 189.59601 264.25395 188.4081 264.6226 187.2202 264.7451 186.81023 264.97496 186.03229 265.3124 184.84438 265.63639 183.65647 265.933 182.5216 265.94673 182.46857 266.24037 181.28066 266.52067 180.09275 266.7876 178.90483 267.0412 177.71694 267.1209 177.32276 267.27967 176.52902 267.50407 175.34111 267.71525 174.1532 267.9132 172.9653 268.098 171.77739 268.2696 170.58948 268.30885 170.29518 268.42668 169.40157 268.57026 168.21367 268.7008 167.02576 268.81828 165.83785 268.9227 164.64994 269.0141 163.46204 269.0924 162.27413 269.15769 161.08621 269.2099 159.8983 269.24906 158.7104 269.27519 157.52249 269.28825 156.33458V155.14667L269.27519 153.95876 269.24906 152.77086 269.2099 151.58295 269.15769 150.39504 269.0924 149.20713 269.0141 148.01923 268.9227 146.83132 268.81828 145.6434 268.7008 144.45549 268.57026 143.2676 268.42668 142.07968 268.30885 141.18607 268.2696 140.89177 268.098 139.70386 267.9132 138.51596 267.71525 137.32805 267.50407 136.14014 267.27967 134.95223 267.1209 134.15851 267.0412 133.76433 266.7876 132.57642 266.52067 131.3885 266.24037 130.20059 265.94673 129.0127 265.933 128.95964 265.63639 127.82478 265.3124 126.63687 264.97496 125.44897 264.7451 124.67101 264.6226 124.261058 264.25395 123.07315 263.8716 121.88524 263.5572 120.94199 263.4747 120.69733 263.0603 119.50942 262.6321 118.32151 262.3693 117.61519 262.188 117.133609 261.7268 115.945697 261.25163 114.75779 261.18138 114.587169 260.7575 113.56988 260.2484 112.38197 259.99348 111.8032 259.72193 111.19406 259.17808 110.00616 258.80558 109.213397 258.6176 108.818248 258.03816 107.63034 257.61766 106.78933 257.44206 106.44243 256.8261 105.254528 256.42976 104.50788 256.19258 104.06661 255.53922 102.87871 255.24184 102.35003 254.86632 101.690799 254.17462 100.50289 254.05393 100.30001 253.46039 99.31498 252.86602 98.34914 252.72759 98.127079 251.97165 96.93916 251.67812 96.487117 251.19399 95.75126 250.4902 94.70247 250.3956 94.56335 249.57198 93.37544 249.30229 92.993808 248.72483 92.18753 248.11438 91.351 247.85446 90.999629 246.95946 89.811717 246.92649 89.768718 246.036 88.62381 245.73857 88.248119 245.0865 87.4359 244.55066 86.779949 244.1099 86.24799 243.36275 85.36155 243.10498 85.06008 242.17485 83.990428 242.0705 83.87217 241.00489 82.684268 240.98694 82.66459 239.90589 81.49636 239.79903 81.38271 238.77359 80.30845 238.61112 80.1409 237.60646 79.12054 237.4232 78.93729 236.40285 77.93263 236.2353 77.77016 235.16104 76.74472 235.0474 76.63786 233.87917 75.556819 233.85948 75.53887 232.67157 74.47325 232.55333 74.368907 231.48368 73.438777 231.1822 73.181 230.29576 72.43385 229.76381 71.99309 229.10785 71.457248 228.29564 70.80518 227.91994 70.50776 226.77504 69.61727 226.73204 69.58429 225.54413 68.689289 225.19275 68.42937 224.35622 67.818927 223.54994 67.241458 223.1683 66.97177 221.98041 66.148159 221.84128 66.05355 220.7925 65.34976 220.05664 64.86564 219.60459 64.572109 218.41667 63.816164 218.19461 63.67773 217.22878 63.083368 216.24375 62.489824 216.04087 62.36912 214.85295 61.67743 214.19373 61.301916 213.66504 61.004537 212.47714 60.35119 212.03588 60.11401 211.28923 59.71764 210.10132 59.10169 209.75443 58.926099 208.9134 58.505594 207.72551 57.926126 207.33036 57.73819 206.5376 57.36569 205.34969 56.821828 204.74056 56.55028 204.16178 56.29535 202.97386 55.786245 201.95659 55.362375 201.78597 55.292119 200.59806 54.816957 199.41014 54.355768 198.92856 54.174467 198.22223 53.911649 197.03433 53.483449 195.84642 53.06906 195.60176 52.986558 194.65851 52.672143 193.4706 52.28983 192.2827 51.921167 191.87273 51.79865 191.09479 51.5688 189.90688 51.231328 188.71897 50.907354 187.5841 50.61074 187.53107 50.59703 186.34316 50.30339 185.15525 50.023099 183.96733 49.756155 182.77944 49.502557 182.38526 49.422834 181.59152 49.264089 180.40361 49.039705 179.2157 48.82852 178.0278 48.630537 176.83989 48.44575 175.65198 48.274164 175.35768 48.234926 174.46407 48.117086 173.27617 47.97349 172.08826 47.842954 170.90035 47.725469 169.71244 47.621038 168.52454 47.52966 167.33663 47.451337 166.14871 47.386068 164.9608 47.33385 163.7729 47.294687 162.58499 47.26858 161.39708 47.255529H160.20917L159.02126 47.26858 157.83336 47.294687 156.64545 47.33385 155.45754 47.386068 154.26963 47.451337 153.08173 47.52966 151.89382 47.621038 150.7059 47.725469 149.51799 47.842954 148.3301 47.97349 147.14218 48.117086Z"/>
</g>
<path transform="matrix(2.7777777,0,0,-2.7777777,0,818.69796)" stroke-width=".8" stroke-linecap="square" stroke-miterlimit="10" stroke-linejoin="miter" fill="none" stroke="#000000" d="M42.60625 37.54375V273.9375"/>
<path transform="matrix(2.7777777,0,0,-2.7777777,0,818.69796)" stroke-width=".8" stroke-linecap="square" stroke-miterlimit="10" stroke-linejoin="miter" fill="none" stroke="#000000" d="M279 37.54375V273.9375"/>
<path transform="matrix(2.7777777,0,0,-2.7777777,0,818.69796)" stroke-width=".8" stroke-linecap="square" stroke-miterlimit="10" stroke-linejoin="miter" fill="none" stroke="#000000" d="M42.60625 37.54375H279"/>
<path transform="matrix(2.7777777,0,0,-2.7777777,0,818.69796)" stroke-width=".8" stroke-linecap="square" stroke-miterlimit="10" stroke-linejoin="miter" fill="none" stroke="#000000" d="M42.60625 273.9375H279"/>
<use data-text="=" xlink:href="#font_2_61" transform="matrix(27.777777,0,0,-27.777777,421.90864,39.487878)"/>
<use data-text="1" xlink:href="#font_2_49" transform="matrix(27.777777,0,0,-27.777777,450.59516,39.487878)"/>
<use data-text="." xlink:href="#font_2_46" transform="matrix(27.777777,0,0,-27.777777,468.26823,39.487878)"/>
<use data-text="0" xlink:href="#font_2_48" transform="matrix(27.777777,0,0,-27.777777,477.098,39.487878)"/>
<g clip-path="url(#clip_18)">
<path transform="matrix(.027777777,0,0,-.027777777,398.06425,39.48788)" d="M255 200C207 113 147 50 74 10 23-18 1-9 9 37 13 59 27 83 53 111 92 154 138 196 190 236 232 302 252 362 249 418 247 452 223 469 177 469 158 469 130 451 94 416L116 525C146 545 182 552 222 547 299 536 336 492 332 414 329 368 317 327 297 291L399 344C447 430 507 493 581 534 632 562 654 553 646 506 642 484 627 459 602 432 562 389 516 347 464 307 422 241 402 180 406 125 408 91 432 75 478 75 496 75 524 92 561 127L539 18C508-1 473-8 433-2 355 7 318 51 323 129 325 175 337 216 358 252L255 200Z"/>
</g>
<g clip-path="url(#clip_19)">
<path transform="matrix(2.7777777,0,0,-2.7777777,0,818.69796)" stroke-width="1.5" stroke-linecap="square" stroke-linejoin="round" fill="none" stroke="#ff0000" d="M231.72126 226.65876 160.80313 155.74063"/>
<g clip-path="url(#clip_20)">
<path transform="matrix(2.7777777,0,0,-2.7777777,643.6701,189.0903)" d="M0-1.5C.397805-1.5 .77937-1.341951 1.06066-1.06066 1.341951-.77937 1.5-.397805 1.5 0 1.5 .397805 1.341951 .77937 1.06066 1.06066 .77937 1.341951 .397805 1.5 0 1.5-.397805 1.5-.77937 1.341951-1.06066 1.06066-1.341951 .77937-1.5 .397805-1.5 0-1.5-.397805-1.341951-.77937-1.06066-1.06066-.77937-1.341951-.397805-1.5 0-1.5Z" fill="#ff0000"/>
<path transform="matrix(2.7777777,0,0,-2.7777777,643.6701,189.0903)" stroke-width="1" stroke-linecap="butt" stroke-linejoin="round" fill="none" stroke="#ff0000" d="M0-1.5C.397805-1.5 .77937-1.341951 1.06066-1.06066 1.341951-.77937 1.5-.397805 1.5 0 1.5 .397805 1.341951 .77937 1.06066 1.06066 .77937 1.341951 .397805 1.5 0 1.5-.397805 1.5-.77937 1.341951-1.06066 1.06066-1.341951 .77937-1.5 .397805-1.5 0-1.5-.397805-1.341951-.77937-1.06066-1.06066-.77937-1.341951-.397805-1.5 0-1.5Z"/>
</g>
<g clip-path="url(#clip_21)">
<path transform="matrix(2.7777777,0,0,-2.7777777,446.67536,386.08509)" d="M0-1.5C.397805-1.5 .77937-1.341951 1.06066-1.06066 1.341951-.77937 1.5-.397805 1.5 0 1.5 .397805 1.341951 .77937 1.06066 1.06066 .77937 1.341951 .397805 1.5 0 1.5-.397805 1.5-.77937 1.341951-1.06066 1.06066-1.341951 .77937-1.5 .397805-1.5 0-1.5-.397805-1.341951-.77937-1.06066-1.06066-.77937-1.341951-.397805-1.5 0-1.5Z" fill="#ff0000"/>
<path transform="matrix(2.7777777,0,0,-2.7777777,446.67536,386.08509)" stroke-width="1" stroke-linecap="butt" stroke-linejoin="round" fill="none" stroke="#ff0000" d="M0-1.5C.397805-1.5 .77937-1.341951 1.06066-1.06066 1.341951-.77937 1.5-.397805 1.5 0 1.5 .397805 1.341951 .77937 1.06066 1.06066 .77937 1.341951 .397805 1.5 0 1.5-.397805 1.5-.77937 1.341951-1.06066 1.06066-1.341951 .77937-1.5 .397805-1.5 0-1.5-.397805-1.341951-.77937-1.06066-1.06066-.77937-1.341951-.397805-1.5 0-1.5Z"/>
</g>
<g clip-path="url(#clip_22)">
<path transform="matrix(2.7777777,0,0,-2.7777777,446.67536,386.08509)" d="M0-1.5C.397805-1.5 .77937-1.341951 1.06066-1.06066 1.341951-.77937 1.5-.397805 1.5 0 1.5 .397805 1.341951 .77937 1.06066 1.06066 .77937 1.341951 .397805 1.5 0 1.5-.397805 1.5-.77937 1.341951-1.06066 1.06066-1.341951 .77937-1.5 .397805-1.5 0-1.5-.397805-1.341951-.77937-1.06066-1.06066-.77937-1.341951-.397805-1.5 0-1.5Z" fill="#ff0000"/>
<path transform="matrix(2.7777777,0,0,-2.7777777,446.67536,386.08509)" stroke-width="1" stroke-linecap="butt" stroke-linejoin="round" fill="none" stroke="#ff0000" d="M0-1.5C.397805-1.5 .77937-1.341951 1.06066-1.06066 1.341951-.77937 1.5-.397805 1.5 0 1.5 .397805 1.341951 .77937 1.06066 1.06066 .77937 1.341951 .397805 1.5 0 1.5-.397805 1.5-.77937 1.341951-1.06066 1.06066-1.341951 .77937-1.5 .397805-1.5 0-1.5-.397805-1.341951-.77937-1.06066-1.06066-.77937-1.341951-.397805-1.5 0-1.5Z"/>
</g>
<g clip-path="url(#clip_23)">
<path transform="matrix(2.7777777,0,0,-2.7777777,446.67536,386.08509)" d="M0-1.5C.397805-1.5 .77937-1.341951 1.06066-1.06066 1.341951-.77937 1.5-.397805 1.5 0 1.5 .397805 1.341951 .77937 1.06066 1.06066 .77937 1.341951 .397805 1.5 0 1.5-.397805 1.5-.77937 1.341951-1.06066 1.06066-1.341951 .77937-1.5 .397805-1.5 0-1.5-.397805-1.341951-.77937-1.06066-1.06066-.77937-1.341951-.397805-1.5 0-1.5Z" fill="#ff0000"/>
<path transform="matrix(2.7777777,0,0,-2.7777777,446.67536,386.08509)" stroke-width="1" stroke-linecap="butt" stroke-linejoin="round" fill="none" stroke="#ff0000" d="M0-1.5C.397805-1.5 .77937-1.341951 1.06066-1.06066 1.341951-.77937 1.5-.397805 1.5 0 1.5 .397805 1.341951 .77937 1.06066 1.06066 .77937 1.341951 .397805 1.5 0 1.5-.397805 1.5-.77937 1.341951-1.06066 1.06066-1.341951 .77937-1.5 .397805-1.5 0-1.5-.397805-1.341951-.77937-1.06066-1.06066-.77937-1.341951-.397805-1.5 0-1.5Z"/>
</g>
<g clip-path="url(#clip_24)">
<path transform="matrix(2.7777777,0,0,-2.7777777,446.67536,386.08509)" d="M0-1.5C.397805-1.5 .77937-1.341951 1.06066-1.06066 1.341951-.77937 1.5-.397805 1.5 0 1.5 .397805 1.341951 .77937 1.06066 1.06066 .77937 1.341951 .397805 1.5 0 1.5-.397805 1.5-.77937 1.341951-1.06066 1.06066-1.341951 .77937-1.5 .397805-1.5 0-1.5-.397805-1.341951-.77937-1.06066-1.06066-.77937-1.341951-.397805-1.5 0-1.5Z" fill="#ff0000"/>
<path transform="matrix(2.7777777,0,0,-2.7777777,446.67536,386.08509)" stroke-width="1" stroke-linecap="butt" stroke-linejoin="round" fill="none" stroke="#ff0000" d="M0-1.5C.397805-1.5 .77937-1.341951 1.06066-1.06066 1.341951-.77937 1.5-.397805 1.5 0 1.5 .397805 1.341951 .77937 1.06066 1.06066 .77937 1.341951 .397805 1.5 0 1.5-.397805 1.5-.77937 1.341951-1.06066 1.06066-1.341951 .77937-1.5 .397805-1.5 0-1.5-.397805-1.341951-.77937-1.06066-1.06066-.77937-1.341951-.397805-1.5 0-1.5Z"/>
</g>
<g clip-path="url(#clip_25)">
<path transform="matrix(2.7777777,0,0,-2.7777777,446.67536,386.08509)" d="M0-1.5C.397805-1.5 .77937-1.341951 1.06066-1.06066 1.341951-.77937 1.5-.397805 1.5 0 1.5 .397805 1.341951 .77937 1.06066 1.06066 .77937 1.341951 .397805 1.5 0 1.5-.397805 1.5-.77937 1.341951-1.06066 1.06066-1.341951 .77937-1.5 .397805-1.5 0-1.5-.397805-1.341951-.77937-1.06066-1.06066-.77937-1.341951-.397805-1.5 0-1.5Z" fill="#ff0000"/>
<path transform="matrix(2.7777777,0,0,-2.7777777,446.67536,386.08509)" stroke-width="1" stroke-linecap="butt" stroke-linejoin="round" fill="none" stroke="#ff0000" d="M0-1.5C.397805-1.5 .77937-1.341951 1.06066-1.06066 1.341951-.77937 1.5-.397805 1.5 0 1.5 .397805 1.341951 .77937 1.06066 1.06066 .77937 1.341951 .397805 1.5 0 1.5-.397805 1.5-.77937 1.341951-1.06066 1.06066-1.341951 .77937-1.5 .397805-1.5 0-1.5-.397805-1.341951-.77937-1.06066-1.06066-.77937-1.341951-.397805-1.5 0-1.5Z"/>
</g>
<g clip-path="url(#clip_26)">
<path transform="matrix(2.7777777,0,0,-2.7777777,446.67536,386.08509)" d="M0-1.5C.397805-1.5 .77937-1.341951 1.06066-1.06066 1.341951-.77937 1.5-.397805 1.5 0 1.5 .397805 1.341951 .77937 1.06066 1.06066 .77937 1.341951 .397805 1.5 0 1.5-.397805 1.5-.77937 1.341951-1.06066 1.06066-1.341951 .77937-1.5 .397805-1.5 0-1.5-.397805-1.341951-.77937-1.06066-1.06066-.77937-1.341951-.397805-1.5 0-1.5Z" fill="#ff0000"/>
<path transform="matrix(2.7777777,0,0,-2.7777777,446.67536,386.08509)" stroke-width="1" stroke-linecap="butt" stroke-linejoin="round" fill="none" stroke="#ff0000" d="M0-1.5C.397805-1.5 .77937-1.341951 1.06066-1.06066 1.341951-.77937 1.5-.397805 1.5 0 1.5 .397805 1.341951 .77937 1.06066 1.06066 .77937 1.341951 .397805 1.5 0 1.5-.397805 1.5-.77937 1.341951-1.06066 1.06066-1.341951 .77937-1.5 .397805-1.5 0-1.5-.397805-1.341951-.77937-1.06066-1.06066-.77937-1.341951-.397805-1.5 0-1.5Z"/>
</g>
<g clip-path="url(#clip_27)">
<path transform="matrix(2.7777777,0,0,-2.7777777,446.67536,386.08509)" d="M0-1.5C.397805-1.5 .77937-1.341951 1.06066-1.06066 1.341951-.77937 1.5-.397805 1.5 0 1.5 .397805 1.341951 .77937 1.06066 1.06066 .77937 1.341951 .397805 1.5 0 1.5-.397805 1.5-.77937 1.341951-1.06066 1.06066-1.341951 .77937-1.5 .397805-1.5 0-1.5-.397805-1.341951-.77937-1.06066-1.06066-.77937-1.341951-.397805-1.5 0-1.5Z" fill="#ff0000"/>
<path transform="matrix(2.7777777,0,0,-2.7777777,446.67536,386.08509)" stroke-width="1" stroke-linecap="butt" stroke-linejoin="round" fill="none" stroke="#ff0000" d="M0-1.5C.397805-1.5 .77937-1.341951 1.06066-1.06066 1.341951-.77937 1.5-.397805 1.5 0 1.5 .397805 1.341951 .77937 1.06066 1.06066 .77937 1.341951 .397805 1.5 0 1.5-.397805 1.5-.77937 1.341951-1.06066 1.06066-1.341951 .77937-1.5 .397805-1.5 0-1.5-.397805-1.341951-.77937-1.06066-1.06066-.77937-1.341951-.397805-1.5 0-1.5Z"/>
</g>
</g>
<g clip-path="url(#clip_28)">
<path transform="matrix(2.7777777,0,0,-2.7777777,0,818.69796)" d="M231.72126 224.15876C232.38426 224.15876 233.0202 224.42217 233.48902 224.89098 233.95784 225.3598 234.22126 225.99575 234.22126 226.65876 234.22126 227.32176 233.95784 227.9577 233.48902 228.42652 233.0202 228.89534 232.38426 229.15876 231.72126 229.15876 231.05825 229.15876 230.4223 228.89534 229.95348 228.42652 229.48467 227.9577 229.22126 227.32176 229.22126 226.65876 229.22126 225.99575 229.48467 225.3598 229.95348 224.89098 230.4223 224.42217 231.05825 224.15876 231.72126 224.15876Z"/>
<path transform="matrix(2.7777777,0,0,-2.7777777,0,818.69796)" stroke-width="1" stroke-linecap="butt" stroke-linejoin="round" fill="none" stroke="#000000" d="M231.72126 224.15876C232.38426 224.15876 233.0202 224.42217 233.48902 224.89098 233.95784 225.3598 234.22126 225.99575 234.22126 226.65876 234.22126 227.32176 233.95784 227.9577 233.48902 228.42652 233.0202 228.89534 232.38426 229.15876 231.72126 229.15876 231.05825 229.15876 230.4223 228.89534 229.95348 228.42652 229.48467 227.9577 229.22126 227.32176 229.22126 226.65876 229.22126 225.99575 229.48467 225.3598 229.95348 224.89098 230.4223 224.42217 231.05825 224.15876 231.72126 224.15876Z"/>
</g>
<g clip-path="url(#clip_29)">
<path transform="matrix(2.7777777,0,0,-2.7777777,0,818.69796)" d="M160.80313 160.74063 159.68056 157.2857H156.04784L158.98677 155.15045 157.8642 151.69554 160.80313 153.8308 163.74205 151.69554 162.61948 155.15045 165.55841 157.2857H161.92569Z" fill="#ffd700"/>
<path transform="matrix(2.7777777,0,0,-2.7777777,0,818.69796)" stroke-width="1" stroke-linecap="butt" stroke-linejoin="bevel" fill="none" stroke="#ffd700" d="M160.80313 160.74063 159.68056 157.2857H156.04784L158.98677 155.15045 157.8642 151.69554 160.80313 153.8308 163.74205 151.69554 162.61948 155.15045 165.55841 157.2857H161.92569Z"/>
</g>
<path transform="matrix(2.7777777,0,0,-2.7777777,0,818.69796)" d="M325.20625 37.54375H561.6V273.9375H325.20625Z" fill="#ffffff"/>
<g clip-path="url(#clip_30)">
<path transform="matrix(2.7777777,0,0,-2.7777777,0,818.69796)" stroke-width=".8" stroke-linecap="butt" stroke-dasharray=".8,1.32" stroke-linejoin="round" fill="none" stroke="#b0b0b0" stroke-opacity=".4" d="M348.8456 37.54375V273.9375"/>
</g>
<path transform="matrix(2.7777777,0,0,-2.7777777,0,818.69796)" d="M348.8456 37.54375V34.04375"/>
<path transform="matrix(2.7777777,0,0,-2.7777777,0,818.69796)" stroke-width=".8" stroke-linecap="butt" stroke-linejoin="round" fill="none" stroke="#000000" d="M348.8456 37.54375V34.04375"/>
<use data-text="4" xlink:href="#font_2_52" transform="matrix(27.777777,0,0,-27.777777,971.82589,754.9479)"/>
<g clip-path="url(#clip_31)">
<path transform="matrix(.027777777,0,0,-.027777777,948.55117,754.9479)" d="M106 355H732V272H106V355Z"/>
</g>
<g clip-path="url(#clip_32)">
<path transform="matrix(2.7777777,0,0,-2.7777777,0,818.69796)" stroke-width=".8" stroke-linecap="butt" stroke-dasharray=".8,1.32" stroke-linejoin="round" fill="none" stroke="#b0b0b0" stroke-opacity=".4" d="M396.1244 37.54375V273.9375"/>
</g>
<path transform="matrix(2.7777777,0,0,-2.7777777,0,818.69796)" d="M396.1244 37.54375V34.04375"/>
<path transform="matrix(2.7777777,0,0,-2.7777777,0,818.69796)" stroke-width=".8" stroke-linecap="butt" stroke-linejoin="round" fill="none" stroke="#000000" d="M396.1244 37.54375V34.04375"/>
<use data-text="2" xlink:href="#font_2_50" transform="matrix(27.777777,0,0,-27.777777,1103.1559,754.9479)"/>
<g clip-path="url(#clip_33)">
<path transform="matrix(.027777777,0,0,-.027777777,1079.8811,754.9479)" d="M106 355H732V272H106V355Z"/>
</g>
<g clip-path="url(#clip_34)">
<path transform="matrix(2.7777777,0,0,-2.7777777,0,818.69796)" stroke-width=".8" stroke-linecap="butt" stroke-dasharray=".8,1.32" stroke-linejoin="round" fill="none" stroke="#b0b0b0" stroke-opacity=".4" d="M443.40315 37.54375V273.9375"/>
</g>
<path transform="matrix(2.7777777,0,0,-2.7777777,0,818.69796)" d="M443.40315 37.54375V34.04375"/>
<path transform="matrix(2.7777777,0,0,-2.7777777,0,818.69796)" stroke-width=".8" stroke-linecap="butt" stroke-linejoin="round" fill="none" stroke="#000000" d="M443.40315 37.54375V34.04375"/>
<use data-text="0" xlink:href="#font_2_48" transform="matrix(27.777777,0,0,-27.777777,1222.8429,754.9479)"/>
<g clip-path="url(#clip_35)">
<path transform="matrix(2.7777777,0,0,-2.7777777,0,818.69796)" stroke-width=".8" stroke-linecap="butt" stroke-dasharray=".8,1.32" stroke-linejoin="round" fill="none" stroke="#b0b0b0" stroke-opacity=".4" d="M490.6819 37.54375V273.9375"/>
</g>
<path transform="matrix(2.7777777,0,0,-2.7777777,0,818.69796)" d="M490.6819 37.54375V34.04375"/>
<path transform="matrix(2.7777777,0,0,-2.7777777,0,818.69796)" stroke-width=".8" stroke-linecap="butt" stroke-linejoin="round" fill="none" stroke="#000000" d="M490.6819 37.54375V34.04375"/>
<use data-text="2" xlink:href="#font_2_50" transform="matrix(27.777777,0,0,-27.777777,1354.1727,754.9479)"/>
<g clip-path="url(#clip_36)">
<path transform="matrix(2.7777777,0,0,-2.7777777,0,818.69796)" stroke-width=".8" stroke-linecap="butt" stroke-dasharray=".8,1.32" stroke-linejoin="round" fill="none" stroke="#b0b0b0" stroke-opacity=".4" d="M537.96066 37.54375V273.9375"/>
</g>
<path transform="matrix(2.7777777,0,0,-2.7777777,0,818.69796)" d="M537.96066 37.54375V34.04375"/>
<path transform="matrix(2.7777777,0,0,-2.7777777,0,818.69796)" stroke-width=".8" stroke-linecap="butt" stroke-linejoin="round" fill="none" stroke="#000000" d="M537.96066 37.54375V34.04375"/>
<use data-text="4" xlink:href="#font_2_52" transform="matrix(27.777777,0,0,-27.777777,1485.5026,754.9479)"/>
<use data-text="x" xlink:href="#font_9_120" transform="matrix(27.777777,0,0,-27.777777,1216.3976,791.4496)"/>
<use data-text="1" xlink:href="#font_2_49" transform="matrix(19.444443,0,0,-19.444443,1232.8364,796.0069)"/>
<g clip-path="url(#clip_37)">
<path transform="matrix(2.7777777,0,0,-2.7777777,0,818.69796)" stroke-width=".8" stroke-linecap="butt" stroke-dasharray=".8,1.32" stroke-linejoin="round" fill="none" stroke="#b0b0b0" stroke-opacity=".4" d="M325.20625 61.183126H561.6"/>
</g>
<path transform="matrix(2.7777777,0,0,-2.7777777,0,818.69796)" d="M325.20625 61.183126H321.70625"/>
<path transform="matrix(2.7777777,0,0,-2.7777777,0,818.69796)" stroke-width=".8" stroke-linecap="butt" stroke-linejoin="round" fill="none" stroke="#000000" d="M325.20625 61.183126H321.70625"/>
<use data-text="4" xlink:href="#font_2_52" transform="matrix(27.777777,0,0,-27.777777,866.2521,659.2917)"/>
<g clip-path="url(#clip_38)">
<path transform="matrix(.027777777,0,0,-.027777777,842.97738,659.2917)" d="M106 355H732V272H106V355Z"/>
</g>
<g clip-path="url(#clip_39)">
<path transform="matrix(2.7777777,0,0,-2.7777777,0,818.69796)" stroke-width=".8" stroke-linecap="butt" stroke-dasharray=".8,1.32" stroke-linejoin="round" fill="none" stroke="#b0b0b0" stroke-opacity=".4" d="M325.20625 108.461879H561.6"/>
</g>
<path transform="matrix(2.7777777,0,0,-2.7777777,0,818.69796)" d="M325.20625 108.461879H321.70625"/>
<path transform="matrix(2.7777777,0,0,-2.7777777,0,818.69796)" stroke-width=".8" stroke-linecap="butt" stroke-linejoin="round" fill="none" stroke="#000000" d="M325.20625 108.461879H321.70625"/>
<use data-text="2" xlink:href="#font_2_50" transform="matrix(27.777777,0,0,-27.777777,866.2521,527.9618)"/>
<g clip-path="url(#clip_40)">
<path transform="matrix(.027777777,0,0,-.027777777,842.97738,527.9618)" d="M106 355H732V272H106V355Z"/>
</g>
<g clip-path="url(#clip_41)">
<path transform="matrix(2.7777777,0,0,-2.7777777,0,818.69796)" stroke-width=".8" stroke-linecap="butt" stroke-dasharray=".8,1.32" stroke-linejoin="round" fill="none" stroke="#b0b0b0" stroke-opacity=".4" d="M325.20625 155.74063H561.6"/>
</g>
<path transform="matrix(2.7777777,0,0,-2.7777777,0,818.69796)" d="M325.20625 155.74063H321.70625"/>
<path transform="matrix(2.7777777,0,0,-2.7777777,0,818.69796)" stroke-width=".8" stroke-linecap="butt" stroke-linejoin="round" fill="none" stroke="#000000" d="M325.20625 155.74063H321.70625"/>
<use data-text="0" xlink:href="#font_2_48" transform="matrix(27.777777,0,0,-27.777777,866.2413,396.63197)"/>
<g clip-path="url(#clip_42)">
<path transform="matrix(2.7777777,0,0,-2.7777777,0,818.69796)" stroke-width=".8" stroke-linecap="butt" stroke-dasharray=".8,1.32" stroke-linejoin="round" fill="none" stroke="#b0b0b0" stroke-opacity=".4" d="M325.20625 203.01938H561.6"/>
</g>
<path transform="matrix(2.7777777,0,0,-2.7777777,0,818.69796)" d="M325.20625 203.01938H321.70625"/>
<path transform="matrix(2.7777777,0,0,-2.7777777,0,818.69796)" stroke-width=".8" stroke-linecap="butt" stroke-linejoin="round" fill="none" stroke="#000000" d="M325.20625 203.01938H321.70625"/>
<use data-text="2" xlink:href="#font_2_50" transform="matrix(27.777777,0,0,-27.777777,866.2413,265.3021)"/>
<g clip-path="url(#clip_43)">
<path transform="matrix(2.7777777,0,0,-2.7777777,0,818.69796)" stroke-width=".8" stroke-linecap="butt" stroke-dasharray=".8,1.32" stroke-linejoin="round" fill="none" stroke="#b0b0b0" stroke-opacity=".4" d="M325.20625 250.29813H561.6"/>
</g>
<path transform="matrix(2.7777777,0,0,-2.7777777,0,818.69796)" d="M325.20625 250.29813H321.70625"/>
<path transform="matrix(2.7777777,0,0,-2.7777777,0,818.69796)" stroke-width=".8" stroke-linecap="butt" stroke-linejoin="round" fill="none" stroke="#000000" d="M325.20625 250.29813H321.70625"/>
<use data-text="4" xlink:href="#font_2_52" transform="matrix(27.777777,0,0,-27.777777,866.2413,133.97225)"/>
<use data-text="x" xlink:href="#font_9_120" transform="matrix(0,-27.777777,-27.777777,-0,824.618,401.36286)"/>
<use data-text="2" xlink:href="#font_2_50" transform="matrix(0,-19.444443,-19.444443,-0,829.1753,384.92405)"/>
<g clip-path="url(#clip_44)">
<path transform="matrix(2.7777777,0,0,-2.7777777,0,818.69796)" stroke-width="1.5" stroke-linecap="butt" stroke-linejoin="round" fill="none" stroke="#f7fcfd" d="M442.80918 155.14092 442.73738 155.14667 442.80918 155.16114 442.82365 155.14667 442.80918 155.14092M443.99708 156.32013 443.98265 156.33458 443.99708 156.34033 444.06889 156.33458 443.99708 156.32013Z"/>
<path transform="matrix(2.7777777,0,0,-2.7777777,0,818.69796)" stroke-width="1.5" stroke-linecap="butt" stroke-linejoin="round" fill="none" stroke="#f7fcfd" d="M440.43336 153.90341 440.24815 153.95876 440.43336 154.03389 440.62068 153.95876 440.43336 153.90341M441.62129 155.12888 441.61479 155.14667 441.62129 155.1497 442.80918 155.39495 443.05744 155.14667 442.80918 155.04779 441.62129 155.12888ZM443.99708 156.0863 443.7488 156.33458 443.99708 156.43347 445.185 156.35237 445.19148 156.33458 445.185 156.33155 443.99708 156.0863M446.3729 157.44736 446.18559 157.52249 446.3729 157.57784 446.5581 157.52249 446.3729 157.44736Z"/>
<path transform="matrix(2.7777777,0,0,-2.7777777,0,818.69796)" stroke-width="1.5" stroke-linecap="butt" stroke-linejoin="round" fill="none" stroke="#f7fcfd" d="M438.05754 152.58252 437.7709 152.77086 438.05754 152.91672 439.19947 153.95876 439.24546 153.98255 440.43336 154.49633 441.1238 155.14667 441.62129 155.37926 442.80918 156.08364 443.06013 156.33458 443.99708 156.70777 445.13438 157.52249 445.185 157.54512 446.3729 157.91852 447.51966 158.7104 447.5608 158.72666 448.74873 158.89873 449.03535 158.7104 448.74873 158.56453 447.60679 157.52249 447.5608 157.4987 446.3729 156.98493 445.68244 156.33458 445.185 156.10199 443.99708 155.39762 443.74613 155.14667 442.80918 154.7735 441.67189 153.95876 441.62129 153.93613 440.43336 153.56275 439.2866 152.77086 439.24546 152.7546 438.05754 152.58252"/>
<path transform="matrix(2.7777777,0,0,-2.7777777,0,818.69796)" stroke-width="1.5" stroke-linecap="butt" stroke-linejoin="round" fill="none" stroke="#eff6fa" d="M433.3059 150.0948 433.21418 150.39504 433.3059 150.45127 434.4938 151.32703 434.66758 151.58295 435.68174 152.16219 436.36195 152.77086 436.86964 153.05263 438.05754 153.94196 438.07597 153.95876 439.24546 154.56389 440.02635 155.14667 440.43336 155.35866 441.62129 156.0554 442.0017 156.33458 442.80918 156.72864 443.99708 157.51566 444.00663 157.52249 445.185 158.04952 446.20826 158.7104 446.3729 158.78769 447.5608 159.30092 448.52235 159.8983 448.74873 159.99681 449.9366 160.4493 451.01829 161.08621 451.12455 161.12802 452.31245 161.43546 453.50035 161.38645 453.5921 161.08621 453.50035 161.02999 452.31245 160.15422 452.13868 159.8983 451.12455 159.31906 450.4443 158.7104 449.9366 158.42862 448.74873 157.53929 448.7303 157.52249 447.5608 156.91738 446.7799 156.33458 446.3729 156.1226 445.185 155.42584 444.80455 155.14667 443.99708 154.75263 442.80918 153.96559 442.79963 153.95876 441.62129 153.43173 440.598 152.77086 440.43336 152.69356 439.24546 152.18035 438.2839 151.58295 438.05754 151.48444 436.86964 151.03195 435.788 150.39504 435.68174 150.35323 434.4938 150.04579 433.3059 150.0948"/>
<path transform="matrix(2.7777777,0,0,-2.7777777,0,818.69796)" stroke-width="1.5" stroke-linecap="butt" stroke-linejoin="round" fill="none" stroke="#e4eef5" d="M426.17848 145.18772 425.0187 145.6434 426.14613 146.83132 426.17848 146.85338 427.36637 147.76273 427.60395 148.01923 428.55427 148.6513 429.19456 149.20713 429.7422 149.55063 430.83326 150.39504 430.93009 150.4537 432.11799 151.19956 432.61653 151.58295 433.3059 151.98928 434.40226 152.77086 434.4938 152.82378 435.68174 153.51894 436.30659 153.95876 436.86964 154.27513 438.05754 155.04109 438.20985 155.14667 439.24546 155.70966 440.1956 156.33458 440.43336 156.46321 441.62129 157.12357 442.23948 157.52249 442.80918 157.82088 443.99708 158.51181 444.31187 158.7104 445.185 159.15073 446.3729 159.86762 446.4229 159.8983 447.5608 160.44696 448.63417 161.08621 448.74873 161.1424 449.9366 161.70207 450.92533 162.27413 451.12455 162.36779 452.31245 162.9061 453.30723 163.46204 453.50035 163.54843 454.68827 164.04558 455.81654 164.64994 455.87617 164.67508 457.06407 165.10189 458.25199 165.61949 458.73945 165.83785 459.43989 166.0485 460.6278 166.29354 461.78755 165.83785 460.66014 164.64994 460.6278 164.62787 459.43989 163.71852 459.2023 163.46204 458.25199 162.82994 457.6117 162.27413 457.06407 161.93062 455.973 161.08621 455.87617 161.02756 454.68827 160.28171 454.18974 159.8983 453.50035 159.49198 452.40403 158.7104 452.31245 158.65747 451.12455 157.96231 450.49967 157.52249 449.9366 157.20612 448.74873 156.44017 448.5964 156.33458 447.5608 155.77159 446.6107 155.14667 446.3729 155.01804 445.185 154.3577 444.56678 153.95876 443.99708 153.66037 442.80918 152.96944 442.4944 152.77086 441.62129 152.33052 440.43336 151.61365 440.38337 151.58295 439.24546 151.03429 438.1721 150.39504 438.05754 150.33885 436.86964 149.77918 435.88093 149.20713 435.68174 149.11347 434.4938 148.57515 433.49903 148.01923 433.3059 147.93282 432.11799 147.43567 430.98976 146.83132 430.93009 146.80619 429.7422 146.37937 428.55427 145.86176 428.0668 145.6434 427.36637 145.43277 426.17848 145.18772Z"/>
<path transform="matrix(2.7777777,0,0,-2.7777777,0,818.69796)" stroke-width="1.5" stroke-linecap="butt" stroke-linejoin="round" fill="none" stroke="#d4e3ef" d="M411.92356 137.18859 411.6156 137.32805 411.92356 138.52637 413.11146 139.79685 414.29939 140.9079 419.051 144.5907 424.99055 148.67087 427.5624 150.39504 432.11799 153.24147 435.18309 155.14667 440.43336 158.23633 443.27174 159.8983 448.74873 162.93027 452.31245 164.86777 461.22737 169.40157 469.31459 172.9653 472.94767 174.1532 473.6948 174.29277 474.8827 174.29267 475.19065 174.1532 474.8827 172.95488 473.6948 171.6844 472.50688 170.57335 467.75526 166.89055 461.8157 162.81038 459.24388 161.08621 454.68827 158.23978 451.6232 156.33458 446.3729 153.24492 443.53453 151.58295 438.05754 148.55098 434.4938 146.61348 425.5789 142.07968 417.49168 138.51596 413.8586 137.32805 413.11146 137.18849 411.92356 137.18859"/>
<path transform="matrix(2.7777777,0,0,-2.7777777,0,818.69796)" stroke-width="1.5" stroke-linecap="butt" stroke-linejoin="round" fill="none" stroke="#c4d7e8" d="M389.3533 123.85657 388.6756 124.261058 388.91566 125.44897 389.3533 126.02629 389.7431 126.63687 390.5412 127.48868 390.8132 127.82478 391.72914 128.68314 392.0386 129.0127 392.91703 129.76609 393.3694 130.20059 394.10493 130.792 394.77503 131.3885 395.29286 131.78488 396.2357 132.57642 396.48075 132.75688 397.66868 133.698 397.7476 133.76433 398.85658 134.57697 399.3254 134.95223 400.04447 135.4625 400.925 136.14014 401.2324 136.3526 402.4203 137.22356 402.55644 137.32805 403.6082 138.05028 404.23548 138.51596 404.7961 138.89249 405.9199 139.70386 405.984 139.74613 407.17195 140.54372 407.65617 140.89177 408.35984 141.35228 409.3964 142.07968 409.54774 142.17717 410.73567 142.96048 411.17558 143.2676 411.92356 143.7457 412.96156 144.45549 413.11146 144.55004 414.29939 145.31406 414.78379 145.6434 415.48728 146.08351 416.60707 146.83132 416.6752 146.87346 417.8631 147.61495 418.4722 148.01923 419.051 148.37425 420.23893 149.1442 420.33436 149.20713 421.42683 149.87148 422.23329 150.39504 422.61473 150.62482 423.80265 151.36487 424.1409 151.58295 424.99055 152.09029 426.0604 152.77086 426.17848 152.84079 427.36637 153.55055 428.01274 153.95876 428.55427 154.27674 429.7422 155.00522 429.9679 155.14667 430.93009 155.70635 431.94389 156.33458 432.11799 156.43524 433.3059 157.12918 433.9456 157.52249 434.4938 157.83643 435.68174 158.54474 435.9534 158.7104 436.86964 159.22986 437.9762 159.8983 438.05754 159.94422 439.24546 160.615 440.03215 161.08621 440.43336 161.31043 441.62129 161.99127 442.09776 162.27413 442.80918 162.66753 443.99708 163.35799 444.174 163.46204 445.185 164.0149 446.2726 164.64994 446.3729 164.70465 447.5608 165.35186 448.40116 165.83785 448.74873 166.0254 449.9366 166.67765 450.54466 167.02576 451.12455 167.33506 452.31245 167.99147 452.7047 168.21367 453.50035 168.63283 454.68827 169.29244 454.88313 169.40157 455.87617 169.91793 457.06407 170.57956 457.082 170.58948 458.25199 171.18943 459.31816 171.77739 459.43989 171.83995 460.6278 172.44634 461.5802 172.9653 461.8157 173.08466 463.0036 173.68759 463.86915 174.1532 464.19154 174.31426 465.37944 174.91197 466.18809 175.34111 466.56733 175.52768 467.75526 176.11817 468.54078 176.52902 468.94316 176.72373 470.13108 177.3047 470.93159 177.71694 471.31898 177.90113 472.50688 178.46994 473.3656 178.90483 473.6948 179.05844 474.8827 179.61208 475.849 180.09275 476.07063 180.19409 477.2585 180.72908 478.389 181.28066 478.4464 181.30635 479.63435 181.81868 480.82225 182.37471 481.02604 182.46857 482.01014 182.87831 483.19807 183.40067 483.7695 183.65647 484.38597 183.9051 485.57389 184.38636 486.62974 184.84438 486.76179 184.8958 487.94969 185.32714 489.1376 185.78617 489.77674 186.03229 490.3255 186.21762 491.5134 186.5941 492.70133 186.98009 493.48307 187.2202 493.88923 187.3257 495.07716 187.55738 496.26506 187.70264 497.45295 187.62468 498.13066 187.2202 497.8906 186.03229 497.45295 185.45496 497.06315 184.84438 496.26506 183.99257 495.99305 183.65647 495.07716 182.79811 494.76768 182.46857 493.88923 181.71518 493.43687 181.28066 492.70133 180.68924 492.03123 180.09275 491.5134 179.69637 490.5706 178.90483 490.3255 178.72437 489.1376 177.78325 489.05867 177.71694 487.94969 176.90428 487.48085 176.52902 486.76179 176.01876 485.88127 175.34111 485.57389 175.12865 484.38597 174.2577 484.24983 174.1532 483.19807 173.43097 482.57078 172.9653 482.01014 172.58878 480.88636 171.77739 480.82225 171.73513 479.63435 170.93753 479.15013 170.58948 478.4464 170.12899 477.40989 169.40157 477.2585 169.30408 476.07063 168.52079 475.6307 168.21367 474.8827 167.73555 473.8447 167.02576 473.6948 166.93122 472.50688 166.1672 472.02247 165.83785 471.31898 165.39774 470.19923 164.64994 470.13108 164.60779 468.94316 163.8663 468.33406 163.46204 467.75526 163.107 466.56733 162.33705 466.4719 162.27413 465.37944 161.60977 464.57298 161.08621 464.19154 160.85643 463.0036 160.11638 462.66535 159.8983 461.8157 159.39096 460.74586 158.7104 460.6278 158.64046 459.43989 157.93071 458.79353 157.52249 458.25199 157.20452 457.06407 156.47605 456.83839 156.33458 455.87617 155.7749 454.8624 155.14667 454.68827 155.046 453.50035 154.35207 452.86067 153.95876 452.31245 153.64482 451.12455 152.93651 450.85285 152.77086 449.9366 152.25139 448.83006 151.58295 448.74873 151.53704 447.5608 150.86624 446.7741 150.39504 446.3729 150.17082 445.185 149.48999 444.7085 149.20713 443.99708 148.81372 442.80918 148.12326 442.63224 148.01923 441.62129 147.46636 440.53364 146.83132 440.43336 146.7766 439.24546 146.1294 438.4051 145.6434 438.05754 145.45584 436.86964 144.8036 436.2616 144.45549 435.68174 144.1462 434.4938 143.48978 434.10154 143.2676 433.3059 142.84842 432.11799 142.18881 431.92314 142.07968 430.93009 141.56333 429.7422 140.90169 429.72425 140.89177 428.55427 140.29183 427.4881 139.70386 427.36637 139.64131 426.17848 139.03491 425.22605 138.51596 424.99055 138.39659 423.80265 137.79366 422.93714 137.32805 422.61473 137.16699 421.42683 136.56928 420.61817 136.14014 420.23893 135.95357 419.051 135.36309 418.26548 134.95223 417.8631 134.75753 416.6752 134.17655 415.87467 133.76433 415.48728 133.58013 414.29939 133.0113 413.44065 132.57642 413.11146 132.42282 411.92356 131.86917 410.95729 131.3885 410.73567 131.28716 409.54774 130.75217 408.41725 130.20059 408.35984 130.1749 407.17195 129.66259 405.984 129.10655 405.7802 129.0127 404.7961 128.60294 403.6082 128.08058 403.03678 127.82478 402.4203 127.57614 401.2324 127.094898 400.1765 126.63687 400.04447 126.58546 398.85658 126.15412 397.66868 125.69509 397.02955 125.44897 396.48075 125.263629 395.29286 124.88715 394.10493 124.50117 393.32319 124.261058 392.91703 124.15555 391.72914 123.923877 390.5412 123.77862 389.3533 123.85657Z"/>
<path transform="matrix(2.7777777,0,0,-2.7777777,0,818.69796)" stroke-width="1.5" stroke-linecap="butt" stroke-linejoin="round" fill="none" stroke="#b3cbe2" d="M350.1523 101.03914 349.40266 101.690799 349.4586 102.87871 350.1523 104.24822 351.34025 105.819698 352.52815 107.16985 354.12037 108.818248 358.46769 112.7142 362.39039 115.945697 371.81788 123.07315 385.78959 132.79741 395.29286 139.06546 401.8234 143.2676 423.80265 156.79299 431.02668 161.08621 454.68827 174.57254 464.19154 179.76915 471.45429 183.65647 492.44273 194.34764 505.7683 200.61939 514.0837 204.24408 520.0232 206.62926 525.46627 208.60254 529.5265 209.8394 533.0902 210.58039 534.27816 210.72399 535.466 210.73632 536.65396 210.44211 537.4036 209.79045 537.34768 208.60254 536.65396 207.23302 535.466 205.66156 534.27816 204.3114 532.6859 202.66301 528.33859 198.76705 524.4159 195.53556 514.9884 188.4081 501.01667 178.68384 491.5134 172.41579 484.98286 168.21367 463.0036 154.68827 455.77958 150.39504 432.11799 136.90872 422.61473 131.7121 415.352 127.82478 394.36354 117.133609 381.03794 110.86186 372.7226 107.23717 366.78306 104.852 361.34 102.87871 357.2798 101.64185 353.71604 100.90087 352.52815 100.75726 351.34025 100.744937 350.1523 101.03914"/>
<path transform="matrix(2.7777777,0,0,-2.7777777,0,818.69796)" stroke-width="1.5" stroke-linecap="butt" stroke-linejoin="round" fill="none" stroke="#a3bfdc" d="M325.20625 103.02832 337.08534 111.32654 351.34025 120.92326 364.40724 129.4504 374.88267 136.14014 400.04447 151.7122 421.7112 164.64994 448.74873 180.23392 470.13108 192.13039 490.3255 203.00176 505.5983 210.97837 524.77487 220.63225 541.7671 228.79698 558.03628 236.15699 561.6 237.68987M561.6 208.45293 549.72097 200.15471 535.466 190.55799 522.39907 182.03086 511.9236 175.34111 486.76179 159.76905 465.09504 146.83132 438.05754 131.24733 416.6752 119.35087 396.48075 108.4795 381.20799 100.50289 362.0314 90.84899 345.03919 82.684268 328.77 75.324268 325.20625 73.79139"/>
<path transform="matrix(2.7777777,0,0,-2.7777777,0,818.69796)" stroke-width="1.5" stroke-linecap="butt" stroke-linejoin="round" fill="none" stroke="#98b0d3" d="M325.20625 121.72238 338.70396 130.20059 369.15885 148.93103 384.60166 158.23487 400.04447 167.41765 417.8631 177.86743 444.43119 193.15973 476.16044 210.97837 508.14414 228.43434 524.40676 237.11235 552.09677 251.54335 561.6 256.38945M561.6 189.75887 548.1023 181.28066 517.6474 162.55022 502.2046 153.24639 486.76179 144.06362 468.94316 133.61383 442.37507 118.32151 410.6458 100.50289 378.6621 83.0469 362.3995 74.368907 334.7095 59.937898 325.20625 55.091806"/>
<path transform="matrix(2.7777777,0,0,-2.7777777,0,818.69796)" stroke-width="1.5" stroke-linecap="butt" stroke-linejoin="round" fill="none" stroke="#8f9dc9" d="M325.20625 149.638 348.96443 163.8967 372.7226 177.98844 402.4203 195.37387 425.30833 208.60254 464.96159 231.1728 503.3925 252.62654 540.21768 272.78694 542.34207 273.9375M561.6 161.84326 537.84188 147.58455 514.0837 133.49282 484.38597 116.107379 461.49794 102.87871 421.84468 80.30845 383.41377 58.854703 346.5886 38.69431 344.4642 37.54375"/>
<path transform="matrix(2.7777777,0,0,-2.7777777,0,818.69796)" stroke-width="1.5" stroke-linecap="butt" stroke-linejoin="round" fill="none" stroke="#8c88bf" d="M561.6 115.7264 521.2111 92.06815 477.2585 66.62984 445.13459 48.234926 426.32603 37.54375M325.20625 195.75485 365.59513 219.4131 409.54774 244.85141 441.6717 263.24635 460.48027 273.9375"/>
</g>
<path transform="matrix(2.7777777,0,0,-2.7777777,0,818.69796)" stroke-width=".8" stroke-linecap="square" stroke-miterlimit="10" stroke-linejoin="miter" fill="none" stroke="#000000" d="M325.20625 37.54375V273.9375"/>
<path transform="matrix(2.7777777,0,0,-2.7777777,0,818.69796)" stroke-width=".8" stroke-linecap="square" stroke-miterlimit="10" stroke-linejoin="miter" fill="none" stroke="#000000" d="M561.6 37.54375V273.9375"/>
<path transform="matrix(2.7777777,0,0,-2.7777777,0,818.69796)" stroke-width=".8" stroke-linecap="square" stroke-miterlimit="10" stroke-linejoin="miter" fill="none" stroke="#000000" d="M325.20625 37.54375H561.6"/>
<path transform="matrix(2.7777777,0,0,-2.7777777,0,818.69796)" stroke-width=".8" stroke-linecap="square" stroke-miterlimit="10" stroke-linejoin="miter" fill="none" stroke="#000000" d="M325.20625 273.9375H561.6"/>
<use data-text="=" xlink:href="#font_2_61" transform="matrix(27.777777,0,0,-27.777777,1188.853,39.487878)"/>
<use data-text="1" xlink:href="#font_2_49" transform="matrix(27.777777,0,0,-27.777777,1217.5396,39.487878)"/>
<use data-text="0" xlink:href="#font_2_48" transform="matrix(27.777777,0,0,-27.777777,1235.2127,39.487878)"/>
<use data-text="0" xlink:href="#font_2_48" transform="matrix(27.777777,0,0,-27.777777,1252.8858,39.487878)"/>
<use data-text="." xlink:href="#font_2_46" transform="matrix(27.777777,0,0,-27.777777,1270.5588,39.487878)"/>
<use data-text="0" xlink:href="#font_2_48" transform="matrix(27.777777,0,0,-27.777777,1279.3886,39.487878)"/>
<g clip-path="url(#clip_45)">
<path transform="matrix(.027777777,0,0,-.027777777,1165.0087,39.48788)" d="M255 200C207 113 147 50 74 10 23-18 1-9 9 37 13 59 27 83 53 111 92 154 138 196 190 236 232 302 252 362 249 418 247 452 223 469 177 469 158 469 130 451 94 416L116 525C146 545 182 552 222 547 299 536 336 492 332 414 329 368 317 327 297 291L399 344C447 430 507 493 581 534 632 562 654 553 646 506 642 484 627 459 602 432 562 389 516 347 464 307 422 241 402 180 406 125 408 91 432 75 478 75 496 75 524 92 561 127L539 18C508-1 473-8 433-2 355 7 318 51 323 129 325 175 337 216 358 252L255 200Z"/>
</g>
<g clip-path="url(#clip_46)">
<path transform="matrix(2.7777777,0,0,-2.7777777,0,818.69796)" stroke-width="1.5" stroke-linecap="square" stroke-linejoin="round" fill="none" stroke="#ff0000" d="M514.3212 226.65876 538.3608 181.18445 511.5404 223.87792 534.63729 180.18675 508.86863 221.20613 531.0598 179.22817 506.3016 218.63912 527.6226 178.30718"/>
<g clip-path="url(#clip_47)">
<path transform="matrix(2.7777777,0,0,-2.7777777,1428.67,189.0903)" d="M0-1.5C.397805-1.5 .77937-1.341951 1.06066-1.06066 1.341951-.77937 1.5-.397805 1.5 0 1.5 .397805 1.341951 .77937 1.06066 1.06066 .77937 1.341951 .397805 1.5 0 1.5-.397805 1.5-.77937 1.341951-1.06066 1.06066-1.341951 .77937-1.5 .397805-1.5 0-1.5-.397805-1.341951-.77937-1.06066-1.06066-.77937-1.341951-.397805-1.5 0-1.5Z" fill="#ff0000"/>
<path transform="matrix(2.7777777,0,0,-2.7777777,1428.67,189.0903)" stroke-width="1" stroke-linecap="butt" stroke-linejoin="round" fill="none" stroke="#ff0000" d="M0-1.5C.397805-1.5 .77937-1.341951 1.06066-1.06066 1.341951-.77937 1.5-.397805 1.5 0 1.5 .397805 1.341951 .77937 1.06066 1.06066 .77937 1.341951 .397805 1.5 0 1.5-.397805 1.5-.77937 1.341951-1.06066 1.06066-1.341951 .77937-1.5 .397805-1.5 0-1.5-.397805-1.341951-.77937-1.06066-1.06066-.77937-1.341951-.397805-1.5 0-1.5Z"/>
</g>
<g clip-path="url(#clip_48)">
<path transform="matrix(2.7777777,0,0,-2.7777777,1495.4464,315.4078)" d="M0-1.5C.397805-1.5 .77937-1.341951 1.06066-1.06066 1.341951-.77937 1.5-.397805 1.5 0 1.5 .397805 1.341951 .77937 1.06066 1.06066 .77937 1.341951 .397805 1.5 0 1.5-.397805 1.5-.77937 1.341951-1.06066 1.06066-1.341951 .77937-1.5 .397805-1.5 0-1.5-.397805-1.341951-.77937-1.06066-1.06066-.77937-1.341951-.397805-1.5 0-1.5Z" fill="#ff0000"/>
<path transform="matrix(2.7777777,0,0,-2.7777777,1495.4464,315.4078)" stroke-width="1" stroke-linecap="butt" stroke-linejoin="round" fill="none" stroke="#ff0000" d="M0-1.5C.397805-1.5 .77937-1.341951 1.06066-1.06066 1.341951-.77937 1.5-.397805 1.5 0 1.5 .397805 1.341951 .77937 1.06066 1.06066 .77937 1.341951 .397805 1.5 0 1.5-.397805 1.5-.77937 1.341951-1.06066 1.06066-1.341951 .77937-1.5 .397805-1.5 0-1.5-.397805-1.341951-.77937-1.06066-1.06066-.77937-1.341951-.397805-1.5 0-1.5Z"/>
</g>
<g clip-path="url(#clip_49)">
<path transform="matrix(2.7777777,0,0,-2.7777777,1420.9454,196.8148)" d="M0-1.5C.397805-1.5 .77937-1.341951 1.06066-1.06066 1.341951-.77937 1.5-.397805 1.5 0 1.5 .397805 1.341951 .77937 1.06066 1.06066 .77937 1.341951 .397805 1.5 0 1.5-.397805 1.5-.77937 1.341951-1.06066 1.06066-1.341951 .77937-1.5 .397805-1.5 0-1.5-.397805-1.341951-.77937-1.06066-1.06066-.77937-1.341951-.397805-1.5 0-1.5Z" fill="#ff0000"/>
<path transform="matrix(2.7777777,0,0,-2.7777777,1420.9454,196.8148)" stroke-width="1" stroke-linecap="butt" stroke-linejoin="round" fill="none" stroke="#ff0000" d="M0-1.5C.397805-1.5 .77937-1.341951 1.06066-1.06066 1.341951-.77937 1.5-.397805 1.5 0 1.5 .397805 1.341951 .77937 1.06066 1.06066 .77937 1.341951 .397805 1.5 0 1.5-.397805 1.5-.77937 1.341951-1.06066 1.06066-1.341951 .77937-1.5 .397805-1.5 0-1.5-.397805-1.341951-.77937-1.06066-1.06066-.77937-1.341951-.397805-1.5 0-1.5Z"/>
</g>
<g clip-path="url(#clip_50)">
<path transform="matrix(2.7777777,0,0,-2.7777777,1485.1035,318.17918)" d="M0-1.5C.397805-1.5 .77937-1.341951 1.06066-1.06066 1.341951-.77937 1.5-.397805 1.5 0 1.5 .397805 1.341951 .77937 1.06066 1.06066 .77937 1.341951 .397805 1.5 0 1.5-.397805 1.5-.77937 1.341951-1.06066 1.06066-1.341951 .77937-1.5 .397805-1.5 0-1.5-.397805-1.341951-.77937-1.06066-1.06066-.77937-1.341951-.397805-1.5 0-1.5Z" fill="#ff0000"/>
<path transform="matrix(2.7777777,0,0,-2.7777777,1485.1035,318.17918)" stroke-width="1" stroke-linecap="butt" stroke-linejoin="round" fill="none" stroke="#ff0000" d="M0-1.5C.397805-1.5 .77937-1.341951 1.06066-1.06066 1.341951-.77937 1.5-.397805 1.5 0 1.5 .397805 1.341951 .77937 1.06066 1.06066 .77937 1.341951 .397805 1.5 0 1.5-.397805 1.5-.77937 1.341951-1.06066 1.06066-1.341951 .77937-1.5 .397805-1.5 0-1.5-.397805-1.341951-.77937-1.06066-1.06066-.77937-1.341951-.397805-1.5 0-1.5Z"/>
</g>
<g clip-path="url(#clip_51)">
<path transform="matrix(2.7777777,0,0,-2.7777777,1413.5239,204.23645)" d="M0-1.5C.397805-1.5 .77937-1.341951 1.06066-1.06066 1.341951-.77937 1.5-.397805 1.5 0 1.5 .397805 1.341951 .77937 1.06066 1.06066 .77937 1.341951 .397805 1.5 0 1.5-.397805 1.5-.77937 1.341951-1.06066 1.06066-1.341951 .77937-1.5 .397805-1.5 0-1.5-.397805-1.341951-.77937-1.06066-1.06066-.77937-1.341951-.397805-1.5 0-1.5Z" fill="#ff0000"/>
<path transform="matrix(2.7777777,0,0,-2.7777777,1413.5239,204.23645)" stroke-width="1" stroke-linecap="butt" stroke-linejoin="round" fill="none" stroke="#ff0000" d="M0-1.5C.397805-1.5 .77937-1.341951 1.06066-1.06066 1.341951-.77937 1.5-.397805 1.5 0 1.5 .397805 1.341951 .77937 1.06066 1.06066 .77937 1.341951 .397805 1.5 0 1.5-.397805 1.5-.77937 1.341951-1.06066 1.06066-1.341951 .77937-1.5 .397805-1.5 0-1.5-.397805-1.341951-.77937-1.06066-1.06066-.77937-1.341951-.397805-1.5 0-1.5Z"/>
</g>
<g clip-path="url(#clip_52)">
<path transform="matrix(2.7777777,0,0,-2.7777777,1475.1661,320.8419)" d="M0-1.5C.397805-1.5 .77937-1.341951 1.06066-1.06066 1.341951-.77937 1.5-.397805 1.5 0 1.5 .397805 1.341951 .77937 1.06066 1.06066 .77937 1.341951 .397805 1.5 0 1.5-.397805 1.5-.77937 1.341951-1.06066 1.06066-1.341951 .77937-1.5 .397805-1.5 0-1.5-.397805-1.341951-.77937-1.06066-1.06066-.77937-1.341951-.397805-1.5 0-1.5Z" fill="#ff0000"/>
<path transform="matrix(2.7777777,0,0,-2.7777777,1475.1661,320.8419)" stroke-width="1" stroke-linecap="butt" stroke-linejoin="round" fill="none" stroke="#ff0000" d="M0-1.5C.397805-1.5 .77937-1.341951 1.06066-1.06066 1.341951-.77937 1.5-.397805 1.5 0 1.5 .397805 1.341951 .77937 1.06066 1.06066 .77937 1.341951 .397805 1.5 0 1.5-.397805 1.5-.77937 1.341951-1.06066 1.06066-1.341951 .77937-1.5 .397805-1.5 0-1.5-.397805-1.341951-.77937-1.06066-1.06066-.77937-1.341951-.397805-1.5 0-1.5Z"/>
</g>
<g clip-path="url(#clip_53)">
<path transform="matrix(2.7777777,0,0,-2.7777777,1406.3933,211.36705)" d="M0-1.5C.397805-1.5 .77937-1.341951 1.06066-1.06066 1.341951-.77937 1.5-.397805 1.5 0 1.5 .397805 1.341951 .77937 1.06066 1.06066 .77937 1.341951 .397805 1.5 0 1.5-.397805 1.5-.77937 1.341951-1.06066 1.06066-1.341951 .77937-1.5 .397805-1.5 0-1.5-.397805-1.341951-.77937-1.06066-1.06066-.77937-1.341951-.397805-1.5 0-1.5Z" fill="#ff0000"/>
<path transform="matrix(2.7777777,0,0,-2.7777777,1406.3933,211.36705)" stroke-width="1" stroke-linecap="butt" stroke-linejoin="round" fill="none" stroke="#ff0000" d="M0-1.5C.397805-1.5 .77937-1.341951 1.06066-1.06066 1.341951-.77937 1.5-.397805 1.5 0 1.5 .397805 1.341951 .77937 1.06066 1.06066 .77937 1.341951 .397805 1.5 0 1.5-.397805 1.5-.77937 1.341951-1.06066 1.06066-1.341951 .77937-1.5 .397805-1.5 0-1.5-.397805-1.341951-.77937-1.06066-1.06066-.77937-1.341951-.397805-1.5 0-1.5Z"/>
</g>
<g clip-path="url(#clip_54)">
<path transform="matrix(2.7777777,0,0,-2.7777777,1465.6183,323.40019)" d="M0-1.5C.397805-1.5 .77937-1.341951 1.06066-1.06066 1.341951-.77937 1.5-.397805 1.5 0 1.5 .397805 1.341951 .77937 1.06066 1.06066 .77937 1.341951 .397805 1.5 0 1.5-.397805 1.5-.77937 1.341951-1.06066 1.06066-1.341951 .77937-1.5 .397805-1.5 0-1.5-.397805-1.341951-.77937-1.06066-1.06066-.77937-1.341951-.397805-1.5 0-1.5Z" fill="#ff0000"/>
<path transform="matrix(2.7777777,0,0,-2.7777777,1465.6183,323.40019)" stroke-width="1" stroke-linecap="butt" stroke-linejoin="round" fill="none" stroke="#ff0000" d="M0-1.5C.397805-1.5 .77937-1.341951 1.06066-1.06066 1.341951-.77937 1.5-.397805 1.5 0 1.5 .397805 1.341951 .77937 1.06066 1.06066 .77937 1.341951 .397805 1.5 0 1.5-.397805 1.5-.77937 1.341951-1.06066 1.06066-1.341951 .77937-1.5 .397805-1.5 0-1.5-.397805-1.341951-.77937-1.06066-1.06066-.77937-1.341951-.397805-1.5 0-1.5Z"/>
</g>
</g>
<g clip-path="url(#clip_55)">
<path transform="matrix(2.7777777,0,0,-2.7777777,0,818.69796)" d="M514.3212 224.15876C514.98428 224.15876 515.6202 224.42217 516.089 224.89098 516.55789 225.3598 516.8212 225.99575 516.8212 226.65876 516.8212 227.32176 516.55789 227.9577 516.089 228.42652 515.6202 228.89534 514.98428 229.15876 514.3212 229.15876 513.65829 229.15876 513.0223 228.89534 512.55349 228.42652 512.08468 227.9577 511.82127 227.32176 511.82127 226.65876 511.82127 225.99575 512.08468 225.3598 512.55349 224.89098 513.0223 224.42217 513.65829 224.15876 514.3212 224.15876Z"/>
<path transform="matrix(2.7777777,0,0,-2.7777777,0,818.69796)" stroke-width="1" stroke-linecap="butt" stroke-linejoin="round" fill="none" stroke="#000000" d="M514.3212 224.15876C514.98428 224.15876 515.6202 224.42217 516.089 224.89098 516.55789 225.3598 516.8212 225.99575 516.8212 226.65876 516.8212 227.32176 516.55789 227.9577 516.089 228.42652 515.6202 228.89534 514.98428 229.15876 514.3212 229.15876 513.65829 229.15876 513.0223 228.89534 512.55349 228.42652 512.08468 227.9577 511.82127 227.32176 511.82127 226.65876 511.82127 225.99575 512.08468 225.3598 512.55349 224.89098 513.0223 224.42217 513.65829 224.15876 514.3212 224.15876Z"/>
</g>
<g clip-path="url(#clip_56)">
<path transform="matrix(2.7777777,0,0,-2.7777777,0,818.69796)" d="M443.40315 160.74063 442.28056 157.2857H438.64784L441.58677 155.15045 440.4642 151.69554 443.40315 153.8308 446.34205 151.69554 445.21949 155.15045 448.15843 157.2857H444.5257Z" fill="#ffd700"/>
<path transform="matrix(2.7777777,0,0,-2.7777777,0,818.69796)" stroke-width="1" stroke-linecap="butt" stroke-linejoin="bevel" fill="none" stroke="#ffd700" d="M443.40315 160.74063 442.28056 157.2857H438.64784L441.58677 155.15045 440.4642 151.69554 443.40315 153.8308 446.34205 151.69554 445.21949 155.15045 448.15843 157.2857H444.5257Z"/>
</g>
</svg>
