<?xml version="1.0" encoding="utf-8" standalone="no"?>
<!DOCTYPE svg PUBLIC "-//W3C//DTD SVG 1.1//EN"
  "http://www.w3.org/Graphics/SVG/1.1/DTD/svg11.dtd">
<svg xmlns:xlink="http://www.w3.org/1999/xlink" width="720pt" height="432pt" viewBox="0 0 720 432" xmlns="http://www.w3.org/2000/svg" version="1.1">
 <metadata>
  <rdf:RDF xmlns:dc="http://purl.org/dc/elements/1.1/" xmlns:cc="http://creativecommons.org/ns#" xmlns:rdf="http://www.w3.org/1999/02/22-rdf-syntax-ns#">
   <cc:Work>
    <dc:type rdf:resource="http://purl.org/dc/dcmitype/StillImage"/>
    <dc:date>2025-06-11T20:28:25.569691</dc:date>
    <dc:format>image/svg+xml</dc:format>
    <dc:creator>
     <cc:Agent>
      <dc:title>Matplotlib v3.7.2, https://matplotlib.org/</dc:title>
     </cc:Agent>
    </dc:creator>
   </cc:Work>
  </rdf:RDF>
 </metadata>
 <defs>
  <style type="text/css">*{stroke-linejoin: round; stroke-linecap: butt}</style>
 </defs>
 <g id="figure_1">
  <g id="patch_1">
   <path d="M 0 432 
L 720 432 
L 720 0 
L 0 0 
z
" style="fill: #ffffff"/>
  </g>
  <g id="axes_1">
   <g id="patch_2">
    <path d="M 42.84 359.06 
L 342.08 359.06 
L 342.08 59.82 
L 42.84 59.82 
z
" style="fill: #ffffff"/>
   </g>
   <g id="matplotlib.axis_1">
    <g id="xtick_1">
     <g id="line2d_1">
      <path d="M 72.764 359.06 
L 72.764 59.82 
" clip-path="url(#p1298b71c9b)" style="fill: none; stroke-dasharray: 0.8,1.32; stroke-dashoffset: 0; stroke: #b0b0b0; stroke-opacity: 0.5; stroke-width: 0.8"/>
     </g>
     <g id="line2d_2">
      <defs>
       <path id="m46d00daeb6" d="M 0 0 
L 0 3.5 
" style="stroke: #000000; stroke-width: 0.8"/>
      </defs>
      <g>
       <use xlink:href="#m46d00daeb6" x="72.764" y="359.06" style="stroke: #000000; stroke-width: 0.8"/>
      </g>
     </g>
     <g id="text_1">
      <!-- −4 -->
      <g transform="translate(65.392906 373.658438) scale(0.1 -0.1)">
       <defs>
        <path id="DejaVuSans-2212" d="M 678 2272 
L 4684 2272 
L 4684 1741 
L 678 1741 
L 678 2272 
z
" transform="scale(0.015625)"/>
        <path id="DejaVuSans-34" d="M 2419 4116 
L 825 1625 
L 2419 1625 
L 2419 4116 
z
M 2253 4666 
L 3047 4666 
L 3047 1625 
L 3713 1625 
L 3713 1100 
L 3047 1100 
L 3047 0 
L 2419 0 
L 2419 1100 
L 313 1100 
L 313 1709 
L 2253 4666 
z
" transform="scale(0.015625)"/>
       </defs>
       <use xlink:href="#DejaVuSans-2212"/>
       <use xlink:href="#DejaVuSans-34" x="83.789062"/>
      </g>
     </g>
    </g>
    <g id="xtick_2">
     <g id="line2d_3">
      <path d="M 132.612 359.06 
L 132.612 59.82 
" clip-path="url(#p1298b71c9b)" style="fill: none; stroke-dasharray: 0.8,1.32; stroke-dashoffset: 0; stroke: #b0b0b0; stroke-opacity: 0.5; stroke-width: 0.8"/>
     </g>
     <g id="line2d_4">
      <g>
       <use xlink:href="#m46d00daeb6" x="132.612" y="359.06" style="stroke: #000000; stroke-width: 0.8"/>
      </g>
     </g>
     <g id="text_2">
      <!-- −2 -->
      <g transform="translate(125.240906 373.658438) scale(0.1 -0.1)">
       <defs>
        <path id="DejaVuSans-32" d="M 1228 531 
L 3431 531 
L 3431 0 
L 469 0 
L 469 531 
Q 828 903 1448 1529 
Q 2069 2156 2228 2338 
Q 2531 2678 2651 2914 
Q 2772 3150 2772 3378 
Q 2772 3750 2511 3984 
Q 2250 4219 1831 4219 
Q 1534 4219 1204 4116 
Q 875 4013 500 3803 
L 500 4441 
Q 881 4594 1212 4672 
Q 1544 4750 1819 4750 
Q 2544 4750 2975 4387 
Q 3406 4025 3406 3419 
Q 3406 3131 3298 2873 
Q 3191 2616 2906 2266 
Q 2828 2175 2409 1742 
Q 1991 1309 1228 531 
z
" transform="scale(0.015625)"/>
       </defs>
       <use xlink:href="#DejaVuSans-2212"/>
       <use xlink:href="#DejaVuSans-32" x="83.789062"/>
      </g>
     </g>
    </g>
    <g id="xtick_3">
     <g id="line2d_5">
      <path d="M 192.46 359.06 
L 192.46 59.82 
" clip-path="url(#p1298b71c9b)" style="fill: none; stroke-dasharray: 0.8,1.32; stroke-dashoffset: 0; stroke: #b0b0b0; stroke-opacity: 0.5; stroke-width: 0.8"/>
     </g>
     <g id="line2d_6">
      <g>
       <use xlink:href="#m46d00daeb6" x="192.46" y="359.06" style="stroke: #000000; stroke-width: 0.8"/>
      </g>
     </g>
     <g id="text_3">
      <!-- 0 -->
      <g transform="translate(189.27875 373.658438) scale(0.1 -0.1)">
       <defs>
        <path id="DejaVuSans-30" d="M 2034 4250 
Q 1547 4250 1301 3770 
Q 1056 3291 1056 2328 
Q 1056 1369 1301 889 
Q 1547 409 2034 409 
Q 2525 409 2770 889 
Q 3016 1369 3016 2328 
Q 3016 3291 2770 3770 
Q 2525 4250 2034 4250 
z
M 2034 4750 
Q 2819 4750 3233 4129 
Q 3647 3509 3647 2328 
Q 3647 1150 3233 529 
Q 2819 -91 2034 -91 
Q 1250 -91 836 529 
Q 422 1150 422 2328 
Q 422 3509 836 4129 
Q 1250 4750 2034 4750 
z
" transform="scale(0.015625)"/>
       </defs>
       <use xlink:href="#DejaVuSans-30"/>
      </g>
     </g>
    </g>
    <g id="xtick_4">
     <g id="line2d_7">
      <path d="M 252.308 359.06 
L 252.308 59.82 
" clip-path="url(#p1298b71c9b)" style="fill: none; stroke-dasharray: 0.8,1.32; stroke-dashoffset: 0; stroke: #b0b0b0; stroke-opacity: 0.5; stroke-width: 0.8"/>
     </g>
     <g id="line2d_8">
      <g>
       <use xlink:href="#m46d00daeb6" x="252.308" y="359.06" style="stroke: #000000; stroke-width: 0.8"/>
      </g>
     </g>
     <g id="text_4">
      <!-- 2 -->
      <g transform="translate(249.12675 373.658438) scale(0.1 -0.1)">
       <use xlink:href="#DejaVuSans-32"/>
      </g>
     </g>
    </g>
    <g id="xtick_5">
     <g id="line2d_9">
      <path d="M 312.156 359.06 
L 312.156 59.82 
" clip-path="url(#p1298b71c9b)" style="fill: none; stroke-dasharray: 0.8,1.32; stroke-dashoffset: 0; stroke: #b0b0b0; stroke-opacity: 0.5; stroke-width: 0.8"/>
     </g>
     <g id="line2d_10">
      <g>
       <use xlink:href="#m46d00daeb6" x="312.156" y="359.06" style="stroke: #000000; stroke-width: 0.8"/>
      </g>
     </g>
     <g id="text_5">
      <!-- 4 -->
      <g transform="translate(308.97475 373.658438) scale(0.1 -0.1)">
       <use xlink:href="#DejaVuSans-34"/>
      </g>
     </g>
    </g>
    <g id="text_6">
     <!-- $x_1$ -->
     <g transform="translate(184.97 390.375938) scale(0.14 -0.14)">
      <defs>
       <path id="DejaVuSans-Oblique-78" d="M 3841 3500 
L 2234 1784 
L 3219 0 
L 2559 0 
L 1819 1388 
L 531 0 
L -166 0 
L 1556 1844 
L 641 3500 
L 1300 3500 
L 1972 2234 
L 3144 3500 
L 3841 3500 
z
" transform="scale(0.015625)"/>
       <path id="DejaVuSans-31" d="M 794 531 
L 1825 531 
L 1825 4091 
L 703 3866 
L 703 4441 
L 1819 4666 
L 2450 4666 
L 2450 531 
L 3481 531 
L 3481 0 
L 794 0 
L 794 531 
z
" transform="scale(0.015625)"/>
      </defs>
      <use xlink:href="#DejaVuSans-Oblique-78" transform="translate(0 0.3125)"/>
      <use xlink:href="#DejaVuSans-31" transform="translate(59.179688 -16.09375) scale(0.7)"/>
     </g>
    </g>
   </g>
   <g id="matplotlib.axis_2">
    <g id="ytick_1">
     <g id="line2d_11">
      <path d="M 42.84 329.136 
L 342.08 329.136 
" clip-path="url(#p1298b71c9b)" style="fill: none; stroke-dasharray: 0.8,1.32; stroke-dashoffset: 0; stroke: #b0b0b0; stroke-opacity: 0.5; stroke-width: 0.8"/>
     </g>
     <g id="line2d_12">
      <defs>
       <path id="m38b10d2473" d="M 0 0 
L -3.5 0 
" style="stroke: #000000; stroke-width: 0.8"/>
      </defs>
      <g>
       <use xlink:href="#m38b10d2473" x="42.84" y="329.136" style="stroke: #000000; stroke-width: 0.8"/>
      </g>
     </g>
     <g id="text_7">
      <!-- −4 -->
      <g transform="translate(21.097812 332.935219) scale(0.1 -0.1)">
       <use xlink:href="#DejaVuSans-2212"/>
       <use xlink:href="#DejaVuSans-34" x="83.789062"/>
      </g>
     </g>
    </g>
    <g id="ytick_2">
     <g id="line2d_13">
      <path d="M 42.84 269.288 
L 342.08 269.288 
" clip-path="url(#p1298b71c9b)" style="fill: none; stroke-dasharray: 0.8,1.32; stroke-dashoffset: 0; stroke: #b0b0b0; stroke-opacity: 0.5; stroke-width: 0.8"/>
     </g>
     <g id="line2d_14">
      <g>
       <use xlink:href="#m38b10d2473" x="42.84" y="269.288" style="stroke: #000000; stroke-width: 0.8"/>
      </g>
     </g>
     <g id="text_8">
      <!-- −2 -->
      <g transform="translate(21.097812 273.087219) scale(0.1 -0.1)">
       <use xlink:href="#DejaVuSans-2212"/>
       <use xlink:href="#DejaVuSans-32" x="83.789062"/>
      </g>
     </g>
    </g>
    <g id="ytick_3">
     <g id="line2d_15">
      <path d="M 42.84 209.44 
L 342.08 209.44 
" clip-path="url(#p1298b71c9b)" style="fill: none; stroke-dasharray: 0.8,1.32; stroke-dashoffset: 0; stroke: #b0b0b0; stroke-opacity: 0.5; stroke-width: 0.8"/>
     </g>
     <g id="line2d_16">
      <g>
       <use xlink:href="#m38b10d2473" x="42.84" y="209.44" style="stroke: #000000; stroke-width: 0.8"/>
      </g>
     </g>
     <g id="text_9">
      <!-- 0 -->
      <g transform="translate(29.4775 213.239219) scale(0.1 -0.1)">
       <use xlink:href="#DejaVuSans-30"/>
      </g>
     </g>
    </g>
    <g id="ytick_4">
     <g id="line2d_17">
      <path d="M 42.84 149.592 
L 342.08 149.592 
" clip-path="url(#p1298b71c9b)" style="fill: none; stroke-dasharray: 0.8,1.32; stroke-dashoffset: 0; stroke: #b0b0b0; stroke-opacity: 0.5; stroke-width: 0.8"/>
     </g>
     <g id="line2d_18">
      <g>
       <use xlink:href="#m38b10d2473" x="42.84" y="149.592" style="stroke: #000000; stroke-width: 0.8"/>
      </g>
     </g>
     <g id="text_10">
      <!-- 2 -->
      <g transform="translate(29.4775 153.391219) scale(0.1 -0.1)">
       <use xlink:href="#DejaVuSans-32"/>
      </g>
     </g>
    </g>
    <g id="ytick_5">
     <g id="line2d_19">
      <path d="M 42.84 89.744 
L 342.08 89.744 
" clip-path="url(#p1298b71c9b)" style="fill: none; stroke-dasharray: 0.8,1.32; stroke-dashoffset: 0; stroke: #b0b0b0; stroke-opacity: 0.5; stroke-width: 0.8"/>
     </g>
     <g id="line2d_20">
      <g>
       <use xlink:href="#m38b10d2473" x="42.84" y="89.744" style="stroke: #000000; stroke-width: 0.8"/>
      </g>
     </g>
     <g id="text_11">
      <!-- 4 -->
      <g transform="translate(29.4775 93.543219) scale(0.1 -0.1)">
       <use xlink:href="#DejaVuSans-34"/>
      </g>
     </g>
    </g>
    <g id="text_12">
     <!-- $x_2$ -->
     <g transform="translate(14.18625 216.93) rotate(-90) scale(0.14 -0.14)">
      <use xlink:href="#DejaVuSans-Oblique-78" transform="translate(0 0.3125)"/>
      <use xlink:href="#DejaVuSans-32" transform="translate(59.179688 -16.09375) scale(0.7)"/>
     </g>
    </g>
   </g>
   <g id="PathCollection_1"/>
   <g id="PathCollection_2">
    <path d="M 299.496901 190.25681 
L 296.740606 193.360315 
L 293.71798 196.462608 
L 290.695354 199.313012 
L 287.672727 201.952846 
L 283.964336 204.906061 
L 278.604848 208.747263 
L 275.241206 210.951313 
L 269.53697 214.295699 
L 263.491717 217.387324 
L 257.446465 220.055795 
L 251.401212 222.275687 
L 248.378586 223.253402 
L 242.333333 224.849678 
L 236.256591 226.064444 
L 233.265455 226.468867 
L 230.242828 226.762979 
L 227.220202 226.933495 
L 224.197576 226.970285 
L 221.174949 226.862079 
L 218.152323 226.596305 
L 214.660966 226.064444 
L 212.107071 225.482519 
L 209.084444 224.5672 
L 205.302902 223.041818 
L 203.039192 221.809871 
L 200.016566 219.779155 
L 196.993939 216.982473 
L 194.711889 213.973939 
L 193.088288 210.951313 
L 191.99715 207.928687 
L 191.327253 204.906061 
L 191.031608 201.883434 
L 191.069965 198.860808 
L 191.407646 195.838182 
L 192.014614 192.815556 
L 192.864719 189.792929 
L 193.971313 186.686681 
L 195.27425 183.747677 
L 196.993939 180.395341 
L 198.586588 177.702424 
L 200.568536 174.679798 
L 203.039192 171.330314 
L 206.061818 167.693549 
L 209.084444 164.409377 
L 212.107071 161.413229 
L 215.129697 158.655396 
L 218.152323 156.096984 
L 221.440507 153.521414 
L 227.220202 149.482009 
L 230.343637 147.476162 
L 236.288081 144.082781 
L 242.333333 141.078005 
L 248.61024 138.408283 
L 254.423838 136.361317 
L 257.55598 135.385657 
L 263.491717 133.911395 
L 269.53697 132.803001 
L 273.191253 132.36303 
L 275.582222 132.170082 
L 278.604848 132.053181 
L 281.627475 132.072279 
L 285.820252 132.36303 
L 287.672727 132.583711 
L 290.695354 133.132074 
L 293.71798 133.892282 
L 297.970687 135.385657 
L 299.763232 136.226409 
L 303.45591 138.408283 
L 305.808485 140.301817 
L 307.008766 141.430909 
L 309.503991 144.453535 
L 311.254473 147.476162 
L 312.444816 150.498788 
L 313.174932 153.521414 
L 313.533132 156.54404 
L 313.558722 159.566667 
L 313.285655 162.589293 
L 312.743416 165.611919 
L 311.853737 168.938156 
L 310.900158 171.657172 
L 308.831111 176.304835 
L 308.129473 177.702424 
L 305.740621 181.772514 
L 305.740621 181.772514 
" clip-path="url(#p1298b71c9b)" style="fill: none; stroke: #dce9f2; stroke-width: 1.5"/>
   </g>
   <g id="PathCollection_3">
    <path d="M 342.08 241.583039 
L 334.875649 247.222828 
L 326.966869 253.015906 
L 320.921616 257.174618 
L 312.970025 262.33596 
L 305.808485 266.685036 
L 299.763232 270.156084 
L 291.863613 274.426465 
L 284.650101 278.064506 
L 275.582222 282.299882 
L 269.53697 284.922482 
L 263.491717 287.387937 
L 254.423838 290.786338 
L 248.378586 292.863208 
L 239.310707 295.677435 
L 230.242828 298.128888 
L 224.197576 299.561629 
L 218.152323 300.834651 
L 212.107071 301.943233 
L 206.061818 302.868848 
L 200.016566 303.623388 
L 193.971313 304.19646 
L 187.926061 304.576812 
L 181.880808 304.749302 
L 175.835556 304.707788 
L 169.790303 304.434163 
L 163.745051 303.910506 
L 157.699798 303.12136 
L 151.654545 302.047933 
L 148.631919 301.389976 
L 142.586667 299.794324 
L 138.794956 298.607475 
L 133.518788 296.651261 
L 130.496162 295.375678 
L 124.791338 292.562222 
L 121.428283 290.617598 
L 118.405657 288.677838 
L 115.367747 286.51697 
L 111.664551 283.494343 
L 108.441693 280.471717 
L 105.623644 277.449091 
L 103.149919 274.426465 
L 100.269899 270.281916 
L 99.101545 268.381212 
L 97.247273 264.964261 
L 96.014086 262.33596 
L 94.224646 257.760655 
L 93.724662 256.290707 
L 92.849474 253.268081 
L 92.128225 250.245455 
L 91.554228 247.222828 
L 91.123128 244.200202 
L 90.832137 241.177576 
L 90.667292 238.154949 
L 90.623532 235.132323 
L 90.696064 232.109697 
L 91.172061 226.064444 
L 92.080729 220.019192 
L 93.380634 213.973939 
L 95.060174 207.928687 
L 97.247273 201.496694 
L 99.503016 195.838182 
L 102.248699 189.792929 
L 105.33358 183.747677 
L 108.754389 177.702424 
L 112.511018 171.657172 
L 116.616377 165.611919 
L 121.428283 159.083914 
L 125.852435 153.521414 
L 131.002217 147.476162 
L 136.541414 141.413019 
L 142.586667 135.244083 
L 148.770372 129.340404 
L 155.542824 123.295152 
L 162.783211 117.249899 
L 169.790303 111.771822 
L 175.835556 107.314519 
L 183.27496 102.136768 
L 190.948687 97.138255 
L 197.57791 93.068889 
L 201.971975 90.505231 
L 201.971975 90.505231 
" clip-path="url(#p1298b71c9b)" style="fill: none; stroke: #b5cce3; stroke-width: 1.5"/>
    <path d="M 216.344131 82.770273 
L 218.152323 81.861635 
L 219.942108 80.978384 
L 221.174949 80.380826 
L 224.197576 78.94602 
L 226.323418 77.955758 
L 227.220202 77.545401 
L 230.242828 76.194837 
L 233.119421 74.933131 
L 233.265455 74.870202 
L 236.288081 73.603981 
L 239.310707 72.36335 
L 240.444649 71.910505 
L 242.333333 71.169488 
L 245.35596 70.014634 
L 248.377601 68.887879 
L 248.378586 68.887518 
L 251.401212 67.818445 
L 254.423838 66.778482 
L 257.159256 65.865253 
L 257.446465 65.771038 
L 260.469091 64.818183 
L 263.491717 63.896656 
L 266.514343 63.007349 
L 267.100382 62.842626 
L 269.53697 62.169813 
L 272.559596 61.370289 
L 275.582222 60.605339 
L 278.604848 59.87596 
L 278.85118 59.82 
" clip-path="url(#p1298b71c9b)" style="fill: none; stroke: #b5cce3; stroke-width: 1.5"/>
   </g>
   <g id="PathCollection_4">
    <path d="M 342.08 287.787706 
L 339.394346 289.539596 
L 339.057374 289.75634 
L 336.034747 291.677625 
L 334.629835 292.562222 
L 333.012121 293.56669 
L 329.989495 295.426068 
L 329.728031 295.584848 
L 326.966869 297.238541 
L 324.660589 298.607475 
L 323.944242 299.026899 
L 320.921616 300.774566 
L 319.425611 301.630101 
L 317.89899 302.491359 
L 314.876364 304.17737 
L 314.012813 304.652727 
L 311.853737 305.825287 
L 309.83325 306.910992 
" clip-path="url(#p1298b71c9b)" style="fill: none; stroke: #96acd2; stroke-width: 1.5"/>
    <path d="M 295.21832 314.345808 
L 293.71798 315.068105 
L 290.695354 316.506172 
L 290.188262 316.743232 
L 287.672727 317.903835 
L 284.650101 319.27968 
L 283.563399 319.765859 
L 281.627475 320.620706 
L 278.604848 321.934272 
L 276.606849 322.788485 
L 275.582222 323.220886 
L 272.559596 324.472128 
L 269.53697 325.704389 
L 269.269312 325.811111 
L 266.514343 326.895378 
L 263.491717 328.064544 
L 261.463654 328.833737 
L 260.469091 329.2061 
L 257.446465 330.312166 
L 254.423838 331.397346 
L 253.114537 331.856364 
L 251.401212 332.449296 
L 248.378586 333.470647 
L 245.35596 334.469924 
L 244.084956 334.87899 
L 242.333333 335.435481 
L 239.310707 336.370218 
L 236.288081 337.281666 
L 234.172662 337.901616 
L 233.265455 338.164058 
L 230.242828 339.010276 
L 227.220202 339.831959 
L 224.197576 340.628596 
L 223.033611 340.924242 
L 221.174949 341.390212 
L 218.152323 342.120187 
L 215.129697 342.823816 
L 212.107071 343.500543 
L 210.024609 343.946869 
L 209.084444 344.145734 
L 206.061818 344.754373 
L 203.039192 345.334753 
L 200.016566 345.886273 
L 196.993939 346.408315 
L 193.971313 346.900243 
L 193.514621 346.969495 
L 190.948687 347.353384 
L 187.926061 347.774192 
L 184.903434 348.163406 
L 181.880808 348.520339 
L 178.858182 348.844286 
L 175.835556 349.134519 
L 172.812929 349.390289 
L 169.790303 349.610825 
L 166.767677 349.795332 
L 163.745051 349.942993 
L 162.389045 349.992121 
L 160.722424 350.051653 
L 157.699798 350.121503 
L 154.677172 350.152738 
L 151.654545 350.144472 
L 148.631919 350.095794 
L 145.609293 350.005762 
L 145.29559 349.992121 
L 142.586667 349.870668 
L 139.56404 349.690882 
L 136.541414 349.465635 
L 133.518788 349.193809 
L 130.496162 348.87425 
L 127.473535 348.505765 
L 124.450909 348.087123 
L 121.428283 347.617047 
L 118.405657 347.094221 
L 117.747805 346.969495 
L 115.38303 346.505747 
L 112.360404 345.856904 
L 109.337778 345.149301 
L 106.315152 344.38134 
L 104.726019 343.946869 
L 103.292525 343.540619 
L 100.269899 342.622298 
L 97.247273 341.63617 
L 95.202926 340.924242 
L 94.224646 340.570377 
L 91.20202 339.409803 
L 88.179394 338.172442 
L 87.552536 337.901616 
L 85.156768 336.823994 
L 82.134141 335.382371 
L 81.132079 334.87899 
L 79.111515 333.819957 
L 76.088889 332.146829 
L 75.588437 331.856364 
L 73.066263 330.325344 
L 70.732932 328.833737 
L 70.043636 328.371918 
L 67.02101 326.2501 
L 66.423156 325.811111 
L 63.998384 323.939578 
L 62.573407 322.788485 
L 60.975758 321.428323 
L 59.106245 319.765859 
L 57.953131 318.682015 
L 55.974754 316.743232 
L 54.930505 315.658039 
L 53.139386 313.720606 
L 51.907879 312.302818 
L 50.566572 310.69798 
L 48.885253 308.54804 
L 48.227634 307.675354 
L 46.103281 304.652727 
L 45.862626 304.285069 
L 44.185071 301.630101 
L 42.84 299.321001 
" clip-path="url(#p1298b71c9b)" style="fill: none; stroke: #96acd2; stroke-width: 1.5"/>
    <path d="M 42.84 204.819928 
L 44.061591 201.883434 
L 45.374409 198.860808 
L 45.862626 197.786966 
L 46.754422 195.838182 
L 48.194694 192.815556 
L 48.885253 191.422735 
L 49.698576 189.792929 
L 51.263481 186.770303 
L 51.907879 185.569765 
L 52.892259 183.747677 
L 54.579012 180.725051 
L 54.930505 180.116428 
L 56.333693 177.702424 
L 57.953131 174.994291 
L 58.142423 174.679798 
L 60.021116 171.657172 
L 60.975758 170.162692 
L 61.958264 168.634545 
L 63.952786 165.611919 
L 63.998384 165.544802 
L 66.019327 162.589293 
L 67.02101 161.159417 
L 68.144092 159.566667 
L 70.043636 156.935649 
L 70.328232 156.54404 
L 72.580545 153.521414 
L 73.066263 152.884666 
L 74.898189 150.498788 
L 76.088889 148.98149 
L 77.278007 147.476162 
L 79.111515 145.204104 
L 79.721241 144.453535 
L 82.134141 141.544702 
L 82.229166 141.430909 
L 84.808648 138.408283 
L 85.156768 138.008508 
L 87.455986 135.385657 
L 88.179394 134.57633 
L 90.171039 132.36303 
L 91.20202 131.238974 
L 92.955181 129.340404 
L 94.224646 127.991162 
L 95.809827 126.317778 
L 97.247273 124.827998 
L 98.73643 123.295152 
L 100.269899 121.744939 
L 101.736482 120.272525 
L 103.292525 118.73776 
L 104.811518 117.249899 
L 106.315152 115.802528 
L 107.963116 114.227273 
L 109.337778 112.935577 
L 111.192897 111.204646 
L 112.360404 110.133487 
L 114.502529 108.18202 
L 115.38303 107.393062 
L 117.893729 105.159394 
L 118.405657 104.711312 
L 121.368262 102.136768 
L 121.428283 102.085438 
L 124.450909 99.522599 
L 124.936291 99.114141 
L 127.473535 97.012707 
L 128.594055 96.091515 
L 130.496162 94.552073 
L 132.342511 93.068889 
L 133.518788 92.138437 
L 136.183714 90.046263 
L 136.541414 89.769673 
L 139.56404 87.453549 
L 140.129989 87.023636 
L 142.586667 85.185396 
L 144.181892 84.00101 
L 145.198085 83.257655 
" clip-path="url(#p1298b71c9b)" style="fill: none; stroke: #96acd2; stroke-width: 1.5"/>
    <path d="M 158.229718 74.105295 
L 160.722424 72.436793 
L 161.516697 71.910505 
L 163.745051 70.454857 
L 166.164136 68.887879 
L 166.767677 68.502379 
L 169.790303 66.593458 
L 170.955155 65.865253 
L 172.812929 64.719947 
L 175.835556 62.872976 
L 175.8859 62.842626 
L 178.858182 61.075472 
L 180.988962 59.82 
" clip-path="url(#p1298b71c9b)" style="fill: none; stroke: #96acd2; stroke-width: 1.5"/>
   </g>
   <g id="PathCollection_5">
    <path d="M 342.08 322.112874 
L 340.941601 322.788485 
L 339.057374 323.89409 
L 337.086739 325.041141 
" clip-path="url(#p1298b71c9b)" style="fill: none; stroke: #8c7dba; stroke-width: 1.5"/>
    <path d="M 322.798635 333.007597 
L 320.921616 334.011875 
L 319.284542 334.87899 
L 317.89899 335.604807 
L 314.876364 337.171042 
L 313.450766 337.901616 
L 311.853737 338.711087 
L 308.831111 340.226255 
L 307.422295 340.924242 
L 305.808485 341.715087 
L 302.785859 343.179121 
L 301.181674 343.946869 
L 299.763232 344.618368 
L 296.740606 346.031209 
L 294.709297 346.969495 
L 293.71798 347.422461 
L 290.695354 348.784062 
L 287.983069 349.992121 
L 287.672727 350.128866 
L 284.650101 351.439187 
L 281.627475 352.734477 
L 280.962651 353.014747 
L 278.604848 353.998064 
L 275.582222 355.241533 
L 273.618831 356.037374 
L 272.559596 356.46214 
L 269.53697 357.653773 
L 266.514343 358.829083 
L 265.909196 359.06 
" clip-path="url(#p1298b71c9b)" style="fill: none; stroke: #8c7dba; stroke-width: 1.5"/>
    <path d="M 42.84 138.155881 
L 45.118124 135.385657 
L 45.862626 134.4956 
L 47.656264 132.36303 
L 48.885253 130.926039 
L 50.248873 129.340404 
L 51.907879 127.44276 
L 52.89686 126.317778 
L 54.930505 124.041606 
L 55.601156 123.295152 
L 57.953131 120.718686 
L 58.362709 120.272525 
L 60.975758 117.47035 
L 61.182493 117.249899 
L 63.998384 114.293173 
L 64.061502 114.227273 
L 67.001022 111.204646 
L 67.02101 111.1844 
L 67.599864 110.601364 
" clip-path="url(#p1298b71c9b)" style="fill: none; stroke: #8c7dba; stroke-width: 1.5"/>
    <path d="M 78.658816 99.797415 
L 79.111515 99.368372 
L 79.381335 99.114141 
L 82.134141 96.556759 
L 82.637888 96.091515 
L 85.156768 93.797335 
L 85.9613 93.068889 
L 88.179394 91.087963 
L 89.352767 90.046263 
L 91.20202 88.426622 
L 92.813512 87.023636 
L 94.224646 85.811399 
L 96.344791 84.00101 
L 97.247273 83.240481 
L 99.947888 80.978384 
L 100.269899 80.712149 
L 103.292525 78.230131 
L 103.62898 77.955758 
L 106.315152 75.793393 
L 107.390466 74.933131 
L 109.337778 73.395039 
L 111.229076 71.910505 
L 112.360404 71.033625 
L 115.146273 68.887879 
L 115.38303 68.70778 
L 118.405657 66.426703 
L 119.154818 65.865253 
L 121.428283 64.182403 
L 123.250023 62.842626 
L 124.450909 61.970187 
L 127.429924 59.82 
" clip-path="url(#p1298b71c9b)" style="fill: none; stroke: #8c7dba; stroke-width: 1.5"/>
   </g>
   <g id="PathCollection_6">
    <path d="M 342.08 350.693111 
L 340.16755 351.755682 
" clip-path="url(#p1298b71c9b)" style="fill: none; stroke: #894da3; stroke-width: 1.5"/>
    <path d="M 42.84 98.057764 
L 44.816509 96.091515 
L 45.862626 95.06397 
L 47.903948 93.068889 
L 48.885253 92.121773 
L 51.046517 90.046263 
L 51.907879 89.229266 
L 54.245055 87.023636 
L 54.930505 86.384637 
L 57.500416 84.00101 
L 57.953131 83.586158 
L 60.813471 80.978384 
L 60.975758 80.832185 
L 63.998384 78.124175 
L 64.187411 77.955758 
L 67.02101 75.460929 
L 67.623614 74.933131 
L 70.043636 72.838268 
L 70.13499 72.759603 
" clip-path="url(#p1298b71c9b)" style="fill: none; stroke: #894da3; stroke-width: 1.5"/>
    <path d="M 82.131974 62.72807 
L 82.134141 62.726315 
L 85.156768 60.294746 
L 85.750294 59.82 
" clip-path="url(#p1298b71c9b)" style="fill: none; stroke: #894da3; stroke-width: 1.5"/>
   </g>
   <g id="PathCollection_7">
    <path d="M 42.84 66.421604 
L 43.466029 65.865253 
L 45.862626 63.75794 
L 46.908474 62.842626 
L 48.885253 61.130691 
L 50.405847 59.82 
" clip-path="url(#p1298b71c9b)" style="fill: none; stroke: #821580; stroke-width: 1.5"/>
   </g>
   <g id="PathCollection_8"/>
   <g id="patch_3">
    <path d="M 42.84 359.06 
L 42.84 59.82 
" style="fill: none; stroke: #000000; stroke-width: 0.8; stroke-linejoin: miter; stroke-linecap: square"/>
   </g>
   <g id="patch_4">
    <path d="M 342.08 359.06 
L 342.08 59.82 
" style="fill: none; stroke: #000000; stroke-width: 0.8; stroke-linejoin: miter; stroke-linecap: square"/>
   </g>
   <g id="patch_5">
    <path d="M 42.84 359.06 
L 342.08 359.06 
" style="fill: none; stroke: #000000; stroke-width: 0.8; stroke-linejoin: miter; stroke-linecap: square"/>
   </g>
   <g id="patch_6">
    <path d="M 42.84 59.82 
L 342.08 59.82 
" style="fill: none; stroke: #000000; stroke-width: 0.8; stroke-linejoin: miter; stroke-linecap: square"/>
   </g>
   <g id="text_13">
    <!-- $x^*$ -->
    <g transform="translate(261.2852 170.5388) scale(0.21 -0.21)">
     <defs>
      <path id="DejaVuSans-2a" d="M 3009 3897 
L 1888 3291 
L 3009 2681 
L 2828 2375 
L 1778 3009 
L 1778 1831 
L 1422 1831 
L 1422 3009 
L 372 2375 
L 191 2681 
L 1313 3291 
L 191 3897 
L 372 4206 
L 1422 3572 
L 1422 4750 
L 1778 4750 
L 1778 3572 
L 2828 4206 
L 3009 3897 
z
" transform="scale(0.015625)"/>
     </defs>
     <use xlink:href="#DejaVuSans-Oblique-78" transform="translate(0 0.765625)"/>
     <use xlink:href="#DejaVuSans-2a" transform="translate(77.283529 39.046875) scale(0.7)"/>
    </g>
   </g>
   <g id="text_14">
    <g clip-path="url(#p1298b71c9b)">
     <!-- 0 -->
     <g style="fill: #dce9f2" transform="translate(303.379163 189.411147) rotate(-59.205173) scale(0.08 -0.08)">
      <use xlink:href="#DejaVuSans-30"/>
     </g>
    </g>
   </g>
   <g id="text_15">
    <g clip-path="url(#p1298b71c9b)">
     <!-- 15 -->
     <g style="fill: #b5cce3" transform="translate(206.078635 91.21203) rotate(-33.74938) scale(0.08 -0.08)">
      <defs>
       <path id="DejaVuSans-35" d="M 691 4666 
L 3169 4666 
L 3169 4134 
L 1269 4134 
L 1269 2991 
Q 1406 3038 1543 3061 
Q 1681 3084 1819 3084 
Q 2600 3084 3056 2656 
Q 3513 2228 3513 1497 
Q 3513 744 3044 326 
Q 2575 -91 1722 -91 
Q 1428 -91 1123 -41 
Q 819 9 494 109 
L 494 744 
Q 775 591 1075 516 
Q 1375 441 1709 441 
Q 2250 441 2565 725 
Q 2881 1009 2881 1497 
Q 2881 1984 2565 2268 
Q 2250 2553 1709 2553 
Q 1456 2553 1204 2497 
Q 953 2441 691 2322 
L 691 4666 
z
" transform="scale(0.015625)"/>
      </defs>
      <use xlink:href="#DejaVuSans-31"/>
      <use xlink:href="#DejaVuSans-35" x="63.623047"/>
     </g>
    </g>
   </g>
   <g id="text_16">
    <g clip-path="url(#p1298b71c9b)">
     <!-- 30 -->
     <g style="fill: #96acd2" transform="translate(299.452547 315.280457) rotate(-32.239658) scale(0.08 -0.08)">
      <defs>
       <path id="DejaVuSans-33" d="M 2597 2516 
Q 3050 2419 3304 2112 
Q 3559 1806 3559 1356 
Q 3559 666 3084 287 
Q 2609 -91 1734 -91 
Q 1441 -91 1130 -33 
Q 819 25 488 141 
L 488 750 
Q 750 597 1062 519 
Q 1375 441 1716 441 
Q 2309 441 2620 675 
Q 2931 909 2931 1356 
Q 2931 1769 2642 2001 
Q 2353 2234 1838 2234 
L 1294 2234 
L 1294 2753 
L 1863 2753 
Q 2328 2753 2575 2939 
Q 2822 3125 2822 3475 
Q 2822 3834 2567 4026 
Q 2313 4219 1838 4219 
Q 1578 4219 1281 4162 
Q 984 4106 628 3988 
L 628 4550 
Q 988 4650 1302 4700 
Q 1616 4750 1894 4750 
Q 2613 4750 3031 4423 
Q 3450 4097 3450 3541 
Q 3450 3153 3228 2886 
Q 3006 2619 2597 2516 
z
" transform="scale(0.015625)"/>
      </defs>
      <use xlink:href="#DejaVuSans-33"/>
      <use xlink:href="#DejaVuSans-30" x="63.623047"/>
     </g>
    </g>
   </g>
   <g id="text_17">
    <g clip-path="url(#p1298b71c9b)">
     <!-- 30 -->
     <g style="fill: #96acd2" transform="translate(149.263132 83.632712) rotate(-41.020694) scale(0.08 -0.08)">
      <use xlink:href="#DejaVuSans-33"/>
      <use xlink:href="#DejaVuSans-30" x="63.623047"/>
     </g>
    </g>
   </g>
   <g id="text_18">
    <g clip-path="url(#p1298b71c9b)">
     <!-- 45 -->
     <g style="fill: #8c7dba" transform="translate(327.058517 333.789676) rotate(-34.66413) scale(0.08 -0.08)">
      <use xlink:href="#DejaVuSans-34"/>
      <use xlink:href="#DejaVuSans-35" x="63.623047"/>
     </g>
    </g>
   </g>
   <g id="text_19">
    <g clip-path="url(#p1298b71c9b)">
     <!-- 45 -->
     <g style="fill: #8c7dba" transform="translate(71.527642 110.487836) rotate(-50.453317) scale(0.08 -0.08)">
      <use xlink:href="#DejaVuSans-34"/>
      <use xlink:href="#DejaVuSans-35" x="63.623047"/>
     </g>
    </g>
   </g>
   <g id="text_20">
    <g clip-path="url(#p1298b71c9b)">
     <!-- 60 -->
     <g style="fill: #894da3" transform="translate(329.994356 360.317352) rotate(-33.602362) scale(0.08 -0.08)">
      <defs>
       <path id="DejaVuSans-36" d="M 2113 2584 
Q 1688 2584 1439 2293 
Q 1191 2003 1191 1497 
Q 1191 994 1439 701 
Q 1688 409 2113 409 
Q 2538 409 2786 701 
Q 3034 994 3034 1497 
Q 3034 2003 2786 2293 
Q 2538 2584 2113 2584 
z
M 3366 4563 
L 3366 3988 
Q 3128 4100 2886 4159 
Q 2644 4219 2406 4219 
Q 1781 4219 1451 3797 
Q 1122 3375 1075 2522 
Q 1259 2794 1537 2939 
Q 1816 3084 2150 3084 
Q 2853 3084 3261 2657 
Q 3669 2231 3669 1497 
Q 3669 778 3244 343 
Q 2819 -91 2113 -91 
Q 1303 -91 875 529 
Q 447 1150 447 2328 
Q 447 3434 972 4092 
Q 1497 4750 2381 4750 
Q 2619 4750 2861 4703 
Q 3103 4656 3366 4563 
z
" transform="scale(0.015625)"/>
      </defs>
      <use xlink:href="#DejaVuSans-36"/>
      <use xlink:href="#DejaVuSans-30" x="63.623047"/>
     </g>
    </g>
   </g>
   <g id="text_21">
    <g clip-path="url(#p1298b71c9b)">
     <!-- 60 -->
     <g style="fill: #894da3" transform="translate(74.142863 72.904734) rotate(-46.020325) scale(0.08 -0.08)">
      <use xlink:href="#DejaVuSans-36"/>
      <use xlink:href="#DejaVuSans-30" x="63.623047"/>
     </g>
    </g>
   </g>
   <g id="PathCollection_9">
    <defs>
     <path id="md894e9be1e" d="M 0 -7.071068 
L -1.587554 -2.18508 
L -6.724985 -2.18508 
L -2.568716 0.834626 
L -4.156269 5.720614 
L -0 2.700907 
L 4.156269 5.720614 
L 2.568716 0.834626 
L 6.724985 -2.18508 
L 1.587554 -2.18508 
z
" style="stroke: #0000ff"/>
    </defs>
    <g clip-path="url(#p1298b71c9b)">
     <use xlink:href="#md894e9be1e" x="252.308" y="179.516" style="fill: #0000ff; stroke: #0000ff"/>
    </g>
   </g>
  </g>
  <g id="axes_2">
   <g id="patch_7">
    <path d="M 392.84 359.06 
L 692.08 359.06 
L 692.08 59.82 
L 392.84 59.82 
z
" style="fill: #ffffff"/>
   </g>
   <g id="matplotlib.axis_3">
    <g id="xtick_6">
     <g id="line2d_21">
      <path d="M 422.764 359.06 
L 422.764 59.82 
" clip-path="url(#pc3b4cc54a3)" style="fill: none; stroke-dasharray: 0.8,1.32; stroke-dashoffset: 0; stroke: #b0b0b0; stroke-opacity: 0.5; stroke-width: 0.8"/>
     </g>
     <g id="line2d_22">
      <g>
       <use xlink:href="#m46d00daeb6" x="422.764" y="359.06" style="stroke: #000000; stroke-width: 0.8"/>
      </g>
     </g>
     <g id="text_22">
      <!-- −4 -->
      <g transform="translate(415.392906 373.658438) scale(0.1 -0.1)">
       <use xlink:href="#DejaVuSans-2212"/>
       <use xlink:href="#DejaVuSans-34" x="83.789062"/>
      </g>
     </g>
    </g>
    <g id="xtick_7">
     <g id="line2d_23">
      <path d="M 482.612 359.06 
L 482.612 59.82 
" clip-path="url(#pc3b4cc54a3)" style="fill: none; stroke-dasharray: 0.8,1.32; stroke-dashoffset: 0; stroke: #b0b0b0; stroke-opacity: 0.5; stroke-width: 0.8"/>
     </g>
     <g id="line2d_24">
      <g>
       <use xlink:href="#m46d00daeb6" x="482.612" y="359.06" style="stroke: #000000; stroke-width: 0.8"/>
      </g>
     </g>
     <g id="text_23">
      <!-- −2 -->
      <g transform="translate(475.240906 373.658438) scale(0.1 -0.1)">
       <use xlink:href="#DejaVuSans-2212"/>
       <use xlink:href="#DejaVuSans-32" x="83.789062"/>
      </g>
     </g>
    </g>
    <g id="xtick_8">
     <g id="line2d_25">
      <path d="M 542.46 359.06 
L 542.46 59.82 
" clip-path="url(#pc3b4cc54a3)" style="fill: none; stroke-dasharray: 0.8,1.32; stroke-dashoffset: 0; stroke: #b0b0b0; stroke-opacity: 0.5; stroke-width: 0.8"/>
     </g>
     <g id="line2d_26">
      <g>
       <use xlink:href="#m46d00daeb6" x="542.46" y="359.06" style="stroke: #000000; stroke-width: 0.8"/>
      </g>
     </g>
     <g id="text_24">
      <!-- 0 -->
      <g transform="translate(539.27875 373.658438) scale(0.1 -0.1)">
       <use xlink:href="#DejaVuSans-30"/>
      </g>
     </g>
    </g>
    <g id="xtick_9">
     <g id="line2d_27">
      <path d="M 602.308 359.06 
L 602.308 59.82 
" clip-path="url(#pc3b4cc54a3)" style="fill: none; stroke-dasharray: 0.8,1.32; stroke-dashoffset: 0; stroke: #b0b0b0; stroke-opacity: 0.5; stroke-width: 0.8"/>
     </g>
     <g id="line2d_28">
      <g>
       <use xlink:href="#m46d00daeb6" x="602.308" y="359.06" style="stroke: #000000; stroke-width: 0.8"/>
      </g>
     </g>
     <g id="text_25">
      <!-- 2 -->
      <g transform="translate(599.12675 373.658438) scale(0.1 -0.1)">
       <use xlink:href="#DejaVuSans-32"/>
      </g>
     </g>
    </g>
    <g id="xtick_10">
     <g id="line2d_29">
      <path d="M 662.156 359.06 
L 662.156 59.82 
" clip-path="url(#pc3b4cc54a3)" style="fill: none; stroke-dasharray: 0.8,1.32; stroke-dashoffset: 0; stroke: #b0b0b0; stroke-opacity: 0.5; stroke-width: 0.8"/>
     </g>
     <g id="line2d_30">
      <g>
       <use xlink:href="#m46d00daeb6" x="662.156" y="359.06" style="stroke: #000000; stroke-width: 0.8"/>
      </g>
     </g>
     <g id="text_26">
      <!-- 4 -->
      <g transform="translate(658.97475 373.658438) scale(0.1 -0.1)">
       <use xlink:href="#DejaVuSans-34"/>
      </g>
     </g>
    </g>
    <g id="text_27">
     <!-- $\hat{x}_1$ -->
     <g transform="translate(534.9 392.086563) scale(0.14 -0.14)">
      <defs>
       <path id="DejaVuSans-302" d="M -1831 5119 
L -1369 5119 
L -603 3944 
L -1038 3944 
L -1600 4709 
L -2163 3944 
L -2597 3944 
L -1831 5119 
z
M -1600 3584 
L -1600 3584 
z
" transform="scale(0.015625)"/>
      </defs>
      <use xlink:href="#DejaVuSans-302" transform="translate(62.373047 12.015625)"/>
      <use xlink:href="#DejaVuSans-Oblique-78" transform="translate(0 0.828125)"/>
      <use xlink:href="#DejaVuSans-31" transform="translate(60.136719 -15.578125) scale(0.7)"/>
     </g>
    </g>
   </g>
   <g id="matplotlib.axis_4">
    <g id="ytick_6">
     <g id="line2d_31">
      <path d="M 392.84 329.136 
L 692.08 329.136 
" clip-path="url(#pc3b4cc54a3)" style="fill: none; stroke-dasharray: 0.8,1.32; stroke-dashoffset: 0; stroke: #b0b0b0; stroke-opacity: 0.5; stroke-width: 0.8"/>
     </g>
     <g id="line2d_32">
      <g>
       <use xlink:href="#m38b10d2473" x="392.84" y="329.136" style="stroke: #000000; stroke-width: 0.8"/>
      </g>
     </g>
     <g id="text_28">
      <!-- −4 -->
      <g transform="translate(371.097812 332.935219) scale(0.1 -0.1)">
       <use xlink:href="#DejaVuSans-2212"/>
       <use xlink:href="#DejaVuSans-34" x="83.789062"/>
      </g>
     </g>
    </g>
    <g id="ytick_7">
     <g id="line2d_33">
      <path d="M 392.84 269.288 
L 692.08 269.288 
" clip-path="url(#pc3b4cc54a3)" style="fill: none; stroke-dasharray: 0.8,1.32; stroke-dashoffset: 0; stroke: #b0b0b0; stroke-opacity: 0.5; stroke-width: 0.8"/>
     </g>
     <g id="line2d_34">
      <g>
       <use xlink:href="#m38b10d2473" x="392.84" y="269.288" style="stroke: #000000; stroke-width: 0.8"/>
      </g>
     </g>
     <g id="text_29">
      <!-- −2 -->
      <g transform="translate(371.097812 273.087219) scale(0.1 -0.1)">
       <use xlink:href="#DejaVuSans-2212"/>
       <use xlink:href="#DejaVuSans-32" x="83.789062"/>
      </g>
     </g>
    </g>
    <g id="ytick_8">
     <g id="line2d_35">
      <path d="M 392.84 209.44 
L 692.08 209.44 
" clip-path="url(#pc3b4cc54a3)" style="fill: none; stroke-dasharray: 0.8,1.32; stroke-dashoffset: 0; stroke: #b0b0b0; stroke-opacity: 0.5; stroke-width: 0.8"/>
     </g>
     <g id="line2d_36">
      <g>
       <use xlink:href="#m38b10d2473" x="392.84" y="209.44" style="stroke: #000000; stroke-width: 0.8"/>
      </g>
     </g>
     <g id="text_30">
      <!-- 0 -->
      <g transform="translate(379.4775 213.239219) scale(0.1 -0.1)">
       <use xlink:href="#DejaVuSans-30"/>
      </g>
     </g>
    </g>
    <g id="ytick_9">
     <g id="line2d_37">
      <path d="M 392.84 149.592 
L 692.08 149.592 
" clip-path="url(#pc3b4cc54a3)" style="fill: none; stroke-dasharray: 0.8,1.32; stroke-dashoffset: 0; stroke: #b0b0b0; stroke-opacity: 0.5; stroke-width: 0.8"/>
     </g>
     <g id="line2d_38">
      <g>
       <use xlink:href="#m38b10d2473" x="392.84" y="149.592" style="stroke: #000000; stroke-width: 0.8"/>
      </g>
     </g>
     <g id="text_31">
      <!-- 2 -->
      <g transform="translate(379.4775 153.391219) scale(0.1 -0.1)">
       <use xlink:href="#DejaVuSans-32"/>
      </g>
     </g>
    </g>
    <g id="ytick_10">
     <g id="line2d_39">
      <path d="M 392.84 89.744 
L 692.08 89.744 
" clip-path="url(#pc3b4cc54a3)" style="fill: none; stroke-dasharray: 0.8,1.32; stroke-dashoffset: 0; stroke: #b0b0b0; stroke-opacity: 0.5; stroke-width: 0.8"/>
     </g>
     <g id="line2d_40">
      <g>
       <use xlink:href="#m38b10d2473" x="392.84" y="89.744" style="stroke: #000000; stroke-width: 0.8"/>
      </g>
     </g>
     <g id="text_32">
      <!-- 4 -->
      <g transform="translate(379.4775 93.543219) scale(0.1 -0.1)">
       <use xlink:href="#DejaVuSans-34"/>
      </g>
     </g>
    </g>
    <g id="text_33">
     <!-- $\hat{x}_2$ -->
     <g transform="translate(364.18625 217) rotate(-90) scale(0.14 -0.14)">
      <use xlink:href="#DejaVuSans-302" transform="translate(62.373047 12.015625)"/>
      <use xlink:href="#DejaVuSans-Oblique-78" transform="translate(0 0.828125)"/>
      <use xlink:href="#DejaVuSans-32" transform="translate(60.136719 -15.578125) scale(0.7)"/>
     </g>
    </g>
   </g>
   <g id="PathCollection_10"/>
   <g id="PathCollection_11">
    <path d="M 601.792793 269.438577 
L 598.378586 270.526269 
L 592.333333 272.247295 
L 586.288081 273.734619 
L 580.242828 275.002596 
L 574.197576 276.055935 
L 568.152323 276.926085 
L 562.107071 277.605917 
L 556.061818 278.087785 
L 550.016566 278.394428 
L 543.971313 278.525847 
L 537.926061 278.482041 
L 531.880808 278.26301 
L 525.835556 277.868754 
L 519.790303 277.292464 
L 513.745051 276.513909 
L 507.699798 275.552164 
L 501.654545 274.406314 
L 495.609293 273.014946 
L 489.466645 271.403838 
L 483.518788 269.569104 
L 477.473535 267.457455 
L 471.428283 265.055204 
L 465.38303 262.311067 
L 459.337778 259.160943 
L 453.292525 255.523632 
L 449.920834 253.268081 
L 445.870089 250.245455 
L 442.248032 247.222828 
L 439.016839 244.200202 
L 436.143007 241.177576 
L 433.596757 238.154949 
L 431.351526 235.132323 
L 429.111515 231.617441 
L 427.713153 229.087071 
L 426.088889 225.576794 
L 425.113898 223.041818 
L 424.183859 220.019192 
L 423.48633 216.996566 
L 423.022435 213.973939 
L 422.795738 210.951313 
L 422.795738 207.928687 
L 423.066263 204.613873 
L 423.48633 201.883434 
L 424.183859 198.860808 
L 425.113898 195.838182 
L 426.281382 192.815556 
L 427.713153 189.792929 
L 429.390904 186.770303 
L 432.134141 182.675204 
L 433.596757 180.725051 
L 436.143007 177.702424 
L 439.016839 174.679798 
L 442.248032 171.657172 
L 445.870089 168.634545 
L 450.269899 165.371452 
L 454.482815 162.589293 
L 459.608695 159.566667 
L 465.43381 156.54404 
L 472.140571 153.521414 
L 477.473535 151.422545 
L 483.518788 149.310896 
L 489.56404 147.448334 
L 495.609293 145.865054 
L 501.7522 144.453535 
L 507.699798 143.327836 
L 513.745051 142.366091 
L 521.267072 141.430909 
L 525.835556 141.011246 
L 531.880808 140.61699 
L 537.926061 140.397959 
L 543.971313 140.354153 
L 550.016566 140.485572 
L 556.061818 140.792215 
L 563.652928 141.430909 
L 568.152323 141.953915 
L 574.197576 142.824065 
L 580.242828 143.877404 
L 586.288081 145.145381 
L 592.333333 146.632705 
L 598.378586 148.353731 
L 604.939124 150.498788 
L 610.469091 152.589173 
L 613.491717 153.824796 
L 619.53697 156.568933 
L 625.582222 159.719057 
L 631.627475 163.356368 
L 634.999166 165.611919 
L 639.049911 168.634545 
L 642.671968 171.657172 
L 645.903161 174.679798 
L 648.776993 177.702424 
L 651.323243 180.725051 
L 653.568474 183.747677 
L 655.808485 187.262559 
L 657.206847 189.792929 
L 658.831111 193.303206 
L 659.806102 195.838182 
L 660.736141 198.860808 
L 661.43367 201.883434 
L 661.897565 204.906061 
L 662.124262 207.928687 
L 662.124262 210.951313 
L 661.853737 214.266127 
L 661.43367 216.996566 
L 660.736141 220.019192 
L 659.806102 223.041818 
L 658.638618 226.064444 
L 657.206847 229.087071 
L 655.529096 232.109697 
L 652.785859 236.204796 
L 651.323243 238.154949 
L 648.776993 241.177576 
L 645.903161 244.200202 
L 642.671968 247.222828 
L 639.049911 250.245455 
L 634.650101 253.508548 
L 630.437185 256.290707 
L 625.311305 259.313333 
L 619.48619 262.33596 
L 612.983645 265.271605 
L 612.983645 265.271605 
" clip-path="url(#pc3b4cc54a3)" style="fill: none; stroke: #dce9f2; stroke-width: 1.5"/>
   </g>
   <g id="PathCollection_12">
    <path d="M 692.08 255.125988 
L 691.01036 256.290707 
L 689.057374 258.284381 
L 688.028421 259.313333 
L 686.034747 261.189732 
L 684.790969 262.33596 
L 683.012121 263.884216 
L 681.281339 265.358586 
L 679.989495 266.401127 
L 677.481387 268.381212 
L 676.966869 268.767101 
L 673.944242 270.983693 
L 673.357994 271.403838 
L 670.921616 273.066763 
L 668.882063 274.426465 
L 667.89899 275.052057 
L 664.876364 276.929749 
L 664.019449 277.449091 
L 661.853737 278.704576 
L 658.831111 280.413017 
L 658.724524 280.471717 
L 655.808485 282.010738 
L 652.921468 283.494343 
L 652.785859 283.561244 
L 649.763232 285.012105 
L 646.740606 286.422664 
L 646.532578 286.51697 
L 643.71798 287.743846 
L 640.695354 289.022649 
L 639.435296 289.539596 
L 637.672727 290.235919 
L 634.650101 291.392727 
L 631.627475 292.512218 
L 631.487809 292.562222 
L 628.604848 293.55753 
L 625.582222 294.565072 
L 622.559596 295.53663 
L 622.403814 295.584848 
L 619.53697 296.441607 
L 616.514343 297.310177 
L 613.491717 298.144005 
L 611.738594 298.607475 
L 610.469091 298.931903 
L 607.446465 299.670767 
L 604.423838 300.376047 
L 601.401212 301.047742 
L 598.642668 301.630101 
L 598.378586 301.684053 
L 595.35596 302.269078 
L 592.333333 302.821601 
L 589.310707 303.341623 
L 586.288081 303.829143 
L 583.265455 304.284162 
L 580.628794 304.652727 
L 580.242828 304.704994 
L 577.220202 305.082822 
L 574.197576 305.429164 
L 571.174949 305.744021 
L 568.152323 306.027393 
L 565.129697 306.279278 
L 562.107071 306.499678 
L 559.084444 306.688592 
L 556.061818 306.84602 
L 553.039192 306.971963 
L 550.016566 307.06642 
L 546.993939 307.129392 
L 543.971313 307.160877 
L 540.948687 307.160877 
L 537.926061 307.129392 
L 534.903434 307.06642 
L 531.880808 306.971963 
L 528.858182 306.84602 
L 525.835556 306.688592 
L 522.812929 306.499678 
L 519.790303 306.279278 
L 516.767677 306.027393 
L 513.745051 305.744021 
L 510.722424 305.429164 
L 507.699798 305.082822 
L 504.677172 304.704994 
L 504.291206 304.652727 
L 501.654545 304.284162 
L 498.631919 303.829143 
L 495.609293 303.341623 
L 492.586667 302.821601 
L 489.56404 302.269078 
L 486.541414 301.684053 
L 486.277332 301.630101 
L 483.518788 301.047742 
L 482.747402 300.876323 
" clip-path="url(#pc3b4cc54a3)" style="fill: none; stroke: #b5cce3; stroke-width: 1.5"/>
    <path d="M 466.268269 296.695986 
L 465.38303 296.441607 
L 462.516186 295.584848 
L 462.360404 295.53663 
L 459.337778 294.565072 
L 456.315152 293.55753 
L 453.432191 292.562222 
L 453.292525 292.512218 
L 450.269899 291.392727 
L 447.247273 290.235919 
L 445.484704 289.539596 
L 444.224646 289.022649 
L 441.20202 287.743846 
L 438.387422 286.51697 
L 438.179394 286.422664 
L 435.156768 285.012105 
L 432.134141 283.561244 
L 431.998532 283.494343 
L 429.111515 282.010738 
L 426.195476 280.471717 
L 426.088889 280.413017 
L 423.066263 278.704576 
L 420.900551 277.449091 
L 420.043636 276.929749 
L 417.02101 275.052057 
L 416.037937 274.426465 
L 413.998384 273.066763 
L 411.562006 271.403838 
L 410.975758 270.983693 
L 407.953131 268.767101 
L 407.438613 268.381212 
L 404.930505 266.401127 
L 403.638661 265.358586 
L 401.907879 263.884216 
L 400.129031 262.33596 
L 398.885253 261.189732 
L 396.891579 259.313333 
L 395.862626 258.284381 
L 393.90964 256.290707 
L 392.84 255.125988 
" clip-path="url(#pc3b4cc54a3)" style="fill: none; stroke: #b5cce3; stroke-width: 1.5"/>
    <path d="M 392.84 163.754012 
L 393.90964 162.589293 
L 395.862626 160.595619 
L 396.891579 159.566667 
L 398.885253 157.690268 
L 400.129031 156.54404 
L 401.907879 154.995784 
L 403.638661 153.521414 
L 404.930505 152.478873 
L 407.438613 150.498788 
L 407.953131 150.112899 
L 410.975758 147.896307 
L 411.562006 147.476162 
L 413.998384 145.813237 
L 416.037937 144.453535 
L 417.02101 143.827943 
L 420.043636 141.950251 
L 420.900551 141.430909 
L 423.066263 140.175424 
L 426.088889 138.466983 
L 426.195476 138.408283 
L 429.111515 136.869262 
L 431.998532 135.385657 
L 432.134141 135.318756 
L 435.156768 133.867895 
L 438.179394 132.457336 
L 438.387422 132.36303 
L 441.20202 131.136154 
L 444.224646 129.857351 
L 445.484704 129.340404 
L 447.247273 128.644081 
L 450.269899 127.487273 
L 453.292525 126.367782 
L 453.432191 126.317778 
L 456.315152 125.32247 
L 459.337778 124.314928 
L 462.360404 123.34337 
L 462.516186 123.295152 
L 465.38303 122.438393 
L 468.405657 121.569823 
L 471.428283 120.735995 
L 473.181406 120.272525 
L 474.450909 119.948097 
L 477.473535 119.209233 
L 480.496162 118.503953 
L 483.518788 117.832258 
L 486.277332 117.249899 
L 486.541414 117.195947 
L 489.56404 116.610922 
L 492.586667 116.058399 
L 495.609293 115.538377 
L 498.631919 115.050857 
L 501.654545 114.595838 
L 504.291206 114.227273 
L 504.677172 114.175006 
L 507.699798 113.797178 
L 510.722424 113.450836 
L 513.745051 113.135979 
L 516.767677 112.852607 
L 519.790303 112.600722 
L 522.812929 112.380322 
L 525.835556 112.191408 
L 528.858182 112.03398 
L 531.880808 111.908037 
L 534.903434 111.81358 
L 537.926061 111.750608 
L 540.948687 111.719123 
L 543.971313 111.719123 
L 546.993939 111.750608 
L 550.016566 111.81358 
L 553.039192 111.908037 
L 556.061818 112.03398 
L 559.084444 112.191408 
L 562.107071 112.380322 
L 565.129697 112.600722 
L 568.152323 112.852607 
L 571.174949 113.135979 
L 574.197576 113.450836 
L 577.220202 113.797178 
L 580.242828 114.175006 
L 580.628794 114.227273 
L 583.265455 114.595838 
L 586.288081 115.050857 
L 589.310707 115.538377 
L 592.333333 116.058399 
L 595.35596 116.610922 
L 598.378586 117.195947 
L 598.642668 117.249899 
L 601.401212 117.832258 
L 602.172598 118.003677 
" clip-path="url(#pc3b4cc54a3)" style="fill: none; stroke: #b5cce3; stroke-width: 1.5"/>
    <path d="M 618.651731 122.184014 
L 619.53697 122.438393 
L 622.403814 123.295152 
L 622.559596 123.34337 
L 625.582222 124.314928 
L 628.604848 125.32247 
L 631.487809 126.317778 
L 631.627475 126.367782 
L 634.650101 127.487273 
L 637.672727 128.644081 
L 639.435296 129.340404 
L 640.695354 129.857351 
L 643.71798 131.136154 
L 646.532578 132.36303 
L 646.740606 132.457336 
L 649.763232 133.867895 
L 652.785859 135.318756 
L 652.921468 135.385657 
L 655.808485 136.869262 
L 658.724524 138.408283 
L 658.831111 138.466983 
L 661.853737 140.175424 
L 664.019449 141.430909 
L 664.876364 141.950251 
L 667.89899 143.827943 
L 668.882063 144.453535 
L 670.921616 145.813237 
L 673.357994 147.476162 
L 673.944242 147.896307 
L 676.966869 150.112899 
L 677.481387 150.498788 
L 679.989495 152.478873 
L 681.281339 153.521414 
L 683.012121 154.995784 
L 684.790969 156.54404 
L 686.034747 157.690268 
L 688.028421 159.566667 
L 689.057374 160.595619 
L 691.01036 162.589293 
L 692.08 163.754012 
" clip-path="url(#pc3b4cc54a3)" style="fill: none; stroke: #b5cce3; stroke-width: 1.5"/>
   </g>
   <g id="PathCollection_13">
    <path d="M 692.08 292.291305 
L 691.632158 292.562222 
L 689.057374 294.06418 
L 686.396203 295.584848 
L 686.034747 295.784272 
L 683.012121 297.417185 
L 680.760922 298.607475 
L 679.989495 299.00176 
L 676.966869 300.513073 
L 674.682038 301.630101 
L 673.944242 301.979166 
L 670.921616 303.376724 
L 668.09618 304.652727 
L 667.89899 304.738998 
L 664.876364 306.029911 
L 661.853737 307.289339 
L 660.903548 307.675354 
L 658.831111 308.491768 
L 655.808485 309.651968 
L 653.009696 310.69798 
L 652.785859 310.779176 
L 649.763232 311.845985 
L 646.740606 312.883161 
L 644.22827 313.720606 
L 643.71798 313.885843 
L 640.695354 314.835811 
L 637.672727 315.756993 
L 634.650101 316.649387 
L 634.321642 316.743232 
L 631.627475 317.491612 
L 628.604848 318.303243 
L 625.582222 319.086887 
L 622.866337 319.765859 
L 622.559596 319.840471 
L 619.53697 320.548474 
L 616.514343 321.229245 
L 613.491717 321.882786 
L 610.469091 322.509096 
L 609.059448 322.788485 
L 607.446465 323.099762 
L 604.423838 323.656562 
L 601.401212 324.186847 
L 598.378586 324.690618 
L 595.35596 325.167875 
L 592.333333 325.618618 
L 590.961817 325.811111 
L 589.310707 326.036904 
L 586.288081 326.42442 
L 583.265455 326.786102 
L 580.242828 327.121949 
L 577.220202 327.431962 
L 574.197576 327.716141 
L 571.174949 327.974485 
L 568.152323 328.206995 
L 565.129697 328.41367 
L 562.107071 328.594511 
L 559.084444 328.749517 
L 557.113692 328.833737 
L 556.061818 328.877565 
L 553.039192 328.97832 
L 550.016566 329.053885 
L 549.677953 329.059529 
" clip-path="url(#pc3b4cc54a3)" style="fill: none; stroke: #96acd2; stroke-width: 1.5"/>
    <path d="M 532.220781 328.986819 
L 531.880808 328.97832 
L 528.858182 328.877565 
L 527.806308 328.833737 
L 525.835556 328.749517 
L 522.812929 328.594511 
L 519.790303 328.41367 
L 516.767677 328.206995 
L 513.745051 327.974485 
L 510.722424 327.716141 
L 507.699798 327.431962 
L 504.677172 327.121949 
L 501.654545 326.786102 
L 498.631919 326.42442 
L 495.609293 326.036904 
L 493.958183 325.811111 
L 492.586667 325.618618 
L 489.56404 325.167875 
L 486.541414 324.690618 
L 483.518788 324.186847 
L 480.496162 323.656562 
L 477.473535 323.099762 
L 475.860552 322.788485 
L 474.450909 322.509096 
L 471.428283 321.882786 
L 468.405657 321.229245 
L 465.38303 320.548474 
L 462.360404 319.840471 
L 462.053663 319.765859 
L 459.337778 319.086887 
L 456.315152 318.303243 
L 453.292525 317.491612 
L 450.598358 316.743232 
L 450.269899 316.649387 
L 447.247273 315.756993 
L 444.224646 314.835811 
L 441.20202 313.885843 
L 440.69173 313.720606 
L 438.179394 312.883161 
L 435.156768 311.845985 
L 432.134141 310.779176 
L 431.910304 310.69798 
L 429.111515 309.651968 
L 426.088889 308.491768 
L 424.016452 307.675354 
L 423.066263 307.289339 
L 420.043636 306.029911 
L 417.02101 304.738998 
L 416.82382 304.652727 
L 413.998384 303.376724 
L 410.975758 301.979166 
L 410.237962 301.630101 
L 407.953131 300.513073 
L 404.930505 299.00176 
L 404.159078 298.607475 
L 401.907879 297.417185 
L 398.885253 295.784272 
L 398.523797 295.584848 
L 395.862626 294.06418 
L 393.287842 292.562222 
L 392.84 292.291305 
" clip-path="url(#pc3b4cc54a3)" style="fill: none; stroke: #96acd2; stroke-width: 1.5"/>
    <path d="M 392.84 126.588695 
L 393.287842 126.317778 
L 395.862626 124.81582 
L 398.523797 123.295152 
L 398.885253 123.095728 
L 401.907879 121.462815 
L 404.159078 120.272525 
L 404.930505 119.87824 
L 407.953131 118.366927 
L 410.237962 117.249899 
L 410.975758 116.900834 
L 413.998384 115.503276 
L 416.82382 114.227273 
L 417.02101 114.141002 
L 420.043636 112.850089 
L 423.066263 111.590661 
L 424.016452 111.204646 
L 426.088889 110.388232 
L 429.111515 109.228032 
L 431.910304 108.18202 
L 432.134141 108.100824 
L 435.156768 107.034015 
L 438.179394 105.996839 
L 440.69173 105.159394 
L 441.20202 104.994157 
L 444.224646 104.044189 
L 447.247273 103.123007 
L 450.269899 102.230613 
L 450.598358 102.136768 
L 453.292525 101.388388 
L 456.315152 100.576757 
L 459.337778 99.793113 
L 462.053663 99.114141 
L 462.360404 99.039529 
L 465.38303 98.331526 
L 468.405657 97.650755 
L 471.428283 96.997214 
L 474.450909 96.370904 
L 475.860552 96.091515 
L 477.473535 95.780238 
L 480.496162 95.223438 
L 483.518788 94.693153 
L 486.541414 94.189382 
L 489.56404 93.712125 
L 492.586667 93.261382 
L 493.958183 93.068889 
L 495.609293 92.843096 
L 498.631919 92.45558 
L 501.654545 92.093898 
L 504.677172 91.758051 
L 507.699798 91.448038 
L 510.722424 91.163859 
L 513.745051 90.905515 
L 516.767677 90.673005 
L 519.790303 90.46633 
L 522.812929 90.285489 
L 525.835556 90.130483 
L 527.806308 90.046263 
L 528.858182 90.002435 
L 531.880808 89.90168 
L 534.903434 89.826115 
L 535.242047 89.820471 
" clip-path="url(#pc3b4cc54a3)" style="fill: none; stroke: #96acd2; stroke-width: 1.5"/>
    <path d="M 552.699219 89.893181 
L 553.039192 89.90168 
L 556.061818 90.002435 
L 557.113692 90.046263 
L 559.084444 90.130483 
L 562.107071 90.285489 
L 565.129697 90.46633 
L 568.152323 90.673005 
L 571.174949 90.905515 
L 574.197576 91.163859 
L 577.220202 91.448038 
L 580.242828 91.758051 
L 583.265455 92.093898 
L 586.288081 92.45558 
L 589.310707 92.843096 
L 590.961817 93.068889 
L 592.333333 93.261382 
L 595.35596 93.712125 
L 598.378586 94.189382 
L 601.401212 94.693153 
L 604.423838 95.223438 
L 607.446465 95.780238 
L 609.059448 96.091515 
L 610.469091 96.370904 
L 613.491717 96.997214 
L 616.514343 97.650755 
L 619.53697 98.331526 
L 622.559596 99.039529 
L 622.866337 99.114141 
L 625.582222 99.793113 
L 628.604848 100.576757 
L 631.627475 101.388388 
L 634.321642 102.136768 
L 634.650101 102.230613 
L 637.672727 103.123007 
L 640.695354 104.044189 
L 643.71798 104.994157 
L 644.22827 105.159394 
L 646.740606 105.996839 
L 649.763232 107.034015 
L 652.785859 108.100824 
L 653.009696 108.18202 
L 655.808485 109.228032 
L 658.831111 110.388232 
L 660.903548 111.204646 
L 661.853737 111.590661 
L 664.876364 112.850089 
L 667.89899 114.141002 
L 668.09618 114.227273 
L 670.921616 115.503276 
L 673.944242 116.900834 
L 674.682038 117.249899 
L 676.966869 118.366927 
L 679.989495 119.87824 
L 680.760922 120.272525 
L 683.012121 121.462815 
L 686.034747 123.095728 
L 686.396203 123.295152 
L 689.057374 124.81582 
L 691.632158 126.317778 
L 692.08 126.588695 
" clip-path="url(#pc3b4cc54a3)" style="fill: none; stroke: #96acd2; stroke-width: 1.5"/>
   </g>
   <g id="PathCollection_14">
    <path d="M 692.08 317.325927 
L 689.057374 318.697304 
L 686.653126 319.765859 
L 686.034747 320.033266 
L 683.012121 321.313116 
L 679.989495 322.565736 
L 679.440049 322.788485 
L 676.966869 323.76474 
L 673.944242 324.931368 
L 671.6119 325.811111 
L 670.921616 326.064805 
L 667.89899 327.14985 
L 664.876364 328.209061 
L 663.049186 328.833737 
L 661.853737 329.23222 
L 658.831111 330.214574 
L 655.808485 331.171739 
L 653.58808 331.856364 
L 652.785859 332.097682 
L 649.763232 332.982353 
L 646.740606 333.84245 
L 643.71798 334.677973 
L 642.968735 334.87899 
L 640.695354 335.474399 
L 637.672727 336.24205 
L 634.650101 336.985712 
L 631.627475 337.705385 
L 630.774886 337.901616 
L 628.604848 338.389454 
L 625.582222 339.045528 
L 622.559596 339.678171 
L 619.53697 340.287382 
L 618.939234 340.403222 
" clip-path="url(#pc3b4cc54a3)" style="fill: none; stroke: #8c7dba; stroke-width: 1.5"/>
    <path d="M 601.949426 343.310116 
L 601.401212 343.393179 
L 598.378586 343.828254 
L 597.508741 343.946869 
L 595.35596 344.233906 
L 592.333333 344.614533 
L 589.310707 344.97277 
L 586.288081 345.308618 
L 583.265455 345.622075 
L 580.242828 345.913143 
L 577.220202 346.181821 
L 574.197576 346.428109 
L 571.174949 346.652007 
L 568.152323 346.853516 
L 566.195173 346.969495 
L 565.129697 347.031262 
L 562.107071 347.184583 
L 559.084444 347.316002 
L 556.061818 347.425517 
L 553.039192 347.51313 
L 550.016566 347.578839 
L 546.993939 347.622645 
L 543.971313 347.644548 
L 540.948687 347.644548 
L 537.926061 347.622645 
L 534.903434 347.578839 
L 531.880808 347.51313 
L 528.858182 347.425517 
L 525.835556 347.316002 
L 522.812929 347.184583 
L 519.790303 347.031262 
L 518.724827 346.969495 
L 516.767677 346.853516 
L 513.745051 346.652007 
L 510.722424 346.428109 
L 507.699798 346.181821 
L 504.677172 345.913143 
L 501.654545 345.622075 
L 498.631919 345.308618 
L 495.609293 344.97277 
L 492.586667 344.614533 
L 489.56404 344.233906 
L 487.411259 343.946869 
L 486.541414 343.828254 
L 483.518788 343.393179 
L 480.496162 342.935205 
L 477.473535 342.454332 
L 474.450909 341.950561 
L 471.428283 341.423892 
L 468.680212 340.924242 
L 468.405657 340.873162 
L 465.38303 340.287382 
L 462.360404 339.678171 
L 459.337778 339.045528 
L 456.315152 338.389454 
L 454.145114 337.901616 
L 453.292525 337.705385 
L 450.269899 336.985712 
L 447.247273 336.24205 
L 444.224646 335.474399 
L 441.951265 334.87899 
L 441.20202 334.677973 
L 438.179394 333.84245 
L 435.156768 332.982353 
L 432.134141 332.097682 
L 431.33192 331.856364 
L 429.111515 331.171739 
L 426.088889 330.214574 
L 423.066263 329.23222 
L 421.870814 328.833737 
L 420.043636 328.209061 
L 417.02101 327.14985 
L 413.998384 326.064805 
L 413.3081 325.811111 
L 410.975758 324.931368 
L 407.953131 323.76474 
L 405.479951 322.788485 
L 404.930505 322.565736 
L 401.907879 321.313116 
L 398.885253 320.033266 
L 398.266874 319.765859 
L 395.862626 318.697304 
L 392.84 317.325927 
" clip-path="url(#pc3b4cc54a3)" style="fill: none; stroke: #8c7dba; stroke-width: 1.5"/>
    <path d="M 392.84 101.554073 
L 395.862626 100.182696 
L 398.266874 99.114141 
L 398.885253 98.846734 
L 401.907879 97.566884 
L 404.930505 96.314264 
L 405.479951 96.091515 
L 407.953131 95.11526 
L 410.975758 93.948632 
L 413.3081 93.068889 
L 413.998384 92.815195 
L 417.02101 91.73015 
L 420.043636 90.670939 
L 421.870814 90.046263 
L 423.066263 89.64778 
L 426.088889 88.665426 
L 429.111515 87.708261 
L 431.33192 87.023636 
L 432.134141 86.782318 
L 435.156768 85.897647 
L 438.179394 85.03755 
L 441.20202 84.202027 
L 441.951265 84.00101 
L 444.224646 83.405601 
L 447.247273 82.63795 
L 450.269899 81.894288 
L 453.292525 81.174615 
L 454.145114 80.978384 
L 456.315152 80.490546 
L 459.337778 79.834472 
L 462.360404 79.201829 
L 465.38303 78.592618 
L 465.980766 78.476778 
" clip-path="url(#pc3b4cc54a3)" style="fill: none; stroke: #8c7dba; stroke-width: 1.5"/>
    <path d="M 482.970574 75.569884 
L 483.518788 75.486821 
L 486.541414 75.051746 
L 487.411259 74.933131 
L 489.56404 74.646094 
L 492.586667 74.265467 
L 495.609293 73.90723 
L 498.631919 73.571382 
L 501.654545 73.257925 
L 504.677172 72.966857 
L 507.699798 72.698179 
L 510.722424 72.451891 
L 513.745051 72.227993 
L 516.767677 72.026484 
L 518.724827 71.910505 
L 519.790303 71.848738 
L 522.812929 71.695417 
L 525.835556 71.563998 
L 528.858182 71.454483 
L 531.880808 71.36687 
L 534.903434 71.301161 
L 537.926061 71.257355 
L 540.948687 71.235452 
L 543.971313 71.235452 
L 546.993939 71.257355 
L 550.016566 71.301161 
L 553.039192 71.36687 
L 556.061818 71.454483 
L 559.084444 71.563998 
L 562.107071 71.695417 
L 565.129697 71.848738 
L 566.195173 71.910505 
L 568.152323 72.026484 
L 571.174949 72.227993 
L 574.197576 72.451891 
L 577.220202 72.698179 
L 580.242828 72.966857 
L 583.265455 73.257925 
L 586.288081 73.571382 
L 589.310707 73.90723 
L 592.333333 74.265467 
L 595.35596 74.646094 
L 597.508741 74.933131 
L 598.378586 75.051746 
L 601.401212 75.486821 
L 604.423838 75.944795 
L 607.446465 76.425668 
L 610.469091 76.929439 
L 613.491717 77.456108 
L 616.239788 77.955758 
L 616.514343 78.006838 
L 619.53697 78.592618 
L 622.559596 79.201829 
L 625.582222 79.834472 
L 628.604848 80.490546 
L 630.774886 80.978384 
L 631.627475 81.174615 
L 634.650101 81.894288 
L 637.672727 82.63795 
L 640.695354 83.405601 
L 642.968735 84.00101 
L 643.71798 84.202027 
L 646.740606 85.03755 
L 649.763232 85.897647 
L 652.785859 86.782318 
L 653.58808 87.023636 
L 655.808485 87.708261 
L 658.831111 88.665426 
L 661.853737 89.64778 
L 663.049186 90.046263 
L 664.876364 90.670939 
L 667.89899 91.73015 
L 670.921616 92.815195 
L 671.6119 93.068889 
L 673.944242 93.948632 
L 676.966869 95.11526 
L 679.440049 96.091515 
L 679.989495 96.314264 
L 683.012121 97.566884 
L 686.034747 98.846734 
L 686.653126 99.114141 
L 689.057374 100.182696 
L 692.08 101.554073 
" clip-path="url(#pc3b4cc54a3)" style="fill: none; stroke: #8c7dba; stroke-width: 1.5"/>
   </g>
   <g id="PathCollection_15">
    <path d="M 475.563785 359.06 
L 474.450909 358.893447 
L 471.428283 358.420519 
L 468.405657 357.927029 
L 466.311418 357.570866 
" clip-path="url(#pc3b4cc54a3)" style="fill: none; stroke: #894da3; stroke-width: 1.5"/>
    <path d="M 449.417636 354.319498 
L 447.247273 353.852267 
L 444.224646 353.180572 
L 443.501048 353.014747 
L 441.20202 352.476677 
L 438.179394 351.747817 
L 435.156768 350.99752 
L 432.134141 350.225785 
L 431.243692 349.992121 
L 429.111515 349.420451 
L 426.088889 348.588133 
L 423.066263 347.733913 
L 420.429021 346.969495 
L 420.043636 346.855307 
L 417.02101 345.937324 
L 413.998384 344.996951 
L 410.975758 344.034189 
L 410.707843 343.946869 
L 407.953131 343.028631 
L 404.930505 341.998191 
L 401.907879 340.944851 
L 401.849999 340.924242 
L 398.885253 339.844064 
L 395.862626 338.719365 
L 393.709776 337.901616 
L 392.84 337.56337 
" clip-path="url(#pc3b4cc54a3)" style="fill: none; stroke: #894da3; stroke-width: 1.5"/>
    <path d="M 692.08 337.56337 
L 691.210224 337.901616 
L 689.057374 338.719365 
L 686.034747 339.844064 
L 684.936122 340.244338 
" clip-path="url(#pc3b4cc54a3)" style="fill: none; stroke: #894da3; stroke-width: 1.5"/>
    <path d="M 668.90101 345.625584 
L 667.89899 345.937324 
L 664.876364 346.855307 
L 664.490979 346.969495 
L 661.853737 347.733913 
L 658.831111 348.588133 
L 655.808485 349.420451 
L 653.676308 349.992121 
L 652.785859 350.225785 
L 649.763232 350.99752 
L 646.740606 351.747817 
L 643.71798 352.476677 
L 641.418952 353.014747 
L 640.695354 353.180572 
L 637.672727 353.852267 
L 634.650101 354.502971 
L 631.627475 355.132685 
L 628.604848 355.741408 
L 627.08274 356.037374 
L 625.582222 356.323187 
L 622.559596 356.878363 
L 619.53697 357.412977 
L 616.514343 357.927029 
L 613.491717 358.420519 
L 610.469091 358.893447 
L 609.356215 359.06 
" clip-path="url(#pc3b4cc54a3)" style="fill: none; stroke: #894da3; stroke-width: 1.5"/>
    <path d="M 392.84 81.31663 
L 393.709776 80.978384 
L 395.862626 80.160635 
L 398.885253 79.035936 
L 399.983878 78.635662 
" clip-path="url(#pc3b4cc54a3)" style="fill: none; stroke: #894da3; stroke-width: 1.5"/>
    <path d="M 416.01899 73.254416 
L 417.02101 72.942676 
L 420.043636 72.024693 
L 420.429021 71.910505 
L 423.066263 71.146087 
L 426.088889 70.291867 
L 429.111515 69.459549 
L 431.243692 68.887879 
L 432.134141 68.654215 
L 435.156768 67.88248 
L 438.179394 67.132183 
L 441.20202 66.403323 
L 443.501048 65.865253 
L 444.224646 65.699428 
L 447.247273 65.027733 
L 450.269899 64.377029 
L 453.292525 63.747315 
L 456.315152 63.138592 
L 457.83726 62.842626 
L 459.337778 62.556813 
L 462.360404 62.001637 
L 465.38303 61.467023 
L 468.405657 60.952971 
L 471.428283 60.459481 
L 474.450909 59.986553 
L 475.563785 59.82 
" clip-path="url(#pc3b4cc54a3)" style="fill: none; stroke: #894da3; stroke-width: 1.5"/>
    <path d="M 609.356215 59.82 
L 610.469091 59.986553 
L 613.491717 60.459481 
L 616.514343 60.952971 
L 618.608582 61.309134 
" clip-path="url(#pc3b4cc54a3)" style="fill: none; stroke: #894da3; stroke-width: 1.5"/>
    <path d="M 635.502364 64.560502 
L 637.672727 65.027733 
L 640.695354 65.699428 
L 641.418952 65.865253 
L 643.71798 66.403323 
L 646.740606 67.132183 
L 649.763232 67.88248 
L 652.785859 68.654215 
L 653.676308 68.887879 
L 655.808485 69.459549 
L 658.831111 70.291867 
L 661.853737 71.146087 
L 664.490979 71.910505 
L 664.876364 72.024693 
L 667.89899 72.942676 
L 670.921616 73.883049 
L 673.944242 74.845811 
L 674.212157 74.933131 
L 676.966869 75.851369 
L 679.989495 76.881809 
L 683.012121 77.935149 
L 683.070001 77.955758 
L 686.034747 79.035936 
L 689.057374 80.160635 
L 691.210224 80.978384 
L 692.08 81.31663 
" clip-path="url(#pc3b4cc54a3)" style="fill: none; stroke: #894da3; stroke-width: 1.5"/>
   </g>
   <g id="PathCollection_16"/>
   <g id="PathCollection_17"/>
   <g id="patch_8">
    <path d="M 392.84 359.06 
L 392.84 59.82 
" style="fill: none; stroke: #000000; stroke-width: 0.8; stroke-linejoin: miter; stroke-linecap: square"/>
   </g>
   <g id="patch_9">
    <path d="M 692.08 359.06 
L 692.08 59.82 
" style="fill: none; stroke: #000000; stroke-width: 0.8; stroke-linejoin: miter; stroke-linecap: square"/>
   </g>
   <g id="patch_10">
    <path d="M 392.84 359.06 
L 692.08 359.06 
" style="fill: none; stroke: #000000; stroke-width: 0.8; stroke-linejoin: miter; stroke-linecap: square"/>
   </g>
   <g id="patch_11">
    <path d="M 392.84 59.82 
L 692.08 59.82 
" style="fill: none; stroke: #000000; stroke-width: 0.8; stroke-linejoin: miter; stroke-linecap: square"/>
   </g>
   <g id="text_34">
    <!-- $\hat{x}^*$ -->
    <g transform="translate(551.4372 200.4628) scale(0.21 -0.21)">
     <use xlink:href="#DejaVuSans-302" transform="translate(62.373047 12.015625)"/>
     <use xlink:href="#DejaVuSans-Oblique-78" transform="translate(0 0.828125)"/>
     <use xlink:href="#DejaVuSans-2a" transform="translate(73.774414 39.109375) scale(0.7)"/>
    </g>
   </g>
   <g id="text_35">
    <g clip-path="url(#pc3b4cc54a3)">
     <!-- 8 -->
     <g style="fill: #dce9f2" transform="translate(606.075982 270.535093) rotate(-25.058482) scale(0.08 -0.08)">
      <defs>
       <path id="DejaVuSans-38" d="M 2034 2216 
Q 1584 2216 1326 1975 
Q 1069 1734 1069 1313 
Q 1069 891 1326 650 
Q 1584 409 2034 409 
Q 2484 409 2743 651 
Q 3003 894 3003 1313 
Q 3003 1734 2745 1975 
Q 2488 2216 2034 2216 
z
M 1403 2484 
Q 997 2584 770 2862 
Q 544 3141 544 3541 
Q 544 4100 942 4425 
Q 1341 4750 2034 4750 
Q 2731 4750 3128 4425 
Q 3525 4100 3525 3541 
Q 3525 3141 3298 2862 
Q 3072 2584 2669 2484 
Q 3125 2378 3379 2068 
Q 3634 1759 3634 1313 
Q 3634 634 3220 271 
Q 2806 -91 2034 -91 
Q 1263 -91 848 271 
Q 434 634 434 1313 
Q 434 1759 690 2068 
Q 947 2378 1403 2484 
z
M 1172 3481 
Q 1172 3119 1398 2916 
Q 1625 2713 2034 2713 
Q 2441 2713 2670 2916 
Q 2900 3119 2900 3481 
Q 2900 3844 2670 4047 
Q 2441 4250 2034 4250 
Q 1625 4250 1398 4047 
Q 1172 3844 1172 3481 
z
" transform="scale(0.015625)"/>
      </defs>
      <use xlink:href="#DejaVuSans-38"/>
     </g>
    </g>
   </g>
   <g id="text_36">
    <g clip-path="url(#pc3b4cc54a3)">
     <!-- 16 -->
     <g style="fill: #b5cce3" transform="translate(468.933415 299.513639) rotate(-342.572666) scale(0.08 -0.08)">
      <use xlink:href="#DejaVuSans-31"/>
      <use xlink:href="#DejaVuSans-36" x="63.623047"/>
     </g>
    </g>
   </g>
   <g id="text_37">
    <g clip-path="url(#pc3b4cc54a3)">
     <!-- 16 -->
     <g style="fill: #b5cce3" transform="translate(604.951597 120.529832) rotate(-342.572666) scale(0.08 -0.08)">
      <use xlink:href="#DejaVuSans-31"/>
      <use xlink:href="#DejaVuSans-36" x="63.623047"/>
     </g>
    </g>
   </g>
   <g id="text_38">
    <g clip-path="url(#pc3b4cc54a3)">
     <!-- 24 -->
     <g style="fill: #96acd2" transform="translate(535.847354 331.310634) rotate(-359.704095) scale(0.08 -0.08)">
      <use xlink:href="#DejaVuSans-32"/>
      <use xlink:href="#DejaVuSans-34" x="63.623047"/>
     </g>
    </g>
   </g>
   <g id="text_39">
    <g clip-path="url(#pc3b4cc54a3)">
     <!-- 24 -->
     <g style="fill: #96acd2" transform="translate(538.86998 91.931732) rotate(-359.704095) scale(0.08 -0.08)">
      <use xlink:href="#DejaVuSans-32"/>
      <use xlink:href="#DejaVuSans-34" x="63.623047"/>
     </g>
    </g>
   </g>
   <g id="text_40">
    <g clip-path="url(#pc3b4cc54a3)">
     <!-- 32 -->
     <g style="fill: #8c7dba" transform="translate(605.94537 345.162587) rotate(-11.93023) scale(0.08 -0.08)">
      <use xlink:href="#DejaVuSans-33"/>
      <use xlink:href="#DejaVuSans-32" x="63.623047"/>
     </g>
    </g>
   </g>
   <g id="text_41">
    <g clip-path="url(#pc3b4cc54a3)">
     <!-- 32 -->
     <g style="fill: #8c7dba" transform="translate(469.927188 80.141464) rotate(-11.93023) scale(0.08 -0.08)">
      <use xlink:href="#DejaVuSans-33"/>
      <use xlink:href="#DejaVuSans-32" x="63.623047"/>
     </g>
    </g>
   </g>
   <g id="text_42">
    <g clip-path="url(#pc3b4cc54a3)">
     <!-- 40 -->
     <g style="fill: #894da3" transform="translate(452.373931 357.003393) rotate(-346.581267) scale(0.08 -0.08)">
      <use xlink:href="#DejaVuSans-34"/>
      <use xlink:href="#DejaVuSans-30" x="63.623047"/>
     </g>
    </g>
   </g>
   <g id="text_43">
    <g clip-path="url(#pc3b4cc54a3)">
     <!-- 40 -->
     <g style="fill: #894da3" transform="translate(673.11516 347.021812) rotate(-22.587072) scale(0.08 -0.08)">
      <use xlink:href="#DejaVuSans-34"/>
      <use xlink:href="#DejaVuSans-30" x="63.623047"/>
     </g>
    </g>
   </g>
   <g id="text_44">
    <g clip-path="url(#pc3b4cc54a3)">
     <!-- 40 -->
     <g style="fill: #894da3" transform="translate(404.101422 79.844549) rotate(-22.587072) scale(0.08 -0.08)">
      <use xlink:href="#DejaVuSans-34"/>
      <use xlink:href="#DejaVuSans-30" x="63.623047"/>
     </g>
    </g>
   </g>
   <g id="text_45">
    <g clip-path="url(#pc3b4cc54a3)">
     <!-- 40 -->
     <g style="fill: #894da3" transform="translate(621.619411 63.808646) rotate(-346.581267) scale(0.08 -0.08)">
      <use xlink:href="#DejaVuSans-34"/>
      <use xlink:href="#DejaVuSans-30" x="63.623047"/>
     </g>
    </g>
   </g>
   <g id="text_46">
    <g clip-path="url(#pc3b4cc54a3)">
     <!-- 48 -->
     <g style="fill: #821580" transform="translate(393.339183 357.173169) rotate(-338.095206) scale(0.08 -0.08)">
      <use xlink:href="#DejaVuSans-34"/>
      <use xlink:href="#DejaVuSans-38" x="63.623047"/>
     </g>
    </g>
   </g>
   <g id="text_47">
    <g clip-path="url(#pc3b4cc54a3)">
     <!-- 48 -->
     <g style="fill: #821580" transform="translate(682.135762 360.970975) rotate(-21.904794) scale(0.08 -0.08)">
      <use xlink:href="#DejaVuSans-34"/>
      <use xlink:href="#DejaVuSans-38" x="63.623047"/>
     </g>
    </g>
   </g>
   <g id="text_48">
    <g clip-path="url(#pc3b4cc54a3)">
     <!-- 48 -->
     <g style="fill: #821580" transform="translate(394.986267 65.80309) rotate(-21.904794) scale(0.08 -0.08)">
      <use xlink:href="#DejaVuSans-34"/>
      <use xlink:href="#DejaVuSans-38" x="63.623047"/>
     </g>
    </g>
   </g>
   <g id="text_49">
    <g clip-path="url(#pc3b4cc54a3)">
     <!-- 48 -->
     <g style="fill: #821580" transform="translate(680.488678 62.005284) rotate(-338.095206) scale(0.08 -0.08)">
      <use xlink:href="#DejaVuSans-34"/>
      <use xlink:href="#DejaVuSans-38" x="63.623047"/>
     </g>
    </g>
   </g>
   <g id="PathCollection_18">
    <g clip-path="url(#pc3b4cc54a3)">
     <use xlink:href="#md894e9be1e" x="542.46" y="209.44" style="fill: #0000ff; stroke: #0000ff"/>
    </g>
   </g>
  </g>
 </g>
 <defs>
  <clipPath id="p1298b71c9b">
   <rect x="42.84" y="59.82" width="299.24" height="299.24"/>
  </clipPath>
  <clipPath id="pc3b4cc54a3">
   <rect x="392.84" y="59.82" width="299.24" height="299.24"/>
  </clipPath>
 </defs>
</svg>
