<svg xmlns="http://www.w3.org/2000/svg" xmlns:xlink="http://www.w3.org/1999/xlink" version="1.1" width="1200pt" height="1999.9999pt" viewBox="0 0 1200 1999.9999">
<defs>
<clipPath id="clip_1">
<path transform="matrix(2.7777777,0,0,-2.7777777,0,1999.9999)" d="M68.98 387.08H377.94V696.04H68.98Z"/>
</clipPath>
<g id="font_2_52">
<path transform="matrix(.001,0,0,.001,0,0)" d="M378 643 129 254H378V643ZM352 729H476V254H580V172H476V0H378V172H49V267L352 729Z"/>
</g>
<clipPath id="clip_3">
<path transform="matrix(.027777777,0,0,-.027777777,256.9689,965.316)" d="M-1021-463H1794V1233H-1021Z"/>
</clipPath>
<clipPath id="clip_4">
<path transform="matrix(2.7777777,0,0,-2.7777777,0,1999.9999)" d="M68.98 387.08H377.94V696.04H68.98Z"/>
</clipPath>
<g id="font_2_50">
<path transform="matrix(.001,0,0,.001,0,0)" d="M192 83H536V0H73V83C110 121 161 173 226 239 290 304 331 346 348 365 380 400 402 430 414 455 426 479 433 504 433 528 433 566 419 598 392 622 365 646 330 659 286 659 255 659 222 653 188 643 154 632 117 616 78 594V694C118 710 155 722 189 730 223 738 255 742 284 742 359 742 419 723 464 685 509 647 532 597 532 534 532 504 526 475 515 449 504 422 484 390 454 354 446 344 420 317 376 272 332 227 271 164 192 83Z"/>
</g>
<clipPath id="clip_5">
<path transform="matrix(.027777777,0,0,-.027777777,428.61335,965.316)" d="M-1021-463H1794V1233H-1021Z"/>
</clipPath>
<clipPath id="clip_6">
<path transform="matrix(2.7777777,0,0,-2.7777777,0,1999.9999)" d="M68.98 387.08H377.94V696.04H68.98Z"/>
</clipPath>
<g id="font_2_48">
<path transform="matrix(.001,0,0,.001,0,0)" d="M318 664C267 664 229 639 203 589 177 539 165 464 165 364 165 264 177 189 203 139 229 89 267 64 318 64 369 64 407 89 433 139 458 189 471 264 471 364 471 464 458 539 433 589 407 639 369 664 318 664ZM318 742C399 742 461 709 505 645 548 580 570 486 570 364 570 241 548 147 505 83 461 19 399-13 317-13 235-13 173 19 130 83 87 147 66 241 66 364 66 486 87 580 130 645 173 709 236 742 318 742Z"/>
</g>
<clipPath id="clip_7">
<path transform="matrix(2.7777777,0,0,-2.7777777,0,1999.9999)" d="M68.98 387.08H377.94V696.04H68.98Z"/>
</clipPath>
<clipPath id="clip_8">
<path transform="matrix(2.7777777,0,0,-2.7777777,0,1999.9999)" d="M68.98 387.08H377.94V696.04H68.98Z"/>
</clipPath>
<g id="font_9_120">
<path transform="matrix(.001,0,0,.001,0,0)" d="M600 547 349 279 503 0H400L284 217 83 0H-25L243 288 100 547H203L308 349 491 547H600Z"/>
</g>
<g id="font_2_49">
<path transform="matrix(.001,0,0,.001,0,0)" d="M124 83H285V639L110 604V694L284 729H383V83H544V0H124V83Z"/>
</g>
<clipPath id="clip_10">
<path transform="matrix(2.7777777,0,0,-2.7777777,0,1999.9999)" d="M68.98 387.08H377.94V696.04H68.98Z"/>
</clipPath>
<clipPath id="clip_11">
<path transform="matrix(.027777777,0,0,-.027777777,131.23784,849.5024)" d="M-1021-463H1794V1233H-1021Z"/>
</clipPath>
<clipPath id="clip_12">
<path transform="matrix(2.7777777,0,0,-2.7777777,0,1999.9999)" d="M68.98 387.08H377.94V696.04H68.98Z"/>
</clipPath>
<clipPath id="clip_13">
<path transform="matrix(.027777777,0,0,-.027777777,131.23784,677.858)" d="M-1021-463H1794V1233H-1021Z"/>
</clipPath>
<clipPath id="clip_14">
<path transform="matrix(2.7777777,0,0,-2.7777777,0,1999.9999)" d="M68.98 387.08H377.94V696.04H68.98Z"/>
</clipPath>
<clipPath id="clip_15">
<path transform="matrix(2.7777777,0,0,-2.7777777,0,1999.9999)" d="M68.98 387.08H377.94V696.04H68.98Z"/>
</clipPath>
<clipPath id="clip_16">
<path transform="matrix(2.7777777,0,0,-2.7777777,0,1999.9999)" d="M68.98 387.08H377.94V696.04H68.98Z"/>
</clipPath>
<clipPath id="clip_17">
<path transform="matrix(2.7777777,0,0,-2.7777777,0,1999.9999)" d="M68.98 387.08H377.94V696.04H68.98Z"/>
</clipPath>
<clipPath id="clip_18">
<path transform="matrix(2.7777777,0,0,-2.7777777,0,1999.9999)" d="M68.98 387.08H377.94V696.04H68.98Z"/>
</clipPath>
<clipPath id="clip_19">
<path transform="matrix(2.7777777,0,0,-2.7777777,0,1999.9999)" d="M68.98 387.08H377.94V696.04H68.98Z"/>
</clipPath>
<clipPath id="clip_20">
<path transform="matrix(2.7777777,0,0,-2.7777777,0,1999.9999)" d="M68.98 387.08H377.94V696.04H68.98Z"/>
</clipPath>
<clipPath id="clip_21">
<path transform="matrix(2.7777777,0,0,-2.7777777,0,1999.9999)" d="M68.98 387.08H377.94V696.04H68.98Z"/>
</clipPath>
<clipPath id="clip_22">
<path transform="matrix(2.7777777,0,0,-2.7777777,0,1999.9999)" d="M68.98 387.08H377.94V696.04H68.98Z"/>
</clipPath>
<clipPath id="clip_23">
<path transform="matrix(2.7777777,0,0,-2.7777777,0,1999.9999)" d="M68.98 387.08H377.94V696.04H68.98Z"/>
</clipPath>
<clipPath id="clip_24">
<path transform="matrix(2.7777777,0,0,-2.7777777,0,1999.9999)" d="M68.98 387.08H377.94V696.04H68.98Z"/>
</clipPath>
<g id="font_2_53">
<path transform="matrix(.001,0,0,.001,0,0)" d="M108 729H495V646H198V467C212 472 227 476 241 478 255 480 270 482 284 482 365 482 429 459 477 415 525 370 549 310 549 234 549 155 524 94 475 51 426 8 357-13 269-13 238-13 207-10 175-6 143-1 111 6 77 17V116C106 100 136 88 168 80 199 72 232 69 267 69 323 69 368 83 401 113 433 143 450 183 450 234 450 284 433 324 401 354 368 384 323 399 267 399 241 399 214 396 188 390 162 384 135 375 108 363V729Z"/>
</g>
<clipPath id="clip_25">
<path transform="matrix(2.7777777,0,0,-2.7777777,0,1999.9999)" d="M68.98 387.08H377.94V696.04H68.98Z"/>
</clipPath>
<g id="font_2_51">
<path transform="matrix(.001,0,0,.001,0,0)" d="M406 393C453 383 490 362 516 330 542 298 556 258 556 212 556 140 531 84 482 45 432 6 362-13 271-13 240-13 208-10 176-4 144 1 110 10 76 22V117C103 101 133 89 166 81 198 73 232 69 268 69 330 69 377 81 409 105 441 129 458 165 458 212 458 254 443 288 413 312 383 336 341 349 287 349H202V430H291C339 430 376 439 402 459 428 478 441 506 441 543 441 580 427 609 401 629 374 649 336 659 287 659 260 659 231 656 200 650 169 644 135 635 98 623V711C135 721 170 729 203 734 235 739 266 742 296 742 370 742 429 725 473 691 517 657 539 611 539 553 539 513 527 479 504 451 481 423 448 403 406 393Z"/>
</g>
<clipPath id="clip_26">
<path transform="matrix(2.7777777,0,0,-2.7777777,0,1999.9999)" d="M68.98 387.08H377.94V696.04H68.98Z"/>
</clipPath>
<clipPath id="clip_27">
<path transform="matrix(2.7777777,0,0,-2.7777777,0,1999.9999)" d="M68.98 387.08H377.94V696.04H68.98Z"/>
</clipPath>
<clipPath id="clip_28">
<path transform="matrix(2.7777777,0,0,-2.7777777,0,1999.9999)" d="M68.98 387.08H377.94V696.04H68.98Z"/>
</clipPath>
<clipPath id="clip_29">
<path transform="matrix(2.7777777,0,0,-2.7777777,0,1999.9999)" d="M68.98 387.08H377.94V696.04H68.98Z"/>
</clipPath>
<g id="font_2_54">
<path transform="matrix(.001,0,0,.001,0,0)" d="M330 404C286 404 251 388 225 358 199 328 186 286 186 234 186 181 199 139 225 109 251 79 286 64 330 64 374 64 409 79 435 109 461 139 474 181 474 234 474 286 461 328 435 358 409 388 374 404 330 404ZM526 713V623C501 635 476 644 451 650 425 656 400 659 376 659 310 659 260 637 226 593 192 549 172 482 168 394 187 422 211 444 240 459 269 474 301 482 336 482 409 482 467 459 509 415 551 371 573 310 573 234 573 159 550 99 506 54 462 9 403-13 330-13 246-13 181 19 137 83 92 147 70 241 70 364 70 479 97 571 152 639 206 707 280 742 372 742 396 742 421 739 447 735 472 730 498 723 526 713Z"/>
</g>
<clipPath id="clip_30">
<path transform="matrix(2.7777777,0,0,-2.7777777,0,1999.9999)" d="M68.98 387.08H377.94V696.04H68.98Z"/>
</clipPath>
<clipPath id="clip_31">
<path transform="matrix(2.7777777,0,0,-2.7777777,0,1999.9999)" d="M68.98 37.08H377.94V346.03999H68.98Z"/>
</clipPath>
<clipPath id="clip_32">
<path transform="matrix(.027777777,0,0,-.027777777,256.9689,1937.5381)" d="M-1021-463H1794V1233H-1021Z"/>
</clipPath>
<clipPath id="clip_33">
<path transform="matrix(2.7777777,0,0,-2.7777777,0,1999.9999)" d="M68.98 37.08H377.94V346.03999H68.98Z"/>
</clipPath>
<clipPath id="clip_34">
<path transform="matrix(.027777777,0,0,-.027777777,428.61335,1937.5381)" d="M-1021-463H1794V1233H-1021Z"/>
</clipPath>
<clipPath id="clip_35">
<path transform="matrix(2.7777777,0,0,-2.7777777,0,1999.9999)" d="M68.98 37.08H377.94V346.03999H68.98Z"/>
</clipPath>
<clipPath id="clip_36">
<path transform="matrix(2.7777777,0,0,-2.7777777,0,1999.9999)" d="M68.98 37.08H377.94V346.03999H68.98Z"/>
</clipPath>
<clipPath id="clip_37">
<path transform="matrix(2.7777777,0,0,-2.7777777,0,1999.9999)" d="M68.98 37.08H377.94V346.03999H68.98Z"/>
</clipPath>
<clipPath id="clip_38">
<path transform="matrix(.03888889,0,0,-.03888889,622.82998,1985.5415)" d="M-1021-463H1794V1233H-1021Z"/>
</clipPath>
<clipPath id="clip_39">
<path transform="matrix(2.7777777,0,0,-2.7777777,0,1999.9999)" d="M68.98 37.08H377.94V346.03999H68.98Z"/>
</clipPath>
<clipPath id="clip_40">
<path transform="matrix(.027777777,0,0,-.027777777,131.23784,1821.7245)" d="M-1021-463H1794V1233H-1021Z"/>
</clipPath>
<clipPath id="clip_41">
<path transform="matrix(2.7777777,0,0,-2.7777777,0,1999.9999)" d="M68.98 37.08H377.94V346.03999H68.98Z"/>
</clipPath>
<clipPath id="clip_42">
<path transform="matrix(.027777777,0,0,-.027777777,131.23784,1650.0801)" d="M-1021-463H1794V1233H-1021Z"/>
</clipPath>
<clipPath id="clip_43">
<path transform="matrix(2.7777777,0,0,-2.7777777,0,1999.9999)" d="M68.98 37.08H377.94V346.03999H68.98Z"/>
</clipPath>
<clipPath id="clip_44">
<path transform="matrix(2.7777777,0,0,-2.7777777,0,1999.9999)" d="M68.98 37.08H377.94V346.03999H68.98Z"/>
</clipPath>
<clipPath id="clip_45">
<path transform="matrix(2.7777777,0,0,-2.7777777,0,1999.9999)" d="M68.98 37.08H377.94V346.03999H68.98Z"/>
</clipPath>
<clipPath id="clip_46">
<path transform="matrix(0,-.03888889,-.03888889,-0,106.80208,1465.7811)" d="M-1021-463H1794V1233H-1021Z"/>
</clipPath>
<clipPath id="clip_47">
<path transform="matrix(2.7777777,0,0,-2.7777777,0,1999.9999)" d="M68.98 37.08H377.94V346.03999H68.98Z"/>
</clipPath>
<clipPath id="clip_48">
<path transform="matrix(2.7777777,0,0,-2.7777777,0,1999.9999)" d="M68.98 37.08H377.94V346.03999H68.98Z"/>
</clipPath>
<clipPath id="clip_49">
<path transform="matrix(2.7777777,0,0,-2.7777777,0,1999.9999)" d="M68.98 37.08H377.94V346.03999H68.98Z"/>
</clipPath>
<clipPath id="clip_50">
<path transform="matrix(2.7777777,0,0,-2.7777777,0,1999.9999)" d="M68.98 37.08H377.94V346.03999H68.98Z"/>
</clipPath>
<clipPath id="clip_51">
<path transform="matrix(2.7777777,0,0,-2.7777777,0,1999.9999)" d="M68.98 37.08H377.94V346.03999H68.98Z"/>
</clipPath>
<clipPath id="clip_52">
<path transform="matrix(2.7777777,0,0,-2.7777777,0,1999.9999)" d="M68.98 37.08H377.94V346.03999H68.98Z"/>
</clipPath>
<g id="font_2_56">
<path transform="matrix(.001,0,0,.001,0,0)" d="M318 346C271 346 234 333 207 308 180 283 167 249 167 205 167 161 180 126 207 101 234 76 271 64 318 64 364 64 401 76 428 102 455 127 469 161 469 205 469 249 455 283 429 308 402 333 365 346 318 346ZM219 388C177 398 144 418 120 447 96 476 85 511 85 553 85 611 105 657 147 691 188 725 245 742 318 742 390 742 447 725 489 691 530 657 551 611 551 553 551 511 539 476 515 447 491 418 459 398 417 388 464 377 501 355 528 323 554 291 568 251 568 205 568 134 546 80 503 43 459 5 397-13 317-13 237-13 175 5 132 43 89 80 68 134 68 205 68 251 81 291 108 323 134 355 171 377 219 388ZM183 544C183 506 194 476 218 455 242 434 275 424 318 424 360 424 393 434 417 455 441 476 453 506 453 544 453 582 441 611 417 632 393 653 360 664 318 664 275 664 242 653 218 632 194 611 183 582 183 544Z"/>
</g>
<clipPath id="clip_53">
<path transform="matrix(2.7777777,0,0,-2.7777777,0,1999.9999)" d="M68.98 37.08H377.94V346.03999H68.98Z"/>
</clipPath>
<clipPath id="clip_54">
<path transform="matrix(2.7777777,0,0,-2.7777777,0,1999.9999)" d="M68.98 37.08H377.94V346.03999H68.98Z"/>
</clipPath>
<clipPath id="clip_55">
<path transform="matrix(2.7777777,0,0,-2.7777777,0,1999.9999)" d="M68.98 37.08H377.94V346.03999H68.98Z"/>
</clipPath>
<clipPath id="clip_56">
<path transform="matrix(2.7777777,0,0,-2.7777777,0,1999.9999)" d="M68.98 37.08H377.94V346.03999H68.98Z"/>
</clipPath>
<clipPath id="clip_57">
<path transform="matrix(2.7777777,0,0,-2.7777777,0,1999.9999)" d="M68.98 37.08H377.94V346.03999H68.98Z"/>
</clipPath>
<clipPath id="clip_58">
<path transform="matrix(2.7777777,0,0,-2.7777777,0,1999.9999)" d="M68.98 37.08H377.94V346.03999H68.98Z"/>
</clipPath>
<clipPath id="clip_59">
<path transform="matrix(2.7777777,0,0,-2.7777777,0,1999.9999)" d="M68.98 37.08H377.94V346.03999H68.98Z"/>
</clipPath>
<clipPath id="clip_60">
<path transform="matrix(2.7777777,0,0,-2.7777777,0,1999.9999)" d="M68.98 37.08H377.94V346.03999H68.98Z"/>
</clipPath>
<clipPath id="clip_61">
<path transform="matrix(2.7777777,0,0,-2.7777777,0,1999.9999)" d="M68.98 37.08H377.94V346.03999H68.98Z"/>
</clipPath>
<clipPath id="clip_62">
<path transform="matrix(2.7777777,0,0,-2.7777777,0,1999.9999)" d="M68.98 37.08H377.94V346.03999H68.98Z"/>
</clipPath>
<clipPath id="clip_63">
<path transform="matrix(2.7777777,0,0,-2.7777777,0,1999.9999)" d="M68.98 37.08H377.94V346.03999H68.98Z"/>
</clipPath>
<clipPath id="clip_64">
<path transform="matrix(2.7777777,0,0,-2.7777777,0,1999.9999)" d="M68.98 37.08H377.94V346.03999H68.98Z"/>
</clipPath>
<clipPath id="clip_65">
<path transform="matrix(2.7777777,0,0,-2.7777777,0,1999.9999)" d="M68.98 37.08H377.94V346.03999H68.98Z"/>
</clipPath>
<clipPath id="clip_66">
<path transform="matrix(2.7777777,0,0,-2.7777777,0,1999.9999)" d="M68.98 37.08H377.94V346.03999H68.98Z"/>
</clipPath>
</defs>
<path transform="matrix(2.7777777,0,0,-2.7777777,0,1999.9999)" d="M0 0H432V720H0Z" fill="#ffffff"/>
<path transform="matrix(2.7777777,0,0,-2.7777777,0,1999.9999)" d="M68.98 387.08H377.94V696.04H68.98Z" fill="#ffffff"/>
<g clip-path="url(#clip_1)">
<path transform="matrix(2.7777777,0,0,-2.7777777,0,1999.9999)" stroke-width=".8" stroke-linecap="butt" stroke-dasharray=".8,1.32" stroke-linejoin="round" fill="none" stroke="#b0b0b0" stroke-opacity=".5" d="M99.876 387.08V696.04"/>
</g>
<path transform="matrix(2.7777777,0,0,-2.7777777,0,1999.9999)" d="M99.876 387.08V383.58"/>
<path transform="matrix(2.7777777,0,0,-2.7777777,0,1999.9999)" stroke-width=".8" stroke-linecap="butt" stroke-linejoin="round" fill="none" stroke="#000000" d="M99.876 387.08V383.58"/>
<use data-text="4" xlink:href="#font_2_52" transform="matrix(27.777777,0,0,-27.777777,280.24366,965.316)"/>
<g clip-path="url(#clip_3)">
<path transform="matrix(.027777777,0,0,-.027777777,256.9689,965.316)" d="M106 355H732V272H106V355Z"/>
</g>
<g clip-path="url(#clip_4)">
<path transform="matrix(2.7777777,0,0,-2.7777777,0,1999.9999)" stroke-width=".8" stroke-linecap="butt" stroke-dasharray=".8,1.32" stroke-linejoin="round" fill="none" stroke="#b0b0b0" stroke-opacity=".5" d="M161.668 387.08V696.04"/>
</g>
<path transform="matrix(2.7777777,0,0,-2.7777777,0,1999.9999)" d="M161.668 387.08V383.58"/>
<path transform="matrix(2.7777777,0,0,-2.7777777,0,1999.9999)" stroke-width=".8" stroke-linecap="butt" stroke-linejoin="round" fill="none" stroke="#000000" d="M161.668 387.08V383.58"/>
<use data-text="2" xlink:href="#font_2_50" transform="matrix(27.777777,0,0,-27.777777,451.8881,965.316)"/>
<g clip-path="url(#clip_5)">
<path transform="matrix(.027777777,0,0,-.027777777,428.61335,965.316)" d="M106 355H732V272H106V355Z"/>
</g>
<g clip-path="url(#clip_6)">
<path transform="matrix(2.7777777,0,0,-2.7777777,0,1999.9999)" stroke-width=".8" stroke-linecap="butt" stroke-dasharray=".8,1.32" stroke-linejoin="round" fill="none" stroke="#b0b0b0" stroke-opacity=".5" d="M223.46 387.08V696.04"/>
</g>
<path transform="matrix(2.7777777,0,0,-2.7777777,0,1999.9999)" d="M223.46 387.08V383.58"/>
<path transform="matrix(2.7777777,0,0,-2.7777777,0,1999.9999)" stroke-width=".8" stroke-linecap="butt" stroke-linejoin="round" fill="none" stroke="#000000" d="M223.46 387.08V383.58"/>
<use data-text="0" xlink:href="#font_2_48" transform="matrix(27.777777,0,0,-27.777777,611.8898,965.316)"/>
<g clip-path="url(#clip_7)">
<path transform="matrix(2.7777777,0,0,-2.7777777,0,1999.9999)" stroke-width=".8" stroke-linecap="butt" stroke-dasharray=".8,1.32" stroke-linejoin="round" fill="none" stroke="#b0b0b0" stroke-opacity=".5" d="M285.252 387.08V696.04"/>
</g>
<path transform="matrix(2.7777777,0,0,-2.7777777,0,1999.9999)" d="M285.252 387.08V383.58"/>
<path transform="matrix(2.7777777,0,0,-2.7777777,0,1999.9999)" stroke-width=".8" stroke-linecap="butt" stroke-linejoin="round" fill="none" stroke="#000000" d="M285.252 387.08V383.58"/>
<use data-text="2" xlink:href="#font_2_50" transform="matrix(27.777777,0,0,-27.777777,783.53427,965.316)"/>
<g clip-path="url(#clip_8)">
<path transform="matrix(2.7777777,0,0,-2.7777777,0,1999.9999)" stroke-width=".8" stroke-linecap="butt" stroke-dasharray=".8,1.32" stroke-linejoin="round" fill="none" stroke="#b0b0b0" stroke-opacity=".5" d="M347.044 387.08V696.04"/>
</g>
<path transform="matrix(2.7777777,0,0,-2.7777777,0,1999.9999)" d="M347.044 387.08V383.58"/>
<path transform="matrix(2.7777777,0,0,-2.7777777,0,1999.9999)" stroke-width=".8" stroke-linecap="butt" stroke-linejoin="round" fill="none" stroke="#000000" d="M347.044 387.08V383.58"/>
<use data-text="4" xlink:href="#font_2_52" transform="matrix(27.777777,0,0,-27.777777,955.17868,965.316)"/>
<use data-text="x" xlink:href="#font_9_120" transform="matrix(38.888887,0,0,-38.888887,599.88888,1010.5417)"/>
<use data-text="1" xlink:href="#font_2_49" transform="matrix(27.222222,0,0,-27.222222,622.9032,1016.9219)"/>
<g clip-path="url(#clip_10)">
<path transform="matrix(2.7777777,0,0,-2.7777777,0,1999.9999)" stroke-width=".8" stroke-linecap="butt" stroke-dasharray=".8,1.32" stroke-linejoin="round" fill="none" stroke="#b0b0b0" stroke-opacity=".5" d="M68.98 417.976H377.94"/>
</g>
<path transform="matrix(2.7777777,0,0,-2.7777777,0,1999.9999)" d="M68.98 417.976H65.48"/>
<path transform="matrix(2.7777777,0,0,-2.7777777,0,1999.9999)" stroke-width=".8" stroke-linecap="butt" stroke-linejoin="round" fill="none" stroke="#000000" d="M68.98 417.976H65.48"/>
<use data-text="4" xlink:href="#font_2_52" transform="matrix(27.777777,0,0,-27.777777,154.51258,849.5024)"/>
<g clip-path="url(#clip_11)">
<path transform="matrix(.027777777,0,0,-.027777777,131.23784,849.5024)" d="M106 355H732V272H106V355Z"/>
</g>
<g clip-path="url(#clip_12)">
<path transform="matrix(2.7777777,0,0,-2.7777777,0,1999.9999)" stroke-width=".8" stroke-linecap="butt" stroke-dasharray=".8,1.32" stroke-linejoin="round" fill="none" stroke="#b0b0b0" stroke-opacity=".5" d="M68.98 479.768H377.94"/>
</g>
<path transform="matrix(2.7777777,0,0,-2.7777777,0,1999.9999)" d="M68.98 479.768H65.48"/>
<path transform="matrix(2.7777777,0,0,-2.7777777,0,1999.9999)" stroke-width=".8" stroke-linecap="butt" stroke-linejoin="round" fill="none" stroke="#000000" d="M68.98 479.768H65.48"/>
<use data-text="2" xlink:href="#font_2_50" transform="matrix(27.777777,0,0,-27.777777,154.51258,677.858)"/>
<g clip-path="url(#clip_13)">
<path transform="matrix(.027777777,0,0,-.027777777,131.23784,677.858)" d="M106 355H732V272H106V355Z"/>
</g>
<g clip-path="url(#clip_14)">
<path transform="matrix(2.7777777,0,0,-2.7777777,0,1999.9999)" stroke-width=".8" stroke-linecap="butt" stroke-dasharray=".8,1.32" stroke-linejoin="round" fill="none" stroke="#b0b0b0" stroke-opacity=".5" d="M68.98 541.56H377.94"/>
</g>
<path transform="matrix(2.7777777,0,0,-2.7777777,0,1999.9999)" d="M68.98 541.56H65.48"/>
<path transform="matrix(2.7777777,0,0,-2.7777777,0,1999.9999)" stroke-width=".8" stroke-linecap="butt" stroke-linejoin="round" fill="none" stroke="#000000" d="M68.98 541.56H65.48"/>
<use data-text="0" xlink:href="#font_2_48" transform="matrix(27.777777,0,0,-27.777777,154.50173,506.21354)"/>
<g clip-path="url(#clip_15)">
<path transform="matrix(2.7777777,0,0,-2.7777777,0,1999.9999)" stroke-width=".8" stroke-linecap="butt" stroke-dasharray=".8,1.32" stroke-linejoin="round" fill="none" stroke="#b0b0b0" stroke-opacity=".5" d="M68.98 603.352H377.94"/>
</g>
<path transform="matrix(2.7777777,0,0,-2.7777777,0,1999.9999)" d="M68.98 603.352H65.48"/>
<path transform="matrix(2.7777777,0,0,-2.7777777,0,1999.9999)" stroke-width=".8" stroke-linecap="butt" stroke-linejoin="round" fill="none" stroke="#000000" d="M68.98 603.352H65.48"/>
<use data-text="2" xlink:href="#font_2_50" transform="matrix(27.777777,0,0,-27.777777,154.50173,334.56913)"/>
<g clip-path="url(#clip_16)">
<path transform="matrix(2.7777777,0,0,-2.7777777,0,1999.9999)" stroke-width=".8" stroke-linecap="butt" stroke-dasharray=".8,1.32" stroke-linejoin="round" fill="none" stroke="#b0b0b0" stroke-opacity=".5" d="M68.98 665.144H377.94"/>
</g>
<path transform="matrix(2.7777777,0,0,-2.7777777,0,1999.9999)" d="M68.98 665.144H65.48"/>
<path transform="matrix(2.7777777,0,0,-2.7777777,0,1999.9999)" stroke-width=".8" stroke-linecap="butt" stroke-linejoin="round" fill="none" stroke="#000000" d="M68.98 665.144H65.48"/>
<use data-text="4" xlink:href="#font_2_52" transform="matrix(27.777777,0,0,-27.777777,154.50173,162.9247)"/>
<use data-text="x" xlink:href="#font_9_120" transform="matrix(0,-38.888887,-38.888887,-0,110.83853,516.5)"/>
<use data-text="2" xlink:href="#font_2_50" transform="matrix(0,-27.222222,-27.222222,-0,117.21874,493.4857)"/>
<g clip-path="url(#clip_17)">
<path transform="matrix(2.7777777,0,0,-2.7777777,0,1999.9999)" stroke-width="1.5" stroke-linecap="butt" stroke-linejoin="round" fill="none" stroke="#dce9f2" d="M282.41578 527.6865 281.19496 527.2979 274.95335 525.6498 268.6792 524.39559 265.5909 523.978 262.4701 523.6743 259.3493 523.4983 256.2285 523.46029 253.10768 523.572 249.98686 523.84646 246.38211 524.39559 243.74526 524.9964 240.62445 525.9414 236.72006 527.51638 234.38283 528.7883 231.26203 530.885 228.1412 533.7725 225.78504 536.8788 224.1087 539.9996 222.98212 543.1204 222.29047 546.2412 221.98522 549.362 222.02481 552.48287 222.37346 555.60366 223.00016 558.7244 223.87787 561.8453 225.0204 565.0524 226.36566 568.08688 228.1412 571.5481 229.7856 574.3285 231.83193 577.4493 234.38283 580.9076 237.50363 584.6625 240.62445 588.05337 243.74526 591.1468 246.86606 593.9942 249.98686 596.63577 253.38187 599.2949 259.3493 603.4656 262.5742 605.53659 268.71174 609.04019 274.95335 612.1426 281.43415 614.899 287.43656 617.01248 290.67045 618.0198 296.79899 619.54196 303.04063 620.68637 306.8136 621.1406 309.28224 621.33987 312.403 621.4605 315.52384 621.4408 319.8528 621.1406 321.76545 620.9128 324.88627 620.34658 328.00709 619.5617 332.39793 618.0198 334.2487 617.15176 338.0613 614.899 340.4903 612.944 341.72959 611.7782 344.30586 608.65737 346.1132 605.53659 347.3422 602.4158 348.09605 599.2949 348.46586 596.17416 348.49229 593.05337 348.21037 589.9325 347.65049 586.8117 346.73194 583.37747 345.74739 580.5701 343.6111 575.7715 342.8867 574.3285 340.4903 570.2339 339.0931 568.08688 336.8615 564.96609 334.2487 561.67977 331.12788 558.162 328.00709 554.9589 324.88627 552.0159 321.76545 549.29037 317.9366 546.2412 312.403 542.27529 308.9301 539.9996 303.04063 536.5466 296.79899 533.35458 292.39064 531.3876"/>
</g>
<g clip-path="url(#clip_18)">
<path transform="matrix(2.7777777,0,0,-2.7777777,0,1999.9999)" stroke-width="1.5" stroke-linecap="butt" stroke-linejoin="round" fill="none" stroke="#b5cce3" d="M377.94 508.3729 370.50166 502.5499 362.33598 496.56864 356.09434 492.27485 347.88447 486.94587 340.4903 482.4555 334.2487 478.8717 326.09248 474.46263 318.64466 470.70643 312.403 467.7453 303.04063 463.62568 296.79899 461.08015 290.55738 458.69288 281.19496 455.427 271.83253 452.52137 262.4701 449.9903 256.2285 448.51103 249.98686 447.19667 243.74526 446.05207 237.50363 445.09638 231.26203 444.31733 225.0204 443.72566 218.7788 443.33293 212.53717 443.15486 206.29557 443.1977 200.05394 443.4802 193.81232 444.02088 187.57071 444.83567 181.32909 445.94395 178.20829 446.6233 171.96666 448.27076 168.05179 449.49617 162.60425 451.51594 159.48343 452.83296 153.5933 455.7378 150.12102 457.74559 147.0002 459.74833 143.86362 461.9794 140.04013 465.1002 136.71259 468.221 133.803 471.34184 131.24892 474.46263 128.27536 478.7418 127.069049 480.70426 125.15455 484.23219 123.8813 486.94587 122.03374 491.66978 121.51751 493.18748 120.6139 496.3083 119.86922 499.42909 119.27658 502.5499 118.831478 505.67073 118.53103 508.7915 118.36083 511.91233 118.31565 515.03317 118.39054 518.15396 118.881999 524.39559 119.29837 527.51638 120.44276 533.758 122.03374 540.1994 123.90692 546.2412 126.201328 552.48287 128.8549 558.7244 131.86415 564.96609 135.22559 571.2077 138.93579 577.4493 142.9914 583.6909 147.3973 589.9325 152.16791 596.17416 157.3007 602.4158 162.80715 608.65737 168.84586 615.0352 175.08748 621.1963 181.78885 627.3822 189.01924 633.62387 196.74748 639.8655 203.17475 644.729 209.42052 649.2279 218.69234 655.4695 225.0204 659.4534 231.26203 663.18826 233.94658 664.7437"/>
<path transform="matrix(2.7777777,0,0,-2.7777777,0,1999.9999)" stroke-width="1.5" stroke-linecap="butt" stroke-linejoin="round" fill="none" stroke="#b5cce3" d="M247.37096 671.9679 249.98686 673.2824 251.8348 674.19436 253.10768 674.81137 256.2285 676.2927 258.42338 677.3151 259.3493 677.73886 262.4701 679.1333 265.44013 680.436 265.5909 680.5009 268.71174 681.8083 271.83253 683.08926 273.0033 683.55679 274.95335 684.32186 278.07414 685.5142 281.19395 686.67758 281.19496 686.678 284.31578 687.78176 287.43656 688.85549 290.26084 689.7984 290.55738 689.8956 293.6782 690.87948 296.79899 691.83096 299.9198 692.74917 300.52488 692.9192 303.04063 693.61386 306.1614 694.43936 309.28224 695.2291 312.403 695.98226 312.65739 696.04"/>
</g>
<g clip-path="url(#clip_19)">
<path transform="matrix(2.7777777,0,0,-2.7777777,0,1999.9999)" stroke-width="1.5" stroke-linecap="butt" stroke-linejoin="round" fill="none" stroke="#96acd2" d="M377.94 460.6674 375.1671 458.85859 374.81919 458.6348 371.6984 456.65113 370.24784 455.7378 368.57759 454.70069 365.45677 452.7809 365.1868 452.61698 362.33598 450.90959 359.95478 449.49617 359.21516 449.0631 356.09434 447.25868 354.54975 446.37538 352.97355 445.4861 349.85273 443.74534 348.96113 443.25456 346.73194 442.04389 343.90806 440.5265"/>
<path transform="matrix(2.7777777,0,0,-2.7777777,0,1999.9999)" stroke-width="1.5" stroke-linecap="butt" stroke-linejoin="round" fill="none" stroke="#96acd2" d="M330.35685 433.63209 328.00709 432.50086 324.88627 431.01609 324.3627 430.7713 321.76545 429.573 318.64466 428.15248 317.52265 427.6505 315.52384 426.76789 312.403 425.41166 310.34013 424.5297 309.28224 424.08326 306.1614 422.79136 303.04063 421.51908 302.76426 421.40888 299.9198 420.2894 296.79899 419.08226 294.70506 418.2881 293.6782 417.90364 290.55738 416.76164 287.43656 415.6412 286.08476 415.16728 284.31578 414.55509 281.19496 413.50056 278.07414 412.4688 276.76185 412.04649 274.95335 411.4719 271.83253 410.5068 268.71174 409.56575 266.5276 408.92567 265.5909 408.6547 262.4701 407.78099 259.3493 406.93263 256.2285 406.1101 255.02672 405.80485 253.10768 405.32374 249.98686 404.57008 246.86606 403.84358 243.74526 403.14488 241.59516 402.68406 240.62445 402.47874 237.50363 401.8503 234.38283 401.25108 231.26203 400.68165 228.1412 400.14265 225.0204 399.63475 224.54888 399.56324 221.8996 399.16688 218.7788 398.7324 215.65798 398.33055 212.53717 397.962 209.41637 397.62754 206.29557 397.32789 203.17475 397.0638 200.05394 396.83613 196.93314 396.6456 193.81232 396.49314 192.41228 396.4424 190.69152 396.38096 187.57071 396.30885 184.4499 396.27659 181.32909 396.28514 178.20829 396.3354 175.08748 396.42835 174.76358 396.4424 171.96666 396.5678 168.84586 396.75346 165.72505 396.98603 162.60425 397.26667 159.48343 397.59663 156.36263 397.97706 153.24182 398.4093 150.12102 398.89466 147.0002 399.43446 146.32099 399.56324 143.8794 400.04206 140.75859 400.71199 137.63777 401.44255 134.51697 402.23545 132.87622 402.68406 131.39617 403.1035 128.27536 404.05165 125.15455 405.0698 123.04379 405.80485 122.03374 406.1702 118.912929 407.36848 115.79212 408.64604 115.1449 408.92567 112.67131 410.03828 109.55051 411.52674 108.51589 412.04649 106.429698 413.1399 103.30889 414.86738 102.79218 415.16728 100.18808 416.74803 97.77896 418.2881 97.067279 418.7649 93.946468 420.95564 93.32919 421.40888 90.82566 423.34123 89.35439 424.5297 87.70485 425.93406 85.77461 427.6505 84.58404 428.76957 82.5414 430.7713 81.463237 431.89176 79.61393 433.89213 78.34242 435.35597 76.95755 437.01295 75.22162 439.2327 74.54263 440.13374 72.34928 443.25456 72.10081 443.63417 70.36876 446.37538 68.98 448.75947"/>
<path transform="matrix(2.7777777,0,0,-2.7777777,0,1999.9999)" stroke-width="1.5" stroke-linecap="butt" stroke-linejoin="round" fill="none" stroke="#96acd2" d="M68.98 546.33016 70.24127 549.362 71.59673 552.48287 72.10081 553.59158 73.02157 555.60366 74.50863 558.7244 75.22162 560.1625 76.061359 561.8453 77.67709 564.96609 78.34242 566.20559 79.35878 568.08688 81.10032 571.2077 81.463237 571.83609 82.912 574.3285 84.58404 577.1246 84.77948 577.4493 86.7192 580.5701 87.70485 582.1131 88.71927 583.6909 90.77858 586.8117 90.82566 586.88107 92.91225 589.9325 93.946468 591.4089 95.106029 593.05337 97.067279 595.76986 97.361118 596.17416 99.686588 599.2949 100.18808 599.9524 102.07951 602.4158 103.30889 603.98239 104.53663 605.53659 106.429698 607.88247 107.05923 608.65737 109.55051 611.6607 109.64862 611.7782 112.31189 614.899 112.67131 615.31179 115.04522 618.0198 115.79212 618.8554 117.84846 621.1406 118.912929 622.30117 120.72304 624.2614 122.03374 625.6545 123.67041 627.3822 125.15455 628.9204 126.69208 630.50308 128.27536 632.1036 129.78958 633.62387 131.39617 635.20846 132.9645 636.7446 134.51697 638.239 136.21846 639.8655 137.63777 641.1991 139.55316 642.98629 140.75859 644.0922 142.97029 646.10708 143.8794 646.92166 146.47165 649.2279 147.0002 649.6905 150.05904 652.3487 150.12102 652.4017 153.24182 655.0478 153.74297 655.4695 156.36263 657.63919 157.51955 658.59036 159.48343 660.17977 161.38976 661.7111 162.60425 662.6718 165.35573 664.8319 165.72505 665.1175 168.84586 667.50888 169.43019 667.9527 171.96666 669.8507 173.61371 671.07357 175.02846 672.10848"/>
<path transform="matrix(2.7777777,0,0,-2.7777777,0,1999.9999)" stroke-width="1.5" stroke-linecap="butt" stroke-linejoin="round" fill="none" stroke="#96acd2" d="M187.69585 681.00827 190.69152 683.01339 191.51158 683.55679 193.81232 685.0597 196.30998 686.67758 196.93314 687.0756 200.05394 689.0465 201.25662 689.7984 203.17475 690.9809 206.29557 692.8879 206.34754 692.9192 209.41637 694.7438 211.61637 696.04"/>
</g>
<g clip-path="url(#clip_20)">
<path transform="matrix(2.7777777,0,0,-2.7777777,0,1999.9999)" stroke-width="1.5" stroke-linecap="butt" stroke-linejoin="round" fill="none" stroke="#8c7dba" d="M377.94 425.22727 376.76463 424.5297 374.81919 423.38819 372.1389 421.82804"/>
<path transform="matrix(2.7777777,0,0,-2.7777777,0,1999.9999)" stroke-width="1.5" stroke-linecap="butt" stroke-linejoin="round" fill="none" stroke="#8c7dba" d="M358.72975 414.35179 356.09434 412.94175 354.40409 412.04649 352.97355 411.29707 349.85273 409.67997 348.38084 408.92567 346.73194 408.0899 343.6111 406.5255 342.15653 405.80485 340.4903 404.9883 337.3695 403.4767 335.7132 402.68406 334.2487 401.99073 331.12788 400.53199 329.03059 399.56324 328.00709 399.09556 324.88627 397.68974 322.08589 396.4424 321.76545 396.30125 318.64466 394.94837 315.52384 393.611 314.83744 393.32164 312.403 392.30638 309.28224 391.0225 307.25508 390.2008 306.1614 389.76225 303.04063 388.5319 299.9198 387.31843 299.29499 387.08"/>
<path transform="matrix(2.7777777,0,0,-2.7777777,0,1999.9999)" stroke-width="1.5" stroke-linecap="butt" stroke-linejoin="round" fill="none" stroke="#8c7dba" d="M68.98 615.1596 71.33212 618.0198 72.10081 618.9388 73.952709 621.1406 75.22162 622.62429 76.62953 624.2614 78.34242 626.2207 79.36353 627.3822 81.463237 629.7323 82.15567 630.50308 84.58404 633.1632 85.00692 633.62387 87.70485 636.517 87.9183 636.7446 90.82566 639.7974 90.89082 639.8655 93.92583 642.98629 93.946468 643.00717 94.5334 643.5983"/>
<path transform="matrix(2.7777777,0,0,-2.7777777,0,1999.9999)" stroke-width="1.5" stroke-linecap="butt" stroke-linejoin="round" fill="none" stroke="#8c7dba" d="M105.9326 654.7359 106.429698 655.20706 106.70828 655.4695 109.55051 658.1099 110.07062 658.59036 112.67131 660.959 113.501979 661.7111 115.79212 663.7564 117.00361 664.8319 118.912929 666.50418 120.57677 667.9527 122.03374 669.20437 124.22275 671.07357 125.15455 671.85879 127.94289 674.19436 128.27536 674.46926 131.39617 677.03189 131.74355 677.3151 134.51697 679.5477 135.62722 680.436 137.63777 682.024 139.59052 683.55679 140.75859 684.46218 143.63495 686.67758 143.8794 686.8635 147.0002 689.2187 147.7737 689.7984 150.12102 691.5359 152.00193 692.9192 153.24182 693.81997 156.3176 696.04"/>
</g>
<g clip-path="url(#clip_21)">
<path transform="matrix(2.7777777,0,0,-2.7777777,0,1999.9999)" stroke-width="1.5" stroke-linecap="butt" stroke-linejoin="round" fill="none" stroke="#894da3" d="M377.94 395.71867 375.27549 394.23826"/>
<path transform="matrix(2.7777777,0,0,-2.7777777,0,1999.9999)" stroke-width="1.5" stroke-linecap="butt" stroke-linejoin="round" fill="none" stroke="#894da3" d="M68.98 656.5602 71.02071 658.59036 72.10081 659.65127 74.208438 661.7111 75.22162 662.68899 77.45309 664.8319 78.34242 665.6755 80.755519 667.9527 81.463237 668.6125 84.11662 671.07357 84.58404 671.5019 87.53729 674.19436 87.70485 674.3453 90.82566 677.14126 91.02082 677.3151 93.946468 679.891 94.56864 680.436 97.067279 682.5989 97.326808 682.8223"/>
<path transform="matrix(2.7777777,0,0,-2.7777777,0,1999.9999)" stroke-width="1.5" stroke-linecap="butt" stroke-linejoin="round" fill="none" stroke="#894da3" d="M109.34753 692.87448 109.40219 692.9192 109.55051 693.0393 112.67131 695.5498 113.28412 696.04"/>
</g>
<g clip-path="url(#clip_22)">
<path transform="matrix(2.7777777,0,0,-2.7777777,0,1999.9999)" stroke-width="1.5" stroke-linecap="butt" stroke-linejoin="round" fill="none" stroke="#821580" d="M68.98 689.22396 69.626369 689.7984 72.10081 691.9741 73.180629 692.9192 75.22162 694.6867 76.7916 696.04"/>
</g>
<path transform="matrix(2.7777777,0,0,-2.7777777,0,1999.9999)" stroke-width=".8" stroke-linecap="square" stroke-miterlimit="10" stroke-linejoin="miter" fill="none" stroke="#000000" d="M68.98 387.08V696.04"/>
<path transform="matrix(2.7777777,0,0,-2.7777777,0,1999.9999)" stroke-width=".8" stroke-linecap="square" stroke-miterlimit="10" stroke-linejoin="miter" fill="none" stroke="#000000" d="M377.94 387.08V696.04"/>
<path transform="matrix(2.7777777,0,0,-2.7777777,0,1999.9999)" stroke-width=".8" stroke-linecap="square" stroke-miterlimit="10" stroke-linejoin="miter" fill="none" stroke="#000000" d="M68.98 387.08H377.94"/>
<path transform="matrix(2.7777777,0,0,-2.7777777,0,1999.9999)" stroke-width=".8" stroke-linecap="square" stroke-miterlimit="10" stroke-linejoin="miter" fill="none" stroke="#000000" d="M68.98 696.04H377.94"/>
<g clip-path="url(#clip_23)">
<use data-text="0" xlink:href="#font_2_48" transform="matrix(21.201369,-6.6580116,-6.6580116,-21.201369,793.5188,537.3605)" fill="#dce9f2"/>
</g>
<g clip-path="url(#clip_24)">
<use data-text="1" xlink:href="#font_2_49" transform="matrix(20.181292,-9.302828,-9.302828,-20.181292,658.11337,154.69478)" fill="#b5cce3"/>
<use data-text="5" xlink:href="#font_2_53" transform="matrix(20.181292,-9.302828,-9.302828,-20.181292,670.94869,148.77819)" fill="#b5cce3"/>
</g>
<g clip-path="url(#clip_25)">
<use data-text="3" xlink:href="#font_2_51" transform="matrix(20.37687,-8.866249,-8.866249,-20.37687,926.01498,797.33206)" fill="#96acd2"/>
<use data-text="0" xlink:href="#font_2_48" transform="matrix(20.37687,-8.866249,-8.866249,-20.37687,938.9747,791.6931)" fill="#96acd2"/>
</g>
<g clip-path="url(#clip_26)">
<use data-text="3" xlink:href="#font_2_51" transform="matrix(19.055377,-11.433273,-11.433273,-19.055377,494.7076,133.02019)" fill="#96acd2"/>
<use data-text="0" xlink:href="#font_2_48" transform="matrix(19.055377,-11.433273,-11.433273,-19.055377,506.82685,125.74863)" fill="#96acd2"/>
</g>
<g clip-path="url(#clip_27)">
<use data-text="4" xlink:href="#font_2_52" transform="matrix(20.056567,-9.568765,-9.568765,-20.056567,1005.0224,850.4081)" fill="#8c7dba"/>
<use data-text="5" xlink:href="#font_2_53" transform="matrix(20.056567,-9.568765,-9.568765,-20.056567,1017.7784,844.3223)" fill="#8c7dba"/>
</g>
<g clip-path="url(#clip_28)">
<use data-text="4" xlink:href="#font_2_52" transform="matrix(17.05252,-14.249164,-14.249164,-17.05252,271.36665,210.35224)" fill="#8c7dba"/>
<use data-text="5" xlink:href="#font_2_53" transform="matrix(17.05252,-14.249164,-14.249164,-17.05252,282.21205,201.28977)" fill="#8c7dba"/>
</g>
<g clip-path="url(#clip_29)">
<use data-text="6" xlink:href="#font_2_54" transform="matrix(20.20043,-9.261194,-9.261194,-20.20043,1013.515,926.49148)" fill="#894da3"/>
<use data-text="0" xlink:href="#font_2_48" transform="matrix(20.20043,-9.261194,-9.261194,-20.20043,1026.3626,920.6013)" fill="#894da3"/>
</g>
<g clip-path="url(#clip_30)">
<use data-text="6" xlink:href="#font_2_54" transform="matrix(18.07694,-12.924833,-12.924833,-18.07694,279.0186,102.38935)" fill="#894da3"/>
<use data-text="0" xlink:href="#font_2_48" transform="matrix(18.07694,-12.924833,-12.924833,-18.07694,290.51554,94.16916)" fill="#894da3"/>
</g>
<path transform="matrix(2.7777777,0,0,-2.7777777,0,1999.9999)" d="M68.98 37.08H377.94V346.04H68.98Z" fill="#ffffff"/>
<g clip-path="url(#clip_31)">
<path transform="matrix(2.7777777,0,0,-2.7777777,0,1999.9999)" stroke-width=".8" stroke-linecap="butt" stroke-dasharray=".8,1.32" stroke-linejoin="round" fill="none" stroke="#b0b0b0" stroke-opacity=".5" d="M99.876 37.08V346.04"/>
</g>
<path transform="matrix(2.7777777,0,0,-2.7777777,0,1999.9999)" d="M99.876 37.08V33.58"/>
<path transform="matrix(2.7777777,0,0,-2.7777777,0,1999.9999)" stroke-width=".8" stroke-linecap="butt" stroke-linejoin="round" fill="none" stroke="#000000" d="M99.876 37.08V33.58"/>
<use data-text="4" xlink:href="#font_2_52" transform="matrix(27.777777,0,0,-27.777777,280.24366,1937.5381)"/>
<g clip-path="url(#clip_32)">
<path transform="matrix(.027777777,0,0,-.027777777,256.9689,1937.5381)" d="M106 355H732V272H106V355Z"/>
</g>
<g clip-path="url(#clip_33)">
<path transform="matrix(2.7777777,0,0,-2.7777777,0,1999.9999)" stroke-width=".8" stroke-linecap="butt" stroke-dasharray=".8,1.32" stroke-linejoin="round" fill="none" stroke="#b0b0b0" stroke-opacity=".5" d="M161.668 37.08V346.04"/>
</g>
<path transform="matrix(2.7777777,0,0,-2.7777777,0,1999.9999)" d="M161.668 37.08V33.58"/>
<path transform="matrix(2.7777777,0,0,-2.7777777,0,1999.9999)" stroke-width=".8" stroke-linecap="butt" stroke-linejoin="round" fill="none" stroke="#000000" d="M161.668 37.08V33.58"/>
<use data-text="2" xlink:href="#font_2_50" transform="matrix(27.777777,0,0,-27.777777,451.8881,1937.5381)"/>
<g clip-path="url(#clip_34)">
<path transform="matrix(.027777777,0,0,-.027777777,428.61335,1937.5381)" d="M106 355H732V272H106V355Z"/>
</g>
<g clip-path="url(#clip_35)">
<path transform="matrix(2.7777777,0,0,-2.7777777,0,1999.9999)" stroke-width=".8" stroke-linecap="butt" stroke-dasharray=".8,1.32" stroke-linejoin="round" fill="none" stroke="#b0b0b0" stroke-opacity=".5" d="M223.46 37.08V346.04"/>
</g>
<path transform="matrix(2.7777777,0,0,-2.7777777,0,1999.9999)" d="M223.46 37.08V33.58"/>
<path transform="matrix(2.7777777,0,0,-2.7777777,0,1999.9999)" stroke-width=".8" stroke-linecap="butt" stroke-linejoin="round" fill="none" stroke="#000000" d="M223.46 37.08V33.58"/>
<use data-text="0" xlink:href="#font_2_48" transform="matrix(27.777777,0,0,-27.777777,611.8898,1937.5381)"/>
<g clip-path="url(#clip_36)">
<path transform="matrix(2.7777777,0,0,-2.7777777,0,1999.9999)" stroke-width=".8" stroke-linecap="butt" stroke-dasharray=".8,1.32" stroke-linejoin="round" fill="none" stroke="#b0b0b0" stroke-opacity=".5" d="M285.252 37.08V346.04"/>
</g>
<path transform="matrix(2.7777777,0,0,-2.7777777,0,1999.9999)" d="M285.252 37.08V33.58"/>
<path transform="matrix(2.7777777,0,0,-2.7777777,0,1999.9999)" stroke-width=".8" stroke-linecap="butt" stroke-linejoin="round" fill="none" stroke="#000000" d="M285.252 37.08V33.58"/>
<use data-text="2" xlink:href="#font_2_50" transform="matrix(27.777777,0,0,-27.777777,783.53427,1937.5381)"/>
<g clip-path="url(#clip_37)">
<path transform="matrix(2.7777777,0,0,-2.7777777,0,1999.9999)" stroke-width=".8" stroke-linecap="butt" stroke-dasharray=".8,1.32" stroke-linejoin="round" fill="none" stroke="#b0b0b0" stroke-opacity=".5" d="M347.044 37.08V346.04"/>
</g>
<path transform="matrix(2.7777777,0,0,-2.7777777,0,1999.9999)" d="M347.044 37.08V33.58"/>
<path transform="matrix(2.7777777,0,0,-2.7777777,0,1999.9999)" stroke-width=".8" stroke-linecap="butt" stroke-linejoin="round" fill="none" stroke="#000000" d="M347.044 37.08V33.58"/>
<use data-text="4" xlink:href="#font_2_52" transform="matrix(27.777777,0,0,-27.777777,955.17868,1937.5381)"/>
<use data-text="x" xlink:href="#font_9_120" transform="matrix(38.888887,0,0,-38.888887,598.5,1989.8818)"/>
<use data-text="1" xlink:href="#font_2_49" transform="matrix(27.222222,0,0,-27.222222,621.8865,1996.262)"/>
<g clip-path="url(#clip_38)">
<path transform="matrix(.03888889,0,0,-.03888889,622.82998,1985.5415)" d="M-285 800H-213L-93 616H-161L-249 736-337 616H-405L-285 800ZM-249 560V560Z"/>
</g>
<g clip-path="url(#clip_39)">
<path transform="matrix(2.7777777,0,0,-2.7777777,0,1999.9999)" stroke-width=".8" stroke-linecap="butt" stroke-dasharray=".8,1.32" stroke-linejoin="round" fill="none" stroke="#b0b0b0" stroke-opacity=".5" d="M68.98 67.976H377.94"/>
</g>
<path transform="matrix(2.7777777,0,0,-2.7777777,0,1999.9999)" d="M68.98 67.976H65.48"/>
<path transform="matrix(2.7777777,0,0,-2.7777777,0,1999.9999)" stroke-width=".8" stroke-linecap="butt" stroke-linejoin="round" fill="none" stroke="#000000" d="M68.98 67.976H65.48"/>
<use data-text="4" xlink:href="#font_2_52" transform="matrix(27.777777,0,0,-27.777777,154.51258,1821.7245)"/>
<g clip-path="url(#clip_40)">
<path transform="matrix(.027777777,0,0,-.027777777,131.23784,1821.7245)" d="M106 355H732V272H106V355Z"/>
</g>
<g clip-path="url(#clip_41)">
<path transform="matrix(2.7777777,0,0,-2.7777777,0,1999.9999)" stroke-width=".8" stroke-linecap="butt" stroke-dasharray=".8,1.32" stroke-linejoin="round" fill="none" stroke="#b0b0b0" stroke-opacity=".5" d="M68.98 129.768H377.94"/>
</g>
<path transform="matrix(2.7777777,0,0,-2.7777777,0,1999.9999)" d="M68.98 129.768H65.48"/>
<path transform="matrix(2.7777777,0,0,-2.7777777,0,1999.9999)" stroke-width=".8" stroke-linecap="butt" stroke-linejoin="round" fill="none" stroke="#000000" d="M68.98 129.768H65.48"/>
<use data-text="2" xlink:href="#font_2_50" transform="matrix(27.777777,0,0,-27.777777,154.51258,1650.0801)"/>
<g clip-path="url(#clip_42)">
<path transform="matrix(.027777777,0,0,-.027777777,131.23784,1650.0801)" d="M106 355H732V272H106V355Z"/>
</g>
<g clip-path="url(#clip_43)">
<path transform="matrix(2.7777777,0,0,-2.7777777,0,1999.9999)" stroke-width=".8" stroke-linecap="butt" stroke-dasharray=".8,1.32" stroke-linejoin="round" fill="none" stroke="#b0b0b0" stroke-opacity=".5" d="M68.98 191.56H377.94"/>
</g>
<path transform="matrix(2.7777777,0,0,-2.7777777,0,1999.9999)" d="M68.98 191.56H65.48"/>
<path transform="matrix(2.7777777,0,0,-2.7777777,0,1999.9999)" stroke-width=".8" stroke-linecap="butt" stroke-linejoin="round" fill="none" stroke="#000000" d="M68.98 191.56H65.48"/>
<use data-text="0" xlink:href="#font_2_48" transform="matrix(27.777777,0,0,-27.777777,154.50173,1478.4357)"/>
<g clip-path="url(#clip_44)">
<path transform="matrix(2.7777777,0,0,-2.7777777,0,1999.9999)" stroke-width=".8" stroke-linecap="butt" stroke-dasharray=".8,1.32" stroke-linejoin="round" fill="none" stroke="#b0b0b0" stroke-opacity=".5" d="M68.98 253.352H377.94"/>
</g>
<path transform="matrix(2.7777777,0,0,-2.7777777,0,1999.9999)" d="M68.98 253.352H65.48"/>
<path transform="matrix(2.7777777,0,0,-2.7777777,0,1999.9999)" stroke-width=".8" stroke-linecap="butt" stroke-linejoin="round" fill="none" stroke="#000000" d="M68.98 253.352H65.48"/>
<use data-text="2" xlink:href="#font_2_50" transform="matrix(27.777777,0,0,-27.777777,154.50173,1306.7913)"/>
<g clip-path="url(#clip_45)">
<path transform="matrix(2.7777777,0,0,-2.7777777,0,1999.9999)" stroke-width=".8" stroke-linecap="butt" stroke-dasharray=".8,1.32" stroke-linejoin="round" fill="none" stroke="#b0b0b0" stroke-opacity=".5" d="M68.98 315.144H377.94"/>
</g>
<path transform="matrix(2.7777777,0,0,-2.7777777,0,1999.9999)" d="M68.98 315.144H65.48"/>
<path transform="matrix(2.7777777,0,0,-2.7777777,0,1999.9999)" stroke-width=".8" stroke-linecap="butt" stroke-linejoin="round" fill="none" stroke="#000000" d="M68.98 315.144H65.48"/>
<use data-text="4" xlink:href="#font_2_52" transform="matrix(27.777777,0,0,-27.777777,154.50173,1135.1469)"/>
<use data-text="x" xlink:href="#font_9_120" transform="matrix(0,-38.888887,-38.888887,-0,111.14236,1490.1111)"/>
<use data-text="2" xlink:href="#font_2_50" transform="matrix(0,-27.222222,-27.222222,-0,117.52256,1466.7246)"/>
<g clip-path="url(#clip_46)">
<path transform="matrix(0,-.03888889,-.03888889,-0,106.80208,1465.7811)" d="M-285 800H-213L-93 616H-161L-249 736-337 616H-405L-285 800ZM-249 560V560Z"/>
</g>
<g clip-path="url(#clip_47)">
<path transform="matrix(2.7777777,0,0,-2.7777777,0,1999.9999)" stroke-width="1.5" stroke-linecap="butt" stroke-linejoin="round" fill="none" stroke="#dce9f2" d="M161.40984 253.2441 165.72505 254.6305 171.96666 256.4074 178.20829 257.94306 184.4499 259.25224 190.69152 260.33979 196.93314 261.2382 203.17475 261.9401 209.41637 262.43763 215.65798 262.7542 221.8996 262.88993 228.1412 262.8447 234.38283 262.61854 240.62445 262.2115 246.86606 261.61647 253.10768 260.81263 259.3493 259.81965 265.5909 258.63658 271.83253 257.2 278.1747 255.53656 284.31578 253.64225 290.55738 251.46199 296.79899 248.98172 303.04063 246.14844 309.28224 242.896 315.52384 239.14054 319.00505 236.81172 323.18739 233.6909 326.9271 230.5701 330.26325 227.4493 333.2304 224.32849 335.85939 221.20767 338.17753 218.08687 340.4903 214.45781 341.93409 211.84526 343.6111 208.22095 344.61778 205.60364 345.57804 202.48284 346.29823 199.36202 346.77717 196.24121 347.01124 193.1204V189.9996L346.73194 186.5771 346.29823 183.75798 345.57804 180.63718 344.61778 177.51636 343.41236 174.39556 341.93409 171.27475 340.20185 168.15395 337.3695 163.92583 335.85939 161.91233 333.2304 158.79152 330.26325 155.6707 326.9271 152.5499 323.18739 149.4291 318.64466 146.06 314.2949 143.18747 309.0025 140.06667 302.9882 136.94586 296.06358 133.82506 290.55738 131.658 287.43656 130.51804 281.19496 128.4895 274.95335 126.71258 268.71174 125.17695 262.4701 123.86778 256.2285 122.78023 249.98686 121.88181 243.74526 121.1799 237.50363 120.68238 231.26203 120.365779 225.0204 120.23009 218.7788 120.275318 212.53717 120.50146 206.29557 120.90852 200.05394 121.50353 193.81232 122.30738 187.57071 123.30036 181.32909 124.48343 175.08748 125.91999 168.7453 127.583438 162.60425 129.47777 156.36263 131.658 150.12102 134.13829 143.8794 136.97156 137.63777 140.22402 131.39617 143.97946 127.91495 146.30829 123.73263 149.4291 119.99292 152.5499 116.65677 155.6707 113.68959 158.79152 111.06063 161.91233 108.74247 165.03313 106.429698 168.66219 104.985919 171.27475 103.30889 174.89905 102.30223 177.51636 101.34198 180.63718 100.621799 183.75798 100.14283 186.87879 99.90877 189.9996V193.1204L100.18808 196.5429 100.621799 199.36202 101.34198 202.48284 102.30223 205.60364 103.50764 208.72444 104.985919 211.84526 106.71816 214.96607 109.55051 219.19419 111.06063 221.20767 113.68959 224.32849 116.65677 227.4493 119.99292 230.5701 123.73263 233.6909 128.27536 237.06 132.6251 239.93253 137.9175 243.05333 143.93183 246.17415 151.36417 249.49982"/>
</g>
<g clip-path="url(#clip_48)">
<path transform="matrix(2.7777777,0,0,-2.7777777,0,1999.9999)" stroke-width="1.5" stroke-linecap="butt" stroke-linejoin="round" fill="none" stroke="#b5cce3" d="M377.94 144.39003 376.8356 143.18747 374.81919 141.12905 373.7568 140.06667 371.6984 138.12932 370.4142 136.94586 368.57759 135.3473 366.7906 133.82506 365.45677 132.74864 362.8672 130.70424 362.33598 130.30582 359.21516 128.01723 358.60987 127.583438 356.09434 125.86649 353.98857 124.46262 352.97355 123.81671 349.85273 121.87803 348.968 121.34182 346.73194 120.045558 343.6111 118.28162 343.50108 118.22101 340.4903 116.631999 337.50953 115.100208 337.3695 115.03113 334.2487 113.53314 331.12788 112.07676 330.9131 111.97939 328.00709 110.71267 324.88627 109.39233 323.58528 108.85859 321.76545 108.13964 318.64466 106.94526 315.52384 105.789409 315.37965 105.73778 312.403 104.71014 309.28224 103.66987 306.1614 102.666759 306.00059 102.61697 303.04063 101.73238 299.9198 100.8356 296.79899 99.974689 294.98893 99.49616 293.6782 99.161197 290.55738 98.39833 287.43656 97.67014 284.31578 96.97663 281.46763 96.37535 281.19496 96.31965 278.07414 95.71562 274.95335 95.14515 271.83253 94.60824 268.71174 94.10488 265.5909 93.635089 262.8686 93.25455 262.4701 93.200588 259.3493 92.81048 256.2285 92.45289 253.10768 92.12781 249.98686 91.83523 246.86606 91.575168 243.74526 91.3476 240.62445 91.15255 237.50363 90.990009 234.38283 90.85998 231.26203 90.76245 228.1412 90.69743 225.0204 90.664928H221.8996L218.7788 90.69743 215.65798 90.76245 212.53717 90.85998 209.41637 90.990009 206.29557 91.15255 203.17475 91.3476 200.05394 91.575168 196.93314 91.83523 193.81232 92.12781 190.69152 92.45289 187.57071 92.81048 184.4499 93.200588 184.05139 93.25455 181.32909 93.635089 178.20829 94.10488 175.08748 94.60824 171.96666 95.14515 168.84586 95.71562 165.72505 96.31965 165.4524 96.37535 162.60425 96.97663 160.48447 97.447689"/>
<path transform="matrix(2.7777777,0,0,-2.7777777,0,1999.9999)" stroke-width="1.5" stroke-linecap="butt" stroke-linejoin="round" fill="none" stroke="#b5cce3" d="M146.04305 101.11064 143.8794 101.73238 140.91944 102.61697 140.75859 102.666759 137.63777 103.66987 134.51697 104.71014 131.54036 105.73778 131.39617 105.789409 128.27536 106.94526 125.15455 108.13964 123.334728 108.85859 122.03374 109.39233 118.912929 110.71267 116.006908 111.97939 115.79212 112.07676 112.67131 113.53314 109.55051 115.03113 109.41049 115.100208 106.429698 116.631999 103.41894 118.22101 103.30889 118.28162 100.18808 120.045558 97.95202 121.34182 97.067279 121.87803 93.946468 123.81671 92.93146 124.46262 90.82566 125.86649 88.31014 127.583438 87.70485 128.01723 84.58404 130.30582 84.05281 130.70424 81.463237 132.74864 80.129428 133.82506 78.34242 135.3473 76.5058 136.94586 75.22162 138.12932 73.163188 140.06667 72.10081 141.12905 70.08438 143.18747 68.98 144.39003"/>
<path transform="matrix(2.7777777,0,0,-2.7777777,0,1999.9999)" stroke-width="1.5" stroke-linecap="butt" stroke-linejoin="round" fill="none" stroke="#b5cce3" d="M68.98 238.72998 70.08438 239.93253 72.10081 241.99095 73.163188 243.05333 75.22162 244.99068 76.5058 246.17415 78.34242 247.77269 80.129428 249.29496 81.463237 250.37136 84.05281 252.41576 84.58404 252.81418 87.70485 255.10277 88.31014 255.53656 90.82566 257.2535 92.93146 258.65739 93.946468 259.30329 97.067279 261.24198 97.95202 261.77818 100.18808 263.07447 103.30889 264.83839 103.41894 264.899 106.429698 266.488 109.41049 268.0198 109.55051 268.08888 112.67131 269.58686 115.79212 271.04325 116.006908 271.1406 118.912929 272.40736 122.03374 273.72767 123.334728 274.2614 125.15455 274.98036 128.27536 276.17475 131.39617 277.3306 131.54036 277.38224 134.51697 278.40986 137.63777 279.45014 140.75859 280.45326 140.91944 280.50303 143.8794 281.3876 147.0002 282.2844 150.12102 283.14533 151.93108 283.62385 153.24182 283.9588 156.36263 284.72169 159.48343 285.44987 162.60425 286.14338 165.4524 286.74467 165.72505 286.80036 168.84586 287.4044 171.96666 287.97486 175.08748 288.51176 178.20829 289.0151 181.32909 289.48493 184.05139 289.86546 184.4499 289.91944 187.57071 290.3095 190.69152 290.6671 193.81232 290.9922 196.93314 291.28477 200.05394 291.54484 203.17475 291.7724 206.29557 291.96745 209.41637 292.13 212.53717 292.26 215.65798 292.35755 218.7788 292.42259 221.8996 292.45509H225.0204L228.1412 292.42259 231.26203 292.35755 234.38283 292.26 237.50363 292.13 240.62445 291.96745 243.74526 291.7724 246.86606 291.54484 249.98686 291.28477 253.10768 290.9922 256.2285 290.6671 259.3493 290.3095 262.4701 289.91944 262.8686 289.86546 265.5909 289.48493 268.71174 289.0151 271.83253 288.51176 274.95335 287.97486 278.07414 287.4044 281.19496 286.80036 281.46763 286.74467 284.31578 286.14338 286.43553 285.6723"/>
<path transform="matrix(2.7777777,0,0,-2.7777777,0,1999.9999)" stroke-width="1.5" stroke-linecap="butt" stroke-linejoin="round" fill="none" stroke="#b5cce3" d="M300.87696 282.00938 303.04063 281.3876 306.00059 280.50303 306.1614 280.45326 309.28224 279.45014 312.403 278.40986 315.37965 277.38224 315.52384 277.3306 318.64466 276.17475 321.76545 274.98036 323.58528 274.2614 324.88627 273.72767 328.00709 272.40736 330.9131 271.1406 331.12788 271.04325 334.2487 269.58686 337.3695 268.08888 337.50953 268.0198 340.4903 266.488 343.50108 264.899 343.6111 264.83839 346.73194 263.07447 348.968 261.77818 349.85273 261.24198 352.97355 259.30329 353.98857 258.65739 356.09434 257.2535 358.60987 255.53656 359.21516 255.10277 362.33598 252.81418 362.8672 252.41576 365.45677 250.37136 366.7906 249.29496 368.57759 247.77269 370.4142 246.17415 371.6984 244.99068 373.7568 243.05333 374.81919 241.99095 376.8356 239.93253 377.94 238.72998"/>
</g>
<g clip-path="url(#clip_49)">
<path transform="matrix(2.7777777,0,0,-2.7777777,0,1999.9999)" stroke-width="1.5" stroke-linecap="butt" stroke-linejoin="round" fill="none" stroke="#96acd2" d="M377.94 106.017498 377.4776 105.73778 374.81919 104.187038 372.0716 102.61697 371.6984 102.41107 368.57759 100.72511 366.25328 99.49616 365.45677 99.08907 362.33598 97.52866 359.9769 96.37535 359.21516 96.01495 356.09434 94.572 353.17713 93.25455 352.97355 93.165477 349.85273 91.83263 346.73194 90.53229 345.75086 90.133739 343.6111 89.2908 340.4903 88.09292 337.60063 87.01293 337.3695 86.92909 334.2487 85.82764 331.12788 84.75677 328.53395 83.89212 328.00709 83.72152 324.88627 82.74069 321.76545 81.78959 318.64466 80.86821 318.3055 80.77132 315.52384 79.99863 312.403 79.16063 309.28224 78.35153 306.47813 77.650508 306.1614 77.57347 303.04063 76.84247 299.9198 76.13959 296.79899 75.46481 293.6782 74.81816 292.22276 74.52969 290.55738 74.208309 287.43656 73.63342 284.31578 73.085918 281.19496 72.56578 278.07414 72.07302 274.95335 71.607639 273.53727 71.40889 271.83253 71.17576 268.71174 70.77566 265.5909 70.40223 262.4701 70.05547 259.3493 69.73539 256.2285 69.44198 253.10768 69.17525 249.98686 68.93518 246.86606 68.721797 243.74526 68.53508 240.62445 68.37504 238.58968 68.28808 237.50363 68.24283 234.38283 68.1388 231.26203 68.06078 229.36595 68.02918"/>
<path transform="matrix(2.7777777,0,0,-2.7777777,0,1999.9999)" stroke-width="1.5" stroke-linecap="butt" stroke-linejoin="round" fill="none" stroke="#96acd2" d="M214.43372 68.09139 212.53717 68.1388 209.41637 68.24283 208.33032 68.28808 206.29557 68.37504 203.17475 68.53508 200.05394 68.721797 196.93314 68.93518 193.81232 69.17525 190.69152 69.44198 187.57071 69.73539 184.4499 70.05547 181.32909 70.40223 178.20829 70.77566 175.08748 71.17576 173.38274 71.40889 171.96666 71.607639 168.84586 72.07302 165.72505 72.56578 162.60425 73.085918 159.48343 73.63342 156.36263 74.208309 154.69725 74.52969 153.24182 74.81816 150.12102 75.46481 147.0002 76.13959 143.8794 76.84247 140.75859 77.57347 140.44188 77.650508 137.63777 78.35153 134.51697 79.16063 131.39617 79.99863 128.61449 80.77132 128.27536 80.86821 125.15455 81.78959 122.03374 82.74069 118.912929 83.72152 118.38606 83.89212 115.79212 84.75677 112.67131 85.82764 109.55051 86.92909 109.3194 87.01293 106.429698 88.09292 103.30889 89.2908 101.169139 90.133739 100.18808 90.53229 97.067279 91.83263 93.946468 93.165477 93.74287 93.25455 90.82566 94.572 87.70485 96.01495 86.943088 96.37535 84.58404 97.52866 81.463237 99.08907 80.66675 99.49616 78.34242 100.72511 75.22162 102.41107 74.84842 102.61697 72.10081 104.187038 69.44239 105.73778 68.98 106.017498"/>
<path transform="matrix(2.7777777,0,0,-2.7777777,0,1999.9999)" stroke-width="1.5" stroke-linecap="butt" stroke-linejoin="round" fill="none" stroke="#96acd2" d="M68.98 277.1025 69.44239 277.38224 72.10081 278.93296 74.84842 280.50303 75.22162 280.70893 78.34242 282.3949 80.66675 283.62385 81.463237 284.03096 84.58404 285.59135 86.943088 286.74467 87.70485 287.10505 90.82566 288.548 93.74287 289.86546 93.946468 289.95454 97.067279 291.28739 100.18808 292.5877 101.169139 292.98628 103.30889 293.8292 106.429698 295.02708 109.3194 296.1071 109.55051 296.19093 112.67131 297.29237 115.79212 298.36323 118.38606 299.22789 118.912929 299.39848 122.03374 300.3793 125.15455 301.3304 128.27536 302.2518 128.61449 302.3487 131.39617 303.12138 134.51697 303.95939 137.63777 304.76847 140.44188 305.46949 140.75859 305.54655 143.8794 306.27754 147.0002 306.9804 150.12102 307.65519 153.24182 308.30186 154.69725 308.5903 156.36263 308.91169 159.48343 309.48658 162.60425 310.0341 165.72505 310.55424 168.84586 311.04698 171.96666 311.51237 173.38274 311.71113 175.08748 311.94425 178.20829 312.34434 181.32909 312.71778 184.4499 313.0645 187.57071 313.3846 190.69152 313.678 193.81232 313.94477 196.93314 314.1848 200.05394 314.3982 203.17475 314.58494 206.29557 314.74497 208.33032 314.8319 209.41637 314.87718 212.53717 314.9812 215.65798 315.0592 217.55405 315.09083"/>
<path transform="matrix(2.7777777,0,0,-2.7777777,0,1999.9999)" stroke-width="1.5" stroke-linecap="butt" stroke-linejoin="round" fill="none" stroke="#96acd2" d="M232.4863 315.02864 234.38283 314.9812 237.50363 314.87718 238.58968 314.8319 240.62445 314.74497 243.74526 314.58494 246.86606 314.3982 249.98686 314.1848 253.10768 313.94477 256.2285 313.678 259.3493 313.3846 262.4701 313.0645 265.5909 312.71778 268.71174 312.34434 271.83253 311.94425 273.53727 311.71113 274.95335 311.51237 278.07414 311.04698 281.19496 310.55424 284.31578 310.0341 287.43656 309.48658 290.55738 308.91169 292.22276 308.5903 293.6782 308.30186 296.79899 307.65519 299.9198 306.9804 303.04063 306.27754 306.1614 305.54655 306.47813 305.46949 309.28224 304.76847 312.403 303.95939 315.52384 303.12138 318.3055 302.3487 318.64466 302.2518 321.76545 301.3304 324.88627 300.3793 328.00709 299.39848 328.53395 299.22789 331.12788 298.36323 334.2487 297.29237 337.3695 296.19093 337.60063 296.1071 340.4903 295.02708 343.6111 293.8292 345.75086 292.98628 346.73194 292.5877 349.85273 291.28739 352.97355 289.95454 353.17713 289.86546 356.09434 288.548 359.21516 287.10505 359.9769 286.74467 362.33598 285.59135 365.45677 284.03096 366.25328 283.62385 368.57759 282.3949 371.6984 280.70893 372.0716 280.50303 374.81919 278.93296 377.4776 277.38224 377.94 277.1025"/>
</g>
<g clip-path="url(#clip_50)">
<path transform="matrix(2.7777777,0,0,-2.7777777,0,1999.9999)" stroke-width="1.5" stroke-linecap="butt" stroke-linejoin="round" fill="none" stroke="#8c7dba" d="M377.94 80.16969 374.81919 78.75377 372.33686 77.650508 371.6984 77.37441 368.57759 76.052989 365.45677 74.75968 364.88948 74.52969 362.33598 73.52173 359.21516 72.31721 356.80705 71.40889 356.09434 71.14696 352.97355 70.026668 349.85273 68.933048 347.9662 68.28808 346.73194 67.876659 343.6111 66.86239 340.4903 65.87414 338.19779 65.167278 337.3695 64.91811 334.2487 64.00471 331.12788 63.116674 328.00709 62.25401 327.2335 62.046468 324.88627 61.431715 321.76545 60.63913 318.64466 59.87131 315.52384 59.12826 314.64356 58.925657 312.403 58.421976 309.28224 57.744588 306.1614 57.091398 303.04063 56.462396 301.01914 56.070638"/>
<path transform="matrix(2.7777777,0,0,-2.7777777,0,1999.9999)" stroke-width="1.5" stroke-linecap="butt" stroke-linejoin="round" fill="none" stroke="#8c7dba" d="M286.31977 53.559354 284.31578 53.255716 281.19496 52.806509 280.29685 52.68404 278.07414 52.38768 274.95335 51.99469 271.83253 51.624818 268.71174 51.278059 265.5909 50.95442 262.4701 50.653898 259.3493 50.37649 256.2285 50.122205 253.10768 49.891035 249.98686 49.68298 247.96614 49.563234 246.86606 49.49946 243.74526 49.341157 240.62445 49.20547 237.50363 49.092397 234.38283 49.001939 231.26203 48.934099 228.1412 48.888868 225.0204 48.866254H221.8996L218.7788 48.888868 215.65798 48.934099 212.53717 49.001939 209.41637 49.092397 206.29557 49.20547 203.17475 49.341157 200.05394 49.49946 198.95386 49.563234 196.93314 49.68298 193.81232 49.891035 190.69152 50.122205 187.57071 50.37649 184.4499 50.653898 181.32909 50.95442 178.20829 51.278059 175.08748 51.624818 171.96666 51.99469 168.84586 52.38768 166.62316 52.68404 165.72505 52.806509 162.60425 53.255716 159.48343 53.728567 156.36263 54.22506 153.24182 54.745195 150.12102 55.288969 147.28368 55.804849 147.0002 55.85759 143.8794 56.462396 140.75859 57.091398 137.63777 57.744588 134.51697 58.421976 132.27645 58.925657 131.39617 59.12826 128.27536 59.87131 125.15455 60.63913 122.03374 61.431715 119.68651 62.046468 118.912929 62.25401 115.79212 63.116674 112.67131 64.00471 109.55051 64.91811 108.72223 65.167278 106.429698 65.87414 103.30889 66.86239 100.18808 67.876659 98.953807 68.28808 97.067279 68.933048 93.946468 70.026668 90.82566 71.14696 90.11295 71.40889 87.70485 72.31721 84.58404 73.52173 82.030529 74.52969 81.463237 74.75968 78.34242 76.052989 75.22162 77.37441 74.58315 77.650508 72.10081 78.75377 68.98 80.16969"/>
<path transform="matrix(2.7777777,0,0,-2.7777777,0,1999.9999)" stroke-width="1.5" stroke-linecap="butt" stroke-linejoin="round" fill="none" stroke="#8c7dba" d="M68.98 302.95033 72.10081 304.36625 74.58315 305.46949 75.22162 305.74559 78.34242 307.06703 81.463237 308.36033 82.030529 308.5903 84.58404 309.59828 87.70485 310.8028 90.11295 311.71113 90.82566 311.97306 93.946468 313.09333 97.067279 314.18696 98.953807 314.8319 100.18808 315.24336 103.30889 316.2576 106.429698 317.24586 108.72223 317.95274 109.55051 318.20188 112.67131 319.1153 115.79212 320.00334 118.912929 320.866 119.68651 321.07356 122.03374 321.6883 125.15455 322.48088 128.27536 323.2487 131.39617 323.99174 132.27645 324.19435 134.51697 324.69804 137.63777 325.37544 140.75859 326.0286 143.8794 326.6576 145.90088 327.04939"/>
<path transform="matrix(2.7777777,0,0,-2.7777777,0,1999.9999)" stroke-width="1.5" stroke-linecap="butt" stroke-linejoin="round" fill="none" stroke="#8c7dba" d="M160.60025 329.56065 162.60425 329.8643 165.72505 330.3135 166.62316 330.43598 168.84586 330.73234 171.96666 331.1253 175.08748 331.49519 178.20829 331.84196 181.32909 332.1656 184.4499 332.4661 187.57071 332.7435 190.69152 332.9978 193.81232 333.22898 196.93314 333.437 198.95386 333.55677 200.05394 333.62055 203.17475 333.77885 206.29557 333.91453 209.41637 334.0276 212.53717 334.11808 215.65798 334.1859 218.7788 334.23115 221.8996 334.25376H225.0204L228.1412 334.23115 231.26203 334.1859 234.38283 334.11808 237.50363 334.0276 240.62445 333.91453 243.74526 333.77885 246.86606 333.62055 247.96614 333.55677 249.98686 333.437 253.10768 333.22898 256.2285 332.9978 259.3493 332.7435 262.4701 332.4661 265.5909 332.1656 268.71174 331.84196 271.83253 331.49519 274.95335 331.1253 278.07414 330.73234 280.29685 330.43598 281.19496 330.3135 284.31578 329.8643 287.43656 329.39146 290.55738 328.89494 293.6782 328.37483 296.79899 327.83103 299.63633 327.31517 299.9198 327.26243 303.04063 326.6576 306.1614 326.0286 309.28224 325.37544 312.403 324.69804 314.64356 324.19435 315.52384 323.99174 318.64466 323.2487 321.76545 322.48088 324.88627 321.6883 327.2335 321.07356 328.00709 320.866 331.12788 320.00334 334.2487 319.1153 337.3695 318.20188 338.19779 317.95274 340.4903 317.24586 343.6111 316.2576 346.73194 315.24336 347.9662 314.8319 349.85273 314.18696 352.97355 313.09333 356.09434 311.97306 356.80705 311.71113 359.21516 310.8028 362.33598 309.59828 364.88948 308.5903 365.45677 308.36033 368.57759 307.06703 371.6984 305.74559 372.33686 305.46949 374.81919 304.36625 377.94 302.95033"/>
</g>
<g clip-path="url(#clip_51)">
<path transform="matrix(2.7777777,0,0,-2.7777777,0,1999.9999)" stroke-width="1.5" stroke-linecap="butt" stroke-linejoin="round" fill="none" stroke="#894da3" d="M154.39084 37.08 153.24182 37.251966 150.12102 37.740255 147.0002 38.24977 143.8794 38.78052 143.42754 38.860445"/>
<path transform="matrix(2.7777777,0,0,-2.7777777,0,1999.9999)" stroke-width="1.5" stroke-linecap="butt" stroke-linejoin="round" fill="none" stroke="#894da3" d="M128.76937 41.682134 128.27536 41.785055 125.15455 42.45689 122.03374 43.150407 121.28664 43.321619 118.912929 43.877164 115.79212 44.6297 112.67131 45.40437 109.55051 46.20117 108.631137 46.442426 106.429698 47.032667 103.30889 47.892019 100.18808 48.773984 97.46518 49.563234 97.067279 49.68113 93.946468 50.62893 90.82566 51.59985 87.70485 52.593885 87.42823 52.68404 84.58404 53.632104 81.463237 54.696016 78.34242 55.78357 78.28266 55.804849 75.22162 56.920114 72.10081 58.081346 69.87803 58.925657 68.98 59.27489"/>
<path transform="matrix(2.7777777,0,0,-2.7777777,0,1999.9999)" stroke-width="1.5" stroke-linecap="butt" stroke-linejoin="round" fill="none" stroke="#894da3" d="M377.94 59.27489 377.04197 58.925657 374.81919 58.081346 371.6984 56.920114 369.45686 56.103429"/>
<path transform="matrix(2.7777777,0,0,-2.7777777,0,1999.9999)" stroke-width="1.5" stroke-linecap="butt" stroke-linejoin="round" fill="none" stroke="#894da3" d="M355.1774 51.314577 352.97355 50.62893 349.85273 49.68113 349.45484 49.563234 346.73194 48.773984 343.6111 47.892019 340.4903 47.032667 338.28889 46.442426 337.3695 46.20117 334.2487 45.40437 331.12788 44.6297 328.00709 43.877164 325.63337 43.321619 324.88627 43.150407 321.76545 42.45689 318.64466 41.785055 315.52384 41.134885 312.403 40.506387 310.83149 40.20081 309.28224 39.905714 306.1614 39.3325 303.04063 38.78052 299.9198 38.24977 296.79899 37.740255 293.6782 37.251966 292.52915 37.08"/>
<path transform="matrix(2.7777777,0,0,-2.7777777,0,1999.9999)" stroke-width="1.5" stroke-linecap="butt" stroke-linejoin="round" fill="none" stroke="#894da3" d="M68.98 323.84513 69.87803 324.19435 72.10081 325.03868 75.22162 326.1999 77.46316 327.01658"/>
<path transform="matrix(2.7777777,0,0,-2.7777777,0,1999.9999)" stroke-width="1.5" stroke-linecap="butt" stroke-linejoin="round" fill="none" stroke="#894da3" d="M91.74261 331.80543 93.946468 332.49107 97.067279 333.43888 97.46518 333.55677 100.18808 334.346 103.30889 335.228 106.429698 336.08735 108.631137 336.67759 109.55051 336.91883 112.67131 337.71565 115.79212 338.4903 118.912929 339.24284 121.28664 339.79838 122.03374 339.9696 125.15455 340.66313 128.27536 341.33497 131.39617 341.9851 134.51697 342.61363 136.08852 342.9192 137.63777 343.2143 140.75859 343.7875 143.8794 344.33949 147.0002 344.87025 150.12102 345.37977 153.24182 345.86805 154.39084 346.04"/>
<path transform="matrix(2.7777777,0,0,-2.7777777,0,1999.9999)" stroke-width="1.5" stroke-linecap="butt" stroke-linejoin="round" fill="none" stroke="#894da3" d="M292.52915 346.04 293.6782 345.86805 296.79899 345.37977 299.9198 344.87025 303.04063 344.33949 303.49247 344.25956"/>
<path transform="matrix(2.7777777,0,0,-2.7777777,0,1999.9999)" stroke-width="1.5" stroke-linecap="butt" stroke-linejoin="round" fill="none" stroke="#894da3" d="M318.15065 341.43788 318.64466 341.33497 321.76545 340.66313 324.88627 339.9696 325.63337 339.79838 328.00709 339.24284 331.12788 338.4903 334.2487 337.71565 337.3695 336.91883 338.28889 336.67759 340.4903 336.08735 343.6111 335.228 346.73194 334.346 349.45484 333.55677 349.85273 333.43888 352.97355 332.49107 356.09434 331.52015 359.21516 330.52613 359.49177 330.43598 362.33598 329.48789 365.45677 328.42399 368.57759 327.33644 368.63734 327.31517 371.6984 326.1999 374.81919 325.03868 377.04197 324.19435 377.94 323.84513"/>
</g>
<path transform="matrix(2.7777777,0,0,-2.7777777,0,1999.9999)" stroke-width=".8" stroke-linecap="square" stroke-miterlimit="10" stroke-linejoin="miter" fill="none" stroke="#000000" d="M68.98 37.08V346.04"/>
<path transform="matrix(2.7777777,0,0,-2.7777777,0,1999.9999)" stroke-width=".8" stroke-linecap="square" stroke-miterlimit="10" stroke-linejoin="miter" fill="none" stroke="#000000" d="M377.94 37.08V346.04"/>
<path transform="matrix(2.7777777,0,0,-2.7777777,0,1999.9999)" stroke-width=".8" stroke-linecap="square" stroke-miterlimit="10" stroke-linejoin="miter" fill="none" stroke="#000000" d="M68.98 37.08H377.94"/>
<path transform="matrix(2.7777777,0,0,-2.7777777,0,1999.9999)" stroke-width=".8" stroke-linecap="square" stroke-miterlimit="10" stroke-linejoin="miter" fill="none" stroke="#000000" d="M68.98 346.04H377.94"/>
<g clip-path="url(#clip_52)">
<use data-text="8" xlink:href="#font_2_56" transform="matrix(21.149037,-6.82242,-6.82242,-21.149037,429.48646,1309.4906)" fill="#dce9f2"/>
</g>
<g clip-path="url(#clip_53)">
<use data-text="1" xlink:href="#font_2_49" transform="matrix(21.719399,4.70052,4.70052,-21.719399,410.5481,1727.5405)" fill="#b5cce3"/>
<use data-text="6" xlink:href="#font_2_54" transform="matrix(21.719399,4.70052,4.70052,-21.719399,424.36164,1730.53)" fill="#b5cce3"/>
</g>
<g clip-path="url(#clip_54)">
<use data-text="1" xlink:href="#font_2_49" transform="matrix(21.719399,4.70052,4.70052,-21.719399,800.64907,1214.214)" fill="#b5cce3"/>
<use data-text="6" xlink:href="#font_2_54" transform="matrix(21.719399,4.70052,4.70052,-21.719399,814.4626,1217.2035)" fill="#b5cce3"/>
</g>
<g clip-path="url(#clip_55)">
<use data-text="2" xlink:href="#font_2_50" transform="matrix(22.22208,.07918698,.07918698,-22.22208,602.2167,1817.2283)" fill="#96acd2"/>
<use data-text="4" xlink:href="#font_2_52" transform="matrix(22.22208,.07918698,.07918698,-22.22208,616.3499,1817.2787)" fill="#96acd2"/>
</g>
<g clip-path="url(#clip_56)">
<use data-text="2" xlink:href="#font_2_50" transform="matrix(22.22208,.07918698,.07918698,-22.22208,610.8856,1130.6881)" fill="#96acd2"/>
<use data-text="4" xlink:href="#font_2_52" transform="matrix(22.22208,.07918698,.07918698,-22.22208,625.01889,1130.7385)" fill="#96acd2"/>
</g>
<g clip-path="url(#clip_57)">
<use data-text="3" xlink:href="#font_2_51" transform="matrix(21.989792,-3.2056447,-3.2056447,-21.989792,802.6542,1856.0269)" fill="#8c7dba"/>
<use data-text="2" xlink:href="#font_2_50" transform="matrix(21.989792,-3.2056447,-3.2056447,-21.989792,816.6397,1853.988)" fill="#8c7dba"/>
</g>
<g clip-path="url(#clip_58)">
<use data-text="3" xlink:href="#font_2_51" transform="matrix(21.989792,-3.2056447,-3.2056447,-21.989792,412.5532,1095.9446)" fill="#8c7dba"/>
<use data-text="2" xlink:href="#font_2_50" transform="matrix(21.989792,-3.2056447,-3.2056447,-21.989792,426.5387,1093.9058)" fill="#8c7dba"/>
</g>
<g clip-path="url(#clip_59)">
<use data-text="4" xlink:href="#font_2_52" transform="matrix(21.927086,3.6097124,3.6097124,-21.927086,363.06819,1892.0712)" fill="#894da3"/>
<use data-text="0" xlink:href="#font_2_48" transform="matrix(21.927086,3.6097124,3.6097124,-21.927086,377.0138,1894.367)" fill="#894da3"/>
</g>
<g clip-path="url(#clip_60)">
<use data-text="4" xlink:href="#font_2_52" transform="matrix(21.358128,-6.1365716,-6.1365716,-21.358128,994.5795,1860.8109)" fill="#894da3"/>
<use data-text="0" xlink:href="#font_2_48" transform="matrix(21.358128,-6.1365716,-6.1365716,-21.358128,1008.16329,1856.9081)" fill="#894da3"/>
</g>
<g clip-path="url(#clip_61)">
<use data-text="4" xlink:href="#font_2_52" transform="matrix(21.358128,-6.1365716,-6.1365716,-21.358128,223.04648,1094.5449)" fill="#894da3"/>
<use data-text="0" xlink:href="#font_2_48" transform="matrix(21.358128,-6.1365716,-6.1365716,-21.358128,236.63025,1090.6421)" fill="#894da3"/>
</g>
<g clip-path="url(#clip_62)">
<use data-text="4" xlink:href="#font_2_52" transform="matrix(21.927086,3.6097124,3.6097124,-21.927086,848.4653,1051.1868)" fill="#894da3"/>
<use data-text="0" xlink:href="#font_2_48" transform="matrix(21.927086,3.6097124,3.6097124,-21.927086,862.4109,1053.4826)" fill="#894da3"/>
</g>
<g clip-path="url(#clip_63)">
<use data-text="4" xlink:href="#font_2_52" transform="matrix(21.415095,5.9347159,5.9347159,-21.415095,193.67917,1893.2793)" fill="#821580"/>
<use data-text="8" xlink:href="#font_2_56" transform="matrix(21.415095,5.9347159,5.9347159,-21.415095,207.29917,1897.0538)" fill="#821580"/>
</g>
<g clip-path="url(#clip_64)">
<use data-text="4" xlink:href="#font_2_52" transform="matrix(21.415095,-5.9347159,-5.9347159,-21.415095,1020.49447,1900.8368)" fill="#821580"/>
<use data-text="8" xlink:href="#font_2_56" transform="matrix(21.415095,-5.9347159,-5.9347159,-21.415095,1034.1145,1897.0623)" fill="#821580"/>
</g>
<g clip-path="url(#clip_65)">
<use data-text="4" xlink:href="#font_2_52" transform="matrix(21.415095,-5.9347159,-5.9347159,-21.415095,196.94789,1054.2935)" fill="#821580"/>
<use data-text="8" xlink:href="#font_2_56" transform="matrix(21.415095,-5.9347159,-5.9347159,-21.415095,210.56789,1050.5189)" fill="#821580"/>
</g>
<g clip-path="url(#clip_66)">
<use data-text="4" xlink:href="#font_2_52" transform="matrix(21.415095,5.9347159,5.9347159,-21.415095,1017.2257,1046.736)" fill="#821580"/>
<use data-text="8" xlink:href="#font_2_56" transform="matrix(21.415095,5.9347159,5.9347159,-21.415095,1030.8457,1050.5105)" fill="#821580"/>
</g>
</svg>
