<svg xmlns="http://www.w3.org/2000/svg" xmlns:xlink="http://www.w3.org/1999/xlink" version="1.1" width="1999.9999pt" height="700pt" viewBox="0 0 1999.9999 700">
<defs>
<clipPath id="clip_1">
<path transform="matrix(2.7777777,0,0,-2.7777777,0,700)" d="M51.532686 54.56H351.0403V217.44H51.532686Z"/>
</clipPath>
<g id="font_2_48">
<path transform="matrix(.001,0,0,.001,0,0)" d="M318 664C267 664 229 639 203 589 177 539 165 464 165 364 165 264 177 189 203 139 229 89 267 64 318 64 369 64 407 89 433 139 458 189 471 264 471 364 471 464 458 539 433 589 407 639 369 664 318 664ZM318 742C399 742 461 709 505 645 548 580 570 486 570 364 570 241 548 147 505 83 461 19 399-13 317-13 235-13 173 19 130 83 87 147 66 241 66 364 66 486 87 580 130 645 173 709 236 742 318 742Z"/>
</g>
<clipPath id="clip_3">
<path transform="matrix(2.7777777,0,0,-2.7777777,0,700)" d="M51.532686 54.56H351.0403V217.44H51.532686Z"/>
</clipPath>
<g id="font_2_50">
<path transform="matrix(.001,0,0,.001,0,0)" d="M192 83H536V0H73V83C110 121 161 173 226 239 290 304 331 346 348 365 380 400 402 430 414 455 426 479 433 504 433 528 433 566 419 598 392 622 365 646 330 659 286 659 255 659 222 653 188 643 154 632 117 616 78 594V694C118 710 155 722 189 730 223 738 255 742 284 742 359 742 419 723 464 685 509 647 532 597 532 534 532 504 526 475 515 449 504 422 484 390 454 354 446 344 420 317 376 272 332 227 271 164 192 83Z"/>
</g>
<g id="font_2_53">
<path transform="matrix(.001,0,0,.001,0,0)" d="M108 729H495V646H198V467C212 472 227 476 241 478 255 480 270 482 284 482 365 482 429 459 477 415 525 370 549 310 549 234 549 155 524 94 475 51 426 8 357-13 269-13 238-13 207-10 175-6 143-1 111 6 77 17V116C106 100 136 88 168 80 199 72 232 69 267 69 323 69 368 83 401 113 433 143 450 183 450 234 450 284 433 324 401 354 368 384 323 399 267 399 241 399 214 396 188 390 162 384 135 375 108 363V729Z"/>
</g>
<clipPath id="clip_4">
<path transform="matrix(2.7777777,0,0,-2.7777777,0,700)" d="M51.532686 54.56H351.0403V217.44H51.532686Z"/>
</clipPath>
<clipPath id="clip_5">
<path transform="matrix(2.7777777,0,0,-2.7777777,0,700)" d="M51.532686 54.56H351.0403V217.44H51.532686Z"/>
</clipPath>
<g id="font_2_55">
<path transform="matrix(.001,0,0,.001,0,0)" d="M82 729H551V687L286 0H183L432 646H82V729Z"/>
</g>
<clipPath id="clip_6">
<path transform="matrix(2.7777777,0,0,-2.7777777,0,700)" d="M51.532686 54.56H351.0403V217.44H51.532686Z"/>
</clipPath>
<g id="font_2_49">
<path transform="matrix(.001,0,0,.001,0,0)" d="M124 83H285V639L110 604V694L284 729H383V83H544V0H124V83Z"/>
</g>
<clipPath id="clip_7">
<path transform="matrix(2.7777777,0,0,-2.7777777,0,700)" d="M51.532686 54.56H351.0403V217.44H51.532686Z"/>
</clipPath>
<clipPath id="clip_8">
<path transform="matrix(2.7777777,0,0,-2.7777777,0,700)" d="M51.532686 54.56H351.0403V217.44H51.532686Z"/>
</clipPath>
<clipPath id="clip_9">
<path transform="matrix(2.7777777,0,0,-2.7777777,0,700)" d="M51.532686 54.56H351.0403V217.44H51.532686Z"/>
</clipPath>
<clipPath id="clip_10">
<path transform="matrix(2.7777777,0,0,-2.7777777,0,700)" d="M51.532686 54.56H351.0403V217.44H51.532686Z"/>
</clipPath>
<g id="font_2_73">
<path transform="matrix(.001,0,0,.001,0,0)" d="M98 729H197V0H98V729Z"/>
</g>
<g id="font_2_116">
<path transform="matrix(.001,0,0,.001,0,0)" d="M183 702V547H368V477H183V180C183 135 189 106 201 94 213 81 238 75 276 75H368V0H276C206 0 158 13 132 39 106 65 93 112 93 180V477H27V547H93V702H183Z"/>
</g>
<g id="font_2_101">
<path transform="matrix(.001,0,0,.001,0,0)" d="M562 296V252H149C153 190 171 142 205 110 238 78 284 62 344 62 378 62 412 66 444 74 476 82 509 95 541 113V28C509 14 476 3 442-3 408-9 373-13 339-13 251-13 182 12 131 62 80 112 55 181 55 268 55 357 79 428 127 481 175 533 241 560 323 560 397 560 455 536 498 489 540 441 562 377 562 296ZM472 322C471 371 457 410 431 440 404 469 368 484 324 484 274 484 234 469 204 441 174 413 156 373 152 322H472Z"/>
</g>
<g id="font_2_114">
<path transform="matrix(.001,0,0,.001,0,0)" d="M411 463C401 469 390 473 378 476 366 478 353 480 339 480 288 480 249 463 222 430 194 397 181 350 181 288V0H91V547H181V462C199 495 224 520 254 536 284 552 321 560 365 560 371 560 378 559 386 559 393 558 401 557 411 555V463Z"/>
</g>
<g id="font_2_97">
<path transform="matrix(.001,0,0,.001,0,0)" d="M343 275C270 275 220 266 192 250 164 233 150 205 150 165 150 133 160 107 181 89 202 70 231 61 267 61 317 61 357 78 387 114 417 149 432 196 432 255V275H343ZM522 312V0H432V83C411 49 385 25 355 10 325-5 287-13 243-13 187-13 142 2 109 33 76 64 60 106 60 159 60 220 80 266 122 298 163 329 224 345 306 345H432V354C432 395 418 427 391 450 364 472 326 484 277 484 245 484 215 480 185 472 155 464 127 453 100 439V522C132 534 164 544 195 550 226 556 256 560 286 560 365 560 424 539 463 498 502 457 522 395 522 312Z"/>
</g>
<g id="font_2_105">
<path transform="matrix(.001,0,0,.001,0,0)" d="M94 547H184V0H94V547ZM94 760H184V646H94V760Z"/>
</g>
<g id="font_2_111">
<path transform="matrix(.001,0,0,.001,0,0)" d="M306 484C258 484 220 465 192 427 164 389 150 338 150 273 150 207 163 156 191 118 219 80 257 62 306 62 354 62 392 80 420 118 448 156 462 207 462 273 462 337 448 389 420 427 392 465 354 484 306 484ZM306 560C384 560 445 534 490 484 534 433 557 363 557 273 557 183 534 113 490 63 445 12 384-13 306-13 227-13 165 12 121 63 77 113 55 183 55 273 55 363 77 433 121 484 165 534 227 560 306 560Z"/>
</g>
<g id="font_2_110">
<path transform="matrix(.001,0,0,.001,0,0)" d="M549 330V0H459V327C459 379 448 417 428 443 408 469 378 482 338 482 289 482 251 466 223 435 195 404 181 362 181 309V0H91V547H181V462C202 494 227 519 257 535 286 551 320 560 358 560 420 560 468 540 500 501 532 462 549 405 549 330Z"/>
</g>
<clipPath id="clip_11">
<path transform="matrix(2.7777777,0,0,-2.7777777,0,700)" d="M51.532686 54.56H351.0403V217.44H51.532686Z"/>
</clipPath>
<clipPath id="clip_12">
<path transform="matrix(2.7777777,0,0,-2.7777777,0,700)" d="M51.532686 54.56H351.0403V217.44H51.532686Z"/>
</clipPath>
<g id="font_13_102">
<path transform="matrix(.001,0,0,.001,0,0)" d="M478 760 464 685H378C345 685 321 678 307 665 292 652 281 629 274 595L264 547H412L399 477H251L158 0H68L161 477H75L88 547H174L181 585C193 649 215 695 246 721 277 747 326 760 393 760H478Z"/>
</g>
<g id="font_2_40">
<path transform="matrix(.001,0,0,.001,0,0)" d="M310 759C266 683 234 609 213 536 191 463 181 389 181 314 181 238 191 164 213 91 234 17 266-56 310-131H232C183-54 146 20 122 94 98 168 86 241 86 314 86 386 98 459 122 533 146 607 182 682 232 759H310Z"/>
</g>
<g id="font_13_120">
<path transform="matrix(.001,0,0,.001,0,0)" d="M600 547 349 279 503 0H400L284 217 83 0H-25L243 288 100 547H203L308 349 491 547H600Z"/>
</g>
<g id="font_2_41">
<path transform="matrix(.001,0,0,.001,0,0)" d="M80 759H158C206 682 243 607 267 533 291 459 304 386 304 314 304 241 291 168 267 94 243 20 206-54 158-131H80C123-56 155 17 177 91 198 164 209 238 209 314 209 389 198 463 177 536 155 609 123 683 80 759Z"/>
</g>
<clipPath id="clip_14">
<path transform="matrix(2.7777777,0,0,-2.7777777,0,700)" d="M51.532686 54.56H351.0403V217.44H51.532686Z"/>
</clipPath>
<clipPath id="clip_15">
<path transform="matrix(2.7777777,0,0,-2.7777777,0,700)" d="M51.532686 54.56H351.0403V217.44H51.532686Z"/>
</clipPath>
<clipPath id="clip_16">
<path transform="matrix(2.7777777,0,0,-2.7777777,0,700)" d="M409.69239 54.56H709.2V217.44H409.69239Z"/>
</clipPath>
<clipPath id="clip_17">
<path transform="matrix(2.7777777,0,0,-2.7777777,0,700)" d="M409.69239 54.56H709.2V217.44H409.69239Z"/>
</clipPath>
<clipPath id="clip_18">
<path transform="matrix(2.7777777,0,0,-2.7777777,0,700)" d="M409.69239 54.56H709.2V217.44H409.69239Z"/>
</clipPath>
<clipPath id="clip_19">
<path transform="matrix(2.7777777,0,0,-2.7777777,0,700)" d="M409.69239 54.56H709.2V217.44H409.69239Z"/>
</clipPath>
<clipPath id="clip_20">
<path transform="matrix(2.7777777,0,0,-2.7777777,0,700)" d="M409.69239 54.56H709.2V217.44H409.69239Z"/>
</clipPath>
<clipPath id="clip_21">
<path transform="matrix(2.7777777,0,0,-2.7777777,0,700)" d="M409.69239 54.56H709.2V217.44H409.69239Z"/>
</clipPath>
<clipPath id="clip_22">
<path transform="matrix(2.7777777,0,0,-2.7777777,0,700)" d="M409.69239 54.56H709.2V217.44H409.69239Z"/>
</clipPath>
<clipPath id="clip_23">
<path transform="matrix(2.7777777,0,0,-2.7777777,0,700)" d="M409.69239 54.56H709.2V217.44H409.69239Z"/>
</clipPath>
<clipPath id="clip_24">
<path transform="matrix(2.7777777,0,0,-2.7777777,0,700)" d="M409.69239 54.56H709.2V217.44H409.69239Z"/>
</clipPath>
<clipPath id="clip_25">
<path transform="matrix(2.7777777,0,0,-2.7777777,0,700)" d="M409.69239 54.56H709.2V217.44H409.69239Z"/>
</clipPath>
<clipPath id="clip_26">
<path transform="matrix(.019444446,0,0,-.019444446,1087.5353,536.52206)" d="M-1021-463H1794V1233H-1021Z"/>
</clipPath>
<clipPath id="clip_27">
<path transform="matrix(2.7777777,0,0,-2.7777777,0,700)" d="M409.69239 54.56H709.2V217.44H409.69239Z"/>
</clipPath>
<clipPath id="clip_28">
<path transform="matrix(0,-.027777777,-.027777777,-0,1031.4806,376.3889)" d="M-1021-463H1794V1233H-1021Z"/>
</clipPath>
<clipPath id="clip_29">
<path transform="matrix(0,-.027777777,-.027777777,-0,1031.4806,362.5)" d="M-1021-463H1794V1233H-1021Z"/>
</clipPath>
<clipPath id="clip_30">
<path transform="matrix(0,-.027777777,-.027777777,-0,1031.4806,296.0259)" d="M-1021-463H1794V1233H-1021Z"/>
</clipPath>
<clipPath id="clip_31">
<path transform="matrix(2.7777777,0,0,-2.7777777,0,700)" d="M409.69239 54.56H709.2V217.44H409.69239Z"/>
</clipPath>
<clipPath id="clip_32">
<path transform="matrix(2.7777777,0,0,-2.7777777,0,700)" d="M409.69239 54.56H709.2V217.44H409.69239Z"/>
</clipPath>
<g id="font_2_82">
<path transform="matrix(.001,0,0,.001,0,0)" d="M444 342C465 334 486 319 506 296 526 272 546 240 566 199L666 0H560L467 187C443 235 419 268 397 284 374 300 343 308 304 308H197V0H98V729H321C404 729 466 711 507 677 548 642 569 589 569 519 569 473 558 434 537 404 515 374 484 353 444 342ZM197 648V389H321C368 389 404 400 428 422 452 444 465 476 465 519 465 561 452 593 428 615 404 637 368 648 321 648H197Z"/>
</g>
<g id="font_2_103">
<path transform="matrix(.001,0,0,.001,0,0)" d="M454 280C454 344 440 395 414 431 387 467 349 485 301 485 253 485 215 467 188 431 161 395 148 344 148 280 148 215 161 165 188 129 215 93 253 75 301 75 349 75 387 93 414 129 440 165 454 215 454 280ZM544 68C544-24 523-93 482-139 440-184 377-207 292-207 260-207 231-204 203-200 175-195 147-188 121-178V-91C147-105 173-115 199-122 225-129 251-133 278-133 336-133 380-117 410-87 439-56 454-10 454 52V96C435 64 411 40 382 24 353 8 319 0 279 0 211 0 157 25 116 76 75 127 55 195 55 280 55 364 75 432 116 483 157 534 211 560 279 560 319 560 353 552 382 536 411 520 435 496 454 464V547H544V68Z"/>
</g>
<g id="font_2_117">
<path transform="matrix(.001,0,0,.001,0,0)" d="M85 216V547H175V219C175 167 185 129 205 103 225 77 255 64 296 64 344 64 383 79 411 110 439 141 453 183 453 237V547H543V0H453V84C431 50 405 26 377 10 348-5 315-13 277-13 214-13 166 6 134 45 101 83 85 140 85 216ZM311 560V560Z"/>
</g>
<g id="font_2_108">
<path transform="matrix(.001,0,0,.001,0,0)" d="M94 760H184V0H94V760Z"/>
</g>
<g id="font_2_122">
<path transform="matrix(.001,0,0,.001,0,0)" d="M55 547H482V465L144 72H482V0H43V82L381 475H55V547Z"/>
</g>
<g id="font_2_100">
<path transform="matrix(.001,0,0,.001,0,0)" d="M454 464V760H544V0H454V82C435 49 411 25 382 10 353-5 319-13 279-13 213-13 159 13 117 65 75 117 55 187 55 273 55 359 75 428 117 481 159 533 213 560 279 560 319 560 353 552 382 536 411 520 435 496 454 464ZM148 273C148 207 161 155 188 117 215 79 252 61 300 61 348 61 385 79 413 117 440 155 454 207 454 273 454 339 440 390 413 428 385 466 348 485 300 485 252 485 215 466 188 428 161 390 148 339 148 273Z"/>
</g>
<g id="font_2_32">
</g>
<g id="font_2_98">
<path transform="matrix(.001,0,0,.001,0,0)" d="M487 273C487 339 473 390 446 428 418 466 381 485 334 485 286 485 249 466 222 428 194 390 181 339 181 273 181 207 194 155 222 117 249 79 286 61 334 61 381 61 418 79 446 117 473 155 487 207 487 273ZM181 464C199 496 223 520 252 536 281 552 316 560 356 560 422 560 476 533 518 481 559 428 580 359 580 273 580 187 559 117 518 65 476 13 422-13 356-13 316-13 281-5 252 10 223 25 199 49 181 82V0H91V760H181V464Z"/>
</g>
<g id="font_2_121">
<path transform="matrix(.001,0,0,.001,0,0)" d="M322-50C296-114 271-157 247-177 223-197 191-207 151-207H79V-132H132C156-132 175-126 189-114 203-102 218-75 235-31L251 9 30 547H125L296 119 467 547H562L322-50Z"/>
</g>
<g id="font_2_115">
<path transform="matrix(.001,0,0,.001,0,0)" d="M443 531V446C417 458 391 468 364 475 336 481 308 485 279 485 234 485 200 478 178 464 156 450 145 430 145 403 145 382 153 366 169 354 185 342 217 330 265 320L296 313C360 299 405 279 432 255 458 230 472 195 472 151 472 100 452 60 412 31 372 1 316-13 246-13 216-13 186-10 154-5 122 0 89 8 54 20V113C87 95 120 82 152 74 184 65 216 61 248 61 290 61 323 68 346 82 368 96 380 117 380 144 380 168 371 187 355 200 339 213 303 226 247 238L216 245C160 257 119 275 95 299 70 323 58 356 58 399 58 450 76 490 112 518 148 546 200 560 268 560 301 560 332 557 362 552 391 547 418 540 443 531Z"/>
</g>
<g id="font_2_99">
<path transform="matrix(.001,0,0,.001,0,0)" d="M488 526V442C462 456 437 466 411 473 385 480 360 484 334 484 276 484 230 465 198 428 166 391 150 339 150 273 150 206 166 154 198 117 230 80 276 62 334 62 360 62 385 65 411 72 437 79 462 90 488 104V21C462 9 436 0 410-5 383-10 354-13 324-13 242-13 176 12 128 64 79 115 55 185 55 273 55 362 79 432 128 483 177 534 244 560 330 560 358 560 385 557 411 551 437 545 463 537 488 526Z"/>
</g>
<g id="font_2_46">
<path transform="matrix(.001,0,0,.001,0,0)" d="M107 124H210V0H107V124Z"/>
</g>
<g id="font_2_61">
<path transform="matrix(.001,0,0,.001,0,0)" d="M106 454H732V372H106V454ZM106 255H732V172H106V255Z"/>
</g>
<g id="font_2_51">
<path transform="matrix(.001,0,0,.001,0,0)" d="M406 393C453 383 490 362 516 330 542 298 556 258 556 212 556 140 531 84 482 45 432 6 362-13 271-13 240-13 208-10 176-4 144 1 110 10 76 22V117C103 101 133 89 166 81 198 73 232 69 268 69 330 69 377 81 409 105 441 129 458 165 458 212 458 254 443 288 413 312 383 336 341 349 287 349H202V430H291C339 430 376 439 402 459 428 478 441 506 441 543 441 580 427 609 401 629 374 649 336 659 287 659 260 659 231 656 200 650 169 644 135 635 98 623V711C135 721 170 729 203 734 235 739 266 742 296 742 370 742 429 725 473 691 517 657 539 611 539 553 539 513 527 479 504 451 481 423 448 403 406 393Z"/>
</g>
<g id="font_2_109">
<path transform="matrix(.001,0,0,.001,0,0)" d="M520 442C542 482 569 511 600 531 631 550 668 560 711 560 767 560 811 540 842 500 873 460 889 403 889 330V0H799V327C799 379 789 418 771 444 752 469 724 482 686 482 639 482 602 466 575 435 548 404 535 362 535 309V0H445V327C445 379 435 418 417 444 398 469 369 482 331 482 285 482 248 466 221 435 194 404 181 362 181 309V0H91V547H181V462C201 495 226 520 255 536 283 552 317 560 357 560 397 560 430 550 458 530 486 510 506 480 520 442Z"/>
</g>
<clipPath id="clip_33">
<path transform="matrix(.03333333,0,0,-.03333333,1437.9883,39.347204)" d="M-1021-463H1794V1233H-1021Z"/>
</clipPath>
<g id="font_2_71">
<path transform="matrix(.001,0,0,.001,0,0)" d="M595 104V300H434V381H693V68C655 40 613 20 567 7 521-6 472-13 420-13 306-13 216 20 152 86 88 152 56 245 56 364 56 482 88 575 152 642 216 708 306 742 420 742 467 742 512 736 555 724 598 712 638 695 674 673V568C637 598 598 621 557 637 516 653 473 661 428 661 338 661 271 636 227 586 182 536 160 462 160 364 160 265 182 191 227 141 271 91 338 67 428 67 462 67 493 70 521 76 549 82 573 91 595 104Z"/>
</g>
<g id="font_2_68">
<path transform="matrix(.001,0,0,.001,0,0)" d="M197 648V81H316C416 81 490 103 537 149 583 195 607 267 607 365 607 463 583 534 537 580 490 625 416 648 316 648H197ZM98 729H301C442 729 546 699 612 641 678 582 711 490 711 365 711 239 677 147 611 88 545 29 441 0 301 0H98V729Z"/>
</g>
<g id="font_2_83">
<path transform="matrix(.001,0,0,.001,0,0)" d="M535 705V609C497 627 462 640 429 649 395 657 363 662 333 662 279 662 237 651 208 631 179 610 165 580 165 542 165 510 174 485 194 469 213 452 250 439 304 429L364 417C437 403 491 378 526 343 561 307 579 260 579 201 579 130 555 77 508 41 460 5 391-13 300-13 265-13 228-9 189-2 150 5 110 16 69 32V134C109 111 148 94 186 83 224 71 262 66 300 66 356 66 399 77 430 99 460 121 476 152 476 194 476 230 465 258 443 278 421 298 385 313 335 323L275 335C201 349 148 372 115 404 82 435 66 478 66 534 66 598 88 649 134 686 179 723 242 742 322 742 356 742 390 739 426 733 461 727 497 717 535 705Z"/>
</g>
<g id="font_2_112">
<path transform="matrix(.001,0,0,.001,0,0)" d="M181 82V-207H91V547H181V464C199 496 223 520 252 536 281 552 316 560 356 560 422 560 476 533 518 481 559 428 580 359 580 273 580 187 559 117 518 65 476 13 422-13 356-13 316-13 281-5 252 10 223 25 199 49 181 82ZM487 273C487 339 473 390 446 428 418 466 381 485 334 485 286 485 249 466 222 428 194 390 181 339 181 273 181 207 194 155 222 117 249 79 286 61 334 61 381 61 418 79 446 117 473 155 487 207 487 273Z"/>
</g>
</defs>
<path transform="matrix(2.7777777,0,0,-2.7777777,0,700)" d="M0 0H720V252H0Z" fill="#ffffff"/>
<path transform="matrix(2.7777777,0,0,-2.7777777,0,700)" d="M51.532686 54.56H351.0403V217.44H51.532686Z" fill="#ffffff"/>
<g clip-path="url(#clip_1)">
<path transform="matrix(2.7777777,0,0,-2.7777777,0,700)" stroke-width=".8" stroke-linecap="butt" stroke-dasharray=".8,1.32" stroke-linejoin="round" fill="none" stroke="#b0b0b0" d="M65.14667 54.56V217.44"/>
</g>
<path transform="matrix(2.7777777,0,0,-2.7777777,0,700)" d="M65.14667 54.56V51.06"/>
<path transform="matrix(2.7777777,0,0,-2.7777777,0,700)" stroke-width=".8" stroke-linecap="butt" stroke-linejoin="round" fill="none" stroke="#000000" d="M65.14667 54.56V51.06"/>
<use data-text="0" xlink:href="#font_2_48" transform="matrix(27.777777,0,0,-27.777777,172.1305,588.9826)"/>
<g clip-path="url(#clip_3)">
<path transform="matrix(2.7777777,0,0,-2.7777777,0,700)" stroke-width=".8" stroke-linecap="butt" stroke-dasharray=".8,1.32" stroke-linejoin="round" fill="none" stroke="#b0b0b0" d="M99.181629 54.56V217.44"/>
</g>
<path transform="matrix(2.7777777,0,0,-2.7777777,0,700)" d="M99.181629 54.56V51.06"/>
<path transform="matrix(2.7777777,0,0,-2.7777777,0,700)" stroke-width=".8" stroke-linecap="butt" stroke-linejoin="round" fill="none" stroke="#000000" d="M99.181629 54.56V51.06"/>
<use data-text="2" xlink:href="#font_2_50" transform="matrix(27.777777,0,0,-27.777777,257.83958,588.9826)"/>
<use data-text="5" xlink:href="#font_2_53" transform="matrix(27.777777,0,0,-27.777777,275.50624,588.9826)"/>
<g clip-path="url(#clip_4)">
<path transform="matrix(2.7777777,0,0,-2.7777777,0,700)" stroke-width=".8" stroke-linecap="butt" stroke-dasharray=".8,1.32" stroke-linejoin="round" fill="none" stroke="#b0b0b0" d="M133.21659 54.56V217.44"/>
</g>
<path transform="matrix(2.7777777,0,0,-2.7777777,0,700)" d="M133.21659 54.56V51.06"/>
<path transform="matrix(2.7777777,0,0,-2.7777777,0,700)" stroke-width=".8" stroke-linecap="butt" stroke-linejoin="round" fill="none" stroke="#000000" d="M133.21659 54.56V51.06"/>
<use data-text="5" xlink:href="#font_2_53" transform="matrix(27.777777,0,0,-27.777777,352.38114,588.9826)"/>
<use data-text="0" xlink:href="#font_2_48" transform="matrix(27.777777,0,0,-27.777777,370.0478,588.9826)"/>
<g clip-path="url(#clip_5)">
<path transform="matrix(2.7777777,0,0,-2.7777777,0,700)" stroke-width=".8" stroke-linecap="butt" stroke-dasharray=".8,1.32" stroke-linejoin="round" fill="none" stroke="#b0b0b0" d="M167.25154 54.56V217.44"/>
</g>
<path transform="matrix(2.7777777,0,0,-2.7777777,0,700)" d="M167.25154 54.56V51.06"/>
<path transform="matrix(2.7777777,0,0,-2.7777777,0,700)" stroke-width=".8" stroke-linecap="butt" stroke-linejoin="round" fill="none" stroke="#000000" d="M167.25154 54.56V51.06"/>
<use data-text="7" xlink:href="#font_2_55" transform="matrix(27.777777,0,0,-27.777777,446.92268,588.9826)"/>
<use data-text="5" xlink:href="#font_2_53" transform="matrix(27.777777,0,0,-27.777777,464.58934,588.9826)"/>
<g clip-path="url(#clip_6)">
<path transform="matrix(2.7777777,0,0,-2.7777777,0,700)" stroke-width=".8" stroke-linecap="butt" stroke-dasharray=".8,1.32" stroke-linejoin="round" fill="none" stroke="#b0b0b0" d="M201.2865 54.56V217.44"/>
</g>
<path transform="matrix(2.7777777,0,0,-2.7777777,0,700)" d="M201.2865 54.56V51.06"/>
<path transform="matrix(2.7777777,0,0,-2.7777777,0,700)" stroke-width=".8" stroke-linecap="butt" stroke-linejoin="round" fill="none" stroke="#000000" d="M201.2865 54.56V51.06"/>
<use data-text="1" xlink:href="#font_2_49" transform="matrix(27.777777,0,0,-27.777777,532.6318,588.9826)"/>
<use data-text="0" xlink:href="#font_2_48" transform="matrix(27.777777,0,0,-27.777777,550.29849,588.9826)"/>
<use data-text="0" xlink:href="#font_2_48" transform="matrix(27.777777,0,0,-27.777777,567.9651,588.9826)"/>
<g clip-path="url(#clip_7)">
<path transform="matrix(2.7777777,0,0,-2.7777777,0,700)" stroke-width=".8" stroke-linecap="butt" stroke-dasharray=".8,1.32" stroke-linejoin="round" fill="none" stroke="#b0b0b0" d="M235.32146 54.56V217.44"/>
</g>
<path transform="matrix(2.7777777,0,0,-2.7777777,0,700)" d="M235.32146 54.56V51.06"/>
<path transform="matrix(2.7777777,0,0,-2.7777777,0,700)" stroke-width=".8" stroke-linecap="butt" stroke-linejoin="round" fill="none" stroke="#000000" d="M235.32146 54.56V51.06"/>
<use data-text="1" xlink:href="#font_2_49" transform="matrix(27.777777,0,0,-27.777777,627.1733,588.9826)"/>
<use data-text="2" xlink:href="#font_2_50" transform="matrix(27.777777,0,0,-27.777777,644.83999,588.9826)"/>
<use data-text="5" xlink:href="#font_2_53" transform="matrix(27.777777,0,0,-27.777777,662.5066,588.9826)"/>
<g clip-path="url(#clip_8)">
<path transform="matrix(2.7777777,0,0,-2.7777777,0,700)" stroke-width=".8" stroke-linecap="butt" stroke-dasharray=".8,1.32" stroke-linejoin="round" fill="none" stroke="#b0b0b0" d="M269.3564 54.56V217.44"/>
</g>
<path transform="matrix(2.7777777,0,0,-2.7777777,0,700)" d="M269.3564 54.56V51.06"/>
<path transform="matrix(2.7777777,0,0,-2.7777777,0,700)" stroke-width=".8" stroke-linecap="butt" stroke-linejoin="round" fill="none" stroke="#000000" d="M269.3564 54.56V51.06"/>
<use data-text="1" xlink:href="#font_2_49" transform="matrix(27.777777,0,0,-27.777777,721.71487,588.9826)"/>
<use data-text="5" xlink:href="#font_2_53" transform="matrix(27.777777,0,0,-27.777777,739.38156,588.9826)"/>
<use data-text="0" xlink:href="#font_2_48" transform="matrix(27.777777,0,0,-27.777777,757.04818,588.9826)"/>
<g clip-path="url(#clip_9)">
<path transform="matrix(2.7777777,0,0,-2.7777777,0,700)" stroke-width=".8" stroke-linecap="butt" stroke-dasharray=".8,1.32" stroke-linejoin="round" fill="none" stroke="#b0b0b0" d="M303.3914 54.56V217.44"/>
</g>
<path transform="matrix(2.7777777,0,0,-2.7777777,0,700)" d="M303.3914 54.56V51.06"/>
<path transform="matrix(2.7777777,0,0,-2.7777777,0,700)" stroke-width=".8" stroke-linecap="butt" stroke-linejoin="round" fill="none" stroke="#000000" d="M303.3914 54.56V51.06"/>
<use data-text="1" xlink:href="#font_2_49" transform="matrix(27.777777,0,0,-27.777777,816.2564,588.9826)"/>
<use data-text="7" xlink:href="#font_2_55" transform="matrix(27.777777,0,0,-27.777777,833.9231,588.9826)"/>
<use data-text="5" xlink:href="#font_2_53" transform="matrix(27.777777,0,0,-27.777777,851.5897,588.9826)"/>
<g clip-path="url(#clip_10)">
<path transform="matrix(2.7777777,0,0,-2.7777777,0,700)" stroke-width=".8" stroke-linecap="butt" stroke-dasharray=".8,1.32" stroke-linejoin="round" fill="none" stroke="#b0b0b0" d="M337.42634 54.56V217.44"/>
</g>
<path transform="matrix(2.7777777,0,0,-2.7777777,0,700)" d="M337.42634 54.56V51.06"/>
<path transform="matrix(2.7777777,0,0,-2.7777777,0,700)" stroke-width=".8" stroke-linecap="butt" stroke-linejoin="round" fill="none" stroke="#000000" d="M337.42634 54.56V51.06"/>
<use data-text="2" xlink:href="#font_2_50" transform="matrix(27.777777,0,0,-27.777777,910.7979,588.9826)"/>
<use data-text="0" xlink:href="#font_2_48" transform="matrix(27.777777,0,0,-27.777777,928.4646,588.9826)"/>
<use data-text="0" xlink:href="#font_2_48" transform="matrix(27.777777,0,0,-27.777777,946.1312,588.9826)"/>
<use data-text="I" xlink:href="#font_2_73" transform="matrix(27.777777,0,0,-27.777777,500.18818,626.96)"/>
<use data-text="t" xlink:href="#font_2_116" transform="matrix(27.777777,0,0,-27.777777,508.38264,626.96)"/>
<use data-text="e" xlink:href="#font_2_101" transform="matrix(27.777777,0,0,-27.777777,519.2715,626.96)"/>
<use data-text="r" xlink:href="#font_2_114" transform="matrix(27.777777,0,0,-27.777777,536.35488,626.96)"/>
<use data-text="a" xlink:href="#font_2_97" transform="matrix(27.777777,0,0,-27.777777,547.7715,626.96)"/>
<use data-text="t" xlink:href="#font_2_116" transform="matrix(27.777777,0,0,-27.777777,564.7993,626.96)"/>
<use data-text="i" xlink:href="#font_2_105" transform="matrix(27.777777,0,0,-27.777777,575.6882,626.96)"/>
<use data-text="o" xlink:href="#font_2_111" transform="matrix(27.777777,0,0,-27.777777,583.4104,626.96)"/>
<use data-text="n" xlink:href="#font_2_110" transform="matrix(27.777777,0,0,-27.777777,600.4104,626.96)"/>
<g clip-path="url(#clip_11)">
<path transform="matrix(2.7777777,0,0,-2.7777777,0,700)" stroke-width=".8" stroke-linecap="butt" stroke-dasharray=".8,1.32" stroke-linejoin="round" fill="none" stroke="#b0b0b0" d="M51.532686 94.25262H351.0403"/>
</g>
<path transform="matrix(2.7777777,0,0,-2.7777777,0,700)" d="M51.532686 94.25262H48.032686"/>
<path transform="matrix(2.7777777,0,0,-2.7777777,0,700)" stroke-width=".8" stroke-linecap="butt" stroke-linejoin="round" fill="none" stroke="#000000" d="M51.532686 94.25262H48.032686"/>
<use data-text="1" xlink:href="#font_2_49" transform="matrix(27.777777,0,0,-27.777777,73.7019,447.86598)"/>
<use data-text="0" xlink:href="#font_2_48" transform="matrix(27.777777,0,0,-27.777777,91.37496,447.86598)"/>
<use data-text="0" xlink:href="#font_2_48" transform="matrix(19.444443,0,0,-19.444443,109.31387,437.2323)"/>
<g clip-path="url(#clip_12)">
<path transform="matrix(2.7777777,0,0,-2.7777777,0,700)" stroke-width=".8" stroke-linecap="butt" stroke-dasharray=".8,1.32" stroke-linejoin="round" fill="none" stroke="#b0b0b0" d="M51.532686 195.27259H351.0403"/>
</g>
<path transform="matrix(2.7777777,0,0,-2.7777777,0,700)" d="M51.532686 195.27259H48.032686"/>
<path transform="matrix(2.7777777,0,0,-2.7777777,0,700)" stroke-width=".8" stroke-linecap="butt" stroke-linejoin="round" fill="none" stroke="#000000" d="M51.532686 195.27259H48.032686"/>
<use data-text="1" xlink:href="#font_2_49" transform="matrix(27.777777,0,0,-27.777777,73.7019,168.4008)"/>
<use data-text="0" xlink:href="#font_2_48" transform="matrix(27.777777,0,0,-27.777777,91.37496,168.4008)"/>
<use data-text="1" xlink:href="#font_2_49" transform="matrix(19.444443,0,0,-19.444443,109.31387,157.76712)"/>
<path transform="matrix(2.7777777,0,0,-2.7777777,0,700)" d="M51.532686 63.842576H49.532686"/>
<path transform="matrix(2.7777777,0,0,-2.7777777,0,700)" stroke-width=".6" stroke-linecap="butt" stroke-linejoin="round" fill="none" stroke="#000000" d="M51.532686 63.842576H49.532686"/>
<path transform="matrix(2.7777777,0,0,-2.7777777,0,700)" d="M51.532686 71.84146H49.532686"/>
<path transform="matrix(2.7777777,0,0,-2.7777777,0,700)" stroke-width=".6" stroke-linecap="butt" stroke-linejoin="round" fill="none" stroke="#000000" d="M51.532686 71.84146H49.532686"/>
<path transform="matrix(2.7777777,0,0,-2.7777777,0,700)" d="M51.532686 78.60442H49.532686"/>
<path transform="matrix(2.7777777,0,0,-2.7777777,0,700)" stroke-width=".6" stroke-linecap="butt" stroke-linejoin="round" fill="none" stroke="#000000" d="M51.532686 78.60442H49.532686"/>
<path transform="matrix(2.7777777,0,0,-2.7777777,0,700)" d="M51.532686 84.46277H49.532686"/>
<path transform="matrix(2.7777777,0,0,-2.7777777,0,700)" stroke-width=".6" stroke-linecap="butt" stroke-linejoin="round" fill="none" stroke="#000000" d="M51.532686 84.46277H49.532686"/>
<path transform="matrix(2.7777777,0,0,-2.7777777,0,700)" d="M51.532686 89.630199H49.532686"/>
<path transform="matrix(2.7777777,0,0,-2.7777777,0,700)" stroke-width=".6" stroke-linecap="butt" stroke-linejoin="round" fill="none" stroke="#000000" d="M51.532686 89.630199H49.532686"/>
<path transform="matrix(2.7777777,0,0,-2.7777777,0,700)" d="M51.532686 124.66266H49.532686"/>
<path transform="matrix(2.7777777,0,0,-2.7777777,0,700)" stroke-width=".6" stroke-linecap="butt" stroke-linejoin="round" fill="none" stroke="#000000" d="M51.532686 124.66266H49.532686"/>
<path transform="matrix(2.7777777,0,0,-2.7777777,0,700)" d="M51.532686 142.45139H49.532686"/>
<path transform="matrix(2.7777777,0,0,-2.7777777,0,700)" stroke-width=".6" stroke-linecap="butt" stroke-linejoin="round" fill="none" stroke="#000000" d="M51.532686 142.45139H49.532686"/>
<path transform="matrix(2.7777777,0,0,-2.7777777,0,700)" d="M51.532686 155.0727H49.532686"/>
<path transform="matrix(2.7777777,0,0,-2.7777777,0,700)" stroke-width=".6" stroke-linecap="butt" stroke-linejoin="round" fill="none" stroke="#000000" d="M51.532686 155.0727H49.532686"/>
<path transform="matrix(2.7777777,0,0,-2.7777777,0,700)" d="M51.532686 164.86255H49.532686"/>
<path transform="matrix(2.7777777,0,0,-2.7777777,0,700)" stroke-width=".6" stroke-linecap="butt" stroke-linejoin="round" fill="none" stroke="#000000" d="M51.532686 164.86255H49.532686"/>
<path transform="matrix(2.7777777,0,0,-2.7777777,0,700)" d="M51.532686 172.86144H49.532686"/>
<path transform="matrix(2.7777777,0,0,-2.7777777,0,700)" stroke-width=".6" stroke-linecap="butt" stroke-linejoin="round" fill="none" stroke="#000000" d="M51.532686 172.86144H49.532686"/>
<path transform="matrix(2.7777777,0,0,-2.7777777,0,700)" d="M51.532686 179.62439H49.532686"/>
<path transform="matrix(2.7777777,0,0,-2.7777777,0,700)" stroke-width=".6" stroke-linecap="butt" stroke-linejoin="round" fill="none" stroke="#000000" d="M51.532686 179.62439H49.532686"/>
<path transform="matrix(2.7777777,0,0,-2.7777777,0,700)" d="M51.532686 185.48274H49.532686"/>
<path transform="matrix(2.7777777,0,0,-2.7777777,0,700)" stroke-width=".6" stroke-linecap="butt" stroke-linejoin="round" fill="none" stroke="#000000" d="M51.532686 185.48274H49.532686"/>
<path transform="matrix(2.7777777,0,0,-2.7777777,0,700)" d="M51.532686 190.65016H49.532686"/>
<path transform="matrix(2.7777777,0,0,-2.7777777,0,700)" stroke-width=".6" stroke-linecap="butt" stroke-linejoin="round" fill="none" stroke="#000000" d="M51.532686 190.65016H49.532686"/>
<use data-text="f" xlink:href="#font_13_102" transform="matrix(0,-27.777777,-27.777777,-0,55.689748,347.2222)"/>
<use data-text="(" xlink:href="#font_2_40" transform="matrix(0,-27.777777,-27.777777,-0,55.689748,337.44303)"/>
<use data-text="x" xlink:href="#font_13_120" transform="matrix(0,-27.777777,-27.777777,-0,55.689748,326.6059)"/>
<use data-text=")" xlink:href="#font_2_41" transform="matrix(0,-27.777777,-27.777777,-0,55.689748,310.16709)"/>
<g clip-path="url(#clip_14)">
<path transform="matrix(2.7777777,0,0,-2.7777777,0,700)" stroke-width="1.5" stroke-linecap="square" stroke-linejoin="round" fill="none" stroke="#ff0000" d="M65.14667 210.03636 66.508068 205.0022 67.86947 201.37075 70.59226 196.01218 73.315059 191.18677 77.399257 184.62566 80.12205 180.64644 86.92904 171.28089 93.73603 162.52913 99.181629 156.09784 101.90443 153.05738 105.98862 148.86249 110.072818 145.03104 114.157009 141.65586 119.6026 137.51859 129.13239 130.71588 133.21659 127.98012 138.66217 124.67562 144.10778 121.64309 149.55336 118.826007 154.99897 116.25805 160.44455 113.92719 167.25154 111.26284 175.41994 108.39807 186.31111 104.799327 193.1181 102.813579 201.2865 100.702327 209.4549 98.83651 218.98468 96.91922 231.23726 94.71295 247.57404 92.01706 266.6336 89.113819 287.0546 86.22492 307.47557 83.57705 325.17375 81.49631 337.42634 80.16669"/>
</g>
<g clip-path="url(#clip_15)">
<path transform="matrix(2.7777777,0,0,-2.7777777,0,700)" stroke-width="1.5" stroke-linecap="butt" stroke-dasharray="9.6,2.4,1.5,2.4" stroke-linejoin="round" fill="none" stroke="#0000ff" d="M65.14667 210.03636 66.508068 198.54653 67.86947 190.09777 70.59226 177.04106 71.95366 171.58602 73.315059 165.5495 76.03786 155.79557 77.399257 152.48868 78.76065 148.54047 80.12205 145.87186 81.483448 142.0794 82.84485 139.70999 84.206249 136.58296 85.56764 134.14296 86.92904 130.98305 91.01324 124.08663 92.37463 121.94057 96.45883 116.43825 97.82023 114.61545 100.54302 111.56329 107.35001 105.12981 111.43421 102.23389 112.79561 101.356159 118.2412 98.69583 130.49379 94.11862 135.93938 92.26822 142.74637 90.097499 150.91477 87.73753 160.44455 85.25981 168.61295 83.328067 178.14273 81.360858 191.75672 78.83711 205.3707 76.557178 224.43027 73.607837 236.68286 71.89601 251.65824 70.06592 269.3564 68.12766 289.7774 66.130069 318.36677 63.564249 337.42634 61.963636"/>
</g>
<path transform="matrix(2.7777777,0,0,-2.7777777,0,700)" stroke-width=".8" stroke-linecap="square" stroke-miterlimit="10" stroke-linejoin="miter" fill="none" stroke="#000000" d="M51.532686 54.56V217.44"/>
<path transform="matrix(2.7777777,0,0,-2.7777777,0,700)" stroke-width=".8" stroke-linecap="square" stroke-miterlimit="10" stroke-linejoin="miter" fill="none" stroke="#000000" d="M351.0403 54.56V217.44"/>
<path transform="matrix(2.7777777,0,0,-2.7777777,0,700)" stroke-width=".8" stroke-linecap="square" stroke-miterlimit="10" stroke-linejoin="miter" fill="none" stroke="#000000" d="M51.532686 54.56H351.0403"/>
<path transform="matrix(2.7777777,0,0,-2.7777777,0,700)" stroke-width=".8" stroke-linecap="square" stroke-miterlimit="10" stroke-linejoin="miter" fill="none" stroke="#000000" d="M51.532686 217.44H351.0403"/>
<path transform="matrix(2.7777777,0,0,-2.7777777,0,700)" d="M409.69239 54.56H709.2V217.44H409.69239Z" fill="#ffffff"/>
<g clip-path="url(#clip_16)">
<path transform="matrix(2.7777777,0,0,-2.7777777,0,700)" stroke-width=".8" stroke-linecap="butt" stroke-dasharray=".8,1.32" stroke-linejoin="round" fill="none" stroke="#b0b0b0" d="M423.30638 54.56V217.44"/>
</g>
<path transform="matrix(2.7777777,0,0,-2.7777777,0,700)" d="M423.30638 54.56V51.06"/>
<path transform="matrix(2.7777777,0,0,-2.7777777,0,700)" stroke-width=".8" stroke-linecap="butt" stroke-linejoin="round" fill="none" stroke="#000000" d="M423.30638 54.56V51.06"/>
<use data-text="0" xlink:href="#font_2_48" transform="matrix(27.777777,0,0,-27.777777,1167.0186,588.9826)"/>
<g clip-path="url(#clip_17)">
<path transform="matrix(2.7777777,0,0,-2.7777777,0,700)" stroke-width=".8" stroke-linecap="butt" stroke-dasharray=".8,1.32" stroke-linejoin="round" fill="none" stroke="#b0b0b0" d="M457.3413 54.56V217.44"/>
</g>
<path transform="matrix(2.7777777,0,0,-2.7777777,0,700)" d="M457.3413 54.56V51.06"/>
<path transform="matrix(2.7777777,0,0,-2.7777777,0,700)" stroke-width=".8" stroke-linecap="butt" stroke-linejoin="round" fill="none" stroke="#000000" d="M457.3413 54.56V51.06"/>
<use data-text="2" xlink:href="#font_2_50" transform="matrix(27.777777,0,0,-27.777777,1252.7276,588.9826)"/>
<use data-text="5" xlink:href="#font_2_53" transform="matrix(27.777777,0,0,-27.777777,1270.3942,588.9826)"/>
<g clip-path="url(#clip_18)">
<path transform="matrix(2.7777777,0,0,-2.7777777,0,700)" stroke-width=".8" stroke-linecap="butt" stroke-dasharray=".8,1.32" stroke-linejoin="round" fill="none" stroke="#b0b0b0" d="M491.37629 54.56V217.44"/>
</g>
<path transform="matrix(2.7777777,0,0,-2.7777777,0,700)" d="M491.37629 54.56V51.06"/>
<path transform="matrix(2.7777777,0,0,-2.7777777,0,700)" stroke-width=".8" stroke-linecap="butt" stroke-linejoin="round" fill="none" stroke="#000000" d="M491.37629 54.56V51.06"/>
<use data-text="5" xlink:href="#font_2_53" transform="matrix(27.777777,0,0,-27.777777,1347.2692,588.9826)"/>
<use data-text="0" xlink:href="#font_2_48" transform="matrix(27.777777,0,0,-27.777777,1364.9358,588.9826)"/>
<g clip-path="url(#clip_19)">
<path transform="matrix(2.7777777,0,0,-2.7777777,0,700)" stroke-width=".8" stroke-linecap="butt" stroke-dasharray=".8,1.32" stroke-linejoin="round" fill="none" stroke="#b0b0b0" d="M525.41128 54.56V217.44"/>
</g>
<path transform="matrix(2.7777777,0,0,-2.7777777,0,700)" d="M525.41128 54.56V51.06"/>
<path transform="matrix(2.7777777,0,0,-2.7777777,0,700)" stroke-width=".8" stroke-linecap="butt" stroke-linejoin="round" fill="none" stroke="#000000" d="M525.41128 54.56V51.06"/>
<use data-text="7" xlink:href="#font_2_55" transform="matrix(27.777777,0,0,-27.777777,1441.8107,588.9826)"/>
<use data-text="5" xlink:href="#font_2_53" transform="matrix(27.777777,0,0,-27.777777,1459.4773,588.9826)"/>
<g clip-path="url(#clip_20)">
<path transform="matrix(2.7777777,0,0,-2.7777777,0,700)" stroke-width=".8" stroke-linecap="butt" stroke-dasharray=".8,1.32" stroke-linejoin="round" fill="none" stroke="#b0b0b0" d="M559.44619 54.56V217.44"/>
</g>
<path transform="matrix(2.7777777,0,0,-2.7777777,0,700)" d="M559.44619 54.56V51.06"/>
<path transform="matrix(2.7777777,0,0,-2.7777777,0,700)" stroke-width=".8" stroke-linecap="butt" stroke-linejoin="round" fill="none" stroke="#000000" d="M559.44619 54.56V51.06"/>
<use data-text="1" xlink:href="#font_2_49" transform="matrix(27.777777,0,0,-27.777777,1527.5197,588.9826)"/>
<use data-text="0" xlink:href="#font_2_48" transform="matrix(27.777777,0,0,-27.777777,1545.1863,588.9826)"/>
<use data-text="0" xlink:href="#font_2_48" transform="matrix(27.777777,0,0,-27.777777,1562.853,588.9826)"/>
<g clip-path="url(#clip_21)">
<path transform="matrix(2.7777777,0,0,-2.7777777,0,700)" stroke-width=".8" stroke-linecap="butt" stroke-dasharray=".8,1.32" stroke-linejoin="round" fill="none" stroke="#b0b0b0" d="M593.48117 54.56V217.44"/>
</g>
<path transform="matrix(2.7777777,0,0,-2.7777777,0,700)" d="M593.48117 54.56V51.06"/>
<path transform="matrix(2.7777777,0,0,-2.7777777,0,700)" stroke-width=".8" stroke-linecap="butt" stroke-linejoin="round" fill="none" stroke="#000000" d="M593.48117 54.56V51.06"/>
<use data-text="1" xlink:href="#font_2_49" transform="matrix(27.777777,0,0,-27.777777,1622.0613,588.9826)"/>
<use data-text="2" xlink:href="#font_2_50" transform="matrix(27.777777,0,0,-27.777777,1639.7279,588.9826)"/>
<use data-text="5" xlink:href="#font_2_53" transform="matrix(27.777777,0,0,-27.777777,1657.3947,588.9826)"/>
<g clip-path="url(#clip_22)">
<path transform="matrix(2.7777777,0,0,-2.7777777,0,700)" stroke-width=".8" stroke-linecap="butt" stroke-dasharray=".8,1.32" stroke-linejoin="round" fill="none" stroke="#b0b0b0" d="M627.5161 54.56V217.44"/>
</g>
<path transform="matrix(2.7777777,0,0,-2.7777777,0,700)" d="M627.5161 54.56V51.06"/>
<path transform="matrix(2.7777777,0,0,-2.7777777,0,700)" stroke-width=".8" stroke-linecap="butt" stroke-linejoin="round" fill="none" stroke="#000000" d="M627.5161 54.56V51.06"/>
<use data-text="1" xlink:href="#font_2_49" transform="matrix(27.777777,0,0,-27.777777,1716.6029,588.9826)"/>
<use data-text="5" xlink:href="#font_2_53" transform="matrix(27.777777,0,0,-27.777777,1734.2695,588.9826)"/>
<use data-text="0" xlink:href="#font_2_48" transform="matrix(27.777777,0,0,-27.777777,1751.9363,588.9826)"/>
<g clip-path="url(#clip_23)">
<path transform="matrix(2.7777777,0,0,-2.7777777,0,700)" stroke-width=".8" stroke-linecap="butt" stroke-dasharray=".8,1.32" stroke-linejoin="round" fill="none" stroke="#b0b0b0" d="M661.5511 54.56V217.44"/>
</g>
<path transform="matrix(2.7777777,0,0,-2.7777777,0,700)" d="M661.5511 54.56V51.06"/>
<path transform="matrix(2.7777777,0,0,-2.7777777,0,700)" stroke-width=".8" stroke-linecap="butt" stroke-linejoin="round" fill="none" stroke="#000000" d="M661.5511 54.56V51.06"/>
<use data-text="1" xlink:href="#font_2_49" transform="matrix(27.777777,0,0,-27.777777,1811.1444,588.9826)"/>
<use data-text="7" xlink:href="#font_2_55" transform="matrix(27.777777,0,0,-27.777777,1828.811,588.9826)"/>
<use data-text="5" xlink:href="#font_2_53" transform="matrix(27.777777,0,0,-27.777777,1846.4778,588.9826)"/>
<g clip-path="url(#clip_24)">
<path transform="matrix(2.7777777,0,0,-2.7777777,0,700)" stroke-width=".8" stroke-linecap="butt" stroke-dasharray=".8,1.32" stroke-linejoin="round" fill="none" stroke="#b0b0b0" d="M695.586 54.56V217.44"/>
</g>
<path transform="matrix(2.7777777,0,0,-2.7777777,0,700)" d="M695.586 54.56V51.06"/>
<path transform="matrix(2.7777777,0,0,-2.7777777,0,700)" stroke-width=".8" stroke-linecap="butt" stroke-linejoin="round" fill="none" stroke="#000000" d="M695.586 54.56V51.06"/>
<use data-text="2" xlink:href="#font_2_50" transform="matrix(27.777777,0,0,-27.777777,1905.6859,588.9826)"/>
<use data-text="0" xlink:href="#font_2_48" transform="matrix(27.777777,0,0,-27.777777,1923.3526,588.9826)"/>
<use data-text="0" xlink:href="#font_2_48" transform="matrix(27.777777,0,0,-27.777777,1941.0193,588.9826)"/>
<use data-text="I" xlink:href="#font_2_73" transform="matrix(27.777777,0,0,-27.777777,1495.076,626.96)"/>
<use data-text="t" xlink:href="#font_2_116" transform="matrix(27.777777,0,0,-27.777777,1503.2705,626.96)"/>
<use data-text="e" xlink:href="#font_2_101" transform="matrix(27.777777,0,0,-27.777777,1514.1594,626.96)"/>
<use data-text="r" xlink:href="#font_2_114" transform="matrix(27.777777,0,0,-27.777777,1531.2427,626.96)"/>
<use data-text="a" xlink:href="#font_2_97" transform="matrix(27.777777,0,0,-27.777777,1542.6594,626.96)"/>
<use data-text="t" xlink:href="#font_2_116" transform="matrix(27.777777,0,0,-27.777777,1559.6871,626.96)"/>
<use data-text="i" xlink:href="#font_2_105" transform="matrix(27.777777,0,0,-27.777777,1570.576,626.96)"/>
<use data-text="o" xlink:href="#font_2_111" transform="matrix(27.777777,0,0,-27.777777,1578.2984,626.96)"/>
<use data-text="n" xlink:href="#font_2_110" transform="matrix(27.777777,0,0,-27.777777,1595.2982,626.96)"/>
<g clip-path="url(#clip_25)">
<path transform="matrix(2.7777777,0,0,-2.7777777,0,700)" stroke-width=".8" stroke-linecap="butt" stroke-dasharray=".8,1.32" stroke-linejoin="round" fill="none" stroke="#b0b0b0" d="M409.69239 58.920808H709.2"/>
</g>
<path transform="matrix(2.7777777,0,0,-2.7777777,0,700)" d="M409.69239 58.920808H406.19239"/>
<path transform="matrix(2.7777777,0,0,-2.7777777,0,700)" stroke-width=".8" stroke-linecap="butt" stroke-linejoin="round" fill="none" stroke="#000000" d="M409.69239 58.920808H406.19239"/>
<use data-text="1" xlink:href="#font_2_49" transform="matrix(27.777777,0,0,-27.777777,1051.9232,547.1557)"/>
<use data-text="0" xlink:href="#font_2_48" transform="matrix(27.777777,0,0,-27.777777,1069.5963,547.1557)"/>
<use data-text="1" xlink:href="#font_2_49" transform="matrix(19.444443,0,0,-19.444443,1103.8275,536.52206)"/>
<g clip-path="url(#clip_26)">
<path transform="matrix(.019444446,0,0,-.019444446,1087.5353,536.52206)" d="M106 355H732V272H106V355Z"/>
</g>
<g clip-path="url(#clip_27)">
<path transform="matrix(2.7777777,0,0,-2.7777777,0,700)" stroke-width=".8" stroke-linecap="butt" stroke-dasharray=".8,1.32" stroke-linejoin="round" fill="none" stroke="#b0b0b0" d="M409.69239 152.5447H709.2"/>
</g>
<path transform="matrix(2.7777777,0,0,-2.7777777,0,700)" d="M409.69239 152.5447H406.19239"/>
<path transform="matrix(2.7777777,0,0,-2.7777777,0,700)" stroke-width=".8" stroke-linecap="butt" stroke-linejoin="round" fill="none" stroke="#000000" d="M409.69239 152.5447H406.19239"/>
<use data-text="1" xlink:href="#font_2_49" transform="matrix(27.777777,0,0,-27.777777,1068.59,285.94355)"/>
<use data-text="0" xlink:href="#font_2_48" transform="matrix(27.777777,0,0,-27.777777,1086.2631,285.94355)"/>
<use data-text="0" xlink:href="#font_2_48" transform="matrix(19.444443,0,0,-19.444443,1104.2019,275.30989)"/>
<path transform="matrix(2.7777777,0,0,-2.7777777,0,700)" d="M409.69239 54.636816H407.69239"/>
<path transform="matrix(2.7777777,0,0,-2.7777777,0,700)" stroke-width=".6" stroke-linecap="butt" stroke-linejoin="round" fill="none" stroke="#000000" d="M409.69239 54.636816H407.69239"/>
<path transform="matrix(2.7777777,0,0,-2.7777777,0,700)" d="M409.69239 87.1044H407.69239"/>
<path transform="matrix(2.7777777,0,0,-2.7777777,0,700)" stroke-width=".6" stroke-linecap="butt" stroke-linejoin="round" fill="none" stroke="#000000" d="M409.69239 87.1044H407.69239"/>
<path transform="matrix(2.7777777,0,0,-2.7777777,0,700)" d="M409.69239 103.59075H407.69239"/>
<path transform="matrix(2.7777777,0,0,-2.7777777,0,700)" stroke-width=".6" stroke-linecap="butt" stroke-linejoin="round" fill="none" stroke="#000000" d="M409.69239 103.59075H407.69239"/>
<path transform="matrix(2.7777777,0,0,-2.7777777,0,700)" d="M409.69239 115.288H407.69239"/>
<path transform="matrix(2.7777777,0,0,-2.7777777,0,700)" stroke-width=".6" stroke-linecap="butt" stroke-linejoin="round" fill="none" stroke="#000000" d="M409.69239 115.288H407.69239"/>
<path transform="matrix(2.7777777,0,0,-2.7777777,0,700)" d="M409.69239 124.36109H407.69239"/>
<path transform="matrix(2.7777777,0,0,-2.7777777,0,700)" stroke-width=".6" stroke-linecap="butt" stroke-linejoin="round" fill="none" stroke="#000000" d="M409.69239 124.36109H407.69239"/>
<path transform="matrix(2.7777777,0,0,-2.7777777,0,700)" d="M409.69239 131.77436H407.69239"/>
<path transform="matrix(2.7777777,0,0,-2.7777777,0,700)" stroke-width=".6" stroke-linecap="butt" stroke-linejoin="round" fill="none" stroke="#000000" d="M409.69239 131.77436H407.69239"/>
<path transform="matrix(2.7777777,0,0,-2.7777777,0,700)" d="M409.69239 138.04216H407.69239"/>
<path transform="matrix(2.7777777,0,0,-2.7777777,0,700)" stroke-width=".6" stroke-linecap="butt" stroke-linejoin="round" fill="none" stroke="#000000" d="M409.69239 138.04216H407.69239"/>
<path transform="matrix(2.7777777,0,0,-2.7777777,0,700)" d="M409.69239 143.47159H407.69239"/>
<path transform="matrix(2.7777777,0,0,-2.7777777,0,700)" stroke-width=".6" stroke-linecap="butt" stroke-linejoin="round" fill="none" stroke="#000000" d="M409.69239 143.47159H407.69239"/>
<path transform="matrix(2.7777777,0,0,-2.7777777,0,700)" d="M409.69239 148.2607H407.69239"/>
<path transform="matrix(2.7777777,0,0,-2.7777777,0,700)" stroke-width=".6" stroke-linecap="butt" stroke-linejoin="round" fill="none" stroke="#000000" d="M409.69239 148.2607H407.69239"/>
<path transform="matrix(2.7777777,0,0,-2.7777777,0,700)" d="M409.69239 180.72829H407.69239"/>
<path transform="matrix(2.7777777,0,0,-2.7777777,0,700)" stroke-width=".6" stroke-linecap="butt" stroke-linejoin="round" fill="none" stroke="#000000" d="M409.69239 180.72829H407.69239"/>
<path transform="matrix(2.7777777,0,0,-2.7777777,0,700)" d="M409.69239 197.21463H407.69239"/>
<path transform="matrix(2.7777777,0,0,-2.7777777,0,700)" stroke-width=".6" stroke-linecap="butt" stroke-linejoin="round" fill="none" stroke="#000000" d="M409.69239 197.21463H407.69239"/>
<path transform="matrix(2.7777777,0,0,-2.7777777,0,700)" d="M409.69239 208.91188H407.69239"/>
<path transform="matrix(2.7777777,0,0,-2.7777777,0,700)" stroke-width=".6" stroke-linecap="butt" stroke-linejoin="round" fill="none" stroke="#000000" d="M409.69239 208.91188H407.69239"/>
<use data-text="f" xlink:href="#font_13_102" transform="matrix(0,-27.777777,-27.777777,-0,1031.4805,343.91819)"/>
<use data-text="(" xlink:href="#font_2_40" transform="matrix(0,-27.777777,-27.777777,-0,1031.4805,334.139)"/>
<use data-text="x" xlink:href="#font_13_120" transform="matrix(0,-27.777777,-27.777777,-0,1031.4805,323.30189)"/>
<use data-text=")" xlink:href="#font_2_41" transform="matrix(0,-27.777777,-27.777777,-0,1031.4805,306.86308)"/>
<use data-text="2" xlink:href="#font_2_50" transform="matrix(0,-19.444443,-19.444443,-0,1036.0379,281.87123)"/>
<g clip-path="url(#clip_28)">
<path transform="matrix(0,-.027777777,-.027777777,-0,1031.4806,376.3889)" d="M210 764V-235H127V764H210ZM371 764V-235H288V764H371Z"/>
</g>
<g clip-path="url(#clip_29)">
<path transform="matrix(0,-.027777777,-.027777777,-0,1031.4806,362.5)" d="M334 103 538 632H130L334 103ZM280 0-2 719H672L389 0H280Z"/>
</g>
<g clip-path="url(#clip_30)">
<path transform="matrix(0,-.027777777,-.027777777,-0,1031.4806,296.0259)" d="M210 764V-235H127V764H210ZM371 764V-235H288V764H371Z"/>
</g>
<g clip-path="url(#clip_31)">
<path transform="matrix(2.7777777,0,0,-2.7777777,0,700)" stroke-width="1.5" stroke-linecap="square" stroke-linejoin="round" fill="none" stroke="#ff0000" d="M423.30638 210.03636 424.66777 201.11145 426.02915 193.24298 427.39054 189.99626 428.75196 188.2048 431.47474 183.6099 432.83616 182.05103 434.19755 180.84079 436.92036 176.84238 438.28175 175.44306 441.00453 173.27222 442.36595 172.4714 443.72734 171.32109 445.0887 169.77523 446.45014 168.6857 449.1729 166.94 450.53434 165.6998 453.2571 162.84037 454.6185 161.92635 455.97993 161.1747 457.3413 160.09482 460.06413 157.07102 462.7869 154.68926 464.14833 153.55075 465.5097 152.26056 469.5939 147.88166 470.9553 146.56926 477.7623 142.19263 480.48509 140.96125 485.93067 138.8966 488.65348 137.14455 492.73768 134.08942 495.46046 132.33428 499.54466 130.04576 503.62886 127.92007 506.35166 126.4997 515.8814 120.941799 524.0498 116.94303 526.77267 115.456768 529.4954 114.43662 533.5796 113.362468 539.0252 111.98452 541.748 111.01512 544.4708 109.764247 551.2778 106.18654 555.362 104.57823 559.44619 102.95625 568.97598 98.84043 574.4216 97.01976 581.2286 94.98425 585.31277 93.9734 590.75839 92.86217 605.7337 90.186649 613.9021 88.892688 643.8529 84.49065 652.0213 83.312519 662.9125 81.73927 691.50186 77.02026 695.586 76.46106"/>
</g>
<g clip-path="url(#clip_32)">
<path transform="matrix(2.7777777,0,0,-2.7777777,0,700)" stroke-width="1.5" stroke-linecap="butt" stroke-dasharray="9.6,2.4,1.5,2.4" stroke-linejoin="round" fill="none" stroke="#0000ff" d="M423.30638 210.03636H424.66777L426.02915 195.20708 427.39054 199.61469 428.75196 186.27051 430.11335 192.33571 431.47474 178.81172 432.83616 185.84543 434.19755 171.49349 435.55894 176.11925 436.92036 165.83612 438.28175 171.71416 439.64314 159.36574 441.00453 164.75385 442.36595 153.87964 443.72734 160.99857 445.0887 149.74549 446.45014 155.53258 447.81153 145.15 449.1729 149.92479 450.53434 140.29805 451.89573 145.31914 453.2571 136.05513 454.6185 142.28205 455.97993 132.68235 457.3413 138.01047 458.7027 129.32161 460.06413 133.5459 461.4255 126.288349 462.7869 131.27283 464.14833 124.228588 465.5097 128.5836 466.8711 119.99641 468.23249 124.41842 469.5939 116.32426 470.9553 120.76316 472.31669 114.05975 473.6781 118.39697 475.0395 111.57578 476.40089 116.69329 477.7623 109.767917 479.1237 115.07484 480.48509 108.35 481.84648 113.64187 483.2079 106.97353 484.56929 112.427089 485.93067 105.59724 487.29209 111.28935 488.65348 104.3876 490.01487 110.12865 491.37629 103.288639 492.73768 108.89716 494.09907 102.16694 495.46046 107.61246 496.82188 101.07257 498.18327 106.388538 499.54466 100.12336 500.90608 105.2817 502.26747 99.30391 503.62886 104.294139 504.99028 98.552509 506.35166 103.38607 507.71305 97.80337 509.07444 102.48247 510.43586 97.010608 511.79725 101.572338 513.1586 96.21245 514.52 100.7446 515.8814 95.48581 517.24288 100.023509 518.60427 94.831729 519.96566 99.33304 521.327 94.188579 522.6884 98.55612 524.0498 93.47874 525.41128 97.62335 526.77267 92.65496 528.13406 96.65672 529.4954 91.75175 530.8568 95.82137 532.2182 90.83385 533.5796 95.13514 534.94107 89.93102 536.3024 94.549617 537.6638 89.05909 539.0252 94.02707 540.3866 88.24772 541.748 93.547199 543.1094 87.5161 544.4708 93.09352 545.8322 86.85031 547.1936 92.63999 548.555 86.211368 549.9164 92.14807 551.2778 85.5514 552.6392 91.57792 554.0006 84.83927 555.362 90.92784 556.7234 84.09527 558.0848 90.26822 559.44619 83.38943 560.80758 89.67719 562.169 82.767368 563.5304 89.16893 564.8918 82.21852 566.2532 88.71415 567.61459 81.70698 568.97598 88.27652 570.33737 81.194499 571.6988 87.82628 573.0602 80.65321 574.4216 87.34361 575.78298 80.07581 577.14437 86.824848 578.50576 79.478229 579.8672 86.27681 581.2286 78.88226 582.58999 85.70321 583.95138 78.2948 585.31277 85.09275 586.67416 77.70185 588.0355 84.429248 589.397 77.081668 590.75839 83.71233 592.11978 76.42304 593.48117 82.96743 594.8425 75.73523 596.2039 82.22991 597.5653 75.04312 598.92678 81.525318 600.28817 74.3744 601.64956 80.86601 603.0109 73.74722 604.3723 80.25052 605.7337 73.16367 607.09518 79.6722 608.45657 72.614589 609.81796 79.12116 611.1793 72.08809 612.5407 78.587779 613.9021 71.57513 615.2635 78.06606 616.62496 71.06925 617.9863 77.551418 619.3477 70.56702 620.7091 77.04024 622.0705 70.06607 623.4319 76.52927 624.7933 69.56418 626.1547 76.01564 627.5161 69.05937 628.8775 75.49789 630.2389 68.55105 631.6003 74.97724 632.9617 68.04143 634.3231 74.45819 635.6845 67.53671 637.0459 73.94929 638.4073 67.04587 639.7687 73.460048 641.13009 66.57975 642.49148 72.99957 643.8529 66.14742 645.2143 72.57407 646.5757 65.75421 647.9371 72.18574 649.29849 65.401149 650.65988 71.83313 652.0213 65.08592 653.3827 71.51235 654.7441 64.80436 656.10549 71.21839 657.46688 64.55156 658.82827 70.94609 660.18966 64.32266 661.5511 70.69077 662.9125 64.11321 664.27389 70.44857 665.63528 63.919294 666.99667 70.21652 668.35806 63.737524 669.7194 69.9925 671.0809 63.565008 672.44229 69.77498 673.80368 63.399179 675.16506 69.56234 676.5264 63.237825 677.8878 69.353298 679.2492 63.078264 680.61068 69.145549 681.97207 62.91775 683.33346 68.93575 684.6948 62.753026 686.0562 68.71934 687.4176 62.580167 688.77908 68.49062 690.14047 62.394544 691.50186 68.24323 692.8632 62.190748 694.2246 67.971309 695.586 61.963636"/>
</g>
<path transform="matrix(2.7777777,0,0,-2.7777777,0,700)" stroke-width=".8" stroke-linecap="square" stroke-miterlimit="10" stroke-linejoin="miter" fill="none" stroke="#000000" d="M409.69239 54.56V217.44"/>
<path transform="matrix(2.7777777,0,0,-2.7777777,0,700)" stroke-width=".8" stroke-linecap="square" stroke-miterlimit="10" stroke-linejoin="miter" fill="none" stroke="#000000" d="M709.2 54.56V217.44"/>
<path transform="matrix(2.7777777,0,0,-2.7777777,0,700)" stroke-width=".8" stroke-linecap="square" stroke-miterlimit="10" stroke-linejoin="miter" fill="none" stroke="#000000" d="M409.69239 54.56H709.2"/>
<path transform="matrix(2.7777777,0,0,-2.7777777,0,700)" stroke-width=".8" stroke-linecap="square" stroke-miterlimit="10" stroke-linejoin="miter" fill="none" stroke="#000000" d="M409.69239 217.44H709.2"/>
<use data-text="R" xlink:href="#font_2_82" transform="matrix(33.333333,0,0,-33.333333,491.2109,39.347204)"/>
<use data-text="e" xlink:href="#font_2_101" transform="matrix(33.333333,0,0,-33.333333,512.90188,39.347204)"/>
<use data-text="g" xlink:href="#font_2_103" transform="matrix(33.333333,0,0,-33.333333,533.40188,39.347204)"/>
<use data-text="u" xlink:href="#font_2_117" transform="matrix(33.333333,0,0,-33.333333,554.56857,39.347204)"/>
<use data-text="l" xlink:href="#font_2_108" transform="matrix(33.333333,0,0,-33.333333,575.7019,39.347204)"/>
<use data-text="a" xlink:href="#font_2_97" transform="matrix(33.333333,0,0,-33.333333,584.96859,39.347204)"/>
<use data-text="r" xlink:href="#font_2_114" transform="matrix(33.333333,0,0,-33.333333,605.40188,39.347204)"/>
<use data-text="i" xlink:href="#font_2_105" transform="matrix(33.333333,0,0,-33.333333,619.10189,39.347204)"/>
<use data-text="z" xlink:href="#font_2_122" transform="matrix(33.333333,0,0,-33.333333,628.3685,39.347204)"/>
<use data-text="e" xlink:href="#font_2_101" transform="matrix(33.333333,0,0,-33.333333,645.8685,39.347204)"/>
<use data-text="d" xlink:href="#font_2_100" transform="matrix(33.333333,0,0,-33.333333,666.3685,39.347204)"/>
<use data-text=" " xlink:href="#font_2_32" transform="matrix(33.333333,0,0,-33.333333,687.5352,39.347204)"/>
<use data-text="b" xlink:href="#font_2_98" transform="matrix(33.333333,0,0,-33.333333,698.1352,39.347204)"/>
<use data-text="i" xlink:href="#font_2_105" transform="matrix(33.333333,0,0,-33.333333,719.3019,39.347204)"/>
<use data-text="n" xlink:href="#font_2_110" transform="matrix(33.333333,0,0,-33.333333,728.56857,39.347204)"/>
<use data-text="a" xlink:href="#font_2_97" transform="matrix(33.333333,0,0,-33.333333,749.7019,39.347204)"/>
<use data-text="r" xlink:href="#font_2_114" transform="matrix(33.333333,0,0,-33.333333,770.13528,39.347204)"/>
<use data-text="y" xlink:href="#font_2_121" transform="matrix(33.333333,0,0,-33.333333,783.8352,39.347204)"/>
<use data-text=" " xlink:href="#font_2_32" transform="matrix(33.333333,0,0,-33.333333,803.5686,39.347204)"/>
<use data-text="l" xlink:href="#font_2_108" transform="matrix(33.333333,0,0,-33.333333,814.1686,39.347204)"/>
<use data-text="o" xlink:href="#font_2_111" transform="matrix(33.333333,0,0,-33.333333,823.43527,39.347204)"/>
<use data-text="g" xlink:href="#font_2_103" transform="matrix(33.333333,0,0,-33.333333,843.8352,39.347204)"/>
<use data-text="i" xlink:href="#font_2_105" transform="matrix(33.333333,0,0,-33.333333,865.0019,39.347204)"/>
<use data-text="s" xlink:href="#font_2_115" transform="matrix(33.333333,0,0,-33.333333,874.26858,39.347204)"/>
<use data-text="t" xlink:href="#font_2_116" transform="matrix(33.333333,0,0,-33.333333,891.63528,39.347204)"/>
<use data-text="i" xlink:href="#font_2_105" transform="matrix(33.333333,0,0,-33.333333,904.7019,39.347204)"/>
<use data-text="c" xlink:href="#font_2_99" transform="matrix(33.333333,0,0,-33.333333,913.9685,39.347204)"/>
<use data-text=" " xlink:href="#font_2_32" transform="matrix(33.333333,0,0,-33.333333,932.3019,39.347204)"/>
<use data-text="r" xlink:href="#font_2_114" transform="matrix(33.333333,0,0,-33.333333,942.90188,39.347204)"/>
<use data-text="e" xlink:href="#font_2_101" transform="matrix(33.333333,0,0,-33.333333,955.9075,39.347204)"/>
<use data-text="g" xlink:href="#font_2_103" transform="matrix(33.333333,0,0,-33.333333,976.4075,39.347204)"/>
<use data-text="r" xlink:href="#font_2_114" transform="matrix(33.333333,0,0,-33.333333,997.5741,39.347204)"/>
<use data-text="e" xlink:href="#font_2_101" transform="matrix(33.333333,0,0,-33.333333,1010.5797,39.347204)"/>
<use data-text="s" xlink:href="#font_2_115" transform="matrix(33.333333,0,0,-33.333333,1031.0797,39.347204)"/>
<use data-text="s" xlink:href="#font_2_115" transform="matrix(33.333333,0,0,-33.333333,1048.4463,39.347204)"/>
<use data-text="i" xlink:href="#font_2_105" transform="matrix(33.333333,0,0,-33.333333,1065.813,39.347204)"/>
<use data-text="o" xlink:href="#font_2_111" transform="matrix(33.333333,0,0,-33.333333,1075.0797,39.347204)"/>
<use data-text="n" xlink:href="#font_2_110" transform="matrix(33.333333,0,0,-33.333333,1095.4796,39.347204)"/>
<use data-text="." xlink:href="#font_2_46" transform="matrix(33.333333,0,0,-33.333333,1116.613,39.347204)"/>
<use data-text=" " xlink:href="#font_2_32" transform="matrix(33.333333,0,0,-33.333333,1127.213,39.347204)"/>
<use data-text="n" xlink:href="#font_2_110" transform="matrix(33.333333,0,0,-33.333333,1137.813,39.347204)"/>
<use data-text="=" xlink:href="#font_2_61" transform="matrix(33.333333,0,0,-33.333333,1158.9463,39.347204)"/>
<use data-text="3" xlink:href="#font_2_51" transform="matrix(33.333333,0,0,-33.333333,1186.8796,39.347204)"/>
<use data-text="0" xlink:href="#font_2_48" transform="matrix(33.333333,0,0,-33.333333,1208.0796,39.347204)"/>
<use data-text="0" xlink:href="#font_2_48" transform="matrix(33.333333,0,0,-33.333333,1229.2797,39.347204)"/>
<use data-text="." xlink:href="#font_2_46" transform="matrix(33.333333,0,0,-33.333333,1250.4796,39.347204)"/>
<use data-text=" " xlink:href="#font_2_32" transform="matrix(33.333333,0,0,-33.333333,1261.0796,39.347204)"/>
<use data-text="m" xlink:href="#font_2_109" transform="matrix(33.333333,0,0,-33.333333,1271.6797,39.347204)"/>
<use data-text="=" xlink:href="#font_2_61" transform="matrix(33.333333,0,0,-33.333333,1304.1463,39.347204)"/>
<use data-text="1" xlink:href="#font_2_49" transform="matrix(33.333333,0,0,-33.333333,1332.0796,39.347204)"/>
<use data-text="0" xlink:href="#font_2_48" transform="matrix(33.333333,0,0,-33.333333,1353.2796,39.347204)"/>
<use data-text="0" xlink:href="#font_2_48" transform="matrix(33.333333,0,0,-33.333333,1374.4795,39.347204)"/>
<use data-text="0" xlink:href="#font_2_48" transform="matrix(33.333333,0,0,-33.333333,1395.6795,39.347204)"/>
<use data-text="." xlink:href="#font_2_46" transform="matrix(33.333333,0,0,-33.333333,1416.8795,39.347204)"/>
<use data-text=" " xlink:href="#font_2_32" transform="matrix(33.333333,0,0,-33.333333,1427.4795,39.347204)"/>
<use data-text="=" xlink:href="#font_2_61" transform="matrix(33.333333,0,0,-33.333333,1459.1959,39.347204)"/>
<use data-text="0" xlink:href="#font_2_48" transform="matrix(33.333333,0,0,-33.333333,1487.1293,39.347204)"/>
<g clip-path="url(#clip_33)">
<path transform="matrix(.03333333,0,0,-.03333333,1437.9883,39.347204)" d="M85-207V547H175V207C175 159 186 124 208 100 230 76 264 64 308 64 356 64 392 77 416 105 440 132 453 173 453 228V547H543V126C543 106 545 92 551 83 557 73 566 69 578 69 581 69 585 69 590 71 595 73 602 76 612 80V8C598 1 586-3 574-7 562-11 550-13 539-13 516-13 498-7 485 5 471 17 462 37 458 63 442 37 422 17 398 5 374-7 347-13 315-13 281-13 253-7 230 5 206 17 188 36 175 62V-207H85Z"/>
</g>
<g>
<path transform="matrix(2.7777777,0,0,-2.7777777,0,700)" d="M231.9375 5H488.0625C489.39585 5 490.0625 5.666667 490.0625 7V20.671875C490.0625 22.005208 489.39585 22.671875 488.0625 22.671875H231.9375C230.60417 22.671875 229.9375 22.005208 229.9375 20.671875V7C229.9375 5.666667 230.60417 5 231.9375 5Z" fill="#ffffff" fill-opacity=".8"/>
<path transform="matrix(2.7777777,0,0,-2.7777777,0,700)" stroke-width="1" stroke-linecap="butt" stroke-miterlimit="10" stroke-linejoin="miter" fill="none" stroke="#cccccc" stroke-opacity=".8" d="M231.9375 5H488.0625C489.39585 5 490.0625 5.666667 490.0625 7V20.671875C490.0625 22.005208 489.39585 22.671875 488.0625 22.671875H231.9375C230.60417 22.671875 229.9375 22.005208 229.9375 20.671875V7C229.9375 5.666667 230.60417 5 231.9375 5Z"/>
</g>
<path transform="matrix(2.7777777,0,0,-2.7777777,0,700)" stroke-width="1.5" stroke-linecap="square" stroke-linejoin="round" fill="none" stroke="#ff0000" d="M233.9375 14.578125H243.9375 253.9375"/>
<use data-text="G" xlink:href="#font_2_71" transform="matrix(27.777777,0,0,-27.777777,727.6041,669.2274)"/>
<use data-text="r" xlink:href="#font_2_114" transform="matrix(27.777777,0,0,-27.777777,749.1319,669.2274)"/>
<use data-text="a" xlink:href="#font_2_97" transform="matrix(27.777777,0,0,-27.777777,760.5486,669.2274)"/>
<use data-text="d" xlink:href="#font_2_100" transform="matrix(27.777777,0,0,-27.777777,777.57638,669.2274)"/>
<use data-text="i" xlink:href="#font_2_105" transform="matrix(27.777777,0,0,-27.777777,795.2152,669.2274)"/>
<use data-text="e" xlink:href="#font_2_101" transform="matrix(27.777777,0,0,-27.777777,802.93746,669.2274)"/>
<use data-text="n" xlink:href="#font_2_110" transform="matrix(27.777777,0,0,-27.777777,820.0208,669.2274)"/>
<use data-text="t" xlink:href="#font_2_116" transform="matrix(27.777777,0,0,-27.777777,837.6319,669.2274)"/>
<use data-text=" " xlink:href="#font_2_32" transform="matrix(27.777777,0,0,-27.777777,848.5208,669.2274)"/>
<use data-text="D" xlink:href="#font_2_68" transform="matrix(27.777777,0,0,-27.777777,857.3541,669.2274)"/>
<use data-text="e" xlink:href="#font_2_101" transform="matrix(27.777777,0,0,-27.777777,878.74307,669.2274)"/>
<use data-text="s" xlink:href="#font_2_115" transform="matrix(27.777777,0,0,-27.777777,895.82638,669.2274)"/>
<use data-text="c" xlink:href="#font_2_99" transform="matrix(27.777777,0,0,-27.777777,910.2986,669.2274)"/>
<use data-text="e" xlink:href="#font_2_101" transform="matrix(27.777777,0,0,-27.777777,925.57638,669.2274)"/>
<use data-text="n" xlink:href="#font_2_110" transform="matrix(27.777777,0,0,-27.777777,942.6597,669.2274)"/>
<use data-text="t" xlink:href="#font_2_116" transform="matrix(27.777777,0,0,-27.777777,960.2708,669.2274)"/>
<path transform="matrix(2.7777777,0,0,-2.7777777,0,700)" stroke-width="1.5" stroke-linecap="butt" stroke-dasharray="9.6,2.4,1.5,2.4" stroke-linejoin="round" fill="none" stroke="#0000ff" d="M369.65626 14.578125H379.65626 389.65626"/>
<use data-text="S" xlink:href="#font_2_83" transform="matrix(27.777777,0,0,-27.777777,1104.6007,669.2274)"/>
<use data-text="t" xlink:href="#font_2_116" transform="matrix(27.777777,0,0,-27.777777,1122.2396,669.2274)"/>
<use data-text="e" xlink:href="#font_2_101" transform="matrix(27.777777,0,0,-27.777777,1133.1286,669.2274)"/>
<use data-text="e" xlink:href="#font_2_101" transform="matrix(27.777777,0,0,-27.777777,1150.2118,669.2274)"/>
<use data-text="p" xlink:href="#font_2_112" transform="matrix(27.777777,0,0,-27.777777,1167.2952,669.2274)"/>
<use data-text="e" xlink:href="#font_2_101" transform="matrix(27.777777,0,0,-27.777777,1184.9341,669.2274)"/>
<use data-text="s" xlink:href="#font_2_115" transform="matrix(27.777777,0,0,-27.777777,1202.0173,669.2274)"/>
<use data-text="t" xlink:href="#font_2_116" transform="matrix(27.777777,0,0,-27.777777,1216.4896,669.2274)"/>
<use data-text=" " xlink:href="#font_2_32" transform="matrix(27.777777,0,0,-27.777777,1227.3784,669.2274)"/>
<use data-text="D" xlink:href="#font_2_68" transform="matrix(27.777777,0,0,-27.777777,1236.2118,669.2274)"/>
<use data-text="e" xlink:href="#font_2_101" transform="matrix(27.777777,0,0,-27.777777,1257.6007,669.2274)"/>
<use data-text="s" xlink:href="#font_2_115" transform="matrix(27.777777,0,0,-27.777777,1274.6841,669.2274)"/>
<use data-text="c" xlink:href="#font_2_99" transform="matrix(27.777777,0,0,-27.777777,1289.1563,669.2274)"/>
<use data-text="e" xlink:href="#font_2_101" transform="matrix(27.777777,0,0,-27.777777,1304.4341,669.2274)"/>
<use data-text="n" xlink:href="#font_2_110" transform="matrix(27.777777,0,0,-27.777777,1321.5173,669.2274)"/>
<use data-text="t" xlink:href="#font_2_116" transform="matrix(27.777777,0,0,-27.777777,1339.1286,669.2274)"/>
</svg>
