<svg xmlns="http://www.w3.org/2000/svg" xmlns:xlink="http://www.w3.org/1999/xlink" version="1.1" width="769.33328pt" height="761.33328pt" viewBox="0 0 769.33328 761.33328">
<defs>
<clipPath id="clip_1">
<path transform="matrix(.6666666,0,0,.6666666,0,0)" d="M0 0H1154.9805V1143H0Z" fill-rule="evenodd"/>
</clipPath>
</defs>
<g clip-path="url(#clip_1)">
<path transform="matrix(1.9972389,0,0,1.9972389,-22.953038,-8.987575)" d="M197.5 320.00044 197.4975 317.00044 198.4975 316.99958 198.5 319.99958M197.495 314.00044 197.4925 311.00044 198.4925 310.99958 198.495 313.99958M197.49 308.00044 197.4875 305.00044 198.4875 304.99958 198.49 307.99958M197.485 302.00044 197.4825 299.00044 198.4825 298.99958 198.485 301.99958M197.48 296.00044 197.4775 293.00044 198.4775 292.99958 198.48 295.99958M197.47499 290.00044 197.4725 287.00044 198.4725 286.99958 198.47499 289.99958M197.47 284.00044 197.4675 281.00044 198.4675 280.99958 198.47 283.99958M197.465 278.00044 197.4625 275.00044 198.4625 274.99958 198.465 277.99958M197.45999 272.00044 197.45749 269.00047 198.45749 268.9996 198.45999 271.99958M197.455 266.00047 197.4525 263.00047 198.4525 262.9996 198.455 265.9996M197.45 260.00047 197.4475 257.00047 198.4475 256.9996 198.45 259.9996M197.44499 254.00045 197.44249 251.00045 198.44249 250.99962 198.44499 253.99962M197.43999 248.00045 197.4375 245.00045 198.4375 244.99962 198.43999 247.99962M197.435 242.00045 197.4325 239.00045 198.4325 238.99962 198.435 241.99962M197.43 236.00045V236.00041L198.43 235.99959V235.99962" fill="#d6d8d9"/>
<path transform="matrix(1.9972389,0,0,1.9972389,-22.953038,-8.987575)" d="M218.5 320.00047 218.4972 317.00047 219.4972 316.99955 219.5 319.99955M218.4944 314.00047 218.4916 311.00047 219.4916 310.99955 219.4944 313.99955M218.4888 308.00047 218.486 305.00047 219.486 304.99955 219.4888 307.99955M218.4832 302.00047 218.4804 299.00047 219.4804 298.99955 219.4832 301.99955M218.4776 296.00047 218.4748 293.00047 219.4748 292.99955 219.4776 295.99955M218.472 290.00047 218.4692 287.00047 219.4692 286.99955 219.472 289.99955M218.4664 284.00047 218.4636 281.00047 219.4636 280.99955 219.4664 283.99955M218.4608 278.0005 218.458 275.0005 219.458 274.99958 219.4608 277.99958M218.4552 272.0005 218.4524 269.0005 219.4524 268.99958 219.4552 271.99958M218.4496 266.0005 218.4468 263.0005 219.4468 262.99958 219.4496 265.99958M218.444 260.0005 218.4412 257.0005 219.4412 256.99958 219.444 259.99958M218.4384 254.0005 218.4356 251.0005 219.4356 250.99956 219.4384 253.99956M218.4328 248.0005 218.43 245.0005 219.43 244.99956 219.4328 247.99956" fill="#d6d8d9"/>
<path transform="matrix(1.9972389,0,0,1.9972389,-22.953038,-8.987575)" stroke-width="1" stroke-linecap="butt" stroke-miterlimit="10" stroke-linejoin="miter" fill="none" stroke="#ff6600" d="M102 371C155.33335 184.33333 208.66666 184.33333 262 371"/>
<path transform="matrix(1.9972389,0,0,1.9972389,-22.953038,-8.987575)" stroke-width="1" stroke-linecap="butt" stroke-miterlimit="10" stroke-linejoin="miter" fill="none" stroke="#ff6600" d="M140 104C193.33335 290.6667 246.66666 290.6667 300 104"/>
<path transform="matrix(1.9972389,0,0,1.9972389,-22.953038,-8.987575)" stroke-width="1" stroke-linecap="butt" stroke-miterlimit="10" stroke-linejoin="miter" fill="none" stroke="#000000" d="M80 331V56.37"/>
<path transform="matrix(1.9972389,0,0,1.9972389,-22.953038,-8.987575)" d="M80 51.12 82.33 58.12 80 56.37 77.67 58.12 80 51.12Z"/>
<path transform="matrix(1.9972389,0,0,1.9972389,-22.953038,-8.987575)" stroke-width="1" stroke-linecap="butt" stroke-miterlimit="10" stroke-linejoin="miter" fill="none" stroke="#000000" d="M80 51.12 82.33 58.12 80 56.37 77.67 58.12 80 51.12Z"/>
<path transform="matrix(1.9972389,0,0,1.9972389,-22.953038,-8.987575)" stroke-width="1" stroke-linecap="butt" stroke-miterlimit="10" stroke-linejoin="miter" fill="none" stroke="#000000" d="M70 320H363.63"/>
<path transform="matrix(1.9972389,0,0,1.9972389,-22.953038,-8.987575)" d="M368.88 320 361.88 322.33 363.63 320 361.88 317.67 368.88 320Z"/>
<path transform="matrix(1.9972389,0,0,1.9972389,-22.953038,-8.987575)" stroke-width="1" stroke-linecap="butt" stroke-miterlimit="10" stroke-linejoin="miter" fill="none" stroke="#000000" d="M368.88 320 361.88 322.33 363.63 320 361.88 317.67 368.88 320Z"/>
<path transform="matrix(.056671647,0,0,-.056671647,89.89095,674.8717)" d="M96 585C133.33335 639 184.33333 666 249 666 281 666 313 657.3333 345 640 377 622.6667 403 592 423 548 447.66667 492.66667 460 416.6667 460 320 460 216.66666 445.66667 137.66667 417 83 403.66667 55 385.33335 32.666669 362 16 338.66667-.66666796 318.33335-11 301-15 283.66667-19 266.66667-21.333334 250-22 232.66667-22 215.33333-20 198-16 180.66667-12 160.33333-1.333334 137 16 113.666667 33.333337 95.333339 55.666666 82 83 53.333333 137.66667 39 216.66666 39 320 39 436 58 524.3333 96 585ZM321 597C301 618.3333 277.33335 629 250 629 222 629 198 618.3333 178 597 161.33333 579.6667 150.33333 555.6667 145 525 139.66667 494.33335 137 430.33335 137 333 137 227.66666 139.66667 158.33335 145 125 150.33333 91.666667 162.33333 65.333339 181 46 199.66667 26 222.66667 16 250 16 276.66667 16 299.33335 26 318 46 337.33335 66 349.33335 94 354 130 358.66667 166 361.33335 233.66666 362 333 362 429.6667 359.33335 493.33335 354 524 348.66667 554.6667 337.66667 579 321 597Z"/>
<path transform="matrix(.056671647,0,0,-.056671647,89.89095,674.8717)" stroke-width="0" stroke-linecap="butt" stroke-miterlimit="4" stroke-linejoin="miter" fill="none" stroke="#000000" stroke-opacity=".0612" d="M96 585C133.33335 639 184.33333 666 249 666 281 666 313 657.3333 345 640 377 622.6667 403 592 423 548 447.66667 492.66667 460 416.6667 460 320 460 216.66666 445.66667 137.66667 417 83 403.66667 55 385.33335 32.666669 362 16 338.66667-.66666796 318.33335-11 301-15 283.66667-19 266.66667-21.333334 250-22 232.66667-22 215.33333-20 198-16 180.66667-12 160.33333-1.333334 137 16 113.666667 33.333337 95.333339 55.666666 82 83 53.333333 137.66667 39 216.66666 39 320 39 436 58 524.3333 96 585ZM321 597C301 618.3333 277.33335 629 250 629 222 629 198 618.3333 178 597 161.33333 579.6667 150.33333 555.6667 145 525 139.66667 494.33335 137 430.33335 137 333 137 227.66666 139.66667 158.33335 145 125 150.33333 91.666667 162.33333 65.333339 181 46 199.66667 26 222.66667 16 250 16 276.66667 16 299.33335 26 318 46 337.33335 66 349.33335 94 354 130 358.66667 166 361.33335 233.66666 362 333 362 429.6667 359.33335 493.33335 354 524 348.66667 554.6667 337.66667 579 321 597Z"/>
<path transform="matrix(.056671647,0,0,-.056671647,8.044733,116.40157)" d="M118-162C119.333339-162 121.333339-162.66667 124-164 126.666667-165.33333 130.33333-166.33333 135-167 139.66667-167.66667 143.66667-168 147-168 155.66667-168 163.66667-163.66667 171-155 178.33333-146.33333 183.66667-136.66667 187-126 193.66667-108 205-57 221 27 237 111 252.33333 191 267 267 281.66667 343 289 381.33335 289 382V385H242C210.66667 385 194 385.66667 192 387 189.33333 389 188 392.33335 188 397L195 425C196.33333 428.33335 199 430 203 430 207 430 222.66667 430.33335 250 431 282 431 298 431.33335 298 432 298 433.33335 301 450 307 482 313 514 317 533.3333 319 540 343.66667 650 392.3333 705 465 705 489.66667 703.6667 510 696.3333 526 683 542 669.6667 550 652 550 630 550 606 543 588.6667 529 578 515 567.3333 501 561.6667 487 561 457.66667 561 443 575 443 603 443 615.6667 446.66667 626.6667 454 636 461.33335 645.3333 469.33335 652.3333 478 657L487 662C476.33335 666 466.33335 668 457 668 449 668 441.33335 664.6667 434 658 426.66667 651.3333 421.66667 642 419 630 414.33335 610.6667 409 584.6667 403 552 397 519.3333 391.66667 491.66667 387 469 382.33335 446.33335 380 434.33335 380 433 380 431.66667 398.33335 431 435 431 465 431 482.33335 430.66667 487 430 491.66667 429.33335 495.33335 427.33335 498 424 498.66667 421.33335 498 415.66667 496 407 494 398.33335 492.33335 393 491 391 489.66667 387.66667 486.66667 386 482 386 477.33335 386 459.33335 385.66667 428 385H372L349 263C317 97.66666 294.66667-5.666664 282-47 264-103.66667 240.66667-145.66667 212-173 187.33333-194.33333 163-205 139-205 117.666667-205 98.333339-198.66667 81-186 63.666666-173.33333 55-155.33333 55-132 55-107.33333 62-89.333339 76-78 90-66.666667 104-61 118-61 147.33333-61 162-75 162-103 162-115.666667 158.33333-126.666667 151-136 143.66667-145.33333 135.66667-152.33333 127-157L118-162Z"/>
<path transform="matrix(.056671647,0,0,-.056671647,8.044733,116.40157)" stroke-width="0" stroke-linecap="butt" stroke-miterlimit="4" stroke-linejoin="miter" fill="none" stroke="#000000" stroke-opacity=".0612" d="M118-162C119.333339-162 121.333339-162.66667 124-164 126.666667-165.33333 130.33333-166.33333 135-167 139.66667-167.66667 143.66667-168 147-168 155.66667-168 163.66667-163.66667 171-155 178.33333-146.33333 183.66667-136.66667 187-126 193.66667-108 205-57 221 27 237 111 252.33333 191 267 267 281.66667 343 289 381.33335 289 382V385H242C210.66667 385 194 385.66667 192 387 189.33333 389 188 392.33335 188 397L195 425C196.33333 428.33335 199 430 203 430 207 430 222.66667 430.33335 250 431 282 431 298 431.33335 298 432 298 433.33335 301 450 307 482 313 514 317 533.3333 319 540 343.66667 650 392.3333 705 465 705 489.66667 703.6667 510 696.3333 526 683 542 669.6667 550 652 550 630 550 606 543 588.6667 529 578 515 567.3333 501 561.6667 487 561 457.66667 561 443 575 443 603 443 615.6667 446.66667 626.6667 454 636 461.33335 645.3333 469.33335 652.3333 478 657L487 662C476.33335 666 466.33335 668 457 668 449 668 441.33335 664.6667 434 658 426.66667 651.3333 421.66667 642 419 630 414.33335 610.6667 409 584.6667 403 552 397 519.3333 391.66667 491.66667 387 469 382.33335 446.33335 380 434.33335 380 433 380 431.66667 398.33335 431 435 431 465 431 482.33335 430.66667 487 430 491.66667 429.33335 495.33335 427.33335 498 424 498.66667 421.33335 498 415.66667 496 407 494 398.33335 492.33335 393 491 391 489.66667 387.66667 486.66667 386 482 386 477.33335 386 459.33335 385.66667 428 385H372L349 263C317 97.66666 294.66667-5.666664 282-47 264-103.66667 240.66667-145.66667 212-173 187.33333-194.33333 163-205 139-205 117.666667-205 98.333339-198.66667 81-186 63.666666-173.33333 55-155.33333 55-132 55-107.33333 62-89.333339 76-78 90-66.666667 104-61 118-61 147.33333-61 162-75 162-103 162-115.666667 158.33333-126.666667 151-136 143.66667-145.33333 135.66667-152.33333 127-157L118-162Z"/>
<path transform="matrix(.056671647,0,0,-.056671647,39.21414,116.40157)" d="M94 250C94 296 97.333339 339.66667 104 381 110.666667 422.33335 118.333339 458 127 488 135.66667 518 148 547.3333 164 576 180 604.6667 192.66667 627 202 643 211.33333 659 225.33333 676.3333 244 695 262.66667 713.6667 273.66667 725 277 729 280.33335 733 288.66667 740 302 750H315 319C328.33335 750 333 747 333 741 333 739 327.33335 732 316 720 304.66667 708 291 690.3333 275 667 259 643.6667 242.66667 615 226 581 209.33333 547 195.33333 501 184 443 172.66667 385 167 320.6667 167 250 167 179.33333 172.66667 115.333339 184 58 195.33333 .6666641 209-45.666666 225-81 241-116.333339 257.33335-145 274-167 290.66667-189 304.66667-206.66667 316-220 327.33335-233.33333 333-240.33333 333-241 333-247 328-250 318-250H315 302L274-226C211.33333-169.33333 165.66667-98.66667 137-14 108.33333 70.66667 94 158.66666 94 250Z"/>
<path transform="matrix(.056671647,0,0,-.056671647,39.21414,116.40157)" stroke-width="0" stroke-linecap="butt" stroke-miterlimit="4" stroke-linejoin="miter" fill="none" stroke="#000000" stroke-opacity=".0612" d="M94 250C94 296 97.333339 339.66667 104 381 110.666667 422.33335 118.333339 458 127 488 135.66667 518 148 547.3333 164 576 180 604.6667 192.66667 627 202 643 211.33333 659 225.33333 676.3333 244 695 262.66667 713.6667 273.66667 725 277 729 280.33335 733 288.66667 740 302 750H315 319C328.33335 750 333 747 333 741 333 739 327.33335 732 316 720 304.66667 708 291 690.3333 275 667 259 643.6667 242.66667 615 226 581 209.33333 547 195.33333 501 184 443 172.66667 385 167 320.6667 167 250 167 179.33333 172.66667 115.333339 184 58 195.33333 .6666641 209-45.666666 225-81 241-116.333339 257.33335-145 274-167 290.66667-189 304.66667-206.66667 316-220 327.33335-233.33333 333-240.33333 333-241 333-247 328-250 318-250H315 302L274-226C211.33333-169.33333 165.66667-98.66667 137-14 108.33333 70.66667 94 158.66666 94 250Z"/>
<path transform="matrix(.056671647,0,0,-.056671647,61.25941,116.40157)" d="M52 289C56.666669 317 74.666667 349.33335 106 386 137.33333 422.66667 176 441.33335 222 442 245.33333 442 266.66667 436 286 424 305.33335 412 319.66667 397 329 379 357 421 390.66667 442 430 442 454.66667 442 476 434.66667 494 420 512 405.33335 521.3333 385.66667 522 361 522 341.66667 517.3333 326 508 314 498.66667 302 489.66667 294.66667 481 292 472.33335 289.33335 464.66667 288 458 288 445.33335 288 435 291.66667 427 299 419 306.33335 415 316 415 328 415 358.66667 431.66667 379.66667 465 391 457.66667 399.66667 444.33335 404 425 404 416.33335 404 410 403.33335 406 402 380.66667 391.33335 362 369.33335 350 336 310 188.66666 290 102.66667 290 78 290 59.333333 295.33335 46 306 38 316.66667 30 328.33335 26 341 26 365.66667 26 390 37 414 59 438 81 454.33335 108 463 140 465 146.66667 467 150.33333 469 151 471 151.66667 476.33335 152.33333 485 153H489C499 153 504 150.33333 504 145 504 144.33333 503.33335 140.66667 502 134 491.33335 96 470.66667 62.333337 440 33 409.33335 3.666666 373.66667-11 333-11 286.33335-11 251 10 227 52 199.66667 10.666664 168.33335-10 133-10H127C94.33333-10 71-1.333334 57 16 43 33.333337 35.666669 51.666666 35 71 35 92.333339 41.333333 109.666667 54 123 66.666667 136.33333 81.666667 143 99 143 127.66667 143 142 129 142 101 142 87.666667 138 76 130 66 122 56 114.333339 49.333333 107 46 99.666667 42.666669 95.333339 41 94 41L91 40C91 39.333333 93 38 97 36 101 34 106.333339 31.666666 113 29 119.666667 26.333334 126 25.333334 132 26 156 26 176.66667 41 194 71 200 81.666667 207.66667 104.33333 217 139 226.33333 173.66667 235.66667 209.66666 245 247 254.33333 284.33335 259.66667 306.33335 261 313 264.33335 331 266 344 266 352 266 370.66667 261 384 251 392 241 400 229.66667 404 217 404 190.33333 404 165.33333 393.33335 142 372 118.666667 350.66667 102.333339 323.33335 93 290 91.666667 284 90 280.66667 88 280 86 279.33335 80.666667 278.66667 72 278H58C54 282 52 285.66667 52 289Z"/>
<path transform="matrix(.056671647,0,0,-.056671647,61.25941,116.40157)" stroke-width="0" stroke-linecap="butt" stroke-miterlimit="4" stroke-linejoin="miter" fill="none" stroke="#000000" stroke-opacity=".0612" d="M52 289C56.666669 317 74.666667 349.33335 106 386 137.33333 422.66667 176 441.33335 222 442 245.33333 442 266.66667 436 286 424 305.33335 412 319.66667 397 329 379 357 421 390.66667 442 430 442 454.66667 442 476 434.66667 494 420 512 405.33335 521.3333 385.66667 522 361 522 341.66667 517.3333 326 508 314 498.66667 302 489.66667 294.66667 481 292 472.33335 289.33335 464.66667 288 458 288 445.33335 288 435 291.66667 427 299 419 306.33335 415 316 415 328 415 358.66667 431.66667 379.66667 465 391 457.66667 399.66667 444.33335 404 425 404 416.33335 404 410 403.33335 406 402 380.66667 391.33335 362 369.33335 350 336 310 188.66666 290 102.66667 290 78 290 59.333333 295.33335 46 306 38 316.66667 30 328.33335 26 341 26 365.66667 26 390 37 414 59 438 81 454.33335 108 463 140 465 146.66667 467 150.33333 469 151 471 151.66667 476.33335 152.33333 485 153H489C499 153 504 150.33333 504 145 504 144.33333 503.33335 140.66667 502 134 491.33335 96 470.66667 62.333337 440 33 409.33335 3.666666 373.66667-11 333-11 286.33335-11 251 10 227 52 199.66667 10.666664 168.33335-10 133-10H127C94.33333-10 71-1.333334 57 16 43 33.333337 35.666669 51.666666 35 71 35 92.333339 41.333333 109.666667 54 123 66.666667 136.33333 81.666667 143 99 143 127.66667 143 142 129 142 101 142 87.666667 138 76 130 66 122 56 114.333339 49.333333 107 46 99.666667 42.666669 95.333339 41 94 41L91 40C91 39.333333 93 38 97 36 101 34 106.333339 31.666666 113 29 119.666667 26.333334 126 25.333334 132 26 156 26 176.66667 41 194 71 200 81.666667 207.66667 104.33333 217 139 226.33333 173.66667 235.66667 209.66666 245 247 254.33333 284.33335 259.66667 306.33335 261 313 264.33335 331 266 344 266 352 266 370.66667 261 384 251 392 241 400 229.66667 404 217 404 190.33333 404 165.33333 393.33335 142 372 118.666667 350.66667 102.333339 323.33335 93 290 91.666667 284 90 280.66667 88 280 86 279.33335 80.666667 278.66667 72 278H58C54 282 52 285.66667 52 289Z"/>
<path transform="matrix(.056671647,0,0,-.056671647,93.67559,116.40157)" d="M60 749 64 750C67.333339 750 70.666667 750 74 750H86L114 726C176.66667 669.3333 222.33333 598.6667 251 514 279.66667 429.3333 294 341.33335 294 250 294 204.66666 290.66667 161 284 119 277.33335 77 269.66667 41.333337 261 12 252.33333-17.333334 240-46.666666 224-76 208-105.333339 195.33333-127.666667 186-143 176.66667-158.33333 163-175.33333 145-194 127-212.66667 116.333339-223.66667 113-227 109.666667-230.33333 102-236.66667 90-246 88-248 86.666667-249.33333 86-250H74C68.666667-250 65-250 63-250 61-250 59.333333-249 58-247 56.666669-245 55.666669-242 55-238 55.666669-237.33333 59.333333-233 66-225 169.33335-117.666667 221 40.666658 221 250 221 459.33335 169.33335 617.6667 66 725 59.333333 733 55.666669 737.3333 55 738 55 743.3333 56.666669 747 60 749Z"/>
<path transform="matrix(.056671647,0,0,-.056671647,93.67559,116.40157)" stroke-width="0" stroke-linecap="butt" stroke-miterlimit="4" stroke-linejoin="miter" fill="none" stroke="#000000" stroke-opacity=".0612" d="M60 749 64 750C67.333339 750 70.666667 750 74 750H86L114 726C176.66667 669.3333 222.33333 598.6667 251 514 279.66667 429.3333 294 341.33335 294 250 294 204.66666 290.66667 161 284 119 277.33335 77 269.66667 41.333337 261 12 252.33333-17.333334 240-46.666666 224-76 208-105.333339 195.33333-127.666667 186-143 176.66667-158.33333 163-175.33333 145-194 127-212.66667 116.333339-223.66667 113-227 109.666667-230.33333 102-236.66667 90-246 88-248 86.666667-249.33333 86-250H74C68.666667-250 65-250 63-250 61-250 59.333333-249 58-247 56.666669-245 55.666669-242 55-238 55.666669-237.33333 59.333333-233 66-225 169.33335-117.666667 221 40.666658 221 250 221 459.33335 169.33335 617.6667 66 725 59.333333 733 55.666669 737.3333 55 738 55 743.3333 56.666669 747 60 749Z"/>
<path transform="matrix(.056685177,0,0,-.056685177,689.0626,676.1571)" d="M52 289C56.666669 317 74.666667 349.33335 106 386 137.33333 422.66667 176 441.33335 222 442 245.33333 442 266.66667 436 286 424 305.33335 412 319.66667 397 329 379 357 421 390.66667 442 430 442 454.66667 442 476 434.66667 494 420 512 405.33335 521.3333 385.66667 522 361 522 341.66667 517.3333 326 508 314 498.66667 302 489.66667 294.66667 481 292 472.33335 289.33335 464.66667 288 458 288 445.33335 288 435 291.66667 427 299 419 306.33335 415 316 415 328 415 358.66667 431.66667 379.66667 465 391 457.66667 399.66667 444.33335 404 425 404 416.33335 404 410 403.33335 406 402 380.66667 391.33335 362 369.33335 350 336 310 188.66666 290 102.66667 290 78 290 59.333333 295.33335 46 306 38 316.66667 30 328.33335 26 341 26 365.66667 26 390 37 414 59 438 81 454.33335 108 463 140 465 146.66667 467 150.33333 469 151 471 151.66667 476.33335 152.33333 485 153H489C499 153 504 150.33333 504 145 504 144.33333 503.33335 140.66667 502 134 491.33335 96 470.66667 62.333337 440 33 409.33335 3.666666 373.66667-11 333-11 286.33335-11 251 10 227 52 199.66667 10.666664 168.33335-10 133-10H127C94.33333-10 71-1.333334 57 16 43 33.333337 35.666669 51.666666 35 71 35 92.333339 41.333333 109.666667 54 123 66.666667 136.33333 81.666667 143 99 143 127.66667 143 142 129 142 101 142 87.666667 138 76 130 66 122 56 114.333339 49.333333 107 46 99.666667 42.666669 95.333339 41 94 41L91 40C91 39.333333 93 38 97 36 101 34 106.333339 31.666666 113 29 119.666667 26.333334 126 25.333334 132 26 156 26 176.66667 41 194 71 200 81.666667 207.66667 104.33333 217 139 226.33333 173.66667 235.66667 209.66666 245 247 254.33333 284.33335 259.66667 306.33335 261 313 264.33335 331 266 344 266 352 266 370.66667 261 384 251 392 241 400 229.66667 404 217 404 190.33333 404 165.33333 393.33335 142 372 118.666667 350.66667 102.333339 323.33335 93 290 91.666667 284 90 280.66667 88 280 86 279.33335 80.666667 278.66667 72 278H58C54 282 52 285.66667 52 289Z"/>
<path transform="matrix(.056685177,0,0,-.056685177,689.0626,676.1571)" stroke-width="0" stroke-linecap="butt" stroke-miterlimit="4" stroke-linejoin="miter" fill="none" stroke="#000000" stroke-opacity=".0612" d="M52 289C56.666669 317 74.666667 349.33335 106 386 137.33333 422.66667 176 441.33335 222 442 245.33333 442 266.66667 436 286 424 305.33335 412 319.66667 397 329 379 357 421 390.66667 442 430 442 454.66667 442 476 434.66667 494 420 512 405.33335 521.3333 385.66667 522 361 522 341.66667 517.3333 326 508 314 498.66667 302 489.66667 294.66667 481 292 472.33335 289.33335 464.66667 288 458 288 445.33335 288 435 291.66667 427 299 419 306.33335 415 316 415 328 415 358.66667 431.66667 379.66667 465 391 457.66667 399.66667 444.33335 404 425 404 416.33335 404 410 403.33335 406 402 380.66667 391.33335 362 369.33335 350 336 310 188.66666 290 102.66667 290 78 290 59.333333 295.33335 46 306 38 316.66667 30 328.33335 26 341 26 365.66667 26 390 37 414 59 438 81 454.33335 108 463 140 465 146.66667 467 150.33333 469 151 471 151.66667 476.33335 152.33333 485 153H489C499 153 504 150.33333 504 145 504 144.33333 503.33335 140.66667 502 134 491.33335 96 470.66667 62.333337 440 33 409.33335 3.666666 373.66667-11 333-11 286.33335-11 251 10 227 52 199.66667 10.666664 168.33335-10 133-10H127C94.33333-10 71-1.333334 57 16 43 33.333337 35.666669 51.666666 35 71 35 92.333339 41.333333 109.666667 54 123 66.666667 136.33333 81.666667 143 99 143 127.66667 143 142 129 142 101 142 87.666667 138 76 130 66 122 56 114.333339 49.333333 107 46 99.666667 42.666669 95.333339 41 94 41L91 40C91 39.333333 93 38 97 36 101 34 106.333339 31.666666 113 29 119.666667 26.333334 126 25.333334 132 26 156 26 176.66667 41 194 71 200 81.666667 207.66667 104.33333 217 139 226.33333 173.66667 235.66667 209.66666 245 247 254.33333 284.33335 259.66667 306.33335 261 313 264.33335 331 266 344 266 352 266 370.66667 261 384 251 392 241 400 229.66667 404 217 404 190.33333 404 165.33333 393.33335 142 372 118.666667 350.66667 102.333339 323.33335 93 290 91.666667 284 90 280.66667 88 280 86 279.33335 80.666667 278.66667 72 278H58C54 282 52 285.66667 52 289Z"/>
<path transform="matrix(1.9972389,0,0,1.9972389,-23.951655,-9.986194)" stroke-width="2" stroke-linecap="butt" stroke-miterlimit="10" stroke-linejoin="miter" fill="none" stroke="#000000" d="M360 120C353.33335 206.66667 323.33335 253.33333 270 260 216.66666 266.66667 166.66667 220 120 120"/>
<path transform="matrix(-1.9972389,0,0,1.9972389,767.9535,-8.987575)" d="M202 236C201.99999 236.53041 201.89849 237.04065 201.6955 237.5307 201.49251 238.02077 201.20349 238.45334 200.82842 238.82842 200.45334 239.20348 200.02077 239.49251 199.5307 239.6955 199.04065 239.89849 198.53041 239.99999 198 240 197.46956 239.99999 196.9593 239.89849 196.46924 239.6955 195.97919 239.49251 195.54663 239.20348 195.17156 238.82842 194.79648 238.45334 194.50745 238.02077 194.30446 237.5307 194.10147 237.04065 193.99999 236.53041 194 236 193.99999 235.46956 194.10147 234.9593 194.30446 234.46924 194.50745 233.97917 194.79648 233.54662 195.17156 233.17156 195.54663 232.79648 195.97919 232.50745 196.46924 232.30446 196.9593 232.10149 197.46956 232 198 232 198.53041 232 199.04065 232.10149 199.5307 232.30446 200.02077 232.50745 200.45334 232.79648 200.82842 233.17156 201.20349 233.54662 201.49251 233.97917 201.6955 234.46924 201.89849 234.9593 201.99999 235.46956 202 236Z"/>
<path transform="matrix(.056671647,0,0,-.056671647,12.047449,727.5566)" d="M92 210C92 187.33333 96.666667 167 106 149 115.333339 131 127.333339 117.333339 142 108 156.66667 98.666667 171 91 185 85 199 79 210.66667 74.666667 220 72L235 70 237 71 250 112C262 150.66667 273 183.66667 283 211 293 238.33333 306 267.66667 322 299 338 330.33335 354 355.66667 370 375 386 394.33335 405.66667 410.33335 429 423 452.33335 435.66667 476.66667 442 502 442 532 442 558.6667 431.33335 582 410 605.3333 388.66667 617.3333 352.66667 618 302 618 250 603.6667 200 575 152 546.3333 104 507 65 457 35 407 5 354.33335-10 299-10 281.66667-10 273-10.666667 273-12L266-48C262-71.333339 257.33335-97 252-125 246.66667-153 243-171 241-179 237.66667-195 229-206 215-212 207.66667-216 199.33333-218 190-218 169.33333-216 159-205 159-185 159-178.33333 177.33333-117.333339 214-2L209 0C205.66667 1.3333334 201 3 195 5 189 7 181.66667 10 173 14 164.33333 18 155.66667 22.666666 147 28 138.33333 33.333333 129.33333 39.333333 120 46 110.666667 52.666669 102 61 94 71 86 81 78.333339 91.666667 71 103 63.666669 114.333339 58.666669 127.333339 56 142 53.333333 156.66667 51.333333 172.66667 50 190 50 222 58.666666 262.33335 76 311 93.333339 359.66667 117.666667 399.66667 149 431H162C176 431 183 428.33335 183 423 183 419 180.33333 414.33335 175 409 147.66667 377 127.333339 340.66667 114 300 100.666667 259.33335 93.333339 229.33333 92 210ZM574 278C574 306 566 328 550 344 534 360 512.6667 368.33335 486 369 453.33335 369 422.66667 355.66667 394 329 365.33335 302.33335 341.66667 265.33335 323 218 313.66667 195.33333 304.33335 159 295 109L286 64C298 62.666669 304.66667 62 306 62 384 62 448 85 498 131 548 177 573.3333 226 574 278Z" fill="#ff6600"/>
<path transform="matrix(.056671647,0,0,-.056671647,12.047449,727.5566)" stroke-width="0" stroke-linecap="butt" stroke-miterlimit="4" stroke-linejoin="miter" fill="none" stroke="#ff6600" stroke-opacity=".0612" d="M92 210C92 187.33333 96.666667 167 106 149 115.333339 131 127.333339 117.333339 142 108 156.66667 98.666667 171 91 185 85 199 79 210.66667 74.666667 220 72L235 70 237 71 250 112C262 150.66667 273 183.66667 283 211 293 238.33333 306 267.66667 322 299 338 330.33335 354 355.66667 370 375 386 394.33335 405.66667 410.33335 429 423 452.33335 435.66667 476.66667 442 502 442 532 442 558.6667 431.33335 582 410 605.3333 388.66667 617.3333 352.66667 618 302 618 250 603.6667 200 575 152 546.3333 104 507 65 457 35 407 5 354.33335-10 299-10 281.66667-10 273-10.666667 273-12L266-48C262-71.333339 257.33335-97 252-125 246.66667-153 243-171 241-179 237.66667-195 229-206 215-212 207.66667-216 199.33333-218 190-218 169.33333-216 159-205 159-185 159-178.33333 177.33333-117.333339 214-2L209 0C205.66667 1.3333334 201 3 195 5 189 7 181.66667 10 173 14 164.33333 18 155.66667 22.666666 147 28 138.33333 33.333333 129.33333 39.333333 120 46 110.666667 52.666669 102 61 94 71 86 81 78.333339 91.666667 71 103 63.666669 114.333339 58.666669 127.333339 56 142 53.333333 156.66667 51.333333 172.66667 50 190 50 222 58.666666 262.33335 76 311 93.333339 359.66667 117.666667 399.66667 149 431H162C176 431 183 428.33335 183 423 183 419 180.33333 414.33335 175 409 147.66667 377 127.333339 340.66667 114 300 100.666667 259.33335 93.333339 229.33333 92 210ZM574 278C574 306 566 328 550 344 534 360 512.6667 368.33335 486 369 453.33335 369 422.66667 355.66667 394 329 365.33335 302.33335 341.66667 265.33335 323 218 313.66667 195.33333 304.33335 159 295 109L286 64C298 62.666669 304.66667 62 306 62 384 62 448 85 498 131 548 177 573.3333 226 574 278Z"/>
<path transform="matrix(.040066858,0,0,-.040066858,50.980875,736.0573)" d="M213 578 200 573C190.66667 569.6667 177.33333 566.3333 160 563 142.66667 559.6667 123.333339 557.3333 102 556H83V602H102C133.33333 603.3333 162.33333 608.3333 189 617 215.66667 625.6667 234.33333 633.6667 245 641 255.66667 648.3333 265 655.6667 273 663 274.33335 665 278.33335 666 285 666 291 666 296.66667 664 302 660V361L303 61C307.66667 56.333333 311.66667 53.333333 315 52 318.33335 50.666669 326.33335 49.333333 339 48 351.66667 46.666669 372.33335 46 401 46H427V0H416C402 2 349 3 257 3 166.33333 3 114 2 100 0H88V46H114C128.66667 46 141.33333 46 152 46 162.66667 46 171 46.333333 177 47 183 47.666669 188.33333 48.666669 193 50 197.66667 51.333333 200.33333 52 201 52 201.66667 52 203.66667 53.666669 207 57 210.33333 60.333333 212.33333 61.666669 213 61V578Z" fill="#ff6600"/>
<path transform="matrix(.040066858,0,0,-.040066858,50.980875,736.0573)" stroke-width="0" stroke-linecap="butt" stroke-miterlimit="4" stroke-linejoin="miter" fill="none" stroke="#ff6600" stroke-opacity=".0433" d="M213 578 200 573C190.66667 569.6667 177.33333 566.3333 160 563 142.66667 559.6667 123.333339 557.3333 102 556H83V602H102C133.33333 603.3333 162.33333 608.3333 189 617 215.66667 625.6667 234.33333 633.6667 245 641 255.66667 648.3333 265 655.6667 273 663 274.33335 665 278.33335 666 285 666 291 666 296.66667 664 302 660V361L303 61C307.66667 56.333333 311.66667 53.333333 315 52 318.33335 50.666669 326.33335 49.333333 339 48 351.66667 46.666669 372.33335 46 401 46H427V0H416C402 2 349 3 257 3 166.33333 3 114 2 100 0H88V46H114C128.66667 46 141.33333 46 152 46 162.66667 46 171 46.333333 177 47 183 47.666669 188.33333 48.666669 193 50 197.66667 51.333333 200.33333 52 201 52 201.66667 52 203.66667 53.666669 207 57 210.33333 60.333333 212.33333 61.666669 213 61V578Z"/>
<path transform="matrix(.056671647,0,0,-.056671647,73.853549,727.5566)" d="M94 250C94 296 97.333339 339.66667 104 381 110.666667 422.33335 118.333339 458 127 488 135.66667 518 148 547.3333 164 576 180 604.6667 192.66667 627 202 643 211.33333 659 225.33333 676.3333 244 695 262.66667 713.6667 273.66667 725 277 729 280.33335 733 288.66667 740 302 750H315 319C328.33335 750 333 747 333 741 333 739 327.33335 732 316 720 304.66667 708 291 690.3333 275 667 259 643.6667 242.66667 615 226 581 209.33333 547 195.33333 501 184 443 172.66667 385 167 320.6667 167 250 167 179.33333 172.66667 115.333339 184 58 195.33333 .6666641 209-45.666666 225-81 241-116.333339 257.33335-145 274-167 290.66667-189 304.66667-206.66667 316-220 327.33335-233.33333 333-240.33333 333-241 333-247 328-250 318-250H315 302L274-226C211.33333-169.33333 165.66667-98.66667 137-14 108.33333 70.66667 94 158.66666 94 250Z" fill="#ff6600"/>
<path transform="matrix(.056671647,0,0,-.056671647,73.853549,727.5566)" stroke-width="0" stroke-linecap="butt" stroke-miterlimit="4" stroke-linejoin="miter" fill="none" stroke="#ff6600" stroke-opacity=".0612" d="M94 250C94 296 97.333339 339.66667 104 381 110.666667 422.33335 118.333339 458 127 488 135.66667 518 148 547.3333 164 576 180 604.6667 192.66667 627 202 643 211.33333 659 225.33333 676.3333 244 695 262.66667 713.6667 273.66667 725 277 729 280.33335 733 288.66667 740 302 750H315 319C328.33335 750 333 747 333 741 333 739 327.33335 732 316 720 304.66667 708 291 690.3333 275 667 259 643.6667 242.66667 615 226 581 209.33333 547 195.33333 501 184 443 172.66667 385 167 320.6667 167 250 167 179.33333 172.66667 115.333339 184 58 195.33333 .6666641 209-45.666666 225-81 241-116.333339 257.33335-145 274-167 290.66667-189 304.66667-206.66667 316-220 327.33335-233.33333 333-240.33333 333-241 333-247 328-250 318-250H315 302L274-226C211.33333-169.33333 165.66667-98.66667 137-14 108.33333 70.66667 94 158.66666 94 250Z"/>
<path transform="matrix(.056671647,0,0,-.056671647,95.89882,727.5566)" d="M52 289C56.666669 317 74.666667 349.33335 106 386 137.33333 422.66667 176 441.33335 222 442 245.33333 442 266.66667 436 286 424 305.33335 412 319.66667 397 329 379 357 421 390.66667 442 430 442 454.66667 442 476 434.66667 494 420 512 405.33335 521.3333 385.66667 522 361 522 341.66667 517.3333 326 508 314 498.66667 302 489.66667 294.66667 481 292 472.33335 289.33335 464.66667 288 458 288 445.33335 288 435 291.66667 427 299 419 306.33335 415 316 415 328 415 358.66667 431.66667 379.66667 465 391 457.66667 399.66667 444.33335 404 425 404 416.33335 404 410 403.33335 406 402 380.66667 391.33335 362 369.33335 350 336 310 188.66666 290 102.66667 290 78 290 59.333333 295.33335 46 306 38 316.66667 30 328.33335 26 341 26 365.66667 26 390 37 414 59 438 81 454.33335 108 463 140 465 146.66667 467 150.33333 469 151 471 151.66667 476.33335 152.33333 485 153H489C499 153 504 150.33333 504 145 504 144.33333 503.33335 140.66667 502 134 491.33335 96 470.66667 62.333337 440 33 409.33335 3.666666 373.66667-11 333-11 286.33335-11 251 10 227 52 199.66667 10.666664 168.33335-10 133-10H127C94.33333-10 71-1.333334 57 16 43 33.333337 35.666669 51.666666 35 71 35 92.333339 41.333333 109.666667 54 123 66.666667 136.33333 81.666667 143 99 143 127.66667 143 142 129 142 101 142 87.666667 138 76 130 66 122 56 114.333339 49.333333 107 46 99.666667 42.666669 95.333339 41 94 41L91 40C91 39.333333 93 38 97 36 101 34 106.333339 31.666666 113 29 119.666667 26.333334 126 25.333334 132 26 156 26 176.66667 41 194 71 200 81.666667 207.66667 104.33333 217 139 226.33333 173.66667 235.66667 209.66666 245 247 254.33333 284.33335 259.66667 306.33335 261 313 264.33335 331 266 344 266 352 266 370.66667 261 384 251 392 241 400 229.66667 404 217 404 190.33333 404 165.33333 393.33335 142 372 118.666667 350.66667 102.333339 323.33335 93 290 91.666667 284 90 280.66667 88 280 86 279.33335 80.666667 278.66667 72 278H58C54 282 52 285.66667 52 289Z" fill="#ff6600"/>
<path transform="matrix(.056671647,0,0,-.056671647,95.89882,727.5566)" stroke-width="0" stroke-linecap="butt" stroke-miterlimit="4" stroke-linejoin="miter" fill="none" stroke="#ff6600" stroke-opacity=".0612" d="M52 289C56.666669 317 74.666667 349.33335 106 386 137.33333 422.66667 176 441.33335 222 442 245.33333 442 266.66667 436 286 424 305.33335 412 319.66667 397 329 379 357 421 390.66667 442 430 442 454.66667 442 476 434.66667 494 420 512 405.33335 521.3333 385.66667 522 361 522 341.66667 517.3333 326 508 314 498.66667 302 489.66667 294.66667 481 292 472.33335 289.33335 464.66667 288 458 288 445.33335 288 435 291.66667 427 299 419 306.33335 415 316 415 328 415 358.66667 431.66667 379.66667 465 391 457.66667 399.66667 444.33335 404 425 404 416.33335 404 410 403.33335 406 402 380.66667 391.33335 362 369.33335 350 336 310 188.66666 290 102.66667 290 78 290 59.333333 295.33335 46 306 38 316.66667 30 328.33335 26 341 26 365.66667 26 390 37 414 59 438 81 454.33335 108 463 140 465 146.66667 467 150.33333 469 151 471 151.66667 476.33335 152.33333 485 153H489C499 153 504 150.33333 504 145 504 144.33333 503.33335 140.66667 502 134 491.33335 96 470.66667 62.333337 440 33 409.33335 3.666666 373.66667-11 333-11 286.33335-11 251 10 227 52 199.66667 10.666664 168.33335-10 133-10H127C94.33333-10 71-1.333334 57 16 43 33.333337 35.666669 51.666666 35 71 35 92.333339 41.333333 109.666667 54 123 66.666667 136.33333 81.666667 143 99 143 127.66667 143 142 129 142 101 142 87.666667 138 76 130 66 122 56 114.333339 49.333333 107 46 99.666667 42.666669 95.333339 41 94 41L91 40C91 39.333333 93 38 97 36 101 34 106.333339 31.666666 113 29 119.666667 26.333334 126 25.333334 132 26 156 26 176.66667 41 194 71 200 81.666667 207.66667 104.33333 217 139 226.33333 173.66667 235.66667 209.66666 245 247 254.33333 284.33335 259.66667 306.33335 261 313 264.33335 331 266 344 266 352 266 370.66667 261 384 251 392 241 400 229.66667 404 217 404 190.33333 404 165.33333 393.33335 142 372 118.666667 350.66667 102.333339 323.33335 93 290 91.666667 284 90 280.66667 88 280 86 279.33335 80.666667 278.66667 72 278H58C54 282 52 285.66667 52 289Z"/>
<path transform="matrix(.040066858,0,0,-.040066858,130.18517,736.0573)" d="M121 647C121 653.6667 122.333339 661.3333 125 670 127.666667 678.6667 131.66667 683 137 683 137.66667 683 161.66666 684.6667 209 688 256.33335 691.3333 280.66667 693.3333 282 694 290 694 294 691.3333 294 686 294 681.3333 277.33335 611.6667 244 477 210.66666 345 194 276.66667 194 272 206.66667 278.66667 216.33333 285 223 291 239 303 262 324 292 354 322 384 345.33335 404.33335 362 415 388.66667 433 414 442 438 442 458 442 473.66667 435.66667 485 423 496.33335 410.33335 502.33335 392.33335 503 369 503 352.33335 500.66667 338.33335 496 327 491.33335 315.66667 485 307.33335 477 302 469 296.66667 462 293 456 291 450 289 444 288 438 288 424.66667 288 414 291.66667 406 299 398 306.33335 394 316 394 328 394 344.66667 399.33335 358.33335 410 369 420.66667 379.66667 431.33335 386.66667 442 390L458 393C450 401 442 405 434 405H430C408.66667 403 387.66667 394.66667 367 380 346.33335 365.33335 322 344 294 316 266 288 244 267.66667 228 255 229.33333 254.33333 234.33333 253.33333 243 252 251.66667 250.66667 259.66667 248.66667 267 246 274.33335 243.33333 283 240.66667 293 238 303 235.33333 312 230.66667 320 224 328 217.33333 335.33335 211.33333 342 206 348.66667 200.66667 354.33335 192 359 180 363.66667 168 365.66667 157 365 147 365 135.66667 363.33335 122 360 106 356.66667 90 354.66667 76.666667 354 66 354 39.333333 363 26 381 26 413 26 439 65.666667 459 145 460.33335 150.33333 467 153 479 153H483C493.66667 153 499 150 499 144 499 140.66667 498 136 496 130 468.66667 36 429.33335-11 378-11 348-11 323.66667-2.333334 305 15 286.33335 32.333337 277 57.333333 277 90 277 102 278 112.333339 280 121 282 129.66667 283 137.66667 283 145 283 159.66667 278.33335 172.33333 269 183 259.66667 193.66667 248 201.33333 234 206 220 210.66667 208.66667 214.33333 200 217 191.33333 219.66667 185.33333 220.66667 182 220H180C172 192 165 165 159 139 153 113 148.33333 93.666667 145 81 141.66667 68.333339 138.66667 56 136 44 133.33333 32 131 24 129 20 127 16 124.666667 11.666667 122 7 119.333339 2.333333 115.666667-.6666666 111-2 102.333339-8 93-11 83-11 71.666667-11 63-7.666667 57-1 51 5.666667 48 11.333333 48 16 48 22.666668 60.333333 76 85 176 109.66667 276 134 374.3333 158 471L195 616C195.66667 624.6667 193.33333 630 188 632 182.66667 634 169.66667 635.6667 149 637H144C137.33333 637 133 637 131 637 129 637 126.666667 638 124 640 121.333339 642 120.333339 644.3333 121 647Z" fill="#ff6600"/>
<path transform="matrix(.040066858,0,0,-.040066858,130.18517,736.0573)" stroke-width="0" stroke-linecap="butt" stroke-miterlimit="4" stroke-linejoin="miter" fill="none" stroke="#ff6600" stroke-opacity=".0433" d="M121 647C121 653.6667 122.333339 661.3333 125 670 127.666667 678.6667 131.66667 683 137 683 137.66667 683 161.66666 684.6667 209 688 256.33335 691.3333 280.66667 693.3333 282 694 290 694 294 691.3333 294 686 294 681.3333 277.33335 611.6667 244 477 210.66666 345 194 276.66667 194 272 206.66667 278.66667 216.33333 285 223 291 239 303 262 324 292 354 322 384 345.33335 404.33335 362 415 388.66667 433 414 442 438 442 458 442 473.66667 435.66667 485 423 496.33335 410.33335 502.33335 392.33335 503 369 503 352.33335 500.66667 338.33335 496 327 491.33335 315.66667 485 307.33335 477 302 469 296.66667 462 293 456 291 450 289 444 288 438 288 424.66667 288 414 291.66667 406 299 398 306.33335 394 316 394 328 394 344.66667 399.33335 358.33335 410 369 420.66667 379.66667 431.33335 386.66667 442 390L458 393C450 401 442 405 434 405H430C408.66667 403 387.66667 394.66667 367 380 346.33335 365.33335 322 344 294 316 266 288 244 267.66667 228 255 229.33333 254.33333 234.33333 253.33333 243 252 251.66667 250.66667 259.66667 248.66667 267 246 274.33335 243.33333 283 240.66667 293 238 303 235.33333 312 230.66667 320 224 328 217.33333 335.33335 211.33333 342 206 348.66667 200.66667 354.33335 192 359 180 363.66667 168 365.66667 157 365 147 365 135.66667 363.33335 122 360 106 356.66667 90 354.66667 76.666667 354 66 354 39.333333 363 26 381 26 413 26 439 65.666667 459 145 460.33335 150.33333 467 153 479 153H483C493.66667 153 499 150 499 144 499 140.66667 498 136 496 130 468.66667 36 429.33335-11 378-11 348-11 323.66667-2.333334 305 15 286.33335 32.333337 277 57.333333 277 90 277 102 278 112.333339 280 121 282 129.66667 283 137.66667 283 145 283 159.66667 278.33335 172.33333 269 183 259.66667 193.66667 248 201.33333 234 206 220 210.66667 208.66667 214.33333 200 217 191.33333 219.66667 185.33333 220.66667 182 220H180C172 192 165 165 159 139 153 113 148.33333 93.666667 145 81 141.66667 68.333339 138.66667 56 136 44 133.33333 32 131 24 129 20 127 16 124.666667 11.666667 122 7 119.333339 2.333333 115.666667-.6666666 111-2 102.333339-8 93-11 83-11 71.666667-11 63-7.666667 57-1 51 5.666667 48 11.333333 48 16 48 22.666668 60.333333 76 85 176 109.66667 276 134 374.3333 158 471L195 616C195.66667 624.6667 193.33333 630 188 632 182.66667 634 169.66667 635.6667 149 637H144C137.33333 637 133 637 131 637 129 637 126.666667 638 124 640 121.333339 642 120.333339 644.3333 121 647Z"/>
<path transform="matrix(.056671647,0,0,-.056671647,153.8966,727.5566)" d="M60 749 64 750C67.333339 750 70.666667 750 74 750H86L114 726C176.66667 669.3333 222.33333 598.6667 251 514 279.66667 429.3333 294 341.33335 294 250 294 204.66666 290.66667 161 284 119 277.33335 77 269.66667 41.333337 261 12 252.33333-17.333334 240-46.666666 224-76 208-105.333339 195.33333-127.666667 186-143 176.66667-158.33333 163-175.33333 145-194 127-212.66667 116.333339-223.66667 113-227 109.666667-230.33333 102-236.66667 90-246 88-248 86.666667-249.33333 86-250H74C68.666667-250 65-250 63-250 61-250 59.333333-249 58-247 56.666669-245 55.666669-242 55-238 55.666669-237.33333 59.333333-233 66-225 169.33335-117.666667 221 40.666658 221 250 221 459.33335 169.33335 617.6667 66 725 59.333333 733 55.666669 737.3333 55 738 55 743.3333 56.666669 747 60 749Z" fill="#ff6600"/>
<path transform="matrix(.056671647,0,0,-.056671647,153.8966,727.5566)" stroke-width="0" stroke-linecap="butt" stroke-miterlimit="4" stroke-linejoin="miter" fill="none" stroke="#ff6600" stroke-opacity=".0612" d="M60 749 64 750C67.333339 750 70.666667 750 74 750H86L114 726C176.66667 669.3333 222.33333 598.6667 251 514 279.66667 429.3333 294 341.33335 294 250 294 204.66666 290.66667 161 284 119 277.33335 77 269.66667 41.333337 261 12 252.33333-17.333334 240-46.666666 224-76 208-105.333339 195.33333-127.666667 186-143 176.66667-158.33333 163-175.33333 145-194 127-212.66667 116.333339-223.66667 113-227 109.666667-230.33333 102-236.66667 90-246 88-248 86.666667-249.33333 86-250H74C68.666667-250 65-250 63-250 61-250 59.333333-249 58-247 56.666669-245 55.666669-242 55-238 55.666669-237.33333 59.333333-233 66-225 169.33335-117.666667 221 40.666658 221 250 221 459.33335 169.33335 617.6667 66 725 59.333333 733 55.666669 737.3333 55 738 55 743.3333 56.666669 747 60 749Z"/>
<path transform="matrix(.056671647,0,0,-.056671647,503.3682,146.36016)" d="M92 210C92 187.33333 96.666667 167 106 149 115.333339 131 127.333339 117.333339 142 108 156.66667 98.666667 171 91 185 85 199 79 210.66667 74.666667 220 72L235 70 237 71 250 112C262 150.66667 273 183.66667 283 211 293 238.33333 306 267.66667 322 299 338 330.33335 354 355.66667 370 375 386 394.33335 405.66667 410.33335 429 423 452.33335 435.66667 476.66667 442 502 442 532 442 558.6667 431.33335 582 410 605.3333 388.66667 617.3333 352.66667 618 302 618 250 603.6667 200 575 152 546.3333 104 507 65 457 35 407 5 354.33335-10 299-10 281.66667-10 273-10.666667 273-12L266-48C262-71.333339 257.33335-97 252-125 246.66667-153 243-171 241-179 237.66667-195 229-206 215-212 207.66667-216 199.33333-218 190-218 169.33333-216 159-205 159-185 159-178.33333 177.33333-117.333339 214-2L209 0C205.66667 1.3333334 201 3 195 5 189 7 181.66667 10 173 14 164.33333 18 155.66667 22.666666 147 28 138.33333 33.333333 129.33333 39.333333 120 46 110.666667 52.666669 102 61 94 71 86 81 78.333339 91.666667 71 103 63.666669 114.333339 58.666669 127.333339 56 142 53.333333 156.66667 51.333333 172.66667 50 190 50 222 58.666666 262.33335 76 311 93.333339 359.66667 117.666667 399.66667 149 431H162C176 431 183 428.33335 183 423 183 419 180.33333 414.33335 175 409 147.66667 377 127.333339 340.66667 114 300 100.666667 259.33335 93.333339 229.33333 92 210ZM574 278C574 306 566 328 550 344 534 360 512.6667 368.33335 486 369 453.33335 369 422.66667 355.66667 394 329 365.33335 302.33335 341.66667 265.33335 323 218 313.66667 195.33333 304.33335 159 295 109L286 64C298 62.666669 304.66667 62 306 62 384 62 448 85 498 131 548 177 573.3333 226 574 278Z" fill="#ff6600"/>
<path transform="matrix(.056671647,0,0,-.056671647,503.3682,146.36016)" stroke-width="0" stroke-linecap="butt" stroke-miterlimit="4" stroke-linejoin="miter" fill="none" stroke="#ff6600" stroke-opacity=".0612" d="M92 210C92 187.33333 96.666667 167 106 149 115.333339 131 127.333339 117.333339 142 108 156.66667 98.666667 171 91 185 85 199 79 210.66667 74.666667 220 72L235 70 237 71 250 112C262 150.66667 273 183.66667 283 211 293 238.33333 306 267.66667 322 299 338 330.33335 354 355.66667 370 375 386 394.33335 405.66667 410.33335 429 423 452.33335 435.66667 476.66667 442 502 442 532 442 558.6667 431.33335 582 410 605.3333 388.66667 617.3333 352.66667 618 302 618 250 603.6667 200 575 152 546.3333 104 507 65 457 35 407 5 354.33335-10 299-10 281.66667-10 273-10.666667 273-12L266-48C262-71.333339 257.33335-97 252-125 246.66667-153 243-171 241-179 237.66667-195 229-206 215-212 207.66667-216 199.33333-218 190-218 169.33333-216 159-205 159-185 159-178.33333 177.33333-117.333339 214-2L209 0C205.66667 1.3333334 201 3 195 5 189 7 181.66667 10 173 14 164.33333 18 155.66667 22.666666 147 28 138.33333 33.333333 129.33333 39.333333 120 46 110.666667 52.666669 102 61 94 71 86 81 78.333339 91.666667 71 103 63.666669 114.333339 58.666669 127.333339 56 142 53.333333 156.66667 51.333333 172.66667 50 190 50 222 58.666666 262.33335 76 311 93.333339 359.66667 117.666667 399.66667 149 431H162C176 431 183 428.33335 183 423 183 419 180.33333 414.33335 175 409 147.66667 377 127.333339 340.66667 114 300 100.666667 259.33335 93.333339 229.33333 92 210ZM574 278C574 306 566 328 550 344 534 360 512.6667 368.33335 486 369 453.33335 369 422.66667 355.66667 394 329 365.33335 302.33335 341.66667 265.33335 323 218 313.66667 195.33333 304.33335 159 295 109L286 64C298 62.666669 304.66667 62 306 62 384 62 448 85 498 131 548 177 573.3333 226 574 278Z"/>
<path transform="matrix(.040066858,0,0,-.040066858,542.30166,154.8609)" d="M109 429C91 429 76.666667 435 66 447 55.333333 459 50 473.66667 50 491 50 538.3333 67.666667 579.3333 103 614 138.33335 648.6667 182.33333 666 235 666 295.66667 666 346.33335 647.3333 387 610 427.66667 572.6667 448.33335 524.3333 449 465 449 436.33335 442.33335 409 429 383 415.66667 357 399.66667 334.33335 381 315 362.33335 295.66667 335.66667 271 301 241 277 220.33333 243.66667 189.66667 201 149L142 93 218 92C322.6667 92 378.33335 93.666667 385 97 389.66667 98.333339 397.66667 128 409 186V189H449V186C448.33335 184 444 153.66667 436 95 428 36.333333 423 5.666667 421 3V0H50V19 31C50 35.666669 52 40.666669 56 46 60 51.333333 70 63 86 81 105.333339 102.333339 122 121 136 137 142 143.66667 153.33333 156 170 174 186.66667 192 198 204.33333 204 211 210 217.66667 219.66667 228.66667 233 244 246.33333 259.33335 255.66667 270.66667 261 278 266.33335 285.33335 274 295.33335 284 308 294 320.66667 301 331.33335 305 340 309 348.66667 314 358.33335 320 369 326 379.66667 330.33335 390.33335 333 401 335.66667 411.66667 338 421.66667 340 431 342 440.33335 343 451.33335 343 464 343 506 331.66667 542.3333 309 573 286.33335 603.6667 254 619 212 619 190 619 170.66667 613.3333 154 602 137.33333 590.6667 125.666667 579.6667 119 569 112.333339 558.3333 109 552 109 550 109 549.3333 110.666667 549 114 549 126 549 138.33333 544.3333 151 535 163.66667 525.6667 170 510.33335 170 489 170 472.33335 164.66667 458.33335 154 447 143.33333 435.66667 128.33333 429.66667 109 429Z" fill="#ff6600"/>
<path transform="matrix(.040066858,0,0,-.040066858,542.30166,154.8609)" stroke-width="0" stroke-linecap="butt" stroke-miterlimit="4" stroke-linejoin="miter" fill="none" stroke="#ff6600" stroke-opacity=".0433" d="M109 429C91 429 76.666667 435 66 447 55.333333 459 50 473.66667 50 491 50 538.3333 67.666667 579.3333 103 614 138.33335 648.6667 182.33333 666 235 666 295.66667 666 346.33335 647.3333 387 610 427.66667 572.6667 448.33335 524.3333 449 465 449 436.33335 442.33335 409 429 383 415.66667 357 399.66667 334.33335 381 315 362.33335 295.66667 335.66667 271 301 241 277 220.33333 243.66667 189.66667 201 149L142 93 218 92C322.6667 92 378.33335 93.666667 385 97 389.66667 98.333339 397.66667 128 409 186V189H449V186C448.33335 184 444 153.66667 436 95 428 36.333333 423 5.666667 421 3V0H50V19 31C50 35.666669 52 40.666669 56 46 60 51.333333 70 63 86 81 105.333339 102.333339 122 121 136 137 142 143.66667 153.33333 156 170 174 186.66667 192 198 204.33333 204 211 210 217.66667 219.66667 228.66667 233 244 246.33333 259.33335 255.66667 270.66667 261 278 266.33335 285.33335 274 295.33335 284 308 294 320.66667 301 331.33335 305 340 309 348.66667 314 358.33335 320 369 326 379.66667 330.33335 390.33335 333 401 335.66667 411.66667 338 421.66667 340 431 342 440.33335 343 451.33335 343 464 343 506 331.66667 542.3333 309 573 286.33335 603.6667 254 619 212 619 190 619 170.66667 613.3333 154 602 137.33333 590.6667 125.666667 579.6667 119 569 112.333339 558.3333 109 552 109 550 109 549.3333 110.666667 549 114 549 126 549 138.33333 544.3333 151 535 163.66667 525.6667 170 510.33335 170 489 170 472.33335 164.66667 458.33335 154 447 143.33333 435.66667 128.33333 429.66667 109 429Z"/>
<path transform="matrix(.056671647,0,0,-.056671647,565.17428,146.36016)" d="M94 250C94 296 97.333339 339.66667 104 381 110.666667 422.33335 118.333339 458 127 488 135.66667 518 148 547.3333 164 576 180 604.6667 192.66667 627 202 643 211.33333 659 225.33333 676.3333 244 695 262.66667 713.6667 273.66667 725 277 729 280.33335 733 288.66667 740 302 750H315 319C328.33335 750 333 747 333 741 333 739 327.33335 732 316 720 304.66667 708 291 690.3333 275 667 259 643.6667 242.66667 615 226 581 209.33333 547 195.33333 501 184 443 172.66667 385 167 320.6667 167 250 167 179.33333 172.66667 115.333339 184 58 195.33333 .6666641 209-45.666666 225-81 241-116.333339 257.33335-145 274-167 290.66667-189 304.66667-206.66667 316-220 327.33335-233.33333 333-240.33333 333-241 333-247 328-250 318-250H315 302L274-226C211.33333-169.33333 165.66667-98.66667 137-14 108.33333 70.66667 94 158.66666 94 250Z" fill="#ff6600"/>
<path transform="matrix(.056671647,0,0,-.056671647,565.17428,146.36016)" stroke-width="0" stroke-linecap="butt" stroke-miterlimit="4" stroke-linejoin="miter" fill="none" stroke="#ff6600" stroke-opacity=".0612" d="M94 250C94 296 97.333339 339.66667 104 381 110.666667 422.33335 118.333339 458 127 488 135.66667 518 148 547.3333 164 576 180 604.6667 192.66667 627 202 643 211.33333 659 225.33333 676.3333 244 695 262.66667 713.6667 273.66667 725 277 729 280.33335 733 288.66667 740 302 750H315 319C328.33335 750 333 747 333 741 333 739 327.33335 732 316 720 304.66667 708 291 690.3333 275 667 259 643.6667 242.66667 615 226 581 209.33333 547 195.33333 501 184 443 172.66667 385 167 320.6667 167 250 167 179.33333 172.66667 115.333339 184 58 195.33333 .6666641 209-45.666666 225-81 241-116.333339 257.33335-145 274-167 290.66667-189 304.66667-206.66667 316-220 327.33335-233.33333 333-240.33333 333-241 333-247 328-250 318-250H315 302L274-226C211.33333-169.33333 165.66667-98.66667 137-14 108.33333 70.66667 94 158.66666 94 250Z"/>
<path transform="matrix(.056671647,0,0,-.056671647,587.2195,146.36016)" d="M52 289C56.666669 317 74.666667 349.33335 106 386 137.33333 422.66667 176 441.33335 222 442 245.33333 442 266.66667 436 286 424 305.33335 412 319.66667 397 329 379 357 421 390.66667 442 430 442 454.66667 442 476 434.66667 494 420 512 405.33335 521.3333 385.66667 522 361 522 341.66667 517.3333 326 508 314 498.66667 302 489.66667 294.66667 481 292 472.33335 289.33335 464.66667 288 458 288 445.33335 288 435 291.66667 427 299 419 306.33335 415 316 415 328 415 358.66667 431.66667 379.66667 465 391 457.66667 399.66667 444.33335 404 425 404 416.33335 404 410 403.33335 406 402 380.66667 391.33335 362 369.33335 350 336 310 188.66666 290 102.66667 290 78 290 59.333333 295.33335 46 306 38 316.66667 30 328.33335 26 341 26 365.66667 26 390 37 414 59 438 81 454.33335 108 463 140 465 146.66667 467 150.33333 469 151 471 151.66667 476.33335 152.33333 485 153H489C499 153 504 150.33333 504 145 504 144.33333 503.33335 140.66667 502 134 491.33335 96 470.66667 62.333337 440 33 409.33335 3.666666 373.66667-11 333-11 286.33335-11 251 10 227 52 199.66667 10.666664 168.33335-10 133-10H127C94.33333-10 71-1.333334 57 16 43 33.333337 35.666669 51.666666 35 71 35 92.333339 41.333333 109.666667 54 123 66.666667 136.33333 81.666667 143 99 143 127.66667 143 142 129 142 101 142 87.666667 138 76 130 66 122 56 114.333339 49.333333 107 46 99.666667 42.666669 95.333339 41 94 41L91 40C91 39.333333 93 38 97 36 101 34 106.333339 31.666666 113 29 119.666667 26.333334 126 25.333334 132 26 156 26 176.66667 41 194 71 200 81.666667 207.66667 104.33333 217 139 226.33333 173.66667 235.66667 209.66666 245 247 254.33333 284.33335 259.66667 306.33335 261 313 264.33335 331 266 344 266 352 266 370.66667 261 384 251 392 241 400 229.66667 404 217 404 190.33333 404 165.33333 393.33335 142 372 118.666667 350.66667 102.333339 323.33335 93 290 91.666667 284 90 280.66667 88 280 86 279.33335 80.666667 278.66667 72 278H58C54 282 52 285.66667 52 289Z" fill="#ff6600"/>
<path transform="matrix(.056671647,0,0,-.056671647,587.2195,146.36016)" stroke-width="0" stroke-linecap="butt" stroke-miterlimit="4" stroke-linejoin="miter" fill="none" stroke="#ff6600" stroke-opacity=".0612" d="M52 289C56.666669 317 74.666667 349.33335 106 386 137.33333 422.66667 176 441.33335 222 442 245.33333 442 266.66667 436 286 424 305.33335 412 319.66667 397 329 379 357 421 390.66667 442 430 442 454.66667 442 476 434.66667 494 420 512 405.33335 521.3333 385.66667 522 361 522 341.66667 517.3333 326 508 314 498.66667 302 489.66667 294.66667 481 292 472.33335 289.33335 464.66667 288 458 288 445.33335 288 435 291.66667 427 299 419 306.33335 415 316 415 328 415 358.66667 431.66667 379.66667 465 391 457.66667 399.66667 444.33335 404 425 404 416.33335 404 410 403.33335 406 402 380.66667 391.33335 362 369.33335 350 336 310 188.66666 290 102.66667 290 78 290 59.333333 295.33335 46 306 38 316.66667 30 328.33335 26 341 26 365.66667 26 390 37 414 59 438 81 454.33335 108 463 140 465 146.66667 467 150.33333 469 151 471 151.66667 476.33335 152.33333 485 153H489C499 153 504 150.33333 504 145 504 144.33333 503.33335 140.66667 502 134 491.33335 96 470.66667 62.333337 440 33 409.33335 3.666666 373.66667-11 333-11 286.33335-11 251 10 227 52 199.66667 10.666664 168.33335-10 133-10H127C94.33333-10 71-1.333334 57 16 43 33.333337 35.666669 51.666666 35 71 35 92.333339 41.333333 109.666667 54 123 66.666667 136.33333 81.666667 143 99 143 127.66667 143 142 129 142 101 142 87.666667 138 76 130 66 122 56 114.333339 49.333333 107 46 99.666667 42.666669 95.333339 41 94 41L91 40C91 39.333333 93 38 97 36 101 34 106.333339 31.666666 113 29 119.666667 26.333334 126 25.333334 132 26 156 26 176.66667 41 194 71 200 81.666667 207.66667 104.33333 217 139 226.33333 173.66667 235.66667 209.66666 245 247 254.33333 284.33335 259.66667 306.33335 261 313 264.33335 331 266 344 266 352 266 370.66667 261 384 251 392 241 400 229.66667 404 217 404 190.33333 404 165.33333 393.33335 142 372 118.666667 350.66667 102.333339 323.33335 93 290 91.666667 284 90 280.66667 88 280 86 279.33335 80.666667 278.66667 72 278H58C54 282 52 285.66667 52 289Z"/>
<path transform="matrix(.040066858,0,0,-.040066858,621.50588,154.8609)" d="M121 647C121 653.6667 122.333339 661.3333 125 670 127.666667 678.6667 131.66667 683 137 683 137.66667 683 161.66666 684.6667 209 688 256.33335 691.3333 280.66667 693.3333 282 694 290 694 294 691.3333 294 686 294 681.3333 277.33335 611.6667 244 477 210.66666 345 194 276.66667 194 272 206.66667 278.66667 216.33333 285 223 291 239 303 262 324 292 354 322 384 345.33335 404.33335 362 415 388.66667 433 414 442 438 442 458 442 473.66667 435.66667 485 423 496.33335 410.33335 502.33335 392.33335 503 369 503 352.33335 500.66667 338.33335 496 327 491.33335 315.66667 485 307.33335 477 302 469 296.66667 462 293 456 291 450 289 444 288 438 288 424.66667 288 414 291.66667 406 299 398 306.33335 394 316 394 328 394 344.66667 399.33335 358.33335 410 369 420.66667 379.66667 431.33335 386.66667 442 390L458 393C450 401 442 405 434 405H430C408.66667 403 387.66667 394.66667 367 380 346.33335 365.33335 322 344 294 316 266 288 244 267.66667 228 255 229.33333 254.33333 234.33333 253.33333 243 252 251.66667 250.66667 259.66667 248.66667 267 246 274.33335 243.33333 283 240.66667 293 238 303 235.33333 312 230.66667 320 224 328 217.33333 335.33335 211.33333 342 206 348.66667 200.66667 354.33335 192 359 180 363.66667 168 365.66667 157 365 147 365 135.66667 363.33335 122 360 106 356.66667 90 354.66667 76.666667 354 66 354 39.333333 363 26 381 26 413 26 439 65.666667 459 145 460.33335 150.33333 467 153 479 153H483C493.66667 153 499 150 499 144 499 140.66667 498 136 496 130 468.66667 36 429.33335-11 378-11 348-11 323.66667-2.333334 305 15 286.33335 32.333337 277 57.333333 277 90 277 102 278 112.333339 280 121 282 129.66667 283 137.66667 283 145 283 159.66667 278.33335 172.33333 269 183 259.66667 193.66667 248 201.33333 234 206 220 210.66667 208.66667 214.33333 200 217 191.33333 219.66667 185.33333 220.66667 182 220H180C172 192 165 165 159 139 153 113 148.33333 93.666667 145 81 141.66667 68.333339 138.66667 56 136 44 133.33333 32 131 24 129 20 127 16 124.666667 11.666667 122 7 119.333339 2.333333 115.666667-.6666666 111-2 102.333339-8 93-11 83-11 71.666667-11 63-7.666667 57-1 51 5.666667 48 11.333333 48 16 48 22.666668 60.333333 76 85 176 109.66667 276 134 374.3333 158 471L195 616C195.66667 624.6667 193.33333 630 188 632 182.66667 634 169.66667 635.6667 149 637H144C137.33333 637 133 637 131 637 129 637 126.666667 638 124 640 121.333339 642 120.333339 644.3333 121 647Z" fill="#ff6600"/>
<path transform="matrix(.040066858,0,0,-.040066858,621.50588,154.8609)" stroke-width="0" stroke-linecap="butt" stroke-miterlimit="4" stroke-linejoin="miter" fill="none" stroke="#ff6600" stroke-opacity=".0433" d="M121 647C121 653.6667 122.333339 661.3333 125 670 127.666667 678.6667 131.66667 683 137 683 137.66667 683 161.66666 684.6667 209 688 256.33335 691.3333 280.66667 693.3333 282 694 290 694 294 691.3333 294 686 294 681.3333 277.33335 611.6667 244 477 210.66666 345 194 276.66667 194 272 206.66667 278.66667 216.33333 285 223 291 239 303 262 324 292 354 322 384 345.33335 404.33335 362 415 388.66667 433 414 442 438 442 458 442 473.66667 435.66667 485 423 496.33335 410.33335 502.33335 392.33335 503 369 503 352.33335 500.66667 338.33335 496 327 491.33335 315.66667 485 307.33335 477 302 469 296.66667 462 293 456 291 450 289 444 288 438 288 424.66667 288 414 291.66667 406 299 398 306.33335 394 316 394 328 394 344.66667 399.33335 358.33335 410 369 420.66667 379.66667 431.33335 386.66667 442 390L458 393C450 401 442 405 434 405H430C408.66667 403 387.66667 394.66667 367 380 346.33335 365.33335 322 344 294 316 266 288 244 267.66667 228 255 229.33333 254.33333 234.33333 253.33333 243 252 251.66667 250.66667 259.66667 248.66667 267 246 274.33335 243.33333 283 240.66667 293 238 303 235.33333 312 230.66667 320 224 328 217.33333 335.33335 211.33333 342 206 348.66667 200.66667 354.33335 192 359 180 363.66667 168 365.66667 157 365 147 365 135.66667 363.33335 122 360 106 356.66667 90 354.66667 76.666667 354 66 354 39.333333 363 26 381 26 413 26 439 65.666667 459 145 460.33335 150.33333 467 153 479 153H483C493.66667 153 499 150 499 144 499 140.66667 498 136 496 130 468.66667 36 429.33335-11 378-11 348-11 323.66667-2.333334 305 15 286.33335 32.333337 277 57.333333 277 90 277 102 278 112.333339 280 121 282 129.66667 283 137.66667 283 145 283 159.66667 278.33335 172.33333 269 183 259.66667 193.66667 248 201.33333 234 206 220 210.66667 208.66667 214.33333 200 217 191.33333 219.66667 185.33333 220.66667 182 220H180C172 192 165 165 159 139 153 113 148.33333 93.666667 145 81 141.66667 68.333339 138.66667 56 136 44 133.33333 32 131 24 129 20 127 16 124.666667 11.666667 122 7 119.333339 2.333333 115.666667-.6666666 111-2 102.333339-8 93-11 83-11 71.666667-11 63-7.666667 57-1 51 5.666667 48 11.333333 48 16 48 22.666668 60.333333 76 85 176 109.66667 276 134 374.3333 158 471L195 616C195.66667 624.6667 193.33333 630 188 632 182.66667 634 169.66667 635.6667 149 637H144C137.33333 637 133 637 131 637 129 637 126.666667 638 124 640 121.333339 642 120.333339 644.3333 121 647Z"/>
<path transform="matrix(.056671647,0,0,-.056671647,645.2173,146.36016)" d="M60 749 64 750C67.333339 750 70.666667 750 74 750H86L114 726C176.66667 669.3333 222.33333 598.6667 251 514 279.66667 429.3333 294 341.33335 294 250 294 204.66666 290.66667 161 284 119 277.33335 77 269.66667 41.333337 261 12 252.33333-17.333334 240-46.666666 224-76 208-105.333339 195.33333-127.666667 186-143 176.66667-158.33333 163-175.33333 145-194 127-212.66667 116.333339-223.66667 113-227 109.666667-230.33333 102-236.66667 90-246 88-248 86.666667-249.33333 86-250H74C68.666667-250 65-250 63-250 61-250 59.333333-249 58-247 56.666669-245 55.666669-242 55-238 55.666669-237.33333 59.333333-233 66-225 169.33335-117.666667 221 40.666658 221 250 221 459.33335 169.33335 617.6667 66 725 59.333333 733 55.666669 737.3333 55 738 55 743.3333 56.666669 747 60 749Z" fill="#ff6600"/>
<path transform="matrix(.056671647,0,0,-.056671647,645.2173,146.36016)" stroke-width="0" stroke-linecap="butt" stroke-miterlimit="4" stroke-linejoin="miter" fill="none" stroke="#ff6600" stroke-opacity=".0612" d="M60 749 64 750C67.333339 750 70.666667 750 74 750H86L114 726C176.66667 669.3333 222.33333 598.6667 251 514 279.66667 429.3333 294 341.33335 294 250 294 204.66666 290.66667 161 284 119 277.33335 77 269.66667 41.333337 261 12 252.33333-17.333334 240-46.666666 224-76 208-105.333339 195.33333-127.666667 186-143 176.66667-158.33333 163-175.33333 145-194 127-212.66667 116.333339-223.66667 113-227 109.666667-230.33333 102-236.66667 90-246 88-248 86.666667-249.33333 86-250H74C68.666667-250 65-250 63-250 61-250 59.333333-249 58-247 56.666669-245 55.666669-242 55-238 55.666669-237.33333 59.333333-233 66-225 169.33335-117.666667 221 40.666658 221 250 221 459.33335 169.33335 617.6667 66 725 59.333333 733 55.666669 737.3333 55 738 55 743.3333 56.666669 747 60 749Z"/>
<path transform="matrix(-1.9972389,0,0,1.9972389,851.8375,-8.987575)" d="M223 244C222.99999 244.53041 222.8985 245.04065 222.69551 245.53072 222.49251 246.02077 222.20348 246.45334 221.82842 246.82842 221.45334 247.20348 221.02079 247.4925 220.53072 247.69548 220.04065 247.89849 219.53041 247.99999 219 248 218.46956 247.99999 217.9593 247.89849 217.46926 247.6955 216.97919 247.49251 216.54662 247.20348 216.17156 246.82842 215.79648 246.45334 215.50745 246.02077 215.30446 245.53072 215.10147 245.04065 214.99999 244.53041 215 244 214.99999 243.46956 215.10147 242.9593 215.30446 242.46924 215.50745 241.97917 215.79648 241.54662 216.17156 241.17156 216.54662 240.79648 216.97917 240.50745 217.46924 240.30446 217.9593 240.10149 218.46956 240 219 240 219.53041 240 220.04065 240.10149 220.53072 240.30446 221.02079 240.50745 221.45334 240.79648 221.82842 241.17156 222.20348 241.54662 222.49251 241.97917 222.6955 242.46923 222.89849 242.95929 222.99999 243.46956 223 244Z"/>
<path transform="matrix(.05668706,0,0,-.05668706,333.5541,676.16287)" d="M52 289C56.666669 317 74.666667 349.33335 106 386 137.33333 422.66667 176 441.33335 222 442 245.33333 442 266.66667 436 286 424 305.33335 412 319.66667 397 329 379 357 421 390.66667 442 430 442 454.66667 442 476 434.66667 494 420 512 405.33335 521.3333 385.66667 522 361 522 341.66667 517.3333 326 508 314 498.66667 302 489.66667 294.66667 481 292 472.33335 289.33335 464.66667 288 458 288 445.33335 288 435 291.66667 427 299 419 306.33335 415 316 415 328 415 358.66667 431.66667 379.66667 465 391 457.66667 399.66667 444.33335 404 425 404 416.33335 404 410 403.33335 406 402 380.66667 391.33335 362 369.33335 350 336 310 188.66666 290 102.66667 290 78 290 59.333333 295.33335 46 306 38 316.66667 30 328.33335 26 341 26 365.66667 26 390 37 414 59 438 81 454.33335 108 463 140 465 146.66667 467 150.33333 469 151 471 151.66667 476.33335 152.33333 485 153H489C499 153 504 150.33333 504 145 504 144.33333 503.33335 140.66667 502 134 491.33335 96 470.66667 62.333337 440 33 409.33335 3.666666 373.66667-11 333-11 286.33335-11 251 10 227 52 199.66667 10.666664 168.33335-10 133-10H127C94.33333-10 71-1.333334 57 16 43 33.333337 35.666669 51.666666 35 71 35 92.333339 41.333333 109.666667 54 123 66.666667 136.33333 81.666667 143 99 143 127.66667 143 142 129 142 101 142 87.666667 138 76 130 66 122 56 114.333339 49.333333 107 46 99.666667 42.666669 95.333339 41 94 41L91 40C91 39.333333 93 38 97 36 101 34 106.333339 31.666666 113 29 119.666667 26.333334 126 25.333334 132 26 156 26 176.66667 41 194 71 200 81.666667 207.66667 104.33333 217 139 226.33333 173.66667 235.66667 209.66666 245 247 254.33333 284.33335 259.66667 306.33335 261 313 264.33335 331 266 344 266 352 266 370.66667 261 384 251 392 241 400 229.66667 404 217 404 190.33333 404 165.33333 393.33335 142 372 118.666667 350.66667 102.333339 323.33335 93 290 91.666667 284 90 280.66667 88 280 86 279.33335 80.666667 278.66667 72 278H58C54 282 52 285.66667 52 289Z"/>
<path transform="matrix(.05668706,0,0,-.05668706,333.5541,676.16287)" stroke-width="0" stroke-linecap="butt" stroke-miterlimit="4" stroke-linejoin="miter" fill="none" stroke="#000000" stroke-opacity=".0612" d="M52 289C56.666669 317 74.666667 349.33335 106 386 137.33333 422.66667 176 441.33335 222 442 245.33333 442 266.66667 436 286 424 305.33335 412 319.66667 397 329 379 357 421 390.66667 442 430 442 454.66667 442 476 434.66667 494 420 512 405.33335 521.3333 385.66667 522 361 522 341.66667 517.3333 326 508 314 498.66667 302 489.66667 294.66667 481 292 472.33335 289.33335 464.66667 288 458 288 445.33335 288 435 291.66667 427 299 419 306.33335 415 316 415 328 415 358.66667 431.66667 379.66667 465 391 457.66667 399.66667 444.33335 404 425 404 416.33335 404 410 403.33335 406 402 380.66667 391.33335 362 369.33335 350 336 310 188.66666 290 102.66667 290 78 290 59.333333 295.33335 46 306 38 316.66667 30 328.33335 26 341 26 365.66667 26 390 37 414 59 438 81 454.33335 108 463 140 465 146.66667 467 150.33333 469 151 471 151.66667 476.33335 152.33333 485 153H489C499 153 504 150.33333 504 145 504 144.33333 503.33335 140.66667 502 134 491.33335 96 470.66667 62.333337 440 33 409.33335 3.666666 373.66667-11 333-11 286.33335-11 251 10 227 52 199.66667 10.666664 168.33335-10 133-10H127C94.33333-10 71-1.333334 57 16 43 33.333337 35.666669 51.666666 35 71 35 92.333339 41.333333 109.666667 54 123 66.666667 136.33333 81.666667 143 99 143 127.66667 143 142 129 142 101 142 87.666667 138 76 130 66 122 56 114.333339 49.333333 107 46 99.666667 42.666669 95.333339 41 94 41L91 40C91 39.333333 93 38 97 36 101 34 106.333339 31.666666 113 29 119.666667 26.333334 126 25.333334 132 26 156 26 176.66667 41 194 71 200 81.666667 207.66667 104.33333 217 139 226.33333 173.66667 235.66667 209.66666 245 247 254.33333 284.33335 259.66667 306.33335 261 313 264.33335 331 266 344 266 352 266 370.66667 261 384 251 392 241 400 229.66667 404 217 404 190.33333 404 165.33333 393.33335 142 372 118.666667 350.66667 102.333339 323.33335 93 290 91.666667 284 90 280.66667 88 280 86 279.33335 80.666667 278.66667 72 278H58C54 282 52 285.66667 52 289Z"/>
<path transform="matrix(.040077758,0,0,-.040077758,367.84977,684.66586)" d="M121 647C121 653.6667 122.333339 661.3333 125 670 127.666667 678.6667 131.66667 683 137 683 137.66667 683 161.66666 684.6667 209 688 256.33335 691.3333 280.66667 693.3333 282 694 290 694 294 691.3333 294 686 294 681.3333 277.33335 611.6667 244 477 210.66666 345 194 276.66667 194 272 206.66667 278.66667 216.33333 285 223 291 239 303 262 324 292 354 322 384 345.33335 404.33335 362 415 388.66667 433 414 442 438 442 458 442 473.66667 435.66667 485 423 496.33335 410.33335 502.33335 392.33335 503 369 503 352.33335 500.66667 338.33335 496 327 491.33335 315.66667 485 307.33335 477 302 469 296.66667 462 293 456 291 450 289 444 288 438 288 424.66667 288 414 291.66667 406 299 398 306.33335 394 316 394 328 394 344.66667 399.33335 358.33335 410 369 420.66667 379.66667 431.33335 386.66667 442 390L458 393C450 401 442 405 434 405H430C408.66667 403 387.66667 394.66667 367 380 346.33335 365.33335 322 344 294 316 266 288 244 267.66667 228 255 229.33333 254.33333 234.33333 253.33333 243 252 251.66667 250.66667 259.66667 248.66667 267 246 274.33335 243.33333 283 240.66667 293 238 303 235.33333 312 230.66667 320 224 328 217.33333 335.33335 211.33333 342 206 348.66667 200.66667 354.33335 192 359 180 363.66667 168 365.66667 157 365 147 365 135.66667 363.33335 122 360 106 356.66667 90 354.66667 76.666667 354 66 354 39.333333 363 26 381 26 413 26 439 65.666667 459 145 460.33335 150.33333 467 153 479 153H483C493.66667 153 499 150 499 144 499 140.66667 498 136 496 130 468.66667 36 429.33335-11 378-11 348-11 323.66667-2.333334 305 15 286.33335 32.333337 277 57.333333 277 90 277 102 278 112.333339 280 121 282 129.66667 283 137.66667 283 145 283 159.66667 278.33335 172.33333 269 183 259.66667 193.66667 248 201.33333 234 206 220 210.66667 208.66667 214.33333 200 217 191.33333 219.66667 185.33333 220.66667 182 220H180C172 192 165 165 159 139 153 113 148.33333 93.666667 145 81 141.66667 68.333339 138.66667 56 136 44 133.33333 32 131 24 129 20 127 16 124.666667 11.666667 122 7 119.333339 2.333333 115.666667-.6666666 111-2 102.333339-8 93-11 83-11 71.666667-11 63-7.666667 57-1 51 5.666667 48 11.333333 48 16 48 22.666668 60.333333 76 85 176 109.66667 276 134 374.3333 158 471L195 616C195.66667 624.6667 193.33333 630 188 632 182.66667 634 169.66667 635.6667 149 637H144C137.33333 637 133 637 131 637 129 637 126.666667 638 124 640 121.333339 642 120.333339 644.3333 121 647Z"/>
<path transform="matrix(.040077758,0,0,-.040077758,367.84977,684.66586)" stroke-width="0" stroke-linecap="butt" stroke-miterlimit="4" stroke-linejoin="miter" fill="none" stroke="#000000" stroke-opacity=".0433" d="M121 647C121 653.6667 122.333339 661.3333 125 670 127.666667 678.6667 131.66667 683 137 683 137.66667 683 161.66666 684.6667 209 688 256.33335 691.3333 280.66667 693.3333 282 694 290 694 294 691.3333 294 686 294 681.3333 277.33335 611.6667 244 477 210.66666 345 194 276.66667 194 272 206.66667 278.66667 216.33333 285 223 291 239 303 262 324 292 354 322 384 345.33335 404.33335 362 415 388.66667 433 414 442 438 442 458 442 473.66667 435.66667 485 423 496.33335 410.33335 502.33335 392.33335 503 369 503 352.33335 500.66667 338.33335 496 327 491.33335 315.66667 485 307.33335 477 302 469 296.66667 462 293 456 291 450 289 444 288 438 288 424.66667 288 414 291.66667 406 299 398 306.33335 394 316 394 328 394 344.66667 399.33335 358.33335 410 369 420.66667 379.66667 431.33335 386.66667 442 390L458 393C450 401 442 405 434 405H430C408.66667 403 387.66667 394.66667 367 380 346.33335 365.33335 322 344 294 316 266 288 244 267.66667 228 255 229.33333 254.33333 234.33333 253.33333 243 252 251.66667 250.66667 259.66667 248.66667 267 246 274.33335 243.33333 283 240.66667 293 238 303 235.33333 312 230.66667 320 224 328 217.33333 335.33335 211.33333 342 206 348.66667 200.66667 354.33335 192 359 180 363.66667 168 365.66667 157 365 147 365 135.66667 363.33335 122 360 106 356.66667 90 354.66667 76.666667 354 66 354 39.333333 363 26 381 26 413 26 439 65.666667 459 145 460.33335 150.33333 467 153 479 153H483C493.66667 153 499 150 499 144 499 140.66667 498 136 496 130 468.66667 36 429.33335-11 378-11 348-11 323.66667-2.333334 305 15 286.33335 32.333337 277 57.333333 277 90 277 102 278 112.333339 280 121 282 129.66667 283 137.66667 283 145 283 159.66667 278.33335 172.33333 269 183 259.66667 193.66667 248 201.33333 234 206 220 210.66667 208.66667 214.33333 200 217 191.33333 219.66667 185.33333 220.66667 182 220H180C172 192 165 165 159 139 153 113 148.33333 93.666667 145 81 141.66667 68.333339 138.66667 56 136 44 133.33333 32 131 24 129 20 127 16 124.666667 11.666667 122 7 119.333339 2.333333 115.666667-.6666666 111-2 102.333339-8 93-11 83-11 71.666667-11 63-7.666667 57-1 51 5.666667 48 11.333333 48 16 48 22.666668 60.333333 76 85 176 109.66667 276 134 374.3333 158 471L195 616C195.66667 624.6667 193.33333 630 188 632 182.66667 634 169.66667 635.6667 149 637H144C137.33333 637 133 637 131 637 129 637 126.666667 638 124 640 121.333339 642 120.333339 644.3333 121 647Z"/>
<path transform="matrix(.056700455,0,0,-.056700455,401.4697,676.16146)" d="M52 289C56.666669 317 74.666667 349.33335 106 386 137.33333 422.66667 176 441.33335 222 442 245.33333 442 266.66667 436 286 424 305.33335 412 319.66667 397 329 379 357 421 390.66667 442 430 442 454.66667 442 476 434.66667 494 420 512 405.33335 521.3333 385.66667 522 361 522 341.66667 517.3333 326 508 314 498.66667 302 489.66667 294.66667 481 292 472.33335 289.33335 464.66667 288 458 288 445.33335 288 435 291.66667 427 299 419 306.33335 415 316 415 328 415 358.66667 431.66667 379.66667 465 391 457.66667 399.66667 444.33335 404 425 404 416.33335 404 410 403.33335 406 402 380.66667 391.33335 362 369.33335 350 336 310 188.66666 290 102.66667 290 78 290 59.333333 295.33335 46 306 38 316.66667 30 328.33335 26 341 26 365.66667 26 390 37 414 59 438 81 454.33335 108 463 140 465 146.66667 467 150.33333 469 151 471 151.66667 476.33335 152.33333 485 153H489C499 153 504 150.33333 504 145 504 144.33333 503.33335 140.66667 502 134 491.33335 96 470.66667 62.333337 440 33 409.33335 3.666666 373.66667-11 333-11 286.33335-11 251 10 227 52 199.66667 10.666664 168.33335-10 133-10H127C94.33333-10 71-1.333334 57 16 43 33.333337 35.666669 51.666666 35 71 35 92.333339 41.333333 109.666667 54 123 66.666667 136.33333 81.666667 143 99 143 127.66667 143 142 129 142 101 142 87.666667 138 76 130 66 122 56 114.333339 49.333333 107 46 99.666667 42.666669 95.333339 41 94 41L91 40C91 39.333333 93 38 97 36 101 34 106.333339 31.666666 113 29 119.666667 26.333334 126 25.333334 132 26 156 26 176.66667 41 194 71 200 81.666667 207.66667 104.33333 217 139 226.33333 173.66667 235.66667 209.66666 245 247 254.33333 284.33335 259.66667 306.33335 261 313 264.33335 331 266 344 266 352 266 370.66667 261 384 251 392 241 400 229.66667 404 217 404 190.33333 404 165.33333 393.33335 142 372 118.666667 350.66667 102.333339 323.33335 93 290 91.666667 284 90 280.66667 88 280 86 279.33335 80.666667 278.66667 72 278H58C54 282 52 285.66667 52 289Z"/>
<path transform="matrix(.056700455,0,0,-.056700455,401.4697,676.16146)" stroke-width="0" stroke-linecap="butt" stroke-miterlimit="4" stroke-linejoin="miter" fill="none" stroke="#000000" stroke-opacity=".0612" d="M52 289C56.666669 317 74.666667 349.33335 106 386 137.33333 422.66667 176 441.33335 222 442 245.33333 442 266.66667 436 286 424 305.33335 412 319.66667 397 329 379 357 421 390.66667 442 430 442 454.66667 442 476 434.66667 494 420 512 405.33335 521.3333 385.66667 522 361 522 341.66667 517.3333 326 508 314 498.66667 302 489.66667 294.66667 481 292 472.33335 289.33335 464.66667 288 458 288 445.33335 288 435 291.66667 427 299 419 306.33335 415 316 415 328 415 358.66667 431.66667 379.66667 465 391 457.66667 399.66667 444.33335 404 425 404 416.33335 404 410 403.33335 406 402 380.66667 391.33335 362 369.33335 350 336 310 188.66666 290 102.66667 290 78 290 59.333333 295.33335 46 306 38 316.66667 30 328.33335 26 341 26 365.66667 26 390 37 414 59 438 81 454.33335 108 463 140 465 146.66667 467 150.33333 469 151 471 151.66667 476.33335 152.33333 485 153H489C499 153 504 150.33333 504 145 504 144.33333 503.33335 140.66667 502 134 491.33335 96 470.66667 62.333337 440 33 409.33335 3.666666 373.66667-11 333-11 286.33335-11 251 10 227 52 199.66667 10.666664 168.33335-10 133-10H127C94.33333-10 71-1.333334 57 16 43 33.333337 35.666669 51.666666 35 71 35 92.333339 41.333333 109.666667 54 123 66.666667 136.33333 81.666667 143 99 143 127.66667 143 142 129 142 101 142 87.666667 138 76 130 66 122 56 114.333339 49.333333 107 46 99.666667 42.666669 95.333339 41 94 41L91 40C91 39.333333 93 38 97 36 101 34 106.333339 31.666666 113 29 119.666667 26.333334 126 25.333334 132 26 156 26 176.66667 41 194 71 200 81.666667 207.66667 104.33333 217 139 226.33333 173.66667 235.66667 209.66666 245 247 254.33333 284.33335 259.66667 306.33335 261 313 264.33335 331 266 344 266 352 266 370.66667 261 384 251 392 241 400 229.66667 404 217 404 190.33333 404 165.33333 393.33335 142 372 118.666667 350.66667 102.333339 323.33335 93 290 91.666667 284 90 280.66667 88 280 86 279.33335 80.666667 278.66667 72 278H58C54 282 52 285.66667 52 289Z"/>
<path transform="matrix(.040087224,0,0,-.040087224,435.77345,684.66647)" d="M121 647C121 653.6667 122.333339 661.3333 125 670 127.666667 678.6667 131.66667 683 137 683 137.66667 683 161.66666 684.6667 209 688 256.33335 691.3333 280.66667 693.3333 282 694 290 694 294 691.3333 294 686 294 681.3333 277.33335 611.6667 244 477 210.66666 345 194 276.66667 194 272 206.66667 278.66667 216.33333 285 223 291 239 303 262 324 292 354 322 384 345.33335 404.33335 362 415 388.66667 433 414 442 438 442 458 442 473.66667 435.66667 485 423 496.33335 410.33335 502.33335 392.33335 503 369 503 352.33335 500.66667 338.33335 496 327 491.33335 315.66667 485 307.33335 477 302 469 296.66667 462 293 456 291 450 289 444 288 438 288 424.66667 288 414 291.66667 406 299 398 306.33335 394 316 394 328 394 344.66667 399.33335 358.33335 410 369 420.66667 379.66667 431.33335 386.66667 442 390L458 393C450 401 442 405 434 405H430C408.66667 403 387.66667 394.66667 367 380 346.33335 365.33335 322 344 294 316 266 288 244 267.66667 228 255 229.33333 254.33333 234.33333 253.33333 243 252 251.66667 250.66667 259.66667 248.66667 267 246 274.33335 243.33333 283 240.66667 293 238 303 235.33333 312 230.66667 320 224 328 217.33333 335.33335 211.33333 342 206 348.66667 200.66667 354.33335 192 359 180 363.66667 168 365.66667 157 365 147 365 135.66667 363.33335 122 360 106 356.66667 90 354.66667 76.666667 354 66 354 39.333333 363 26 381 26 413 26 439 65.666667 459 145 460.33335 150.33333 467 153 479 153H483C493.66667 153 499 150 499 144 499 140.66667 498 136 496 130 468.66667 36 429.33335-11 378-11 348-11 323.66667-2.333334 305 15 286.33335 32.333337 277 57.333333 277 90 277 102 278 112.333339 280 121 282 129.66667 283 137.66667 283 145 283 159.66667 278.33335 172.33333 269 183 259.66667 193.66667 248 201.33333 234 206 220 210.66667 208.66667 214.33333 200 217 191.33333 219.66667 185.33333 220.66667 182 220H180C172 192 165 165 159 139 153 113 148.33333 93.666667 145 81 141.66667 68.333339 138.66667 56 136 44 133.33333 32 131 24 129 20 127 16 124.666667 11.666667 122 7 119.333339 2.333333 115.666667-.6666666 111-2 102.333339-8 93-11 83-11 71.666667-11 63-7.666667 57-1 51 5.666667 48 11.333333 48 16 48 22.666668 60.333333 76 85 176 109.66667 276 134 374.3333 158 471L195 616C195.66667 624.6667 193.33333 630 188 632 182.66667 634 169.66667 635.6667 149 637H144C137.33333 637 133 637 131 637 129 637 126.666667 638 124 640 121.333339 642 120.333339 644.3333 121 647Z"/>
<path transform="matrix(.040087224,0,0,-.040087224,435.77345,684.66647)" stroke-width="0" stroke-linecap="butt" stroke-miterlimit="4" stroke-linejoin="miter" fill="none" stroke="#000000" stroke-opacity=".0433" d="M121 647C121 653.6667 122.333339 661.3333 125 670 127.666667 678.6667 131.66667 683 137 683 137.66667 683 161.66666 684.6667 209 688 256.33335 691.3333 280.66667 693.3333 282 694 290 694 294 691.3333 294 686 294 681.3333 277.33335 611.6667 244 477 210.66666 345 194 276.66667 194 272 206.66667 278.66667 216.33333 285 223 291 239 303 262 324 292 354 322 384 345.33335 404.33335 362 415 388.66667 433 414 442 438 442 458 442 473.66667 435.66667 485 423 496.33335 410.33335 502.33335 392.33335 503 369 503 352.33335 500.66667 338.33335 496 327 491.33335 315.66667 485 307.33335 477 302 469 296.66667 462 293 456 291 450 289 444 288 438 288 424.66667 288 414 291.66667 406 299 398 306.33335 394 316 394 328 394 344.66667 399.33335 358.33335 410 369 420.66667 379.66667 431.33335 386.66667 442 390L458 393C450 401 442 405 434 405H430C408.66667 403 387.66667 394.66667 367 380 346.33335 365.33335 322 344 294 316 266 288 244 267.66667 228 255 229.33333 254.33333 234.33333 253.33333 243 252 251.66667 250.66667 259.66667 248.66667 267 246 274.33335 243.33333 283 240.66667 293 238 303 235.33333 312 230.66667 320 224 328 217.33333 335.33335 211.33333 342 206 348.66667 200.66667 354.33335 192 359 180 363.66667 168 365.66667 157 365 147 365 135.66667 363.33335 122 360 106 356.66667 90 354.66667 76.666667 354 66 354 39.333333 363 26 381 26 413 26 439 65.666667 459 145 460.33335 150.33333 467 153 479 153H483C493.66667 153 499 150 499 144 499 140.66667 498 136 496 130 468.66667 36 429.33335-11 378-11 348-11 323.66667-2.333334 305 15 286.33335 32.333337 277 57.333333 277 90 277 102 278 112.333339 280 121 282 129.66667 283 137.66667 283 145 283 159.66667 278.33335 172.33333 269 183 259.66667 193.66667 248 201.33333 234 206 220 210.66667 208.66667 214.33333 200 217 191.33333 219.66667 185.33333 220.66667 182 220H180C172 192 165 165 159 139 153 113 148.33333 93.666667 145 81 141.66667 68.333339 138.66667 56 136 44 133.33333 32 131 24 129 20 127 16 124.666667 11.666667 122 7 119.333339 2.333333 115.666667-.6666666 111-2 102.333339-8 93-11 83-11 71.666667-11 63-7.666667 57-1 51 5.666667 48 11.333333 48 16 48 22.666668 60.333333 76 85 176 109.66667 276 134 374.3333 158 471L195 616C195.66667 624.6667 193.33333 630 188 632 182.66667 634 169.66667 635.6667 149 637H144C137.33333 637 133 637 131 637 129 637 126.666667 638 124 640 121.333339 642 120.333339 644.3333 121 647Z"/>
<path transform="matrix(.040087224,0,0,-.040087224,456.65888,684.66647)" d="M56 237C56 237 56 241.33333 56 250 56 258.66667 60.666666 265.33335 70 270H369V420L370 570C376.66667 578.6667 383 583 389 583 397.66667 583 404.33335 578 409 568V270H707C717 264.66667 722 258 722 250 722 242 717 235.33333 707 230H409V-68C403.66667-77.333339 397.66667-82 391-82H389 387C379-82 373-77.333339 369-68V230H70C60.666666 234.66667 56 241.33333 56 250V237Z"/>
<path transform="matrix(.040087224,0,0,-.040087224,456.65888,684.66647)" stroke-width="0" stroke-linecap="butt" stroke-miterlimit="4" stroke-linejoin="miter" fill="none" stroke="#000000" stroke-opacity=".0433" d="M56 237C56 237 56 241.33333 56 250 56 258.66667 60.666666 265.33335 70 270H369V420L370 570C376.66667 578.6667 383 583 389 583 397.66667 583 404.33335 578 409 568V270H707C717 264.66667 722 258 722 250 722 242 717 235.33333 707 230H409V-68C403.66667-77.333339 397.66667-82 391-82H389 387C379-82 373-77.333339 369-68V230H70C60.666666 234.66667 56 241.33333 56 250V237Z"/>
<path transform="matrix(.040087224,0,0,-.040087224,487.84678,684.66647)" d="M213 578 200 573C190.66667 569.6667 177.33333 566.3333 160 563 142.66667 559.6667 123.333339 557.3333 102 556H83V602H102C133.33333 603.3333 162.33333 608.3333 189 617 215.66667 625.6667 234.33333 633.6667 245 641 255.66667 648.3333 265 655.6667 273 663 274.33335 665 278.33335 666 285 666 291 666 296.66667 664 302 660V361L303 61C307.66667 56.333333 311.66667 53.333333 315 52 318.33335 50.666669 326.33335 49.333333 339 48 351.66667 46.666669 372.33335 46 401 46H427V0H416C402 2 349 3 257 3 166.33333 3 114 2 100 0H88V46H114C128.66667 46 141.33333 46 152 46 162.66667 46 171 46.333333 177 47 183 47.666669 188.33333 48.666669 193 50 197.66667 51.333333 200.33333 52 201 52 201.66667 52 203.66667 53.666669 207 57 210.33333 60.333333 212.33333 61.666669 213 61V578Z"/>
<path transform="matrix(.040087224,0,0,-.040087224,487.84678,684.66647)" stroke-width="0" stroke-linecap="butt" stroke-miterlimit="4" stroke-linejoin="miter" fill="none" stroke="#000000" stroke-opacity=".0433" d="M213 578 200 573C190.66667 569.6667 177.33333 566.3333 160 563 142.66667 559.6667 123.333339 557.3333 102 556H83V602H102C133.33333 603.3333 162.33333 608.3333 189 617 215.66667 625.6667 234.33333 633.6667 245 641 255.66667 648.3333 265 655.6667 273 663 274.33335 665 278.33335 666 285 666 291 666 296.66667 664 302 660V361L303 61C307.66667 56.333333 311.66667 53.333333 315 52 318.33335 50.666669 326.33335 49.333333 339 48 351.66667 46.666669 372.33335 46 401 46H427V0H416C402 2 349 3 257 3 166.33333 3 114 2 100 0H88V46H114C128.66667 46 141.33333 46 152 46 162.66667 46 171 46.333333 177 47 183 47.666669 188.33333 48.666669 193 50 197.66667 51.333333 200.33333 52 201 52 201.66667 52 203.66667 53.666669 207 57 210.33333 60.333333 212.33333 61.666669 213 61V578Z"/>
</g>
</svg>
