<svg width="1319" height="780" xmlns="http://www.w3.org/2000/svg" xmlns:xlink="http://www.w3.org/1999/xlink" overflow="hidden"><defs><clipPath id="clip0"><path d="M-28-17 1291-17 1291 763-28 763Z" fill-rule="evenodd" clip-rule="evenodd"/></clipPath></defs><g clip-path="url(#clip0)" transform="translate(28 17)"><path d="M2-3.52606e-07 2.0001 591.532-1.9999 591.532-2 3.52606e-07ZM8.72766 580.539 0.0001047 595.5-8.72746 580.539C-9.28402 579.585-8.96174 578.36-8.00764 577.804-7.05354 577.247-5.8289 577.569-5.27234 578.523L1.72766 590.523-1.72745 590.523 5.27254 578.523C5.8291 577.569 7.05374 577.247 8.00784 577.804 8.96195 578.36 9.28422 579.585 8.72766 580.539Z" fill="#5B9BD5" transform="matrix(1 0 0 -1 109 682.491)"/><path d="M1.72762e-07-2 1211.43-1.9999 1211.43 2.0001-1.72762e-07 2ZM1200.44-8.72745 1215.4 0.000105056 1200.44 8.72766C1199.48 9.28422 1198.26 8.96195 1197.7 8.00784 1197.15 7.05374 1197.47 5.82911 1198.42 5.27254L1210.42-1.72745 1210.42 1.72766 1198.42-5.27234C1197.47-5.8289 1197.15-7.05353 1197.7-8.00764 1198.26-8.96174 1199.48-9.28401 1200.44-8.72745Z" fill="#5B9BD5" transform="matrix(1 0 0 -1 24 621)"/><text font-family="CMU Classical Serif,CMU Classical Serif_MSFontService,sans-serif" font-style="italic" font-weight="500" font-size="80" transform="translate(1204.95 686)">x<tspan x="-1184.37" y="-610">f</tspan>(x)</text><path d="M978.441 402.738C856.623 569.904 600.75 620.246 406.93 515.18 350.716 484.708 303.812 443.034 270.166 393.667" stroke="#5B9BD5" stroke-width="4" stroke-miterlimit="8" fill="none" fill-rule="evenodd"/><text font-family="Cambria Math,Cambria Math_MSFontService,sans-serif" font-weight="400" font-size="32" transform="translate(964.087 451)">𝜙<tspan font-size="23" x="21.0933" y="7">1</tspan><tspan x="35.92" y="0">(</tspan><tspan x="49.2534" y="0">𝑥</tspan><tspan x="67.22" y="0">)</tspan><tspan font-family="Open Sans,Open Sans_MSFontService,sans-serif" font-style="italic" x="22.6777" y="-348">f(x)</tspan></text><path d="M725.602 207.383C702.576 402.22 570.144 534.251 429.807 502.282 336.782 481.091 259.532 391.02 228.424 267.473" stroke="#70AD47" stroke-width="6" stroke-miterlimit="8" fill="none" fill-rule="evenodd"/><path d="M161 127.975C197.091 228.291 233.181 328.608 276.776 392.724 320.37 456.841 363.536 485.543 422.567 512.675 481.599 539.807 566.787 559.37 630.964 555.515 695.141 551.659 760.032 521.672 807.629 489.542 855.226 457.412 889.815 432.993 916.544 362.737 943.273 292.48 955.636 180.24 968 68" stroke="#ED7D31" stroke-width="6" stroke-miterlimit="8" fill="none" fill-rule="evenodd"/><rect x="279" y="613" width="81" height="106" fill="#FFFFFF" fill-opacity="0.278431"/><text font-family="CMU Classical Serif,CMU Classical Serif_MSFontService,sans-serif" font-style="italic" font-weight="500" font-size="80" transform="translate(288.277 685)">x<tspan font-size="53" x="37" y="19">k</tspan></text><path d="M304.5 441C304.5 432.44 311.44 425.5 320 425.5 328.56 425.5 335.5 432.44 335.5 441 335.5 449.56 328.56 456.5 320 456.5 311.44 456.5 304.5 449.56 304.5 441Z" stroke="#41719C" stroke-miterlimit="8" fill="#FF0000" fill-rule="evenodd"/><path d="M456.5 531C456.5 522.44 463.44 515.5 472 515.5 480.56 515.5 487.5 522.44 487.5 531 487.5 539.56 480.56 546.5 472 546.5 463.44 546.5 456.5 539.56 456.5 531Z" stroke="#41719C" stroke-miterlimit="8" fill="#FF0000" fill-rule="evenodd"/><rect x="430" y="613" width="151" height="106" fill="#FFFFFF" fill-opacity="0.278431"/><text font-family="CMU Classical Serif,CMU Classical Serif_MSFontService,sans-serif" font-style="italic" font-weight="500" font-size="80" transform="translate(440.05 685)">x<tspan font-size="53" x="37" y="19">k+1</tspan></text><path d="M0 0 0.857113 90.6169" stroke="#5B9BD5" stroke-width="6" stroke-miterlimit="8" stroke-dasharray="6 6" fill="none" fill-rule="evenodd" transform="matrix(-1 -8.74228e-08 -8.74228e-08 1 470.857 532)"/><path d="M319 451 319 612.8" stroke="#5B9BD5" stroke-width="6" stroke-miterlimit="8" stroke-dasharray="6 6" fill="none" fill-rule="evenodd"/><text font-family="Cambria Math,Cambria Math_MSFontService,sans-serif" font-weight="400" font-size="32" transform="translate(748.434 209)">𝜙<tspan font-size="23" x="21.8334" y="6">2</tspan><tspan x="36.66" y="0">(</tspan><tspan x="49.9933" y="0">𝑥</tspan><tspan x="67.96" y="0">)</tspan></text></g></svg>