<svg xmlns="http://www.w3.org/2000/svg" xmlns:xlink="http://www.w3.org/1999/xlink" version="1.1" width="600pt" height="600pt" viewBox="0 0 600 600">
<defs>
<clipPath id="clip_1">
<path transform="matrix(2.7777777,0,0,-2.7777777,0,600)" d="M38.27 41.96H205.2V174.14402H38.27Z"/>
</clipPath>
<g id="font_2_51">
<path transform="matrix(.001,0,0,.001,0,0)" d="M406 393C453 383 490 362 516 330 542 298 556 258 556 212 556 140 531 84 482 45 432 6 362-13 271-13 240-13 208-10 176-4 144 1 110 10 76 22V117C103 101 133 89 166 81 198 73 232 69 268 69 330 69 377 81 409 105 441 129 458 165 458 212 458 254 443 288 413 312 383 336 341 349 287 349H202V430H291C339 430 376 439 402 459 428 478 441 506 441 543 441 580 427 609 401 629 374 649 336 659 287 659 260 659 231 656 200 650 169 644 135 635 98 623V711C135 721 170 729 203 734 235 739 266 742 296 742 370 742 429 725 473 691 517 657 539 611 539 553 539 513 527 479 504 451 481 423 448 403 406 393Z"/>
</g>
<clipPath id="clip_3">
<path transform="matrix(.027777777,0,0,-.027777777,106.91816,523.98269)" d="M-1021-463H1794V1233H-1021Z"/>
</clipPath>
<clipPath id="clip_4">
<path transform="matrix(2.7777777,0,0,-2.7777777,0,600)" d="M38.27 41.96H205.2V174.14402H38.27Z"/>
</clipPath>
<g id="font_2_50">
<path transform="matrix(.001,0,0,.001,0,0)" d="M192 83H536V0H73V83C110 121 161 173 226 239 290 304 331 346 348 365 380 400 402 430 414 455 426 479 433 504 433 528 433 566 419 598 392 622 365 646 330 659 286 659 255 659 222 653 188 643 154 632 117 616 78 594V694C118 710 155 722 189 730 223 738 255 742 284 742 359 742 419 723 464 685 509 647 532 597 532 534 532 504 526 475 515 449 504 422 484 390 454 354 446 344 420 317 376 272 332 227 271 164 192 83Z"/>
</g>
<clipPath id="clip_5">
<path transform="matrix(.027777777,0,0,-.027777777,177.1749,523.98269)" d="M-1021-463H1794V1233H-1021Z"/>
</clipPath>
<clipPath id="clip_6">
<path transform="matrix(2.7777777,0,0,-2.7777777,0,600)" d="M38.27 41.96H205.2V174.14402H38.27Z"/>
</clipPath>
<g id="font_2_49">
<path transform="matrix(.001,0,0,.001,0,0)" d="M124 83H285V639L110 604V694L284 729H383V83H544V0H124V83Z"/>
</g>
<clipPath id="clip_7">
<path transform="matrix(.027777777,0,0,-.027777777,247.43163,523.98269)" d="M-1021-463H1794V1233H-1021Z"/>
</clipPath>
<clipPath id="clip_8">
<path transform="matrix(2.7777777,0,0,-2.7777777,0,600)" d="M38.27 41.96H205.2V174.14402H38.27Z"/>
</clipPath>
<g id="font_2_48">
<path transform="matrix(.001,0,0,.001,0,0)" d="M318 664C267 664 229 639 203 589 177 539 165 464 165 364 165 264 177 189 203 139 229 89 267 64 318 64 369 64 407 89 433 139 458 189 471 264 471 364 471 464 458 539 433 589 407 639 369 664 318 664ZM318 742C399 742 461 709 505 645 548 580 570 486 570 364 570 241 548 147 505 83 461 19 399-13 317-13 235-13 173 19 130 83 87 147 66 241 66 364 66 486 87 580 130 645 173 709 236 742 318 742Z"/>
</g>
<clipPath id="clip_9">
<path transform="matrix(2.7777777,0,0,-2.7777777,0,600)" d="M38.27 41.96H205.2V174.14402H38.27Z"/>
</clipPath>
<clipPath id="clip_10">
<path transform="matrix(2.7777777,0,0,-2.7777777,0,600)" d="M38.27 41.96H205.2V174.14402H38.27Z"/>
</clipPath>
<clipPath id="clip_11">
<path transform="matrix(2.7777777,0,0,-2.7777777,0,600)" d="M38.27 41.96H205.2V174.14402H38.27Z"/>
</clipPath>
<g id="font_2_120">
<path transform="matrix(.001,0,0,.001,0,0)" d="M549 547 351 281 559 0H453L294 215 135 0H29L241 286 47 547H153L298 352 443 547H549Z"/>
</g>
<clipPath id="clip_12">
<path transform="matrix(2.7777777,0,0,-2.7777777,0,600)" d="M38.27 41.96H205.2V174.14402H38.27Z"/>
</clipPath>
<clipPath id="clip_13">
<path transform="matrix(2.7777777,0,0,-2.7777777,0,600)" d="M38.27 41.96H205.2V174.14402H38.27Z"/>
</clipPath>
<clipPath id="clip_14">
<path transform="matrix(2.7777777,0,0,-2.7777777,0,600)" d="M38.27 41.96H205.2V174.14402H38.27Z"/>
</clipPath>
<g id="font_2_52">
<path transform="matrix(.001,0,0,.001,0,0)" d="M378 643 129 254H378V643ZM352 729H476V254H580V172H476V0H378V172H49V267L352 729Z"/>
</g>
<clipPath id="clip_15">
<path transform="matrix(2.7777777,0,0,-2.7777777,0,600)" d="M38.27 41.96H205.2V174.14402H38.27Z"/>
</clipPath>
<g id="font_2_54">
<path transform="matrix(.001,0,0,.001,0,0)" d="M330 404C286 404 251 388 225 358 199 328 186 286 186 234 186 181 199 139 225 109 251 79 286 64 330 64 374 64 409 79 435 109 461 139 474 181 474 234 474 286 461 328 435 358 409 388 374 404 330 404ZM526 713V623C501 635 476 644 451 650 425 656 400 659 376 659 310 659 260 637 226 593 192 549 172 482 168 394 187 422 211 444 240 459 269 474 301 482 336 482 409 482 467 459 509 415 551 371 573 310 573 234 573 159 550 99 506 54 462 9 403-13 330-13 246-13 181 19 137 83 92 147 70 241 70 364 70 479 97 571 152 639 206 707 280 742 372 742 396 742 421 739 447 735 472 730 498 723 526 713Z"/>
</g>
<clipPath id="clip_16">
<path transform="matrix(2.7777777,0,0,-2.7777777,0,600)" d="M38.27 41.96H205.2V174.14402H38.27Z"/>
</clipPath>
<g id="font_2_56">
<path transform="matrix(.001,0,0,.001,0,0)" d="M318 346C271 346 234 333 207 308 180 283 167 249 167 205 167 161 180 126 207 101 234 76 271 64 318 64 364 64 401 76 428 102 455 127 469 161 469 205 469 249 455 283 429 308 402 333 365 346 318 346ZM219 388C177 398 144 418 120 447 96 476 85 511 85 553 85 611 105 657 147 691 188 725 245 742 318 742 390 742 447 725 489 691 530 657 551 611 551 553 551 511 539 476 515 447 491 418 459 398 417 388 464 377 501 355 528 323 554 291 568 251 568 205 568 134 546 80 503 43 459 5 397-13 317-13 237-13 175 5 132 43 89 80 68 134 68 205 68 251 81 291 108 323 134 355 171 377 219 388ZM183 544C183 506 194 476 218 455 242 434 275 424 318 424 360 424 393 434 417 455 441 476 453 506 453 544 453 582 441 611 417 632 393 653 360 664 318 664 275 664 242 653 218 632 194 611 183 582 183 544Z"/>
</g>
<g id="font_2_102">
<path transform="matrix(.001,0,0,.001,0,0)" d="M371 760V685H285C253 685 230 678 218 665 205 652 199 629 199 595V547H347V477H199V0H109V477H23V547H109V585C109 645 123 690 151 718 179 746 224 760 286 760H371Z"/>
</g>
<g id="font_2_40">
<path transform="matrix(.001,0,0,.001,0,0)" d="M310 759C266 683 234 609 213 536 191 463 181 389 181 314 181 238 191 164 213 91 234 17 266-56 310-131H232C183-54 146 20 122 94 98 168 86 241 86 314 86 386 98 459 122 533 146 607 182 682 232 759H310Z"/>
</g>
<g id="font_2_41">
<path transform="matrix(.001,0,0,.001,0,0)" d="M80 759H158C206 682 243 607 267 533 291 459 304 386 304 314 304 241 291 168 267 94 243 20 206-54 158-131H80C123-56 155 17 177 91 198 164 209 238 209 314 209 389 198 463 177 536 155 609 123 683 80 759Z"/>
</g>
<clipPath id="clip_17">
<path transform="matrix(2.7777777,0,0,-2.7777777,0,600)" d="M38.27 41.96H205.2V174.14402H38.27Z"/>
</clipPath>
<g id="font_2_70">
<path transform="matrix(.001,0,0,.001,0,0)" d="M98 729H517V646H197V431H486V348H197V0H98V729Z"/>
</g>
<g id="font_2_117">
<path transform="matrix(.001,0,0,.001,0,0)" d="M85 216V547H175V219C175 167 185 129 205 103 225 77 255 64 296 64 344 64 383 79 411 110 439 141 453 183 453 237V547H543V0H453V84C431 50 405 26 377 10 348-5 315-13 277-13 214-13 166 6 134 45 101 83 85 140 85 216ZM311 560V560Z"/>
</g>
<g id="font_2_110">
<path transform="matrix(.001,0,0,.001,0,0)" d="M549 330V0H459V327C459 379 448 417 428 443 408 469 378 482 338 482 289 482 251 466 223 435 195 404 181 362 181 309V0H91V547H181V462C202 494 227 519 257 535 286 551 320 560 358 560 420 560 468 540 500 501 532 462 549 405 549 330Z"/>
</g>
<g id="font_2_99">
<path transform="matrix(.001,0,0,.001,0,0)" d="M488 526V442C462 456 437 466 411 473 385 480 360 484 334 484 276 484 230 465 198 428 166 391 150 339 150 273 150 206 166 154 198 117 230 80 276 62 334 62 360 62 385 65 411 72 437 79 462 90 488 104V21C462 9 436 0 410-5 383-10 354-13 324-13 242-13 176 12 128 64 79 115 55 185 55 273 55 362 79 432 128 483 177 534 244 560 330 560 358 560 385 557 411 551 437 545 463 537 488 526Z"/>
</g>
<g id="font_2_116">
<path transform="matrix(.001,0,0,.001,0,0)" d="M183 702V547H368V477H183V180C183 135 189 106 201 94 213 81 238 75 276 75H368V0H276C206 0 158 13 132 39 106 65 93 112 93 180V477H27V547H93V702H183Z"/>
</g>
<g id="font_2_105">
<path transform="matrix(.001,0,0,.001,0,0)" d="M94 547H184V0H94V547ZM94 760H184V646H94V760Z"/>
</g>
<g id="font_2_111">
<path transform="matrix(.001,0,0,.001,0,0)" d="M306 484C258 484 220 465 192 427 164 389 150 338 150 273 150 207 163 156 191 118 219 80 257 62 306 62 354 62 392 80 420 118 448 156 462 207 462 273 462 337 448 389 420 427 392 465 354 484 306 484ZM306 560C384 560 445 534 490 484 534 433 557 363 557 273 557 183 534 113 490 63 445 12 384-13 306-13 227-13 165 12 121 63 77 113 55 183 55 273 55 363 77 433 121 484 165 534 227 560 306 560Z"/>
</g>
<g id="font_2_44">
<path transform="matrix(.001,0,0,.001,0,0)" d="M117 124H220V40L140-115H77L117 40V124Z"/>
</g>
<g id="font_2_32">
</g>
<g id="font_2_104">
<path transform="matrix(.001,0,0,.001,0,0)" d="M549 330V0H459V327C459 379 448 417 428 443 408 469 378 482 338 482 289 482 251 466 223 435 195 404 181 362 181 309V0H91V760H181V462C202 494 227 519 257 535 286 551 320 560 358 560 420 560 468 540 500 501 532 462 549 405 549 330Z"/>
</g>
<g id="font_2_97">
<path transform="matrix(.001,0,0,.001,0,0)" d="M343 275C270 275 220 266 192 250 164 233 150 205 150 165 150 133 160 107 181 89 202 70 231 61 267 61 317 61 357 78 387 114 417 149 432 196 432 255V275H343ZM522 312V0H432V83C411 49 385 25 355 10 325-5 287-13 243-13 187-13 142 2 109 33 76 64 60 106 60 159 60 220 80 266 122 298 163 329 224 345 306 345H432V354C432 395 418 427 391 450 364 472 326 484 277 484 245 484 215 480 185 472 155 464 127 453 100 439V522C132 534 164 544 195 550 226 556 256 560 286 560 365 560 424 539 463 498 502 457 522 395 522 312Z"/>
</g>
<g id="font_2_115">
<path transform="matrix(.001,0,0,.001,0,0)" d="M443 531V446C417 458 391 468 364 475 336 481 308 485 279 485 234 485 200 478 178 464 156 450 145 430 145 403 145 382 153 366 169 354 185 342 217 330 265 320L296 313C360 299 405 279 432 255 458 230 472 195 472 151 472 100 452 60 412 31 372 1 316-13 246-13 216-13 186-10 154-5 122 0 89 8 54 20V113C87 95 120 82 152 74 184 65 216 61 248 61 290 61 323 68 346 82 368 96 380 117 380 144 380 168 371 187 355 200 339 213 303 226 247 238L216 245C160 257 119 275 95 299 70 323 58 356 58 399 58 450 76 490 112 518 148 546 200 560 268 560 301 560 332 557 362 552 391 547 418 540 443 531Z"/>
</g>
<g id="font_2_101">
<path transform="matrix(.001,0,0,.001,0,0)" d="M562 296V252H149C153 190 171 142 205 110 238 78 284 62 344 62 378 62 412 66 444 74 476 82 509 95 541 113V28C509 14 476 3 442-3 408-9 373-13 339-13 251-13 182 12 131 62 80 112 55 181 55 268 55 357 79 428 127 481 175 533 241 560 323 560 397 560 455 536 498 489 540 441 562 377 562 296ZM472 322C471 371 457 410 431 440 404 469 368 484 324 484 274 484 234 469 204 441 174 413 156 373 152 322H472Z"/>
</g>
<g id="font_2_80">
<path transform="matrix(.001,0,0,.001,0,0)" d="M197 648V374H321C367 374 402 385 427 409 452 433 465 467 465 511 465 555 452 588 427 612 402 636 367 648 321 648H197ZM98 729H321C402 729 464 710 506 673 548 636 569 582 569 511 569 439 548 384 506 348 464 311 402 293 321 293H197V0H98V729Z"/>
</g>
<g id="font_2_108">
<path transform="matrix(.001,0,0,.001,0,0)" d="M94 760H184V0H94V760Z"/>
</g>
<g id="font_2_121">
<path transform="matrix(.001,0,0,.001,0,0)" d="M322-50C296-114 271-157 247-177 223-197 191-207 151-207H79V-132H132C156-132 175-126 189-114 203-102 218-75 235-31L251 9 30 547H125L296 119 467 547H562L322-50Z"/>
</g>
<g id="font_2_107">
<path transform="matrix(.001,0,0,.001,0,0)" d="M91 760H181V311L449 547H564L274 291 576 0H459L181 267V0H91V760Z"/>
</g>
<g id="font_2_45">
<path transform="matrix(.001,0,0,.001,0,0)" d="M49 314H312V234H49V314Z"/>
</g>
<g id="font_2_76">
<path transform="matrix(.001,0,0,.001,0,0)" d="M98 729H197V83H552V0H98V729Z"/>
</g>
<g id="font_2_106">
<path transform="matrix(.001,0,0,.001,0,0)" d="M94 547H184V-9C184-78 170-128 144-160 117-191 74-207 16-207H-17V-131H6C40-131 63-123 75-107 87-91 94-58 94-9V547ZM94 760H184V646H94V760Z"/>
</g>
<g id="font_2_119">
<path transform="matrix(.001,0,0,.001,0,0)" d="M42 547H132L244 120 356 547H462L574 120 686 547H776L633 0H527L409 448 291 0H185L42 547Z"/>
</g>
<g id="font_2_122">
<path transform="matrix(.001,0,0,.001,0,0)" d="M55 547H482V465L144 72H482V0H43V82L381 475H55V547Z"/>
</g>
<g id="font_2_100">
<path transform="matrix(.001,0,0,.001,0,0)" d="M454 464V760H544V0H454V82C435 49 411 25 382 10 353-5 319-13 279-13 213-13 159 13 117 65 75 117 55 187 55 273 55 359 75 428 117 481 159 533 213 560 279 560 319 560 353 552 382 536 411 520 435 496 454 464ZM148 273C148 207 161 155 188 117 215 79 252 61 300 61 348 61 385 79 413 117 440 155 454 207 454 273 454 339 440 390 413 428 385 466 348 485 300 485 252 485 215 466 188 428 161 390 148 339 148 273Z"/>
</g>
<g id="font_18_102">
<path transform="matrix(.001,0,0,.001,0,0)" d="M478 760 464 685H378C345 685 321 678 307 665 292 652 281 629 274 595L264 547H412L399 477H251L158 0H68L161 477H75L88 547H174L181 585C193 649 215 695 246 721 277 747 326 760 393 760H478Z"/>
</g>
<g id="font_18_120">
<path transform="matrix(.001,0,0,.001,0,0)" d="M600 547 349 279 503 0H400L284 217 83 0H-25L243 288 100 547H203L308 349 491 547H600Z"/>
</g>
<g id="font_2_61">
<path transform="matrix(.001,0,0,.001,0,0)" d="M106 454H732V372H106V454ZM106 255H732V172H106V255Z"/>
</g>
<g id="font_2_43">
<path transform="matrix(.001,0,0,.001,0,0)" d="M460 627V355H732V272H460V0H378V272H106V355H378V627H460Z"/>
</g>
<g id="font_18_115">
<path transform="matrix(.001,0,0,.001,0,0)" d="M500 531 483 446C459 458 433 468 407 475 381 481 354 485 326 485 278 485 241 477 214 461 187 445 174 423 174 395 174 363 205 338 269 321 273 319 277 318 279 318L308 309C368 292 408 274 428 256 448 238 458 213 458 182 458 124 435 77 389 41 343 5 282-13 208-13 179-13 149-10 117-5 85 0 49 8 11 20L29 113C61 95 94 82 126 74 158 65 188 61 218 61 262 61 297 70 325 89 352 108 366 132 366 161 366 192 330 217 258 237L249 239 218 247C172 259 138 274 117 294 96 314 86 339 86 370 86 428 107 475 151 509 195 543 254 560 330 560 360 560 389 557 417 552 445 547 472 540 500 531Z"/>
</g>
<g id="font_18_105">
<path transform="matrix(.001,0,0,.001,0,0)" d="M183 760H273L251 646H161L183 760ZM142 547H232L125 0H35L142 547Z"/>
</g>
<g id="font_18_110">
<path transform="matrix(.001,0,0,.001,0,0)" d="M557 330 493 0H403L467 327C469 342 471 355 473 367 475 379 476 388 476 395 476 422 467 443 450 459 432 474 408 482 378 482 330 482 288 466 253 434 218 402 195 358 185 303L125 0H35L141 547H231L213 461C237 492 267 516 303 534 338 551 375 560 414 560 462 560 499 547 526 521 552 495 566 458 566 411 566 399 565 387 564 374 562 360 560 346 557 330Z"/>
</g>
</defs>
<path transform="matrix(2.7777777,0,0,-2.7777777,0,600)" d="M0 0H216V216H0Z" fill="#ffffff"/>
<path transform="matrix(2.7777777,0,0,-2.7777777,0,600)" d="M38.27 41.96H205.2V174.144H38.27Z" fill="#ffffff"/>
<g clip-path="url(#clip_1)">
<path transform="matrix(2.7777777,0,0,-2.7777777,0,600)" stroke-width=".8" stroke-linecap="butt" stroke-dasharray=".8,1.32" stroke-linejoin="round" fill="none" stroke="#b0b0b0" d="M45.857728 41.96V174.144"/>
</g>
<path transform="matrix(2.7777777,0,0,-2.7777777,0,600)" d="M45.857728 41.96V38.46"/>
<path transform="matrix(2.7777777,0,0,-2.7777777,0,600)" stroke-width=".8" stroke-linecap="butt" stroke-linejoin="round" fill="none" stroke="#000000" d="M45.857728 41.96V38.46"/>
<use data-text="3" xlink:href="#font_2_51" transform="matrix(27.777777,0,0,-27.777777,130.1929,523.98269)"/>
<g clip-path="url(#clip_3)">
<path transform="matrix(.027777777,0,0,-.027777777,106.91816,523.98269)" d="M106 355H732V272H106V355Z"/>
</g>
<g clip-path="url(#clip_4)">
<path transform="matrix(2.7777777,0,0,-2.7777777,0,600)" stroke-width=".8" stroke-linecap="butt" stroke-dasharray=".8,1.32" stroke-linejoin="round" fill="none" stroke="#b0b0b0" d="M71.150157 41.96V174.144"/>
</g>
<path transform="matrix(2.7777777,0,0,-2.7777777,0,600)" d="M71.150157 41.96V38.46"/>
<path transform="matrix(2.7777777,0,0,-2.7777777,0,600)" stroke-width=".8" stroke-linecap="butt" stroke-linejoin="round" fill="none" stroke="#000000" d="M71.150157 41.96V38.46"/>
<use data-text="2" xlink:href="#font_2_50" transform="matrix(27.777777,0,0,-27.777777,200.44963,523.98269)"/>
<g clip-path="url(#clip_5)">
<path transform="matrix(.027777777,0,0,-.027777777,177.1749,523.98269)" d="M106 355H732V272H106V355Z"/>
</g>
<g clip-path="url(#clip_6)">
<path transform="matrix(2.7777777,0,0,-2.7777777,0,600)" stroke-width=".8" stroke-linecap="butt" stroke-dasharray=".8,1.32" stroke-linejoin="round" fill="none" stroke="#b0b0b0" d="M96.44257 41.96V174.144"/>
</g>
<path transform="matrix(2.7777777,0,0,-2.7777777,0,600)" d="M96.44257 41.96V38.46"/>
<path transform="matrix(2.7777777,0,0,-2.7777777,0,600)" stroke-width=".8" stroke-linecap="butt" stroke-linejoin="round" fill="none" stroke="#000000" d="M96.44257 41.96V38.46"/>
<use data-text="1" xlink:href="#font_2_49" transform="matrix(27.777777,0,0,-27.777777,270.70637,523.98269)"/>
<g clip-path="url(#clip_7)">
<path transform="matrix(.027777777,0,0,-.027777777,247.43163,523.98269)" d="M106 355H732V272H106V355Z"/>
</g>
<g clip-path="url(#clip_8)">
<path transform="matrix(2.7777777,0,0,-2.7777777,0,600)" stroke-width=".8" stroke-linecap="butt" stroke-dasharray=".8,1.32" stroke-linejoin="round" fill="none" stroke="#b0b0b0" d="M121.735 41.96V174.144"/>
</g>
<path transform="matrix(2.7777777,0,0,-2.7777777,0,600)" d="M121.735 41.96V38.46"/>
<path transform="matrix(2.7777777,0,0,-2.7777777,0,600)" stroke-width=".8" stroke-linecap="butt" stroke-linejoin="round" fill="none" stroke="#000000" d="M121.735 41.96V38.46"/>
<use data-text="0" xlink:href="#font_2_48" transform="matrix(27.777777,0,0,-27.777777,329.3203,523.98269)"/>
<g clip-path="url(#clip_9)">
<path transform="matrix(2.7777777,0,0,-2.7777777,0,600)" stroke-width=".8" stroke-linecap="butt" stroke-dasharray=".8,1.32" stroke-linejoin="round" fill="none" stroke="#b0b0b0" d="M147.02742 41.96V174.144"/>
</g>
<path transform="matrix(2.7777777,0,0,-2.7777777,0,600)" d="M147.02742 41.96V38.46"/>
<path transform="matrix(2.7777777,0,0,-2.7777777,0,600)" stroke-width=".8" stroke-linecap="butt" stroke-linejoin="round" fill="none" stroke="#000000" d="M147.02742 41.96V38.46"/>
<use data-text="1" xlink:href="#font_2_49" transform="matrix(27.777777,0,0,-27.777777,399.57704,523.98269)"/>
<g clip-path="url(#clip_10)">
<path transform="matrix(2.7777777,0,0,-2.7777777,0,600)" stroke-width=".8" stroke-linecap="butt" stroke-dasharray=".8,1.32" stroke-linejoin="round" fill="none" stroke="#b0b0b0" d="M172.31986 41.96V174.144"/>
</g>
<path transform="matrix(2.7777777,0,0,-2.7777777,0,600)" d="M172.31986 41.96V38.46"/>
<path transform="matrix(2.7777777,0,0,-2.7777777,0,600)" stroke-width=".8" stroke-linecap="butt" stroke-linejoin="round" fill="none" stroke="#000000" d="M172.31986 41.96V38.46"/>
<use data-text="2" xlink:href="#font_2_50" transform="matrix(27.777777,0,0,-27.777777,469.83378,523.98269)"/>
<g clip-path="url(#clip_11)">
<path transform="matrix(2.7777777,0,0,-2.7777777,0,600)" stroke-width=".8" stroke-linecap="butt" stroke-dasharray=".8,1.32" stroke-linejoin="round" fill="none" stroke="#b0b0b0" d="M197.61228 41.96V174.144"/>
</g>
<path transform="matrix(2.7777777,0,0,-2.7777777,0,600)" d="M197.61228 41.96V38.46"/>
<path transform="matrix(2.7777777,0,0,-2.7777777,0,600)" stroke-width=".8" stroke-linecap="butt" stroke-linejoin="round" fill="none" stroke="#000000" d="M197.61228 41.96V38.46"/>
<use data-text="3" xlink:href="#font_2_51" transform="matrix(27.777777,0,0,-27.777777,540.0905,523.98269)"/>
<use data-text="x" xlink:href="#font_2_120" transform="matrix(27.777777,0,0,-27.777777,329.92796,561.96)"/>
<g clip-path="url(#clip_12)">
<path transform="matrix(2.7777777,0,0,-2.7777777,0,600)" stroke-width=".8" stroke-linecap="butt" stroke-dasharray=".8,1.32" stroke-linejoin="round" fill="none" stroke="#b0b0b0" d="M38.27 47.965364H205.2"/>
</g>
<path transform="matrix(2.7777777,0,0,-2.7777777,0,600)" d="M38.27 47.965364H34.77"/>
<path transform="matrix(2.7777777,0,0,-2.7777777,0,600)" stroke-width=".8" stroke-linecap="butt" stroke-linejoin="round" fill="none" stroke="#000000" d="M38.27 47.965364H34.77"/>
<use data-text="0" xlink:href="#font_2_48" transform="matrix(27.777777,0,0,-27.777777,69.19618,477.30976)"/>
<g clip-path="url(#clip_13)">
<path transform="matrix(2.7777777,0,0,-2.7777777,0,600)" stroke-width=".8" stroke-linecap="butt" stroke-dasharray=".8,1.32" stroke-linejoin="round" fill="none" stroke="#b0b0b0" d="M38.27 74.49377H205.2"/>
</g>
<path transform="matrix(2.7777777,0,0,-2.7777777,0,600)" d="M38.27 74.49377H34.77"/>
<path transform="matrix(2.7777777,0,0,-2.7777777,0,600)" stroke-width=".8" stroke-linecap="butt" stroke-linejoin="round" fill="none" stroke="#000000" d="M38.27 74.49377H34.77"/>
<use data-text="2" xlink:href="#font_2_50" transform="matrix(27.777777,0,0,-27.777777,69.19618,403.61973)"/>
<g clip-path="url(#clip_14)">
<path transform="matrix(2.7777777,0,0,-2.7777777,0,600)" stroke-width=".8" stroke-linecap="butt" stroke-dasharray=".8,1.32" stroke-linejoin="round" fill="none" stroke="#b0b0b0" d="M38.27 101.02217H205.2"/>
</g>
<path transform="matrix(2.7777777,0,0,-2.7777777,0,600)" d="M38.27 101.02217H34.77"/>
<path transform="matrix(2.7777777,0,0,-2.7777777,0,600)" stroke-width=".8" stroke-linecap="butt" stroke-linejoin="round" fill="none" stroke="#000000" d="M38.27 101.02217H34.77"/>
<use data-text="4" xlink:href="#font_2_52" transform="matrix(27.777777,0,0,-27.777777,69.19618,329.92973)"/>
<g clip-path="url(#clip_15)">
<path transform="matrix(2.7777777,0,0,-2.7777777,0,600)" stroke-width=".8" stroke-linecap="butt" stroke-dasharray=".8,1.32" stroke-linejoin="round" fill="none" stroke="#b0b0b0" d="M38.27 127.55057H205.2"/>
</g>
<path transform="matrix(2.7777777,0,0,-2.7777777,0,600)" d="M38.27 127.55057H34.77"/>
<path transform="matrix(2.7777777,0,0,-2.7777777,0,600)" stroke-width=".8" stroke-linecap="butt" stroke-linejoin="round" fill="none" stroke="#000000" d="M38.27 127.55057H34.77"/>
<use data-text="6" xlink:href="#font_2_54" transform="matrix(27.777777,0,0,-27.777777,69.19618,256.23976)"/>
<g clip-path="url(#clip_16)">
<path transform="matrix(2.7777777,0,0,-2.7777777,0,600)" stroke-width=".8" stroke-linecap="butt" stroke-dasharray=".8,1.32" stroke-linejoin="round" fill="none" stroke="#b0b0b0" d="M38.27 154.07897H205.2"/>
</g>
<path transform="matrix(2.7777777,0,0,-2.7777777,0,600)" d="M38.27 154.07897H34.77"/>
<path transform="matrix(2.7777777,0,0,-2.7777777,0,600)" stroke-width=".8" stroke-linecap="butt" stroke-linejoin="round" fill="none" stroke="#000000" d="M38.27 154.07897H34.77"/>
<use data-text="8" xlink:href="#font_2_56" transform="matrix(27.777777,0,0,-27.777777,69.19618,182.54975)"/>
<use data-text="f" xlink:href="#font_2_102" transform="matrix(0,-27.777777,-27.777777,-0,52.3125,323.81388)"/>
<use data-text="(" xlink:href="#font_2_40" transform="matrix(0,-27.777777,-27.777777,-0,52.3125,314.0361)"/>
<use data-text="x" xlink:href="#font_2_120" transform="matrix(0,-27.777777,-27.777777,-0,52.3125,303.20277)"/>
<use data-text=")" xlink:href="#font_2_41" transform="matrix(0,-27.777777,-27.777777,-0,52.3125,286.75834)"/>
<g clip-path="url(#clip_17)">
<path transform="matrix(2.7777777,0,0,-2.7777777,0,600)" stroke-width="2" stroke-linecap="square" stroke-linejoin="round" fill="none" stroke="#1f77b4" d="M45.857728 168.13564 47.759416 163.2752 49.6611 158.97226 51.562788 155.19394 53.46447 151.89894 55.366159 149.03839 57.26784 146.55707 59.16953 144.3945 61.451555 142.12957 64.49425 139.4802 71.72066 133.39937 74.00268 131.1467 76.284709 128.58899 78.56673 125.66613 80.84875 122.336849 83.130779 118.5801 85.412799 114.39575 88.07516 109.00238 91.11785 102.24975 94.92123 93.16068 104.42966 70.07213 107.09202 64.3238 109.37404 59.904916 111.27573 56.659456 113.177417 53.868 114.69876 51.992944 116.22011 50.458086 117.74146 49.279893 118.88247 48.638093 120.02348 48.20804 121.1645 47.992357H122.305507L123.44652 48.20804 124.58753 48.638093 125.72854 49.279893 126.86955 50.12954 128.3909 51.57663 129.91225 53.368379 131.4336 55.485647 133.33528 58.555498 135.23697 62.04834 137.519 66.71819 140.18135 72.69037 143.98473 81.85672 152.35214 102.24975 155.39484 109.00238 158.0572 114.39575 160.33924 118.5801 162.62125 122.336849 164.90328 125.66613 167.1853 128.58899 169.46732 131.1467 172.12969 133.75034 175.17238 136.37897 182.01845 142.12957 184.30048 144.3945 186.20217 146.55707 188.10384 149.03839 190.00553 151.89894 191.90721 155.19394 193.8089 158.97226 195.71059 163.2752 197.61228 168.13564"/>
</g>
<path transform="matrix(2.7777777,0,0,-2.7777777,0,600)" stroke-width=".8" stroke-linecap="square" stroke-miterlimit="10" stroke-linejoin="miter" fill="none" stroke="#000000" d="M38.27 41.96V174.144"/>
<path transform="matrix(2.7777777,0,0,-2.7777777,0,600)" stroke-width=".8" stroke-linecap="square" stroke-miterlimit="10" stroke-linejoin="miter" fill="none" stroke="#000000" d="M205.2 41.96V174.144"/>
<path transform="matrix(2.7777777,0,0,-2.7777777,0,600)" stroke-width=".8" stroke-linecap="square" stroke-miterlimit="10" stroke-linejoin="miter" fill="none" stroke="#000000" d="M38.27 41.96H205.2"/>
<path transform="matrix(2.7777777,0,0,-2.7777777,0,600)" stroke-width=".8" stroke-linecap="square" stroke-miterlimit="10" stroke-linejoin="miter" fill="none" stroke="#000000" d="M38.27 174.144H205.2"/>
<use data-text="F" xlink:href="#font_2_70" transform="matrix(33.333333,0,0,-33.333333,149.30728,62.238904)"/>
<use data-text="u" xlink:href="#font_2_117" transform="matrix(33.333333,0,0,-33.333333,166.65103,62.238904)"/>
<use data-text="n" xlink:href="#font_2_110" transform="matrix(33.333333,0,0,-33.333333,187.78437,62.238904)"/>
<use data-text="c" xlink:href="#font_2_99" transform="matrix(33.333333,0,0,-33.333333,208.9177,62.238904)"/>
<use data-text="t" xlink:href="#font_2_116" transform="matrix(33.333333,0,0,-33.333333,227.25104,62.238904)"/>
<use data-text="i" xlink:href="#font_2_105" transform="matrix(33.333333,0,0,-33.333333,240.3177,62.238904)"/>
<use data-text="o" xlink:href="#font_2_111" transform="matrix(33.333333,0,0,-33.333333,249.58438,62.238904)"/>
<use data-text="n" xlink:href="#font_2_110" transform="matrix(33.333333,0,0,-33.333333,269.98439,62.238904)"/>
<use data-text="," xlink:href="#font_2_44" transform="matrix(33.333333,0,0,-33.333333,291.11775,62.238904)"/>
<use data-text=" " xlink:href="#font_2_32" transform="matrix(33.333333,0,0,-33.333333,301.7177,62.238904)"/>
<use data-text="t" xlink:href="#font_2_116" transform="matrix(33.333333,0,0,-33.333333,312.31773,62.238904)"/>
<use data-text="h" xlink:href="#font_2_104" transform="matrix(33.333333,0,0,-33.333333,325.3844,62.238904)"/>
<use data-text="a" xlink:href="#font_2_97" transform="matrix(33.333333,0,0,-33.333333,346.51774,62.238904)"/>
<use data-text="t" xlink:href="#font_2_116" transform="matrix(33.333333,0,0,-33.333333,366.95109,62.238904)"/>
<use data-text=" " xlink:href="#font_2_32" transform="matrix(33.333333,0,0,-33.333333,380.01777,62.238904)"/>
<use data-text="s" xlink:href="#font_2_115" transform="matrix(33.333333,0,0,-33.333333,390.61775,62.238904)"/>
<use data-text="a" xlink:href="#font_2_97" transform="matrix(33.333333,0,0,-33.333333,407.9844,62.238904)"/>
<use data-text="t" xlink:href="#font_2_116" transform="matrix(33.333333,0,0,-33.333333,428.41777,62.238904)"/>
<use data-text="i" xlink:href="#font_2_105" transform="matrix(33.333333,0,0,-33.333333,441.48445,62.238904)"/>
<use data-text="s" xlink:href="#font_2_115" transform="matrix(33.333333,0,0,-33.333333,450.7511,62.238904)"/>
<use data-text="f" xlink:href="#font_2_102" transform="matrix(33.333333,0,0,-33.333333,468.11778,62.238904)"/>
<use data-text="i" xlink:href="#font_2_105" transform="matrix(33.333333,0,0,-33.333333,479.85108,62.238904)"/>
<use data-text="e" xlink:href="#font_2_101" transform="matrix(33.333333,0,0,-33.333333,489.11775,62.238904)"/>
<use data-text="s" xlink:href="#font_2_115" transform="matrix(33.333333,0,0,-33.333333,509.61778,62.238904)"/>
<use data-text=" " xlink:href="#font_2_32" transform="matrix(33.333333,0,0,-33.333333,91.386287,99.600009)"/>
<use data-text="P" xlink:href="#font_2_80" transform="matrix(33.333333,0,0,-33.333333,101.98628,99.600009)"/>
<use data-text="o" xlink:href="#font_2_111" transform="matrix(33.333333,0,0,-33.333333,120.91441,99.600009)"/>
<use data-text="l" xlink:href="#font_2_108" transform="matrix(33.333333,0,0,-33.333333,141.3144,99.600009)"/>
<use data-text="y" xlink:href="#font_2_121" transform="matrix(33.333333,0,0,-33.333333,150.58109,99.600009)"/>
<use data-text="a" xlink:href="#font_2_97" transform="matrix(33.333333,0,0,-33.333333,170.31443,99.600009)"/>
<use data-text="k" xlink:href="#font_2_107" transform="matrix(33.333333,0,0,-33.333333,190.74774,99.600009)"/>
<use data-text="-" xlink:href="#font_2_45" transform="matrix(33.333333,0,0,-33.333333,210.04775,99.600009)"/>
<use data-text=" " xlink:href="#font_2_32" transform="matrix(33.333333,0,0,-33.333333,222.08109,99.600009)"/>
<use data-text="L" xlink:href="#font_2_76" transform="matrix(33.333333,0,0,-33.333333,232.68109,99.600009)"/>
<use data-text="o" xlink:href="#font_2_111" transform="matrix(33.333333,0,0,-33.333333,250.68354,99.600009)"/>
<use data-text="j" xlink:href="#font_2_106" transform="matrix(33.333333,0,0,-33.333333,271.08354,99.600009)"/>
<use data-text="a" xlink:href="#font_2_97" transform="matrix(33.333333,0,0,-33.333333,280.3502,99.600009)"/>
<use data-text="s" xlink:href="#font_2_115" transform="matrix(33.333333,0,0,-33.333333,300.78355,99.600009)"/>
<use data-text="i" xlink:href="#font_2_105" transform="matrix(33.333333,0,0,-33.333333,318.15019,99.600009)"/>
<use data-text="e" xlink:href="#font_2_101" transform="matrix(33.333333,0,0,-33.333333,327.41685,99.600009)"/>
<use data-text="w" xlink:href="#font_2_119" transform="matrix(33.333333,0,0,-33.333333,347.91685,99.600009)"/>
<use data-text="i" xlink:href="#font_2_105" transform="matrix(33.333333,0,0,-33.333333,375.18354,99.600009)"/>
<use data-text="c" xlink:href="#font_2_99" transform="matrix(33.333333,0,0,-33.333333,384.4502,99.600009)"/>
<use data-text="z" xlink:href="#font_2_122" transform="matrix(33.333333,0,0,-33.333333,402.7835,99.600009)"/>
<use data-text=" " xlink:href="#font_2_32" transform="matrix(33.333333,0,0,-33.333333,420.2835,99.600009)"/>
<use data-text="c" xlink:href="#font_2_99" transform="matrix(33.333333,0,0,-33.333333,430.8835,99.600009)"/>
<use data-text="o" xlink:href="#font_2_111" transform="matrix(33.333333,0,0,-33.333333,449.2169,99.600009)"/>
<use data-text="n" xlink:href="#font_2_110" transform="matrix(33.333333,0,0,-33.333333,469.61686,99.600009)"/>
<use data-text="d" xlink:href="#font_2_100" transform="matrix(33.333333,0,0,-33.333333,490.75019,99.600009)"/>
<use data-text="i" xlink:href="#font_2_105" transform="matrix(33.333333,0,0,-33.333333,511.91685,99.600009)"/>
<use data-text="t" xlink:href="#font_2_116" transform="matrix(33.333333,0,0,-33.333333,521.1835,99.600009)"/>
<use data-text="i" xlink:href="#font_2_105" transform="matrix(33.333333,0,0,-33.333333,534.2501,99.600009)"/>
<use data-text="o" xlink:href="#font_2_111" transform="matrix(33.333333,0,0,-33.333333,543.5168,99.600009)"/>
<use data-text="n" xlink:href="#font_2_110" transform="matrix(33.333333,0,0,-33.333333,563.9168,99.600009)"/>
<g>
<path transform="matrix(2.7777777,0,0,-2.7777777,0,600)" d="M59.235 149.144H184.235C185.56833 149.144 186.235 149.81067 186.235 151.144V167.144C186.235 168.47733 185.56833 169.144 184.235 169.144H59.235C57.90167 169.144 57.235 168.47733 57.235 167.144V151.144C57.235 149.81067 57.90167 149.144 59.235 149.144Z" fill="#ffffff" fill-opacity=".8"/>
<path transform="matrix(2.7777777,0,0,-2.7777777,0,600)" stroke-width="1" stroke-linecap="butt" stroke-miterlimit="10" stroke-linejoin="miter" fill="none" stroke="#cccccc" stroke-opacity=".8" d="M59.235 149.144H184.235C185.56833 149.144 186.235 149.81067 186.235 151.144V167.144C186.235 168.47733 185.56833 169.144 184.235 169.144H59.235C57.90167 169.144 57.235 168.47733 57.235 167.144V151.144C57.235 149.81067 57.90167 149.144 59.235 149.144Z"/>
</g>
<path transform="matrix(2.7777777,0,0,-2.7777777,0,600)" stroke-width="2" stroke-linecap="square" stroke-linejoin="round" fill="none" stroke="#1f77b4" d="M61.235 158.72212H71.235 81.235"/>
<use data-text="f" xlink:href="#font_18_102" transform="matrix(27.777777,0,0,-27.777777,247.87499,166.11476)"/>
<use data-text="(" xlink:href="#font_2_40" transform="matrix(27.777777,0,0,-27.777777,257.65419,166.11476)"/>
<use data-text="x" xlink:href="#font_18_120" transform="matrix(27.777777,0,0,-27.777777,268.4913,166.11476)"/>
<use data-text=")" xlink:href="#font_2_41" transform="matrix(27.777777,0,0,-27.777777,284.9301,166.11476)"/>
<use data-text="=" xlink:href="#font_2_61" transform="matrix(27.777777,0,0,-27.777777,301.17903,166.11476)"/>
<use data-text="x" xlink:href="#font_18_120" transform="matrix(27.777777,0,0,-27.777777,329.86555,166.11476)"/>
<use data-text="2" xlink:href="#font_2_50" transform="matrix(19.444443,0,0,-19.444443,347.54493,155.48108)"/>
<use data-text="+" xlink:href="#font_2_43" transform="matrix(27.777777,0,0,-27.777777,366.0874,166.11476)"/>
<use data-text="3" xlink:href="#font_2_51" transform="matrix(27.777777,0,0,-27.777777,394.77394,166.11476)"/>
<use data-text="s" xlink:href="#font_18_115" transform="matrix(27.777777,0,0,-27.777777,412.44703,166.11476)"/>
<use data-text="i" xlink:href="#font_18_105" transform="matrix(27.777777,0,0,-27.777777,426.91914,166.11476)"/>
<use data-text="n" xlink:href="#font_18_110" transform="matrix(27.777777,0,0,-27.777777,434.63667,166.11476)"/>
<use data-text="2" xlink:href="#font_2_50" transform="matrix(19.444443,0,0,-19.444443,453.53114,155.48108)"/>
<use data-text="(" xlink:href="#font_2_40" transform="matrix(27.777777,0,0,-27.777777,466.6618,166.11476)"/>
<use data-text="x" xlink:href="#font_18_120" transform="matrix(27.777777,0,0,-27.777777,477.49897,166.11476)"/>
<use data-text=")" xlink:href="#font_2_41" transform="matrix(27.777777,0,0,-27.777777,493.93775,166.11476)"/>
</svg>
