<?xml version="1.0" encoding="utf-8" standalone="no"?>
<!DOCTYPE svg PUBLIC "-//W3C//DTD SVG 1.1//EN"
  "http://www.w3.org/Graphics/SVG/1.1/DTD/svg11.dtd">
<!-- Created with matplotlib (https://matplotlib.org/) -->
<svg height="288pt" version="1.1" viewBox="0 0 576 288" width="576pt" xmlns="http://www.w3.org/2000/svg" xmlns:xlink="http://www.w3.org/1999/xlink">
 <defs>
  <style type="text/css">
*{stroke-linecap:butt;stroke-linejoin:round;}
  </style>
 </defs>
 <g id="figure_1">
  <g id="patch_1">
   <path d="M 0 288 
L 576 288 
L 576 0 
L 0 0 
z
" style="fill:#ffffff;"/>
  </g>
  <g id="axes_1">
   <g id="patch_2">
    <path d="M 60.815134 232.9 
L 278.75916 232.9 
L 278.75916 27.36 
L 60.815134 27.36 
z
" style="fill:#eaeaf2;"/>
   </g>
   <g id="matplotlib.axis_1">
    <g id="xtick_1">
     <g id="line2d_1">
      <path clip-path="url(#pe239943e14)" d="M 70.721681 232.9 
L 70.721681 27.36 
" style="fill:none;stroke:#ffffff;stroke-linecap:round;"/>
     </g>
     <g id="text_1">
      <!-- 0 -->
      <defs>
       <path d="M 4.15625 35.296875 
Q 4.15625 48 6.765625 55.734375 
Q 9.375 63.484375 14.515625 67.671875 
Q 19.671875 71.875 27.484375 71.875 
Q 33.25 71.875 37.59375 69.546875 
Q 41.9375 67.234375 44.765625 62.859375 
Q 47.609375 58.5 49.21875 52.21875 
Q 50.828125 45.953125 50.828125 35.296875 
Q 50.828125 22.703125 48.234375 14.96875 
Q 45.65625 7.234375 40.5 3 
Q 35.359375 -1.21875 27.484375 -1.21875 
Q 17.140625 -1.21875 11.234375 6.203125 
Q 4.15625 15.140625 4.15625 35.296875 
z
M 13.1875 35.296875 
Q 13.1875 17.671875 17.3125 11.828125 
Q 21.4375 6 27.484375 6 
Q 33.546875 6 37.671875 11.859375 
Q 41.796875 17.71875 41.796875 35.296875 
Q 41.796875 52.984375 37.671875 58.78125 
Q 33.546875 64.59375 27.390625 64.59375 
Q 21.34375 64.59375 17.71875 59.46875 
Q 13.1875 52.9375 13.1875 35.296875 
z
" id="ArialMT-48"/>
      </defs>
      <g style="fill:#262626;" transform="translate(67.663165 250.273594)scale(0.11 -0.11)">
       <use xlink:href="#ArialMT-48"/>
      </g>
     </g>
    </g>
    <g id="xtick_2">
     <g id="line2d_2">
      <path clip-path="url(#pe239943e14)" d="M 110.347868 232.9 
L 110.347868 27.36 
" style="fill:none;stroke:#ffffff;stroke-linecap:round;"/>
     </g>
     <g id="text_2">
      <!-- 20 -->
      <defs>
       <path d="M 50.34375 8.453125 
L 50.34375 0 
L 3.03125 0 
Q 2.9375 3.171875 4.046875 6.109375 
Q 5.859375 10.9375 9.828125 15.625 
Q 13.8125 20.3125 21.34375 26.46875 
Q 33.015625 36.03125 37.109375 41.625 
Q 41.21875 47.21875 41.21875 52.203125 
Q 41.21875 57.421875 37.46875 61 
Q 33.734375 64.59375 27.734375 64.59375 
Q 21.390625 64.59375 17.578125 60.78125 
Q 13.765625 56.984375 13.71875 50.25 
L 4.6875 51.171875 
Q 5.609375 61.28125 11.65625 66.578125 
Q 17.71875 71.875 27.9375 71.875 
Q 38.234375 71.875 44.234375 66.15625 
Q 50.25 60.453125 50.25 52 
Q 50.25 47.703125 48.484375 43.546875 
Q 46.734375 39.40625 42.65625 34.8125 
Q 38.578125 30.21875 29.109375 22.21875 
Q 21.1875 15.578125 18.9375 13.203125 
Q 16.703125 10.84375 15.234375 8.453125 
z
" id="ArialMT-50"/>
      </defs>
      <g style="fill:#262626;" transform="translate(104.230836 250.273594)scale(0.11 -0.11)">
       <use xlink:href="#ArialMT-50"/>
       <use x="55.615234" xlink:href="#ArialMT-48"/>
      </g>
     </g>
    </g>
    <g id="xtick_3">
     <g id="line2d_3">
      <path clip-path="url(#pe239943e14)" d="M 149.974054 232.9 
L 149.974054 27.36 
" style="fill:none;stroke:#ffffff;stroke-linecap:round;"/>
     </g>
     <g id="text_3">
      <!-- 40 -->
      <defs>
       <path d="M 32.328125 0 
L 32.328125 17.140625 
L 1.265625 17.140625 
L 1.265625 25.203125 
L 33.9375 71.578125 
L 41.109375 71.578125 
L 41.109375 25.203125 
L 50.78125 25.203125 
L 50.78125 17.140625 
L 41.109375 17.140625 
L 41.109375 0 
z
M 32.328125 25.203125 
L 32.328125 57.46875 
L 9.90625 25.203125 
z
" id="ArialMT-52"/>
      </defs>
      <g style="fill:#262626;" transform="translate(143.857023 250.273594)scale(0.11 -0.11)">
       <use xlink:href="#ArialMT-52"/>
       <use x="55.615234" xlink:href="#ArialMT-48"/>
      </g>
     </g>
    </g>
    <g id="xtick_4">
     <g id="line2d_4">
      <path clip-path="url(#pe239943e14)" d="M 189.600241 232.9 
L 189.600241 27.36 
" style="fill:none;stroke:#ffffff;stroke-linecap:round;"/>
     </g>
     <g id="text_4">
      <!-- 60 -->
      <defs>
       <path d="M 49.75 54.046875 
L 41.015625 53.375 
Q 39.84375 58.546875 37.703125 60.890625 
Q 34.125 64.65625 28.90625 64.65625 
Q 24.703125 64.65625 21.53125 62.3125 
Q 17.390625 59.28125 14.984375 53.46875 
Q 12.59375 47.65625 12.5 36.921875 
Q 15.671875 41.75 20.265625 44.09375 
Q 24.859375 46.4375 29.890625 46.4375 
Q 38.671875 46.4375 44.84375 39.96875 
Q 51.03125 33.5 51.03125 23.25 
Q 51.03125 16.5 48.125 10.71875 
Q 45.21875 4.9375 40.140625 1.859375 
Q 35.0625 -1.21875 28.609375 -1.21875 
Q 17.625 -1.21875 10.6875 6.859375 
Q 3.765625 14.9375 3.765625 33.5 
Q 3.765625 54.25 11.421875 63.671875 
Q 18.109375 71.875 29.4375 71.875 
Q 37.890625 71.875 43.28125 67.140625 
Q 48.6875 62.40625 49.75 54.046875 
z
M 13.875 23.1875 
Q 13.875 18.65625 15.796875 14.5 
Q 17.71875 10.359375 21.1875 8.171875 
Q 24.65625 6 28.46875 6 
Q 34.03125 6 38.03125 10.484375 
Q 42.046875 14.984375 42.046875 22.703125 
Q 42.046875 30.125 38.078125 34.390625 
Q 34.125 38.671875 28.125 38.671875 
Q 22.171875 38.671875 18.015625 34.390625 
Q 13.875 30.125 13.875 23.1875 
z
" id="ArialMT-54"/>
      </defs>
      <g style="fill:#262626;" transform="translate(183.483209 250.273594)scale(0.11 -0.11)">
       <use xlink:href="#ArialMT-54"/>
       <use x="55.615234" xlink:href="#ArialMT-48"/>
      </g>
     </g>
    </g>
    <g id="xtick_5">
     <g id="line2d_5">
      <path clip-path="url(#pe239943e14)" d="M 229.226427 232.9 
L 229.226427 27.36 
" style="fill:none;stroke:#ffffff;stroke-linecap:round;"/>
     </g>
     <g id="text_5">
      <!-- 80 -->
      <defs>
       <path d="M 17.671875 38.8125 
Q 12.203125 40.828125 9.5625 44.53125 
Q 6.9375 48.25 6.9375 53.421875 
Q 6.9375 61.234375 12.546875 66.546875 
Q 18.171875 71.875 27.484375 71.875 
Q 36.859375 71.875 42.578125 66.421875 
Q 48.296875 60.984375 48.296875 53.171875 
Q 48.296875 48.1875 45.671875 44.5 
Q 43.0625 40.828125 37.75 38.8125 
Q 44.34375 36.671875 47.78125 31.875 
Q 51.21875 27.09375 51.21875 20.453125 
Q 51.21875 11.28125 44.71875 5.03125 
Q 38.234375 -1.21875 27.640625 -1.21875 
Q 17.046875 -1.21875 10.546875 5.046875 
Q 4.046875 11.328125 4.046875 20.703125 
Q 4.046875 27.6875 7.59375 32.390625 
Q 11.140625 37.109375 17.671875 38.8125 
z
M 15.921875 53.71875 
Q 15.921875 48.640625 19.1875 45.40625 
Q 22.46875 42.1875 27.6875 42.1875 
Q 32.765625 42.1875 36.015625 45.375 
Q 39.265625 48.578125 39.265625 53.21875 
Q 39.265625 58.0625 35.90625 61.359375 
Q 32.5625 64.65625 27.59375 64.65625 
Q 22.5625 64.65625 19.234375 61.421875 
Q 15.921875 58.203125 15.921875 53.71875 
z
M 13.09375 20.65625 
Q 13.09375 16.890625 14.875 13.375 
Q 16.65625 9.859375 20.171875 7.921875 
Q 23.6875 6 27.734375 6 
Q 34.03125 6 38.125 10.046875 
Q 42.234375 14.109375 42.234375 20.359375 
Q 42.234375 26.703125 38.015625 30.859375 
Q 33.796875 35.015625 27.4375 35.015625 
Q 21.234375 35.015625 17.15625 30.90625 
Q 13.09375 26.8125 13.09375 20.65625 
z
" id="ArialMT-56"/>
      </defs>
      <g style="fill:#262626;" transform="translate(223.109396 250.273594)scale(0.11 -0.11)">
       <use xlink:href="#ArialMT-56"/>
       <use x="55.615234" xlink:href="#ArialMT-48"/>
      </g>
     </g>
    </g>
    <g id="xtick_6">
     <g id="line2d_6">
      <path clip-path="url(#pe239943e14)" d="M 268.852614 232.9 
L 268.852614 27.36 
" style="fill:none;stroke:#ffffff;stroke-linecap:round;"/>
     </g>
     <g id="text_6">
      <!-- 100 -->
      <defs>
       <path d="M 37.25 0 
L 28.46875 0 
L 28.46875 56 
Q 25.296875 52.984375 20.140625 49.953125 
Q 14.984375 46.921875 10.890625 45.40625 
L 10.890625 53.90625 
Q 18.265625 57.375 23.78125 62.296875 
Q 29.296875 67.234375 31.59375 71.875 
L 37.25 71.875 
z
" id="ArialMT-49"/>
      </defs>
      <g style="fill:#262626;" transform="translate(259.677067 250.273594)scale(0.11 -0.11)">
       <use xlink:href="#ArialMT-49"/>
       <use x="55.615234" xlink:href="#ArialMT-48"/>
       <use x="111.230469" xlink:href="#ArialMT-48"/>
      </g>
     </g>
    </g>
    <g id="text_7">
     <!-- iteration -->
     <defs>
      <path d="M 6.640625 61.46875 
L 6.640625 71.578125 
L 15.4375 71.578125 
L 15.4375 61.46875 
z
M 6.640625 0 
L 6.640625 51.859375 
L 15.4375 51.859375 
L 15.4375 0 
z
" id="ArialMT-105"/>
      <path d="M 25.78125 7.859375 
L 27.046875 0.09375 
Q 23.34375 -0.6875 20.40625 -0.6875 
Q 15.625 -0.6875 12.984375 0.828125 
Q 10.359375 2.34375 9.28125 4.8125 
Q 8.203125 7.28125 8.203125 15.1875 
L 8.203125 45.015625 
L 1.765625 45.015625 
L 1.765625 51.859375 
L 8.203125 51.859375 
L 8.203125 64.703125 
L 16.9375 69.96875 
L 16.9375 51.859375 
L 25.78125 51.859375 
L 25.78125 45.015625 
L 16.9375 45.015625 
L 16.9375 14.703125 
Q 16.9375 10.9375 17.40625 9.859375 
Q 17.875 8.796875 18.921875 8.15625 
Q 19.96875 7.515625 21.921875 7.515625 
Q 23.390625 7.515625 25.78125 7.859375 
z
" id="ArialMT-116"/>
      <path d="M 42.09375 16.703125 
L 51.171875 15.578125 
Q 49.03125 7.625 43.21875 3.21875 
Q 37.40625 -1.171875 28.375 -1.171875 
Q 17 -1.171875 10.328125 5.828125 
Q 3.65625 12.84375 3.65625 25.484375 
Q 3.65625 38.578125 10.390625 45.796875 
Q 17.140625 53.03125 27.875 53.03125 
Q 38.28125 53.03125 44.875 45.953125 
Q 51.46875 38.875 51.46875 26.03125 
Q 51.46875 25.25 51.421875 23.6875 
L 12.75 23.6875 
Q 13.234375 15.140625 17.578125 10.59375 
Q 21.921875 6.0625 28.421875 6.0625 
Q 33.25 6.0625 36.671875 8.59375 
Q 40.09375 11.140625 42.09375 16.703125 
z
M 13.234375 30.90625 
L 42.1875 30.90625 
Q 41.609375 37.453125 38.875 40.71875 
Q 34.671875 45.796875 27.984375 45.796875 
Q 21.921875 45.796875 17.796875 41.75 
Q 13.671875 37.703125 13.234375 30.90625 
z
" id="ArialMT-101"/>
      <path d="M 6.5 0 
L 6.5 51.859375 
L 14.40625 51.859375 
L 14.40625 44 
Q 17.4375 49.515625 20 51.265625 
Q 22.5625 53.03125 25.640625 53.03125 
Q 30.078125 53.03125 34.671875 50.203125 
L 31.640625 42.046875 
Q 28.421875 43.953125 25.203125 43.953125 
Q 22.3125 43.953125 20.015625 42.21875 
Q 17.71875 40.484375 16.75 37.40625 
Q 15.28125 32.71875 15.28125 27.15625 
L 15.28125 0 
z
" id="ArialMT-114"/>
      <path d="M 40.4375 6.390625 
Q 35.546875 2.25 31.03125 0.53125 
Q 26.515625 -1.171875 21.34375 -1.171875 
Q 12.796875 -1.171875 8.203125 3 
Q 3.609375 7.171875 3.609375 13.671875 
Q 3.609375 17.484375 5.34375 20.625 
Q 7.078125 23.78125 9.890625 25.6875 
Q 12.703125 27.59375 16.21875 28.5625 
Q 18.796875 29.25 24.03125 29.890625 
Q 34.671875 31.15625 39.703125 32.90625 
Q 39.75 34.71875 39.75 35.203125 
Q 39.75 40.578125 37.25 42.78125 
Q 33.890625 45.75 27.25 45.75 
Q 21.046875 45.75 18.09375 43.578125 
Q 15.140625 41.40625 13.71875 35.890625 
L 5.125 37.0625 
Q 6.296875 42.578125 8.984375 45.96875 
Q 11.671875 49.359375 16.75 51.1875 
Q 21.828125 53.03125 28.515625 53.03125 
Q 35.15625 53.03125 39.296875 51.46875 
Q 43.453125 49.90625 45.40625 47.53125 
Q 47.359375 45.171875 48.140625 41.546875 
Q 48.578125 39.3125 48.578125 33.453125 
L 48.578125 21.734375 
Q 48.578125 9.46875 49.140625 6.21875 
Q 49.703125 2.984375 51.375 0 
L 42.1875 0 
Q 40.828125 2.734375 40.4375 6.390625 
z
M 39.703125 26.03125 
Q 34.90625 24.078125 25.34375 22.703125 
Q 19.921875 21.921875 17.671875 20.9375 
Q 15.4375 19.96875 14.203125 18.09375 
Q 12.984375 16.21875 12.984375 13.921875 
Q 12.984375 10.40625 15.640625 8.0625 
Q 18.3125 5.71875 23.4375 5.71875 
Q 28.515625 5.71875 32.46875 7.9375 
Q 36.421875 10.15625 38.28125 14.015625 
Q 39.703125 17 39.703125 22.796875 
z
" id="ArialMT-97"/>
      <path d="M 3.328125 25.921875 
Q 3.328125 40.328125 11.328125 47.265625 
Q 18.015625 53.03125 27.640625 53.03125 
Q 38.328125 53.03125 45.109375 46.015625 
Q 51.90625 39.015625 51.90625 26.65625 
Q 51.90625 16.65625 48.90625 10.90625 
Q 45.90625 5.171875 40.15625 2 
Q 34.421875 -1.171875 27.640625 -1.171875 
Q 16.75 -1.171875 10.03125 5.8125 
Q 3.328125 12.796875 3.328125 25.921875 
z
M 12.359375 25.921875 
Q 12.359375 15.96875 16.703125 11.015625 
Q 21.046875 6.0625 27.640625 6.0625 
Q 34.1875 6.0625 38.53125 11.03125 
Q 42.875 16.015625 42.875 26.21875 
Q 42.875 35.84375 38.5 40.796875 
Q 34.125 45.75 27.640625 45.75 
Q 21.046875 45.75 16.703125 40.8125 
Q 12.359375 35.890625 12.359375 25.921875 
z
" id="ArialMT-111"/>
      <path d="M 6.59375 0 
L 6.59375 51.859375 
L 14.5 51.859375 
L 14.5 44.484375 
Q 20.21875 53.03125 31 53.03125 
Q 35.6875 53.03125 39.625 51.34375 
Q 43.5625 49.65625 45.515625 46.921875 
Q 47.46875 44.1875 48.25 40.4375 
Q 48.734375 37.984375 48.734375 31.890625 
L 48.734375 0 
L 39.9375 0 
L 39.9375 31.546875 
Q 39.9375 36.921875 38.90625 39.578125 
Q 37.890625 42.234375 35.28125 43.8125 
Q 32.671875 45.40625 29.15625 45.40625 
Q 23.53125 45.40625 19.453125 41.84375 
Q 15.375 38.28125 15.375 28.328125 
L 15.375 0 
z
" id="ArialMT-110"/>
     </defs>
     <g style="fill:#262626;" transform="translate(148.443085 265.049219)scale(0.12 -0.12)">
      <use xlink:href="#ArialMT-105"/>
      <use x="22.216797" xlink:href="#ArialMT-116"/>
      <use x="50" xlink:href="#ArialMT-101"/>
      <use x="105.615234" xlink:href="#ArialMT-114"/>
      <use x="138.916016" xlink:href="#ArialMT-97"/>
      <use x="194.53125" xlink:href="#ArialMT-116"/>
      <use x="222.314453" xlink:href="#ArialMT-105"/>
      <use x="244.53125" xlink:href="#ArialMT-111"/>
      <use x="300.146484" xlink:href="#ArialMT-110"/>
     </g>
    </g>
   </g>
   <g id="matplotlib.axis_2">
    <g id="ytick_1">
     <g id="line2d_7">
      <path clip-path="url(#pe239943e14)" d="M 60.815134 139.793462 
L 278.75916 139.793462 
" style="fill:none;stroke:#ffffff;stroke-linecap:round;"/>
     </g>
     <g id="text_8">
      <!-- $\mathdefault{10^{2}}$ -->
      <g style="fill:#262626;" transform="translate(34.045134 145.465337)scale(0.11 -0.11)">
       <use transform="translate(0 0.99375)" xlink:href="#ArialMT-49"/>
       <use transform="translate(55.615234 0.99375)" xlink:href="#ArialMT-48"/>
       <use transform="translate(112.972813 70.6875)scale(0.7)" xlink:href="#ArialMT-50"/>
      </g>
     </g>
    </g>
    <g id="ytick_2"/>
    <g id="ytick_3"/>
    <g id="ytick_4"/>
    <g id="ytick_5"/>
    <g id="ytick_6"/>
    <g id="ytick_7"/>
    <g id="ytick_8"/>
    <g id="ytick_9"/>
    <g id="ytick_10"/>
    <g id="ytick_11"/>
    <g id="ytick_12"/>
    <g id="ytick_13"/>
    <g id="ytick_14"/>
    <g id="ytick_15"/>
    <g id="ytick_16"/>
    <g id="text_9">
     <!-- $f(x_k)$ -->
     <defs>
      <path d="M 47.796875 75.984375 
L 46.390625 68.5 
L 37.796875 68.5 
Q 32.90625 68.5 30.6875 66.578125 
Q 28.46875 64.65625 27.390625 59.515625 
L 26.421875 54.6875 
L 41.21875 54.6875 
L 39.890625 47.703125 
L 25.09375 47.703125 
L 15.828125 0 
L 6.78125 0 
L 16.109375 47.703125 
L 7.515625 47.703125 
L 8.796875 54.6875 
L 17.390625 54.6875 
L 18.109375 58.5 
Q 19.96875 68.171875 24.625 72.078125 
Q 29.296875 75.984375 39.3125 75.984375 
z
" id="DejaVuSans-Oblique-102"/>
      <path d="M 31 75.875 
Q 24.46875 64.65625 21.28125 53.65625 
Q 18.109375 42.671875 18.109375 31.390625 
Q 18.109375 20.125 21.3125 9.0625 
Q 24.515625 -2 31 -13.1875 
L 23.1875 -13.1875 
Q 15.875 -1.703125 12.234375 9.375 
Q 8.59375 20.453125 8.59375 31.390625 
Q 8.59375 42.28125 12.203125 53.3125 
Q 15.828125 64.359375 23.1875 75.875 
z
" id="DejaVuSans-40"/>
      <path d="M 60.015625 54.6875 
L 34.90625 27.875 
L 50.296875 0 
L 39.984375 0 
L 28.421875 21.6875 
L 8.296875 0 
L -2.59375 0 
L 24.3125 28.8125 
L 10.015625 54.6875 
L 20.3125 54.6875 
L 30.8125 34.90625 
L 49.125 54.6875 
z
" id="DejaVuSans-Oblique-120"/>
      <path d="M 18.3125 75.984375 
L 27.296875 75.984375 
L 18.703125 31.6875 
L 49.515625 54.6875 
L 61.1875 54.6875 
L 26.8125 28.515625 
L 51.90625 0 
L 41.015625 0 
L 17.671875 26.703125 
L 12.5 0 
L 3.515625 0 
z
" id="DejaVuSans-Oblique-107"/>
      <path d="M 8.015625 75.875 
L 15.828125 75.875 
Q 23.140625 64.359375 26.78125 53.3125 
Q 30.421875 42.28125 30.421875 31.390625 
Q 30.421875 20.453125 26.78125 9.375 
Q 23.140625 -1.703125 15.828125 -13.1875 
L 8.015625 -13.1875 
Q 14.5 -2 17.703125 9.0625 
Q 20.90625 20.125 20.90625 31.390625 
Q 20.90625 42.671875 17.703125 53.65625 
Q 14.5 64.65625 8.015625 75.875 
z
" id="DejaVuSans-41"/>
     </defs>
     <g style="fill:#262626;" transform="translate(27.660134 143.09)rotate(-90)scale(0.12 -0.12)">
      <use transform="translate(0 0.015625)" xlink:href="#DejaVuSans-Oblique-102"/>
      <use transform="translate(35.205078 0.015625)" xlink:href="#DejaVuSans-40"/>
      <use transform="translate(74.21875 0.015625)" xlink:href="#DejaVuSans-Oblique-120"/>
      <use transform="translate(133.398438 -16.390625)scale(0.7)" xlink:href="#DejaVuSans-Oblique-107"/>
      <use transform="translate(176.669922 0.015625)" xlink:href="#DejaVuSans-41"/>
     </g>
    </g>
   </g>
   <g id="PolyCollection_1">
    <defs>
     <path d="M 70.721681 -251.297273 
L 70.721681 -216.390721 
L 72.70299 -142.156155 
L 74.6843 -110.5665 
L 76.665609 -92.51741 
L 78.646918 -81.57978 
L 80.628228 -75.039534 
L 82.609537 -71.051838 
L 84.590846 -68.584659 
L 86.572156 -67.037362 
L 88.553465 -66.038508 
L 90.534774 -65.390798 
L 92.516084 -64.982681 
L 94.497393 -64.72669 
L 96.478702 -64.587504 
L 98.460012 -64.51047 
L 100.441321 -64.473291 
L 102.42263 -64.455689 
L 104.40394 -64.445766 
L 106.385249 -64.442727 
L 108.366558 -64.444572 
L 110.347868 -64.443342 
L 112.329177 -64.450778 
L 114.310486 -64.460071 
L 116.291795 -64.466336 
L 118.273105 -64.473289 
L 120.254414 -64.481152 
L 122.235723 -64.48727 
L 124.217033 -64.489978 
L 126.198342 -64.492389 
L 128.179651 -64.494518 
L 130.160961 -64.496773 
L 132.14227 -64.498658 
L 134.123579 -64.500331 
L 136.104889 -64.502299 
L 138.086198 -64.504134 
L 140.067507 -64.505774 
L 142.048817 -64.507213 
L 144.030126 -64.508464 
L 146.011435 -64.509545 
L 147.992745 -64.510477 
L 149.974054 -64.511279 
L 151.955363 -64.511968 
L 153.936673 -64.512559 
L 155.917982 -64.513065 
L 157.899291 -64.513499 
L 159.880601 -64.513871 
L 161.86191 -64.514189 
L 163.843219 -64.51446 
L 165.824529 -64.514693 
L 167.805838 -64.514891 
L 169.787147 -64.515061 
L 171.768457 -64.515206 
L 173.749766 -64.51533 
L 175.731075 -64.515436 
L 177.712385 -64.515526 
L 179.693694 -64.515603 
L 181.675003 -64.515669 
L 183.656313 -64.515725 
L 185.637622 -64.515773 
L 187.618931 -64.515814 
L 189.600241 -64.515849 
L 191.58155 -64.515879 
L 193.562859 -64.515904 
L 195.544168 -64.515926 
L 197.525478 -64.515944 
L 199.506787 -64.51596 
L 201.488096 -64.515973 
L 203.469406 -64.515985 
L 205.450715 -64.515995 
L 207.432024 -64.516003 
L 209.413334 -64.51601 
L 211.394643 -64.516016 
L 213.375952 -64.516021 
L 215.357262 -64.516026 
L 217.338571 -64.516029 
L 219.31988 -64.516033 
L 221.30119 -64.516035 
L 223.282499 -64.516038 
L 225.263808 -64.51604 
L 227.245118 -64.516041 
L 229.226427 -64.516043 
L 231.207736 -64.516044 
L 233.189046 -64.516045 
L 235.170355 -64.516046 
L 237.151664 -64.516047 
L 239.132974 -64.516047 
L 241.114283 -64.516048 
L 243.095592 -64.516048 
L 245.076902 -64.516049 
L 247.058211 -64.516049 
L 249.03952 -64.516049 
L 251.02083 -64.51605 
L 253.002139 -64.51605 
L 254.983448 -64.51605 
L 256.964758 -64.51605 
L 258.946067 -64.51605 
L 260.927376 -64.51605 
L 262.908686 -64.51605 
L 264.889995 -64.516051 
L 266.871304 -64.516051 
L 268.852614 -64.516051 
L 268.852614 -64.516052 
L 268.852614 -64.516052 
L 266.871304 -64.516053 
L 264.889995 -64.516053 
L 262.908686 -64.516053 
L 260.927376 -64.516054 
L 258.946067 -64.516054 
L 256.964758 -64.516055 
L 254.983448 -64.516055 
L 253.002139 -64.516056 
L 251.02083 -64.516057 
L 249.03952 -64.516058 
L 247.058211 -64.516059 
L 245.076902 -64.516061 
L 243.095592 -64.516062 
L 241.114283 -64.516064 
L 239.132974 -64.516067 
L 237.151664 -64.51607 
L 235.170355 -64.516073 
L 233.189046 -64.516077 
L 231.207736 -64.516081 
L 229.226427 -64.516087 
L 227.245118 -64.516093 
L 225.263808 -64.516101 
L 223.282499 -64.51611 
L 221.30119 -64.51612 
L 219.31988 -64.516132 
L 217.338571 -64.516147 
L 215.357262 -64.516164 
L 213.375952 -64.516184 
L 211.394643 -64.516208 
L 209.413334 -64.516236 
L 207.432024 -64.516269 
L 205.450715 -64.516308 
L 203.469406 -64.516354 
L 201.488096 -64.516408 
L 199.506787 -64.516472 
L 197.525478 -64.516547 
L 195.544168 -64.516636 
L 193.562859 -64.516741 
L 191.58155 -64.516865 
L 189.600241 -64.517011 
L 187.618931 -64.517183 
L 185.637622 -64.517386 
L 183.656313 -64.517626 
L 181.675003 -64.517909 
L 179.693694 -64.518244 
L 177.712385 -64.518639 
L 175.731075 -64.519105 
L 173.749766 -64.519656 
L 171.768457 -64.520306 
L 169.787147 -64.521075 
L 167.805838 -64.521983 
L 165.824529 -64.523056 
L 163.843219 -64.524324 
L 161.86191 -64.525824 
L 159.880601 -64.527597 
L 157.899291 -64.529694 
L 155.917982 -64.532175 
L 153.936673 -64.53511 
L 151.955363 -64.538584 
L 149.974054 -64.542698 
L 147.992745 -64.54757 
L 146.011435 -64.553342 
L 144.030126 -64.560185 
L 142.048817 -64.568302 
L 140.067507 -64.577938 
L 138.086198 -64.589394 
L 136.104889 -64.603045 
L 134.123579 -64.619401 
L 132.14227 -64.63993 
L 130.160961 -64.6637 
L 128.179651 -64.693702 
L 126.198342 -64.730024 
L 124.217033 -64.776851 
L 122.235723 -64.83956 
L 120.254414 -64.914488 
L 118.273105 -65.013258 
L 116.291795 -65.131758 
L 114.310486 -65.279726 
L 112.329177 -65.4647 
L 110.347868 -65.687108 
L 108.366558 -65.963062 
L 106.385249 -66.311886 
L 104.40394 -66.766013 
L 102.42263 -67.331448 
L 100.441321 -68.046811 
L 98.460012 -68.965776 
L 96.478702 -70.153253 
L 94.497393 -71.647236 
L 92.516084 -73.522699 
L 90.534774 -75.828947 
L 88.553465 -78.671299 
L 86.572156 -82.166 
L 84.590846 -86.507059 
L 82.609537 -91.98352 
L 80.628228 -99.003984 
L 78.646918 -108.334896 
L 76.665609 -121.427488 
L 74.6843 -141.049635 
L 72.70299 -173.25969 
L 70.721681 -251.297273 
z
" id="m889c06dfcd" style="stroke:#ffffff;stroke-opacity:0.3;"/>
    </defs>
    <g clip-path="url(#pe239943e14)">
     <use style="fill:#4c72b0;fill-opacity:0.3;stroke:#ffffff;stroke-opacity:0.3;" x="0" xlink:href="#m889c06dfcd" y="288"/>
    </g>
   </g>
   <g id="line2d_8">
    <path clip-path="url(#pe239943e14)" d="M 70.721681 51.338867 
L 72.70299 128.047327 
L 74.6843 160.034657 
L 76.665609 179.084576 
L 78.646918 191.375672 
L 80.628228 199.638122 
L 82.609537 205.457907 
L 84.590846 209.701825 
L 86.572156 212.861541 
L 88.553465 215.270439 
L 90.534774 217.134147 
L 92.516084 218.575872 
L 94.497393 219.700413 
L 96.478702 220.556759 
L 98.460012 221.21518 
L 100.441321 221.709904 
L 102.42263 222.086973 
L 104.40394 222.381443 
L 106.385249 222.614472 
L 108.366558 222.790757 
L 110.347868 222.931135 
L 112.329177 223.039842 
L 114.310486 223.128521 
L 116.291795 223.199911 
L 118.273105 223.256041 
L 120.254414 223.301738 
L 122.235723 223.336293 
L 124.217033 223.366392 
L 126.198342 223.388661 
L 128.179651 223.405797 
L 130.160961 223.419698 
L 132.14227 223.430659 
L 134.123579 223.4401 
L 136.104889 223.447304 
L 138.086198 223.453219 
L 140.067507 223.458132 
L 142.048817 223.462234 
L 144.030126 223.465669 
L 146.011435 223.468552 
L 147.992745 223.470973 
L 149.974054 223.473009 
L 151.955363 223.474722 
L 153.936673 223.476164 
L 155.917982 223.477379 
L 157.899291 223.478403 
L 159.880601 223.479266 
L 161.86191 223.479993 
L 163.843219 223.480607 
L 165.824529 223.481125 
L 167.805838 223.481563 
L 169.787147 223.481932 
L 171.768457 223.482244 
L 173.749766 223.482507 
L 175.731075 223.48273 
L 177.712385 223.482918 
L 179.693694 223.483076 
L 181.675003 223.483211 
L 183.656313 223.483324 
L 185.637622 223.48342 
L 187.618931 223.483502 
L 189.600241 223.48357 
L 191.58155 223.483628 
L 193.562859 223.483677 
L 195.544168 223.483719 
L 197.525478 223.483754 
L 199.506787 223.483784 
L 201.488096 223.483809 
L 203.469406 223.483831 
L 205.450715 223.483849 
L 207.432024 223.483864 
L 209.413334 223.483877 
L 211.394643 223.483888 
L 213.375952 223.483897 
L 215.357262 223.483905 
L 217.338571 223.483912 
L 219.31988 223.483918 
L 221.30119 223.483922 
L 223.282499 223.483926 
L 225.263808 223.48393 
L 227.245118 223.483933 
L 229.226427 223.483935 
L 231.207736 223.483937 
L 233.189046 223.483939 
L 235.170355 223.483941 
L 237.151664 223.483942 
L 239.132974 223.483943 
L 241.114283 223.483944 
L 243.095592 223.483945 
L 245.076902 223.483945 
L 247.058211 223.483946 
L 249.03952 223.483946 
L 251.02083 223.483947 
L 253.002139 223.483947 
L 254.983448 223.483947 
L 256.964758 223.483948 
L 258.946067 223.483948 
L 260.927376 223.483948 
L 262.908686 223.483948 
L 264.889995 223.483948 
L 266.871304 223.483948 
L 268.852614 223.483948 
" style="fill:none;stroke:#4c72b0;stroke-linecap:round;stroke-width:1.5;"/>
   </g>
   <g id="patch_3">
    <path d="M 60.815134 232.9 
L 60.815134 27.36 
" style="fill:none;stroke:#ffffff;stroke-linecap:square;stroke-linejoin:miter;stroke-width:1.25;"/>
   </g>
   <g id="patch_4">
    <path d="M 278.75916 232.9 
L 278.75916 27.36 
" style="fill:none;stroke:#ffffff;stroke-linecap:square;stroke-linejoin:miter;stroke-width:1.25;"/>
   </g>
   <g id="patch_5">
    <path d="M 60.815134 232.9 
L 278.75916 232.9 
" style="fill:none;stroke:#ffffff;stroke-linecap:square;stroke-linejoin:miter;stroke-width:1.25;"/>
   </g>
   <g id="patch_6">
    <path d="M 60.815134 27.36 
L 278.75916 27.36 
" style="fill:none;stroke:#ffffff;stroke-linecap:square;stroke-linejoin:miter;stroke-width:1.25;"/>
   </g>
  </g>
  <g id="axes_2">
   <g id="patch_7">
    <path d="M 345.095974 232.9 
L 563.04 232.9 
L 563.04 27.36 
L 345.095974 27.36 
z
" style="fill:#eaeaf2;"/>
   </g>
   <g id="matplotlib.axis_3">
    <g id="xtick_7">
     <g id="line2d_9">
      <path clip-path="url(#p8ff049a8d7)" d="M 355.002521 232.9 
L 355.002521 27.36 
" style="fill:none;stroke:#ffffff;stroke-linecap:round;"/>
     </g>
     <g id="text_10">
      <!-- 0 -->
      <g style="fill:#262626;" transform="translate(351.944005 250.273594)scale(0.11 -0.11)">
       <use xlink:href="#ArialMT-48"/>
      </g>
     </g>
    </g>
    <g id="xtick_8">
     <g id="line2d_10">
      <path clip-path="url(#p8ff049a8d7)" d="M 394.628707 232.9 
L 394.628707 27.36 
" style="fill:none;stroke:#ffffff;stroke-linecap:round;"/>
     </g>
     <g id="text_11">
      <!-- 20 -->
      <g style="fill:#262626;" transform="translate(388.511676 250.273594)scale(0.11 -0.11)">
       <use xlink:href="#ArialMT-50"/>
       <use x="55.615234" xlink:href="#ArialMT-48"/>
      </g>
     </g>
    </g>
    <g id="xtick_9">
     <g id="line2d_11">
      <path clip-path="url(#p8ff049a8d7)" d="M 434.254894 232.9 
L 434.254894 27.36 
" style="fill:none;stroke:#ffffff;stroke-linecap:round;"/>
     </g>
     <g id="text_12">
      <!-- 40 -->
      <g style="fill:#262626;" transform="translate(428.137863 250.273594)scale(0.11 -0.11)">
       <use xlink:href="#ArialMT-52"/>
       <use x="55.615234" xlink:href="#ArialMT-48"/>
      </g>
     </g>
    </g>
    <g id="xtick_10">
     <g id="line2d_12">
      <path clip-path="url(#p8ff049a8d7)" d="M 473.88108 232.9 
L 473.88108 27.36 
" style="fill:none;stroke:#ffffff;stroke-linecap:round;"/>
     </g>
     <g id="text_13">
      <!-- 60 -->
      <g style="fill:#262626;" transform="translate(467.764049 250.273594)scale(0.11 -0.11)">
       <use xlink:href="#ArialMT-54"/>
       <use x="55.615234" xlink:href="#ArialMT-48"/>
      </g>
     </g>
    </g>
    <g id="xtick_11">
     <g id="line2d_13">
      <path clip-path="url(#p8ff049a8d7)" d="M 513.507267 232.9 
L 513.507267 27.36 
" style="fill:none;stroke:#ffffff;stroke-linecap:round;"/>
     </g>
     <g id="text_14">
      <!-- 80 -->
      <g style="fill:#262626;" transform="translate(507.390236 250.273594)scale(0.11 -0.11)">
       <use xlink:href="#ArialMT-56"/>
       <use x="55.615234" xlink:href="#ArialMT-48"/>
      </g>
     </g>
    </g>
    <g id="xtick_12">
     <g id="line2d_14">
      <path clip-path="url(#p8ff049a8d7)" d="M 553.133453 232.9 
L 553.133453 27.36 
" style="fill:none;stroke:#ffffff;stroke-linecap:round;"/>
     </g>
     <g id="text_15">
      <!-- 100 -->
      <g style="fill:#262626;" transform="translate(543.957906 250.273594)scale(0.11 -0.11)">
       <use xlink:href="#ArialMT-49"/>
       <use x="55.615234" xlink:href="#ArialMT-48"/>
       <use x="111.230469" xlink:href="#ArialMT-48"/>
      </g>
     </g>
    </g>
    <g id="text_16">
     <!-- iteration -->
     <g style="fill:#262626;" transform="translate(432.723925 265.049219)scale(0.12 -0.12)">
      <use xlink:href="#ArialMT-105"/>
      <use x="22.216797" xlink:href="#ArialMT-116"/>
      <use x="50" xlink:href="#ArialMT-101"/>
      <use x="105.615234" xlink:href="#ArialMT-114"/>
      <use x="138.916016" xlink:href="#ArialMT-97"/>
      <use x="194.53125" xlink:href="#ArialMT-116"/>
      <use x="222.314453" xlink:href="#ArialMT-105"/>
      <use x="244.53125" xlink:href="#ArialMT-111"/>
      <use x="300.146484" xlink:href="#ArialMT-110"/>
     </g>
    </g>
   </g>
   <g id="matplotlib.axis_4">
    <g id="ytick_17">
     <g id="line2d_15">
      <path clip-path="url(#p8ff049a8d7)" d="M 345.095974 212.519902 
L 563.04 212.519902 
" style="fill:none;stroke:#ffffff;stroke-linecap:round;"/>
     </g>
     <g id="text_17">
      <!-- $\mathdefault{10^{-3}}$ -->
      <defs>
       <path d="M 52.828125 31.203125 
L 5.5625 31.203125 
L 5.5625 39.40625 
L 52.828125 39.40625 
z
" id="ArialMT-8722"/>
       <path d="M 4.203125 18.890625 
L 12.984375 20.0625 
Q 14.5 12.59375 18.140625 9.296875 
Q 21.78125 6 27 6 
Q 33.203125 6 37.46875 10.296875 
Q 41.75 14.59375 41.75 20.953125 
Q 41.75 27 37.796875 30.921875 
Q 33.84375 34.859375 27.734375 34.859375 
Q 25.25 34.859375 21.53125 33.890625 
L 22.515625 41.609375 
Q 23.390625 41.5 23.921875 41.5 
Q 29.546875 41.5 34.03125 44.421875 
Q 38.53125 47.359375 38.53125 53.46875 
Q 38.53125 58.296875 35.25 61.46875 
Q 31.984375 64.65625 26.8125 64.65625 
Q 21.6875 64.65625 18.265625 61.421875 
Q 14.84375 58.203125 13.875 51.765625 
L 5.078125 53.328125 
Q 6.6875 62.15625 12.390625 67.015625 
Q 18.109375 71.875 26.609375 71.875 
Q 32.46875 71.875 37.390625 69.359375 
Q 42.328125 66.84375 44.9375 62.5 
Q 47.5625 58.15625 47.5625 53.265625 
Q 47.5625 48.640625 45.0625 44.828125 
Q 42.578125 41.015625 37.703125 38.765625 
Q 44.046875 37.3125 47.5625 32.6875 
Q 51.078125 28.078125 51.078125 21.140625 
Q 51.078125 11.765625 44.234375 5.25 
Q 37.40625 -1.265625 26.953125 -1.265625 
Q 17.53125 -1.265625 11.296875 4.34375 
Q 5.078125 9.96875 4.203125 18.890625 
z
" id="ArialMT-51"/>
      </defs>
      <g style="fill:#262626;" transform="translate(313.815974 218.191777)scale(0.11 -0.11)">
       <use transform="translate(0 0.99375)" xlink:href="#ArialMT-49"/>
       <use transform="translate(55.615234 0.99375)" xlink:href="#ArialMT-48"/>
       <use transform="translate(112.972813 70.6875)scale(0.7)" xlink:href="#ArialMT-8722"/>
       <use transform="translate(153.851719 70.6875)scale(0.7)" xlink:href="#ArialMT-51"/>
      </g>
     </g>
    </g>
    <g id="ytick_18">
     <g id="line2d_16">
      <path clip-path="url(#p8ff049a8d7)" d="M 345.095974 180.459209 
L 563.04 180.459209 
" style="fill:none;stroke:#ffffff;stroke-linecap:round;"/>
     </g>
     <g id="text_18">
      <!-- $\mathdefault{10^{-2}}$ -->
      <g style="fill:#262626;" transform="translate(313.815974 186.131084)scale(0.11 -0.11)">
       <use transform="translate(0 0.99375)" xlink:href="#ArialMT-49"/>
       <use transform="translate(55.615234 0.99375)" xlink:href="#ArialMT-48"/>
       <use transform="translate(112.972813 70.6875)scale(0.7)" xlink:href="#ArialMT-8722"/>
       <use transform="translate(153.851719 70.6875)scale(0.7)" xlink:href="#ArialMT-50"/>
      </g>
     </g>
    </g>
    <g id="ytick_19">
     <g id="line2d_17">
      <path clip-path="url(#p8ff049a8d7)" d="M 345.095974 148.398516 
L 563.04 148.398516 
" style="fill:none;stroke:#ffffff;stroke-linecap:round;"/>
     </g>
     <g id="text_19">
      <!-- $\mathdefault{10^{-1}}$ -->
      <g style="fill:#262626;" transform="translate(313.815974 154.070391)scale(0.11 -0.11)">
       <use transform="translate(0 0.99375)" xlink:href="#ArialMT-49"/>
       <use transform="translate(55.615234 0.99375)" xlink:href="#ArialMT-48"/>
       <use transform="translate(112.972813 70.6875)scale(0.7)" xlink:href="#ArialMT-8722"/>
       <use transform="translate(153.851719 70.6875)scale(0.7)" xlink:href="#ArialMT-49"/>
      </g>
     </g>
    </g>
    <g id="ytick_20">
     <g id="line2d_18">
      <path clip-path="url(#p8ff049a8d7)" d="M 345.095974 116.337823 
L 563.04 116.337823 
" style="fill:none;stroke:#ffffff;stroke-linecap:round;"/>
     </g>
     <g id="text_20">
      <!-- $\mathdefault{10^{0}}$ -->
      <g style="fill:#262626;" transform="translate(318.325974 122.009698)scale(0.11 -0.11)">
       <use transform="translate(0 0.99375)" xlink:href="#ArialMT-49"/>
       <use transform="translate(55.615234 0.99375)" xlink:href="#ArialMT-48"/>
       <use transform="translate(112.972813 70.6875)scale(0.7)" xlink:href="#ArialMT-48"/>
      </g>
     </g>
    </g>
    <g id="ytick_21">
     <g id="line2d_19">
      <path clip-path="url(#p8ff049a8d7)" d="M 345.095974 84.27713 
L 563.04 84.27713 
" style="fill:none;stroke:#ffffff;stroke-linecap:round;"/>
     </g>
     <g id="text_21">
      <!-- $\mathdefault{10^{1}}$ -->
      <g style="fill:#262626;" transform="translate(318.325974 89.949005)scale(0.11 -0.11)">
       <use transform="translate(0 0.99375)" xlink:href="#ArialMT-49"/>
       <use transform="translate(55.615234 0.99375)" xlink:href="#ArialMT-48"/>
       <use transform="translate(112.972813 70.6875)scale(0.7)" xlink:href="#ArialMT-49"/>
      </g>
     </g>
    </g>
    <g id="ytick_22">
     <g id="line2d_20">
      <path clip-path="url(#p8ff049a8d7)" d="M 345.095974 52.216437 
L 563.04 52.216437 
" style="fill:none;stroke:#ffffff;stroke-linecap:round;"/>
     </g>
     <g id="text_22">
      <!-- $\mathdefault{10^{2}}$ -->
      <g style="fill:#262626;" transform="translate(318.325974 57.888312)scale(0.11 -0.11)">
       <use transform="translate(0 0.99375)" xlink:href="#ArialMT-49"/>
       <use transform="translate(55.615234 0.99375)" xlink:href="#ArialMT-48"/>
       <use transform="translate(112.972813 70.6875)scale(0.7)" xlink:href="#ArialMT-50"/>
      </g>
     </g>
    </g>
    <g id="ytick_23"/>
    <g id="ytick_24"/>
    <g id="ytick_25"/>
    <g id="ytick_26"/>
    <g id="ytick_27"/>
    <g id="ytick_28"/>
    <g id="ytick_29"/>
    <g id="ytick_30"/>
    <g id="ytick_31"/>
    <g id="ytick_32"/>
    <g id="ytick_33"/>
    <g id="ytick_34"/>
    <g id="ytick_35"/>
    <g id="ytick_36"/>
    <g id="ytick_37"/>
    <g id="ytick_38"/>
    <g id="ytick_39"/>
    <g id="ytick_40"/>
    <g id="ytick_41"/>
    <g id="ytick_42"/>
    <g id="ytick_43"/>
    <g id="ytick_44"/>
    <g id="ytick_45"/>
    <g id="ytick_46"/>
    <g id="ytick_47"/>
    <g id="ytick_48"/>
    <g id="ytick_49"/>
    <g id="ytick_50"/>
    <g id="ytick_51"/>
    <g id="ytick_52"/>
    <g id="ytick_53"/>
    <g id="ytick_54"/>
    <g id="ytick_55"/>
    <g id="ytick_56"/>
    <g id="ytick_57"/>
    <g id="ytick_58"/>
    <g id="ytick_59"/>
    <g id="ytick_60"/>
    <g id="ytick_61"/>
    <g id="ytick_62"/>
    <g id="ytick_63"/>
    <g id="ytick_64"/>
    <g id="ytick_65"/>
    <g id="ytick_66"/>
    <g id="ytick_67"/>
    <g id="ytick_68"/>
    <g id="ytick_69"/>
    <g id="ytick_70"/>
    <g id="ytick_71"/>
    <g id="ytick_72"/>
    <g id="ytick_73"/>
    <g id="text_23">
     <!-- $\|g(x_k)\|$ -->
     <defs>
      <path d="M 21 76.421875 
L 21 -23.578125 
L 12.703125 -23.578125 
L 12.703125 76.421875 
z
" id="DejaVuSans-124"/>
      <path d="M 59.625 54.6875 
L 50.296875 6.78125 
Q 47.609375 -7.125 40.015625 -13.953125 
Q 32.421875 -20.796875 19.578125 -20.796875 
Q 14.84375 -20.796875 10.78125 -20.09375 
Q 6.734375 -19.390625 3.21875 -17.921875 
L 4.890625 -9.1875 
Q 8.203125 -11.328125 11.90625 -12.34375 
Q 15.625 -13.375 19.828125 -13.375 
Q 28.375 -13.375 33.859375 -8.703125 
Q 39.359375 -4.046875 41.109375 4.6875 
L 41.890625 8.796875 
Q 38.140625 4.5 33.15625 2.25 
Q 28.171875 0 22.40625 0 
Q 14.109375 0 9.34375 5.484375 
Q 4.59375 10.984375 4.59375 20.609375 
Q 4.59375 28.171875 7.46875 35.421875 
Q 10.359375 42.671875 15.578125 48.296875 
Q 19.046875 52 23.65625 54 
Q 28.265625 56 33.296875 56 
Q 38.8125 56 42.90625 53.4375 
Q 47.015625 50.875 49.03125 46.1875 
L 50.59375 54.6875 
z
M 46.09375 34.625 
Q 46.09375 41.265625 42.96875 44.875 
Q 39.84375 48.484375 34.078125 48.484375 
Q 30.515625 48.484375 27.296875 47.0625 
Q 24.078125 45.65625 21.78125 43.109375 
Q 18.0625 38.921875 15.984375 33.234375 
Q 13.921875 27.546875 13.921875 21.484375 
Q 13.921875 14.75 17.0625 11.125 
Q 20.21875 7.515625 26.125 7.515625 
Q 34.671875 7.515625 40.375 15.25 
Q 46.09375 23 46.09375 34.625 
z
" id="DejaVuSans-Oblique-103"/>
     </defs>
     <g style="fill:#262626;" transform="translate(306.935974 148.85)rotate(-90)scale(0.12 -0.12)">
      <use transform="translate(0 0.578125)" xlink:href="#DejaVuSans-124"/>
      <use transform="translate(33.691406 0.578125)" xlink:href="#DejaVuSans-Oblique-103"/>
      <use transform="translate(97.167969 0.578125)" xlink:href="#DejaVuSans-40"/>
      <use transform="translate(136.181641 0.578125)" xlink:href="#DejaVuSans-Oblique-120"/>
      <use transform="translate(195.361328 -15.828125)scale(0.7)" xlink:href="#DejaVuSans-Oblique-107"/>
      <use transform="translate(238.632812 0.578125)" xlink:href="#DejaVuSans-41"/>
      <use transform="translate(277.646484 0.578125)" xlink:href="#DejaVuSans-124"/>
     </g>
    </g>
   </g>
   <g id="PolyCollection_2">
    <defs>
     <path d="M 355.002521 -251.297273 
L 355.002521 -245.350806 
L 356.98383 -230.765965 
L 358.965139 -223.025559 
L 360.946449 -217.404144 
L 362.927758 -212.709495 
L 364.909067 -208.725278 
L 366.890377 -205.192964 
L 368.871686 -201.91811 
L 370.852995 -198.946544 
L 372.834305 -196.298279 
L 374.815614 -193.769464 
L 376.796923 -191.366152 
L 378.778233 -188.786391 
L 380.759542 -186.824381 
L 382.740851 -184.620221 
L 384.722161 -182.654722 
L 386.70347 -181.444784 
L 388.684779 -179.139424 
L 390.666089 -178.142095 
L 392.647398 -175.31229 
L 394.628707 -172.516619 
L 396.610017 -170.899063 
L 398.591326 -168.534099 
L 400.572635 -165.490041 
L 402.553945 -163.01608 
L 404.535254 -161.373227 
L 406.516563 -159.186747 
L 408.497873 -156.915817 
L 410.479182 -154.948948 
L 412.460491 -152.558762 
L 414.441801 -149.819725 
L 416.42311 -151.07156 
L 418.404419 -151.242567 
L 420.385729 -149.71402 
L 422.367038 -148.190771 
L 424.348347 -146.715755 
L 426.329657 -145.283153 
L 428.310966 -143.881163 
L 430.292275 -142.50079 
L 432.273585 -141.136249 
L 434.254894 -139.783899 
L 436.236203 -138.441361 
L 438.217513 -137.106998 
L 440.198822 -135.779614 
L 442.180131 -134.458301 
L 444.16144 -133.142346 
L 446.14275 -131.831177 
L 448.124059 -130.52433 
L 450.105368 -129.221426 
L 452.086678 -127.922154 
L 454.067987 -126.626257 
L 456.049296 -125.333521 
L 458.030606 -124.043769 
L 460.011915 -122.756855 
L 461.993224 -121.472653 
L 463.974534 -120.191059 
L 465.955843 -118.911983 
L 467.937152 -117.635348 
L 469.918462 -116.361085 
L 471.899771 -115.089136 
L 473.88108 -113.819446 
L 475.86239 -112.551966 
L 477.843699 -111.286651 
L 479.825008 -110.023458 
L 481.806318 -108.762347 
L 483.787627 -107.503279 
L 485.768936 -106.246214 
L 487.750246 -104.991117 
L 489.731555 -103.737951 
L 491.712864 -102.486678 
L 493.694174 -101.237264 
L 495.675483 -99.98967 
L 497.656792 -98.743862 
L 499.638102 -97.499803 
L 501.619411 -96.257456 
L 503.60072 -95.016785 
L 505.58203 -93.777755 
L 507.563339 -92.540328 
L 509.544648 -91.304468 
L 511.525958 -90.07014 
L 513.507267 -88.837307 
L 515.488576 -87.605933 
L 517.469886 -86.375984 
L 519.451195 -85.147424 
L 521.432504 -83.920218 
L 523.413813 -82.694331 
L 525.395123 -81.469731 
L 527.376432 -80.246382 
L 529.357741 -79.024254 
L 531.339051 -77.803312 
L 533.32036 -76.583526 
L 535.301669 -75.364865 
L 537.282979 -74.147297 
L 539.264288 -72.930794 
L 541.245597 -71.715326 
L 543.226907 -70.500865 
L 545.208216 -69.287384 
L 547.189525 -68.074855 
L 549.170835 -66.863252 
L 551.152144 -65.652551 
L 553.133453 -64.442727 
L 553.133453 -88.073058 
L 553.133453 -88.073058 
L 551.152144 -89.21401 
L 549.170835 -90.355221 
L 547.189525 -91.496696 
L 545.208216 -92.638442 
L 543.226907 -93.780464 
L 541.245597 -94.922768 
L 539.264288 -96.065361 
L 537.282979 -97.208249 
L 535.301669 -98.351439 
L 533.32036 -99.494939 
L 531.339051 -100.638754 
L 529.357741 -101.782894 
L 527.376432 -102.927365 
L 525.395123 -104.072177 
L 523.413813 -105.217338 
L 521.432504 -106.362856 
L 519.451195 -107.508742 
L 517.469886 -108.655004 
L 515.488576 -109.801653 
L 513.507267 -110.948699 
L 511.525958 -112.096154 
L 509.544648 -113.244029 
L 507.563339 -114.392335 
L 505.58203 -115.541087 
L 503.60072 -116.690295 
L 501.619411 -117.839976 
L 499.638102 -118.990142 
L 497.656792 -120.14081 
L 495.675483 -121.291994 
L 493.694174 -122.443713 
L 491.712864 -123.595982 
L 489.731555 -124.748822 
L 487.750246 -125.902251 
L 485.768936 -127.056289 
L 483.787627 -128.21096 
L 481.806318 -129.366285 
L 479.825008 -130.522289 
L 477.843699 -131.678998 
L 475.86239 -132.83644 
L 473.88108 -133.994644 
L 471.899771 -135.153642 
L 469.918462 -136.313468 
L 467.937152 -137.474158 
L 465.955843 -138.635752 
L 463.974534 -139.798294 
L 461.993224 -140.96183 
L 460.011915 -142.126412 
L 458.030606 -143.292098 
L 456.049296 -144.458951 
L 454.067987 -145.627043 
L 452.086678 -146.796454 
L 450.105368 -147.967275 
L 448.124059 -149.13961 
L 446.14275 -150.313581 
L 444.16144 -151.489328 
L 442.180131 -152.667017 
L 440.198822 -153.846847 
L 438.217513 -155.029063 
L 436.236203 -156.213968 
L 434.254894 -157.401959 
L 432.273585 -158.593576 
L 430.292275 -159.789605 
L 428.310966 -160.991288 
L 426.329657 -162.200782 
L 424.348347 -163.422245 
L 422.367038 -164.664575 
L 420.385729 -165.948997 
L 418.404419 -167.339727 
L 416.42311 -169.790312 
L 414.441801 -172.788341 
L 412.460491 -174.170694 
L 410.479182 -175.403451 
L 408.497873 -176.969862 
L 406.516563 -179.177029 
L 404.535254 -180.496634 
L 402.553945 -181.565482 
L 400.572635 -183.025926 
L 398.591326 -184.543575 
L 396.610017 -185.939626 
L 394.628707 -187.452697 
L 392.647398 -188.977136 
L 390.666089 -190.622416 
L 388.684779 -192.229945 
L 386.70347 -193.63963 
L 384.722161 -195.337032 
L 382.740851 -197.2529 
L 380.759542 -199.110367 
L 378.778233 -200.901509 
L 376.796923 -202.753075 
L 374.815614 -204.493995 
L 372.834305 -206.364757 
L 370.852995 -208.266195 
L 368.871686 -210.421884 
L 366.890377 -212.784709 
L 364.909067 -215.506174 
L 362.927758 -218.795087 
L 360.946449 -222.94654 
L 358.965139 -228.183663 
L 356.98383 -235.600036 
L 355.002521 -251.297273 
z
" id="m3d5fd3ca8c" style="stroke:#ffffff;stroke-opacity:0.3;"/>
    </defs>
    <g clip-path="url(#p8ff049a8d7)">
     <use style="fill:#4c72b0;fill-opacity:0.3;stroke:#ffffff;stroke-opacity:0.3;" x="0" xlink:href="#m3d5fd3ca8c" y="288"/>
    </g>
   </g>
   <g id="line2d_21">
    <path clip-path="url(#p8ff049a8d7)" d="M 355.002521 39.360897 
L 356.98383 54.608258 
L 358.965139 62.157888 
L 360.946449 67.550689 
L 362.927758 71.917848 
L 364.909067 75.475502 
L 366.890377 78.500037 
L 368.871686 81.190652 
L 370.852995 83.628022 
L 372.834305 85.77791 
L 374.815614 87.860282 
L 376.796923 89.807414 
L 378.778233 91.877957 
L 380.759542 93.719327 
L 382.740851 95.677376 
L 384.722161 97.607497 
L 386.70347 99.163327 
L 388.684779 100.830452 
L 390.666089 102.263877 
L 392.647398 104.242194 
L 394.628707 106.101841 
L 396.610017 107.641469 
L 398.591326 109.276802 
L 400.572635 111.146601 
L 402.553945 112.82484 
L 404.535254 114.011598 
L 406.516563 115.502072 
L 408.497873 117.721473 
L 410.479182 119.363686 
L 412.460491 120.805796 
L 414.441801 122.41593 
L 416.42311 124.635201 
L 418.404419 126.50169 
L 420.385729 127.925287 
L 422.367038 129.266079 
L 424.348347 130.562623 
L 426.329657 131.832681 
L 428.310966 133.085987 
L 430.292275 134.327922 
L 432.273585 135.561545 
L 434.254894 136.788693 
L 436.236203 138.010546 
L 438.217513 139.227921 
L 440.198822 140.441413 
L 442.180131 141.651481 
L 444.16144 142.858487 
L 446.14275 144.062726 
L 448.124059 145.264442 
L 450.105368 146.463837 
L 452.086678 147.661082 
L 454.067987 148.856325 
L 456.049296 150.04969 
L 458.030606 151.241287 
L 460.011915 152.43121 
L 461.993224 153.619542 
L 463.974534 154.806358 
L 465.955843 155.991724 
L 467.937152 157.1757 
L 469.918462 158.358341 
L 471.899771 159.539695 
L 473.88108 160.71981 
L 475.86239 161.898728 
L 477.843699 163.076489 
L 479.825008 164.253131 
L 481.806318 165.428688 
L 483.787627 166.603196 
L 485.768936 167.776685 
L 487.750246 168.949186 
L 489.731555 170.120729 
L 491.712864 171.291342 
L 493.694174 172.461052 
L 495.675483 173.629885 
L 497.656792 174.797866 
L 499.638102 175.96502 
L 501.619411 177.131369 
L 503.60072 178.296937 
L 505.58203 179.461746 
L 507.563339 180.625816 
L 509.544648 181.789169 
L 511.525958 182.951825 
L 513.507267 184.113802 
L 515.488576 185.275119 
L 517.469886 186.435795 
L 519.451195 187.595847 
L 521.432504 188.755292 
L 523.413813 189.914147 
L 525.395123 191.072426 
L 527.376432 192.230146 
L 529.357741 193.387322 
L 531.339051 194.543968 
L 533.32036 195.700098 
L 535.301669 196.855725 
L 537.282979 198.010862 
L 539.264288 199.165522 
L 541.245597 200.319718 
L 543.226907 201.47346 
L 545.208216 202.62676 
L 547.189525 203.779629 
L 549.170835 204.932078 
L 551.152144 206.084116 
L 553.133453 207.235754 
" style="fill:none;stroke:#4c72b0;stroke-linecap:round;stroke-width:1.5;"/>
   </g>
   <g id="patch_8">
    <path d="M 345.095974 232.9 
L 345.095974 27.36 
" style="fill:none;stroke:#ffffff;stroke-linecap:square;stroke-linejoin:miter;stroke-width:1.25;"/>
   </g>
   <g id="patch_9">
    <path d="M 563.04 232.9 
L 563.04 27.36 
" style="fill:none;stroke:#ffffff;stroke-linecap:square;stroke-linejoin:miter;stroke-width:1.25;"/>
   </g>
   <g id="patch_10">
    <path d="M 345.095974 232.9 
L 563.04 232.9 
" style="fill:none;stroke:#ffffff;stroke-linecap:square;stroke-linejoin:miter;stroke-width:1.25;"/>
   </g>
   <g id="patch_11">
    <path d="M 345.095974 27.36 
L 563.04 27.36 
" style="fill:none;stroke:#ffffff;stroke-linecap:square;stroke-linejoin:miter;stroke-width:1.25;"/>
   </g>
  </g>
  <g id="text_24">
   <!-- LLS with $l_1$ regularization. 50 runs. $\lambda = 0.9$ -->
   <defs>
    <path d="M 7.328125 0 
L 7.328125 71.578125 
L 16.796875 71.578125 
L 16.796875 8.453125 
L 52.046875 8.453125 
L 52.046875 0 
z
" id="ArialMT-76"/>
    <path d="M 4.5 23 
L 13.421875 23.78125 
Q 14.0625 18.40625 16.375 14.96875 
Q 18.703125 11.53125 23.578125 9.40625 
Q 28.46875 7.28125 34.578125 7.28125 
Q 39.984375 7.28125 44.140625 8.890625 
Q 48.296875 10.5 50.3125 13.296875 
Q 52.34375 16.109375 52.34375 19.4375 
Q 52.34375 22.796875 50.390625 25.3125 
Q 48.4375 27.828125 43.953125 29.546875 
Q 41.0625 30.671875 31.203125 33.03125 
Q 21.34375 35.40625 17.390625 37.5 
Q 12.25 40.1875 9.734375 44.15625 
Q 7.234375 48.140625 7.234375 53.078125 
Q 7.234375 58.5 10.296875 63.203125 
Q 13.375 67.921875 19.28125 70.359375 
Q 25.203125 72.796875 32.421875 72.796875 
Q 40.375 72.796875 46.453125 70.234375 
Q 52.546875 67.671875 55.8125 62.6875 
Q 59.078125 57.71875 59.328125 51.421875 
L 50.25 50.734375 
Q 49.515625 57.515625 45.28125 60.984375 
Q 41.0625 64.453125 32.8125 64.453125 
Q 24.21875 64.453125 20.28125 61.296875 
Q 16.359375 58.15625 16.359375 53.71875 
Q 16.359375 49.859375 19.140625 47.359375 
Q 21.875 44.875 33.421875 42.265625 
Q 44.96875 39.65625 49.265625 37.703125 
Q 55.515625 34.8125 58.484375 30.390625 
Q 61.46875 25.984375 61.46875 20.21875 
Q 61.46875 14.5 58.203125 9.4375 
Q 54.9375 4.390625 48.796875 1.578125 
Q 42.671875 -1.21875 35.015625 -1.21875 
Q 25.296875 -1.21875 18.71875 1.609375 
Q 12.15625 4.4375 8.421875 10.125 
Q 4.6875 15.828125 4.5 23 
z
" id="ArialMT-83"/>
    <path id="ArialMT-32"/>
    <path d="M 16.15625 0 
L 0.296875 51.859375 
L 9.375 51.859375 
L 17.625 21.921875 
L 20.703125 10.796875 
Q 20.90625 11.625 23.390625 21.484375 
L 31.640625 51.859375 
L 40.671875 51.859375 
L 48.4375 21.78125 
L 51.03125 11.859375 
L 54 21.875 
L 62.890625 51.859375 
L 71.4375 51.859375 
L 55.21875 0 
L 46.09375 0 
L 37.84375 31.0625 
L 35.84375 39.890625 
L 25.34375 0 
z
" id="ArialMT-119"/>
    <path d="M 6.59375 0 
L 6.59375 71.578125 
L 15.375 71.578125 
L 15.375 45.90625 
Q 21.53125 53.03125 30.90625 53.03125 
Q 36.671875 53.03125 40.921875 50.75 
Q 45.171875 48.484375 47 44.484375 
Q 48.828125 40.484375 48.828125 32.859375 
L 48.828125 0 
L 40.046875 0 
L 40.046875 32.859375 
Q 40.046875 39.453125 37.1875 42.453125 
Q 34.328125 45.453125 29.109375 45.453125 
Q 25.203125 45.453125 21.75 43.421875 
Q 18.3125 41.40625 16.84375 37.9375 
Q 15.375 34.46875 15.375 28.375 
L 15.375 0 
z
" id="ArialMT-104"/>
    <path d="M 18.3125 75.984375 
L 27.296875 75.984375 
L 12.5 0 
L 3.515625 0 
z
" id="DejaVuSans-Oblique-108"/>
    <path d="M 12.40625 8.296875 
L 28.515625 8.296875 
L 28.515625 63.921875 
L 10.984375 60.40625 
L 10.984375 69.390625 
L 28.421875 72.90625 
L 38.28125 72.90625 
L 38.28125 8.296875 
L 54.390625 8.296875 
L 54.390625 0 
L 12.40625 0 
z
" id="DejaVuSans-49"/>
    <path d="M 4.984375 -4.296875 
L 13.53125 -5.5625 
Q 14.0625 -9.515625 16.5 -11.328125 
Q 19.78125 -13.765625 25.4375 -13.765625 
Q 31.546875 -13.765625 34.859375 -11.328125 
Q 38.1875 -8.890625 39.359375 -4.5 
Q 40.046875 -1.8125 39.984375 6.78125 
Q 34.234375 0 25.640625 0 
Q 14.9375 0 9.078125 7.71875 
Q 3.21875 15.4375 3.21875 26.21875 
Q 3.21875 33.640625 5.90625 39.90625 
Q 8.59375 46.1875 13.6875 49.609375 
Q 18.796875 53.03125 25.6875 53.03125 
Q 34.859375 53.03125 40.828125 45.609375 
L 40.828125 51.859375 
L 48.921875 51.859375 
L 48.921875 7.03125 
Q 48.921875 -5.078125 46.453125 -10.125 
Q 44 -15.1875 38.640625 -18.109375 
Q 33.296875 -21.046875 25.484375 -21.046875 
Q 16.21875 -21.046875 10.5 -16.875 
Q 4.78125 -12.703125 4.984375 -4.296875 
z
M 12.25 26.859375 
Q 12.25 16.65625 16.296875 11.96875 
Q 20.359375 7.28125 26.46875 7.28125 
Q 32.515625 7.28125 36.609375 11.9375 
Q 40.71875 16.609375 40.71875 26.5625 
Q 40.71875 36.078125 36.5 40.90625 
Q 32.28125 45.75 26.3125 45.75 
Q 20.453125 45.75 16.34375 40.984375 
Q 12.25 36.234375 12.25 26.859375 
z
" id="ArialMT-103"/>
    <path d="M 40.578125 0 
L 40.578125 7.625 
Q 34.515625 -1.171875 24.125 -1.171875 
Q 19.53125 -1.171875 15.546875 0.578125 
Q 11.578125 2.34375 9.640625 5 
Q 7.71875 7.671875 6.9375 11.53125 
Q 6.390625 14.109375 6.390625 19.734375 
L 6.390625 51.859375 
L 15.1875 51.859375 
L 15.1875 23.09375 
Q 15.1875 16.21875 15.71875 13.8125 
Q 16.546875 10.359375 19.234375 8.375 
Q 21.921875 6.390625 25.875 6.390625 
Q 29.828125 6.390625 33.296875 8.421875 
Q 36.765625 10.453125 38.203125 13.9375 
Q 39.65625 17.4375 39.65625 24.078125 
L 39.65625 51.859375 
L 48.4375 51.859375 
L 48.4375 0 
z
" id="ArialMT-117"/>
    <path d="M 6.390625 0 
L 6.390625 71.578125 
L 15.1875 71.578125 
L 15.1875 0 
z
" id="ArialMT-108"/>
    <path d="M 1.953125 0 
L 1.953125 7.125 
L 34.96875 45.015625 
Q 29.34375 44.734375 25.046875 44.734375 
L 3.90625 44.734375 
L 3.90625 51.859375 
L 46.296875 51.859375 
L 46.296875 46.046875 
L 18.21875 13.140625 
L 12.796875 7.125 
Q 18.703125 7.5625 23.875 7.5625 
L 47.859375 7.5625 
L 47.859375 0 
z
" id="ArialMT-122"/>
    <path d="M 9.078125 0 
L 9.078125 10.015625 
L 19.09375 10.015625 
L 19.09375 0 
z
" id="ArialMT-46"/>
    <path d="M 4.15625 18.75 
L 13.375 19.53125 
Q 14.40625 12.796875 18.140625 9.390625 
Q 21.875 6 27.15625 6 
Q 33.5 6 37.890625 10.78125 
Q 42.28125 15.578125 42.28125 23.484375 
Q 42.28125 31 38.0625 35.34375 
Q 33.84375 39.703125 27 39.703125 
Q 22.75 39.703125 19.328125 37.765625 
Q 15.921875 35.84375 13.96875 32.765625 
L 5.71875 33.84375 
L 12.640625 70.609375 
L 48.25 70.609375 
L 48.25 62.203125 
L 19.671875 62.203125 
L 15.828125 42.96875 
Q 22.265625 47.46875 29.34375 47.46875 
Q 38.71875 47.46875 45.15625 40.96875 
Q 51.609375 34.46875 51.609375 24.265625 
Q 51.609375 14.546875 45.953125 7.46875 
Q 39.0625 -1.21875 27.15625 -1.21875 
Q 17.390625 -1.21875 11.203125 4.25 
Q 5.03125 9.71875 4.15625 18.75 
z
" id="ArialMT-53"/>
    <path d="M 3.078125 15.484375 
L 11.765625 16.84375 
Q 12.5 11.625 15.84375 8.84375 
Q 19.1875 6.0625 25.203125 6.0625 
Q 31.25 6.0625 34.171875 8.515625 
Q 37.109375 10.984375 37.109375 14.3125 
Q 37.109375 17.28125 34.515625 19 
Q 32.71875 20.171875 25.53125 21.96875 
Q 15.875 24.421875 12.140625 26.203125 
Q 8.40625 27.984375 6.46875 31.125 
Q 4.546875 34.28125 4.546875 38.09375 
Q 4.546875 41.546875 6.125 44.5 
Q 7.71875 47.46875 10.453125 49.421875 
Q 12.5 50.921875 16.03125 51.96875 
Q 19.578125 53.03125 23.640625 53.03125 
Q 29.734375 53.03125 34.34375 51.265625 
Q 38.96875 49.515625 41.15625 46.5 
Q 43.359375 43.5 44.1875 38.484375 
L 35.59375 37.3125 
Q 35.015625 41.3125 32.203125 43.546875 
Q 29.390625 45.796875 24.265625 45.796875 
Q 18.21875 45.796875 15.625 43.796875 
Q 13.03125 41.796875 13.03125 39.109375 
Q 13.03125 37.40625 14.109375 36.03125 
Q 15.1875 34.625 17.484375 33.6875 
Q 18.796875 33.203125 25.25 31.453125 
Q 34.578125 28.953125 38.25 27.359375 
Q 41.9375 25.78125 44.03125 22.75 
Q 46.140625 19.734375 46.140625 15.234375 
Q 46.140625 10.84375 43.578125 6.953125 
Q 41.015625 3.078125 36.171875 0.953125 
Q 31.34375 -1.171875 25.25 -1.171875 
Q 15.140625 -1.171875 9.84375 3.03125 
Q 4.546875 7.234375 3.078125 15.484375 
z
" id="ArialMT-115"/>
    <path d="M 36.71875 67.4375 
L 48.828125 0 
L 39.3125 0 
L 31.84375 40.4375 
L 5.125 0 
L -4.390625 0 
L 29.734375 52.4375 
L 28.03125 62.109375 
Q 26.953125 68.265625 21.734375 68.265625 
L 17.046875 68.265625 
L 18.5 75.984375 
L 24.21875 75.875 
Q 35.203125 75.734375 36.71875 67.4375 
z
" id="DejaVuSans-Oblique-955"/>
    <path d="M 10.59375 45.40625 
L 73.1875 45.40625 
L 73.1875 37.203125 
L 10.59375 37.203125 
z
M 10.59375 25.484375 
L 73.1875 25.484375 
L 73.1875 17.1875 
L 10.59375 17.1875 
z
" id="DejaVuSans-61"/>
    <path d="M 31.78125 66.40625 
Q 24.171875 66.40625 20.328125 58.90625 
Q 16.5 51.421875 16.5 36.375 
Q 16.5 21.390625 20.328125 13.890625 
Q 24.171875 6.390625 31.78125 6.390625 
Q 39.453125 6.390625 43.28125 13.890625 
Q 47.125 21.390625 47.125 36.375 
Q 47.125 51.421875 43.28125 58.90625 
Q 39.453125 66.40625 31.78125 66.40625 
z
M 31.78125 74.21875 
Q 44.046875 74.21875 50.515625 64.515625 
Q 56.984375 54.828125 56.984375 36.375 
Q 56.984375 17.96875 50.515625 8.265625 
Q 44.046875 -1.421875 31.78125 -1.421875 
Q 19.53125 -1.421875 13.0625 8.265625 
Q 6.59375 17.96875 6.59375 36.375 
Q 6.59375 54.828125 13.0625 64.515625 
Q 19.53125 74.21875 31.78125 74.21875 
z
" id="DejaVuSans-48"/>
    <path d="M 10.6875 12.40625 
L 21 12.40625 
L 21 0 
L 10.6875 0 
z
" id="DejaVuSans-46"/>
    <path d="M 10.984375 1.515625 
L 10.984375 10.5 
Q 14.703125 8.734375 18.5 7.8125 
Q 22.3125 6.890625 25.984375 6.890625 
Q 35.75 6.890625 40.890625 13.453125 
Q 46.046875 20.015625 46.78125 33.40625 
Q 43.953125 29.203125 39.59375 26.953125 
Q 35.25 24.703125 29.984375 24.703125 
Q 19.046875 24.703125 12.671875 31.3125 
Q 6.296875 37.9375 6.296875 49.421875 
Q 6.296875 60.640625 12.9375 67.421875 
Q 19.578125 74.21875 30.609375 74.21875 
Q 43.265625 74.21875 49.921875 64.515625 
Q 56.59375 54.828125 56.59375 36.375 
Q 56.59375 19.140625 48.40625 8.859375 
Q 40.234375 -1.421875 26.421875 -1.421875 
Q 22.703125 -1.421875 18.890625 -0.6875 
Q 15.09375 0.046875 10.984375 1.515625 
z
M 30.609375 32.421875 
Q 37.25 32.421875 41.125 36.953125 
Q 45.015625 41.5 45.015625 49.421875 
Q 45.015625 57.28125 41.125 61.84375 
Q 37.25 66.40625 30.609375 66.40625 
Q 23.96875 66.40625 20.09375 61.84375 
Q 16.21875 57.28125 16.21875 49.421875 
Q 16.21875 41.5 20.09375 36.953125 
Q 23.96875 32.421875 30.609375 32.421875 
z
" id="DejaVuSans-57"/>
   </defs>
   <g style="fill:#262626;" transform="translate(151.128 16.704)scale(0.144 -0.144)">
    <use transform="translate(0 0.015625)" xlink:href="#ArialMT-76"/>
    <use transform="translate(55.615234 0.015625)" xlink:href="#ArialMT-76"/>
    <use transform="translate(111.230469 0.015625)" xlink:href="#ArialMT-83"/>
    <use transform="translate(177.929688 0.015625)" xlink:href="#ArialMT-32"/>
    <use transform="translate(205.712891 0.015625)" xlink:href="#ArialMT-119"/>
    <use transform="translate(277.929688 0.015625)" xlink:href="#ArialMT-105"/>
    <use transform="translate(300.146484 0.015625)" xlink:href="#ArialMT-116"/>
    <use transform="translate(327.929688 0.015625)" xlink:href="#ArialMT-104"/>
    <use transform="translate(383.544922 0.015625)" xlink:href="#ArialMT-32"/>
    <use transform="translate(411.328125 0.015625)" xlink:href="#DejaVuSans-Oblique-108"/>
    <use transform="translate(439.111328 -16.390625)scale(0.7)" xlink:href="#DejaVuSans-49"/>
    <use transform="translate(486.381836 0.015625)" xlink:href="#ArialMT-32"/>
    <use transform="translate(514.165039 0.015625)" xlink:href="#ArialMT-114"/>
    <use transform="translate(547.46582 0.015625)" xlink:href="#ArialMT-101"/>
    <use transform="translate(603.081055 0.015625)" xlink:href="#ArialMT-103"/>
    <use transform="translate(658.696289 0.015625)" xlink:href="#ArialMT-117"/>
    <use transform="translate(714.311523 0.015625)" xlink:href="#ArialMT-108"/>
    <use transform="translate(736.52832 0.015625)" xlink:href="#ArialMT-97"/>
    <use transform="translate(792.143555 0.015625)" xlink:href="#ArialMT-114"/>
    <use transform="translate(825.444336 0.015625)" xlink:href="#ArialMT-105"/>
    <use transform="translate(847.661133 0.015625)" xlink:href="#ArialMT-122"/>
    <use transform="translate(897.661133 0.015625)" xlink:href="#ArialMT-97"/>
    <use transform="translate(953.276367 0.015625)" xlink:href="#ArialMT-116"/>
    <use transform="translate(981.05957 0.015625)" xlink:href="#ArialMT-105"/>
    <use transform="translate(1003.276367 0.015625)" xlink:href="#ArialMT-111"/>
    <use transform="translate(1058.891602 0.015625)" xlink:href="#ArialMT-110"/>
    <use transform="translate(1114.506836 0.015625)" xlink:href="#ArialMT-46"/>
    <use transform="translate(1142.290039 0.015625)" xlink:href="#ArialMT-32"/>
    <use transform="translate(1170.073242 0.015625)" xlink:href="#ArialMT-53"/>
    <use transform="translate(1225.688477 0.015625)" xlink:href="#ArialMT-48"/>
    <use transform="translate(1281.303711 0.015625)" xlink:href="#ArialMT-32"/>
    <use transform="translate(1309.086914 0.015625)" xlink:href="#ArialMT-114"/>
    <use transform="translate(1342.387695 0.015625)" xlink:href="#ArialMT-117"/>
    <use transform="translate(1398.00293 0.015625)" xlink:href="#ArialMT-110"/>
    <use transform="translate(1453.618164 0.015625)" xlink:href="#ArialMT-115"/>
    <use transform="translate(1503.618164 0.015625)" xlink:href="#ArialMT-46"/>
    <use transform="translate(1531.401367 0.015625)" xlink:href="#ArialMT-32"/>
    <use transform="translate(1559.18457 0.015625)" xlink:href="#DejaVuSans-Oblique-955"/>
    <use transform="translate(1637.84668 0.015625)" xlink:href="#DejaVuSans-61"/>
    <use transform="translate(1741.118164 0.015625)" xlink:href="#DejaVuSans-48"/>
    <use transform="translate(1804.741211 0.015625)" xlink:href="#DejaVuSans-46"/>
    <use transform="translate(1836.52832 0.015625)" xlink:href="#DejaVuSans-57"/>
   </g>
  </g>
 </g>
 <defs>
  <clipPath id="pe239943e14">
   <rect height="205.54" width="217.944026" x="60.815134" y="27.36"/>
  </clipPath>
  <clipPath id="p8ff049a8d7">
   <rect height="205.54" width="217.944026" x="345.095974" y="27.36"/>
  </clipPath>
 </defs>
</svg>
