<svg width="1280" height="720" xmlns="http://www.w3.org/2000/svg" xmlns:xlink="http://www.w3.org/1999/xlink" overflow="hidden"><defs><clipPath id="clip0"><rect x="0" y="0" width="1280" height="720"/></clipPath></defs><g clip-path="url(#clip0)"><rect x="0" y="0" width="1280" height="720" fill="#FFFFFF"/><path d="M2-3.17437e-07 2.0001 657.508-1.9999 657.508-2 3.17437e-07ZM8.72766 646.514 0.000104769 661.476-8.72746 646.514C-9.28402 645.56-8.96174 644.336-8.00764 643.779-7.05354 643.223-5.8289 643.545-5.27234 644.499L1.72766 656.499-1.72745 656.499 5.27254 644.499C5.8291 643.545 7.05374 643.223 8.00784 643.779 8.96195 644.336 9.28422 645.56 8.72766 646.514Z" fill="#5B9BD5" transform="matrix(1 0 0 -1 640 682.467)"/><path d="M306 358 980.514 358 980.514 362 306 362ZM969.509 351.273 984.471 360 969.509 368.728C968.555 369.284 967.331 368.962 966.774 368.008 966.218 367.054 966.54 365.829 967.494 365.273L979.494 358.273 979.494 361.728 967.494 354.728C966.54 354.171 966.218 352.946 966.774 351.992 967.331 351.038 968.555 350.716 969.509 351.273Z" fill="#5B9BD5"/><text font-family="CMU Classical Serif,CMU Classical Serif_MSFontService,sans-serif" font-style="italic" font-weight="500" font-size="80" transform="translate(979.715 425)">x<tspan font-size="53" x="37" y="19">1</tspan><tspan font-size="80" x="-428.373" y="-379">x</tspan><tspan font-size="53" x="-391.373" y="-360">2</tspan><tspan font-size="80" x="-393.132" y="-3">0</tspan></text><path d="M334 346 740.648 747.463" stroke="#1F4E79" stroke-width="8" stroke-miterlimit="8" fill="none" fill-rule="evenodd"/><path d="M357 272 810.754 719.969" stroke="#1F4E79" stroke-width="6" stroke-miterlimit="8" fill="none" fill-rule="evenodd"/><path d="M357 175 862.551 674.105" stroke="#1F4E79" stroke-width="4" stroke-miterlimit="8" fill="none" fill-rule="evenodd"/><path d="M352.5 79.5001 928.5 648.156" stroke="#1F4E79" stroke-width="3" stroke-miterlimit="8" fill="none" fill-rule="evenodd"/><path d="M490.5 21.5001 958.775 483.805" stroke="#1F4E79" stroke-width="1.33333" stroke-miterlimit="8" fill="none" fill-rule="evenodd"/><path d="M421 53 941.356 566.721" stroke="#1F4E79" stroke-width="2" stroke-miterlimit="8" fill="none" fill-rule="evenodd"/><path d="M549.5-16.5001 953.7 382.546" stroke="#1F4E79" stroke-miterlimit="8" fill="none" fill-rule="evenodd"/><text font-family="CMU Classical Serif,CMU Classical Serif_MSFontService,sans-serif" font-style="italic" font-weight="500" font-size="59" transform="translate(32.6646 658)">f(x) = x<tspan font-size="39" x="207.333" y="14">1</tspan><tspan font-size="59" x="227.333" y="0">+x</tspan><tspan font-size="39" x="299.5" y="14">2</tspan><tspan font-size="59" x="319.5" y="0">=C</tspan><tspan font-size="37" x="220.653" y="-386">C=</tspan><tspan font-size="37" x="275.986" y="-386">-</tspan><tspan font-size="37" x="289.319" y="-386">2</tspan><tspan font-size="37" x="226.666" y="-471">C=</tspan><tspan font-size="37" x="281.999" y="-471">-</tspan><tspan font-size="37" x="295.333" y="-471">1</tspan><tspan font-size="37" x="217.552" y="-558">C=0</tspan><tspan font-size="37" x="937.9" y="-54">C=1</tspan><tspan font-size="37" x="933.359" y="-149">C=2</tspan></text></g></svg>