<svg width="1280" height="720" xmlns="http://www.w3.org/2000/svg" xmlns:xlink="http://www.w3.org/1999/xlink" overflow="hidden"><defs><clipPath id="clip0"><rect x="0" y="0" width="1280" height="720"/></clipPath></defs><g clip-path="url(#clip0)"><rect x="0" y="0" width="1280" height="720" fill="#FFFFFF"/><path d="M2-3.17437e-07 2.0001 657.508-1.9999 657.508-2 3.17437e-07ZM8.72766 646.514 0.000104769 661.476-8.72746 646.514C-9.28402 645.56-8.96174 644.336-8.00764 643.779-7.05354 643.223-5.8289 643.545-5.27234 644.499L1.72766 656.499-1.72745 656.499 5.27254 644.499C5.8291 643.545 7.05374 643.223 8.00784 643.779 8.96195 644.336 9.28422 645.56 8.72766 646.514Z" transform="matrix(1 0 0 -1 640 682.467)"/><path d="M306 358 980.514 358 980.514 362 306 362ZM969.509 351.273 984.471 360 969.509 368.728C968.555 369.284 967.331 368.962 966.774 368.008 966.218 367.054 966.54 365.829 967.494 365.273L979.494 358.273 979.494 361.728 967.494 354.728C966.54 354.171 966.218 352.946 966.774 351.992 967.331 351.038 968.555 350.716 969.509 351.273Z" fill="#44546A"/><text font-family="CMU Classical Serif,CMU Classical Serif_MSFontService,sans-serif" font-style="italic" font-weight="500" font-size="80" transform="translate(979.715 425)">x<tspan font-size="53" x="37" y="19">1</tspan><tspan font-size="80" x="-428.373" y="-379">x</tspan><tspan font-size="53" x="-391.373" y="-360">2</tspan></text><path d="M801 552.5C801 534.551 815.775 520 834 520 852.225 520 867 534.551 867 552.5 867 570.449 852.225 585 834 585 815.775 585 801 570.449 801 552.5Z" stroke="#44546A" stroke-width="8" stroke-miterlimit="8" fill="none" fill-rule="evenodd"/><path d="M306 358 980.514 358 980.514 362 306 362ZM969.509 351.273 984.471 360 969.509 368.728C968.555 369.284 967.331 368.962 966.774 368.008 966.218 367.054 966.54 365.829 967.494 365.273L979.494 358.273 979.494 361.728 967.494 354.728C966.54 354.171 966.218 352.946 966.774 351.992 967.331 351.038 968.555 350.716 969.509 351.273Z"/><text font-family="CMU Classical Serif,CMU Classical Serif_MSFontService,sans-serif" font-style="italic" font-weight="500" font-size="80" transform="translate(979.715 425)">x<tspan font-size="53" x="37" y="19">1</tspan><tspan font-size="80" x="-428.373" y="-379">x</tspan><tspan font-size="53" x="-391.373" y="-360">2</tspan></text><path d="M769 551.5C769 515.878 797.878 487 833.5 487 869.122 487 898 515.878 898 551.5 898 587.122 869.122 616 833.5 616 797.878 616 769 587.122 769 551.5Z" stroke="#44546A" stroke-width="6" stroke-miterlimit="8" fill="none" fill-rule="evenodd"/><path d="M737 552C737 498.981 780.205 456 833.5 456 886.795 456 930 498.981 930 552 930 605.019 886.795 648 833.5 648 780.205 648 737 605.019 737 552Z" stroke="#44546A" stroke-width="4" stroke-miterlimit="8" fill="none" fill-rule="evenodd"/><path d="M686.5 552C686.5 471.643 752.09 406.5 833 406.5 913.91 406.5 979.5 471.643 979.5 552 979.5 632.357 913.91 697.5 833 697.5 752.09 697.5 686.5 632.357 686.5 552Z" stroke="#44546A" stroke-width="3" stroke-miterlimit="8" fill="none" fill-rule="evenodd"/><path d="M634 552.5C634 443.424 722.871 355 832.5 355 942.128 355 1031 443.424 1031 552.5 1031 661.576 942.128 750 832.5 750 722.871 750 634 661.576 634 552.5Z" stroke="#44546A" stroke-width="2" stroke-miterlimit="8" fill="none" fill-rule="evenodd"/><path d="M593.5 553C593.5 421.28 700.728 314.5 833 314.5 965.272 314.5 1072.5 421.28 1072.5 553 1072.5 684.72 965.272 791.5 833 791.5 700.728 791.5 593.5 684.72 593.5 553Z" stroke="#44546A" stroke-width="1.33333" stroke-miterlimit="8" fill="none" fill-rule="evenodd"/><text font-family="CMU Classical Serif,CMU Classical Serif_MSFontService,sans-serif" font-style="italic" font-weight="500" font-size="59" transform="translate(692.681 57)">f(x) = (x<tspan font-size="39" x="231.333" y="14">1</tspan><tspan font-size="59" x="251.333" y="0">-</tspan>1)<tspan font-size="39" x="326.333" y="-18">2</tspan><tspan font-size="59" x="346.333" y="0">+(x</tspan><tspan font-size="39" x="442.5" y="14">2</tspan><tspan font-size="59" x="462.5" y="0">+1)</tspan><tspan font-size="39" x="561.5" y="-18">2</tspan></text><path d="M827.5 553C827.5 548.306 831.082 544.5 835.5 544.5 839.918 544.5 843.5 548.306 843.5 553 843.5 557.694 839.918 561.5 835.5 561.5 831.082 561.5 827.5 557.694 827.5 553Z" stroke="#41719C" stroke-width="1.33333" stroke-miterlimit="8" fill="#FF0000" fill-rule="evenodd"/><path d="M442.5 360.5C442.5 252.252 530.7 164.5 639.5 164.5 748.3 164.5 836.5 252.252 836.5 360.5 836.5 468.748 748.3 556.5 639.5 556.5 530.7 556.5 442.5 468.748 442.5 360.5Z" stroke="#AE5A21" stroke-width="1.33333" stroke-miterlimit="8" fill="#ED7D31" fill-rule="evenodd" fill-opacity="0.6"/><path d="M541.5 273C541.5 268.306 545.306 264.5 550 264.5 554.694 264.5 558.5 268.306 558.5 273 558.5 277.694 554.694 281.5 550 281.5 545.306 281.5 541.5 277.694 541.5 273Z" stroke="#41719C" stroke-width="1.33333" stroke-miterlimit="8" fill="#FFFFFF" fill-rule="evenodd"/><text font-family="CMU Classical Serif,CMU Classical Serif_MSFontService,sans-serif" font-style="italic" font-weight="500" font-size="59" transform="translate(564.837 256)">x<tspan font-size="39" x="27.1667" y="14">F</tspan><tspan font-size="37" x="-544.448" y="333">Not very easy in this case! </tspan><tspan font-size="37" x="-544.448" y="378">Even gradient will not be </tspan><tspan font-size="37" x="-544.448" y="424">zero at local optimum </tspan></text><path d="" transform="translate(389.223 680)"/><path d="M46.1777-12.9897C46.1777-11.0747 45.9308-9.23193 45.437-7.46143 44.9432-5.69092 44.2446-4.03784 43.3413-2.5022 42.438-0.966553 41.354 0.433594 40.0894 1.69824 38.8247 2.96289 37.4246 4.04688 35.8889 4.9502 34.3533 5.85352 32.7002 6.55208 30.9297 7.0459 29.1592 7.53971 27.3164 7.78662 25.4014 7.78662 23.4863 7.78662 21.6436 7.53971 19.873 7.0459 18.1025 6.55208 16.4495 5.85352 14.9138 4.9502 13.3782 4.04688 11.978 2.96289 10.7134 1.69824 9.44873 0.433594 8.36475-0.966553 7.46143-2.5022 6.55811-4.03784 5.85954-5.69092 5.36572-7.46143 4.87191-9.23193 4.625-11.0747 4.625-12.9897 4.625-14.9048 4.87191-16.7476 5.36572-18.5181 5.85954-20.2886 6.55811-21.9417 7.46143-23.4773 8.36475-25.0129 9.44873-26.4131 10.7134-27.6777 11.978-28.9424 13.3782-30.0264 14.9138-30.9297 16.4495-31.833 18.1025-32.5316 19.873-33.0254 21.6436-33.5192 23.4863-33.7661 25.4014-33.7661 27.3164-33.7661 29.1592-33.5192 30.9297-33.0254 32.7002-32.5316 34.3533-31.833 35.8889-30.9297 37.4246-30.0264 38.8247-28.9424 40.0894-27.6777 41.354-26.4131 42.438-25.0129 43.3413-23.4773 44.2446-21.9417 44.9432-20.2886 45.437-18.5181 45.9308-16.7476 46.1777-14.9048 46.1777-12.9897Z" transform="translate(389.223 680)"/><path d="M43.5762-12.9897C43.5762-11.3156 43.3594-9.70467 42.9258-8.15698 42.4922-6.60929 41.8809-5.16097 41.092-3.81201 40.3031-2.46305 39.3577-1.23755 38.2556-0.135498 37.1536 0.966553 35.9281 1.91203 34.5791 2.70093 33.2301 3.48983 31.7818 4.10107 30.2341 4.53467 28.6864 4.96826 27.0755 5.18506 25.4014 5.18506 23.7272 5.18506 22.1163 4.96826 20.5686 4.53467 19.0209 4.10107 17.5726 3.48983 16.2236 2.70093 14.8747 1.91203 13.6492 0.966553 12.5471-0.135498 11.4451-1.23755 10.4996-2.46305 9.71069-3.81201 8.92179-5.16097 8.31055-6.60929 7.87695-8.15698 7.44336-9.70467 7.22656-11.3156 7.22656-12.9897 7.22656-14.6639 7.44336-16.2748 7.87695-17.8225 8.31055-19.3702 8.92179-20.8185 9.71069-22.1675 10.4996-23.5164 11.4451-24.7419 12.5471-25.844 13.6492-26.946 14.8747-27.8915 16.2236-28.6804 17.5726-29.4693 19.0209-30.0806 20.5686-30.5142 22.1163-30.9478 23.7272-31.1645 25.4014-31.1646 27.0755-31.1645 28.6864-30.9478 30.2341-30.5142 31.7818-30.0806 33.2301-29.4693 34.5791-28.6804 35.9281-27.8915 37.1536-26.946 38.2556-25.844 39.3577-24.7419 40.3031-23.5164 41.092-22.1675 41.8809-20.8185 42.4922-19.3702 42.9258-17.8225 43.3594-16.2748 43.5762-14.6639 43.5762-12.9897Z" fill="#FFC83D" transform="translate(389.223 680)"/><path d="M18.2651-14.2905C17.9881-14.2905 17.7322-14.3417 17.4973-14.4441 17.2625-14.5465 17.0577-14.685 16.8831-14.8596 16.7084-15.0343 16.5699-15.239 16.4675-15.4739 16.3652-15.7087 16.314-15.9647 16.314-16.2417L16.314-18.8252C16.314-19.0902 16.3652-19.3431 16.4675-19.584 16.5699-19.8249 16.7084-20.0326 16.8831-20.2073 17.0577-20.3819 17.2625-20.5204 17.4973-20.6228 17.7322-20.7252 17.9881-20.7764 18.2651-20.7764 18.5301-20.7764 18.78-20.7252 19.0149-20.6228 19.2498-20.5204 19.4575-20.3789 19.6382-20.1982 19.8188-20.0176 19.9604-19.8098 20.0627-19.575 20.1651-19.3401 20.2163-19.0902 20.2163-18.8252L20.2163-16.2417C20.2163-15.9767 20.1651-15.7268 20.0627-15.4919 19.9604-15.2571 19.8188-15.0493 19.6382-14.8687 19.4575-14.688 19.2498-14.5465 19.0149-14.4441 18.78-14.3417 18.5301-14.2905 18.2651-14.2905ZM32.5376-14.2905C32.2606-14.2905 32.0046-14.3417 31.7698-14.4441 31.5349-14.5465 31.3332-14.688 31.1646-14.8687 30.9959-15.0493 30.8604-15.2571 30.7581-15.4919 30.6557-15.7268 30.6045-15.9767 30.6045-16.2417L30.6045-18.8252C30.6045-19.0902 30.6557-19.3401 30.7581-19.575 30.8604-19.8098 30.9959-20.0176 31.1646-20.1982 31.3332-20.3789 31.5349-20.5204 31.7698-20.6228 32.0046-20.7252 32.2606-20.7764 32.5376-20.7764 32.8026-20.7764 33.0555-20.7252 33.2964-20.6228 33.5373-20.5204 33.745-20.3819 33.9197-20.2073 34.0943-20.0326 34.2328-19.8249 34.3352-19.584 34.4376-19.3431 34.4888-19.0902 34.4888-18.8252L34.4888-16.2417C34.4888-15.9647 34.4376-15.7087 34.3352-15.4739 34.2328-15.239 34.0943-15.0343 33.9197-14.8596 33.745-14.685 33.5373-14.5465 33.2964-14.4441 33.0555-14.3417 32.8026-14.2905 32.5376-14.2905ZM25.4014-11.689C26.5697-11.689 27.7349-11.5264 28.8972-11.2012 30.0595-10.876 31.1525-10.4093 32.1763-9.80103 33.2-9.19279 34.1244-8.45508 34.9495-7.58789 35.7745-6.7207 36.4399-5.74512 36.9458-4.66113 36.994-4.56478 37.0301-4.46842 37.0542-4.37207 37.0783-4.27572 37.0903-4.17334 37.0903-4.06494 37.0903-3.71566 36.9609-3.41154 36.7019-3.15259 36.443-2.89364 36.1388-2.76416 35.7896-2.76416 35.5005-2.76416 35.2777-2.82739 35.1211-2.95386 34.9645-3.08032 34.8019-3.25195 34.6333-3.46875 34.4045-3.76986 34.2027-4.08301 34.0281-4.4082 33.8534-4.7334 33.6457-5.04053 33.4048-5.32959 32.9351-5.91976 32.3931-6.4467 31.7788-6.9104 31.1646-7.3741 30.5111-7.76855 29.8186-8.09375 29.1261-8.41895 28.4034-8.66585 27.6506-8.83447 26.8979-9.00309 26.1481-9.0874 25.4014-9.0874 24.6546-9.0874 23.9049-9.00309 23.1521-8.83447 22.3993-8.66585 21.6737-8.41895 20.9751-8.09375 20.2765-7.76855 19.6231-7.3741 19.0149-6.9104 18.4067-6.4467 17.8677-5.91976 17.3979-5.32959 17.1571-5.04053 16.9463-4.7334 16.7656-4.4082 16.585-4.08301 16.3862-3.76986 16.1694-3.46875 16.0008-3.23991 15.8412-3.06527 15.6907-2.94482 15.5401-2.82438 15.3143-2.76416 15.0132-2.76416 14.6639-2.76416 14.3598-2.89364 14.1008-3.15259 13.8419-3.41154 13.7124-3.71566 13.7124-4.06494 13.7124-4.17334 13.7244-4.27572 13.7485-4.37207 13.7726-4.46842 13.8088-4.56478 13.8569-4.66113 14.3628-5.74512 15.0282-6.7207 15.8533-7.58789 16.6783-8.45508 17.6027-9.19279 18.6265-9.80103 19.6502-10.4093 20.7402-10.876 21.8965-11.2012 23.0527-11.5264 24.221-11.689 25.4014-11.689Z" transform="translate(389.223 680)"/></g></svg>