<svg width="1280" height="720" xmlns="http://www.w3.org/2000/svg" xmlns:xlink="http://www.w3.org/1999/xlink" overflow="hidden"><defs><clipPath id="clip0"><rect x="0" y="0" width="1280" height="720"/></clipPath></defs><g clip-path="url(#clip0)"><rect x="0" y="0" width="1280" height="720" fill="#FFFFFF"/><path d="M2-3.17437e-07 2.0001 657.508-1.9999 657.508-2 3.17437e-07ZM8.72766 646.514 0.000104769 661.476-8.72746 646.514C-9.28402 645.56-8.96174 644.336-8.00764 643.779-7.05354 643.223-5.8289 643.545-5.27234 644.499L1.72766 656.499-1.72745 656.499 5.27254 644.499C5.8291 643.545 7.05374 643.223 8.00784 643.779 8.96195 644.336 9.28422 645.56 8.72766 646.514Z" transform="matrix(1 0 0 -1 640 682.467)"/><path d="M306 358 980.514 358 980.514 362 306 362ZM969.509 351.273 984.471 360 969.509 368.728C968.555 369.284 967.331 368.962 966.774 368.008 966.218 367.054 966.54 365.829 967.494 365.273L979.494 358.273 979.494 361.728 967.494 354.728C966.54 354.171 966.218 352.946 966.774 351.992 967.331 351.038 968.555 350.716 969.509 351.273Z" fill="#44546A"/><text font-family="CMU Classical Serif,CMU Classical Serif_MSFontService,sans-serif" font-style="italic" font-weight="500" font-size="80" transform="translate(979.715 425)">x<tspan font-size="53" x="37" y="19">1</tspan><tspan font-size="80" x="-428.373" y="-379">x</tspan><tspan font-size="53" x="-391.373" y="-360">2</tspan></text><path d="M801 552.5C801 534.551 815.775 520 834 520 852.225 520 867 534.551 867 552.5 867 570.449 852.225 585 834 585 815.775 585 801 570.449 801 552.5Z" stroke="#44546A" stroke-width="8" stroke-miterlimit="8" fill="none" fill-rule="evenodd"/><path d="M306 358 980.514 358 980.514 362 306 362ZM969.509 351.273 984.471 360 969.509 368.728C968.555 369.284 967.331 368.962 966.774 368.008 966.218 367.054 966.54 365.829 967.494 365.273L979.494 358.273 979.494 361.728 967.494 354.728C966.54 354.171 966.218 352.946 966.774 351.992 967.331 351.038 968.555 350.716 969.509 351.273Z"/><text font-family="CMU Classical Serif,CMU Classical Serif_MSFontService,sans-serif" font-style="italic" font-weight="500" font-size="80" transform="translate(979.715 425)">x<tspan font-size="53" x="37" y="19">1</tspan><tspan font-size="80" x="-428.373" y="-379">x</tspan><tspan font-size="53" x="-391.373" y="-360">2</tspan></text><path d="M779 551.5C779 521.4 803.4 497 833.5 497 863.599 497 888 521.4 888 551.5 888 581.599 863.599 606 833.5 606 803.4 606 779 581.599 779 551.5Z" stroke="#44546A" stroke-width="6" stroke-miterlimit="8" fill="none" fill-rule="evenodd"/><path d="M760 552C760 511.683 792.907 479 833.5 479 874.093 479 907 511.683 907 552 907 592.317 874.093 625 833.5 625 792.907 625 760 592.317 760 552Z" stroke="#44546A" stroke-width="4" stroke-miterlimit="8" fill="none" fill-rule="evenodd"/><path d="M639.5 553C639.5 446.685 726.133 360.5 833 360.5 939.867 360.5 1026.5 446.685 1026.5 553 1026.5 659.315 939.867 745.5 833 745.5 726.133 745.5 639.5 659.315 639.5 553Z" stroke="#44546A" stroke-width="1.33333" stroke-miterlimit="8" fill="none" fill-rule="evenodd"/><path d="M827.5 553C827.5 548.306 831.082 544.5 835.5 544.5 839.918 544.5 843.5 548.306 843.5 553 843.5 557.694 839.918 561.5 835.5 561.5 831.082 561.5 827.5 557.694 827.5 553Z" stroke="#41719C" stroke-width="1.33333" stroke-miterlimit="8" fill="#FF0000" fill-rule="evenodd"/><path d="M442 360C442 251.752 530.2 164 639 164 747.8 164 836 251.752 836 360 836 468.248 747.8 556 639 556 530.2 556 442 468.248 442 360Z" stroke="#AE5A21" stroke-width="8" stroke-miterlimit="8" fill="#ED7D31" fill-rule="evenodd" fill-opacity="0.6"/><path d="M493.419 224.969 413.505 146.842 419.097 141.121 499.011 219.248ZM410.773 155.358 402 130 427.55 138.197Z" fill="#FF0000"/><path d="M639 164.733 639 73 647 73 647 164.733ZM631 77 643 53 655 77Z" fill="#FF0000"/><path d="M643 555.941 644.212 637.76 636.213 637.879 635 556.059ZM652.152 633.642 640.509 657.818 628.155 633.998Z" fill="#FF0000"/><path d="M780.833 496.176 856.801 572.388 851.135 578.036 775.167 501.824ZM859.643 563.907 868.088 589.376 842.646 580.85Z" fill="#FF0000"/><path d="M835 356 922.203 356 922.203 364 835 364ZM918.203 348 942.203 360 918.203 372Z" fill="#FF0000"/><path d="M2.69755-2.95351 80.3645 67.9828 74.9694 73.8898-2.69755 2.95351ZM82.8062 59.3782 92.4345 84.424 66.6208 77.0992Z" fill="#FF0000" transform="matrix(1 0 0 -1 778 222.424)"/><path d="M3.06736e-06-4 116.908-3.99991 116.908 4.00009-3.06736e-06 4ZM112.908-11.9999 136.908 0.000104987 112.908 12.0001Z" fill="#FF0000" transform="matrix(-1 0 0 1 442.908 360)"/><path d="M2.85138-2.80529 98.0914 93.9996 92.3886 99.6102-2.85138 2.80529ZM100.989 85.5377 109.266 111.062 83.8806 102.369Z" fill="#FF0000" transform="matrix(-1 0 0 1 500.266 499)"/><text fill="#FF0000" font-family="Cambria Math,Cambria Math_MSFontService,sans-serif" font-weight="400" font-size="59" transform="translate(1066.31 552)">∇<tspan font-family="CMU Classical Serif,CMU Classical Serif_MSFontService,sans-serif" font-style="italic" font-weight="500" font-size="59" x="35" y="0">g(</tspan><tspan font-family="CMU Classical Serif,CMU Classical Serif_MSFontService,sans-serif" font-style="italic" font-weight="500" font-size="59" x="86" y="0">x</tspan><tspan font-family="CMU Classical Serif,CMU Classical Serif_MSFontService,sans-serif" font-style="italic" font-weight="500" font-size="39" x="113.167" y="14">F</tspan><tspan font-family="CMU Classical Serif,CMU Classical Serif_MSFontService,sans-serif" font-style="italic" font-weight="500" font-size="59" x="138.667" y="0">)</tspan></text><path d="M362.5 552C362.5 293.255 573.374 83.5001 833.5 83.5001 1093.63 83.5001 1304.5 293.255 1304.5 552 1304.5 810.745 1093.63 1020.5 833.5 1020.5 573.374 1020.5 362.5 810.745 362.5 552Z" stroke="#44546A" stroke-width="1.33333" stroke-miterlimit="8" fill="none" fill-rule="evenodd"/><path d="M391.5 552C391.5 308.719 589.614 111.5 834 111.5 1078.39 111.5 1276.5 308.719 1276.5 552 1276.5 795.281 1078.39 992.5 834 992.5 589.614 992.5 391.5 795.281 391.5 552Z" stroke="#44546A" stroke-width="1.33333" stroke-miterlimit="8" fill="none" fill-rule="evenodd"/><path d="M497.5 553C497.5 368.813 647.708 219.5 833 219.5 1018.29 219.5 1168.5 368.813 1168.5 553 1168.5 737.187 1018.29 886.5 833 886.5 647.708 886.5 497.5 737.187 497.5 553Z" stroke="#44546A" stroke-width="1.33333" stroke-miterlimit="8" fill="none" fill-rule="evenodd"/><path d="M498.743 219.089 590.071 305.148 584.584 310.971 493.257 224.911ZM592.646 296.583 601.883 321.776 576.187 314.05Z" fill="#2E75B6"/><path d="M443.756 356.406 525.106 396.159 521.594 403.347 440.244 363.594ZM525.025 387.215 541.319 408.534 514.488 408.778Z" fill="#2E75B6"/><path d="M642.568 162.191 684.472 244.827 677.337 248.445 635.432 165.809ZM689.798 237.642 689.95 264.474 668.393 248.496Z" fill="#2E75B6"/><path d="M782.942 220.323 794.069 285.156 786.184 286.509 775.058 221.677ZM801.277 279.861 793.509 305.545 777.623 283.92Z" fill="#2E75B6"/><path d="M500.682 494.059 582.819 508.269 581.455 516.152 499.318 501.941ZM580.242 499.704 601.844 515.62 576.15 523.353Z" fill="#2E75B6"/><path d="M639.054 552 701.227 552.834 701.12 560.833 638.946 560ZM697.335 544.781 721.172 557.102 697.013 568.779Z" fill="#2E75B6"/><path d="M840 360 840 406.015 832 406.015 832 360ZM848 402.015 836 426.015 824 402.015Z" fill="#2E75B6"/><path d="M780.765 495.109 810.85 523.88 805.321 529.661 775.235 500.891ZM813.488 515.333 822.54 540.593 796.901 532.678Z" fill="#2E75B6"/><path d="M446.5 427C446.5 422.306 450.306 418.5 455 418.5 459.694 418.5 463.5 422.306 463.5 427 463.5 431.694 459.694 435.5 455 435.5 450.306 435.5 446.5 431.694 446.5 427Z" stroke="#41719C" stroke-width="1.33333" stroke-miterlimit="8" fill="#FFFFFF" fill-rule="evenodd"/><text font-family="CMU Classical Serif,CMU Classical Serif_MSFontService,sans-serif" font-style="italic" font-weight="500" font-size="59" transform="translate(470.16 410)">x<tspan font-size="39" x="27.1667" y="14">F</tspan><tspan fill="#5B9BD5" font-family="CMU Serif,CMU Serif_MSFontService,sans-serif" font-style="normal" font-size="59" x="569.879" y="237">-</tspan><tspan fill="#5B9BD5" font-family="Cambria Math,Cambria Math_MSFontService,sans-serif" font-style="normal" font-weight="400" font-size="59" x="589.379" y="237">∇</tspan><tspan fill="#5B9BD5" font-size="59" x="624.379" y="237">f(</tspan><tspan fill="#5B9BD5" font-size="59" x="666.379" y="237">x</tspan><tspan fill="#5B9BD5" font-size="39" x="693.545" y="251">F</tspan><tspan fill="#5B9BD5" font-size="59" x="719.045" y="237">)</tspan></text><path d="M771.5 498.5C771.5 494.082 775.306 490.5 780 490.5 784.694 490.5 788.5 494.082 788.5 498.5 788.5 502.918 784.694 506.5 780 506.5 775.306 506.5 771.5 502.918 771.5 498.5Z" stroke="#41719C" stroke-width="1.33333" stroke-miterlimit="8" fill="#FF0000" fill-rule="evenodd"/><rect x="723" y="401" width="72" height="80" fill="#FFFFFF" fill-opacity="0.541176"/><text font-family="CMU Classical Serif,CMU Classical Serif_MSFontService,sans-serif" font-style="italic" font-weight="500" font-size="59" transform="translate(732.897 456)">x<tspan font-size="39" x="27.1667" y="-18">*</tspan><tspan font-family="CMU Serif,CMU Serif_MSFontService,sans-serif" font-style="normal" font-size="37" x="-716.473" y="73">-</tspan><tspan font-family="Cambria Math,Cambria Math_MSFontService,sans-serif" font-style="normal" font-weight="400" font-size="37" x="-704.14" y="73">∇</tspan><tspan font-size="37" x="-681.973" y="73">f(x</tspan><tspan font-size="25" x="-637.806" y="62">*</tspan><tspan font-size="37" x="-625.14" y="73">) = </tspan><tspan font-size="37" x="-554.473" y="73">λ</tspan><tspan font-family="Cambria Math,Cambria Math_MSFontService,sans-serif" font-style="normal" font-weight="400" font-size="37" x="-535.806" y="73">∇</tspan><tspan font-size="37" x="-513.64" y="73">h(x</tspan><tspan font-size="25" x="-461.973" y="62">*</tspan><tspan font-size="37" x="-449.306" y="73">)</tspan><tspan font-size="37" x="-623.14" y="118">λ</tspan><tspan font-size="37" x="-591.14" y="118">&gt;</tspan><tspan font-size="37" x="-549.14" y="118">0</tspan></text><path d="M488.5 225.5C488.5 221.082 492.082 217.5 496.5 217.5 500.918 217.5 504.5 221.082 504.5 225.5 504.5 229.918 500.918 233.5 496.5 233.5 492.082 233.5 488.5 229.918 488.5 225.5Z" stroke="#41719C" stroke-width="1.33333" stroke-miterlimit="8" fill="#FF0000" fill-rule="evenodd"/><text font-family="CMU Classical Serif,CMU Classical Serif_MSFontService,sans-serif" font-style="italic" font-weight="500" font-size="37" transform="translate(16.3281 63)">Not a constrained <tspan font-size="37" x="0" y="45">local minimum as    </tspan><tspan font-family="CMU Serif,CMU Serif_MSFontService,sans-serif" font-style="normal" font-size="37" x="0" y="91">-</tspan><tspan font-family="Cambria Math,Cambria Math_MSFontService,sans-serif" font-style="normal" font-weight="400" font-size="37" x="12.3333" y="91">∇</tspan>f(<tspan font-size="37" x="61.3333" y="91">x</tspan><tspan font-size="25" x="78.6667" y="99">F</tspan><tspan font-size="37" x="94.8333" y="91">) points in </tspan><tspan font-size="37" x="0" y="134">towards the feasible </tspan><tspan font-size="37" x="0" y="180">region</tspan></text><path d="M355.546 206.17 468.134 221.762 468.043 222.422 355.454 206.83ZM467.317 217.947 474.692 223.006 466.219 225.871Z"/></g></svg>