<svg width="1031" height="799" xmlns="http://www.w3.org/2000/svg" xmlns:xlink="http://www.w3.org/1999/xlink" overflow="hidden"><defs><clipPath id="clip0"><path d="M46-47 1077-47 1077 752 46 752Z" fill-rule="evenodd" clip-rule="evenodd"/></clipPath></defs><g clip-path="url(#clip0)" transform="translate(-46 47)"><path d="M2-3.17437e-07 2.0001 657.508-1.9999 657.508-2 3.17437e-07ZM8.72766 646.514 0.000104769 661.476-8.72746 646.514C-9.28402 645.56-8.96174 644.336-8.00764 643.779-7.05354 643.223-5.8289 643.545-5.27234 644.499L1.72766 656.499-1.72745 656.499 5.27254 644.499C5.8291 643.545 7.05374 643.223 8.00784 643.779 8.96195 644.336 9.28422 645.56 8.72766 646.514Z" fill="#5B9BD5" transform="matrix(1 0 0 -1 640 682.467)"/><path d="M306 358 980.503 358 980.503 362 306 362ZM969.509 351.273 984.471 360 969.509 368.728C968.555 369.284 967.331 368.962 966.774 368.008 966.217 367.054 966.54 365.829 967.494 365.273L979.494 358.273 979.494 361.728 967.494 354.728C966.54 354.171 966.217 352.946 966.774 351.992 967.331 351.038 968.555 350.716 969.509 351.273Z" fill="#5B9BD5"/><text font-family="CMU Classical Serif,CMU Classical Serif_MSFontService,sans-serif" font-style="italic" font-weight="500" font-size="80" transform="translate(979.714 425)">x<tspan font-size="53" x="37" y="19">1</tspan><tspan x="-428.372" y="-379">x</tspan><tspan font-size="53" x="-391.372" y="-360">2</tspan></text><path d="M442 360.5C442 252.528 529.976 165 638.5 165 747.024 165 835 252.528 835 360.5 835 468.472 747.024 556 638.5 556 529.976 556 442 468.472 442 360.5Z" stroke="#ED7D31" stroke-width="8" stroke-miterlimit="8" fill="none" fill-rule="evenodd"/><text font-family="CMU Classical Serif,CMU Classical Serif_MSFontService,sans-serif" font-style="italic" font-weight="500" font-size="80" transform="translate(586.582 422)">0</text><path d="M2-3.17437e-07 2.0001 657.508-1.9999 657.508-2 3.17437e-07ZM8.72766 646.514 0.000104769 661.476-8.72746 646.514C-9.28402 645.56-8.96174 644.336-8.00764 643.779-7.05354 643.223-5.8289 643.545-5.27234 644.499L1.72766 656.499-1.72745 656.499 5.27254 644.499C5.8291 643.545 7.05374 643.223 8.00784 643.779 8.96195 644.336 9.28422 645.56 8.72766 646.514Z" fill="#5B9BD5" transform="matrix(1 0 0 -1 640 682.467)"/><path d="M306 358 980.503 358 980.503 362 306 362ZM969.509 351.273 984.471 360 969.509 368.728C968.555 369.284 967.331 368.962 966.774 368.008 966.217 367.054 966.54 365.829 967.494 365.273L979.494 358.273 979.494 361.728 967.494 354.728C966.54 354.171 966.217 352.946 966.774 351.992 967.331 351.038 968.555 350.716 969.509 351.273Z" fill="#5B9BD5"/><text font-family="CMU Classical Serif,CMU Classical Serif_MSFontService,sans-serif" font-style="italic" font-weight="500" font-size="80" transform="translate(979.714 425)">x<tspan font-size="53" x="37" y="19">1</tspan><tspan x="-428.372" y="-379">x</tspan><tspan font-size="53" x="-391.372" y="-360">2</tspan><tspan x="-393.132" y="-3">0</tspan></text><path d="M334 346 740.648 747.463" stroke="#1F4E79" stroke-width="8" stroke-miterlimit="8" fill="none" fill-rule="evenodd"/><path d="M357 272 810.754 719.969" stroke="#1F4E79" stroke-width="6" stroke-miterlimit="8" fill="none" fill-rule="evenodd"/><path d="M357 175 862.551 674.105" stroke="#1F4E79" stroke-width="4" stroke-miterlimit="8" fill="none" fill-rule="evenodd"/><path d="M352.5 79.5001 928.5 648.156" stroke="#1F4E79" stroke-width="3" stroke-miterlimit="8" fill="none" fill-rule="evenodd"/><path d="M490.5 21.5001 958.775 483.805" stroke="#1F4E79" stroke-miterlimit="8" fill="none" fill-rule="evenodd"/><path d="M421 53 941.356 566.721" stroke="#1F4E79" stroke-width="2" stroke-miterlimit="8" fill="none" fill-rule="evenodd"/><path d="M549.5-16.5001 953.7 382.546" stroke="#1F4E79" stroke-miterlimit="8" fill="none" fill-rule="evenodd"/><path d="M480.5 221C480.5 212.44 487.44 205.5 496 205.5 504.56 205.5 511.5 212.44 511.5 221 511.5 229.56 504.56 236.5 496 236.5 487.44 236.5 480.5 229.56 480.5 221Z" stroke="#41719C" stroke-miterlimit="8" fill="#FF0000" fill-rule="evenodd"/><path d="M2.87557-2.78048 105.878 103.745 100.127 109.306-2.87557 2.78048ZM108.849 95.3081 116.905 120.903 91.5955 111.991Z" fill="#2E75B6" transform="matrix(-1 -8.74228e-08 -8.74228e-08 1 484.905 231)"/><text font-family="CMU Classical Serif,CMU Classical Serif_MSFontService,sans-serif" font-style="italic" font-weight="500" font-size="59" transform="translate(377.576 609)">-<tspan font-family="Cambria Math,Cambria Math_MSFontService,sans-serif" font-style="normal" font-weight="400" x="21" y="0">∇</tspan>f</text><path d="M2.87557-2.78048 105.878 103.745 100.127 109.306-2.87557 2.78048ZM108.849 95.3081 116.905 120.903 91.5955 111.991Z" fill="#2E75B6" transform="matrix(-1 -8.74228e-08 -8.74228e-08 1 781.905 212)"/><path d="M2.87557-2.78048 105.878 103.745 100.127 109.306-2.87557 2.78048ZM108.849 95.3081 116.905 120.903 91.5955 111.991Z" fill="#2E75B6" transform="matrix(-1 -8.74228e-08 -8.74228e-08 1 537.905 553)"/><path d="M2.87557-2.78048 105.878 103.745 100.127 109.306-2.87557 2.78048ZM108.849 95.3081 116.905 120.903 91.5955 111.991Z" fill="#2E75B6" transform="matrix(-1 -8.74228e-08 -8.74228e-08 1 867.905 494)"/><path d="M478.161 224.084 471.187 220.164 475.107 213.191 482.081 217.11ZM464.213 216.244 457.239 212.324 461.159 205.351 468.133 209.271ZM450.266 208.405 443.292 204.485 447.212 197.511 454.185 201.431ZM436.318 200.565 429.344 196.645 433.264 189.671 440.238 193.591ZM422.37 192.725 415.396 188.805 419.316 181.831 426.29 185.751ZM414.042 197.221 399 175 425.801 176.299Z" fill="#5B9BD5"/><text font-family="CMU Classical Serif,CMU Classical Serif_MSFontService,sans-serif" font-style="italic" font-weight="500" font-size="59" transform="translate(331.595 163)">δ<tspan x="27.6667" y="0">x</tspan></text><path d="M471.134 239.542C460.626 232.816 456.22 221.789 461.293 214.912 462.014 213.935 462.909 213.073 463.958 212.346" stroke="#5B9BD5" stroke-width="3" stroke-miterlimit="8" fill="none" fill-rule="evenodd"/><text font-family="CMU Classical Serif,CMU Classical Serif_MSFontService,sans-serif" font-style="italic" font-weight="500" font-size="37" transform="translate(69.4313 236)">f(<tspan x="26.8333" y="0">x</tspan><tspan font-size="25" x="44.1667" y="8">F</tspan><tspan x="60.3333" y="0">+</tspan>δx) &lt;<tspan x="194.667" y="0">f(</tspan><tspan x="221.5" y="0">x</tspan><tspan font-size="25" x="238.833" y="8">F</tspan><tspan x="255" y="0">)</tspan></text><path d="M352.504 226 436.092 226.681 436.084 227.681 352.496 227ZM434.788 223.17 442.755 227.235 434.722 231.17Z"/><text font-family="CMU Classical Serif,CMU Classical Serif_MSFontService,sans-serif" font-style="italic" font-weight="500" font-size="37" transform="translate(85.7965 543)">δ<tspan x="17.6667" y="0">x</tspan><tspan font-size="25" x="35" y="-11">T</tspan><tspan x="52.8333" y="0">(</tspan><tspan x="68.1667" y="0">-</tspan><tspan font-family="Cambria Math,Cambria Math_MSFontService,sans-serif" font-style="normal" font-weight="400" x="81.5" y="0">∇</tspan><tspan x="103.667" y="0">f(x)) &gt;</tspan><tspan x="220.5" y="0">0</tspan></text></g></svg>