<?xml version="1.0" encoding="utf-8" standalone="no"?>
<!DOCTYPE svg PUBLIC "-//W3C//DTD SVG 1.1//EN"
  "http://www.w3.org/Graphics/SVG/1.1/DTD/svg11.dtd">
<svg xmlns:xlink="http://www.w3.org/1999/xlink" width="488.72pt" height="211.528937pt" viewBox="0 0 488.72 211.528937" xmlns="http://www.w3.org/2000/svg" version="1.1">
 <metadata>
  <rdf:RDF xmlns:dc="http://purl.org/dc/elements/1.1/" xmlns:cc="http://creativecommons.org/ns#" xmlns:rdf="http://www.w3.org/1999/02/22-rdf-syntax-ns#">
   <cc:Work>
    <dc:type rdf:resource="http://purl.org/dc/dcmitype/StillImage"/>
    <dc:date>2026-05-24T18:34:11.010720</dc:date>
    <dc:format>image/svg+xml</dc:format>
    <dc:creator>
     <cc:Agent>
      <dc:title>Matplotlib v3.10.8, https://matplotlib.org/</dc:title>
     </cc:Agent>
    </dc:creator>
   </cc:Work>
  </rdf:RDF>
 </metadata>
 <defs>
  <style type="text/css">*{stroke-linejoin: round; stroke-linecap: butt}</style>
 </defs>
 <g id="figure_1">
  <g id="patch_1">
   <path d="M 0 211.528937 
L 488.72 211.528937 
L 488.72 0 
L 0 0 
z
" style="fill: #ffffff"/>
  </g>
  <g id="axes_1">
   <g id="patch_2">
    <path d="M 71.88 177.524 
C 73.595334 177.524 75.240643 176.842491 76.453567 175.629567 
C 77.666491 174.416643 78.348 172.771334 78.348 171.056 
C 78.348 169.340666 77.666491 167.695357 76.453567 166.482433 
C 75.240643 165.269509 73.595334 164.588 71.88 164.588 
C 70.164666 164.588 68.519357 165.269509 67.306433 166.482433 
C 66.093509 167.695357 65.412 169.340666 65.412 171.056 
C 65.412 172.771334 66.093509 174.416643 67.306433 175.629567 
C 68.519357 176.842491 70.164666 177.524 71.88 177.524 
z
" clip-path="url(#pd315005bbc)" style="fill: #4c72b0; stroke: #ffffff; stroke-width: 1.5; stroke-linejoin: miter"/>
   </g>
   <g id="patch_3">
    <path d="M 71.88 117.156 
C 73.595334 117.156 75.240643 116.474491 76.453567 115.261567 
C 77.666491 114.048643 78.348 112.403334 78.348 110.688 
C 78.348 108.972666 77.666491 107.327357 76.453567 106.114433 
C 75.240643 104.901509 73.595334 104.22 71.88 104.22 
C 70.164666 104.22 68.519357 104.901509 67.306433 106.114433 
C 66.093509 107.327357 65.412 108.972666 65.412 110.688 
C 65.412 112.403334 66.093509 114.048643 67.306433 115.261567 
C 68.519357 116.474491 70.164666 117.156 71.88 117.156 
z
" clip-path="url(#pd315005bbc)" style="fill: #4c72b0; stroke: #ffffff; stroke-width: 1.5; stroke-linejoin: miter"/>
   </g>
   <g id="patch_4">
    <path d="M 71.88 56.788 
C 73.595334 56.788 75.240643 56.106491 76.453567 54.893567 
C 77.666491 53.680643 78.348 52.035334 78.348 50.32 
C 78.348 48.604666 77.666491 46.959357 76.453567 45.746433 
C 75.240643 44.533509 73.595334 43.852 71.88 43.852 
C 70.164666 43.852 68.519357 44.533509 67.306433 45.746433 
C 66.093509 46.959357 65.412 48.604666 65.412 50.32 
C 65.412 52.035334 66.093509 53.680643 67.306433 54.893567 
C 68.519357 56.106491 70.164666 56.788 71.88 56.788 
z
" clip-path="url(#pd315005bbc)" style="fill: #4c72b0; stroke: #ffffff; stroke-width: 1.5; stroke-linejoin: miter"/>
   </g>
   <g id="text_1">
    <!-- Input -->
    <g transform="translate(56.891641 189.492516) scale(0.11 -0.11)">
     <defs>
      <path id="DejaVuSerif-49" d="M 1581 331 
L 2175 331 
L 2175 0 
L 353 0 
L 353 331 
L 947 331 
L 947 4331 
L 353 4331 
L 353 4666 
L 2175 4666 
L 2175 4331 
L 1581 4331 
L 1581 331 
z
" transform="scale(0.015625)"/>
      <path id="DejaVuSerif-6e" d="M 263 0 
L 263 331 
L 781 331 
L 781 2988 
L 231 2988 
L 231 3322 
L 1356 3322 
L 1356 2731 
Q 1516 3069 1770 3241 
Q 2025 3413 2363 3413 
Q 2913 3413 3172 3097 
Q 3431 2781 3431 2113 
L 3431 331 
L 3944 331 
L 3944 0 
L 2356 0 
L 2356 331 
L 2853 331 
L 2853 1931 
Q 2853 2541 2703 2767 
Q 2553 2994 2175 2994 
Q 1775 2994 1565 2701 
Q 1356 2409 1356 1850 
L 1356 331 
L 1856 331 
L 1856 0 
L 263 0 
z
" transform="scale(0.015625)"/>
      <path id="DejaVuSerif-70" d="M 1313 1825 
L 1313 1497 
Q 1313 897 1542 583 
Q 1772 269 2209 269 
Q 2650 269 2876 622 
Q 3103 975 3103 1663 
Q 3103 2353 2876 2703 
Q 2650 3053 2209 3053 
Q 1772 3053 1542 2737 
Q 1313 2422 1313 1825 
z
M 738 2988 
L 184 2988 
L 184 3322 
L 1313 3322 
L 1313 2803 
Q 1481 3116 1742 3264 
Q 2003 3413 2388 3413 
Q 3000 3413 3387 2928 
Q 3775 2444 3775 1663 
Q 3775 881 3387 395 
Q 3000 -91 2388 -91 
Q 2003 -91 1742 57 
Q 1481 206 1313 519 
L 1313 -997 
L 1856 -997 
L 1856 -1331 
L 184 -1331 
L 184 -997 
L 738 -997 
L 738 2988 
z
" transform="scale(0.015625)"/>
      <path id="DejaVuSerif-75" d="M 2266 3322 
L 3341 3322 
L 3341 331 
L 3884 331 
L 3884 0 
L 2766 0 
L 2766 588 
Q 2606 256 2353 82 
Q 2100 -91 1766 -91 
Q 1213 -91 952 223 
Q 691 538 691 1209 
L 691 2988 
L 172 2988 
L 172 3322 
L 1269 3322 
L 1269 1388 
Q 1269 781 1417 556 
Q 1566 331 1947 331 
Q 2347 331 2556 625 
Q 2766 919 2766 1478 
L 2766 2988 
L 2266 2988 
L 2266 3322 
z
" transform="scale(0.015625)"/>
      <path id="DejaVuSerif-74" d="M 691 2988 
L 184 2988 
L 184 3322 
L 691 3322 
L 691 4353 
L 1269 4353 
L 1269 3322 
L 2350 3322 
L 2350 2988 
L 1269 2988 
L 1269 878 
Q 1269 456 1350 337 
Q 1431 219 1650 219 
Q 1875 219 1978 351 
Q 2081 484 2088 781 
L 2522 781 
Q 2497 328 2275 118 
Q 2053 -91 1600 -91 
Q 1103 -91 897 129 
Q 691 350 691 878 
L 691 2988 
z
" transform="scale(0.015625)"/>
     </defs>
     <use xlink:href="#DejaVuSerif-49"/>
     <use xlink:href="#DejaVuSerif-6e" transform="translate(39.501953 0)"/>
     <use xlink:href="#DejaVuSerif-70" transform="translate(103.90625 0)"/>
     <use xlink:href="#DejaVuSerif-75" transform="translate(167.919922 0)"/>
     <use xlink:href="#DejaVuSerif-74" transform="translate(232.324219 0)"/>
    </g>
    <!-- $x \in \mathbb{R}^3$ -->
    <g transform="translate(56.48 201.810109) scale(0.11 -0.11)">
     <defs>
      <path id="Cmmi10-78" d="M 500 184 
Q 613 97 819 97 
Q 1019 97 1172 289 
Q 1325 481 1381 709 
L 1672 1844 
Q 1741 2153 1741 2266 
Q 1741 2425 1652 2544 
Q 1563 2663 1403 2663 
Q 1200 2663 1022 2536 
Q 844 2409 722 2214 
Q 600 2019 550 1819 
Q 538 1778 500 1778 
L 422 1778 
Q 372 1778 372 1838 
L 372 1856 
Q 434 2094 584 2320 
Q 734 2547 951 2687 
Q 1169 2828 1416 2828 
Q 1650 2828 1839 2703 
Q 2028 2578 2106 2363 
Q 2216 2559 2386 2693 
Q 2556 2828 2759 2828 
Q 2897 2828 3040 2779 
Q 3184 2731 3275 2631 
Q 3366 2531 3366 2381 
Q 3366 2219 3261 2101 
Q 3156 1984 2994 1984 
Q 2891 1984 2822 2050 
Q 2753 2116 2753 2216 
Q 2753 2350 2845 2451 
Q 2938 2553 3066 2572 
Q 2950 2663 2747 2663 
Q 2541 2663 2389 2472 
Q 2238 2281 2175 2047 
L 1894 916 
Q 1825 659 1825 494 
Q 1825 331 1917 214 
Q 2009 97 2163 97 
Q 2463 97 2698 361 
Q 2934 625 3009 941 
Q 3022 978 3059 978 
L 3138 978 
Q 3163 978 3178 961 
Q 3194 944 3194 922 
Q 3194 916 3188 903 
Q 3097 522 2806 225 
Q 2516 -72 2150 -72 
Q 1916 -72 1727 54 
Q 1538 181 1459 397 
Q 1359 209 1182 68 
Q 1006 -72 806 -72 
Q 669 -72 523 -23 
Q 378 25 287 125 
Q 197 225 197 378 
Q 197 528 301 651 
Q 406 775 563 775 
Q 669 775 741 711 
Q 813 647 813 544 
Q 813 409 723 309 
Q 634 209 500 184 
z
" transform="scale(0.015625)"/>
      <path id="Cmsy10-32" d="M 1356 403 
Q 1838 0 2497 0 
L 3616 0 
Q 3666 0 3698 -37 
Q 3731 -75 3731 -128 
Q 3731 -175 3698 -215 
Q 3666 -256 3616 -256 
L 2478 -256 
Q 1969 -256 1519 -12 
Q 1069 231 800 657 
Q 531 1084 531 1600 
Q 531 2116 800 2542 
Q 1069 2969 1519 3212 
Q 1969 3456 2478 3456 
L 3616 3456 
Q 3666 3456 3698 3415 
Q 3731 3375 3731 3328 
Q 3731 3275 3698 3237 
Q 3666 3200 3616 3200 
L 2497 3200 
Q 2184 3200 1889 3097 
Q 1594 2994 1356 2797 
Q 1122 2600 958 2304 
Q 794 2009 794 1728 
L 3616 1728 
Q 3666 1728 3698 1687 
Q 3731 1647 3731 1600 
Q 3731 1553 3698 1512 
Q 3666 1472 3616 1472 
L 794 1472 
Q 794 1194 958 897 
Q 1122 600 1356 403 
z
" transform="scale(0.015625)"/>
      <path id="STIXGeneral-Italic-211d" d="M 1229 4179 
L 3360 4179 
Q 3827 4179 4108 3894 
Q 4390 3610 4390 3142 
Q 4390 2554 4060 2186 
Q 3731 1818 3149 1715 
L 4026 0 
L 2925 0 
L 2125 1690 
L 1549 1690 
L 1094 0 
L 109 0 
L 1229 4179 
z
M 3866 3821 
L 3392 2022 
Q 3770 2144 3962 2438 
Q 4154 2733 4154 3136 
Q 4154 3584 3866 3821 
z
M 3142 1978 
L 3648 3872 
Q 3450 3942 3296 3942 
L 2150 3942 
L 1613 1926 
L 2630 1926 
Q 2957 1926 3142 1978 
z
M 3629 237 
L 2899 1696 
Q 2829 1683 2682 1683 
Q 2630 1683 2531 1686 
Q 2432 1690 2387 1690 
L 3072 237 
L 3629 237 
z
M 1907 3942 
L 1408 3942 
L 416 237 
L 915 237 
L 1907 3942 
z
" transform="scale(0.015625)"/>
      <path id="Cmr10-33" d="M 609 494 
Q 759 275 1012 169 
Q 1266 63 1556 63 
Q 1928 63 2084 380 
Q 2241 697 2241 1100 
Q 2241 1281 2208 1462 
Q 2175 1644 2097 1800 
Q 2019 1956 1883 2050 
Q 1747 2144 1550 2144 
L 1125 2144 
Q 1069 2144 1069 2203 
L 1069 2259 
Q 1069 2309 1125 2309 
L 1478 2338 
Q 1703 2338 1851 2506 
Q 2000 2675 2069 2917 
Q 2138 3159 2138 3378 
Q 2138 3684 1994 3881 
Q 1850 4078 1556 4078 
Q 1313 4078 1091 3986 
Q 869 3894 738 3706 
Q 750 3709 759 3711 
Q 769 3713 781 3713 
Q 925 3713 1022 3613 
Q 1119 3513 1119 3372 
Q 1119 3234 1022 3134 
Q 925 3034 781 3034 
Q 641 3034 541 3134 
Q 441 3234 441 3372 
Q 441 3647 606 3850 
Q 772 4053 1033 4158 
Q 1294 4263 1556 4263 
Q 1750 4263 1965 4205 
Q 2181 4147 2356 4039 
Q 2531 3931 2642 3762 
Q 2753 3594 2753 3378 
Q 2753 3109 2633 2881 
Q 2513 2653 2303 2487 
Q 2094 2322 1844 2241 
Q 2122 2188 2372 2031 
Q 2622 1875 2773 1631 
Q 2925 1388 2925 1106 
Q 2925 753 2731 467 
Q 2538 181 2222 20 
Q 1906 -141 1556 -141 
Q 1256 -141 954 -26 
Q 653 88 461 316 
Q 269 544 269 863 
Q 269 1022 375 1128 
Q 481 1234 641 1234 
Q 744 1234 830 1186 
Q 916 1138 964 1050 
Q 1013 963 1013 863 
Q 1013 706 903 600 
Q 794 494 641 494 
L 609 494 
z
" transform="scale(0.015625)"/>
     </defs>
     <use xlink:href="#Cmmi10-78" transform="translate(0 0.109375)"/>
     <use xlink:href="#Cmsy10-32" transform="translate(74.638672 0.109375)"/>
     <use xlink:href="#STIXGeneral-Italic-211d" transform="translate(158.798828 0.109375)"/>
     <use xlink:href="#Cmr10-33" transform="translate(238.23506 38.373438) scale(0.7)"/>
    </g>
   </g>
   <g id="patch_5">
    <path d="M 222.8 177.524 
C 224.515334 177.524 226.160643 176.842491 227.373567 175.629567 
C 228.586491 174.416643 229.268 172.771334 229.268 171.056 
C 229.268 169.340666 228.586491 167.695357 227.373567 166.482433 
C 226.160643 165.269509 224.515334 164.588 222.8 164.588 
C 221.084666 164.588 219.439357 165.269509 218.226433 166.482433 
C 217.013509 167.695357 216.332 169.340666 216.332 171.056 
C 216.332 172.771334 217.013509 174.416643 218.226433 175.629567 
C 219.439357 176.842491 221.084666 177.524 222.8 177.524 
z
" clip-path="url(#pd315005bbc)" style="fill: #8172b3; stroke: #ffffff; stroke-width: 1.5; stroke-linejoin: miter"/>
   </g>
   <g id="patch_6">
    <path d="M 222.8 160.276 
C 224.515334 160.276 226.160643 159.594491 227.373567 158.381567 
C 228.586491 157.168643 229.268 155.523334 229.268 153.808 
C 229.268 152.092666 228.586491 150.447357 227.373567 149.234433 
C 226.160643 148.021509 224.515334 147.34 222.8 147.34 
C 221.084666 147.34 219.439357 148.021509 218.226433 149.234433 
C 217.013509 150.447357 216.332 152.092666 216.332 153.808 
C 216.332 155.523334 217.013509 157.168643 218.226433 158.381567 
C 219.439357 159.594491 221.084666 160.276 222.8 160.276 
z
" clip-path="url(#pd315005bbc)" style="fill: #8172b3; stroke: #ffffff; stroke-width: 1.5; stroke-linejoin: miter"/>
   </g>
   <g id="patch_7">
    <path d="M 222.8 143.028 
C 224.515334 143.028 226.160643 142.346491 227.373567 141.133567 
C 228.586491 139.920643 229.268 138.275334 229.268 136.56 
C 229.268 134.844666 228.586491 133.199357 227.373567 131.986433 
C 226.160643 130.773509 224.515334 130.092 222.8 130.092 
C 221.084666 130.092 219.439357 130.773509 218.226433 131.986433 
C 217.013509 133.199357 216.332 134.844666 216.332 136.56 
C 216.332 138.275334 217.013509 139.920643 218.226433 141.133567 
C 219.439357 142.346491 221.084666 143.028 222.8 143.028 
z
" clip-path="url(#pd315005bbc)" style="fill: #8172b3; stroke: #ffffff; stroke-width: 1.5; stroke-linejoin: miter"/>
   </g>
   <g id="patch_8">
    <path d="M 222.8 125.78 
C 224.515334 125.78 226.160643 125.098491 227.373567 123.885567 
C 228.586491 122.672643 229.268 121.027334 229.268 119.312 
C 229.268 117.596666 228.586491 115.951357 227.373567 114.738433 
C 226.160643 113.525509 224.515334 112.844 222.8 112.844 
C 221.084666 112.844 219.439357 113.525509 218.226433 114.738433 
C 217.013509 115.951357 216.332 117.596666 216.332 119.312 
C 216.332 121.027334 217.013509 122.672643 218.226433 123.885567 
C 219.439357 125.098491 221.084666 125.78 222.8 125.78 
z
" clip-path="url(#pd315005bbc)" style="fill: #8172b3; stroke: #ffffff; stroke-width: 1.5; stroke-linejoin: miter"/>
   </g>
   <g id="patch_9">
    <path d="M 222.8 108.532 
C 224.515334 108.532 226.160643 107.850491 227.373567 106.637567 
C 228.586491 105.424643 229.268 103.779334 229.268 102.064 
C 229.268 100.348666 228.586491 98.703357 227.373567 97.490433 
C 226.160643 96.277509 224.515334 95.596 222.8 95.596 
C 221.084666 95.596 219.439357 96.277509 218.226433 97.490433 
C 217.013509 98.703357 216.332 100.348666 216.332 102.064 
C 216.332 103.779334 217.013509 105.424643 218.226433 106.637567 
C 219.439357 107.850491 221.084666 108.532 222.8 108.532 
z
" clip-path="url(#pd315005bbc)" style="fill: #8172b3; stroke: #ffffff; stroke-width: 1.5; stroke-linejoin: miter"/>
   </g>
   <g id="patch_10">
    <path d="M 222.8 91.284 
C 224.515334 91.284 226.160643 90.602491 227.373567 89.389567 
C 228.586491 88.176643 229.268 86.531334 229.268 84.816 
C 229.268 83.100666 228.586491 81.455357 227.373567 80.242433 
C 226.160643 79.029509 224.515334 78.348 222.8 78.348 
C 221.084666 78.348 219.439357 79.029509 218.226433 80.242433 
C 217.013509 81.455357 216.332 83.100666 216.332 84.816 
C 216.332 86.531334 217.013509 88.176643 218.226433 89.389567 
C 219.439357 90.602491 221.084666 91.284 222.8 91.284 
z
" clip-path="url(#pd315005bbc)" style="fill: #8172b3; stroke: #ffffff; stroke-width: 1.5; stroke-linejoin: miter"/>
   </g>
   <g id="patch_11">
    <path d="M 222.8 74.036 
C 224.515334 74.036 226.160643 73.354491 227.373567 72.141567 
C 228.586491 70.928643 229.268 69.283334 229.268 67.568 
C 229.268 65.852666 228.586491 64.207357 227.373567 62.994433 
C 226.160643 61.781509 224.515334 61.1 222.8 61.1 
C 221.084666 61.1 219.439357 61.781509 218.226433 62.994433 
C 217.013509 64.207357 216.332 65.852666 216.332 67.568 
C 216.332 69.283334 217.013509 70.928643 218.226433 72.141567 
C 219.439357 73.354491 221.084666 74.036 222.8 74.036 
z
" clip-path="url(#pd315005bbc)" style="fill: #8172b3; stroke: #ffffff; stroke-width: 1.5; stroke-linejoin: miter"/>
   </g>
   <g id="patch_12">
    <path d="M 222.8 56.788 
C 224.515334 56.788 226.160643 56.106491 227.373567 54.893567 
C 228.586491 53.680643 229.268 52.035334 229.268 50.32 
C 229.268 48.604666 228.586491 46.959357 227.373567 45.746433 
C 226.160643 44.533509 224.515334 43.852 222.8 43.852 
C 221.084666 43.852 219.439357 44.533509 218.226433 45.746433 
C 217.013509 46.959357 216.332 48.604666 216.332 50.32 
C 216.332 52.035334 217.013509 53.680643 218.226433 54.893567 
C 219.439357 56.106491 221.084666 56.788 222.8 56.788 
z
" clip-path="url(#pd315005bbc)" style="fill: #8172b3; stroke: #ffffff; stroke-width: 1.5; stroke-linejoin: miter"/>
   </g>
   <g id="text_2">
    <!-- Hidden -->
    <g transform="translate(202.405313 189.492516) scale(0.11 -0.11)">
     <defs>
      <path id="DejaVuSerif-48" d="M 353 0 
L 353 331 
L 947 331 
L 947 4331 
L 353 4331 
L 353 4666 
L 2175 4666 
L 2175 4331 
L 1581 4331 
L 1581 2719 
L 4000 2719 
L 4000 4331 
L 3406 4331 
L 3406 4666 
L 5228 4666 
L 5228 4331 
L 4634 4331 
L 4634 331 
L 5228 331 
L 5228 0 
L 3406 0 
L 3406 331 
L 4000 331 
L 4000 2338 
L 1581 2338 
L 1581 331 
L 2175 331 
L 2175 0 
L 353 0 
z
" transform="scale(0.015625)"/>
      <path id="DejaVuSerif-69" d="M 622 4353 
Q 622 4497 726 4603 
Q 831 4709 978 4709 
Q 1122 4709 1226 4603 
Q 1331 4497 1331 4353 
Q 1331 4206 1228 4103 
Q 1125 4000 978 4000 
Q 831 4000 726 4103 
Q 622 4206 622 4353 
z
M 1356 331 
L 1900 331 
L 1900 0 
L 231 0 
L 231 331 
L 781 331 
L 781 2988 
L 231 2988 
L 231 3322 
L 1356 3322 
L 1356 331 
z
" transform="scale(0.015625)"/>
      <path id="DejaVuSerif-64" d="M 3359 331 
L 3909 331 
L 3909 0 
L 2784 0 
L 2784 519 
Q 2616 206 2355 57 
Q 2094 -91 1709 -91 
Q 1097 -91 708 395 
Q 319 881 319 1663 
Q 319 2444 706 2928 
Q 1094 3413 1709 3413 
Q 2094 3413 2355 3264 
Q 2616 3116 2784 2803 
L 2784 4531 
L 2241 4531 
L 2241 4863 
L 3359 4863 
L 3359 331 
z
M 2784 1497 
L 2784 1825 
Q 2784 2422 2554 2737 
Q 2325 3053 1888 3053 
Q 1444 3053 1217 2703 
Q 991 2353 991 1663 
Q 991 975 1217 622 
Q 1444 269 1888 269 
Q 2325 269 2554 583 
Q 2784 897 2784 1497 
z
" transform="scale(0.015625)"/>
      <path id="DejaVuSerif-65" d="M 3469 1600 
L 991 1600 
L 991 1575 
Q 991 903 1244 561 
Q 1497 219 1991 219 
Q 2369 219 2611 417 
Q 2853 616 2950 1006 
L 3413 1006 
Q 3275 459 2904 184 
Q 2534 -91 1931 -91 
Q 1203 -91 761 389 
Q 319 869 319 1663 
Q 319 2450 753 2931 
Q 1188 3413 1894 3413 
Q 2647 3413 3050 2948 
Q 3453 2484 3469 1600 
z
M 2791 1931 
Q 2772 2513 2545 2808 
Q 2319 3103 1894 3103 
Q 1497 3103 1269 2806 
Q 1041 2509 991 1931 
L 2791 1931 
z
" transform="scale(0.015625)"/>
     </defs>
     <use xlink:href="#DejaVuSerif-48"/>
     <use xlink:href="#DejaVuSerif-69" transform="translate(87.207031 0)"/>
     <use xlink:href="#DejaVuSerif-64" transform="translate(119.189453 0)"/>
     <use xlink:href="#DejaVuSerif-64" transform="translate(183.203125 0)"/>
     <use xlink:href="#DejaVuSerif-65" transform="translate(247.216797 0)"/>
     <use xlink:href="#DejaVuSerif-6e" transform="translate(306.396484 0)"/>
    </g>
    <!-- $z \in \mathbb{R}^{64}$ -->
    <g transform="translate(206.025 201.810109) scale(0.11 -0.11)">
     <defs>
      <path id="Cmmi10-7a" d="M 313 -72 
Q 263 -72 263 -13 
Q 263 19 275 31 
Q 447 328 689 598 
Q 931 869 1239 1145 
Q 1547 1422 1858 1700 
Q 2169 1978 2363 2194 
L 2338 2194 
Q 2197 2194 1925 2284 
Q 1653 2375 1497 2375 
Q 1328 2375 1168 2301 
Q 1009 2228 966 2075 
Q 956 2028 916 2028 
L 838 2028 
Q 788 2028 788 2094 
L 788 2113 
Q 838 2300 952 2462 
Q 1066 2625 1233 2726 
Q 1400 2828 1581 2828 
Q 1709 2828 1793 2770 
Q 1878 2713 1990 2591 
Q 2103 2469 2173 2416 
Q 2244 2363 2350 2363 
Q 2491 2363 2602 2491 
Q 2713 2619 2822 2809 
Q 2841 2828 2869 2828 
L 2944 2828 
Q 2966 2828 2980 2812 
Q 2994 2797 2994 2772 
Q 2994 2750 2981 2731 
Q 2809 2434 2579 2176 
Q 2350 1919 1979 1586 
Q 1609 1253 1354 1023 
Q 1100 794 878 550 
Q 928 563 1013 563 
Q 1169 563 1439 473 
Q 1709 384 1856 384 
Q 2016 384 2178 453 
Q 2341 522 2459 647 
Q 2578 772 2619 934 
Q 2634 978 2669 978 
L 2747 978 
Q 2772 978 2787 958 
Q 2803 938 2803 916 
Q 2803 909 2797 897 
Q 2738 653 2591 433 
Q 2444 213 2230 70 
Q 2016 -72 1772 -72 
Q 1650 -72 1565 -15 
Q 1481 41 1367 164 
Q 1253 288 1181 342 
Q 1109 397 1006 397 
Q 688 397 434 -50 
Q 413 -72 391 -72 
L 313 -72 
z
" transform="scale(0.015625)"/>
      <path id="Cmr10-36" d="M 1600 -141 
Q 1203 -141 937 70 
Q 672 281 526 617 
Q 381 953 325 1322 
Q 269 1691 269 2069 
Q 269 2575 466 3084 
Q 663 3594 1045 3928 
Q 1428 4263 1953 4263 
Q 2172 4263 2361 4180 
Q 2550 4097 2658 3936 
Q 2766 3775 2766 3547 
Q 2766 3416 2677 3327 
Q 2588 3238 2456 3238 
Q 2331 3238 2240 3328 
Q 2150 3419 2150 3547 
Q 2150 3672 2240 3762 
Q 2331 3853 2456 3853 
L 2491 3853 
Q 2409 3969 2261 4023 
Q 2113 4078 1953 4078 
Q 1759 4078 1595 3993 
Q 1431 3909 1300 3765 
Q 1169 3622 1081 3448 
Q 994 3275 945 3053 
Q 897 2831 884 2637 
Q 872 2444 872 2150 
Q 984 2413 1190 2580 
Q 1397 2747 1656 2747 
Q 1941 2747 2175 2631 
Q 2409 2516 2578 2311 
Q 2747 2106 2836 1843 
Q 2925 1581 2925 1313 
Q 2925 938 2758 598 
Q 2591 259 2287 59 
Q 1984 -141 1600 -141 
z
M 1600 63 
Q 1847 63 1997 175 
Q 2147 288 2217 473 
Q 2288 659 2305 848 
Q 2322 1038 2322 1313 
Q 2322 1675 2287 1931 
Q 2253 2188 2100 2383 
Q 1947 2578 1631 2578 
Q 1372 2578 1205 2403 
Q 1038 2228 961 1961 
Q 884 1694 884 1447 
Q 884 1363 891 1319 
Q 891 1309 889 1303 
Q 888 1297 884 1288 
Q 884 1013 940 731 
Q 997 450 1156 256 
Q 1316 63 1600 63 
z
" transform="scale(0.015625)"/>
      <path id="Cmr10-34" d="M 178 1056 
L 178 1281 
L 2156 4231 
Q 2178 4263 2222 4263 
L 2316 4263 
Q 2388 4263 2388 4191 
L 2388 1281 
L 3016 1281 
L 3016 1056 
L 2388 1056 
L 2388 428 
Q 2388 297 2575 261 
Q 2763 225 3009 225 
L 3009 0 
L 1247 0 
L 1247 225 
Q 1494 225 1681 261 
Q 1869 297 1869 428 
L 1869 1056 
L 178 1056 
z
M 391 1281 
L 1906 1281 
L 1906 3547 
L 391 1281 
z
" transform="scale(0.015625)"/>
     </defs>
     <use xlink:href="#Cmmi10-7a" transform="translate(0 0.109375)"/>
     <use xlink:href="#Cmsy10-32" transform="translate(64.042969 0.109375)"/>
     <use xlink:href="#STIXGeneral-Italic-211d" transform="translate(148.203125 0.109375)"/>
     <use xlink:href="#Cmr10-36" transform="translate(227.639357 38.373438) scale(0.7)"/>
     <use xlink:href="#Cmr10-34" transform="translate(262.639357 38.373438) scale(0.7)"/>
    </g>
   </g>
   <g id="patch_13">
    <path d="M 395.28 177.524 
C 396.995334 177.524 398.640643 176.842491 399.853567 175.629567 
C 401.066491 174.416643 401.748 172.771334 401.748 171.056 
C 401.748 169.340666 401.066491 167.695357 399.853567 166.482433 
C 398.640643 165.269509 396.995334 164.588 395.28 164.588 
C 393.564666 164.588 391.919357 165.269509 390.706433 166.482433 
C 389.493509 167.695357 388.812 169.340666 388.812 171.056 
C 388.812 172.771334 389.493509 174.416643 390.706433 175.629567 
C 391.919357 176.842491 393.564666 177.524 395.28 177.524 
z
" clip-path="url(#pd315005bbc)" style="fill: #55a868; stroke: #ffffff; stroke-width: 1.5; stroke-linejoin: miter"/>
   </g>
   <g id="text_3">
    <!-- Output -->
    <g transform="translate(375.744687 189.261344) scale(0.11 -0.11)">
     <defs>
      <path id="DejaVuSerif-4f" d="M 2625 244 
Q 3391 244 3781 770 
Q 4172 1297 4172 2328 
Q 4172 3363 3781 3889 
Q 3391 4416 2625 4416 
Q 1856 4416 1465 3889 
Q 1075 3363 1075 2328 
Q 1075 1297 1465 770 
Q 1856 244 2625 244 
z
M 2625 -91 
Q 2150 -91 1751 65 
Q 1353 222 1050 525 
Q 700 875 529 1319 
Q 359 1763 359 2328 
Q 359 2894 529 3339 
Q 700 3784 1050 4134 
Q 1356 4441 1750 4595 
Q 2144 4750 2625 4750 
Q 3641 4750 4266 4084 
Q 4891 3419 4891 2328 
Q 4891 1769 4719 1320 
Q 4547 872 4197 525 
Q 3891 219 3497 64 
Q 3103 -91 2625 -91 
z
" transform="scale(0.015625)"/>
     </defs>
     <use xlink:href="#DejaVuSerif-4f"/>
     <use xlink:href="#DejaVuSerif-75" transform="translate(81.982422 0)"/>
     <use xlink:href="#DejaVuSerif-74" transform="translate(146.386719 0)"/>
     <use xlink:href="#DejaVuSerif-70" transform="translate(186.572266 0)"/>
     <use xlink:href="#DejaVuSerif-75" transform="translate(250.585938 0)"/>
     <use xlink:href="#DejaVuSerif-74" transform="translate(314.990234 0)"/>
    </g>
    <!-- $\hat{y} \in [0,1]$ -->
    <g transform="translate(375.92 201.578937) scale(0.11 -0.11)">
     <defs>
      <path id="Cmr10-5e" d="M 863 3444 
L 738 3578 
L 1600 4441 
L 2456 3578 
L 2328 3444 
L 1600 4084 
L 863 3444 
z
" transform="scale(0.015625)"/>
      <path id="Cmmi10-79" d="M 538 -916 
Q 672 -1147 1006 -1147 
Q 1309 -1147 1531 -934 
Q 1753 -722 1889 -420 
Q 2025 -119 2100 197 
Q 1816 -72 1484 -72 
Q 1231 -72 1053 15 
Q 875 103 776 276 
Q 678 450 678 697 
Q 678 906 734 1126 
Q 791 1347 892 1617 
Q 994 1888 1069 2088 
Q 1153 2322 1153 2472 
Q 1153 2663 1013 2663 
Q 759 2663 595 2402 
Q 431 2141 353 1819 
Q 341 1778 300 1778 
L 225 1778 
Q 172 1778 172 1838 
L 172 1856 
Q 275 2238 487 2533 
Q 700 2828 1025 2828 
Q 1253 2828 1411 2678 
Q 1569 2528 1569 2297 
Q 1569 2178 1516 2047 
Q 1488 1969 1388 1706 
Q 1288 1444 1234 1272 
Q 1181 1100 1147 934 
Q 1113 769 1113 603 
Q 1113 391 1203 244 
Q 1294 97 1491 97 
Q 1888 97 2203 581 
L 2688 2553 
Q 2709 2638 2787 2698 
Q 2866 2759 2956 2759 
Q 3034 2759 3092 2709 
Q 3150 2659 3150 2578 
Q 3150 2541 3144 2528 
L 2509 -19 
Q 2425 -347 2200 -647 
Q 1975 -947 1658 -1130 
Q 1341 -1313 997 -1313 
Q 831 -1313 668 -1248 
Q 506 -1184 406 -1056 
Q 306 -928 306 -756 
Q 306 -581 409 -453 
Q 513 -325 684 -325 
Q 788 -325 858 -389 
Q 928 -453 928 -556 
Q 928 -703 818 -812 
Q 709 -922 563 -922 
Q 556 -919 550 -917 
Q 544 -916 538 -916 
z
" transform="scale(0.015625)"/>
      <path id="Cmr10-5b" d="M 756 -1600 
L 756 4800 
L 1631 4800 
L 1631 4544 
L 1013 4544 
L 1013 -1344 
L 1631 -1344 
L 1631 -1600 
L 756 -1600 
z
" transform="scale(0.015625)"/>
      <path id="Cmr10-30" d="M 1600 -141 
Q 816 -141 533 504 
Q 250 1150 250 2041 
Q 250 2597 351 3087 
Q 453 3578 754 3920 
Q 1056 4263 1600 4263 
Q 2022 4263 2290 4056 
Q 2559 3850 2700 3523 
Q 2841 3197 2892 2823 
Q 2944 2450 2944 2041 
Q 2944 1491 2842 1011 
Q 2741 531 2444 195 
Q 2147 -141 1600 -141 
z
M 1600 25 
Q 1956 25 2131 390 
Q 2306 756 2347 1200 
Q 2388 1644 2388 2144 
Q 2388 2625 2347 3031 
Q 2306 3438 2132 3767 
Q 1959 4097 1600 4097 
Q 1238 4097 1063 3765 
Q 888 3434 847 3029 
Q 806 2625 806 2144 
Q 806 1788 823 1472 
Q 841 1156 916 820 
Q 991 484 1158 254 
Q 1325 25 1600 25 
z
" transform="scale(0.015625)"/>
      <path id="Cmmi10-3b" d="M 634 -1153 
Q 634 -1125 659 -1100 
Q 891 -878 1019 -587 
Q 1147 -297 1147 25 
L 1147 103 
Q 1044 0 891 0 
Q 744 0 641 103 
Q 538 206 538 353 
Q 538 503 641 603 
Q 744 703 891 703 
Q 1119 703 1216 492 
Q 1313 281 1313 25 
Q 1313 -331 1170 -651 
Q 1028 -972 769 -1228 
Q 744 -1241 728 -1241 
Q 697 -1241 665 -1212 
Q 634 -1184 634 -1153 
z
" transform="scale(0.015625)"/>
      <path id="Cmr10-31" d="M 594 0 
L 594 225 
Q 1394 225 1394 428 
L 1394 3788 
Q 1063 3628 556 3628 
L 556 3853 
Q 1341 3853 1741 4263 
L 1831 4263 
Q 1853 4263 1873 4245 
Q 1894 4228 1894 4206 
L 1894 428 
Q 1894 225 2694 225 
L 2694 0 
L 594 0 
z
" transform="scale(0.015625)"/>
      <path id="Cmr10-5d" d="M 141 -1600 
L 141 -1344 
L 763 -1344 
L 763 4544 
L 141 4544 
L 141 4800 
L 1019 4800 
L 1019 -1600 
L 141 -1600 
z
" transform="scale(0.015625)"/>
     </defs>
     <use xlink:href="#Cmr10-5e" transform="translate(5.724609 2.875)"/>
     <use xlink:href="#Cmmi10-79"/>
     <use xlink:href="#Cmsy10-32" transform="translate(66.582031 0)"/>
     <use xlink:href="#Cmr10-5b" transform="translate(150.742188 0)"/>
     <use xlink:href="#Cmr10-30" transform="translate(178.427734 0)"/>
     <use xlink:href="#Cmmi10-3b" transform="translate(228.427734 0)"/>
     <use xlink:href="#Cmr10-31" transform="translate(273.671875 0)"/>
     <use xlink:href="#Cmr10-5d" transform="translate(323.671875 0)"/>
    </g>
   </g>
   <g id="patch_14">
    <path d="M 82.506959 171.056 
Q 147.342952 171.056 211.619928 171.056 
" style="fill: none; stroke: #cccccc; stroke-width: 0.5; stroke-linecap: round"/>
    <path d="M 207.219928 168.856 
L 211.619928 171.056 
L 207.219928 173.256 
" style="fill: none; stroke: #cccccc; stroke-width: 0.5; stroke-linecap: round"/>
   </g>
   <g id="patch_15">
    <path d="M 82.490641 170.799659 
Q 147.342707 162.431651 211.640351 154.13518 
" style="fill: none; stroke: #cccccc; stroke-width: 0.5; stroke-linecap: round"/>
    <path d="M 206.994992 152.516343 
L 211.640351 154.13518 
L 207.558066 156.880166 
" style="fill: none; stroke: #cccccc; stroke-width: 0.5; stroke-linecap: round"/>
   </g>
   <g id="patch_16">
    <path d="M 82.441689 170.555951 
Q 147.341984 153.807488 211.700994 137.198711 
" style="fill: none; stroke: #cccccc; stroke-width: 0.5; stroke-linecap: round"/>
    <path d="M 206.890843 136.167964 
L 211.700994 137.198711 
L 207.990306 140.428384 
" style="fill: none; stroke: #cccccc; stroke-width: 0.5; stroke-linecap: round"/>
   </g>
   <g id="patch_17">
    <path d="M 82.368261 170.334351 
Q 147.340933 145.183639 211.792283 120.234729 
" style="fill: none; stroke: #cccccc; stroke-width: 0.5; stroke-linecap: round"/>
    <path d="M 206.894796 119.771453 
L 211.792283 120.234729 
L 208.48317 123.874753 
" style="fill: none; stroke: #cccccc; stroke-width: 0.5; stroke-linecap: round"/>
   </g>
   <g id="patch_18">
    <path d="M 82.278515 170.140121 
Q 147.339703 136.560153 211.904136 103.236575 
" style="fill: none; stroke: #cccccc; stroke-width: 0.5; stroke-linecap: round"/>
    <path d="M 206.985191 103.299638 
L 211.904136 103.236575 
L 209.00322 107.209569 
" style="fill: none; stroke: #cccccc; stroke-width: 0.5; stroke-linecap: round"/>
   </g>
   <g id="patch_19">
    <path d="M 82.180611 169.974315 
Q 147.33843 127.937013 212.026509 86.202768 
" style="fill: none; stroke: #cccccc; stroke-width: 0.5; stroke-linecap: round"/>
    <path d="M 207.136525 86.739474 
L 212.026509 86.202768 
L 209.521883 90.436779 
" style="fill: none; stroke: #cccccc; stroke-width: 0.5; stroke-linecap: round"/>
   </g>
   <g id="patch_20">
    <path d="M 82.084746 169.832196 
Q 147.339269 119.312566 212.151763 69.135151 
" style="fill: none; stroke: #cccccc; stroke-width: 0.5; stroke-linecap: round"/>
    <path d="M 207.325798 70.089121 
L 212.151763 69.135151 
L 210.01936 73.568305 
" style="fill: none; stroke: #cccccc; stroke-width: 0.5; stroke-linecap: round"/>
   </g>
   <g id="patch_21">
    <path d="M 81.986842 169.716659 
Q 147.340157 110.687859 212.278623 52.03376 
" style="fill: none; stroke: #cccccc; stroke-width: 0.5; stroke-linecap: round"/>
    <path d="M 207.538741 53.350394 
L 212.278623 52.03376 
L 210.488001 56.615645 
" style="fill: none; stroke: #cccccc; stroke-width: 0.5; stroke-linecap: round"/>
   </g>
   <g id="patch_22">
    <path d="M 82.327468 111.511501 
Q 147.340366 140.872165 211.843793 170.002745 
" style="fill: none; stroke: #cccccc; stroke-width: 0.5; stroke-linecap: round"/>
    <path d="M 208.739253 166.186748 
L 211.843793 170.002745 
L 206.928272 170.196779 
" style="fill: none; stroke: #cccccc; stroke-width: 0.5; stroke-linecap: round"/>
   </g>
   <g id="patch_23">
    <path d="M 82.409054 111.302534 
Q 147.341512 132.248488 211.741947 153.022822 
" style="fill: none; stroke: #cccccc; stroke-width: 0.5; stroke-linecap: round"/>
    <path d="M 208.229835 149.578251 
L 211.741947 153.022822 
L 206.879023 153.765768 
" style="fill: none; stroke: #cccccc; stroke-width: 0.5; stroke-linecap: round"/>
   </g>
   <g id="patch_24">
    <path d="M 82.466165 111.067774 
Q 147.338323 123.623675 211.66165 136.073352 
" style="fill: none; stroke: #cccccc; stroke-width: 0.5; stroke-linecap: round"/>
    <path d="M 207.759867 133.07734 
L 211.66165 136.073352 
L 206.92377 137.397171 
" style="fill: none; stroke: #cccccc; stroke-width: 0.5; stroke-linecap: round"/>
   </g>
   <g id="patch_25">
    <path d="M 82.4988 110.816697 
Q 147.33881 114.999923 211.620964 119.147159 
" style="fill: none; stroke: #cccccc; stroke-width: 0.5; stroke-linecap: round"/>
    <path d="M 207.371733 116.668441 
L 211.620964 119.147159 
L 207.088451 121.059313 
" style="fill: none; stroke: #cccccc; stroke-width: 0.5; stroke-linecap: round"/>
   </g>
   <g id="patch_26">
    <path d="M 82.4988 110.559303 
Q 147.33881 106.376077 211.620964 102.228841 
" style="fill: none; stroke: #cccccc; stroke-width: 0.5; stroke-linecap: round"/>
    <path d="M 207.088451 100.316687 
L 211.620964 102.228841 
L 207.371733 104.707559 
" style="fill: none; stroke: #cccccc; stroke-width: 0.5; stroke-linecap: round"/>
   </g>
   <g id="patch_27">
    <path d="M 82.466165 110.308226 
Q 147.338323 97.752325 211.66165 85.302648 
" style="fill: none; stroke: #cccccc; stroke-width: 0.5; stroke-linecap: round"/>
    <path d="M 206.92377 83.978829 
L 211.66165 85.302648 
L 207.759867 88.29866 
" style="fill: none; stroke: #cccccc; stroke-width: 0.5; stroke-linecap: round"/>
   </g>
   <g id="patch_28">
    <path d="M 82.409054 110.073466 
Q 147.341512 89.127512 211.741947 68.353178 
" style="fill: none; stroke: #cccccc; stroke-width: 0.5; stroke-linecap: round"/>
    <path d="M 206.879023 67.610232 
L 211.741947 68.353178 
L 208.229835 71.797749 
" style="fill: none; stroke: #cccccc; stroke-width: 0.5; stroke-linecap: round"/>
   </g>
   <g id="patch_29">
    <path d="M 82.327468 109.864499 
Q 147.340366 80.503835 211.843793 51.373255 
" style="fill: none; stroke: #cccccc; stroke-width: 0.5; stroke-linecap: round"/>
    <path d="M 206.928272 51.179221 
L 211.843793 51.373255 
L 208.739253 55.189252 
" style="fill: none; stroke: #cccccc; stroke-width: 0.5; stroke-linecap: round"/>
   </g>
   <g id="patch_30">
    <path d="M 81.986842 51.659341 
Q 147.340157 110.688141 212.278623 169.34224 
" style="fill: none; stroke: #cccccc; stroke-width: 0.5; stroke-linecap: round"/>
    <path d="M 210.488001 164.760355 
L 212.278623 169.34224 
L 207.538741 168.025606 
" style="fill: none; stroke: #cccccc; stroke-width: 0.5; stroke-linecap: round"/>
   </g>
   <g id="patch_31">
    <path d="M 82.084746 51.543804 
Q 147.339269 102.063434 212.151763 152.240849 
" style="fill: none; stroke: #cccccc; stroke-width: 0.5; stroke-linecap: round"/>
    <path d="M 210.01936 147.807695 
L 212.151763 152.240849 
L 207.325798 151.286879 
" style="fill: none; stroke: #cccccc; stroke-width: 0.5; stroke-linecap: round"/>
   </g>
   <g id="patch_32">
    <path d="M 82.180611 51.401685 
Q 147.33843 93.438987 212.026509 135.173232 
" style="fill: none; stroke: #cccccc; stroke-width: 0.5; stroke-linecap: round"/>
    <path d="M 209.521883 130.939221 
L 212.026509 135.173232 
L 207.136525 134.636526 
" style="fill: none; stroke: #cccccc; stroke-width: 0.5; stroke-linecap: round"/>
   </g>
   <g id="patch_33">
    <path d="M 82.278515 51.235879 
Q 147.339703 84.815847 211.904136 118.139425 
" style="fill: none; stroke: #cccccc; stroke-width: 0.5; stroke-linecap: round"/>
    <path d="M 209.00322 114.166431 
L 211.904136 118.139425 
L 206.985191 118.076362 
" style="fill: none; stroke: #cccccc; stroke-width: 0.5; stroke-linecap: round"/>
   </g>
   <g id="patch_34">
    <path d="M 82.368261 51.041649 
Q 147.340933 76.192361 211.792283 101.141271 
" style="fill: none; stroke: #cccccc; stroke-width: 0.5; stroke-linecap: round"/>
    <path d="M 208.48317 97.501247 
L 211.792283 101.141271 
L 206.894796 101.604547 
" style="fill: none; stroke: #cccccc; stroke-width: 0.5; stroke-linecap: round"/>
   </g>
   <g id="patch_35">
    <path d="M 82.441689 50.820049 
Q 147.341984 67.568512 211.700994 84.177289 
" style="fill: none; stroke: #cccccc; stroke-width: 0.5; stroke-linecap: round"/>
    <path d="M 207.990306 80.947616 
L 211.700994 84.177289 
L 206.890843 85.208036 
" style="fill: none; stroke: #cccccc; stroke-width: 0.5; stroke-linecap: round"/>
   </g>
   <g id="patch_36">
    <path d="M 82.490641 50.576341 
Q 147.342707 58.944349 211.640351 67.24082 
" style="fill: none; stroke: #cccccc; stroke-width: 0.5; stroke-linecap: round"/>
    <path d="M 207.558066 64.495834 
L 211.640351 67.24082 
L 206.994992 68.859657 
" style="fill: none; stroke: #cccccc; stroke-width: 0.5; stroke-linecap: round"/>
   </g>
   <g id="patch_37">
    <path d="M 82.506959 50.32 
Q 147.342952 50.32 211.619928 50.32 
" style="fill: none; stroke: #cccccc; stroke-width: 0.5; stroke-linecap: round"/>
    <path d="M 207.219928 48.12 
L 211.619928 50.32 
L 207.219928 52.52 
" style="fill: none; stroke: #cccccc; stroke-width: 0.5; stroke-linecap: round"/>
   </g>
   <g id="patch_38">
    <path d="M 233.42788 171.056 
Q 309.043582 171.056 384.100266 171.056 
" style="fill: none; stroke: #cccccc; stroke-width: 0.5; stroke-linecap: round"/>
    <path d="M 379.700266 168.856 
L 384.100266 171.056 
L 379.700266 173.256 
" style="fill: none; stroke: #cccccc; stroke-width: 0.5; stroke-linecap: round"/>
   </g>
   <g id="patch_39">
    <path d="M 233.408931 154.028548 
Q 309.03866 162.431851 384.112792 170.773421 
" style="fill: none; stroke: #cccccc; stroke-width: 0.5; stroke-linecap: round"/>
    <path d="M 379.982653 168.100978 
L 384.112792 170.773421 
L 379.496754 172.474067 
" style="fill: none; stroke: #cccccc; stroke-width: 0.5; stroke-linecap: round"/>
   </g>
   <g id="patch_40">
    <path d="M 233.380507 136.994779 
Q 309.042974 153.808661 384.159737 170.501275 
" style="fill: none; stroke: #cccccc; stroke-width: 0.5; stroke-linecap: round"/>
    <path d="M 380.341761 167.399169 
L 384.159737 170.501275 
L 379.387267 171.694392 
" style="fill: none; stroke: #cccccc; stroke-width: 0.5; stroke-linecap: round"/>
   </g>
   <g id="patch_41">
    <path d="M 233.323659 119.94522 
Q 309.042265 145.184755 384.230541 170.247514 
" style="fill: none; stroke: #cccccc; stroke-width: 0.5; stroke-linecap: round"/>
    <path d="M 380.752035 166.769008 
L 384.230541 170.247514 
L 379.360633 170.943215 
" style="fill: none; stroke: #cccccc; stroke-width: 0.5; stroke-linecap: round"/>
   </g>
   <g id="patch_42">
    <path d="M 233.250231 102.875658 
Q 309.039038 136.559573 384.31701 170.016449 
" style="fill: none; stroke: #cccccc; stroke-width: 0.5; stroke-linecap: round"/>
    <path d="M 381.189744 166.219054 
L 384.31701 170.016449 
L 379.402734 170.239825 
" style="fill: none; stroke: #cccccc; stroke-width: 0.5; stroke-linecap: round"/>
   </g>
   <g id="patch_43">
    <path d="M 233.174434 85.788463 
Q 309.040501 127.936279 384.4179 169.812611 
" style="fill: none; stroke: #cccccc; stroke-width: 0.5; stroke-linecap: round"/>
    <path d="M 381.640022 165.752636 
L 384.4179 169.812611 
L 379.503193 169.598928 
" style="fill: none; stroke: #cccccc; stroke-width: 0.5; stroke-linecap: round"/>
   </g>
   <g id="patch_44">
    <path d="M 233.089163 68.678108 
Q 309.039558 119.311705 384.524823 169.635216 
" style="fill: none; stroke: #cccccc; stroke-width: 0.5; stroke-linecap: round"/>
    <path d="M 382.084142 165.364024 
L 384.524823 169.635216 
L 379.643462 169.025045 
" style="fill: none; stroke: #cccccc; stroke-width: 0.5; stroke-linecap: round"/>
   </g>
   <g id="patch_45">
    <path d="M 233.003891 51.548804 
Q 309.041006 110.688783 384.63686 169.485558 
" style="fill: none; stroke: #cccccc; stroke-width: 0.5; stroke-linecap: round"/>
    <path d="M 382.514379 165.047644 
L 384.63686 169.485558 
L 379.813041 168.520794 
" style="fill: none; stroke: #cccccc; stroke-width: 0.5; stroke-linecap: round"/>
   </g>
   <g id="text_4">
    <g id="patch_46">
     <path d="M 116.86 46.458687 
L 177.82 46.458687 
Q 182.62 46.458687 182.62 41.658687 
L 182.62 15.861312 
Q 182.62 11.061312 177.82 11.061312 
L 116.86 11.061312 
Q 112.06 11.061312 112.06 15.861312 
L 112.06 41.658687 
Q 112.06 46.458687 116.86 46.458687 
z
" style="fill: #f0e8f7; stroke: #8172b3; stroke-width: 1.5; stroke-linejoin: miter"/>
    </g>
    <!-- $W_1 \in \mathbb{R}^{64 \times 3}$ -->
    <g transform="translate(116.86 25.725687) scale(0.12 -0.12)">
     <defs>
      <path id="Cmmi10-57" d="M 1141 -72 
L 844 4006 
Q 822 4100 703 4123 
Q 584 4147 409 4147 
Q 347 4147 347 4231 
Q 369 4313 381 4342 
Q 394 4372 453 4372 
L 1978 4372 
Q 2041 4372 2041 4288 
Q 2016 4147 1959 4147 
Q 1447 4147 1416 3969 
L 1644 738 
L 3244 3525 
L 3213 4006 
Q 3191 4100 3072 4123 
Q 2953 4147 2778 4147 
Q 2713 4147 2713 4231 
Q 2734 4313 2746 4342 
Q 2759 4372 2822 4372 
L 4347 4372 
Q 4409 4372 4409 4288 
Q 4406 4272 4397 4234 
Q 4388 4197 4372 4172 
Q 4356 4147 4325 4147 
Q 3809 4147 3781 3969 
L 3781 3922 
L 4013 738 
L 5753 3775 
Q 5791 3844 5791 3909 
Q 5791 4041 5662 4094 
Q 5534 4147 5375 4147 
Q 5313 4147 5313 4231 
Q 5325 4281 5333 4309 
Q 5341 4338 5361 4355 
Q 5381 4372 5422 4372 
L 6644 4372 
Q 6706 4372 6706 4288 
Q 6703 4272 6693 4233 
Q 6684 4194 6667 4170 
Q 6650 4147 6625 4147 
Q 6169 4147 5931 3731 
Q 5913 3713 5913 3713 
L 3744 -72 
Q 3709 -141 3634 -141 
L 3584 -141 
Q 3506 -141 3506 -72 
L 3263 3225 
L 1381 -72 
Q 1334 -141 1269 -141 
L 1216 -141 
Q 1141 -141 1141 -72 
z
" transform="scale(0.015625)"/>
      <path id="Cmsy10-a3" d="M 941 184 
Q 941 234 972 275 
L 2303 1600 
L 972 2931 
Q 941 2963 941 3016 
Q 941 3063 978 3103 
Q 1016 3144 1069 3144 
Q 1113 3144 1166 3103 
L 2491 1778 
L 3809 3103 
Q 3863 3144 3903 3144 
Q 3956 3144 3993 3106 
Q 4031 3069 4031 3016 
Q 4031 2963 4000 2931 
L 2669 1600 
L 4000 275 
Q 4031 234 4031 184 
Q 4031 131 3993 93 
Q 3956 56 3903 56 
Q 3856 56 3809 103 
L 2491 1422 
L 1166 103 
Q 1119 56 1069 56 
Q 1016 56 978 97 
Q 941 138 941 184 
z
" transform="scale(0.015625)"/>
     </defs>
     <use xlink:href="#Cmmi10-57" transform="translate(0 0.109375)"/>
     <use xlink:href="#Cmr10-31" transform="translate(94.384766 -16.896875) scale(0.7)"/>
     <use xlink:href="#Cmsy10-32" transform="translate(153.320703 0.109375)"/>
     <use xlink:href="#STIXGeneral-Italic-211d" transform="translate(237.480859 0.109375)"/>
     <use xlink:href="#Cmr10-36" transform="translate(316.917091 38.373438) scale(0.7)"/>
     <use xlink:href="#Cmr10-34" transform="translate(351.917091 38.373438) scale(0.7)"/>
     <use xlink:href="#Cmsy10-a3" transform="translate(399.208107 38.373438) scale(0.7)"/>
     <use xlink:href="#Cmr10-33" transform="translate(465.879005 38.373438) scale(0.7)"/>
    </g>
    <!-- (Muon) -->
    <g transform="translate(125.17375 39.163062) scale(0.12 -0.12)">
     <defs>
      <path id="DejaVuSerif-28" d="M 2041 -997 
Q 1281 -656 893 83 
Q 506 822 506 1931 
Q 506 3044 893 3783 
Q 1281 4522 2041 4863 
L 2041 4556 
Q 1559 4225 1350 3623 
Q 1141 3022 1141 1931 
Q 1141 844 1350 242 
Q 1559 -359 2041 -691 
L 2041 -997 
z
" transform="scale(0.015625)"/>
      <path id="DejaVuSerif-4d" d="M 353 0 
L 353 331 
L 947 331 
L 947 4331 
L 319 4331 
L 319 4666 
L 1678 4666 
L 3316 1344 
L 4953 4666 
L 6228 4666 
L 6228 4331 
L 5606 4331 
L 5606 331 
L 6203 331 
L 6203 0 
L 4378 0 
L 4378 331 
L 4972 331 
L 4972 3938 
L 3372 684 
L 2931 684 
L 1331 3938 
L 1331 331 
L 1925 331 
L 1925 0 
L 353 0 
z
" transform="scale(0.015625)"/>
      <path id="DejaVuSerif-6f" d="M 1925 219 
Q 2388 219 2623 584 
Q 2859 950 2859 1663 
Q 2859 2375 2623 2739 
Q 2388 3103 1925 3103 
Q 1463 3103 1227 2739 
Q 991 2375 991 1663 
Q 991 950 1228 584 
Q 1466 219 1925 219 
z
M 1925 -91 
Q 1200 -91 759 389 
Q 319 869 319 1663 
Q 319 2456 758 2934 
Q 1197 3413 1925 3413 
Q 2653 3413 3092 2934 
Q 3531 2456 3531 1663 
Q 3531 869 3092 389 
Q 2653 -91 1925 -91 
z
" transform="scale(0.015625)"/>
      <path id="DejaVuSerif-29" d="M 453 -997 
L 453 -691 
Q 934 -359 1145 242 
Q 1356 844 1356 1931 
Q 1356 3022 1145 3623 
Q 934 4225 453 4556 
L 453 4863 
Q 1216 4522 1603 3783 
Q 1991 3044 1991 1931 
Q 1991 822 1603 83 
Q 1216 -656 453 -997 
z
" transform="scale(0.015625)"/>
     </defs>
     <use xlink:href="#DejaVuSerif-28"/>
     <use xlink:href="#DejaVuSerif-4d" transform="translate(39.013672 0)"/>
     <use xlink:href="#DejaVuSerif-75" transform="translate(141.40625 0)"/>
     <use xlink:href="#DejaVuSerif-6f" transform="translate(205.810547 0)"/>
     <use xlink:href="#DejaVuSerif-6e" transform="translate(266.015625 0)"/>
     <use xlink:href="#DejaVuSerif-29" transform="translate(330.419922 0)"/>
    </g>
   </g>
   <g id="text_5">
    <g id="patch_47">
     <path d="M 278.56 46.458687 
L 339.52 46.458687 
Q 344.32 46.458687 344.32 41.658687 
L 344.32 15.861312 
Q 344.32 11.061312 339.52 11.061312 
L 278.56 11.061312 
Q 273.76 11.061312 273.76 15.861312 
L 273.76 41.658687 
Q 273.76 46.458687 278.56 46.458687 
z
" style="fill: #e8f7ec; stroke: #55a868; stroke-width: 1.5; stroke-linejoin: miter"/>
    </g>
    <!-- $W_2 \in \mathbb{R}^{1 \times 64}$ -->
    <g transform="translate(278.56 25.725687) scale(0.12 -0.12)">
     <defs>
      <path id="Cmr10-32" d="M 319 0 
L 319 172 
Q 319 188 331 206 
L 1325 1306 
Q 1550 1550 1690 1715 
Q 1831 1881 1968 2097 
Q 2106 2313 2186 2536 
Q 2266 2759 2266 3009 
Q 2266 3272 2169 3511 
Q 2072 3750 1880 3894 
Q 1688 4038 1416 4038 
Q 1138 4038 916 3870 
Q 694 3703 603 3438 
Q 628 3444 672 3444 
Q 816 3444 917 3347 
Q 1019 3250 1019 3097 
Q 1019 2950 917 2848 
Q 816 2747 672 2747 
Q 522 2747 420 2851 
Q 319 2956 319 3097 
Q 319 3338 409 3548 
Q 500 3759 670 3923 
Q 841 4088 1055 4175 
Q 1269 4263 1509 4263 
Q 1875 4263 2190 4108 
Q 2506 3953 2690 3670 
Q 2875 3388 2875 3009 
Q 2875 2731 2753 2481 
Q 2631 2231 2440 2026 
Q 2250 1822 1953 1562 
Q 1656 1303 1563 1216 
L 838 519 
L 1453 519 
Q 1906 519 2211 526 
Q 2516 534 2534 550 
Q 2609 631 2688 1141 
L 2875 1141 
L 2694 0 
L 319 0 
z
" transform="scale(0.015625)"/>
     </defs>
     <use xlink:href="#Cmmi10-57" transform="translate(0 0.109375)"/>
     <use xlink:href="#Cmr10-32" transform="translate(94.384766 -16.896875) scale(0.7)"/>
     <use xlink:href="#Cmsy10-32" transform="translate(153.320703 0.109375)"/>
     <use xlink:href="#STIXGeneral-Italic-211d" transform="translate(237.480859 0.109375)"/>
     <use xlink:href="#Cmr10-31" transform="translate(316.917091 38.373438) scale(0.7)"/>
     <use xlink:href="#Cmsy10-a3" transform="translate(364.208107 38.373438) scale(0.7)"/>
     <use xlink:href="#Cmr10-36" transform="translate(430.879005 38.373438) scale(0.7)"/>
     <use xlink:href="#Cmr10-34" transform="translate(465.879005 38.373438) scale(0.7)"/>
    </g>
    <!-- (AdamW) -->
    <g transform="translate(280.75 39.163062) scale(0.12 -0.12)">
     <defs>
      <path id="DejaVuSerif-41" d="M 1281 1691 
L 2994 1691 
L 2138 3909 
L 1281 1691 
z
M -38 0 
L -38 331 
L 372 331 
L 2034 4666 
L 2559 4666 
L 4225 331 
L 4684 331 
L 4684 0 
L 2988 0 
L 2988 331 
L 3506 331 
L 3116 1356 
L 1153 1356 
L 763 331 
L 1275 331 
L 1275 0 
L -38 0 
z
" transform="scale(0.015625)"/>
      <path id="DejaVuSerif-61" d="M 2547 1044 
L 2547 1747 
L 1806 1747 
Q 1378 1747 1168 1562 
Q 959 1378 959 997 
Q 959 650 1171 447 
Q 1384 244 1747 244 
Q 2106 244 2326 466 
Q 2547 688 2547 1044 
z
M 3122 2075 
L 3122 331 
L 3634 331 
L 3634 0 
L 2547 0 
L 2547 359 
Q 2356 128 2106 18 
Q 1856 -91 1522 -91 
Q 969 -91 644 203 
Q 319 497 319 997 
Q 319 1513 691 1797 
Q 1063 2081 1741 2081 
L 2547 2081 
L 2547 2309 
Q 2547 2688 2317 2895 
Q 2088 3103 1672 3103 
Q 1328 3103 1125 2947 
Q 922 2791 872 2484 
L 575 2484 
L 575 3156 
Q 875 3284 1158 3348 
Q 1441 3413 1709 3413 
Q 2400 3413 2761 3070 
Q 3122 2728 3122 2075 
z
" transform="scale(0.015625)"/>
      <path id="DejaVuSerif-6d" d="M 3316 2675 
Q 3481 3041 3739 3227 
Q 3997 3413 4341 3413 
Q 4863 3413 5119 3089 
Q 5375 2766 5375 2113 
L 5375 331 
L 5894 331 
L 5894 0 
L 4300 0 
L 4300 331 
L 4800 331 
L 4800 2047 
Q 4800 2556 4650 2772 
Q 4500 2988 4153 2988 
Q 3769 2988 3567 2697 
Q 3366 2406 3366 1850 
L 3366 331 
L 3866 331 
L 3866 0 
L 2291 0 
L 2291 331 
L 2791 331 
L 2791 2069 
Q 2791 2566 2641 2777 
Q 2491 2988 2144 2988 
Q 1759 2988 1557 2697 
Q 1356 2406 1356 1850 
L 1356 331 
L 1856 331 
L 1856 0 
L 263 0 
L 263 331 
L 781 331 
L 781 2994 
L 231 2994 
L 231 3322 
L 1356 3322 
L 1356 2731 
Q 1516 3063 1762 3238 
Q 2009 3413 2322 3413 
Q 2709 3413 2968 3220 
Q 3228 3028 3316 2675 
z
" transform="scale(0.015625)"/>
      <path id="DejaVuSerif-57" d="M 4878 0 
L 4366 0 
L 3297 3794 
L 2228 0 
L 1716 0 
L 494 4331 
L 31 4331 
L 31 4666 
L 1734 4666 
L 1734 4331 
L 1153 4331 
L 2125 884 
L 3188 4666 
L 3694 4666 
L 4775 844 
L 5753 4331 
L 5216 4331 
L 5216 4666 
L 6559 4666 
L 6559 4331 
L 6100 4331 
L 4878 0 
z
" transform="scale(0.015625)"/>
     </defs>
     <use xlink:href="#DejaVuSerif-28"/>
     <use xlink:href="#DejaVuSerif-41" transform="translate(39.013672 0)"/>
     <use xlink:href="#DejaVuSerif-64" transform="translate(111.230469 0)"/>
     <use xlink:href="#DejaVuSerif-61" transform="translate(175.244141 0)"/>
     <use xlink:href="#DejaVuSerif-6d" transform="translate(234.863281 0)"/>
     <use xlink:href="#DejaVuSerif-57" transform="translate(329.6875 0)"/>
     <use xlink:href="#DejaVuSerif-29" transform="translate(432.470703 0)"/>
    </g>
   </g>
   <g id="text_6">
    <!-- $\tanh$ -->
    <g style="fill: #666666" transform="translate(135.515 152.531312) scale(0.11 -0.11)">
     <defs>
      <path id="Cmr10-74" d="M 653 769 
L 653 2534 
L 122 2534 
L 122 2700 
Q 541 2700 737 3090 
Q 934 3481 934 3938 
L 1119 3938 
L 1119 2759 
L 2022 2759 
L 2022 2534 
L 1119 2534 
L 1119 781 
Q 1119 516 1208 316 
Q 1297 116 1528 116 
Q 1747 116 1844 327 
Q 1941 538 1941 781 
L 1941 1159 
L 2125 1159 
L 2125 769 
Q 2125 569 2051 373 
Q 1978 178 1834 53 
Q 1691 -72 1484 -72 
Q 1100 -72 876 158 
Q 653 388 653 769 
z
" transform="scale(0.015625)"/>
      <path id="Cmr10-61" d="M 256 628 
Q 256 1009 556 1248 
Q 856 1488 1276 1586 
Q 1697 1684 2075 1684 
L 2075 1947 
Q 2075 2131 1994 2304 
Q 1913 2478 1759 2589 
Q 1606 2700 1422 2700 
Q 997 2700 775 2509 
Q 897 2509 976 2417 
Q 1056 2325 1056 2203 
Q 1056 2075 965 1984 
Q 875 1894 750 1894 
Q 622 1894 531 1984 
Q 441 2075 441 2203 
Q 441 2541 747 2705 
Q 1053 2869 1422 2869 
Q 1681 2869 1943 2758 
Q 2206 2647 2373 2440 
Q 2541 2234 2541 1959 
L 2541 519 
Q 2541 394 2594 289 
Q 2647 184 2759 184 
Q 2866 184 2917 290 
Q 2969 397 2969 519 
L 2969 928 
L 3156 928 
L 3156 519 
Q 3156 375 3081 245 
Q 3006 116 2879 39 
Q 2753 -38 2606 -38 
Q 2419 -38 2283 107 
Q 2147 253 2131 453 
Q 2013 213 1781 70 
Q 1550 -72 1288 -72 
Q 1044 -72 808 0 
Q 572 72 414 226 
Q 256 381 256 628 
z
M 775 628 
Q 775 403 940 250 
Q 1106 97 1331 97 
Q 1538 97 1706 200 
Q 1875 303 1975 481 
Q 2075 659 2075 856 
L 2075 1522 
Q 1784 1522 1479 1426 
Q 1175 1331 975 1128 
Q 775 925 775 628 
z
" transform="scale(0.015625)"/>
      <path id="Cmr10-6e" d="M 191 0 
L 191 225 
Q 409 225 550 259 
Q 691 294 691 428 
L 691 2175 
Q 691 2347 639 2423 
Q 588 2500 491 2517 
Q 394 2534 191 2534 
L 191 2759 
L 1119 2828 
L 1119 2203 
Q 1247 2478 1498 2653 
Q 1750 2828 2047 2828 
Q 2491 2828 2714 2615 
Q 2938 2403 2938 1966 
L 2938 428 
Q 2938 294 3078 259 
Q 3219 225 3438 225 
L 3438 0 
L 1972 0 
L 1972 225 
Q 2191 225 2331 259 
Q 2472 294 2472 428 
L 2472 1947 
Q 2472 2259 2381 2461 
Q 2291 2663 2009 2663 
Q 1638 2663 1398 2366 
Q 1159 2069 1159 1691 
L 1159 428 
Q 1159 294 1300 259 
Q 1441 225 1656 225 
L 1656 0 
L 191 0 
z
" transform="scale(0.015625)"/>
      <path id="Cmr10-68" d="M 191 0 
L 191 225 
Q 409 225 550 259 
Q 691 294 691 428 
L 691 3788 
Q 691 3959 639 4036 
Q 588 4113 491 4130 
Q 394 4147 191 4147 
L 191 4372 
L 1141 4441 
L 1141 2241 
Q 1275 2506 1515 2667 
Q 1756 2828 2047 2828 
Q 2491 2828 2714 2615 
Q 2938 2403 2938 1966 
L 2938 428 
Q 2938 294 3078 259 
Q 3219 225 3438 225 
L 3438 0 
L 1972 0 
L 1972 225 
Q 2191 225 2331 259 
Q 2472 294 2472 428 
L 2472 1947 
Q 2472 2259 2381 2461 
Q 2291 2663 2009 2663 
Q 1638 2663 1398 2366 
Q 1159 2069 1159 1691 
L 1159 428 
Q 1159 294 1300 259 
Q 1441 225 1656 225 
L 1656 0 
L 191 0 
z
" transform="scale(0.015625)"/>
     </defs>
     <use xlink:href="#Cmr10-74" transform="translate(0 0.609375)"/>
     <use xlink:href="#Cmr10-61" transform="translate(38.818359 0.609375)"/>
     <use xlink:href="#Cmr10-6e" transform="translate(88.818359 0.609375)"/>
     <use xlink:href="#Cmr10-68" transform="translate(144.335938 0.609375)"/>
    </g>
   </g>
   <g id="text_7">
    <!-- $\sigma$ -->
    <g style="fill: #666666" transform="translate(305.85 152.531312) scale(0.11 -0.11)">
     <defs>
      <path id="Cmmi10-be" d="M 1197 -72 
Q 913 -72 692 64 
Q 472 200 351 431 
Q 231 663 231 941 
Q 231 1238 365 1566 
Q 500 1894 733 2166 
Q 966 2438 1259 2598 
Q 1553 2759 1863 2759 
L 3475 2759 
Q 3541 2759 3587 2715 
Q 3634 2672 3634 2597 
Q 3634 2503 3567 2433 
Q 3500 2363 3406 2363 
L 2625 2363 
Q 2809 2088 2809 1697 
Q 2809 1375 2684 1062 
Q 2559 750 2337 492 
Q 2116 234 1820 81 
Q 1525 -72 1197 -72 
z
M 1203 97 
Q 1553 97 1823 370 
Q 2094 644 2237 1039 
Q 2381 1434 2381 1772 
Q 2381 2047 2229 2205 
Q 2078 2363 1806 2363 
Q 1434 2363 1173 2113 
Q 913 1863 783 1484 
Q 653 1106 653 756 
Q 653 481 798 289 
Q 944 97 1203 97 
z
" transform="scale(0.015625)"/>
     </defs>
     <use xlink:href="#Cmmi10-be" transform="translate(0 0.890625)"/>
    </g>
   </g>
   <g id="text_8">
    <!-- ... -->
    <g style="fill: #666666" transform="translate(216.125938 121.019125) scale(0.14 -0.14)">
     <defs>
      <path id="DejaVuSerif-2e" d="M 603 325 
Q 603 500 722 622 
Q 841 744 1019 744 
Q 1191 744 1312 622 
Q 1434 500 1434 325 
Q 1434 153 1312 31 
Q 1191 -91 1019 -91 
Q 841 -91 722 29 
Q 603 150 603 325 
z
" transform="scale(0.015625)"/>
     </defs>
     <use xlink:href="#DejaVuSerif-2e"/>
     <use xlink:href="#DejaVuSerif-2e" transform="translate(31.787109 0)"/>
     <use xlink:href="#DejaVuSerif-2e" transform="translate(63.574219 0)"/>
    </g>
   </g>
  </g>
 </g>
 <defs>
  <clipPath id="pd315005bbc">
   <rect x="7.2" y="7.2" width="474.32" height="194.04"/>
  </clipPath>
 </defs>
</svg>
