<svg width="1183" height="477" xmlns="http://www.w3.org/2000/svg" xmlns:xlink="http://www.w3.org/1999/xlink" overflow="hidden"><defs><clipPath id="clip0"><path d="M38 86 1221 86 1221 563 38 563Z" fill-rule="evenodd" clip-rule="evenodd"/></clipPath></defs><g clip-path="url(#clip0)" transform="translate(-38 -86)"><path d="M395 171 876.684 171" stroke="#5B9BD5" stroke-width="8" stroke-miterlimit="8" fill="none" fill-rule="evenodd"/><path d="M685 170.5C685 161.94 691.94 155 700.5 155 709.06 155 716 161.94 716 170.5 716 179.06 709.06 186 700.5 186 691.94 186 685 179.06 685 170.5Z" fill="#ED7D32" fill-rule="evenodd"/><path d="M556 170.5C556 161.94 562.94 155 571.5 155 580.06 155 587 161.94 587 170.5 587 179.06 580.06 186 571.5 186 562.94 186 556 179.06 556 170.5Z" fill="#ED7D32" fill-rule="evenodd"/><path d="M63 456 544.684 456" stroke="#5B9BD5" stroke-width="8" stroke-miterlimit="8" fill="none" fill-rule="evenodd"/><path d="M354 456.5C354 447.94 360.94 441 369.5 441 378.06 441 385 447.94 385 456.5 385 465.06 378.06 472 369.5 472 360.94 472 354 465.06 354 456.5Z" fill="#ED7D32" fill-rule="evenodd"/><path d="M224 456.5C224 447.94 230.94 441 239.5 441 248.06 441 255 447.94 255 456.5 255 465.06 248.06 472 239.5 472 230.94 472 224 465.06 224 456.5Z" fill="#ED7D32" fill-rule="evenodd"/><path d="M735 457 1216.68 457" stroke="#5B9BD5" stroke-width="8" stroke-miterlimit="8" fill="none" fill-rule="evenodd"/><path d="M1025 456.5C1025 447.94 1031.94 441 1040.5 441 1049.06 441 1056 447.94 1056 456.5 1056 465.06 1049.06 472 1040.5 472 1031.94 472 1025 465.06 1025 456.5Z" fill="#ED7D32" fill-rule="evenodd"/><path d="M895 456.5C895 447.94 901.94 441 910.5 441 919.06 441 926 447.94 926 456.5 926 465.06 919.06 472 910.5 472 901.94 472 895 465.06 895 456.5Z" fill="#ED7D32" fill-rule="evenodd"/><text font-family="CMU Classical Serif,CMU Classical Serif_MSFontService,sans-serif" font-style="italic" font-weight="500" font-size="64" transform="translate(552.992 246)">l<tspan font-size="43" x="16.3333" y="15">k</tspan><tspan x="124.599" y="0">r</tspan><tspan font-size="43" x="151.599" y="15">k</tspan></text><path d="M0.739508-1.85826 321.554 125.812 320.075 129.529-0.739508 1.85826ZM321.174 121.356 330.105 131.368 316.737 132.506Z" fill="#FF0000" transform="matrix(-1 -8.74228e-08 -8.74228e-08 1 640.105 264)"/><path d="M640.74 262.142 961.554 389.812 960.075 393.529 639.26 265.858ZM961.174 385.356 970.105 395.368 956.737 396.505Z" fill="#FF0000"/><path d="M245.976 492C239.907 492 234.988 487.081 234.988 481.012L234.988 467.488C234.988 461.42 230.068 456.5 224 456.5 230.068 456.5 234.988 451.581 234.988 445.512L234.988 431.988C234.988 425.919 239.907 421 245.976 421M534.024 421C540.093 421 545.012 425.919 545.012 431.988L545.012 445.512C545.012 451.58 549.932 456.5 556 456.5 549.932 456.5 545.012 461.419 545.012 467.488L545.012 481.012C545.012 487.081 540.093 492 534.024 492" stroke="#FF0000" stroke-width="4" stroke-miterlimit="8" fill="none" fill-rule="evenodd"/><path d="M745.976 492C739.907 492 734.988 487.081 734.988 481.012L734.988 467.488C734.988 461.419 730.068 456.5 724 456.5 730.068 456.5 734.988 451.581 734.988 445.512L734.988 431.988C734.988 425.919 739.907 421 745.976 421M1028.02 421C1034.09 421 1039.01 425.919 1039.01 431.988L1039.01 445.512C1039.01 451.581 1043.93 456.5 1050 456.5 1043.93 456.5 1039.01 461.419 1039.01 467.488L1039.01 481.012C1039.01 487.081 1034.09 492 1028.02 492" stroke="#FF0000" stroke-width="4" stroke-miterlimit="8" fill="none" fill-rule="evenodd"/><text font-family="CMU Classical Serif,CMU Classical Serif_MSFontService,sans-serif" font-style="italic" font-weight="500" font-size="43" transform="translate(339.149 512)">l<tspan font-size="28" x="10.8333" y="10">k+1</tspan><tspan x="85.7641" y="1">r</tspan><tspan font-size="28" x="103.764" y="11">k+1</tspan></text><path d="M427 457.5C427 448.94 433.94 442 442.5 442 451.06 442 458 448.94 458 457.5 458 466.06 451.06 473 442.5 473 433.94 473 427 466.06 427 457.5Z" fill="#FF0000" fill-rule="evenodd"/><path d="M821 456.5C821 447.94 827.94 441 836.5 441 845.06 441 852 447.94 852 456.5 852 465.06 845.06 472 836.5 472 827.94 472 821 465.06 821 456.5Z" fill="#FF0000" fill-rule="evenodd"/><text font-family="CMU Classical Serif,CMU Classical Serif_MSFontService,sans-serif" font-style="italic" font-weight="500" font-size="43" transform="translate(819.079 522)">l<tspan font-size="28" x="10.8334" y="10">k+1</tspan><tspan x="85.7641" y="1">r</tspan><tspan font-size="28" x="103.764" y="11">k+1</tspan></text><path d="M695.761 160.561 697.386 156.561 697.344 156.688 697.844 154.75 697.821 154.868 698.071 152.993 698.068 153.228 697.88 151.415 697.94 151.667 697.252 149.855 697.387 150.1 696.075 148.35 696.218 148.504 694.829 147.294 696.143 145.786 697.612 147.065 699.072 149.013 699.856 151.08 700.069 153.14 699.796 155.192 699.264 157.252 697.614 161.314ZM689.911 144.451 688.153 143.663 688.227 143.692 683.664 142.067 683.72 142.085 678.157 140.46 678.214 140.475 674.866 139.707 675.313 137.757 678.69 138.532 684.308 140.173 688.935 141.821 690.73 142.626ZM669.029 138.431 663.426 137.292 663.459 137.299 654.147 135.736 654.169 135.74 653.338 135.62 653.625 133.64 654.467 133.762 663.807 135.329 669.427 136.471ZM647.399 134.758 643.415 134.177 637.211 133.237 631.57 132.22 631.924 130.252 637.552 131.266 637.525 131.261 643.712 132.199 643.707 132.198 647.688 132.779ZM625.662 131.05 622.549 130.417 614.102 128.665 609.988 127.751 610.422 125.799 614.529 126.711 614.516 126.708 622.953 128.458 622.949 128.458 626.061 129.09ZM604.132 126.451 595.468 124.538 588.513 122.95 588.958 121 595.91 122.588 595.903 122.586 604.563 124.498ZM582.664 121.623 574.781 119.851 567.056 118.095 567.499 116.145 575.219 117.899 583.103 119.672ZM561.205 116.767 552.467 114.788 552.477 114.79 545.595 113.308 546.016 111.352 552.903 112.836 561.647 114.817ZM539.73 112.044 528.977 109.728 528.99 109.73 524.088 108.742 524.483 106.782 529.392 107.771 540.151 110.089ZM518.206 107.557 504.802 104.855 504.819 104.859 502.531 104.438 502.892 102.471 505.189 102.893 518.601 105.596ZM496.63 103.354 480.893 100.464 481.254 98.4968 496.991 101.387ZM474.994 99.5376 459.181 97.0985 459.486 95.1219 475.299 97.5609ZM453.274 96.2926 437.381 94.4426 437.612 92.4561 453.505 94.306ZM431.447 93.7818 420.976 92.8712 421.006 92.8734 415.526 92.5655 415.638 90.5687 421.134 90.8774 431.621 91.7893ZM409.568 92.2417 399.164 91.9997 399.206 91.9998 393.613 92.1015 393.577 90.1019 399.19 89.9998 409.614 90.2422ZM387.655 92.2591 379.12 92.7484 379.169 92.7443 371.761 93.5398 371.548 91.5512 378.98 90.7531 387.54 90.2624ZM365.909 94.4621 361.303 95.2965 361.368 95.2826 353.368 97.2826 353.463 97.2537 350.57 98.292 349.895 96.4096 352.834 95.3545 360.914 93.3344 365.552 92.4941ZM345.082 100.409 339.753 103.023 339.869 102.956 334.182 106.768 334.313 106.663 331.977 108.876 330.602 107.424 332.998 105.154 338.812 101.257 344.202 98.6137ZM328.117 113.19 325.747 116.462 325.839 116.309 322.589 123.059 322.64 122.93 321.278 127.186 319.373 126.577 320.756 122.254 324.075 115.361 326.497 112.017ZM319.685 132.864 318.227 139.587 318.242 139.501 317.097 148.549 315.112 148.298 316.263 139.206 317.73 132.44ZM316.638 154.474 316.248 160.07 316.25 160.016 316.08 170.406 314.081 170.373 314.251 159.957 314.643 154.335ZM316.187 176.363 316.375 183.724 316.374 183.696 316.836 192.32 314.839 192.427 314.376 183.79 314.188 176.414ZM317.22 198.271 318.246 209.723 318.244 209.704 318.732 214.179 316.744 214.396 316.255 209.911 315.228 198.449ZM319.383 220.144 319.744 223.454 319.741 223.43 321.423 235.988 319.441 236.253 317.757 223.683 317.395 220.361ZM322.319 241.897 324.803 257.703 322.828 258.014 320.343 242.208ZM325.735 263.63 326.113 266.032 326.108 266.002 328.629 279.334 326.664 279.705 324.14 266.358 323.76 263.941ZM329.744 285.229 331.545 294.752 331.541 294.731 332.841 300.905 330.884 301.317 329.582 295.133 327.779 285.601ZM334.078 306.776 337.376 322.432 335.419 322.845 332.121 307.188ZM338.682 328.274 340.538 336.531 340.537 336.524 342.242 343.866 340.294 344.319 338.588 336.973 336.731 328.713ZM343.599 349.709 343.599 349.71 343.597 349.703 346.66 362.39 346.657 362.379 347.382 365.236 345.444 365.728 344.717 362.865 341.652 350.169 341.651 350.164ZM348.859 371.051 349.719 374.441 352.594 385.754 352.593 385.748 352.802 386.551 350.866 387.055 350.657 386.249 347.781 374.934 346.92 371.543ZM354.314 392.358 355.343 396.311 355.34 396.299 357.965 405.924 358.476 407.794 356.547 408.322 356.035 406.451 353.409 396.82 352.378 392.862ZM360.058 413.582 360.34 414.611 360.338 414.604 362.463 422.167 364.276 428.606 364.38 428.983 362.453 429.517 362.349 429.142 362.35 429.146 360.537 422.708 358.411 415.142 358.129 414.109ZM365.997 434.739 366.836 437.537 367.193 438.845 365.264 439.371 364.91 438.076 364.917 438.1 364.081 435.314ZM369.301 430.314 366.814 441.004 358.733 433.577C358.326 433.203 358.299 432.571 358.673 432.164 359.047 431.758 359.679 431.731 360.086 432.105L366.905 438.372 365.254 438.882 367.353 429.861C367.478 429.323 368.016 428.988 368.554 429.113 369.092 429.239 369.426 429.776 369.301 430.314Z" fill="#FF0000"/><path d="M384.761 69.8736 386.386 65.8736 386.344 66.0001 386.844 64.0626 386.821 64.1803 387.071 62.3053 387.068 62.5404 386.88 60.7279 386.94 60.9797 386.252 59.1672 386.387 59.4125 385.075 57.6625 385.218 57.8166 383.829 56.6069 385.143 55.0988 386.612 56.3779 388.072 58.3256 388.856 60.3923 389.069 62.4523 388.796 64.5042 388.264 66.5645 386.614 70.6264ZM378.91 53.7154 377.197 52.9037 377.289 52.942 372.727 51.317 372.795 51.3385 367.17 49.776 367.203 49.7847 363.876 48.9836 364.344 47.0392 367.688 47.8443 373.364 49.421 378.008 51.0748 379.767 51.9079ZM358.062 47.6936 352.496 46.6065 352.516 46.6101 343.203 44.9851 343.232 44.9897 342.365 44.8644 342.652 42.885 343.533 43.0124 352.869 44.6416 358.445 45.7307ZM336.426 44.0033 332.477 43.4265 326.336 42.4865 320.599 41.4528 320.953 39.4845 326.677 40.5158 326.651 40.5115 332.776 41.449 332.77 41.448 336.715 42.0243ZM314.692 40.2805 311.672 39.6668 303.35 37.9147 299.023 36.9465 299.46 34.9948 303.781 35.9616 303.768 35.959 312.081 37.709 312.074 37.7075 315.09 38.3205ZM293.168 35.6364 284.904 33.7877 277.558 32.0996 278.006 30.1504 285.349 31.8379 285.343 31.8366 293.605 33.6846ZM271.71 30.7439 264.398 29.0363 264.401 29.0371 256.126 27.1347 256.574 25.1855 264.851 27.0883 272.164 28.7963ZM250.279 25.7974 242.278 23.975 242.285 23.9766 234.673 22.2987 235.104 20.3456 242.719 22.0242 250.723 23.8474ZM228.814 21.0071 219.035 18.8516 219.048 18.8545 213.185 17.6482 213.588 15.6892 219.458 16.8969 229.244 19.054ZM207.308 16.4392 195.048 13.917 195.07 13.9212 191.643 13.2941 192.003 11.3268 195.441 11.9558 207.711 14.4802ZM185.741 12.2141 170.82 9.48367 170.844 9.4878 170.023 9.35843 170.335 7.38282 171.168 7.51411 186.101 10.2468ZM164.097 8.42423 148.292 5.93302 148.603 3.95741 164.408 6.44862ZM142.38 5.1655 126.493 3.26914 126.73 1.28324 142.617 3.17959ZM120.572 2.69195 104.61 1.58656 104.749-0.408661 120.71 0.696725ZM98.6663 1.26577 89.9142 1.06223 89.9495 1.06243 82.7045 1.14972 82.6804-0.850137 89.9431-0.93764 98.7128-0.733694ZM76.7542 1.34909 69.7444 1.74838 69.8001 1.74364 60.8784 2.75477 60.6532 0.76749 69.6027-0.24679 76.6404-0.647674ZM55.0284 3.76499 51.6746 4.35964 51.746 4.34426 43.621 6.40676 43.7123 6.37889 39.748 7.79944 39.0733 5.91667 43.0826 4.48 51.2894 2.39674 54.6792 1.79571ZM34.2794 9.9933 29.6178 12.2152 29.734 12.1499 23.7965 16.0249 23.9195 15.9303 21.1369 18.4381 19.798 16.9524 22.6383 14.3926 28.6969 10.4385 33.4189 8.18789ZM17.1661 22.6733 14.6619 25.867 14.7578 25.7197 11.1328 32.5322 11.183 32.4225 9.66222 36.364 7.79629 35.644 9.3388 31.6461 13.0336 24.7024 15.5922 21.4393ZM7.7039 41.9186 5.71523 49.2614 5.73287 49.1843 4.1862 57.4332 2.22046 57.0646 3.77442 48.7768 5.77345 41.3958ZM3.31358 63.3131 2.42888 70.006 2.43468 69.9501 1.7405 79.1728-0.253862 79.0227 0.442434 69.7719 1.33083 63.051ZM1.435 85.124 1.12438 93.9103 1.12499 93.8798 1.09017 101.088-0.90981 101.078-0.874915 93.8549-0.563748 85.0533ZM1.06852 107.06 1.37473 120.227 1.37377 120.201 1.5138 123.026-0.48375 123.125-0.624424 120.286-0.93094 107.106ZM1.81073 129.019 2.06127 134.076 2.06003 134.055 2.82903 144.965 0.833984 145.106 0.0642414 134.185-0.186818 129.118ZM3.32042 150.918 4.8682 166.843 2.87758 167.036 1.3298 151.111ZM5.44862 172.815 5.87031 177.153 5.86731 177.126 7.30812 188.678 5.3235 188.925 3.88101 177.36 3.458 173.008ZM8.05075 194.631 9.49231 206.189 9.48938 206.167 10.1222 210.474 8.14343 210.765 7.50904 206.447 6.06613 194.879ZM10.9944 216.41 13.3203 232.24 11.3416 232.531 9.01565 216.701ZM14.2472 238.152 15.9244 248.401 15.9229 248.392 16.8794 253.924 14.9086 254.265 13.9514 248.728 12.2734 238.475ZM17.9016 259.837 18.2354 261.767 18.2341 261.76 20.5466 274.572 20.5459 274.568 20.7313 275.573 18.7645 275.936 18.5788 274.93 16.2652 262.111 15.9308 260.177ZM21.8206 281.473 22.7959 286.756 22.7947 286.75 24.7912 297.188 22.8268 297.564 20.8297 287.122 19.8538 281.836ZM25.9526 303.067 27.1058 308.867 27.1046 308.862 29.1046 318.612 29.1031 318.604 29.1309 318.735 27.1746 319.151 27.1461 319.017 25.1448 309.26 23.991 303.457ZM30.3795 324.603 30.9781 327.417 32.603 335.042 32.6014 335.034 33.7518 340.236 31.799 340.668 30.6478 335.462 29.0219 327.833 28.4233 325.02ZM35.0682 346.085 35.2254 346.779 36.0997 350.589 36.387 351.853 34.4368 352.297 34.1503 351.036 33.2746 347.221 33.1175 346.526ZM39.0358 343.493 35.8761 354.004 28.2817 346.08C27.8995 345.681 27.913 345.048 28.3117 344.666 28.7105 344.284 29.3435 344.298 29.7256 344.696L36.1339 351.383 34.4542 351.787 37.1204 342.917C37.2794 342.389 37.8371 342.089 38.366 342.248 38.8949 342.407 39.1948 342.964 39.0358 343.493Z" fill="#FF0000" transform="matrix(-1 -8.74228e-08 -8.74228e-08 1 955 88)"/><text font-family="CMU Serif,CMU Serif_MSFontService,sans-serif" font-style="italic" font-weight="500" font-size="24" transform="translate(53.3583 173)">k iteration<tspan x="-0.348343" y="174">k</tspan><tspan x="10.6517" y="174">+1 iteration</tspan></text></g></svg>