<svg width="1319" height="780" xmlns="http://www.w3.org/2000/svg" xmlns:xlink="http://www.w3.org/1999/xlink" overflow="hidden"><defs><clipPath id="clip0"><path d="M-28-17 1291-17 1291 763-28 763Z" fill-rule="evenodd" clip-rule="evenodd"/></clipPath></defs><g clip-path="url(#clip0)" transform="translate(28 17)"><path d="M2-3.52606e-07 2.0001 591.532-1.9999 591.532-2 3.52606e-07ZM8.72766 580.539 0.0001047 595.5-8.72746 580.539C-9.28402 579.585-8.96174 578.36-8.00764 577.804-7.05354 577.247-5.8289 577.569-5.27234 578.523L1.72766 590.523-1.72745 590.523 5.27254 578.523C5.8291 577.569 7.05374 577.247 8.00784 577.804 8.96195 578.36 9.28422 579.585 8.72766 580.539Z" fill="#5B9BD5" transform="matrix(1 0 0 -1 109 682.491)"/><path d="M1.72762e-07-2 1211.43-1.9999 1211.43 2.0001-1.72762e-07 2ZM1200.44-8.72745 1215.4 0.000105056 1200.44 8.72766C1199.48 9.28422 1198.26 8.96195 1197.7 8.00784 1197.15 7.05374 1197.47 5.82911 1198.42 5.27254L1210.42-1.72745 1210.42 1.72766 1198.42-5.27234C1197.47-5.8289 1197.15-7.05353 1197.7-8.00764 1198.26-8.96174 1199.48-9.28401 1200.44-8.72745Z" fill="#5B9BD5" transform="matrix(1 0 0 -1 24 621)"/><text font-family="CMU Classical Serif,CMU Classical Serif_MSFontService,sans-serif" font-style="italic" font-weight="500" font-size="80" transform="translate(1204.95 686)">x<tspan x="-1184.37" y="-610">f(x)</tspan></text><path d="M990.901 400.451C859.523 565.741 590.767 611.781 390.618 503.284 337.331 474.398 292.413 436.163 259.064 391.303" stroke="#5B9BD5" stroke-width="4" stroke-miterlimit="8" fill="none" fill-rule="evenodd"/><text font-family="Cambria Math,Cambria Math_MSFontService,sans-serif" font-weight="400" font-size="32" transform="translate(727.894 191)">𝑓</text><path d="M9.125-21.0625 10.3438-20.5313C9.94792-19.7604 9.57031-19.1693 9.21094-18.7578 8.85156-18.3464 8.50781-18.0625 8.17969-17.9063 7.85156-17.75 7.47917-17.6719 7.0625-17.6719 6.78125-17.6719 6.53646-17.6927 6.32813-17.7344 6.11979-17.776 5.91406-17.8359 5.71094-17.9141 5.50781-17.9922 5.19271-18.1406 4.76563-18.3594 4.48438-18.4948 4.26302-18.6016 4.10156-18.6797 3.9401-18.7578 3.77083-18.8203 3.59375-18.8672 3.41667-18.9141 3.22917-18.9375 3.03125-18.9375 2.76042-18.9375 2.53385-18.8984 2.35156-18.8203 2.16927-18.7422 1.98438-18.6094 1.79688-18.4219 1.60938-18.2344 1.41146-17.9688 1.20313-17.625L0-18.1406C0.5-19.0156 0.90625-19.6224 1.21875-19.9609 1.53125-20.2995 1.85156-20.5443 2.17969-20.6953 2.50781-20.8464 2.90104-20.9219 3.35938-20.9219 3.60938-20.9219 3.83594-20.901 4.03906-20.8594 4.24219-20.8177 4.42969-20.763 4.60156-20.6953 4.77344-20.6276 5.06771-20.4896 5.48438-20.2813 5.78646-20.1354 6.02604-20.0182 6.20313-19.9297 6.38021-19.8411 6.5625-19.7734 6.75-19.7266 6.9375-19.6797 7.15104-19.6563 7.39063-19.6563 7.72396-19.6563 8.02083-19.7552 8.28125-19.9531 8.54167-20.151 8.82292-20.5208 9.125-21.0625Z" transform="translate(735.847 183)"/><path d="M793.663 166.693C796.705 167.495 799.041 169.227 800.671 171.888 802.301 174.55 803.116 177.761 803.116 181.521 803.116 185.292 802.304 188.503 800.679 191.154 799.054 193.805 796.715 195.531 793.663 196.333L793.288 195.13C795.694 194.328 797.483 192.745 798.655 190.38 799.827 188.016 800.413 185.011 800.413 181.365 800.413 177.844 799.83 174.919 798.663 172.591 797.496 170.263 795.689 168.698 793.241 167.896ZM758.766 166.693 759.188 167.896C756.751 168.698 754.946 170.263 753.774 172.591 752.602 174.919 752.016 177.844 752.016 181.365 752.016 185.011 752.602 188.016 753.774 190.38 754.946 192.745 756.735 194.328 759.141 195.13L758.766 196.333C755.714 195.531 753.376 193.805 751.751 191.154 750.126 188.503 749.313 185.292 749.313 181.521 749.313 177.761 750.128 174.55 751.759 171.888 753.389 169.227 755.725 167.495 758.766 166.693Z" fill-rule="evenodd"/><text font-family="Cambria Math,Cambria Math_MSFontService,sans-serif" font-weight="400" font-size="32" transform="translate(759.781 191)">𝑥<tspan font-size="23" x="16.6866" y="6">𝑘</tspan><tspan font-family="Open Sans,Open Sans_MSFontService,sans-serif" font-style="italic" x="226.984" y="-88">f(x)</tspan></text><path d="M725.602 207.383C702.576 402.22 570.144 534.251 429.807 502.282 336.782 481.091 259.532 391.02 228.424 267.473" stroke="#70AD47" stroke-width="6" stroke-miterlimit="8" fill="none" fill-rule="evenodd"/><path d="M161 127.975C197.091 228.291 233.181 328.608 276.776 392.724 320.37 456.841 363.536 485.543 422.567 512.675 481.599 539.807 566.787 559.37 630.964 555.515 695.141 551.659 760.032 521.672 807.629 489.542 855.226 457.412 889.815 432.993 916.544 362.737 943.273 292.48 955.636 180.24 968 68" stroke="#ED7D31" stroke-width="6" stroke-miterlimit="8" fill="none" fill-rule="evenodd"/><rect x="279" y="613" width="81" height="106" fill="#FFFFFF" fill-opacity="0.278431"/><text font-family="CMU Classical Serif,CMU Classical Serif_MSFontService,sans-serif" font-style="italic" font-weight="500" font-size="80" transform="translate(288.277 685)">x<tspan font-size="53" x="37" y="19">k</tspan></text><path d="M304.5 441C304.5 432.44 311.44 425.5 320 425.5 328.56 425.5 335.5 432.44 335.5 441 335.5 449.56 328.56 456.5 320 456.5 311.44 456.5 304.5 449.56 304.5 441Z" stroke="#41719C" stroke-miterlimit="8" fill="#FF0000" fill-rule="evenodd"/><path d="M456.5 531C456.5 522.44 463.44 515.5 472 515.5 480.56 515.5 487.5 522.44 487.5 531 487.5 539.56 480.56 546.5 472 546.5 463.44 546.5 456.5 539.56 456.5 531Z" stroke="#41719C" stroke-miterlimit="8" fill="#FF0000" fill-rule="evenodd"/><rect x="430" y="613" width="151" height="106" fill="#FFFFFF" fill-opacity="0.278431"/><text font-family="CMU Classical Serif,CMU Classical Serif_MSFontService,sans-serif" font-style="italic" font-weight="500" font-size="80" transform="translate(440.05 685)">x<tspan font-size="53" x="37" y="19">k+1</tspan></text><path d="M0 0 0.857113 90.6169" stroke="#5B9BD5" stroke-width="6" stroke-miterlimit="8" stroke-dasharray="6 6" fill="none" fill-rule="evenodd" transform="matrix(-1 -8.74228e-08 -8.74228e-08 1 470.857 532)"/><path d="M319 451 319 612.8" stroke="#5B9BD5" stroke-width="6" stroke-miterlimit="8" stroke-dasharray="6 6" fill="none" fill-rule="evenodd"/><rect x="581" y="613" width="151" height="106" fill="#FFFFFF" fill-opacity="0.278431"/><text font-family="CMU Classical Serif,CMU Classical Serif_MSFontService,sans-serif" font-style="italic" font-weight="500" font-size="80" transform="translate(590.965 685)">x<tspan font-size="53" x="37" y="19">k</tspan><tspan font-size="53" x="61.5" y="19">+2</tspan></text><path d="M614.5 562C614.5 553.44 621.44 546.5 630 546.5 638.56 546.5 645.5 553.44 645.5 562 645.5 570.56 638.56 577.5 630 577.5 621.44 577.5 614.5 570.56 614.5 562Z" stroke="#41719C" stroke-miterlimit="8" fill="#FF0000" fill-rule="evenodd"/><path d="M630 563 630 621.882" stroke="#5B9BD5" stroke-width="6" stroke-miterlimit="8" stroke-dasharray="6 6" fill="none" fill-rule="evenodd"/><text font-family="Cambria Math,Cambria Math_MSFontService,sans-serif" font-weight="400" font-size="32" transform="translate(1007.85 412)">𝑓</text><path d="M9.125-21.0625 10.3438-20.5313C9.94792-19.7604 9.57031-19.1693 9.21094-18.7578 8.85156-18.3464 8.50781-18.0625 8.17969-17.9063 7.85156-17.75 7.47917-17.6719 7.0625-17.6719 6.78125-17.6719 6.53646-17.6927 6.32813-17.7344 6.11979-17.776 5.91406-17.8359 5.71094-17.9141 5.50781-17.9922 5.19271-18.1406 4.76563-18.3594 4.48438-18.4948 4.26302-18.6016 4.10156-18.6797 3.9401-18.7578 3.77083-18.8203 3.59375-18.8672 3.41667-18.9141 3.22917-18.9375 3.03125-18.9375 2.76042-18.9375 2.53385-18.8984 2.35156-18.8203 2.16927-18.7422 1.98438-18.6094 1.79688-18.4219 1.60938-18.2344 1.41146-17.9688 1.20313-17.625L0-18.1406C0.5-19.0156 0.90625-19.6224 1.21875-19.9609 1.53125-20.2995 1.85156-20.5443 2.17969-20.6953 2.50781-20.8464 2.90104-20.9219 3.35938-20.9219 3.60938-20.9219 3.83594-20.901 4.03906-20.8594 4.24219-20.8177 4.42969-20.763 4.60156-20.6953 4.77344-20.6276 5.06771-20.4896 5.48438-20.2813 5.78646-20.1354 6.02604-20.0182 6.20313-19.9297 6.38021-19.8411 6.5625-19.7734 6.75-19.7266 6.9375-19.6797 7.15104-19.6563 7.39063-19.6563 7.72396-19.6563 8.02083-19.7552 8.28125-19.9531 8.54167-20.151 8.82292-20.5208 9.125-21.0625Z" transform="translate(1015.8 405)"/><path d="M1104.12 388.096C1107.16 388.899 1109.5 390.63 1111.13 393.292 1112.76 395.953 1113.57 399.164 1113.57 402.925 1113.57 406.695 1112.76 409.906 1111.13 412.557 1109.51 415.208 1107.17 416.935 1104.12 417.737L1103.74 416.534C1106.15 415.732 1107.94 414.149 1109.11 411.784 1110.28 409.419 1110.87 406.414 1110.87 402.768 1110.87 399.247 1110.28 396.323 1109.12 393.995 1107.95 391.667 1106.14 390.102 1103.7 389.3ZM1038.72 388.096 1039.14 389.3C1036.71 390.102 1034.9 391.667 1033.73 393.995 1032.56 396.323 1031.97 399.247 1031.97 402.768 1031.97 406.414 1032.56 409.419 1033.73 411.784 1034.9 414.149 1036.69 415.732 1039.1 416.534L1038.72 417.737C1035.67 416.935 1033.33 415.208 1031.71 412.557 1030.08 409.906 1029.27 406.695 1029.27 402.925 1029.27 399.164 1030.08 395.953 1031.71 393.292 1033.34 390.63 1035.68 388.899 1038.72 388.096Z" fill-rule="evenodd"/><text font-family="Cambria Math,Cambria Math_MSFontService,sans-serif" font-weight="400" font-size="32" transform="translate(1039.74 412)">𝑥<tspan font-size="23" x="16.6866" y="7">𝑘</tspan><tspan font-size="23" x="31.54" y="7">+</tspan><tspan font-size="23" x="48.54" y="7">1</tspan></text></g></svg>