<?xml version="1.0" encoding="UTF-8" standalone="no"?>
<!-- Created with Inkscape (http://www.inkscape.org/) -->

<svg
   xmlns:dc="http://purl.org/dc/elements/1.1/"
   xmlns:cc="http://creativecommons.org/ns#"
   xmlns:rdf="http://www.w3.org/1999/02/22-rdf-syntax-ns#"
   xmlns:svg="http://www.w3.org/2000/svg"
   xmlns="http://www.w3.org/2000/svg"
   xmlns:sodipodi="http://sodipodi.sourceforge.net/DTD/sodipodi-0.dtd"
   xmlns:inkscape="http://www.inkscape.org/namespaces/inkscape"
   width="191.98166mm"
   height="52.466873mm"
   viewBox="0 0 191.98166 52.466873"
   version="1.1"
   id="svg8"
   inkscape:version="0.92.4 (5da689c313, 2019-01-14)"
   sodipodi:docname="discord.svg">
  <defs
     id="defs2" />
  <sodipodi:namedview
     id="base"
     pagecolor="#ffffff"
     bordercolor="#666666"
     borderopacity="1.0"
     inkscape:pageopacity="0.0"
     inkscape:pageshadow="2"
     inkscape:zoom="1.4"
     inkscape:cx="463.92414"
     inkscape:cy="89.864977"
     inkscape:document-units="mm"
     inkscape:current-layer="layer1"
     showgrid="false"
     inkscape:window-width="1852"
     inkscape:window-height="1057"
     inkscape:window-x="-8"
     inkscape:window-y="-8"
     inkscape:window-maximized="1" />
  <metadata
     id="metadata5">
    <rdf:RDF>
      <cc:Work
         rdf:about="">
        <dc:format>image/svg+xml</dc:format>
        <dc:type
           rdf:resource="http://purl.org/dc/dcmitype/StillImage" />
        <dc:title></dc:title>
      </cc:Work>
    </rdf:RDF>
  </metadata>
  <g
     inkscape:label="Layer 1"
     inkscape:groupmode="layer"
     id="layer1"
     transform="translate(346.21108,-170.22489)">
    <g
       id="g829"
       transform="matrix(0.26458333,0,0,0.26458333,-355.9742,160.46177)">
      <path
         id="path815"
         d="m 142.8,120.1 c -5.7,0 -10.2,4.9 -10.2,11 0,6.1 4.6,11 10.2,11 5.7,0 10.2,-4.9 10.2,-11 0,-6.1 -4.6,-11 -10.2,-11 z m -36.5,0 c -5.7,0 -10.2,4.9 -10.2,11 0,6.1 4.6,11 10.2,11 5.7,0 10.2,-4.9 10.2,-11 0.1,-6.1 -4.5,-11 -10.2,-11 z"
         inkscape:connector-curvature="0" />
      <path
         id="path817"
         d="m 191.4,36.9 h -134 c -11.3,0 -20.5,9.2 -20.5,20.5 v 134 c 0,11.3 9.2,20.5 20.5,20.5 h 113.4 l -5.3,-18.3 12.8,11.8 12.1,11.1 21.6,18.7 V 57.4 C 211.9,46.1 202.7,36.9 191.4,36.9 Z m -38.6,129.5 c 0,0 -3.6,-4.3 -6.6,-8 13.1,-3.7 18.1,-11.8 18.1,-11.8 -4.1,2.7 -8,4.6 -11.5,5.9 -5,2.1 -9.8,3.4 -14.5,4.3 -9.6,1.8 -18.4,1.3 -25.9,-0.1 -5.7,-1.1 -10.6,-2.6 -14.7,-4.3 -2.3,-0.9 -4.8,-2 -7.3,-3.4 -0.3,-0.2 -0.6,-0.3 -0.9,-0.5 -0.2,-0.1 -0.3,-0.2 -0.4,-0.2 -1.8,-1 -2.8,-1.7 -2.8,-1.7 0,0 4.8,7.9 17.5,11.7 -3,3.8 -6.7,8.2 -6.7,8.2 C 75,165.8 66.6,151.4 66.6,151.4 66.6,119.5 81,93.6 81,93.6 95.4,82.9 109,83.2 109,83.2 l 1,1.2 c -18,5.1 -26.2,13 -26.2,13 0,0 2.2,-1.2 5.9,-2.8 10.7,-4.7 19.2,-5.9 22.7,-6.3 0.6,-0.1 1.1,-0.2 1.7,-0.2 6.1,-0.8 13,-1 20.2,-0.2 9.5,1.1 19.7,3.9 30.1,9.5 0,0 -7.9,-7.5 -24.9,-12.6 l 1.4,-1.6 c 0,0 13.7,-0.3 28,10.4 0,0 14.4,25.9 14.4,57.8 0,-0.1 -8.4,14.3 -30.5,15 z m 151,-86.7 H 270.6 V 117 l 22.1,19.9 v -36.2 h 11.8 c 7.5,0 11.2,3.6 11.2,9.4 v 27.7 c 0,5.8 -3.5,9.7 -11.2,9.7 h -34 v 21.1 h 33.2 c 17.8,0.1 34.5,-8.8 34.5,-29.2 V 109.6 C 338.3,88.8 321.6,79.7 303.8,79.7 Z m 174,59.7 v -30.6 c 0,-11 19.8,-13.5 25.8,-2.5 l 18.3,-7.4 c -7.2,-15.8 -20.3,-20.4 -31.2,-20.4 -17.8,0 -35.4,10.3 -35.4,30.3 v 30.6 c 0,20.2 17.6,30.3 35,30.3 11.2,0 24.6,-5.5 32,-19.9 l -19.6,-9 c -4.8,12.3 -24.9,9.3 -24.9,-1.4 z M 417.3,113 c -6.9,-1.5 -11.5,-4 -11.8,-8.3 0.4,-10.3 16.3,-10.7 25.6,-0.8 l 14.7,-11.3 c -9.2,-11.2 -19.6,-14.2 -30.3,-14.2 -16.3,0 -32.1,9.2 -32.1,26.6 0,16.9 13,26 27.3,28.2 7.3,1 15.4,3.9 15.2,8.9 -0.6,9.5 -20.2,9 -29.1,-1.8 l -14.2,13.3 c 8.3,10.7 19.6,16.1 30.2,16.1 16.3,0 34.4,-9.4 35.1,-26.6 1,-21.7 -14.8,-27.2 -30.6,-30.1 z m -67,55.5 h 22.4 V 79.7 H 350.3 Z M 728,79.7 H 694.8 V 117 l 22.1,19.9 v -36.2 h 11.8 c 7.5,0 11.2,3.6 11.2,9.4 v 27.7 c 0,5.8 -3.5,9.7 -11.2,9.7 h -34 v 21.1 H 728 c 17.8,0.1 34.5,-8.8 34.5,-29.2 V 109.6 C 762.5,88.8 745.8,79.7 728,79.7 Z M 565.1,78.5 c -18.4,0 -36.7,10 -36.7,30.5 v 30.3 c 0,20.3 18.4,30.5 36.9,30.5 18.4,0 36.7,-10.2 36.7,-30.5 V 109 C 602,88.6 583.5,78.5 565.1,78.5 Z m 14.4,60.8 c 0,6.4 -7.2,9.7 -14.3,9.7 -7.2,0 -14.4,-3.1 -14.4,-9.7 V 109 c 0,-6.5 7,-10 14,-10 7.3,0 14.7,3.1 14.7,10 z M 682.4,109 c -0.5,-20.8 -14.7,-29.2 -33,-29.2 h -35.5 v 88.8 h 22.7 v -28.2 h 4 l 20.6,28.2 h 28 L 665,138.1 c 10.7,-3.4 17.4,-12.7 17.4,-29.1 z m -32.6,12 h -13.2 v -20.3 h 13.2 c 14.1,0 14.1,20.3 0,20.3 z"
         inkscape:connector-curvature="0" />
    </g>
    <text
       xml:space="preserve"
       style="font-style:normal;font-weight:normal;font-size:19.7555542px;line-height:6.25;font-family:sans-serif;letter-spacing:0px;word-spacing:0px;fill:#000000;fill-opacity:1;stroke:none;stroke-width:0.26458332"
       x="-257.07669"
       y="173.38054"
       id="text833"><tspan
         sodipodi:role="line"
         id="tspan831"
         x="-257.07669"
         y="240.79301"
         style="font-style:normal;font-variant:normal;font-weight:normal;font-stretch:normal;font-family:'Microsoft JhengHei';-inkscape-font-specification:'Microsoft JhengHei';stroke-width:0.26458332" /></text>
    <text
       xml:space="preserve"
       style="font-style:normal;font-weight:normal;font-size:19.12075996px;line-height:6.25;font-family:sans-serif;letter-spacing:0px;word-spacing:0px;fill:#000000;fill-opacity:1;stroke:none;stroke-width:0.25608161"
       x="-277.41849"
       y="178.36775"
       id="text837"><tspan
         sodipodi:role="line"
         id="tspan835"
         x="-277.41849"
         y="178.36775"
         style="font-style:normal;font-variant:normal;font-weight:normal;font-stretch:normal;font-size:9.56038094px;font-family:'Lucida Sans Typewriter';-inkscape-font-specification:'Lucida Sans Typewriter';stroke-width:0.25608161">Join the discussion</tspan></text>
  </g>
</svg>
