<svg width="1922" height="542" xmlns="http://www.w3.org/2000/svg" xmlns:xlink="http://www.w3.org/1999/xlink" overflow="hidden"><defs><clipPath id="clip0"><rect x="-1" y="-1" width="1922" height="542"/></clipPath><linearGradient x1="270.5" y1="0" x2="270.5" y2="540" gradientUnits="userSpaceOnUse" spreadMethod="reflect" id="fill1"><stop offset="0" stop-color="#4672C4"/><stop offset="0.0060241" stop-color="#4772C3"/><stop offset="0.0120482" stop-color="#4972C3"/><stop offset="0.0180723" stop-color="#4B72C3"/><stop offset="0.0240964" stop-color="#4D72C3"/><stop offset="0.0301205" stop-color="#4F72C3"/><stop offset="0.0361446" stop-color="#5172C3"/><stop offset="0.0421687" stop-color="#5272C3"/><stop offset="0.0481928" stop-color="#5472C3"/><stop offset="0.0542169" stop-color="#5673C3"/><stop offset="0.060241" stop-color="#5873C3"/><stop offset="0.0662651" stop-color="#5A73C3"/><stop offset="0.0722892" stop-color="#5B73C2"/><stop offset="0.0783133" stop-color="#5D73C2"/><stop offset="0.0843373" stop-color="#5F73C2"/><stop offset="0.0903614" stop-color="#6173C2"/><stop offset="0.0963855" stop-color="#6273C2"/><stop offset="0.10241" stop-color="#6474C1"/><stop offset="0.108434" stop-color="#6674C1"/><stop offset="0.114458" stop-color="#6874C1"/><stop offset="0.120482" stop-color="#6974C1"/><stop offset="0.126506" stop-color="#6B74C0"/><stop offset="0.13253" stop-color="#6D74C0"/><stop offset="0.138554" stop-color="#6E74C0"/><stop offset="0.144578" stop-color="#7074C0"/><stop offset="0.150602" stop-color="#7274BF"/><stop offset="0.156627" stop-color="#7375BF"/><stop offset="0.162651" stop-color="#7575BF"/><stop offset="0.168675" stop-color="#7675BE"/><stop offset="0.174699" stop-color="#7875BE"/><stop offset="0.180723" stop-color="#7A75BE"/><stop offset="0.186747" stop-color="#7B75BD"/><stop offset="0.192771" stop-color="#7D75BD"/><stop offset="0.198795" stop-color="#7E75BC"/><stop offset="0.204819" stop-color="#8075BC"/><stop offset="0.210843" stop-color="#8175BC"/><stop offset="0.216867" stop-color="#8376BB"/><stop offset="0.222892" stop-color="#8476BB"/><stop offset="0.228916" stop-color="#8676BA"/><stop offset="0.23494" stop-color="#8776BA"/><stop offset="0.240964" stop-color="#8976B9"/><stop offset="0.246988" stop-color="#8A76B9"/><stop offset="0.253012" stop-color="#8C76B8"/><stop offset="0.259036" stop-color="#8D76B8"/><stop offset="0.26506" stop-color="#8F76B7"/><stop offset="0.271084" stop-color="#9076B7"/><stop offset="0.277108" stop-color="#9277B6"/><stop offset="0.283133" stop-color="#9377B6"/><stop offset="0.289157" stop-color="#9477B5"/><stop offset="0.295181" stop-color="#9677B5"/><stop offset="0.301205" stop-color="#9777B4"/><stop offset="0.307229" stop-color="#9977B4"/><stop offset="0.313253" stop-color="#9A77B3"/><stop offset="0.319277" stop-color="#9B77B2"/><stop offset="0.325301" stop-color="#9D77B2"/><stop offset="0.331325" stop-color="#9E77B1"/><stop offset="0.337349" stop-color="#9F77B0"/><stop offset="0.343374" stop-color="#A178B0"/><stop offset="0.349398" stop-color="#A278AF"/><stop offset="0.355422" stop-color="#A378AF"/><stop offset="0.361446" stop-color="#A478AE"/><stop offset="0.36747" stop-color="#A678AD"/><stop offset="0.373494" stop-color="#A778AC"/><stop offset="0.379518" stop-color="#A878AC"/><stop offset="0.385542" stop-color="#A978AB"/><stop offset="0.391566" stop-color="#AB78AA"/><stop offset="0.39759" stop-color="#AC78AA"/><stop offset="0.403614" stop-color="#AD78A9"/><stop offset="0.409639" stop-color="#AE78A8"/><stop offset="0.415663" stop-color="#B078A7"/><stop offset="0.421687" stop-color="#B179A7"/><stop offset="0.427711" stop-color="#B279A6"/><stop offset="0.433735" stop-color="#B379A5"/><stop offset="0.439759" stop-color="#B479A4"/><stop offset="0.445783" stop-color="#B579A3"/><stop offset="0.451807" stop-color="#B679A3"/><stop offset="0.457831" stop-color="#B879A2"/><stop offset="0.463855" stop-color="#B979A1"/><stop offset="0.46988" stop-color="#BA79A0"/><stop offset="0.475904" stop-color="#BB799F"/><stop offset="0.481928" stop-color="#BC799E"/><stop offset="0.487952" stop-color="#BD799D"/><stop offset="0.493976" stop-color="#BE799D"/><stop offset="0.5" stop-color="#BF7A9C"/><stop offset="0.506024" stop-color="#C07A9B"/><stop offset="0.512048" stop-color="#C17A9A"/><stop offset="0.518072" stop-color="#C27A99"/><stop offset="0.524096" stop-color="#C37A98"/><stop offset="0.53012" stop-color="#C47A97"/><stop offset="0.536145" stop-color="#C57A96"/><stop offset="0.542169" stop-color="#C67A95"/><stop offset="0.548193" stop-color="#C77A94"/><stop offset="0.554217" stop-color="#C87A93"/><stop offset="0.560241" stop-color="#C97A92"/><stop offset="0.566265" stop-color="#CA7A91"/><stop offset="0.572289" stop-color="#CB7A90"/><stop offset="0.578313" stop-color="#CB7A8F"/><stop offset="0.584337" stop-color="#CC7A8E"/><stop offset="0.590361" stop-color="#CD7A8D"/><stop offset="0.596386" stop-color="#CE7A8C"/><stop offset="0.60241" stop-color="#CF7B8B"/><stop offset="0.608434" stop-color="#D07B8A"/><stop offset="0.614458" stop-color="#D17B89"/><stop offset="0.620482" stop-color="#D17B88"/><stop offset="0.626506" stop-color="#D27B87"/><stop offset="0.63253" stop-color="#D37B86"/><stop offset="0.638554" stop-color="#D47B85"/><stop offset="0.644578" stop-color="#D47B83"/><stop offset="0.650602" stop-color="#D57B82"/><stop offset="0.656627" stop-color="#D67B81"/><stop offset="0.662651" stop-color="#D77B80"/><stop offset="0.668675" stop-color="#D77B7F"/><stop offset="0.674699" stop-color="#D87B7E"/><stop offset="0.680723" stop-color="#D97B7D"/><stop offset="0.686747" stop-color="#DA7B7B"/><stop offset="0.692771" stop-color="#DA7B7A"/><stop offset="0.698795" stop-color="#DB7B79"/><stop offset="0.704819" stop-color="#DC7B78"/><stop offset="0.710843" stop-color="#DC7B77"/><stop offset="0.716867" stop-color="#DD7B75"/><stop offset="0.722892" stop-color="#DD7C74"/><stop offset="0.728916" stop-color="#DE7C73"/><stop offset="0.73494" stop-color="#DF7C72"/><stop offset="0.740964" stop-color="#DF7C70"/><stop offset="0.746988" stop-color="#E07C6F"/><stop offset="0.753012" stop-color="#E07C6E"/><stop offset="0.759036" stop-color="#E17C6C"/><stop offset="0.76506" stop-color="#E17C6B"/><stop offset="0.771084" stop-color="#E27C6A"/><stop offset="0.777108" stop-color="#E27C69"/><stop offset="0.783133" stop-color="#E37C67"/><stop offset="0.789157" stop-color="#E37C66"/><stop offset="0.795181" stop-color="#E47C64"/><stop offset="0.801205" stop-color="#E47C63"/><stop offset="0.807229" stop-color="#E57C62"/><stop offset="0.813253" stop-color="#E57C60"/><stop offset="0.819277" stop-color="#E67C5F"/><stop offset="0.825301" stop-color="#E67C5E"/><stop offset="0.831325" stop-color="#E77C5C"/><stop offset="0.837349" stop-color="#E77C5B"/><stop offset="0.843373" stop-color="#E77C59"/><stop offset="0.849398" stop-color="#E87C58"/><stop offset="0.855422" stop-color="#E87C57"/><stop offset="0.861446" stop-color="#E87C55"/><stop offset="0.86747" stop-color="#E97C54"/><stop offset="0.873494" stop-color="#E97C52"/><stop offset="0.879518" stop-color="#E97C51"/><stop offset="0.885542" stop-color="#EA7C4F"/><stop offset="0.891566" stop-color="#EA7C4E"/><stop offset="0.89759" stop-color="#EA7C4C"/><stop offset="0.903614" stop-color="#EA7C4B"/><stop offset="0.909639" stop-color="#EB7C49"/><stop offset="0.915663" stop-color="#EB7C48"/><stop offset="0.921687" stop-color="#EB7C46"/><stop offset="0.927711" stop-color="#EB7C45"/><stop offset="0.933735" stop-color="#EB7C43"/><stop offset="0.939759" stop-color="#EC7C42"/><stop offset="0.945783" stop-color="#EC7C40"/><stop offset="0.951807" stop-color="#EC7C3E"/><stop offset="0.957831" stop-color="#EC7C3D"/><stop offset="0.963855" stop-color="#EC7C3B"/><stop offset="0.96988" stop-color="#EC7C3A"/><stop offset="0.975904" stop-color="#EC7C38"/><stop offset="0.981928" stop-color="#EC7C36"/><stop offset="0.987952" stop-color="#EC7C35"/><stop offset="0.993976" stop-color="#EC7C33"/><stop offset="1" stop-color="#ED7D32"/></linearGradient><clipPath id="clip2"><rect x="471" y="0" width="1449" height="540"/></clipPath><clipPath id="clip3"><rect x="471" y="0" width="1449" height="541"/></clipPath><clipPath id="clip4"><rect x="471" y="0" width="1449" height="541"/></clipPath></defs><g clip-path="url(#clip0)" transform="translate(1 1)"><path d="M0 540 0 0 541 540Z" fill="url(#fill1)" fill-rule="evenodd"/><path d="M109 87.5C109 56.8482 133.848 32 164.5 32 195.152 32 220 56.8482 220 87.5 220 118.152 195.152 143 164.5 143 133.848 143 109 118.152 109 87.5Z" fill="#4472C4" fill-rule="evenodd"/><g clip-path="url(#clip2)"><g clip-path="url(#clip3)"><g clip-path="url(#clip4)"><path d="M136.839-149.143 168.905-149.143C176.362-149.143 180.09-149.143 180.09-156.6 180.09-160.702 176.362-160.702 170.023-160.702L139.076-160.702 146.906-203.208C148.397-211.038 153.617-237.51 155.855-241.985 159.21-249.069 165.549-254.662 173.379-254.662 174.87-254.662 184.565-254.662 191.649-247.95 175.243-246.459 171.515-233.409 171.515-227.816 171.515-219.24 178.226-214.766 185.31-214.766 195.005-214.766 205.817-222.969 205.817-237.138 205.817-254.289 188.666-262.865 173.379-262.865 160.702-262.865 137.212-256.153 126.026-219.24 123.789-211.41 122.67-207.682 113.722-160.702L87.9944-160.702C80.9101-160.702 76.8087-160.702 76.8087-153.617 76.8087-149.143 80.1644-149.143 87.2487-149.143L111.857-149.143 83.893-1.86428C77.1816 34.3029 70.843 68.233 51.4544 68.233 49.963 68.233 40.6415 68.233 33.5572 61.5216 50.7087 60.403 54.0644 46.9801 54.0644 41.3872 54.0644 32.8115 47.3529 28.3372 40.2686 28.3372 30.5743 28.3372 19.7615 36.5401 19.7615 50.7087 19.7615 67.4873 36.1672 76.4358 51.4544 76.4358 71.9616 76.4358 86.8759 54.4372 93.5873 40.2686 105.519 16.7786 114.094-28.3372 114.467-30.9472L136.839-149.143Z" transform="matrix(1 0 0 1.00033 472.785 262.951)"/><path d="M310.963-85.7573C290.456-70.0973 280.389-54.8101 277.406-49.963 260.628-24.2358 257.645-0.745705 257.645-0.372871 257.645 4.10143 262.119 4.10143 265.102 4.10143 271.44 4.10143 271.813 3.35573 273.305-3.35573 281.88-39.8958 303.879-71.2158 346.012-88.3673 350.486-89.8587 351.605-90.6045 351.605-93.2144 351.605-95.8244 349.368-96.943 348.622-97.3159 332.216-103.654 287.101-122.297 272.932-184.937 271.813-189.412 271.44-190.53 265.102-190.53 262.119-190.53 257.645-190.53 257.645-186.056 257.645-185.31 261-161.82 276.66-136.839 284.118-125.653 294.931-112.603 310.963-100.672L33.93-100.672C27.2186-100.672 20.5072-100.672 20.5072-93.2144 20.5072-85.7573 27.2186-85.7573 33.93-85.7573L310.963-85.7573Z" transform="matrix(1 0 0 1.00033 799.035 262.951)"/><path d="M41.0143-128.263 41.0143-28.3372C41.0143-11.5586 36.9129-11.5586 11.9314-11.5586L11.9314 0C24.9815-0.372871 43.9972-1.11858 54.0644-1.11858 63.7587-1.11858 83.1473-0.372871 95.8245 0L95.8245-11.5586C70.843-11.5586 66.7416-11.5586 66.7416-28.3372L66.7416-96.943C66.7416-135.72 93.2144-156.6 117.077-156.6 140.567-156.6 144.669-136.466 144.669-115.213L144.669-28.3372C144.669-11.5586 140.567-11.5586 115.586-11.5586L115.586 0C128.636-0.372871 147.652-1.11858 157.719-1.11858 167.413-1.11858 186.802-0.372871 199.479 0L199.479-11.5586C174.497-11.5586 170.396-11.5586 170.396-28.3372L170.396-96.943C170.396-135.72 196.869-156.6 220.732-156.6 244.222-156.6 248.323-136.466 248.323-115.213L248.323-28.3372C248.323-11.5586 244.222-11.5586 219.24-11.5586L219.24 0C232.29-0.372871 251.306-1.11858 261.373-1.11858 271.068-1.11858 290.456-0.372871 303.133 0L303.133-11.5586C283.745-11.5586 274.423-11.5586 274.05-22.7443L274.05-93.9602C274.05-126.026 274.05-137.585 262.492-151.007 257.272-157.346 244.968-164.803 223.342-164.803 192.022-164.803 175.616-142.432 169.277-128.263 164.057-160.702 136.466-164.803 119.687-164.803 92.4688-164.803 74.9444-148.77 64.5044-125.653L64.5044-164.803 11.9314-160.702 11.9314-149.143C38.0315-149.143 41.0143-146.533 41.0143-128.263Z" transform="matrix(1 0 0 1.00033 1294.71 262.951)"/><path d="M65.9958-164.803 13.7958-160.702 13.7958-149.143C38.0315-149.143 41.3872-146.906 41.3872-128.636L41.3872-28.3372C41.3872-11.5586 37.2858-11.5586 12.3043-11.5586L12.3043 0C24.2358-0.372871 44.3701-1.11858 53.3187-1.11858 66.3687-1.11858 79.4187-0.372871 92.0959 0L92.0959-11.5586C67.4873-11.5586 65.9958-13.4229 65.9958-27.9643L65.9958-164.803ZM67.4873-229.68C67.4873-241.612 58.1658-249.442 47.7258-249.442 36.1672-249.442 27.9643-239.375 27.9643-229.68 27.9643-219.613 36.1672-209.919 47.7258-209.919 58.1658-209.919 67.4873-217.749 67.4873-229.68Z" transform="matrix(1 0 0 1.00033 1605.43 262.951)"/><path d="M41.0143-128.263 41.0143-28.3372C41.0143-11.5586 36.9129-11.5586 11.9314-11.5586L11.9314 0C24.9815-0.372871 43.9972-1.11858 54.0644-1.11858 63.7587-1.11858 83.1473-0.372871 95.8245 0L95.8245-11.5586C70.843-11.5586 66.7416-11.5586 66.7416-28.3372L66.7416-96.943C66.7416-135.72 93.2144-156.6 117.077-156.6 140.567-156.6 144.669-136.466 144.669-115.213L144.669-28.3372C144.669-11.5586 140.567-11.5586 115.586-11.5586L115.586 0C128.636-0.372871 147.652-1.11858 157.719-1.11858 167.413-1.11858 186.802-0.372871 199.479 0L199.479-11.5586C180.09-11.5586 170.769-11.5586 170.396-22.7443L170.396-93.9602C170.396-126.026 170.396-137.585 158.837-151.007 153.617-157.346 141.313-164.803 119.687-164.803 92.4688-164.803 74.9444-148.77 64.5044-125.653L64.5044-164.803 11.9314-160.702 11.9314-149.143C38.0315-149.143 41.0143-146.533 41.0143-128.263Z" transform="matrix(1 0 0 1.00033 1709 262.951)"/><path d="M64.9891-27.6661C62.3791-18.792 53.7661-4.698 40.4551-4.698 39.6721-4.698 31.842-4.698 26.3611-8.35201 37.062-11.745 37.8451-21.141 37.8451-22.707 37.8451-28.449 33.4081-32.3641 27.405-32.3641 20.097-32.3641 12.528-26.1001 12.528-16.443 12.528-3.393 27.144 2.60999 39.9331 2.60999 51.9391 2.60999 62.6401-4.959 69.1651-15.921 75.4291-2.08801 89.7842 2.60999 100.224 2.60999 130.239 2.60999 146.16-30.0151 146.16-37.3231 146.16-40.7161 142.767-40.7161 141.984-40.7161 138.33-40.7161 138.069-39.4111 137.025-36.2791 131.544-18.27 115.884-4.698 101.268-4.698 90.8282-4.698 85.3471-11.745 85.3471-21.663 85.3471-28.449 91.6112-52.2001 98.9192-81.1712 104.139-101.268 115.884-107.793 124.497-107.793 125.019-107.793 133.11-107.793 138.591-104.139 130.239-101.79 127.107-94.4822 127.107-89.7842 127.107-84.0421 131.544-80.1271 137.547-80.1271 143.55-80.1271 152.163-85.0861 152.163-96.0482 152.163-110.664 135.459-115.101 125.019-115.101 111.969-115.101 101.529-106.488 95.7872-96.5702 91.0892-107.271 79.0831-115.101 64.4671-115.101 35.235-115.101 18.531-82.9982 18.531-75.1681 18.531-71.7751 22.185-71.7751 22.9681-71.7751 26.3611-71.7751 26.6221-72.8191 27.9271-76.2122 34.4521-96.5702 50.8951-107.793 63.6841-107.793 72.2971-107.793 79.3441-103.095 79.3441-90.5671 79.3441-85.3471 76.2122-72.2971 73.8631-63.4231L64.9891-27.6661Z" transform="matrix(1 0 0 1.00033 1275.46 486.738)"/><path d="M55.0711-4.17602C55.0711 10.179 52.4611 26.883 34.7131 43.5871 33.669 44.6311 32.8861 45.4141 32.8861 46.7191 32.8861 48.5461 34.9741 50.3731 36.5401 50.3731 40.1941 50.3731 62.3791 29.4931 62.3791-1.566 62.3791-17.748 56.1151-30.0151 44.1091-30.0151 35.4961-30.0151 29.2321-23.229 29.2321-15.138 29.2321-6.78601 35.235 0 44.3701 0 50.6341 0 54.8101-4.17602 55.0711-4.17602Z" transform="matrix(1 0 0 1.00033 1444.54 486.738)"/><path d="M145.116-98.3972C146.16-102.051 146.16-102.573 146.16-104.139 146.16-109.359 141.984-112.491 137.547-112.491 134.676-112.491 129.717-111.186 126.846-106.227 126.063-104.661 123.975-96.3092 122.67-91.0892L117.189-69.4261C115.623-63.1621 107.532-30.276 106.749-27.405 106.488-27.405 95.0042-4.698 74.6461-4.698 56.8981-4.698 56.8981-21.663 56.8981-26.3611 56.8981-40.4551 62.9011-56.8981 70.7311-76.9951 73.8631-85.3471 75.1681-88.4791 75.1681-92.9162 75.1681-105.444 64.4671-115.101 50.3731-115.101 24.012-115.101 12.267-79.6051 12.267-75.1681 12.267-71.7751 15.921-71.7751 16.704-71.7751 20.358-71.7751 20.619-73.0801 21.4021-75.9511 27.9271-97.6142 39.1501-107.793 49.5901-107.793 54.0271-107.793 56.1151-104.922 56.1151-98.6582 56.1151-92.6552 53.7661-86.9131 52.4611-83.5201 39.9331-51.6781 37.3231-42.0211 37.3231-30.537 37.3231-26.1001 37.3231-13.833 47.5021-5.48102 55.5931 1.30499 66.5551 2.60999 73.6021 2.60999 84.0421 2.60999 93.4382-1.30499 102.051-9.13503 98.6582 5.22001 95.7872 16.182 84.8252 29.2321 77.7781 37.3231 67.3381 45.9361 53.5051 45.9361 51.6781 45.9361 39.4111 45.9361 33.93 37.3231 48.0241 35.7571 48.0241 23.229 48.0241 22.9681 48.0241 14.616 40.4551 13.05 37.8451 13.05 31.3201 13.05 22.707 18.27 22.707 30.276 22.707 43.5871 35.235 53.2441 53.7661 53.2441 80.1271 53.2441 112.23 32.8861 120.321 0.261006L145.116-98.3972Z" transform="matrix(1 0 0 1.00033 1533.1 486.738)"/><path d="M55.0711-4.17602C55.0711 10.179 52.4611 26.883 34.7131 43.5871 33.669 44.6311 32.8861 45.4141 32.8861 46.7191 32.8861 48.5461 34.9741 50.3731 36.5401 50.3731 40.1941 50.3731 62.3791 29.4931 62.3791-1.566 62.3791-17.748 56.1151-30.0151 44.1091-30.0151 35.4961-30.0151 29.2321-23.229 29.2321-15.138 29.2321-6.78601 35.235 0 44.3701 0 50.6341 0 54.8101-4.17602 55.0711-4.17602Z" transform="matrix(1 0 0 1.00033 1693.68 486.738)"/><path d="M43.8481-22.9681C50.6341-29.7541 55.3321-34.7131 77.5171-52.4611 82.9982-56.8981 102.573-72.5581 110.142-79.8662 126.063-95.5262 135.981-108.837 135.981-111.969 135.981-115.101 132.588-115.101 131.544-115.101 129.195-115.101 128.412-114.579 127.107-112.491 119.016-100.485 113.535-96.5702 107.271-96.5702 104.139-96.5702 100.224-96.8312 92.3941-104.4 83.5201-113.274 77.7781-115.101 71.7751-115.101 50.8951-115.101 36.8011-92.3941 36.8011-84.5642 36.8011-82.2151 39.4111-81.4322 41.2381-81.4322 44.3701-81.4322 44.8921-82.2151 45.9361-85.0861 49.8511-94.2212 64.4671-94.7432 68.6431-94.7432 74.6461-94.7432 81.4322-93.1772 85.0861-92.3941 99.4412-89.2622 101.268-89.2622 107.793-89.2622 101.007-82.2151 96.3092-77.5171 71.5141-57.6811 51.1561-41.4991 44.1091-34.9741 39.1501-29.7541 23.49-14.355 15.921-2.87099 15.921-0.522012 15.921 2.60999 19.314 2.60999 20.358 2.60999 22.9681 2.60999 23.49 2.08801 24.7951 0 31.842-9.91801 39.9331-15.921 48.8071-15.921 51.9391-15.921 55.8541-15.66 62.9011-9.13503 70.9921-1.30499 76.2122 2.60999 84.5642 2.60999 112.491 2.60999 129.978-28.971 129.978-37.8451 129.978-40.9771 127.107-41.2381 125.541-41.2381 122.409-41.2381 121.887-39.9331 120.843-37.062 115.884-24.012 100.485-17.748 87.6962-17.748 81.6931-17.748 75.1681-19.053 68.6431-20.619 56.6371-23.229 54.5491-23.229 49.8511-23.229 49.3291-23.229 45.4141-23.229 43.8481-22.9681Z" transform="matrix(1 0 0 1.00033 1782.23 486.738)"/></g></g></g></g></svg>