<svg width="1981" height="1133" xmlns="http://www.w3.org/2000/svg" xmlns:xlink="http://www.w3.org/1999/xlink" overflow="hidden"><defs><clipPath id="clip0"><path d="M36-43 2017-43 2017 1090 36 1090Z" fill-rule="evenodd" clip-rule="evenodd"/></clipPath></defs><g clip-path="url(#clip0)" transform="translate(-36 43)"><path d="M3-5.28909e-07 3.00016 924.516-2.99984 924.516-3 5.28909e-07ZM13.0915 908.027 0.000163816 930.469-13.0912 908.027C-13.926 906.595-13.4426 904.758-12.0115 903.924-10.5803 903.089-8.74335 903.572-7.9085 905.003L2.5915 923.003-2.59117 923.003 7.90882 905.003C8.74366 903.572 10.5806 903.089 12.0118 903.924 13.4429 904.758 13.9263 906.595 13.0915 908.027Z" fill="#5B9BD5" transform="matrix(1 0 0 -1 1000 1010.45)"/><path d="M2.59143e-07-3 1893.11-2.99984 1893.11 3.00016-2.59143e-07 3ZM1876.62-13.0912 1899.06 0.000163734 1876.62 13.0915C1875.19 13.9263 1873.35 13.4429 1872.52 12.0118 1871.68 10.5806 1872.17 8.74367 1873.6 7.90883L1891.6-2.59117 1891.6 2.5915 1873.6-7.9085C1872.17-8.74334 1871.68-10.5803 1872.52-12.0115 1873.35-13.4426 1875.19-13.926 1876.62-13.0912Z" fill="#5B9BD5" transform="matrix(1 0 0 -1 37 739)"/><text font-family="CMU Classical Serif,CMU Classical Serif_MSFontService,sans-serif" font-style="italic" font-weight="500" font-size="125" transform="translate(1882.73 841)">x</text><path d="M0 0C19.2844 62.0777 38.5689 124.156 77.1375 145.626 115.706 167.097 187.935 89.6161 231.413 128.823 274.89 168.03 303.408 326.258 338.003 380.868 372.598 435.478 401.816 442.013 438.983 456.482 476.149 470.951 561 467.684 561 467.684L561 467.684" stroke="#ED7D31" stroke-width="6" stroke-miterlimit="8" fill="none" fill-rule="evenodd" transform="matrix(-1 -8.74228e-08 -8.74228e-08 1 1383 256)"/><path d="M822.13 723.914C743.902 719.211 680.579 526.706 678.075 285.978" stroke="#ED7D31" stroke-width="6" stroke-miterlimit="8" fill="none" fill-rule="evenodd"/><text font-family="CMU Classical Serif,CMU Classical Serif_MSFontService,sans-serif" font-style="italic" font-weight="500" font-size="125" transform="translate(766.74 135)">f(x)</text><path d="M0 0 506.158 808.584" stroke="#000000" stroke-width="3" stroke-miterlimit="8" stroke-dasharray="24 9" fill="none" fill-rule="evenodd" transform="matrix(-1 -8.74228e-08 -8.74228e-08 1 1402.66 279.5)"/><path d="M0 0 511.788 817.577" stroke="#000000" stroke-width="3" stroke-miterlimit="8" stroke-dasharray="24 9" fill="none" fill-rule="evenodd" transform="matrix(-1 -8.74228e-08 -8.74228e-08 1 1402.29 97.5)"/><path d="M1338.5 364.5C1338.5 359.529 1342.53 355.5 1347.5 355.5 1352.47 355.5 1356.5 359.529 1356.5 364.5 1356.5 369.471 1352.47 373.5 1347.5 373.5 1342.53 373.5 1338.5 369.471 1338.5 364.5Z" stroke="#41719C" stroke-width="13" stroke-miterlimit="8" fill="#41719C" fill-rule="evenodd"/><text font-family="CMU Classical Serif,CMU Classical Serif_MSFontService,sans-serif" font-style="italic" font-weight="500" font-size="125" transform="translate(1417.08 102)">xy<tspan x="-374.369" y="857">(0, </tspan><tspan x="-176.452" y="857">-</tspan><tspan x="-131.661" y="857">f*(y))</tspan></text><path d="M990.5 921C990.5 916.306 994.529 912.5 999.5 912.5 1004.47 912.5 1008.5 916.306 1008.5 921 1008.5 925.694 1004.47 929.5 999.5 929.5 994.529 929.5 990.5 925.694 990.5 921Z" stroke="#41719C" stroke-width="13" stroke-miterlimit="8" fill="#41719C" fill-rule="evenodd"/><path d="M1032.5 687C1060.94 687 1084 709.833 1084 738" stroke="#00B050" stroke-width="6" stroke-miterlimit="8" fill="none" fill-rule="evenodd"/><path d="M0 0 76.2167 1.3873" stroke="#00B050" stroke-width="6" stroke-miterlimit="8" fill="none" fill-rule="evenodd" transform="matrix(1 0 0 -1 1476 134.387)"/><path d="M1269 1009 1533.28 1009" stroke="#FF0000" stroke-width="6" stroke-miterlimit="8" fill="none" fill-rule="evenodd"/><path d="M999 739 999 911.445" stroke="#FF0000" stroke-width="6" stroke-miterlimit="8" fill="none" fill-rule="evenodd"/></g></svg>