<svg width="2078" height="1218" xmlns="http://www.w3.org/2000/svg" xmlns:xlink="http://www.w3.org/1999/xlink" overflow="hidden"><defs><clipPath id="clip0"><path d="M-44-26 2034-26 2034 1192-44 1192Z" fill-rule="evenodd" clip-rule="evenodd"/></clipPath></defs><g clip-path="url(#clip0)" transform="translate(44 26)"><path d="M3-5.28909e-07 3.00016 924.516-2.99984 924.516-3 5.28909e-07ZM13.0915 908.027 0.000163816 930.469-13.0912 908.027C-13.926 906.595-13.4426 904.758-12.0115 903.924-10.5803 903.089-8.74335 903.572-7.9085 905.003L2.5915 923.003-2.59117 923.003 7.90882 905.003C8.74366 903.572 10.5806 903.089 12.0118 903.924 13.4429 904.758 13.9263 906.595 13.0915 908.027Z" fill="#5B9BD5" transform="matrix(1 0 0 -1 170 1066.45)"/><path d="M2.59143e-07-3 1893.11-2.99984 1893.11 3.00016-2.59143e-07 3ZM1876.62-13.0912 1899.06 0.000163734 1876.62 13.0915C1875.19 13.9263 1873.35 13.4429 1872.52 12.0118 1871.68 10.5806 1872.17 8.74367 1873.6 7.90883L1891.6-2.59117 1891.6 2.5915 1873.6-7.9085C1872.17-8.74334 1871.68-10.5803 1872.52-12.0115 1873.35-13.4426 1875.19-13.926 1876.62-13.0912Z" fill="#5B9BD5" transform="matrix(1 0 0 -1 37 971)"/><text font-family="CMU Classical Serif,CMU Classical Serif_MSFontService,sans-serif" font-style="italic" font-weight="500" font-size="125" transform="translate(1882.73 1073)">x<tspan font-size="83" x="57.8125" y="30">1</tspan><tspan x="-1850.58" y="-954">x</tspan><tspan font-size="83" x="-1792.77" y="-924">2</tspan></text><path d="M1681.54 498.113C1590.22 796.341 1235.92 974.255 890.166 895.494 673.529 846.145 501.868 703.695 436.323 518.881" stroke="#5B9BD5" stroke-width="6" stroke-miterlimit="8" fill="none" fill-rule="evenodd"/><path d="M481 377C500.284 439.21 519.569 501.421 558.138 522.937 596.706 544.454 668.935 466.808 712.413 506.098 755.89 545.389 784.408 703.956 819.003 758.682 853.598 813.409 882.816 819.957 919.983 834.457 957.149 848.957 1042 845.683 1042 845.683L1042 845.683" stroke="#ED7D31" stroke-width="6" stroke-miterlimit="8" fill="none" fill-rule="evenodd"/><path d="M594.5 529.5 777.193 682.853" stroke="#ED7D31" stroke-width="3" stroke-miterlimit="8" stroke-dasharray="24 9" fill="none" fill-rule="evenodd"/><path d="M0 0C19.2501 62.2103 38.5001 124.421 77 145.937 115.5 167.454 187.6 89.8076 231 129.098 274.4 168.389 302.867 326.956 337.4 381.682 371.933 436.409 401.1 442.957 438.2 457.457 475.3 471.957 560 468.683 560 468.683L560 468.683" stroke="#ED7D31" stroke-width="6" stroke-miterlimit="8" fill="none" fill-rule="evenodd" transform="matrix(-1 -8.74228e-08 -8.74228e-08 1 1602 377)"/><path d="M579.5 523C579.5 518.306 583.529 514.5 588.5 514.5 593.471 514.5 597.5 518.306 597.5 523 597.5 527.694 593.471 531.5 588.5 531.5 583.529 531.5 579.5 527.694 579.5 523Z" stroke="#41719C" stroke-width="13" stroke-miterlimit="8" fill="#41719C" fill-rule="evenodd"/><path d="M777.5 682.5C777.5 677.529 781.306 673.5 786 673.5 790.694 673.5 794.5 677.529 794.5 682.5 794.5 687.471 790.694 691.5 786 691.5 781.306 691.5 777.5 687.471 777.5 682.5Z" stroke="#41719C" stroke-width="13" stroke-miterlimit="8" fill="#41719C" fill-rule="evenodd"/><text font-family="Open Sans,Open Sans_MSFontService,sans-serif" font-weight="400" font-size="50" transform="translate(1641.64 133)">Convex<tspan x="-55.8593" y="75">Non Convex</tspan></text><path d="M1468 116 1568.93 116" stroke="#5B9BD5" stroke-width="6" stroke-miterlimit="8" fill="none" fill-rule="evenodd"/><path d="M1468 192 1568.93 192" stroke="#ED7D31" stroke-width="6" stroke-miterlimit="8" fill="none" fill-rule="evenodd"/></g></svg>