<svg width="1382" height="707" xmlns="http://www.w3.org/2000/svg" xmlns:xlink="http://www.w3.org/1999/xlink" overflow="hidden"><defs><clipPath id="clip0"><path d="M-28 22 1354 22 1354 729-28 729Z" fill-rule="evenodd" clip-rule="evenodd"/></clipPath></defs><g clip-path="url(#clip0)" transform="translate(28 -22)"><path d="M1054 264C1080.51 264 1102 285.49 1102 312" stroke="#000000" stroke-width="4" stroke-miterlimit="8" fill="none" fill-rule="evenodd"/><path d="M2.59143e-07-3 1209.45-2.9999 1209.45 3.0001-2.59143e-07 3ZM1192.96-13.0912 1215.41 0.00011228 1192.96 13.0914C1191.53 13.9263 1189.69 13.4429 1188.86 12.0117 1188.02 10.5806 1188.51 8.7436 1189.94 7.90876L1207.94-2.59124 1207.94 2.59144 1189.94-7.90856C1188.51-8.7434 1188.02-10.5804 1188.86-12.0115 1189.69-13.4427 1191.53-13.9261 1192.96-13.0912Z" fill="#5B9BD5" transform="matrix(1 0 0 -1 24 496)"/><path d="M0 0 1172 427.595" stroke="#41719C" stroke-width="8" stroke-miterlimit="8" fill="none" fill-rule="evenodd" transform="matrix(1 0 0 -1 177 585.595)"/><path d="M1324.82 25.3079C1113.02 290.492 703.837 429.453 276.262 381.4" stroke="#5B9BD5" stroke-width="8" stroke-miterlimit="8" fill="none" fill-rule="evenodd"/><path d="M3-5.28909e-07 3.0001 589.552-2.9999 589.552-3 5.28909e-07ZM13.0914 573.063 0.000104761 595.505-13.0912 573.063C-13.9261 571.632-13.4427 569.795-12.0115 568.96-10.5804 568.125-8.7434 568.608-7.90856 570.039L2.59144 588.039-2.59123 588.039 7.90876 570.039C8.7436 568.608 10.5806 568.125 12.0117 568.96 13.4429 569.795 13.9263 571.632 13.0914 573.063Z" fill="#5B9BD5" transform="matrix(1 0 0 -1 110 728.491)"/><text font-family="CMU Classical Serif,CMU Classical Serif_MSFontService,sans-serif" font-style="italic" font-weight="500" font-size="80" transform="translate(1205.42 561)">x<tspan x="-1184.37" y="-439">y</tspan></text><rect x="39" y="506" width="61" height="107" fill="#FFFFFF" fill-opacity="0.690196"/><text font-family="CMU Classical Serif,CMU Classical Serif_MSFontService,sans-serif" font-style="italic" font-weight="500" font-size="80" transform="translate(48.8407 581)">0</text><path d="M922.638 313.976 849.315 147.933 854.804 145.51 928.127 311.552ZM845.038 153.102 846 133 861.504 145.83Z" fill="#41719C"/><path d="M1158.53 255.562C1155.87 255.562 1153.49 256.637 1151.38 258.785 1149.27 260.934 1147.61 263.831 1146.4 267.477 1145.19 271.122 1144.59 274.755 1144.59 278.375 1144.59 281.083 1144.98 283.108 1145.76 284.449 1146.54 285.79 1147.76 286.461 1149.43 286.461 1150.76 286.461 1152.08 286.005 1153.39 285.094 1154.71 284.182 1156.12 282.737 1157.61 280.758 1159.11 278.779 1160.28 276.891 1161.11 275.094 1161.94 273.297 1162.65 271.057 1163.24 268.375 1163.82 265.693 1164.12 263.362 1164.12 261.383 1164.12 259.352 1163.69 257.874 1162.83 256.949 1161.97 256.025 1160.54 255.562 1158.53 255.562ZM1157.91 252.477C1159.55 252.477 1161.1 252.672 1162.55 253.062 1164.01 253.453 1165.48 254.117 1166.97 255.055L1170.56 252.477 1173.06 253.102 1169.04 271.305C1168.75 272.581 1168.1 275.797 1167.09 280.953 1166.02 286.422 1165.15 290.289 1164.49 292.555 1163.82 294.82 1163 296.884 1162.01 298.746 1161.02 300.608 1159.74 302.229 1158.18 303.609 1156.62 304.99 1154.72 306.057 1152.5 306.812 1150.27 307.568 1147.63 307.945 1144.59 307.945 1134.74 307.945 1129.82 305.081 1129.82 299.352 1129.82 297.893 1130.26 296.565 1131.15 295.367 1132.03 294.169 1133.45 292.906 1135.41 291.578L1138.22 293.844C1137.72 294.443 1137.31 295.035 1136.97 295.621 1136.63 296.207 1136.39 296.773 1136.25 297.32 1136.1 297.867 1136.03 298.518 1136.03 299.273 1136.03 301.227 1136.73 302.652 1138.14 303.551 1139.55 304.449 1141.67 304.898 1144.51 304.898 1147.71 304.898 1150.28 304.176 1152.22 302.73 1154.16 301.285 1155.82 298.961 1157.2 295.758 1158.58 292.555 1159.92 287.711 1161.23 281.227L1160.68 281.109C1158.15 284.573 1155.81 287.099 1153.65 288.687 1151.49 290.276 1149.16 291.07 1146.66 291.07 1143.82 291.07 1141.61 290.003 1140.03 287.867 1138.46 285.732 1137.67 282.685 1137.67 278.727 1137.67 274.273 1138.54 269.996 1140.29 265.894 1142.03 261.793 1144.45 258.531 1147.55 256.109 1150.65 253.687 1154.1 252.477 1157.91 252.477Z" fill-rule="evenodd"/><text fill="#000000" fill-opacity="0" font-family="Arial,Arial_MSFontService,sans-serif" font-size="55.4688" x="1129.82" y="301.012">𝑔</text><path d="M926 313 1246.68 313" stroke="#0D0D0D" stroke-width="4" stroke-miterlimit="8" stroke-dasharray="32 12" fill="none" fill-rule="evenodd"/><path d="M767.951 119.562C765.294 119.562 762.911 120.637 760.802 122.785 758.693 124.934 757.033 127.831 755.822 131.477 754.611 135.122 754.005 138.755 754.005 142.375 754.005 145.083 754.396 147.108 755.177 148.449 755.958 149.79 757.182 150.461 758.849 150.461 760.177 150.461 761.499 150.005 762.814 149.094 764.129 148.182 765.535 146.737 767.033 144.758 768.53 142.779 769.695 140.891 770.529 139.094 771.362 137.297 772.072 135.057 772.658 132.375 773.243 129.693 773.536 127.362 773.536 125.383 773.536 123.352 773.107 121.874 772.247 120.949 771.388 120.025 769.956 119.562 767.951 119.562ZM767.326 116.477C768.966 116.477 770.516 116.672 771.974 117.062 773.432 117.453 774.904 118.117 776.388 119.055L779.982 116.477 782.482 117.102 778.458 135.305C778.172 136.581 777.521 139.797 776.505 144.953 775.438 150.422 774.572 154.289 773.908 156.555 773.243 158.82 772.417 160.884 771.427 162.746 770.438 164.608 769.161 166.229 767.599 167.609 766.036 168.99 764.142 170.057 761.915 170.812 759.689 171.568 757.052 171.945 754.005 171.945 744.161 171.945 739.24 169.081 739.24 163.352 739.24 161.893 739.682 160.565 740.568 159.367 741.453 158.169 742.872 156.906 744.826 155.578L747.638 157.844C747.143 158.443 746.727 159.035 746.388 159.621 746.049 160.207 745.809 160.773 745.665 161.32 745.522 161.867 745.451 162.518 745.451 163.273 745.451 165.227 746.154 166.652 747.56 167.551 748.966 168.449 751.089 168.898 753.927 168.898 757.13 168.898 759.702 168.176 761.642 166.73 763.582 165.285 765.242 162.961 766.622 159.758 768.003 156.555 769.344 151.711 770.646 145.227L770.099 145.109C767.573 148.573 765.229 151.099 763.068 152.687 760.906 154.276 758.576 155.07 756.076 155.07 753.237 155.07 751.03 154.003 749.454 151.867 747.879 149.732 747.091 146.685 747.091 142.727 747.091 138.273 747.964 133.996 749.708 129.894 751.453 125.793 753.875 122.531 756.974 120.109 760.073 117.687 763.523 116.477 767.326 116.477Z" fill-rule="evenodd"/><text fill="#000000" fill-opacity="0" font-family="Arial,Arial_MSFontService,sans-serif" font-size="55.4688" x="739.24" y="165.012">𝑔</text><text font-family="Cambria Math,Cambria Math_MSFontService,sans-serif" font-weight="400" font-size="80" transform="translate(720.168 250)">-1</text><path d="M724.5 275.5C717.873 275.5 712.5 268.419 712.5 259.684L712.5 112.316C712.5 103.581 717.873 96.5001 724.5 96.5001" stroke="#000000" stroke-width="3" stroke-miterlimit="8" fill="none" fill-rule="evenodd"/><path d="M794.5 96.5001C801.128 96.5001 806.5 103.581 806.5 112.316L806.5 259.684C806.5 268.419 801.128 275.5 794.5 275.5" stroke="#000000" stroke-width="3" stroke-miterlimit="8" fill="none" fill-rule="evenodd"/></g></svg>