<svg width="1280" height="720" xmlns="http://www.w3.org/2000/svg" xmlns:xlink="http://www.w3.org/1999/xlink" overflow="hidden"><defs><clipPath id="clip0"><rect x="0" y="0" width="1280" height="720"/></clipPath></defs><g clip-path="url(#clip0)"><rect x="0" y="0" width="1280" height="720" fill="#FFFFFF"/><path d="M1054 264C1080.51 264 1102 285.49 1102 312" stroke="#000000" stroke-width="4" stroke-miterlimit="8" fill="none" fill-rule="evenodd"/><path d="M7.7743e-07-3 1209.45-2.99969 1209.45 3.00031-7.7743e-07 3ZM1192.96-13.091 1215.41 0.000322255 1192.96 13.0916C1191.53 13.9265 1189.69 13.4431 1188.86 12.0119 1188.02 10.5808 1188.51 8.7438 1189.94 7.90897L1207.94-2.59103 1207.94 2.59165 1189.94-7.90836C1188.51-8.7432 1188.02-10.5801 1188.86-12.0113 1189.69-13.4425 1191.53-13.9259 1192.96-13.091Z" fill="#5B9BD5" transform="matrix(1 0 0 -1 24 496)"/><path d="M0 0 1172 427.595" stroke="#41719C" stroke-width="8" stroke-miterlimit="8" fill="none" fill-rule="evenodd" transform="matrix(1 0 0 -1 177 585.595)"/><path d="M1324.82 25.3079C1113.02 290.492 703.837 429.453 276.262 381.4" stroke="#5B9BD5" stroke-width="8" stroke-miterlimit="8" fill="none" fill-rule="evenodd"/><path d="M3-5.28909e-07 3.0001 589.552-2.9999 589.552-3 5.28909e-07ZM13.0914 573.063 0.000104761 595.505-13.0912 573.063C-13.9261 571.632-13.4427 569.795-12.0115 568.96-10.5804 568.125-8.7434 568.609-7.90856 570.04L2.59144 588.04-2.59123 588.04 7.90876 570.04C8.7436 568.609 10.5806 568.125 12.0117 568.96 13.4429 569.795 13.9263 571.632 13.0914 573.063Z" fill="#5B9BD5" transform="matrix(1 0 0 -1 110 728.491)"/><text font-family="CMU Classical Serif,CMU Classical Serif_MSFontService,sans-serif" font-style="italic" font-weight="500" font-size="80" transform="translate(1205.42 561)">x<tspan font-size="80" x="-1184.37" y="-439">y</tspan></text><rect x="39" y="506" width="61" height="107" fill="#FFFFFF" fill-opacity="0.690196"/><text font-family="CMU Classical Serif,CMU Classical Serif_MSFontService,sans-serif" font-style="italic" font-weight="500" font-size="80" transform="translate(48.8407 581)">0</text><path d="M922.638 313.976 849.315 147.934 854.804 145.51 928.127 311.552ZM845.038 153.102 846 133 861.504 145.83Z" fill="#41719C"/><path d="M1158.53 255.563C1155.87 255.563 1153.49 256.637 1151.38 258.785 1149.27 260.934 1147.61 263.831 1146.4 267.477 1145.19 271.122 1144.59 274.755 1144.59 278.375 1144.59 281.083 1144.98 283.108 1145.76 284.449 1146.54 285.79 1147.76 286.461 1149.43 286.461 1150.76 286.461 1152.08 286.005 1153.39 285.094 1154.71 284.182 1156.12 282.737 1157.61 280.758 1159.11 278.779 1160.28 276.891 1161.11 275.094 1161.94 273.297 1162.65 271.057 1163.24 268.375 1163.82 265.693 1164.12 263.362 1164.12 261.383 1164.12 259.352 1163.69 257.874 1162.83 256.949 1161.97 256.025 1160.54 255.563 1158.53 255.563ZM1157.91 252.477C1159.55 252.477 1161.1 252.672 1162.55 253.063 1164.01 253.453 1165.48 254.117 1166.97 255.055L1170.56 252.477 1173.06 253.102 1169.04 271.305C1168.75 272.581 1168.1 275.797 1167.09 280.953 1166.02 286.422 1165.15 290.289 1164.49 292.555 1163.82 294.82 1163 296.884 1162.01 298.746 1161.02 300.608 1159.74 302.229 1158.18 303.609 1156.62 304.99 1154.72 306.057 1152.5 306.813 1150.27 307.568 1147.63 307.945 1144.59 307.945 1134.74 307.945 1129.82 305.081 1129.82 299.352 1129.82 297.893 1130.26 296.565 1131.15 295.367 1132.03 294.169 1133.45 292.906 1135.41 291.578L1138.22 293.844C1137.72 294.443 1137.31 295.035 1136.97 295.621 1136.63 296.207 1136.39 296.773 1136.25 297.32 1136.1 297.867 1136.03 298.518 1136.03 299.273 1136.03 301.227 1136.73 302.652 1138.14 303.551 1139.55 304.449 1141.67 304.898 1144.51 304.898 1147.71 304.898 1150.28 304.176 1152.22 302.73 1154.16 301.285 1155.82 298.961 1157.2 295.758 1158.58 292.555 1159.92 287.711 1161.23 281.227L1160.68 281.109C1158.15 284.573 1155.81 287.099 1153.65 288.688 1151.49 290.276 1149.16 291.07 1146.66 291.07 1143.82 291.07 1141.61 290.003 1140.03 287.867 1138.46 285.732 1137.67 282.685 1137.67 278.727 1137.67 274.273 1138.54 269.996 1140.29 265.895 1142.03 261.793 1144.46 258.531 1147.55 256.109 1150.65 253.688 1154.1 252.477 1157.91 252.477Z" fill-rule="evenodd"/><text fill="#000000" fill-opacity="0" font-family="Arial,Arial_MSFontService,sans-serif" font-size="55.4688" x="1129.82" y="301.012">𝑔</text><path d="M926 313 1246.68 313" stroke="#0D0D0D" stroke-width="4" stroke-miterlimit="8" stroke-dasharray="32 12" fill="none" fill-rule="evenodd"/><text font-family="Calibri,Calibri_MSFontService,sans-serif" font-weight="400" font-size="80" transform="translate(720.168 152)">-</text><path d="M774.551 117.563C771.895 117.563 769.512 118.637 767.402 120.785 765.293 122.934 763.633 125.831 762.422 129.477 761.211 133.123 760.606 136.755 760.606 140.375 760.606 143.083 760.996 145.108 761.777 146.449 762.559 147.79 763.783 148.461 765.449 148.461 766.777 148.461 768.099 148.005 769.414 147.094 770.729 146.182 772.136 144.737 773.633 142.758 775.13 140.779 776.296 138.891 777.129 137.094 777.962 135.297 778.672 133.057 779.258 130.375 779.844 127.693 780.137 125.362 780.137 123.383 780.137 121.352 779.707 119.874 778.848 118.949 777.988 118.025 776.556 117.563 774.551 117.563ZM773.926 114.477C775.567 114.477 777.116 114.672 778.574 115.063 780.033 115.453 781.504 116.117 782.988 117.055L786.582 114.477 789.082 115.102 785.059 133.305C784.772 134.581 784.121 137.797 783.106 142.953 782.038 148.422 781.172 152.289 780.508 154.555 779.844 156.82 779.017 158.884 778.027 160.746 777.038 162.608 775.762 164.229 774.199 165.61 772.637 166.99 770.742 168.057 768.516 168.813 766.289 169.568 763.652 169.945 760.606 169.945 750.762 169.945 745.84 167.081 745.84 161.352 745.84 159.893 746.283 158.565 747.168 157.367 748.054 156.169 749.473 154.906 751.426 153.578L754.238 155.844C753.744 156.443 753.327 157.035 752.988 157.621 752.65 158.207 752.409 158.774 752.266 159.32 752.122 159.867 752.051 160.518 752.051 161.274 752.051 163.227 752.754 164.652 754.16 165.551 755.567 166.449 757.689 166.899 760.527 166.899 763.731 166.899 766.302 166.176 768.242 164.731 770.182 163.285 771.843 160.961 773.223 157.758 774.603 154.555 775.944 149.711 777.246 143.227L776.699 143.11C774.173 146.573 771.83 149.099 769.668 150.688 767.507 152.276 765.176 153.07 762.676 153.07 759.837 153.07 757.63 152.003 756.055 149.867 754.479 147.732 753.692 144.685 753.692 140.727 753.692 136.274 754.564 131.996 756.309 127.895 758.054 123.793 760.475 120.531 763.574 118.11 766.673 115.688 770.124 114.477 773.926 114.477Z" fill-rule="evenodd"/><text fill="#000000" fill-opacity="0" font-family="Arial,Arial_MSFontService,sans-serif" font-size="55.4688" x="745.84" y="163.012">𝑔</text><text font-family="Cambria Math,Cambria Math_MSFontService,sans-serif" font-weight="400" font-size="80" transform="translate(737.835 250)">1</text><path d="M724.5 275.5C717.873 275.5 712.5 268.419 712.5 259.684L712.5 112.316C712.5 103.581 717.873 96.5001 724.5 96.5001" stroke="#000000" stroke-width="3" stroke-miterlimit="8" fill="none" fill-rule="evenodd"/><path d="M794.5 96.5001C801.128 96.5001 806.5 103.581 806.5 112.316L806.5 259.684C806.5 268.419 801.128 275.5 794.5 275.5" stroke="#000000" stroke-width="3" stroke-miterlimit="8" fill="none" fill-rule="evenodd"/></g></svg>