<svg width="1280" height="720" xmlns="http://www.w3.org/2000/svg" xmlns:xlink="http://www.w3.org/1999/xlink" overflow="hidden"><defs><clipPath id="clip0"><path d="M0 0 1280 0 1280 720 0 720Z" fill-rule="evenodd" clip-rule="evenodd"/></clipPath></defs><g clip-path="url(#clip0)"><rect x="0" y="0" width="1280" height="720" fill="#FFFFFF" fill-opacity="0"/><rect x="55" y="203" width="186" height="189" fill="#ED7D31"/><path d="M241 203 303 141 303 330 241 392Z" fill="#BF6427" fill-rule="evenodd"/><path d="M55 203 117 141 303 141 241 203Z" fill="#F19659" fill-rule="evenodd"/><path d="M55 203 117 141 303 141 303 330 241 392 55 392ZM55 203 241 203 303 141M241 203 241 392" stroke="#843C0C" stroke-width="6" stroke-miterlimit="8" fill="none" fill-rule="evenodd"/><text font-family="Palatino Linotype,Palatino Linotype_MSFontService,sans-serif" font-weight="400" font-size="48" transform="translate(31.3181 443)">Tensor <tspan font-family="Cambria Math,Cambria Math_MSFontService,sans-serif" x="154.433" y="0">𝑻</tspan><tspan font-family="Cambria Math,Cambria Math_MSFontService,sans-serif" font-size="35" x="184.433" y="9">𝐼</tspan><tspan font-family="Cambria Math,Cambria Math_MSFontService,sans-serif" font-size="35" x="199.213" y="9">×</tspan><tspan font-family="Cambria Math,Cambria Math_MSFontService,sans-serif" font-size="35" x="224.213" y="9">𝐽</tspan><tspan font-family="Cambria Math,Cambria Math_MSFontService,sans-serif" font-size="35" x="241.813" y="9">×</tspan><tspan font-family="Cambria Math,Cambria Math_MSFontService,sans-serif" font-size="35" x="266.813" y="9">𝐾</tspan></text><rect x="432" y="202.751" width="185.252" height="189.249" fill="#ED7D31" fill-opacity="0.360784"/><path d="M617.252 202.751 679.003 141 679.003 330.249 617.252 392Z" fill="#BF6427" fill-rule="evenodd" fill-opacity="0.360784"/><path d="M432 202.751 493.751 141 679.003 141 617.252 202.751Z" fill="#F19659" fill-rule="evenodd" fill-opacity="0.360784"/><path d="M432 202.751 493.751 141 679.003 141 679.003 330.249 617.252 392 432 392ZM432 202.751 617.252 202.751 679.003 141M617.252 202.751 617.252 392" stroke="#843C0C" stroke-width="6" stroke-miterlimit="8" stroke-dasharray="6 6" fill="none" fill-rule="evenodd"/><path d="M335.248 257.712 383.752 257.712 383.752 261.965 335.248 261.965ZM335.248 273.035 383.752 273.035 383.752 277.288 335.248 277.288Z" stroke="#000000" stroke-width="1.33333" stroke-miterlimit="8" fill-rule="evenodd"/><rect x="483" y="158.5" width="43.5001" height="187.5" fill="#8FAADC"/><path d="M526.5 158.5 541 144 541 331.5 526.5 346Z" fill="#7389B1" fill-rule="evenodd"/><path d="M483 158.5 497.5 144 541 144 526.5 158.5Z" fill="#A5BBE3" fill-rule="evenodd"/><path d="M483 158.5 497.5 144 541 144 541 331.5 526.5 346 483 346ZM483 158.5 526.5 158.5 541 144M526.5 158.5 526.5 346" stroke="#203864" stroke-width="6" stroke-miterlimit="8" fill="none" fill-rule="evenodd"/><rect x="494" y="86.7501" width="185.25" height="41.2499" fill="#8FAADC"/><path d="M679.25 86.7501 693 73 693 114.25 679.25 128Z" fill="#7389B1" fill-rule="evenodd"/><path d="M494 86.7501 507.75 73 693 73 679.25 86.7501Z" fill="#A5BBE3" fill-rule="evenodd"/><path d="M494 86.7501 507.75 73 693 73 693 114.25 679.25 128 494 128ZM494 86.7501 679.25 86.7501 693 73M679.25 86.7501 679.25 128" stroke="#203864" stroke-width="6" stroke-miterlimit="8" fill="none" fill-rule="evenodd"/><rect x="377" y="162.819" width="43.1815" height="37.1814" fill="#8FAADC"/><path d="M420.181 162.819 482 101 482 138.181 420.181 200Z" fill="#7389B1" fill-rule="evenodd"/><path d="M377 162.819 438.819 101 482 101 420.181 162.819Z" fill="#A5BBE3" fill-rule="evenodd"/><path d="M377 162.819 438.819 101 482 101 482 138.181 420.181 200 377 200ZM377 162.819 420.181 162.819 482 101M420.181 162.819 420.181 200" stroke="#203864" stroke-width="6" stroke-miterlimit="8" fill="none" fill-rule="evenodd"/><text font-family="Cambria Math,Cambria Math_MSFontService,sans-serif" font-weight="400" font-size="48" transform="translate(556.601 261)">𝑎<tspan font-size="35" x="25.5533" y="10">1</tspan><tspan x="21.7224" y="-218">𝑏</tspan><tspan font-size="35" x="44.9157" y="-208">1</tspan><tspan x="-201.039" y="-150">𝑐</tspan><tspan font-size="35" x="-181.326" y="-141">1</tspan></text><rect x="982" y="202.751" width="185.252" height="189.249" fill="#ED7D31" fill-opacity="0.360784"/><path d="M1167.25 202.751 1229 141 1229 330.249 1167.25 392Z" fill="#BF6427" fill-rule="evenodd" fill-opacity="0.360784"/><path d="M982 202.751 1043.75 141 1229 141 1167.25 202.751Z" fill="#F19659" fill-rule="evenodd" fill-opacity="0.360784"/><path d="M982 202.751 1043.75 141 1229 141 1229 330.249 1167.25 392 982 392ZM982 202.751 1167.25 202.751 1229 141M1167.25 202.751 1167.25 392" stroke="#843C0C" stroke-width="6" stroke-miterlimit="8" stroke-dasharray="6 6" fill="none" fill-rule="evenodd"/><rect x="1033" y="158.75" width="44.25" height="187.25" fill="#8FAADC"/><path d="M1077.25 158.75 1092 144 1092 331.25 1077.25 346Z" fill="#7389B1" fill-rule="evenodd"/><path d="M1033 158.75 1047.75 144 1092 144 1077.25 158.75Z" fill="#A5BBE3" fill-rule="evenodd"/><path d="M1033 158.75 1047.75 144 1092 144 1092 331.25 1077.25 346 1033 346ZM1033 158.75 1077.25 158.75 1092 144M1077.25 158.75 1077.25 346" stroke="#203864" stroke-width="6" stroke-miterlimit="8" fill="none" fill-rule="evenodd"/><rect x="1044" y="86.7501" width="185.25" height="41.2499" fill="#8FAADC"/><path d="M1229.25 86.7501 1243 73 1243 114.25 1229.25 128Z" fill="#7389B1" fill-rule="evenodd"/><path d="M1044 86.7501 1057.75 73 1243 73 1229.25 86.7501Z" fill="#A5BBE3" fill-rule="evenodd"/><path d="M1044 86.7501 1057.75 73 1243 73 1243 114.25 1229.25 128 1044 128ZM1044 86.7501 1229.25 86.7501 1243 73M1229.25 86.7501 1229.25 128" stroke="#203864" stroke-width="6" stroke-miterlimit="8" fill="none" fill-rule="evenodd"/><rect x="927" y="162.819" width="44.1814" height="37.1814" fill="#8FAADC"/><path d="M971.181 162.819 1033 101 1033 138.181 971.181 200Z" fill="#7389B1" fill-rule="evenodd"/><path d="M927 162.819 988.819 101 1033 101 971.181 162.819Z" fill="#A5BBE3" fill-rule="evenodd"/><path d="M927 162.819 988.819 101 1033 101 1033 138.181 971.181 200 927 200ZM927 162.819 971.181 162.819 1033 101M971.181 162.819 971.181 200" stroke="#203864" stroke-width="6" stroke-miterlimit="8" fill="none" fill-rule="evenodd"/><text font-family="Cambria Math,Cambria Math_MSFontService,sans-serif" font-weight="400" font-size="48" transform="translate(1106.53 261)">𝑎<tspan font-size="35" x="26.6667" y="10">𝑟</tspan><tspan x="21.7224" y="-218">𝑏</tspan><tspan font-size="35" x="46.0291" y="-208">𝑟</tspan><tspan x="-201.039" y="-150">𝑐</tspan><tspan font-size="35" x="-180.213" y="-141">𝑟</tspan></text><path d="M739.525 253.817 755.817 253.817 755.817 238.995 762.184 238.995 762.184 253.817 778.475 253.817 778.475 260.184 762.184 260.184 762.184 275.005 755.817 275.005 755.817 260.184 739.525 260.184Z" stroke="#000000" stroke-width="1.33333" stroke-miterlimit="8" fill-rule="evenodd"/><path d="M804.5 278.5C804.5 276.843 805.843 275.5 807.5 275.5 809.157 275.5 810.5 276.843 810.5 278.5 810.5 280.157 809.157 281.5 807.5 281.5 805.843 281.5 804.5 280.157 804.5 278.5Z" stroke="#000000" stroke-width="1.33333" stroke-miterlimit="8" fill-rule="evenodd"/><path d="M825.5 278.5C825.5 276.843 826.843 275.5 828.5 275.5 830.157 275.5 831.5 276.843 831.5 278.5 831.5 280.157 830.157 281.5 828.5 281.5 826.843 281.5 825.5 280.157 825.5 278.5Z" stroke="#000000" stroke-width="1.33333" stroke-miterlimit="8" fill-rule="evenodd"/><path d="M845.5 278.5C845.5 276.843 846.843 275.5 848.5 275.5 850.157 275.5 851.5 276.843 851.5 278.5 851.5 280.157 850.157 281.5 848.5 281.5 846.843 281.5 845.5 280.157 845.5 278.5Z" stroke="#000000" stroke-width="1.33333" stroke-miterlimit="8" fill-rule="evenodd"/><path d="M877.658 253.817 894.317 253.817 894.317 238.995 900.684 238.995 900.684 253.817 917.342 253.817 917.342 260.184 900.684 260.184 900.684 275.005 894.317 275.005 894.317 260.184 877.658 260.184Z" stroke="#000000" stroke-width="1.33333" stroke-miterlimit="8" fill-rule="evenodd"/><rect x="288" y="513.499" width="43.4971" height="186.501" fill="#8FAADC"/><path d="M331.497 513.499 345.996 499 345.996 685.501 331.497 700Z" fill="#7389B1" fill-rule="evenodd"/><path d="M288 513.499 302.499 499 345.996 499 331.497 513.499Z" fill="#A5BBE3" fill-rule="evenodd"/><path d="M288 513.499 302.499 499 345.996 499 345.996 685.501 331.497 700 288 700ZM288 513.499 331.497 513.499 345.996 499M331.497 513.499 331.497 700" stroke="#203864" stroke-width="6" stroke-miterlimit="8" fill="none" fill-rule="evenodd"/><rect x="328" y="513.499" width="43.4971" height="186.501" fill="#8FAADC"/><path d="M371.497 513.499 385.996 499 385.996 685.501 371.497 700Z" fill="#7389B1" fill-rule="evenodd"/><path d="M328 513.499 342.499 499 385.996 499 371.497 513.499Z" fill="#A5BBE3" fill-rule="evenodd"/><path d="M328 513.499 342.499 499 385.996 499 385.996 685.501 371.497 700 328 700ZM328 513.499 371.497 513.499 385.996 499M371.497 513.499 371.497 700" stroke="#203864" stroke-width="6" stroke-miterlimit="8" fill="none" fill-rule="evenodd"/><rect x="725" y="565" width="184" height="41.9999" fill="#8FAADC"/><path d="M909 565 923 551 923 593 909 607Z" fill="#7389B1" fill-rule="evenodd"/><path d="M725 565 739 551 923 551 909 565Z" fill="#A5BBE3" fill-rule="evenodd"/><path d="M725 565 739 551 923 551 923 593 909 607 725 607ZM725 565 909 565 923 551M909 565 909 607" stroke="#203864" stroke-width="6" stroke-miterlimit="8" fill="none" fill-rule="evenodd"/><rect x="710" y="579.75" width="185.25" height="41.2499" fill="#8FAADC"/><path d="M895.25 579.75 909 566 909 607.25 895.25 621Z" fill="#7389B1" fill-rule="evenodd"/><path d="M710 579.75 723.75 566 909 566 895.25 579.75Z" fill="#A5BBE3" fill-rule="evenodd"/><path d="M710 579.75 723.75 566 909 566 909 607.25 895.25 621 710 621ZM710 579.75 895.25 579.75 909 566M895.25 579.75 895.25 621" stroke="#203864" stroke-width="6" stroke-miterlimit="8" fill="none" fill-rule="evenodd"/><rect x="682" y="606.75" width="184.25" height="41.25" fill="#8FAADC"/><path d="M866.25 606.75 880 593 880 634.25 866.25 648Z" fill="#7389B1" fill-rule="evenodd"/><path d="M682 606.75 695.75 593 880 593 866.25 606.75Z" fill="#A5BBE3" fill-rule="evenodd"/><path d="M682 606.75 695.75 593 880 593 880 634.25 866.25 648 682 648ZM682 606.75 866.25 606.75 880 593M866.25 606.75 866.25 648" stroke="#203864" stroke-width="6" stroke-miterlimit="8" fill="none" fill-rule="evenodd"/><rect x="420" y="513.75" width="44.2501" height="186.25" fill="#8FAADC"/><path d="M464.25 513.75 479 499 479 685.25 464.25 700Z" fill="#7389B1" fill-rule="evenodd"/><path d="M420 513.75 434.75 499 479 499 464.25 513.75Z" fill="#A5BBE3" fill-rule="evenodd"/><path d="M420 513.75 434.75 499 479 499 479 685.25 464.25 700 420 700ZM420 513.75 464.25 513.75 479 499M464.25 513.75 464.25 700" stroke="#203864" stroke-width="6" stroke-miterlimit="8" fill="none" fill-rule="evenodd"/><rect x="1124" y="642.819" width="43.1815" height="37.1815" fill="#8FAADC"/><path d="M1167.18 642.819 1229 581 1229 618.181 1167.18 680Z" fill="#7389B1" fill-rule="evenodd"/><path d="M1124 642.819 1185.82 581 1229 581 1167.18 642.819Z" fill="#A5BBE3" fill-rule="evenodd"/><path d="M1124 642.819 1185.82 581 1229 581 1229 618.181 1167.18 680 1124 680ZM1124 642.819 1167.18 642.819 1229 581M1167.18 642.819 1167.18 680" stroke="#203864" stroke-width="6" stroke-miterlimit="8" fill="none" fill-rule="evenodd"/><rect x="1124" y="604.819" width="43.1815" height="37.1815" fill="#8FAADC"/><path d="M1167.18 604.819 1229 543 1229 580.181 1167.18 642Z" fill="#7389B1" fill-rule="evenodd"/><path d="M1124 604.819 1185.82 543 1229 543 1167.18 604.819Z" fill="#A5BBE3" fill-rule="evenodd"/><path d="M1124 604.819 1185.82 543 1229 543 1229 580.181 1167.18 642 1124 642ZM1124 604.819 1167.18 604.819 1229 543M1167.18 604.819 1167.18 642" stroke="#203864" stroke-width="6" stroke-miterlimit="8" fill="none" fill-rule="evenodd"/><text font-family="Cambria Math,Cambria Math_MSFontService,sans-serif" font-weight="400" font-size="48" transform="translate(177.037 598)">𝐴<tspan font-size="35" x="30.3333" y="10">𝐼</tspan><tspan font-size="35" x="45.1133" y="10">×</tspan><tspan font-size="35" x="70.1133" y="10">𝑟</tspan></text><rect x="288" y="512.943" width="177.057" height="187.057" fill="#2F5597" fill-opacity="0.721569"/><path d="M465.057 512.943 479 499 479 686.057 465.057 700Z" fill="#264479" fill-rule="evenodd" fill-opacity="0.721569"/><path d="M288 512.943 301.943 499 479 499 465.057 512.943Z" fill="#5876AB" fill-rule="evenodd" fill-opacity="0.721569"/><rect x="682" y="609.204" width="183.796" height="41.7958" fill="#2F5597" fill-opacity="0.721569"/><path d="M865.796 609.204 923 552 923 593.796 865.796 651Z" fill="#264479" fill-rule="evenodd" fill-opacity="0.721569"/><path d="M682 609.204 739.204 552 923 552 865.796 609.204Z" fill="#5876AB" fill-rule="evenodd" fill-opacity="0.721569"/><rect x="1124" y="531.819" width="43.1815" height="37.1815" fill="#8FAADC"/><path d="M1167.18 531.819 1229 470 1229 507.181 1167.18 569Z" fill="#7389B1" fill-rule="evenodd"/><path d="M1124 531.819 1185.82 470 1229 470 1167.18 531.819Z" fill="#A5BBE3" fill-rule="evenodd"/><path d="M1124 531.819 1185.82 470 1229 470 1229 507.181 1167.18 569 1124 569ZM1124 531.819 1167.18 531.819 1229 470M1167.18 531.819 1167.18 569" stroke="#203864" stroke-width="6" stroke-miterlimit="8" fill="none" fill-rule="evenodd"/><rect x="1124" y="530.671" width="44.329" height="149.329" fill="#2F5597" fill-opacity="0.721569"/><path d="M1168.33 530.671 1229 470 1229 619.329 1168.33 680Z" fill="#264479" fill-rule="evenodd" fill-opacity="0.721569"/><path d="M1124 530.671 1184.67 470 1229 470 1168.33 530.671Z" fill="#5876AB" fill-rule="evenodd" fill-opacity="0.721569"/><text font-family="Cambria Math,Cambria Math_MSFontService,sans-serif" font-weight="400" font-size="48" transform="translate(577.568 599)">𝐵<tspan font-size="35" x="27" y="10">𝐽</tspan><tspan font-size="35" x="44.6" y="10">×</tspan><tspan font-size="35" x="69.6" y="10">𝑟</tspan><tspan x="405.686" y="3">𝐶</tspan><tspan font-size="35" x="431.54" y="12">𝐾</tspan><tspan font-size="35" x="457.766" y="12">×</tspan><tspan font-size="35" x="482.766" y="12">𝑟</tspan></text></g></svg>