<svg width="2035" height="1054" xmlns="http://www.w3.org/2000/svg" xmlns:xlink="http://www.w3.org/1999/xlink" overflow="hidden"><defs><clipPath id="clip0"><path d="M-18 57 2017 57 2017 1111-18 1111Z" fill-rule="evenodd" clip-rule="evenodd"/></clipPath></defs><g clip-path="url(#clip0)" transform="translate(18 -57)"><path d="M3.88715e-07-4.5 1890.13-4.49984 1890.13 4.50016-3.88715e-07 4.5ZM1865.41-19.6368 1899.07 0.00016358 1865.41 19.6372C1863.26 20.8894 1860.5 20.1643 1859.25 18.0176 1858 15.8708 1858.72 13.1154 1860.87 11.8632L1887.87-3.88684 1887.87 3.88717 1860.87-11.8628C1858.72-13.1151 1858-15.8705 1859.25-18.0173 1860.5-20.164 1863.26-20.8891 1865.41-19.6368Z" fill="#5B9BD5" transform="matrix(1 0 0 -1 38.5 776.5)"/><path d="M0 0 1685.38 614.899" stroke="#ED7D31" stroke-width="6" stroke-miterlimit="8" fill="none" fill-rule="evenodd" transform="matrix(1 0 0 -1 277 910.899)"/><path d="M1980.55 139.411C1629.21 490.582 1039.87 664.286 431.659 595.934" stroke="#5B9BD5" stroke-width="12.5" stroke-miterlimit="8" fill="none" fill-rule="evenodd"/><path d="M4.5-8.45908e-07 4.50016 863.748-4.49984 863.748-4.5 8.45908e-07ZM19.6372 839.016 0.0001636 872.68-19.6368 839.016C-20.8891 836.87-20.164 834.114-18.0173 832.862-15.8705 831.61-13.1151 832.335-11.8628 834.482L3.88717 861.482-3.88684 861.482 11.8632 834.482C13.1154 832.335 15.8708 831.61 18.0176 832.862 20.1643 834.114 20.8894 836.87 19.6372 839.016Z" fill="#5B9BD5" transform="matrix(1 0 0 -1 171.5 1081.16)"/><text font-family="CMU Classical Serif,CMU Classical Serif_MSFontService,sans-serif" font-style="italic" font-weight="500" font-size="125" transform="translate(1883.47 878)">x<tspan font-size="83" x="-1850.58" y="-693">f</tspan><tspan font-size="83" x="-1825.06" y="-693">(x</tspan><tspan font-size="83" x="-1752.4" y="-693">)</tspan></text><rect x="61" y="791" width="95" height="166" fill="#FFFFFF" fill-opacity="0.690196"/><text font-family="CMU Classical Serif,CMU Classical Serif_MSFontService,sans-serif" font-style="italic" font-weight="500" font-size="125" transform="translate(76.3137 908)">0</text><path d="M0 0 1586.43 182.243" stroke="#ED7D31" stroke-width="6" stroke-miterlimit="8" fill="none" fill-rule="evenodd" transform="matrix(1 0 0 -1 362 671.243)"/><path d="M0 0 1403.08 912.126" stroke="#ED7D31" stroke-width="6" stroke-miterlimit="8" fill="none" fill-rule="evenodd" transform="matrix(1 0 0 -1 554 1107.13)"/><text font-family="Open Sans,Open Sans_MSFontService,sans-serif" font-weight="400" font-size="50" transform="translate(550.002 120)">Function<tspan x="1.43536" y="75">Global linear </tspan><tspan x="1.43536" y="135">lower bound</tspan></text><path d="M392 103 492.935 103" stroke="#5B9BD5" stroke-width="6" stroke-miterlimit="8" fill="none" fill-rule="evenodd"/><path d="M392 208 492.935 208" stroke="#ED7D31" stroke-width="6" stroke-miterlimit="8" fill="none" fill-rule="evenodd"/></g></svg>