<svg width="2078" height="1218" xmlns="http://www.w3.org/2000/svg" xmlns:xlink="http://www.w3.org/1999/xlink" overflow="hidden"><defs><clipPath id="clip0"><path d="M-44-26 2034-26 2034 1192-44 1192Z" fill-rule="evenodd" clip-rule="evenodd"/></clipPath></defs><g clip-path="url(#clip0)" transform="translate(44 26)"><path d="M3-5.28909e-07 3.00016 924.516-2.99984 924.516-3 5.28909e-07ZM13.0915 908.027 0.000163816 930.469-13.0912 908.027C-13.926 906.595-13.4426 904.758-12.0115 903.924-10.5803 903.089-8.74335 903.572-7.9085 905.003L2.5915 923.003-2.59117 923.003 7.90882 905.003C8.74366 903.572 10.5806 903.089 12.0118 903.924 13.4429 904.758 13.9263 906.595 13.0915 908.027Z" fill="#5B9BD5" transform="matrix(1 0 0 -1 170 1066.45)"/><path d="M2.59143e-07-3 1893.11-2.99984 1893.11 3.00016-2.59143e-07 3ZM1876.62-13.0912 1899.06 0.000163734 1876.62 13.0915C1875.19 13.9263 1873.35 13.4429 1872.52 12.0118 1871.68 10.5806 1872.17 8.74367 1873.6 7.90883L1891.6-2.59117 1891.6 2.5915 1873.6-7.9085C1872.17-8.74334 1871.68-10.5803 1872.52-12.0115 1873.35-13.4426 1875.19-13.926 1876.62-13.0912Z" fill="#5B9BD5" transform="matrix(1 0 0 -1 37 971)"/><text font-family="CMU Classical Serif,CMU Classical Serif_MSFontService,sans-serif" font-style="italic" font-weight="500" font-size="125" transform="translate(1882.73 1073)">x<tspan font-size="83" x="57.8125" y="30">1</tspan><tspan x="-1850.58" y="-954">x</tspan><tspan font-size="83" x="-1792.77" y="-924">2</tspan></text><path d="M1681.54 498.113C1590.22 796.341 1235.92 974.255 890.166 895.494 673.529 846.145 501.868 703.695 436.323 518.881" stroke="#5B9BD5" stroke-width="6" stroke-miterlimit="8" fill="none" fill-rule="evenodd"/><text font-family="Open Sans,Open Sans_MSFontService,sans-serif" font-weight="400" font-size="50" transform="translate(1791.67 880)">Epi <tspan font-style="italic" x="84.375" y="0">f(x)</tspan></text><path d="M1609.5 864.5 1710.43 864.5" stroke="#70AD47" stroke-width="5" stroke-miterlimit="8" fill="none" fill-rule="evenodd"/><path d="M0 0 0.000164042 402.601" stroke="#00B050" stroke-width="5" stroke-miterlimit="8" fill="none" fill-rule="evenodd" transform="matrix(1 0 0 -1 463.5 577.101)"/><path d="M0 0 0.000164042 582.898" stroke="#00B050" stroke-width="5" stroke-miterlimit="8" fill="none" fill-rule="evenodd" transform="matrix(1 0 0 -1 607.5 757.398)"/><path d="M0 0 0.000164042 675.422" stroke="#00B050" stroke-width="5" stroke-miterlimit="8" fill="none" fill-rule="evenodd" transform="matrix(1 0 0 -1 757.5 849.922)"/><path d="M0 0 0.000164042 727.291" stroke="#00B050" stroke-width="5" stroke-miterlimit="8" fill="none" fill-rule="evenodd" transform="matrix(1 0 0 -1 905.5 901.791)"/><path d="M0 0 0.000164042 739.906" stroke="#00B050" stroke-width="5" stroke-miterlimit="8" fill="none" fill-rule="evenodd" transform="matrix(1 0 0 -1 1056.5 914.406)"/><path d="M0 0 0.000164042 727.291" stroke="#00B050" stroke-width="5" stroke-miterlimit="8" fill="none" fill-rule="evenodd" transform="matrix(1 0 0 -1 1206.5 901.791)"/><path d="M0 0 0.000164042 675.422" stroke="#00B050" stroke-width="5" stroke-miterlimit="8" fill="none" fill-rule="evenodd" transform="matrix(1 0 0 -1 1354.5 849.922)"/><path d="M0 0 0.000164042 582.898" stroke="#00B050" stroke-width="5" stroke-miterlimit="8" fill="none" fill-rule="evenodd" transform="matrix(1 0 0 -1 1504.5 757.398)"/><path d="M0 0 0.000164042 402.601" stroke="#00B050" stroke-width="5" stroke-miterlimit="8" fill="none" fill-rule="evenodd" transform="matrix(1 0 0 -1 1648.5 577.101)"/><text font-family="Open Sans,Open Sans_MSFontService,sans-serif" font-style="italic" font-weight="400" font-size="50" transform="translate(1840.64 803)">f(x)</text><path d="M1606 786 1706.93 786" stroke="#5B9BD5" stroke-width="6" stroke-miterlimit="8" fill="none" fill-rule="evenodd"/></g></svg>