<svg width="1280" height="720" xmlns="http://www.w3.org/2000/svg" xmlns:xlink="http://www.w3.org/1999/xlink" overflow="hidden"><defs><clipPath id="clip0"><rect x="0" y="0" width="1280" height="720"/></clipPath></defs><g clip-path="url(#clip0)"><rect x="0" y="0" width="1280" height="720" fill="#FFFFFF"/><path d="M2-3.17437e-07 2.0001 657.508-1.9999 657.508-2 3.17437e-07ZM8.72766 646.514 0.000104769 661.476-8.72746 646.514C-9.28402 645.56-8.96174 644.336-8.00764 643.779-7.05354 643.223-5.8289 643.545-5.27234 644.499L1.72766 656.499-1.72745 656.499 5.27254 644.499C5.8291 643.545 7.05374 643.223 8.00784 643.779 8.96195 644.336 9.28422 645.56 8.72766 646.514Z" fill="#5B9BD5" transform="matrix(1 0 0 -1 640 682.467)"/><path d="M306 358 980.514 358 980.514 362 306 362ZM969.509 351.273 984.471 360 969.509 368.728C968.555 369.284 967.331 368.962 966.774 368.008 966.218 367.054 966.54 365.829 967.494 365.273L979.494 358.273 979.494 361.728 967.494 354.728C966.54 354.171 966.218 352.946 966.774 351.992 967.331 351.038 968.555 350.716 969.509 351.273Z" fill="#5B9BD5"/><text font-family="CMU Classical Serif,CMU Classical Serif_MSFontService,sans-serif" font-style="italic" font-weight="500" font-size="80" transform="translate(979.715 425)">x<tspan font-size="53" x="37" y="19">1</tspan><tspan font-size="80" x="-428.373" y="-379">x</tspan><tspan font-size="53" x="-391.373" y="-360">2</tspan></text><path d="M442 360.5C442 252.528 529.976 165 638.5 165 747.024 165 835 252.528 835 360.5 835 468.472 747.024 556 638.5 556 529.976 556 442 468.472 442 360.5Z" stroke="#ED7D31" stroke-width="8" stroke-miterlimit="8" fill="none" fill-rule="evenodd"/><text font-family="CMU Classical Serif,CMU Classical Serif_MSFontService,sans-serif" font-style="italic" font-weight="500" font-size="80" transform="translate(586.583 422)">0</text><path d="M2-3.17437e-07 2.0001 657.508-1.9999 657.508-2 3.17437e-07ZM8.72766 646.514 0.000104769 661.476-8.72746 646.514C-9.28402 645.56-8.96174 644.336-8.00764 643.779-7.05354 643.223-5.8289 643.545-5.27234 644.499L1.72766 656.499-1.72745 656.499 5.27254 644.499C5.8291 643.545 7.05374 643.223 8.00784 643.779 8.96195 644.336 9.28422 645.56 8.72766 646.514Z" fill="#5B9BD5" transform="matrix(1 0 0 -1 640 682.467)"/><path d="M306 358 980.514 358 980.514 362 306 362ZM969.509 351.273 984.471 360 969.509 368.728C968.555 369.284 967.331 368.962 966.774 368.008 966.218 367.054 966.54 365.829 967.494 365.273L979.494 358.273 979.494 361.728 967.494 354.728C966.54 354.171 966.218 352.946 966.774 351.992 967.331 351.038 968.555 350.716 969.509 351.273Z" fill="#5B9BD5"/><text font-family="CMU Classical Serif,CMU Classical Serif_MSFontService,sans-serif" font-style="italic" font-weight="500" font-size="80" transform="translate(979.715 425)">x<tspan font-size="53" x="37" y="19">1</tspan><tspan font-size="80" x="-428.373" y="-379">x</tspan><tspan font-size="53" x="-391.373" y="-360">2</tspan><tspan font-size="80" x="-393.132" y="-3">0</tspan></text><path d="M334 346 740.648 747.463" stroke="#1F4E79" stroke-width="8" stroke-miterlimit="8" fill="none" fill-rule="evenodd"/><path d="M357 272 810.754 719.969" stroke="#1F4E79" stroke-width="6" stroke-miterlimit="8" fill="none" fill-rule="evenodd"/><path d="M357 175 862.551 674.105" stroke="#1F4E79" stroke-width="4" stroke-miterlimit="8" fill="none" fill-rule="evenodd"/><path d="M352.5 79.5001 928.5 648.156" stroke="#1F4E79" stroke-width="3" stroke-miterlimit="8" fill="none" fill-rule="evenodd"/><path d="M490.5 21.5001 958.775 483.805" stroke="#1F4E79" stroke-width="1.33333" stroke-miterlimit="8" fill="none" fill-rule="evenodd"/><path d="M421 53 941.356 566.721" stroke="#1F4E79" stroke-width="2" stroke-miterlimit="8" fill="none" fill-rule="evenodd"/><path d="M549.5-16.5001 953.7 382.546" stroke="#1F4E79" stroke-miterlimit="8" fill="none" fill-rule="evenodd"/><path d="M480.5 221C480.5 212.44 487.44 205.5 496 205.5 504.56 205.5 511.5 212.44 511.5 221 511.5 229.56 504.56 236.5 496 236.5 487.44 236.5 480.5 229.56 480.5 221Z" stroke="#41719C" stroke-width="1.33333" stroke-miterlimit="8" fill="#FF0000" fill-rule="evenodd"/><path d="M482.419 211.969 402.505 133.842 408.097 128.121 488.011 206.248ZM399.773 142.358 391 117 416.55 125.197Z" fill="#FF0000"/><path d="M639 164.733 639 73 647 73 647 164.733ZM631 77 643 53 655 77Z" fill="#FF0000"/><path d="M643 555.941 644.212 637.76 636.213 637.879 635 556.059ZM652.152 633.642 640.509 657.818 628.155 633.998Z" fill="#FF0000"/><path d="M780.833 496.176 856.801 572.388 851.135 578.036 775.167 501.824ZM859.643 563.907 868.088 589.376 842.646 580.85Z" fill="#FF0000"/><path d="M835 356 922.203 356 922.203 364 835 364ZM918.203 348 942.203 360 918.203 372Z" fill="#FF0000"/><path d="M2.69755-2.95351 80.3645 67.9828 74.9694 73.8898-2.69755 2.95351ZM82.8062 59.3782 92.4345 84.424 66.6208 77.0992Z" fill="#FF0000" transform="matrix(1 0 0 -1 778 222.424)"/><path d="M3.06736e-06-4 116.908-3.99991 116.908 4.00009-3.06736e-06 4ZM112.908-11.9999 136.908 0.000104987 112.908 12.0001Z" fill="#FF0000" transform="matrix(-1 0 0 1 442.908 360)"/><path d="M2.85138-2.80529 98.0914 93.9996 92.3886 99.6102-2.85138 2.80529ZM100.989 85.5377 109.266 111.062 83.8806 102.369Z" fill="#FF0000" transform="matrix(-1 0 0 1 500.266 499)"/><text font-family="Cambria Math,Cambria Math_MSFontService,sans-serif" font-weight="400" font-size="59" transform="translate(212.275 139)">∇<tspan font-family="CMU Classical Serif,CMU Classical Serif_MSFontService,sans-serif" font-style="italic" font-weight="500" font-size="59" x="35" y="0">h(</tspan><tspan font-family="CMU Classical Serif,CMU Classical Serif_MSFontService,sans-serif" font-style="italic" font-weight="500" font-size="59" x="89" y="0">x</tspan><tspan font-family="CMU Classical Serif,CMU Classical Serif_MSFontService,sans-serif" font-style="italic" font-weight="500" font-size="39" x="116.167" y="14">F</tspan><tspan font-family="CMU Classical Serif,CMU Classical Serif_MSFontService,sans-serif" font-style="italic" font-weight="500" font-size="59" x="141.667" y="0">)</tspan></text></g></svg>