<svg width="1280" height="720" xmlns="http://www.w3.org/2000/svg" xmlns:xlink="http://www.w3.org/1999/xlink" overflow="hidden"><defs><clipPath id="clip0"><rect x="0" y="0" width="1280" height="720"/></clipPath></defs><g clip-path="url(#clip0)"><rect x="0" y="0" width="1280" height="720" fill="#FFFFFF"/><path d="M2-3.17437e-07 2.0001 657.508-1.9999 657.508-2 3.17437e-07ZM8.72766 646.514 0.000104769 661.476-8.72746 646.514C-9.28402 645.56-8.96174 644.336-8.00764 643.779-7.05354 643.223-5.8289 643.545-5.27234 644.499L1.72766 656.499-1.72745 656.499 5.27254 644.499C5.8291 643.545 7.05374 643.223 8.00784 643.779 8.96195 644.336 9.28422 645.56 8.72766 646.514Z" fill="#5B9BD5" transform="matrix(1 0 0 -1 640 682.467)"/><path d="M306 358 980.514 358 980.514 362 306 362ZM969.509 351.273 984.471 360 969.509 368.728C968.555 369.284 967.331 368.962 966.774 368.008 966.218 367.054 966.54 365.829 967.494 365.273L979.494 358.273 979.494 361.728 967.494 354.728C966.54 354.171 966.218 352.946 966.774 351.992 967.331 351.038 968.555 350.716 969.509 351.273Z" fill="#5B9BD5"/><text font-family="CMU Classical Serif,CMU Classical Serif_MSFontService,sans-serif" font-style="italic" font-weight="500" font-size="80" transform="translate(979.715 425)">x<tspan font-size="53" x="37" y="19">1</tspan><tspan font-size="80" x="-428.373" y="-379">x</tspan><tspan font-size="53" x="-391.373" y="-360">2</tspan></text><path d="M442 360.5C442 252.528 529.976 165 638.5 165 747.024 165 835 252.528 835 360.5 835 468.472 747.024 556 638.5 556 529.976 556 442 468.472 442 360.5Z" stroke="#ED7D31" stroke-width="8" stroke-miterlimit="8" fill="none" fill-rule="evenodd"/><text font-family="CMU Classical Serif,CMU Classical Serif_MSFontService,sans-serif" font-style="italic" font-weight="500" font-size="80" transform="translate(586.583 422)">0</text><path d="M2-3.17437e-07 2.0001 657.508-1.9999 657.508-2 3.17437e-07ZM8.72766 646.514 0.000104769 661.476-8.72746 646.514C-9.28402 645.56-8.96174 644.336-8.00764 643.779-7.05354 643.223-5.8289 643.545-5.27234 644.499L1.72766 656.499-1.72745 656.499 5.27254 644.499C5.8291 643.545 7.05374 643.223 8.00784 643.779 8.96195 644.336 9.28422 645.56 8.72766 646.514Z" fill="#5B9BD5" transform="matrix(1 0 0 -1 640 682.467)"/><path d="M306 358 980.514 358 980.514 362 306 362ZM969.509 351.273 984.471 360 969.509 368.728C968.555 369.284 967.331 368.962 966.774 368.008 966.218 367.054 966.54 365.829 967.494 365.273L979.494 358.273 979.494 361.728 967.494 354.728C966.54 354.171 966.218 352.946 966.774 351.992 967.331 351.038 968.555 350.716 969.509 351.273Z" fill="#5B9BD5"/><text font-family="CMU Classical Serif,CMU Classical Serif_MSFontService,sans-serif" font-style="italic" font-weight="500" font-size="80" transform="translate(979.715 425)">x<tspan font-size="53" x="37" y="19">1</tspan><tspan font-size="80" x="-428.373" y="-379">x</tspan><tspan font-size="53" x="-391.373" y="-360">2</tspan><tspan font-size="80" x="-393.132" y="-3">0</tspan></text><path d="M334 346 740.648 747.463" stroke="#1F4E79" stroke-width="8" stroke-miterlimit="8" fill="none" fill-rule="evenodd"/><path d="M357 272 810.754 719.969" stroke="#1F4E79" stroke-width="6" stroke-miterlimit="8" fill="none" fill-rule="evenodd"/><path d="M357 175 862.551 674.105" stroke="#1F4E79" stroke-width="4" stroke-miterlimit="8" fill="none" fill-rule="evenodd"/><path d="M352.5 79.5001 928.5 648.156" stroke="#1F4E79" stroke-width="3" stroke-miterlimit="8" fill="none" fill-rule="evenodd"/><path d="M490.5 21.5001 958.775 483.805" stroke="#1F4E79" stroke-width="1.33333" stroke-miterlimit="8" fill="none" fill-rule="evenodd"/><path d="M421 53 941.356 566.721" stroke="#1F4E79" stroke-width="2" stroke-miterlimit="8" fill="none" fill-rule="evenodd"/><path d="M549.5-16.5001 953.7 382.546" stroke="#1F4E79" stroke-miterlimit="8" fill="none" fill-rule="evenodd"/><path d="M480.5 221C480.5 212.44 487.44 205.5 496 205.5 504.56 205.5 511.5 212.44 511.5 221 511.5 229.56 504.56 236.5 496 236.5 487.44 236.5 480.5 229.56 480.5 221Z" stroke="#41719C" stroke-width="1.33333" stroke-miterlimit="8" fill="#FF0000" fill-rule="evenodd"/><path d="M487.796 206.14 565.596 282.2 560.003 287.92 482.204 211.86ZM568.328 273.683 577.101 299.041 551.551 290.844Z" fill="#FF0000"/><path d="M4-1.17963e-05 4.00026 86.8001-3.99974 86.8001-4 1.17963e-05ZM12.0002 82.8001 0.000314961 106.8-11.9998 82.8001Z" fill="#FF0000" transform="matrix(-1 0 0 1 643 165)"/><path d="M3.99988-0.0311431 4.59881 76.8928-3.40095 76.9551-3.99988 0.0311431ZM12.5674 72.8307 0.754646 96.9234-11.4319 73.0175Z" fill="#FF0000" transform="matrix(1 0 0 -1 639 555.923)"/><path d="M775.124 501.001 720.287 445.989 725.952 440.341 780.79 495.354ZM717.445 454.469 709 429 734.442 437.526Z" fill="#FF0000"/><path d="M4.43465e-06-4 74.6968-3.99992 74.6968 4.00008-4.43465e-06 4ZM70.6968-11.9999 94.6968 0.000104987 70.6968 12.0001Z" fill="#FF0000" transform="matrix(-1 0 0 1 834.697 360)"/><path d="M2.69756-2.9535 69.4314 57.9972 64.0362 63.9043-2.69756 2.9535ZM71.873 49.3927 81.5013 74.4385 55.6876 67.1137Z" fill="#FF0000" transform="matrix(-1 0 0 1 777.501 222)"/><path d="M442 356 521.296 356 521.296 364 442 364ZM517.296 348 541.296 360 517.296 372Z" fill="#FF0000"/><path d="M2.85138-2.80528 56.8841 52.1154 51.1813 57.7259-2.85138 2.80528ZM59.7816 43.6534 68.0591 69.1775 42.6733 60.4851Z" fill="#FF0000" transform="matrix(1 0 0 -1 500 498.178)"/><text font-family="CMU Serif,CMU Serif_MSFontService,sans-serif" font-weight="500" font-size="59" transform="translate(212.275 139)">-<tspan font-family="Cambria Math,Cambria Math_MSFontService,sans-serif" font-weight="400" font-size="59" x="19.5" y="0">∇</tspan><tspan font-family="CMU Classical Serif,CMU Classical Serif_MSFontService,sans-serif" font-style="italic" font-size="59" x="54.5" y="0">h(</tspan><tspan font-family="CMU Classical Serif,CMU Classical Serif_MSFontService,sans-serif" font-style="italic" font-size="59" x="108.5" y="0">x</tspan><tspan font-family="CMU Classical Serif,CMU Classical Serif_MSFontService,sans-serif" font-style="italic" font-size="39" x="135.667" y="14">F</tspan><tspan font-family="CMU Classical Serif,CMU Classical Serif_MSFontService,sans-serif" font-style="italic" font-size="59" x="161.167" y="0">)</tspan></text></g></svg>