<svg width="1280" height="720" xmlns="http://www.w3.org/2000/svg" xmlns:xlink="http://www.w3.org/1999/xlink" overflow="hidden"><defs><clipPath id="clip0"><rect x="0" y="0" width="1280" height="720"/></clipPath><linearGradient x1="365.256" y1="213.313" x2="184.282" y2="432.873" gradientUnits="userSpaceOnUse" spreadMethod="reflect" id="fill1"><stop offset="0" stop-color="#F7BDA4" stop-opacity="0.588235"/><stop offset="0.5" stop-color="#F5B195" stop-opacity="0.541176"/><stop offset="1" stop-color="#F8A581" stop-opacity="0.458824"/></linearGradient><linearGradient x1="1107.35" y1="408.107" x2="898.533" y2="203.887" gradientUnits="userSpaceOnUse" spreadMethod="reflect" id="fill2"><stop offset="0" stop-color="#F7BDA4" stop-opacity="0.588235"/><stop offset="0.5" stop-color="#F5B195" stop-opacity="0.541176"/><stop offset="1" stop-color="#F8A581" stop-opacity="0.458824"/></linearGradient></defs><g clip-path="url(#clip0)"><rect x="0" y="0" width="1280" height="720" fill="#FFFFFF"/><path d="M2-4.34229e-07 2.0001 479.597-1.9999 479.597-2 4.34229e-07ZM8.72766 468.603 0.000104812 483.565-8.72746 468.603C-9.28402 467.649-8.96174 466.424-8.00764 465.868-7.05354 465.311-5.8289 465.634-5.27234 466.588L1.72766 478.588-1.72745 478.588 5.27254 466.588C5.8291 465.634 7.05374 465.311 8.00784 465.868 8.96195 466.424 9.28422 467.649 8.72766 468.603Z" fill="#5B9BD5" transform="matrix(1 0 0 -1 220 601.555)"/><path d="M2 358 503.746 358 503.746 362 2 362ZM492.753 351.273 507.714 360 492.753 368.728C491.799 369.284 490.574 368.962 490.017 368.008 489.461 367.054 489.783 365.829 490.737 365.273L502.737 358.273 502.737 361.728 490.737 354.728C489.783 354.171 489.461 352.946 490.017 351.992 490.574 351.038 491.799 350.716 492.753 351.273Z" fill="#5B9BD5"/><text font-family="CMU Classical Serif,CMU Classical Serif_MSFontService,sans-serif" font-style="italic" font-weight="500" font-size="80" transform="translate(493.335 422)">x<tspan font-size="53" x="37" y="19">1</tspan><tspan font-size="80" x="-334.95" y="-351">x</tspan><tspan font-size="53" x="-297.95" y="-332">2</tspan><tspan font-size="80" x="-270.309" y="0">0</tspan></text><path d="M14 349 360.778 691.357" stroke="#1F4E79" stroke-width="8" stroke-miterlimit="8" fill="none" fill-rule="evenodd"/><path d="M19 257 392.86 626.094" stroke="#1F4E79" stroke-width="6" stroke-miterlimit="8" fill="none" fill-rule="evenodd"/><path d="M20 160 436.932 571.616" stroke="#1F4E79" stroke-width="4" stroke-miterlimit="8" fill="none" fill-rule="evenodd"/><path d="M60.5001 109.5 484.428 528.023" stroke="#1F4E79" stroke-width="3" stroke-miterlimit="8" fill="none" fill-rule="evenodd"/><path d="M101 56 491.875 441.892" stroke="#1F4E79" stroke-width="2" stroke-miterlimit="8" fill="none" fill-rule="evenodd"/><text font-family="CMU Classical Serif,CMU Classical Serif_MSFontService,sans-serif" font-style="italic" font-weight="500" font-size="59" transform="translate(28.1989 522)">-<tspan font-family="Cambria Math,Cambria Math_MSFontService,sans-serif" font-style="normal" font-weight="400" font-size="59" x="21" y="0">∇</tspan>f</text><path d="M128.094 310.076C137.349 277.099 146.886 205.26 179.278 185.091 211.67 164.921 278.273 169.279 322.447 189.058 366.62 208.837 432.233 263.136 444.316 303.766 456.4 344.396 414.902 401.554 394.947 432.838 374.992 464.123 344.672 488.592 324.585 491.474 304.499 494.356 270.671 473.817 274.428 450.131 278.184 426.445 356.918 380.974 347.124 349.358 337.33 317.742 243.112 257.793 215.662 260.438 188.212 263.082 197.742 344.805 182.423 365.224 167.104 385.643 133.122 391.759 123.749 382.953 114.376 374.148 118.839 343.053 128.094 310.076Z" stroke="#ED7D31" stroke-width="0.666667" stroke-miterlimit="8" fill="url(#fill1)" fill-rule="evenodd"/><path d="M2.87557-2.78049 57.9736 54.2017 52.2224 59.7626-2.87557 2.78049ZM60.9442 45.7651 69.0004 71.36 43.6908 62.448Z" fill="#2E75B6" transform="matrix(-1 0 0 1 124 383)"/><text font-family="CMU Classical Serif,CMU Classical Serif_MSFontService,sans-serif" font-style="italic" font-weight="500" font-size="59" transform="translate(186.5 613)">-<tspan font-family="Cambria Math,Cambria Math_MSFontService,sans-serif" font-style="normal" font-weight="400" font-size="59" x="21" y="0">∇</tspan>f</text><path d="M2.87557-2.78049 57.9736 54.2017 52.2224 59.7626-2.87557 2.78049ZM60.9442 45.7651 69.0004 71.36 43.6908 62.448Z" fill="#2E75B6" transform="matrix(-1 0 0 1 282 474)"/><text font-family="CMU Classical Serif,CMU Classical Serif_MSFontService,sans-serif" font-style="italic" font-weight="500" font-size="80" transform="translate(281.416 272)">S</text><path d="M0.659008-0.10076 7.72458 46.1105 6.40656 46.312-0.659008 0.10076ZM10.8181 44.2887 8.07318 52.8014 2.91 45.4978Z" fill="#ED7D31" transform="matrix(1 0 0 -1 123.5 381.301)"/><path d="M0.306556-0.592003 37.2528 18.5398 36.6397 19.7238-0.306556 0.592003ZM37.6015 14.9667 42.8662 22.1974 33.9229 22.0707Z" fill="#ED7D31" transform="matrix(1 0 0 -1 124.5 383.697)"/><path d="M0.556499-0.367088 25.3311 37.1908 24.2181 37.9249-0.556499 0.367088ZM27.3794 34.2423 28.4455 43.1228 20.7014 38.6474Z" fill="#ED7D31" transform="matrix(1 0 0 -1 124.5 383.623)"/><text fill="#ED7D31" font-family="CMU Classical Serif,CMU Classical Serif_MSFontService,sans-serif" font-style="italic" font-weight="500" font-size="59" transform="translate(147.049 333)">d</text><path d="M0.650847-0.144369 6.42867 25.9033 5.12698 26.192-0.650847 0.144369ZM9.39417 23.8797 7.22152 32.5561 1.58401 25.6122Z" fill="#ED7D31" transform="matrix(1 0 0 -1 282.5 472.056)"/><path d="M283.504 473.833 315.786 474.01 315.779 475.344 283.496 475.167ZM314.471 470.67 322.449 474.713 314.427 478.67Z" fill="#ED7D31"/><path d="M0.338694-0.574222 37.6993 21.4623 37.0219 22.6107-0.338694 0.574222ZM38.2443 17.9137 43.1028 25.4234 34.18 24.8044Z" fill="#ED7D31" transform="matrix(1 0 0 -1 283.5 473.923)"/><text fill="#ED7D31" font-family="CMU Classical Serif,CMU Classical Serif_MSFontService,sans-serif" font-style="italic" font-weight="500" font-size="59" transform="translate(329.121 455)">d<tspan fill="#000000" font-size="59" x="92.8503" y="-386">f(x) = x</tspan><tspan fill="#000000" font-size="39" x="300.184" y="-372">1</tspan><tspan fill="#000000" font-size="59" x="320.184" y="-386">+</tspan><tspan fill="#000000" font-size="59" x="365.184" y="-386">x</tspan><tspan fill="#000000" font-size="39" x="392.35" y="-372">2</tspan></text><path d="M2-4.34229e-07 2.0001 479.597-1.9999 479.597-2 4.34229e-07ZM8.72766 468.603 0.000104812 483.565-8.72746 468.603C-9.28402 467.649-8.96174 466.424-8.00764 465.868-7.05354 465.311-5.8289 465.634-5.27234 466.588L1.72766 478.588-1.72745 478.588 5.27254 466.588C5.8291 465.634 7.05374 465.311 8.00784 465.868 8.96195 466.424 9.28422 467.649 8.72766 468.603Z" fill="#5B9BD5" transform="matrix(1 0 0 -1 940 601.555)"/><path d="M721 358 1222.75 358 1222.75 362 721 362ZM1211.75 351.273 1226.71 360 1211.75 368.728C1210.8 369.284 1209.57 368.962 1209.02 368.008 1208.46 367.054 1208.78 365.829 1209.74 365.273L1221.74 358.273 1221.74 361.728 1209.74 354.728C1208.78 354.171 1208.46 352.946 1209.02 351.992 1209.57 351.038 1210.8 350.716 1211.75 351.273Z" fill="#5B9BD5"/><text font-family="CMU Classical Serif,CMU Classical Serif_MSFontService,sans-serif" font-style="italic" font-weight="500" font-size="80" transform="translate(1212.74 422)">x<tspan font-size="53" x="37" y="19">1</tspan><tspan font-size="80" x="-334.95" y="-351">x</tspan><tspan font-size="53" x="-297.95" y="-332">2</tspan><tspan font-size="80" x="-270.309" y="0">0</tspan></text><path d="M733 349 1079.78 691.357" stroke="#1F4E79" stroke-width="8" stroke-miterlimit="8" fill="none" fill-rule="evenodd"/><path d="M739 257 1112.86 626.094" stroke="#1F4E79" stroke-width="6" stroke-miterlimit="8" fill="none" fill-rule="evenodd"/><path d="M740 161 1156.93 572.616" stroke="#1F4E79" stroke-width="4" stroke-miterlimit="8" fill="none" fill-rule="evenodd"/><path d="M815.5 145.5 1203.39 528.44" stroke="#1F4E79" stroke-width="3" stroke-miterlimit="8" fill="none" fill-rule="evenodd"/><path d="M842 78 1210.7 441.999" stroke="#1F4E79" stroke-width="2" stroke-miterlimit="8" fill="none" fill-rule="evenodd"/><text font-family="CMU Classical Serif,CMU Classical Serif_MSFontService,sans-serif" font-style="italic" font-weight="500" font-size="59" transform="translate(781.383 583)">-<tspan font-family="Cambria Math,Cambria Math_MSFontService,sans-serif" font-style="normal" font-weight="400" font-size="59" x="21" y="0">∇</tspan>f</text><path d="M1133.67 172.321C1191.34 228.714 1179.55 334.279 1107.35 408.107 1035.15 481.934 929.875 496.067 872.211 439.673 814.547 383.279 826.332 277.714 898.533 203.887 970.735 130.059 1076.01 115.927 1133.67 172.321Z" stroke="#ED7D31" stroke-width="0.666667" stroke-miterlimit="8" fill="url(#fill2)" fill-rule="evenodd"/><path d="M2.91103-2.74334 58.9739 56.7465 53.1518 62.2332-2.91103 2.74334ZM62.0526 48.3488 69.7795 74.045 44.5864 64.8089Z" fill="#2E75B6" transform="matrix(-1 0 0 1 871.78 440)"/><text font-family="CMU Classical Serif,CMU Classical Serif_MSFontService,sans-serif" font-style="italic" font-weight="500" font-size="80" transform="translate(1000.82 272)">S</text><path d="M872.771 439.891 914.587 458.484 914.045 459.702 872.229 441.109ZM914.723 454.896 920.407 461.802 911.472 462.206Z" fill="#ED7D31"/><path d="M0.309999-0.590207 291.411 152.307 290.791 153.488-0.309999 0.590207ZM291.78 148.736 297.002 155.997 288.06 155.818Z" fill="#ED7D31" transform="matrix(1 0 0 -1 872.5 440.497)"/><path d="M0.578838-0.330744 130.928 227.794 129.77 228.455-0.578838 0.330744ZM133.16 224.983 133.656 233.913 126.214 228.952Z" fill="#ED7D31" transform="matrix(1 0 0 -1 872.5 440.413)"/><text fill="#ED7D31" font-family="CMU Classical Serif,CMU Classical Serif_MSFontService,sans-serif" font-style="italic" font-weight="500" font-size="59" transform="translate(981.667 185)">d<tspan font-size="59" x="50.9999" y="0">= x </tspan><tspan font-size="59" x="165.167" y="0">–</tspan><tspan font-size="59" x="216.167" y="0">x*</tspan></text><path d="M115.5 383C115.5 378.306 119.306 374.5 124 374.5 128.694 374.5 132.5 378.306 132.5 383 132.5 387.694 128.694 391.5 124 391.5 119.306 391.5 115.5 387.694 115.5 383Z" stroke="#41719C" stroke-width="1.33333" stroke-miterlimit="8" fill="#FF0000" fill-rule="evenodd"/><path d="M272.5 474C272.5 469.306 276.306 465.5 281 465.5 285.694 465.5 289.5 469.306 289.5 474 289.5 478.694 285.694 482.5 281 482.5 276.306 482.5 272.5 478.694 272.5 474Z" stroke="#41719C" stroke-width="1.33333" stroke-miterlimit="8" fill="#FF0000" fill-rule="evenodd"/><path d="M864.5 441C864.5 436.306 868.306 432.5 873 432.5 877.694 432.5 881.5 436.306 881.5 441 881.5 445.694 877.694 449.5 873 449.5 868.306 449.5 864.5 445.694 864.5 441Z" stroke="#41719C" stroke-width="1.33333" stroke-miterlimit="8" fill="#FF0000" fill-rule="evenodd"/><text fill="#ED7D31" font-family="CMU Classical Serif,CMU Classical Serif_MSFontService,sans-serif" font-style="italic" font-weight="500" font-size="59" transform="translate(297.415 527)">x*<tspan font-size="59" x="-163.569" y="-91">x*</tspan><tspan font-size="59" x="527.706" y="-95">x*</tspan></text></g></svg>