<svg width="1280" height="720" xmlns="http://www.w3.org/2000/svg" xmlns:xlink="http://www.w3.org/1999/xlink" overflow="hidden"><defs><clipPath id="clip0"><rect x="0" y="0" width="1280" height="720"/></clipPath></defs><g clip-path="url(#clip0)"><rect x="0" y="0" width="1280" height="720" fill="#FFFFFF"/><path d="M471.5 360C471.5 268.045 546.492 193.5 639 193.5 731.508 193.5 806.5 268.045 806.5 360 806.5 451.955 731.508 526.5 639 526.5 546.492 526.5 471.5 451.955 471.5 360Z" stroke="#AE5A21" stroke-width="1.33333" stroke-miterlimit="8" fill="#ED7D31" fill-rule="evenodd" fill-opacity="0.6"/><path d="M2-3.17437e-07 2.0001 657.508-1.9999 657.508-2 3.17437e-07ZM8.72766 646.514 0.000104769 661.476-8.72746 646.514C-9.28402 645.56-8.96174 644.336-8.00764 643.779-7.05354 643.223-5.8289 643.545-5.27234 644.499L1.72766 656.499-1.72745 656.499 5.27254 644.499C5.8291 643.545 7.05374 643.223 8.00784 643.779 8.96195 644.336 9.28422 645.56 8.72766 646.514Z" transform="matrix(1 0 0 -1 640 682.467)"/><path d="M306 358 980.514 358 980.514 362 306 362ZM969.509 351.273 984.471 360 969.509 368.728C968.555 369.284 967.331 368.962 966.774 368.008 966.218 367.054 966.54 365.829 967.494 365.273L979.494 358.273 979.494 361.728 967.494 354.728C966.54 354.171 966.218 352.946 966.774 351.992 967.331 351.038 968.555 350.716 969.509 351.273Z" fill="#44546A"/><text font-family="CMU Classical Serif,CMU Classical Serif_MSFontService,sans-serif" font-style="italic" font-weight="500" font-size="80" transform="translate(979.715 425)">x<tspan font-size="53" x="37" y="19">1</tspan><tspan font-size="80" x="-428.373" y="-379">x</tspan><tspan font-size="53" x="-391.373" y="-360">2</tspan></text><path d="M606 360.5C606 342.551 620.775 328 639 328 657.225 328 672 342.551 672 360.5 672 378.449 657.225 393 639 393 620.775 393 606 378.449 606 360.5Z" stroke="#44546A" stroke-width="8" stroke-miterlimit="8" fill="none" fill-rule="evenodd"/><path d="M306 358 980.514 358 980.514 362 306 362ZM969.509 351.273 984.471 360 969.509 368.728C968.555 369.284 967.331 368.962 966.774 368.008 966.218 367.054 966.54 365.829 967.494 365.273L979.494 358.273 979.494 361.728 967.494 354.728C966.54 354.171 966.218 352.946 966.774 351.992 967.331 351.038 968.555 350.716 969.509 351.273Z"/><text font-family="CMU Classical Serif,CMU Classical Serif_MSFontService,sans-serif" font-style="italic" font-weight="500" font-size="80" transform="translate(979.715 425)">x<tspan font-size="53" x="37" y="19">1</tspan><tspan font-size="80" x="-428.373" y="-379">x</tspan><tspan font-size="53" x="-391.373" y="-360">2</tspan></text><path d="M574 360.5C574 324.878 602.878 296 638.5 296 674.122 296 703 324.878 703 360.5 703 396.122 674.122 425 638.5 425 602.878 425 574 396.122 574 360.5Z" stroke="#44546A" stroke-width="6" stroke-miterlimit="8" fill="none" fill-rule="evenodd"/><path d="M542 360C542 306.981 585.205 264 638.5 264 691.795 264 735 306.981 735 360 735 413.019 691.795 456 638.5 456 585.205 456 542 413.019 542 360Z" stroke="#44546A" stroke-width="4" stroke-miterlimit="8" fill="none" fill-rule="evenodd"/><path d="M491.5 360C491.5 279.643 557.09 214.5 638 214.5 718.91 214.5 784.5 279.643 784.5 360 784.5 440.357 718.91 505.5 638 505.5 557.09 505.5 491.5 440.357 491.5 360Z" stroke="#44546A" stroke-width="3" stroke-miterlimit="8" fill="none" fill-rule="evenodd"/><path d="M439 360.5C439 251.424 527.871 163 637.5 163 747.128 163 836 251.424 836 360.5 836 469.576 747.128 558 637.5 558 527.871 558 439 469.576 439 360.5Z" stroke="#44546A" stroke-width="2" stroke-miterlimit="8" fill="none" fill-rule="evenodd"/><path d="M398.5 361C398.5 229.28 505.728 122.5 638 122.5 770.272 122.5 877.5 229.28 877.5 361 877.5 492.72 770.272 599.5 638 599.5 505.728 599.5 398.5 492.72 398.5 361Z" stroke="#44546A" stroke-width="1.33333" stroke-miterlimit="8" fill="none" fill-rule="evenodd"/><path d="M355.5 361C355.5 205.532 482.203 79.5001 638.5 79.5001 794.797 79.5001 921.5 205.532 921.5 361 921.5 516.468 794.797 642.5 638.5 642.5 482.203 642.5 355.5 516.468 355.5 361Z" stroke="#44546A" stroke-miterlimit="8" fill="none" fill-rule="evenodd"/><text font-family="CMU Classical Serif,CMU Classical Serif_MSFontService,sans-serif" font-style="italic" font-weight="500" font-size="80" transform="translate(586.583 422)">0</text><path d="M632.5 361C632.5 356.306 636.082 352.5 640.5 352.5 644.918 352.5 648.5 356.306 648.5 361 648.5 365.694 644.918 369.5 640.5 369.5 636.082 369.5 632.5 365.694 632.5 361Z" stroke="#41719C" stroke-width="1.33333" stroke-miterlimit="8" fill="#FF0000" fill-rule="evenodd"/><rect x="641" y="358" width="72" height="81" fill="#FFFFFF" fill-opacity="0.541176"/><text font-family="CMU Classical Serif,CMU Classical Serif_MSFontService,sans-serif" font-style="italic" font-weight="500" font-size="59" transform="translate(650.613 414)">x<tspan font-size="39" x="27.1667" y="-18">*</tspan></text><path d="M0.163335-0.290573 302.42 169.613 302.094 170.194-0.163335 0.290573ZM303.055 165.763 308.069 173.17 299.135 172.737Z" transform="matrix(-1 0 0 1 962.569 179.5)"/><text font-family="CMU Classical Serif,CMU Classical Serif_MSFontService,sans-serif" font-style="italic" font-weight="500" font-size="37" transform="translate(971.52 188)">minimum of f(x)<tspan font-size="37" x="-951.131" y="401">Easy in this case! </tspan><tspan font-size="37" x="-951.131" y="446">Just use unconstrained </tspan><tspan font-size="37" x="-951.131" y="491">optimality conditions.</tspan></text><path d="M0.329665-0.0493153 53.2817 353.927 52.6223 354.025-0.329665 0.0493153ZM56.7107 352.065 53.9383 360.569 48.7987 353.249Z" transform="matrix(1 0 0 -1 495.5 625.069)"/><path d="M541.5 273C541.5 268.306 545.306 264.5 550 264.5 554.694 264.5 558.5 268.306 558.5 273 558.5 277.694 554.694 281.5 550 281.5 545.306 281.5 541.5 277.694 541.5 273Z" stroke="#41719C" stroke-width="1.33333" stroke-miterlimit="8" fill="#FFFFFF" fill-rule="evenodd"/><text font-family="CMU Classical Serif,CMU Classical Serif_MSFontService,sans-serif" font-style="italic" font-weight="500" font-size="59" transform="translate(564.837 256)">x<tspan font-size="39" x="27.1667" y="14">F</tspan><tspan font-family="Cambria Math,Cambria Math_MSFontService,sans-serif" font-style="normal" font-weight="400" font-size="59" x="-493.679" y="-129">∇</tspan>f(x<tspan font-size="39" x="-389.513" y="-115">F</tspan><tspan font-size="59" x="-364.013" y="-129">) = 0</tspan><tspan font-family="Cambria Math,Cambria Math_MSFontService,sans-serif" font-style="normal" font-weight="400" font-size="59" x="-513.179" y="-59">∇</tspan><tspan font-family="CMU Serif,CMU Serif_MSFontService,sans-serif" font-style="normal" font-size="39" x="-478.179" y="-77">2</tspan><tspan font-size="59" x="-458.679" y="-59">f(</tspan>x<tspan font-size="39" x="-389.513" y="-45">F</tspan><tspan font-size="59" x="-364.013" y="-59">) </tspan><tspan font-family="Cambria Math,Cambria Math_MSFontService,sans-serif" font-style="normal" font-weight="400" font-size="59" x="-319.013" y="-59">≻</tspan><tspan font-size="59" x="-255.013" y="-59">0</tspan></text></g></svg>