<svg width="1280" height="720" xmlns="http://www.w3.org/2000/svg" xmlns:xlink="http://www.w3.org/1999/xlink" overflow="hidden"><defs><clipPath id="clip0"><rect x="0" y="0" width="1280" height="720"/></clipPath></defs><g clip-path="url(#clip0)"><rect x="0" y="0" width="1280" height="720" fill="#FFFFFF"/><path d="M2-3.17437e-07 2.0001 657.508-1.9999 657.508-2 3.17437e-07ZM8.72766 646.514 0.000104769 661.476-8.72746 646.514C-9.28402 645.56-8.96174 644.336-8.00764 643.779-7.05354 643.223-5.8289 643.545-5.27234 644.499L1.72766 656.499-1.72745 656.499 5.27254 644.499C5.8291 643.545 7.05374 643.223 8.00784 643.779 8.96195 644.336 9.28422 645.56 8.72766 646.514Z" transform="matrix(1 0 0 -1 640 682.467)"/><path d="M306 358 980.514 358 980.514 362 306 362ZM969.509 351.273 984.471 360 969.509 368.728C968.555 369.284 967.331 368.962 966.774 368.008 966.218 367.054 966.54 365.829 967.494 365.273L979.494 358.273 979.494 361.728 967.494 354.728C966.54 354.171 966.218 352.946 966.774 351.992 967.331 351.038 968.555 350.716 969.509 351.273Z" fill="#44546A"/><text font-family="CMU Classical Serif,CMU Classical Serif_MSFontService,sans-serif" font-style="italic" font-weight="500" font-size="80" transform="translate(979.715 425)">x<tspan font-size="53" x="37" y="19">1</tspan><tspan font-size="80" x="-428.373" y="-379">x</tspan><tspan font-size="53" x="-391.373" y="-360">2</tspan></text><path d="M801 552.5C801 534.551 815.775 520 834 520 852.225 520 867 534.551 867 552.5 867 570.449 852.225 585 834 585 815.775 585 801 570.449 801 552.5Z" stroke="#44546A" stroke-width="8" stroke-miterlimit="8" fill="none" fill-rule="evenodd"/><path d="M306 358 980.514 358 980.514 362 306 362ZM969.509 351.273 984.471 360 969.509 368.728C968.555 369.284 967.331 368.962 966.774 368.008 966.218 367.054 966.54 365.829 967.494 365.273L979.494 358.273 979.494 361.728 967.494 354.728C966.54 354.171 966.218 352.946 966.774 351.992 967.331 351.038 968.555 350.716 969.509 351.273Z"/><text font-family="CMU Classical Serif,CMU Classical Serif_MSFontService,sans-serif" font-style="italic" font-weight="500" font-size="80" transform="translate(979.715 425)">x<tspan font-size="53" x="37" y="19">1</tspan><tspan font-size="80" x="-428.373" y="-379">x</tspan><tspan font-size="53" x="-391.373" y="-360">2</tspan></text><path d="M769 551.5C769 515.878 797.878 487 833.5 487 869.122 487 898 515.878 898 551.5 898 587.122 869.122 616 833.5 616 797.878 616 769 587.122 769 551.5Z" stroke="#44546A" stroke-width="6" stroke-miterlimit="8" fill="none" fill-rule="evenodd"/><path d="M737 552C737 498.981 780.205 456 833.5 456 886.795 456 930 498.981 930 552 930 605.019 886.795 648 833.5 648 780.205 648 737 605.019 737 552Z" stroke="#44546A" stroke-width="4" stroke-miterlimit="8" fill="none" fill-rule="evenodd"/><path d="M686.5 552C686.5 471.643 752.09 406.5 833 406.5 913.91 406.5 979.5 471.643 979.5 552 979.5 632.357 913.91 697.5 833 697.5 752.09 697.5 686.5 632.357 686.5 552Z" stroke="#44546A" stroke-width="3" stroke-miterlimit="8" fill="none" fill-rule="evenodd"/><path d="M634 552.5C634 443.424 722.871 355 832.5 355 942.128 355 1031 443.424 1031 552.5 1031 661.576 942.128 750 832.5 750 722.871 750 634 661.576 634 552.5Z" stroke="#44546A" stroke-width="2" stroke-miterlimit="8" fill="none" fill-rule="evenodd"/><path d="M593.5 553C593.5 421.28 700.728 314.5 833 314.5 965.272 314.5 1072.5 421.28 1072.5 553 1072.5 684.72 965.272 791.5 833 791.5 700.728 791.5 593.5 684.72 593.5 553Z" stroke="#44546A" stroke-width="1.33333" stroke-miterlimit="8" fill="none" fill-rule="evenodd"/><text font-family="CMU Classical Serif,CMU Classical Serif_MSFontService,sans-serif" font-style="italic" font-weight="500" font-size="59" transform="translate(692.681 57)">f(x) = (x<tspan font-size="39" x="231.333" y="14">1</tspan><tspan font-size="59" x="251.333" y="0">-</tspan>1)<tspan font-size="39" x="326.333" y="-18">2</tspan><tspan font-size="59" x="346.333" y="0">+(x</tspan><tspan font-size="39" x="442.5" y="14">2</tspan><tspan font-size="59" x="462.5" y="0">+1)</tspan><tspan font-size="39" x="561.5" y="-18">2</tspan></text><path d="M827.5 553C827.5 548.306 831.082 544.5 835.5 544.5 839.918 544.5 843.5 548.306 843.5 553 843.5 557.694 839.918 561.5 835.5 561.5 831.082 561.5 827.5 557.694 827.5 553Z" stroke="#41719C" stroke-width="1.33333" stroke-miterlimit="8" fill="#FF0000" fill-rule="evenodd"/><path d="M442.5 360.5C442.5 252.252 530.7 164.5 639.5 164.5 748.3 164.5 836.5 252.252 836.5 360.5 836.5 468.748 748.3 556.5 639.5 556.5 530.7 556.5 442.5 468.748 442.5 360.5Z" stroke="#AE5A21" stroke-width="1.33333" stroke-miterlimit="8" fill="#ED7D31" fill-rule="evenodd" fill-opacity="0.6"/><text font-family="CMU Classical Serif,CMU Classical Serif_MSFontService,sans-serif" font-style="italic" font-weight="500" font-size="59" transform="translate(24.5771 676)">g(x) = x<tspan font-size="39" x="216.333" y="14">1</tspan><tspan font-size="39" x="236.333" y="-18">2</tspan><tspan font-size="59" x="256.333" y="0">+x</tspan><tspan font-size="39" x="328.5" y="14">2</tspan><tspan font-size="39" x="348.5" y="-18">2</tspan><tspan font-size="59" x="368.5" y="0">-</tspan>1 <tspan font-size="37" x="-8.24903" y="-613">How can we recognize that </tspan><tspan font-size="37" x="-8.24903" y="-568">some feasible point is at </tspan><tspan font-size="37" x="-8.24903" y="-523">local minimum?</tspan></text><path d="M491.815 99.3899 547.61 258.693 546.981 258.913 491.185 99.6102ZM550.63 256.223 549.5 265.095 543.08 258.867Z"/><path d="M541.5 273C541.5 268.306 545.306 264.5 550 264.5 554.694 264.5 558.5 268.306 558.5 273 558.5 277.694 554.694 281.5 550 281.5 545.306 281.5 541.5 277.694 541.5 273Z" stroke="#41719C" stroke-width="1.33333" stroke-miterlimit="8" fill="#FFFFFF" fill-rule="evenodd"/><text font-family="CMU Classical Serif,CMU Classical Serif_MSFontService,sans-serif" font-style="italic" font-weight="500" font-size="59" transform="translate(564.837 256)">x<tspan font-size="39" x="27.1667" y="14">F</tspan></text></g></svg>