<svg width="1752" height="1025" xmlns="http://www.w3.org/2000/svg" xmlns:xlink="http://www.w3.org/1999/xlink" overflow="hidden"><defs><clipPath id="clip0"><path d="M135 46 1887 46 1887 1071 135 1071Z" fill-rule="evenodd" clip-rule="evenodd"/></clipPath><clipPath id="clip1"><path d="M270 146 738 146 738 254 270 254Z" fill-rule="evenodd" clip-rule="evenodd"/></clipPath><clipPath id="clip2"><path d="M270 146 738 146 738 254 270 254Z" fill-rule="evenodd" clip-rule="evenodd"/></clipPath><clipPath id="clip3"><path d="M270 146 738 146 738 254 270 254Z" fill-rule="evenodd" clip-rule="evenodd"/></clipPath><clipPath id="clip4"><path d="M264 410 900 410 900 676 264 676Z" fill-rule="evenodd" clip-rule="evenodd"/></clipPath><clipPath id="clip5"><path d="M264 410 900 410 900 676 264 676Z" fill-rule="evenodd" clip-rule="evenodd"/></clipPath><clipPath id="clip6"><path d="M264 410 900 410 900 676 264 676Z" fill-rule="evenodd" clip-rule="evenodd"/></clipPath><clipPath id="clip7"><path d="M516 840 1484 840 1484 1069 516 1069Z" fill-rule="evenodd" clip-rule="evenodd"/></clipPath><clipPath id="clip8"><path d="M516 840 1484 840 1484 1069 516 1069Z" fill-rule="evenodd" clip-rule="evenodd"/></clipPath><clipPath id="clip9"><path d="M516 840 1484 840 1484 1069 516 1069Z" fill-rule="evenodd" clip-rule="evenodd"/></clipPath><clipPath id="clip10"><path d="M1312 422 1785 422 1785 644 1312 644Z" fill-rule="evenodd" clip-rule="evenodd"/></clipPath><clipPath id="clip11"><path d="M1312 422 1785 422 1785 644 1312 644Z" fill-rule="evenodd" clip-rule="evenodd"/></clipPath><clipPath id="clip12"><path d="M1312 422 1785 422 1785 644 1312 644Z" fill-rule="evenodd" clip-rule="evenodd"/></clipPath><clipPath id="clip13"><path d="M1301 158 1745 158 1745 254 1301 254Z" fill-rule="evenodd" clip-rule="evenodd"/></clipPath><clipPath id="clip14"><path d="M1301 158 1745 158 1745 254 1301 254Z" fill-rule="evenodd" clip-rule="evenodd"/></clipPath><clipPath id="clip15"><path d="M1301 158 1745 158 1745 254 1301 254Z" fill-rule="evenodd" clip-rule="evenodd"/></clipPath></defs><g clip-path="url(#clip0)" transform="translate(-135 -46)"><g clip-path="url(#clip1)"><g clip-path="url(#clip2)"><g clip-path="url(#clip3)"><path d="M307.469 192.887 315.555 192.887C317.435 192.887 318.376 192.887 318.376 191.007 318.376 189.972 317.435 189.972 315.837 189.972L308.033 189.972 310.008 179.254C310.384 177.28 311.7 170.604 312.264 169.476 313.111 167.69 314.709 166.279 316.683 166.279 317.059 166.279 319.504 166.279 321.29 167.972 317.153 168.348 316.213 171.639 316.213 173.049 316.213 175.211 317.906 176.34 319.692 176.34 322.136 176.34 324.863 174.271 324.863 170.698 324.863 166.373 320.538 164.211 316.683 164.211 313.487 164.211 307.563 165.903 304.743 175.211 304.179 177.186 303.897 178.126 301.64 189.972L295.153 189.972C293.366 189.972 292.332 189.972 292.332 191.759 292.332 192.887 293.178 192.887 294.965 192.887L301.17 192.887 294.118 230.025C292.426 239.145 290.828 247.701 285.939 247.701 285.563 247.701 283.212 247.701 281.426 246.008 285.751 245.726 286.597 242.342 286.597 240.931 286.597 238.769 284.905 237.641 283.118 237.641 280.674 237.641 277.947 239.709 277.947 243.282 277.947 247.513 282.084 249.769 285.939 249.769 291.11 249.769 294.871 244.222 296.563 240.649 299.572 234.726 301.734 223.349 301.828 222.691L307.469 192.887Z"/><path d="M360.236 253.06C360.236 252.778 360.236 252.59 358.637 250.991 346.885 239.145 343.876 221.375 343.876 206.99 343.876 190.631 347.449 174.271 359.014 162.519 360.236 161.39 360.236 161.202 360.236 160.92 360.236 160.262 359.86 159.98 359.296 159.98 358.355 159.98 349.894 166.373 344.346 178.314 339.551 188.656 338.423 199.092 338.423 206.99 338.423 214.324 339.457 225.7 344.628 236.324 350.27 247.889 358.355 254 359.296 254 359.86 254 360.236 253.718 360.236 253.06Z"/><path d="M397.081 202.101C397.645 199.656 399.808 191.007 406.389 191.007 406.859 191.007 409.116 191.007 411.09 192.229 408.458 192.699 406.577 195.049 406.577 197.306 406.577 198.81 407.612 200.597 410.15 200.597 412.219 200.597 415.227 198.904 415.227 195.143 415.227 190.254 409.68 188.938 406.483 188.938 401.03 188.938 397.739 193.921 396.611 196.084 394.261 189.878 389.184 188.938 386.457 188.938 376.679 188.938 371.32 201.067 371.32 203.417 371.32 204.357 372.26 204.357 372.448 204.357 373.2 204.357 373.482 204.169 373.67 203.323 376.867 193.357 383.072 191.007 386.269 191.007 388.055 191.007 391.346 191.853 391.346 197.306 391.346 200.221 389.748 206.52 386.269 219.683 384.765 225.512 381.474 229.461 377.337 229.461 376.773 229.461 374.611 229.461 372.636 228.239 374.987 227.768 377.055 225.794 377.055 223.161 377.055 220.623 374.987 219.871 373.576 219.871 370.756 219.871 368.405 222.315 368.405 225.324 368.405 229.649 373.106 231.529 377.243 231.529 383.448 231.529 386.833 224.948 387.115 224.384 388.243 227.862 391.628 231.529 397.269 231.529 406.953 231.529 412.313 219.401 412.313 217.05 412.313 216.11 411.466 216.11 411.184 216.11 410.338 216.11 410.15 216.486 409.962 217.144 406.859 227.204 400.466 229.461 397.457 229.461 393.791 229.461 392.286 226.452 392.286 223.255 392.286 221.187 392.85 219.119 393.885 214.982L397.081 202.101Z"/><path d="M446.585 206.99C446.585 199.656 445.551 188.28 440.38 177.656 434.739 166.091 426.653 159.98 425.713 159.98 425.149 159.98 424.773 160.356 424.773 160.92 424.773 161.202 424.773 161.39 426.559 163.083 435.773 172.391 441.132 187.34 441.132 206.99 441.132 223.067 437.654 239.615 425.995 251.461 424.773 252.59 424.773 252.778 424.773 253.06 424.773 253.624 425.149 254 425.713 254 426.653 254 435.115 247.607 440.662 235.666 445.457 225.324 446.585 214.888 446.585 206.99Z"/><path d="M546.685 199.75C548.095 199.75 549.882 199.75 549.882 197.87 549.882 195.99 548.095 195.99 546.779 195.99L490.461 195.99C489.145 195.99 487.358 195.99 487.358 197.87 487.358 199.75 489.145 199.75 490.555 199.75L546.685 199.75ZM546.779 217.99C548.095 217.99 549.882 217.99 549.882 216.11 549.882 214.23 548.095 214.23 546.685 214.23L490.555 214.23C489.145 214.23 487.358 214.23 487.358 216.11 487.358 217.99 489.145 217.99 490.461 217.99L546.779 217.99Z"/><path d="M618.568 194.767C617.064 194.767 615.747 194.767 614.431 196.084 612.927 197.494 612.739 199.092 612.739 199.75 612.739 202.007 614.431 203.041 616.218 203.041 618.944 203.041 621.483 200.785 621.483 197.024 621.483 192.417 617.064 188.938 610.388 188.938 597.696 188.938 585.191 202.383 585.191 215.64 585.191 224.102 590.644 231.529 600.422 231.529 613.867 231.529 621.765 221.563 621.765 220.435 621.765 219.871 621.201 219.213 620.636 219.213 620.166 219.213 619.978 219.401 619.414 220.153 611.987 229.461 601.738 229.461 600.61 229.461 594.687 229.461 592.148 224.854 592.148 219.213 592.148 215.358 594.029 206.238 597.225 200.409 600.14 195.049 605.311 191.007 610.482 191.007 613.679 191.007 617.252 192.229 618.568 194.767Z"/><path d="M653.022 149.225 673.096 149.225C674.149 149.225 675.728 149.225 675.728 147.645 675.728 146 674.214 146 673.096 146L629.724 146C628.737 146 627.092 146 627.092 147.58 627.092 149.225 628.605 149.225 629.724 149.225L649.797 149.225 649.797 189.108C649.797 190.161 649.797 191.675 651.443 191.675 653.022 191.675 653.022 190.095 653.022 189.108L653.022 149.225Z"/><path d="M716.89 202.101C717.454 199.656 719.617 191.007 726.198 191.007 726.668 191.007 728.925 191.007 730.899 192.229 728.267 192.699 726.386 195.049 726.386 197.306 726.386 198.81 727.42 200.597 729.959 200.597 732.027 200.597 735.036 198.904 735.036 195.143 735.036 190.254 729.489 188.938 726.292 188.938 720.839 188.938 717.548 193.921 716.42 196.084 714.07 189.878 708.992 188.938 706.266 188.938 696.488 188.938 691.129 201.067 691.129 203.417 691.129 204.357 692.069 204.357 692.257 204.357 693.009 204.357 693.291 204.169 693.479 203.323 696.676 193.357 702.881 191.007 706.078 191.007 707.864 191.007 711.155 191.853 711.155 197.306 711.155 200.221 709.557 206.52 706.078 219.683 704.574 225.512 701.283 229.461 697.146 229.461 696.582 229.461 694.419 229.461 692.445 228.239 694.795 227.768 696.864 225.794 696.864 223.161 696.864 220.623 694.795 219.871 693.385 219.871 690.565 219.871 688.214 222.315 688.214 225.324 688.214 229.649 692.915 231.529 697.052 231.529 703.257 231.529 706.642 224.948 706.924 224.384 708.052 227.862 711.437 231.529 717.078 231.529 726.762 231.529 732.121 219.401 732.121 217.05 732.121 216.11 731.275 216.11 730.993 216.11 730.147 216.11 729.959 216.486 729.771 217.144 726.668 227.204 720.275 229.461 717.266 229.461 713.599 229.461 712.095 226.452 712.095 223.255 712.095 221.187 712.659 219.119 713.693 214.982L716.89 202.101Z"/></g></g></g><g clip-path="url(#clip4)"><g clip-path="url(#clip5)"><g clip-path="url(#clip6)"><path d="M35.5562-38.7533 43.8882-38.7533C45.8258-38.7533 46.7947-38.7533 46.7947-40.691 46.7947-41.7567 45.8258-41.7567 44.1788-41.7567L36.1375-41.7567 38.172-52.8014C38.5596-54.836 39.916-61.7147 40.4973-62.8773 41.3692-64.7181 43.0162-66.1713 45.0508-66.1713 45.4383-66.1713 47.9573-66.1713 49.7981-64.4274 45.5352-64.0399 44.5663-60.649 44.5663-59.1957 44.5663-56.9674 46.3103-55.8048 48.151-55.8048 50.67-55.8048 53.4796-57.9363 53.4796-61.6178 53.4796-66.0745 49.023-68.3028 45.0508-68.3028 41.7567-68.3028 35.6531-66.5589 32.7466-56.9674 32.1653-54.9329 31.8746-53.964 29.5494-41.7567L22.8645-41.7567C21.0237-41.7567 19.958-41.7567 19.958-39.916 19.958-38.7533 20.8299-38.7533 22.6707-38.7533L29.065-38.7533 21.7988-0.484415C20.0549 8.91327 18.4078 17.7297 13.3699 17.7297 12.9824 17.7297 10.5603 17.7297 8.71951 15.9858 13.1761 15.6951 14.0481 12.2073 14.0481 10.7541 14.0481 8.52573 12.3042 7.36314 10.4634 7.36314 7.94443 7.36314 5.13482 9.49457 5.13482 13.1761 5.13482 17.5359 9.39769 19.8611 13.3699 19.8611 18.6985 19.8611 22.5738 14.145 24.3177 10.4634 27.418 4.35975 29.6463-7.36314 29.7432-8.04132L35.5562-38.7533Z" transform="matrix(1.00087 0 -0 1 268.154 561.013)"/><path d="M32.0684 23.252C32.0684 22.9614 32.0684 22.7676 30.4214 21.1206 18.311 8.91327 15.2107-9.39769 15.2107-24.2208 15.2107-41.0785 18.8923-57.9363 30.8089-70.0467 32.0684-71.2093 32.0684-71.403 32.0684-71.6937 32.0684-72.3719 31.6809-72.6625 31.0996-72.6625 30.1307-72.6625 21.4112-66.0745 15.6951-53.7703 10.7541-43.1131 9.59145-32.359 9.59145-24.2208 9.59145-16.6639 10.6572-4.94106 15.9858 6.00677 21.7988 17.9234 30.1307 24.2208 31.0996 24.2208 31.6809 24.2208 32.0684 23.9302 32.0684 23.252Z" transform="matrix(1.00087 0 -0 1 326.066 561.013)"/><path d="M32.359-29.2588C32.9403-31.7777 35.1687-40.691 41.9505-40.691 42.4349-40.691 44.7601-40.691 46.7947-39.4315 44.0819-38.9471 42.1443-36.525 42.1443-34.1998 42.1443-32.6497 43.21-30.8089 45.8258-30.8089 47.9573-30.8089 51.0575-32.5528 51.0575-36.4282 51.0575-41.4661 45.3414-42.8225 42.0474-42.8225 36.4282-42.8225 33.0372-37.6876 31.8746-35.4593 29.4525-41.8536 24.2208-42.8225 21.4112-42.8225 11.3354-42.8225 5.813-30.3245 5.813-27.9024 5.813-26.9336 6.78184-26.9336 6.9756-26.9336 7.75067-26.9336 8.04132-27.1273 8.23508-27.9993 11.5291-38.2689 17.9234-40.691 21.2175-40.691 23.0582-40.691 26.4492-39.8191 26.4492-34.1998 26.4492-31.1964 24.8021-24.7053 21.2175-11.1416 19.6673-5.13482 16.2764-1.06572 12.0135-1.06572 11.4322-1.06572 9.20392-1.06572 7.16937-2.3252 9.59145-2.80962 11.7229-4.84417 11.7229-7.5569 11.7229-10.1728 9.59145-10.9478 8.13821-10.9478 5.23171-10.9478 2.80962-8.42886 2.80962-5.32858 2.80962-0.871953 7.65379 1.06572 11.9167 1.06572 18.311 1.06572 21.7988-5.71612 22.0894-6.29742 23.252-2.71274 26.7398 1.06572 32.5528 1.06572 42.5318 1.06572 48.0541-11.4322 48.0541-13.8543 48.0541-14.8232 47.1822-14.8232 46.8916-14.8232 46.0196-14.8232 45.8258-14.4356 45.6321-13.7574 42.4349-3.39091 35.8469-1.06572 32.7466-1.06572 28.9681-1.06572 27.418-4.16599 27.418-7.46002 27.418-9.59145 27.9993-11.7229 29.065-15.9858L32.359-29.2588Z" transform="matrix(1.00087 0 -0 1 363.776 561.013)"/><path d="M27.9993-24.2208C27.9993-31.7777 26.9336-43.5006 21.605-54.4485 15.792-66.3651 7.46002-72.6625 6.49119-72.6625 5.90988-72.6625 5.52235-72.275 5.52235-71.6937 5.52235-71.403 5.52235-71.2093 7.36314-69.4654 16.8577-59.8739 22.3801-44.4695 22.3801-24.2208 22.3801-7.65379 18.7954 9.39769 6.78184 21.605 5.52235 22.7676 5.52235 22.9614 5.52235 23.252 5.52235 23.8333 5.90988 24.2208 6.49119 24.2208 7.46002 24.2208 16.1795 17.6328 21.8956 5.32858 26.8367-5.32858 27.9993-16.0826 27.9993-24.2208Z" transform="matrix(1.00087 0 -0 1 419.196 561.013)"/><path d="M66.5589-31.6809C68.0121-31.6809 69.8529-31.6809 69.8529-33.6185 69.8529-35.5562 68.0121-35.5562 66.6558-35.5562L8.62262-35.5562C7.26625-35.5562 5.42547-35.5562 5.42547-33.6185 5.42547-31.6809 7.26625-31.6809 8.71951-31.6809L66.5589-31.6809ZM66.6558-12.8855C68.0121-12.8855 69.8529-12.8855 69.8529-14.8232 69.8529-16.7608 68.0121-16.7608 66.5589-16.7608L8.71951-16.7608C7.26625-16.7608 5.42547-16.7608 5.42547-14.8232 5.42547-12.8855 7.26625-12.8855 8.62262-12.8855L66.6558-12.8855Z" transform="matrix(1.00087 0 -0 1 483.841 561.013)"/><path d="M8.27384-4.27255C8.00257-3.39091 7.59566-1.69546 7.59566-1.49201 7.59566 0 8.81638 0.678179 9.90148 0.678179 11.1222 0.678179 12.2073-0.20346 12.5464-0.813819 12.8855-1.42418 13.428-3.59437 13.7671-5.01856 14.1062-6.30711 14.8522-9.42675 15.2591-11.1222 15.666-12.6142 16.073-14.1062 16.412-15.666 17.1581-18.4466 17.2937-18.9891 19.2604-21.7697 21.1593-24.4824 24.3468-28.009 29.4332-28.009 33.3666-28.009 33.4345-24.5502 33.4345-23.2617 33.4345-19.1926 30.5183-11.6648 29.4332-8.81638 28.6872-6.91748 28.4159-6.30711 28.4159-5.15419 28.4159-1.55983 31.3999 0.678179 34.8586 0.678179 41.6405 0.678179 44.6245-8.68075 44.6245-9.69802 44.6245-10.5797 43.7428-10.5797 43.5394-10.5797 42.5899-10.5797 42.5221-10.1728 42.2508-9.42675 40.691-4.00128 37.7748-1.22073 35.0621-1.22073 33.6379-1.22073 33.3666-2.17019 33.3666-3.59437 33.3666-5.15419 33.7057-6.03583 34.9265-9.08766 35.7403-11.19 38.5208-18.3788 38.5208-22.1766 38.5208-28.755 33.2988-29.9079 29.7044-29.9079 24.0755-29.9079 20.2777-26.4492 18.2431-23.7364 17.7684-28.4159 13.7671-29.9079 10.9866-29.9079 8.07039-29.9079 6.51056-27.8055 5.62892-26.2457 4.13692-23.7364 3.18746-19.8708 3.18746-19.5317 3.18746-18.65 4.13692-18.65 4.34037-18.65 5.28983-18.65 5.35765-18.8535 5.83238-20.6846 6.84966-24.6859 8.13821-28.009 10.7831-28.009 12.5464-28.009 13.0211-26.517 13.0211-24.6859 13.0211-23.3973 12.4108-20.8881 11.936-19.057 11.4613-17.2259 10.7831-14.4453 10.444-12.9533L8.27384-4.27255Z" transform="matrix(1.00087 0 -0 1 632.261 439.908)"/><path d="M122.654 135.637 134.377 104.634 131.955 104.634C128.177 114.71 117.907 121.298 106.765 124.204 104.731 124.689 95.2364 127.208 76.6347 127.208L18.2141 127.208 67.5277 69.3685C68.2059 68.5934 68.3997 68.3028 68.3997 67.8184 68.3997 67.6246 68.3997 67.3339 67.7215 66.3651L22.5738 4.6504 75.6659 4.6504C88.6483 4.6504 97.4647 6.00677 98.3366 6.20054 103.568 6.9756 111.997 8.62262 119.651 13.4668 122.073 15.0169 128.661 19.3767 131.955 27.2242L134.377 27.2242 122.654 0 8.13821 0C5.90988 0 5.813 0.0968869 5.52235 0.678179 5.42547 0.96883 5.42547 2.80962 5.42547 3.87534L56.6768 74.0189 6.49119 132.827C5.52235 133.99 5.52235 134.474 5.52235 134.571 5.52235 135.637 6.3943 135.637 8.13821 135.637L122.654 135.637Z" transform="matrix(1.00087 0 -0 1 586.195 468.973)"/><path d="M21.9732-42.3865C21.9732-43.4716 21.1593-44.9636 19.2604-44.9636 17.4293-44.9636 15.4626-43.2003 15.4626-41.2336 15.4626-40.0806 16.3442-38.6565 18.1753-38.6565 20.1421-38.6565 21.9732-40.5554 21.9732-42.3865ZM8.13821-7.93475C7.86693-7.05311 7.52784-6.23929 7.52784-5.08638 7.52784-1.89892 10.2406 0.678179 13.9706 0.678179 20.7524 0.678179 23.7364-8.68075 23.7364-9.69802 23.7364-10.5797 22.8548-10.5797 22.6513-10.5797 21.7019-10.5797 21.6341-10.1728 21.3628-9.42675 19.803-4.00128 16.819-1.22073 14.174-1.22073 12.8177-1.22073 12.4786-2.10237 12.4786-3.59437 12.4786-5.15419 12.9533-6.44275 13.5637-7.93475 14.2419-9.76584 14.9879-11.5969 15.7339-13.3602 16.3442-14.9879 18.7857-21.1593 19.057-21.9732 19.2604-22.6513 19.4639-23.4651 19.4639-24.1433 19.4639-27.3308 16.7511-29.9079 13.0211-29.9079 6.30711-29.9079 3.18746-20.6846 3.18746-19.5317 3.18746-18.65 4.13692-18.65 4.34037-18.65 5.28983-18.65 5.35765-18.9891 5.56111-19.7351 7.32439-25.5675 10.3084-28.009 12.8177-28.009 13.9028-28.009 14.5131-27.4664 14.5131-25.6353 14.5131-24.0755 14.1062-23.0582 12.4108-18.8535L8.13821-7.93475Z" transform="matrix(1.00087 0 -0 1 593.42 675.322)"/><path d="M52.0845-22.787C53.1018-22.787 54.6616-22.787 54.6616-24.4824 54.6616-26.1101 53.034-26.1101 52.1523-26.1101L7.25657-26.1101C6.37493-26.1101 4.74728-26.1101 4.74728-24.4824 4.74728-22.787 6.30711-22.787 7.32439-22.787L52.0845-22.787ZM52.1523-7.86693C53.034-7.86693 54.6616-7.86693 54.6616-9.49457 54.6616-11.19 53.1018-11.19 52.0845-11.19L7.32439-11.19C6.30711-11.19 4.74728-11.19 4.74728-9.49457 4.74728-7.86693 6.37493-7.86693 7.25657-7.86693L52.1523-7.86693Z" transform="matrix(1.00087 0 -0 1 620.855 675.322)"/><path d="M22.7192-43.1325C22.7192-44.9636 22.5835-45.0314 20.6846-45.0314 16.3442-40.7588 10.1728-40.691 7.3922-40.691L7.3922-38.2496C9.01984-38.2496 13.4959-38.2496 17.2259-40.1485L17.2259-5.56111C17.2259-3.3231 17.2259-2.44147 10.444-2.44147L7.86693-2.44147 7.86693 0C9.08766-0.0678198 17.4293-0.27127 19.9386-0.27127 22.041-0.27127 30.5861-0.0678198 32.0781 0L32.0781-2.44147 29.501-2.44147C22.7192-2.44147 22.7192-3.3231 22.7192-5.56111L22.7192-43.1325Z" transform="matrix(1.00087 0 -0 1 680.383 675.322)"/><path d="M38.3658-36.8157C36.8157-36.8157 35.4593-36.8157 34.1029-35.4593 32.5528-34.0061 32.359-32.359 32.359-31.6809 32.359-29.3557 34.1029-28.2899 35.9437-28.2899 38.7533-28.2899 41.3692-30.6151 41.3692-34.4905 41.3692-39.2378 36.8157-42.8225 29.937-42.8225 16.8577-42.8225 3.97222-28.9681 3.97222-15.3076 3.97222-6.58807 9.59145 1.06572 19.6673 1.06572 33.5216 1.06572 41.6598-9.20392 41.6598-10.3665 41.6598-10.9478 41.0785-11.626 40.4973-11.626 40.0128-11.626 39.8191-11.4322 39.2378-10.6572 31.584-1.06572 21.0237-1.06572 19.8611-1.06572 13.7574-1.06572 11.1416-5.813 11.1416-11.626 11.1416-15.5982 13.0793-24.9959 16.3733-31.0027 19.3767-36.525 24.7053-40.691 30.0338-40.691 33.3279-40.691 37.0095-39.4315 38.3658-36.8157Z" transform="matrix(1.00087 0 -0 1 742.422 561.013)"/><path d="M21.9732-42.3865C21.9732-43.4716 21.1593-44.9636 19.2604-44.9636 17.4293-44.9636 15.4626-43.2003 15.4626-41.2336 15.4626-40.0806 16.3442-38.6565 18.1753-38.6565 20.1421-38.6565 21.9732-40.5554 21.9732-42.3865ZM8.13821-7.93475C7.86693-7.05311 7.52784-6.23929 7.52784-5.08638 7.52784-1.89892 10.2406 0.678179 13.9706 0.678179 20.7524 0.678179 23.7364-8.68075 23.7364-9.69802 23.7364-10.5797 22.8548-10.5797 22.6513-10.5797 21.7019-10.5797 21.6341-10.1728 21.3628-9.42675 19.803-4.00128 16.819-1.22073 14.174-1.22073 12.8177-1.22073 12.4786-2.10237 12.4786-3.59437 12.4786-5.15419 12.9533-6.44275 13.5637-7.93475 14.2419-9.76584 14.9879-11.5969 15.7339-13.3602 16.3442-14.9879 18.7857-21.1593 19.057-21.9732 19.2604-22.6513 19.4639-23.4651 19.4639-24.1433 19.4639-27.3308 16.7511-29.9079 13.0211-29.9079 6.30711-29.9079 3.18746-20.6846 3.18746-19.5317 3.18746-18.65 4.13692-18.65 4.34037-18.65 5.28983-18.65 5.35765-18.9891 5.56111-19.7351 7.32439-25.5675 10.3084-28.009 12.8177-28.009 13.9028-28.009 14.5131-27.4664 14.5131-25.6353 14.5131-24.0755 14.1062-23.0582 12.4108-18.8535L8.13821-7.93475Z" transform="matrix(1.00087 0 -0 1 784.385 575.545)"/><path d="M32.359-29.2588C32.9403-31.7777 35.1687-40.691 41.9505-40.691 42.4349-40.691 44.7601-40.691 46.7947-39.4315 44.0819-38.9471 42.1443-36.525 42.1443-34.1998 42.1443-32.6497 43.21-30.8089 45.8258-30.8089 47.9573-30.8089 51.0575-32.5528 51.0575-36.4282 51.0575-41.4661 45.3414-42.8225 42.0474-42.8225 36.4282-42.8225 33.0372-37.6876 31.8746-35.4593 29.4525-41.8536 24.2208-42.8225 21.4112-42.8225 11.3354-42.8225 5.813-30.3245 5.813-27.9024 5.813-26.9336 6.78184-26.9336 6.9756-26.9336 7.75067-26.9336 8.04132-27.1273 8.23508-27.9993 11.5291-38.2689 17.9234-40.691 21.2175-40.691 23.0582-40.691 26.4492-39.8191 26.4492-34.1998 26.4492-31.1964 24.8021-24.7053 21.2175-11.1416 19.6673-5.13482 16.2764-1.06572 12.0135-1.06572 11.4322-1.06572 9.20392-1.06572 7.16937-2.3252 9.59145-2.80962 11.7229-4.84417 11.7229-7.5569 11.7229-10.1728 9.59145-10.9478 8.13821-10.9478 5.23171-10.9478 2.80962-8.42886 2.80962-5.32858 2.80962-0.871953 7.65379 1.06572 11.9167 1.06572 18.311 1.06572 21.7988-5.71612 22.0894-6.29742 23.252-2.71274 26.7398 1.06572 32.5528 1.06572 42.5318 1.06572 48.0541-11.4322 48.0541-13.8543 48.0541-14.8232 47.1822-14.8232 46.8916-14.8232 46.0196-14.8232 45.8258-14.4356 45.6321-13.7574 42.4349-3.39091 35.8469-1.06572 32.7466-1.06572 28.9681-1.06572 27.418-4.16599 27.418-7.46002 27.418-9.59145 27.9993-11.7229 29.065-15.9858L32.359-29.2588Z" transform="matrix(1.00087 0 -0 1 816.669 561.013)"/><path d="M21.9732-42.3865C21.9732-43.4716 21.1593-44.9636 19.2604-44.9636 17.4293-44.9636 15.4626-43.2003 15.4626-41.2336 15.4626-40.0806 16.3442-38.6565 18.1753-38.6565 20.1421-38.6565 21.9732-40.5554 21.9732-42.3865ZM8.13821-7.93475C7.86693-7.05311 7.52784-6.23929 7.52784-5.08638 7.52784-1.89892 10.2406 0.678179 13.9706 0.678179 20.7524 0.678179 23.7364-8.68075 23.7364-9.69802 23.7364-10.5797 22.8548-10.5797 22.6513-10.5797 21.7019-10.5797 21.6341-10.1728 21.3628-9.42675 19.803-4.00128 16.819-1.22073 14.174-1.22073 12.8177-1.22073 12.4786-2.10237 12.4786-3.59437 12.4786-5.15419 12.9533-6.44275 13.5637-7.93475 14.2419-9.76584 14.9879-11.5969 15.7339-13.3602 16.3442-14.9879 18.7857-21.1593 19.057-21.9732 19.2604-22.6513 19.4639-23.4651 19.4639-24.1433 19.4639-27.3308 16.7511-29.9079 13.0211-29.9079 6.30711-29.9079 3.18746-20.6846 3.18746-19.5317 3.18746-18.65 4.13692-18.65 4.34037-18.65 5.28983-18.65 5.35765-18.9891 5.56111-19.7351 7.32439-25.5675 10.3084-28.009 12.8177-28.009 13.9028-28.009 14.5131-27.4664 14.5131-25.6353 14.5131-24.0755 14.1062-23.0582 12.4108-18.8535L8.13821-7.93475Z" transform="matrix(1.00087 0 -0 1 872.089 575.545)"/></g></g></g><g clip-path="url(#clip7)"><g clip-path="url(#clip8)"><g clip-path="url(#clip9)"><path d="M45.225-33.1129C44.2482-39.169 40.2434-44.639 32.6245-44.639 26.6662-44.639 20.3171-43.0761 12.6982-35.4572 4.59088-27.3499 3.90713-18.2658 3.90713-15.2378 3.90713-9.18175 8.20497 2.14892 21.8799 2.14892 45.1273 2.14892 55.2859-30.671 55.2859-44.639 55.2859-60.1698 46.2018-69.9376 34.1874-69.9376 20.024-69.9376 15.5308-57.2394 15.5308-54.5045 15.5308-53.137 16.3123-51.0857 19.2426-51.0857 22.466-51.0857 24.5172-54.0161 24.5172-56.2627 24.5172-59.6814 21.4892-59.6814 19.9264-59.6814 24.2242-66.9096 31.1594-67.4957 33.992-67.4957 41.1225-67.4957 47.96-62.4164 47.96-49.8159 47.96-46.0064 47.3739-41.0249 45.3227-33.1129L45.225-33.1129ZM22.173-0.586071C11.4284-0.586071 11.4284-10.6469 11.4284-11.6237 11.4284-14.261 13.8703-27.936 17.8751-33.7967 21.7822-39.3643 26.5685-42.49 32.6245-42.49 43.2715-42.49 43.4668-31.5501 43.4668-29.5965 43.4668-22.5637 37.2154-0.586071 22.173-0.586071Z" transform="matrix(1.0003 0 -0 1 517.569 920.582)"/><path d="M35.8479-39.0713 44.2482-39.0713C46.2018-39.0713 47.1786-39.0713 47.1786-41.0249 47.1786-42.0993 46.2018-42.0993 44.5413-42.0993L36.434-42.0993 38.4852-53.2346C38.8759-55.2859 40.2434-62.221 40.8295-63.3932 41.7086-65.2491 43.3691-66.7142 45.4204-66.7142 45.8111-66.7142 48.3507-66.7142 50.2066-64.956 45.9088-64.5653 44.932-61.1466 44.932-59.6814 44.932-57.4348 46.6902-56.2627 48.5461-56.2627 51.0857-56.2627 53.9184-58.4116 53.9184-62.1234 53.9184-66.6166 49.4252-68.8632 45.4204-68.8632 42.0993-68.8632 35.9456-67.1049 33.0152-57.4348 32.4292-55.3836 32.1361-54.4068 29.7919-42.0993L23.0521-42.0993C21.1962-42.0993 20.1217-42.0993 20.1217-40.2434 20.1217-39.0713 21.0008-39.0713 22.8567-39.0713L29.3035-39.0713 21.9776-0.488389C20.2194 8.9864 18.5589 17.8751 13.4796 17.8751 13.0889 17.8751 10.6469 17.8751 8.79105 16.1169 13.2842 15.8239 14.1633 12.3075 14.1633 10.8423 14.1633 8.59568 12.4051 7.42355 10.5492 7.42355 8.00961 7.42355 5.17695 9.57247 5.17695 13.2842 5.17695 17.6798 9.47479 20.024 13.4796 20.024 18.8519 20.024 22.759 14.261 24.5172 10.5492 27.6429 4.39552 29.8895-7.42355 29.9872-8.10729L35.8479-39.0713Z" transform="matrix(1.0003 0 -0 1 574.87 920.582)"/><path d="M32.3315 23.4428C32.3315 23.1497 32.3315 22.9544 30.671 21.2939 18.4612 8.9864 15.3355-9.47479 15.3355-24.4196 15.3355-41.4156 19.0473-58.4116 31.0617-70.6214 32.3315-71.7935 32.3315-71.9889 32.3315-72.2819 32.3315-72.9656 31.9408-73.2587 31.3547-73.2587 30.3779-73.2587 21.5869-66.6166 15.8239-54.2114 10.8423-43.4668 9.67014-32.6245 9.67014-24.4196 9.67014-16.8007 10.7446-4.98159 16.1169 6.05605 21.9776 18.0705 30.3779 24.4196 31.3547 24.4196 31.9408 24.4196 32.3315 24.1265 32.3315 23.4428Z" transform="matrix(1.0003 0 -0 1 633.224 920.582)"/><path d="M32.6245-29.4988C33.2106-32.0385 35.4572-41.0249 42.2947-41.0249 42.7831-41.0249 45.1273-41.0249 47.1786-39.755 44.4436-39.2666 42.49-36.8247 42.49-34.4804 42.49-32.9176 43.5645-31.0617 46.2018-31.0617 48.3507-31.0617 51.4764-32.8199 51.4764-36.727 51.4764-41.8063 45.7134-43.1738 42.3924-43.1738 36.727-43.1738 33.3083-37.9968 32.1361-35.7502 29.6942-42.197 24.4196-43.1738 21.5869-43.1738 11.4284-43.1738 5.86069-30.5733 5.86069-28.1313 5.86069-27.1546 6.83748-27.1546 7.03283-27.1546 7.81426-27.1546 8.10729-27.3499 8.30265-28.229 11.6237-38.5829 18.0705-41.0249 21.3915-41.0249 23.2474-41.0249 26.6662-40.1458 26.6662-34.4804 26.6662-31.4524 25.0056-24.9079 21.3915-11.233 19.8287-5.17695 16.4099-1.07446 12.1121-1.07446 11.526-1.07446 9.27943-1.07446 7.22819-2.34427 9.67014-2.83267 11.8191-4.88391 11.8191-7.6189 11.8191-10.2562 9.67014-11.0376 8.20497-11.0376 5.27463-11.0376 2.83267-8.49801 2.83267-5.3723 2.83267-0.879106 7.71658 1.07446 12.0144 1.07446 18.4612 1.07446 21.9776-5.76302 22.2706-6.34909 23.4428-2.73499 26.9592 1.07446 32.8199 1.07446 42.8807 1.07446 48.4484-11.526 48.4484-13.968 48.4484-14.9448 47.5693-14.9448 47.2763-14.9448 46.3972-14.9448 46.2018-14.5541 46.0064-13.8703 42.7831-3.41873 36.1409-1.07446 33.0152-1.07446 29.2058-1.07446 27.6429-4.20017 27.6429-7.52122 27.6429-9.67014 28.229-11.8191 29.3035-16.1169L32.6245-29.4988Z" transform="matrix(1.0003 0 -0 1 671.221 920.582)"/><path d="M28.229-24.4196C28.229-32.0385 27.1546-43.8575 21.7822-54.8952 15.9215-66.9096 7.52122-73.2587 6.54444-73.2587 5.95837-73.2587 5.56766-72.868 5.56766-72.2819 5.56766-71.9889 5.56766-71.7935 7.42355-70.0353 16.996-60.3652 22.5637-44.8343 22.5637-24.4196 22.5637-7.71658 18.9496 9.47479 6.83748 21.7822 5.56766 22.9544 5.56766 23.1497 5.56766 23.4428 5.56766 24.0288 5.95837 24.4196 6.54444 24.4196 7.52122 24.4196 16.3123 17.7774 22.0753 5.3723 27.0569-5.3723 28.229-16.2146 28.229-24.4196Z" transform="matrix(1.0003 0 -0 1 727.064 920.582)"/><path d="M1808.27 842.394 2055.69 842.394 2055.69 846.301 1808.27 846.301Z" transform="matrix(1.0003 0 -0 1 -1291.24 117.895)"/><path d="M45.225-33.1129C44.2482-39.169 40.2434-44.639 32.6245-44.639 26.6662-44.639 20.3171-43.0761 12.6982-35.4572 4.59088-27.3499 3.90713-18.2658 3.90713-15.2378 3.90713-9.18175 8.20497 2.14892 21.8799 2.14892 45.1273 2.14892 55.2859-30.671 55.2859-44.639 55.2859-60.1698 46.2018-69.9376 34.1874-69.9376 20.024-69.9376 15.5308-57.2394 15.5308-54.5045 15.5308-53.137 16.3123-51.0857 19.2426-51.0857 22.466-51.0857 24.5172-54.0161 24.5172-56.2627 24.5172-59.6814 21.4892-59.6814 19.9264-59.6814 24.2242-66.9096 31.1594-67.4957 33.992-67.4957 41.1225-67.4957 47.96-62.4164 47.96-49.8159 47.96-46.0064 47.3739-41.0249 45.3227-33.1129L45.225-33.1129ZM22.173-0.586071C11.4284-0.586071 11.4284-10.6469 11.4284-11.6237 11.4284-14.261 13.8703-27.936 17.8751-33.7967 21.7822-39.3643 26.5685-42.49 32.6245-42.49 43.2715-42.49 43.4668-31.5501 43.4668-29.5965 43.4668-22.5637 37.2154-0.586071 22.173-0.586071Z" transform="matrix(1.0003 0 -0 1 560.706 1053.66)"/><path d="M32.6245-29.4988C33.2106-32.0385 35.4572-41.0249 42.2947-41.0249 42.7831-41.0249 45.1273-41.0249 47.1786-39.755 44.4436-39.2666 42.49-36.8247 42.49-34.4804 42.49-32.9176 43.5645-31.0617 46.2018-31.0617 48.3507-31.0617 51.4764-32.8199 51.4764-36.727 51.4764-41.8063 45.7134-43.1738 42.3924-43.1738 36.727-43.1738 33.3083-37.9968 32.1361-35.7502 29.6942-42.197 24.4196-43.1738 21.5869-43.1738 11.4284-43.1738 5.86069-30.5733 5.86069-28.1313 5.86069-27.1546 6.83748-27.1546 7.03283-27.1546 7.81426-27.1546 8.10729-27.3499 8.30265-28.229 11.6237-38.5829 18.0705-41.0249 21.3915-41.0249 23.2474-41.0249 26.6662-40.1458 26.6662-34.4804 26.6662-31.4524 25.0056-24.9079 21.3915-11.233 19.8287-5.17695 16.4099-1.07446 12.1121-1.07446 11.526-1.07446 9.27943-1.07446 7.22819-2.34427 9.67014-2.83267 11.8191-4.88391 11.8191-7.6189 11.8191-10.2562 9.67014-11.0376 8.20497-11.0376 5.27463-11.0376 2.83267-8.49801 2.83267-5.3723 2.83267-0.879106 7.71658 1.07446 12.0144 1.07446 18.4612 1.07446 21.9776-5.76302 22.2706-6.34909 23.4428-2.73499 26.9592 1.07446 32.8199 1.07446 42.8807 1.07446 48.4484-11.526 48.4484-13.968 48.4484-14.9448 47.5693-14.9448 47.2763-14.9448 46.3972-14.9448 46.2018-14.5541 46.0064-13.8703 42.7831-3.41873 36.1409-1.07446 33.0152-1.07446 29.2058-1.07446 27.6429-4.20017 27.6429-7.52122 27.6429-9.67014 28.229-11.8191 29.3035-16.1169L32.6245-29.4988Z" transform="matrix(1.0003 0 -0 1 618.007 1053.66)"/><path d="M21.4013-45.4008C21.4697-45.5376 21.6748-46.4265 21.6748-46.4948 21.6748-46.8367 21.4013-47.4521 20.5808-47.4521 19.2133-47.4521 13.5382-46.9051 11.8288-46.7683 11.2818-46.7 10.3246-46.6316 10.3246-45.1957 10.3246-44.2385 11.2818-44.2385 12.1023-44.2385 15.3843-44.2385 15.3843-43.7599 15.3843-43.2129 15.3843-42.7342 15.2476-42.324 15.1108-41.7086L5.46998-3.00849C5.12811-1.77774 5.12811-1.64099 5.12811-1.50425 5.12811-0.478624 5.94861 0.683743 7.45285 0.683743 9.29896 0.683743 10.1878-0.683743 10.5981-2.18799 10.7348-2.4615 13.675-14.4955 13.9485-15.4527 18.8031-14.9741 22.7004-13.4015 22.7004-9.84596 22.7004-9.50409 22.7004-9.16222 22.5637-8.47847 22.2902-7.45285 22.2902-7.11097 22.2902-6.35885 22.2902-1.50425 26.2559 0.683743 29.5379 0.683743 36.1703 0.683743 38.2215-9.70921 38.2215-9.77759 38.2215-10.6665 37.3326-10.6665 37.1275-10.6665 36.1703-10.6665 36.1019-10.3246 35.76-9.02547 34.9395-6.08535 33.0934-1.23074 29.743-1.23074 27.8969-1.23074 27.3499-2.94011 27.3499-4.78623 27.3499-5.94861 27.3499-6.08535 27.7602-7.8631 27.8285-8.06822 28.102-9.23059 28.102-9.98272 28.102-16.0681 19.8971-17.0253 17.0253-17.2304 19.0082-18.4612 21.538-20.7176 22.7004-21.7432 26.1875-25.0252 29.6063-28.2388 33.4353-28.2388 34.2558-28.2388 35.1446-28.0337 35.6916-27.3499 32.7515-26.8713 32.1361-24.5465 32.1361-23.5209 32.1361-22.0167 33.2985-20.991 34.8711-20.991 36.7172-20.991 38.7685-22.4953 38.7685-25.367 38.7685-27.6234 37.1275-30.1533 33.5036-30.1533 29.6063-30.1533 26.0508-27.3499 22.5637-24.1363 19.6919-21.4013 17.4356-19.2817 14.6322-18.1193L21.4013-45.4008Z" transform="matrix(1.0003 0 -0 1 673.85 1068.32)"/><path d="M67.1049-31.9408C68.5701-31.9408 70.426-31.9408 70.426-33.8943 70.426-35.8479 68.5701-35.8479 67.2026-35.8479L8.69336-35.8479C7.32587-35.8479 5.46998-35.8479 5.46998-33.8943 5.46998-31.9408 7.32587-31.9408 8.79105-31.9408L67.1049-31.9408ZM67.2026-12.9912C68.5701-12.9912 70.426-12.9912 70.426-14.9448 70.426-16.8983 68.5701-16.8983 67.1049-16.8983L8.79105-16.8983C7.32587-16.8983 5.46998-16.8983 5.46998-14.9448 5.46998-12.9912 7.32587-12.9912 8.69336-12.9912L67.2026-12.9912Z" transform="matrix(1.0003 0 -0 1 803.926 986.662)"/><path d="M45.225-33.1129C44.2482-39.169 40.2434-44.639 32.6245-44.639 26.6662-44.639 20.3171-43.0761 12.6982-35.4572 4.59088-27.3499 3.90713-18.2658 3.90713-15.2378 3.90713-9.18175 8.20497 2.14892 21.8799 2.14892 45.1273 2.14892 55.2859-30.671 55.2859-44.639 55.2859-60.1698 46.2018-69.9376 34.1874-69.9376 20.024-69.9376 15.5308-57.2394 15.5308-54.5045 15.5308-53.137 16.3123-51.0857 19.2426-51.0857 22.466-51.0857 24.5172-54.0161 24.5172-56.2627 24.5172-59.6814 21.4892-59.6814 19.9264-59.6814 24.2242-66.9096 31.1594-67.4957 33.992-67.4957 41.1225-67.4957 47.96-62.4164 47.96-49.8159 47.96-46.0064 47.3739-41.0249 45.3227-33.1129L45.225-33.1129ZM22.173-0.586071C11.4284-0.586071 11.4284-10.6469 11.4284-11.6237 11.4284-14.261 13.8703-27.936 17.8751-33.7967 21.7822-39.3643 26.5685-42.49 32.6245-42.49 43.2715-42.49 43.4668-31.5501 43.4668-29.5965 43.4668-22.5637 37.2154-0.586071 22.173-0.586071Z" transform="matrix(1.0003 0 -0 1 918.786 919.265)"/><path d="M32.3315 23.4428C32.3315 23.1497 32.3315 22.9544 30.671 21.2939 18.4612 8.9864 15.3355-9.47479 15.3355-24.4196 15.3355-41.4156 19.0473-58.4116 31.0617-70.6214 32.3315-71.7935 32.3315-71.9889 32.3315-72.2819 32.3315-72.9656 31.9408-73.2587 31.3547-73.2587 30.3779-73.2587 21.5869-66.6166 15.8239-54.2114 10.8423-43.4668 9.67014-32.6245 9.67014-24.4196 9.67014-16.8007 10.7446-4.98159 16.1169 6.05605 21.9776 18.0705 30.3779 24.4196 31.3547 24.4196 31.9408 24.4196 32.3315 24.1265 32.3315 23.4428Z" transform="matrix(1.0003 0 -0 1 992.372 919.265)"/><path d="M41.1225 52.1602 6.44676 95.0409C5.66534 96.0177 5.56766 96.2131 5.56766 96.6038 5.56766 97.6782 6.44676 97.6782 8.20497 97.6782L89.1802 97.6782 97.5806 73.3564 95.1386 73.3564C92.6966 80.6822 86.1522 86.6406 77.8496 89.4733 76.2867 89.9617 69.5469 92.3059 55.1882 92.3059L13.675 92.3059 47.5693 50.402C48.253 49.5229 48.4484 49.2298 48.4484 48.8391 48.4484 48.4484 48.3507 48.3507 47.7647 47.4716L16.0192 3.90713 54.6998 3.90713C65.8351 3.90713 88.3011 4.59088 95.1386 22.8567L97.5806 22.8567 89.1802 0 8.20497 0C5.56766 0 5.46998 0.0976818 5.46998 3.1257L41.1225 52.1602Z" transform="matrix(1.0003 0 -0 1 1030.37 846.005)"/><path d="M8.34172-4.30761C8.06822-3.41873 7.65797-1.70937 7.65797-1.50425 7.65797 0 8.88872 0.683743 9.98272 0.683743 11.2135 0.683743 12.3075-0.205129 12.6493-0.820495 12.9912-1.43586 13.5382-3.62386 13.8801-5.05973 14.2219-6.35885 14.9741-9.50409 15.3843-11.2135 15.7946-12.7177 16.2048-14.2219 16.5467-15.7946 17.2988-18.5979 17.4356-19.1449 19.4184-21.9483 21.3329-24.6833 24.5465-28.2388 29.6746-28.2388 33.6404-28.2388 33.7088-24.7517 33.7088-23.4525 33.7088-19.3501 30.7686-11.7605 29.6746-8.88872 28.9225-6.97423 28.649-6.35885 28.649-5.19648 28.649-1.57262 31.6575 0.683743 35.1446 0.683743 41.9821 0.683743 44.9906-8.75197 44.9906-9.77759 44.9906-10.6665 44.1017-10.6665 43.8966-10.6665 42.9394-10.6665 42.871-10.2562 42.5975-9.50409 41.0249-4.03411 38.0847-1.23074 35.3498-1.23074 33.9139-1.23074 33.6404-2.18799 33.6404-3.62386 33.6404-5.19648 33.9823-6.08535 35.213-9.16222 36.0335-11.2818 38.8369-18.5296 38.8369-22.3585 38.8369-28.9909 33.572-30.1533 29.9481-30.1533 24.273-30.1533 20.4441-26.6662 18.3928-23.9312 17.9142-28.649 13.8801-30.1533 11.0767-30.1533 8.1366-30.1533 6.56397-28.0337 5.6751-26.461 4.17086-23.9312 3.21362-20.0338 3.21362-19.6919 3.21362-18.8031 4.17086-18.8031 4.37598-18.8031 5.33323-18.8031 5.40161-19.0082 5.88023-20.8543 6.90585-24.8884 8.20497-28.2388 10.8716-28.2388 12.6493-28.2388 13.128-26.7345 13.128-24.8884 13.128-23.5893 12.5126-21.0594 12.034-19.2133 11.5553-17.3672 10.8716-14.5638 10.5297-13.0596L8.34172-4.30761Z" transform="matrix(1.0003 0 -0 1 1133.51 870.153)"/><path d="M22.1534-42.7342C22.1534-43.8282 21.3329-45.3325 19.4184-45.3325 17.5723-45.3325 15.5894-43.5547 15.5894-41.5719 15.5894-40.4095 16.4783-38.9736 18.3244-38.9736 20.3073-38.9736 22.1534-40.8881 22.1534-42.7342ZM8.20497-7.99985C7.93147-7.11097 7.5896-6.29048 7.5896-5.12811 7.5896-1.9145 10.3246 0.683743 14.0852 0.683743 20.9227 0.683743 23.9312-8.75197 23.9312-9.77759 23.9312-10.6665 23.0423-10.6665 22.8372-10.6665 21.8799-10.6665 21.8116-10.2562 21.538-9.50409 19.9654-4.03411 16.9569-1.23074 14.2903-1.23074 12.9228-1.23074 12.581-2.11961 12.581-3.62386 12.581-5.19648 13.0596-6.49561 13.675-7.99985 14.3587-9.84596 15.1108-11.6921 15.8629-13.4698 16.4783-15.1108 18.9398-21.3329 19.2133-22.1534 19.4184-22.8372 19.6236-23.6577 19.6236-24.3414 19.6236-27.555 16.8886-30.1533 13.128-30.1533 6.35885-30.1533 3.21362-20.8543 3.21362-19.6919 3.21362-18.8031 4.17086-18.8031 4.37598-18.8031 5.33323-18.8031 5.40161-19.1449 5.60674-19.8971 7.38448-25.7773 10.393-28.2388 12.9228-28.2388 14.0168-28.2388 14.6322-27.6918 14.6322-25.8457 14.6322-24.273 14.2219-23.2474 12.5126-19.0082L8.20497-7.99985Z" transform="matrix(1.0003 0 -0 1 1133.51 948.568)"/><path d="M52.5118-22.9739C53.5374-22.9739 55.1101-22.9739 55.1101-24.6833 55.1101-26.3243 53.4691-26.3243 52.5802-26.3243L7.3161-26.3243C6.42723-26.3243 4.78623-26.3243 4.78623-24.6833 4.78623-22.9739 6.35885-22.9739 7.38448-22.9739L52.5118-22.9739ZM52.5802-7.93147C53.4691-7.93147 55.1101-7.93147 55.1101-9.57247 55.1101-11.2818 53.5374-11.2818 52.5118-11.2818L7.38448-11.2818C6.35885-11.2818 4.78623-11.2818 4.78623-9.57247 4.78623-7.93147 6.42723-7.93147 7.3161-7.93147L52.5802-7.93147Z" transform="matrix(1.0003 0 -0 1 1161.15 948.568)"/><path d="M22.9055-43.4863C22.9055-45.3325 22.7688-45.4008 20.8543-45.4008 16.4783-41.0932 10.2562-41.0249 7.45285-41.0249L7.45285-38.5634C9.09385-38.5634 13.6066-38.5634 17.3672-40.4779L17.3672-5.60674C17.3672-3.35037 17.3672-2.4615 10.5297-2.4615L7.93147-2.4615 7.93147 0C9.16222-0.0683763 17.5723-0.273495 20.1022-0.273495 22.2218-0.273495 30.837-0.0683763 32.3413 0L32.3413-2.4615 29.743-2.4615C22.9055-2.4615 22.9055-3.35037 22.9055-5.60674L22.9055-43.4863Z" transform="matrix(1.0003 0 -0 1 1221.13 948.568)"/><path d="M38.6806-37.1177C37.1177-37.1177 35.7502-37.1177 34.3827-35.7502 32.8199-34.2851 32.6245-32.6245 32.6245-31.9408 32.6245-29.5965 34.3827-28.522 36.2386-28.522 39.0713-28.522 41.7086-30.8663 41.7086-34.7735 41.7086-39.5597 37.1177-43.1738 30.1826-43.1738 16.996-43.1738 4.00481-29.2058 4.00481-15.4332 4.00481-6.64212 9.67014 1.07446 19.8287 1.07446 33.7967 1.07446 42.0016-9.27943 42.0016-10.4516 42.0016-11.0376 41.4156-11.7214 40.8295-11.7214 40.3411-11.7214 40.1458-11.526 39.5597-10.7446 31.8431-1.07446 21.1962-1.07446 20.024-1.07446 13.8703-1.07446 11.233-5.86069 11.233-11.7214 11.233-15.7262 13.1866-25.201 16.5076-31.257 19.5356-36.8247 24.9079-41.0249 30.2802-41.0249 33.6013-41.0249 37.3131-39.755 38.6806-37.1177Z" transform="matrix(1.0003 0 -0 1 1281.25 919.265)"/><path d="M22.1534-42.7342C22.1534-43.8282 21.3329-45.3325 19.4184-45.3325 17.5723-45.3325 15.5894-43.5547 15.5894-41.5719 15.5894-40.4095 16.4783-38.9736 18.3244-38.9736 20.3073-38.9736 22.1534-40.8881 22.1534-42.7342ZM8.20497-7.99985C7.93147-7.11097 7.5896-6.29048 7.5896-5.12811 7.5896-1.9145 10.3246 0.683743 14.0852 0.683743 20.9227 0.683743 23.9312-8.75197 23.9312-9.77759 23.9312-10.6665 23.0423-10.6665 22.8372-10.6665 21.8799-10.6665 21.8116-10.2562 21.538-9.50409 19.9654-4.03411 16.9569-1.23074 14.2903-1.23074 12.9228-1.23074 12.581-2.11961 12.581-3.62386 12.581-5.19648 13.0596-6.49561 13.675-7.99985 14.3587-9.84596 15.1108-11.6921 15.8629-13.4698 16.4783-15.1108 18.9398-21.3329 19.2133-22.1534 19.4184-22.8372 19.6236-23.6577 19.6236-24.3414 19.6236-27.555 16.8886-30.1533 13.128-30.1533 6.35885-30.1533 3.21362-20.8543 3.21362-19.6919 3.21362-18.8031 4.17086-18.8031 4.37598-18.8031 5.33323-18.8031 5.40161-19.1449 5.60674-19.8971 7.38448-25.7773 10.393-28.2388 12.9228-28.2388 14.0168-28.2388 14.6322-27.6918 14.6322-25.8457 14.6322-24.273 14.2219-23.2474 12.5126-19.0082L8.20497-7.99985Z" transform="matrix(1.0003 0 -0 1 1323.53 933.916)"/><path d="M32.6245-29.4988C33.2106-32.0385 35.4572-41.0249 42.2947-41.0249 42.7831-41.0249 45.1273-41.0249 47.1786-39.755 44.4436-39.2666 42.49-36.8247 42.49-34.4804 42.49-32.9176 43.5645-31.0617 46.2018-31.0617 48.3507-31.0617 51.4764-32.8199 51.4764-36.727 51.4764-41.8063 45.7134-43.1738 42.3924-43.1738 36.727-43.1738 33.3083-37.9968 32.1361-35.7502 29.6942-42.197 24.4196-43.1738 21.5869-43.1738 11.4284-43.1738 5.86069-30.5733 5.86069-28.1313 5.86069-27.1546 6.83748-27.1546 7.03283-27.1546 7.81426-27.1546 8.10729-27.3499 8.30265-28.229 11.6237-38.5829 18.0705-41.0249 21.3915-41.0249 23.2474-41.0249 26.6662-40.1458 26.6662-34.4804 26.6662-31.4524 25.0056-24.9079 21.3915-11.233 19.8287-5.17695 16.4099-1.07446 12.1121-1.07446 11.526-1.07446 9.27943-1.07446 7.22819-2.34427 9.67014-2.83267 11.8191-4.88391 11.8191-7.6189 11.8191-10.2562 9.67014-11.0376 8.20497-11.0376 5.27463-11.0376 2.83267-8.49801 2.83267-5.3723 2.83267-0.879106 7.71658 1.07446 12.0144 1.07446 18.4612 1.07446 21.9776-5.76302 22.2706-6.34909 23.4428-2.73499 26.9592 1.07446 32.8199 1.07446 42.8807 1.07446 48.4484-11.526 48.4484-13.968 48.4484-14.9448 47.5693-14.9448 47.2763-14.9448 46.3972-14.9448 46.2018-14.5541 46.0064-13.8703 42.7831-3.41873 36.1409-1.07446 33.0152-1.07446 29.2058-1.07446 27.6429-4.20017 27.6429-7.52122 27.6429-9.67014 28.229-11.8191 29.3035-16.1169L32.6245-29.4988Z" transform="matrix(1.0003 0 -0 1 1356.06 919.265)"/><path d="M22.1534-42.7342C22.1534-43.8282 21.3329-45.3325 19.4184-45.3325 17.5723-45.3325 15.5894-43.5547 15.5894-41.5719 15.5894-40.4095 16.4783-38.9736 18.3244-38.9736 20.3073-38.9736 22.1534-40.8881 22.1534-42.7342ZM8.20497-7.99985C7.93147-7.11097 7.5896-6.29048 7.5896-5.12811 7.5896-1.9145 10.3246 0.683743 14.0852 0.683743 20.9227 0.683743 23.9312-8.75197 23.9312-9.77759 23.9312-10.6665 23.0423-10.6665 22.8372-10.6665 21.8799-10.6665 21.8116-10.2562 21.538-9.50409 19.9654-4.03411 16.9569-1.23074 14.2903-1.23074 12.9228-1.23074 12.581-2.11961 12.581-3.62386 12.581-5.19648 13.0596-6.49561 13.675-7.99985 14.3587-9.84596 15.1108-11.6921 15.8629-13.4698 16.4783-15.1108 18.9398-21.3329 19.2133-22.1534 19.4184-22.8372 19.6236-23.6577 19.6236-24.3414 19.6236-27.555 16.8886-30.1533 13.128-30.1533 6.35885-30.1533 3.21362-20.8543 3.21362-19.6919 3.21362-18.8031 4.17086-18.8031 4.37598-18.8031 5.33323-18.8031 5.40161-19.1449 5.60674-19.8971 7.38448-25.7773 10.393-28.2388 12.9228-28.2388 14.0168-28.2388 14.6322-27.6918 14.6322-25.8457 14.6322-24.273 14.2219-23.2474 12.5126-19.0082L8.20497-7.99985Z" transform="matrix(1.0003 0 -0 1 1411.9 933.916)"/><path d="M28.229-24.4196C28.229-32.0385 27.1546-43.8575 21.7822-54.8952 15.9215-66.9096 7.52122-73.2587 6.54444-73.2587 5.95837-73.2587 5.56766-72.868 5.56766-72.2819 5.56766-71.9889 5.56766-71.7935 7.42355-70.0353 16.996-60.3652 22.5637-44.8343 22.5637-24.4196 22.5637-7.71658 18.9496 9.47479 6.83748 21.7822 5.56766 22.9544 5.56766 23.1497 5.56766 23.4428 5.56766 24.0288 5.95837 24.4196 6.54444 24.4196 7.52122 24.4196 16.3123 17.7774 22.0753 5.3723 27.0569-5.3723 28.229-16.2146 28.229-24.4196Z" transform="matrix(1.0003 0 -0 1 1444.43 919.265)"/><path d="M2209.37 842.394 2772.84 842.394 2772.84 846.301 2209.37 846.301Z" transform="matrix(1.0003 0 -0 1 -1291.24 117.895)"/><path d="M45.225-33.1129C44.2482-39.169 40.2434-44.639 32.6245-44.639 26.6662-44.639 20.3171-43.0761 12.6982-35.4572 4.59088-27.3499 3.90713-18.2658 3.90713-15.2378 3.90713-9.18175 8.20497 2.14892 21.8799 2.14892 45.1273 2.14892 55.2859-30.671 55.2859-44.639 55.2859-60.1698 46.2018-69.9376 34.1874-69.9376 20.024-69.9376 15.5308-57.2394 15.5308-54.5045 15.5308-53.137 16.3123-51.0857 19.2426-51.0857 22.466-51.0857 24.5172-54.0161 24.5172-56.2627 24.5172-59.6814 21.4892-59.6814 19.9264-59.6814 24.2242-66.9096 31.1594-67.4957 33.992-67.4957 41.1225-67.4957 47.96-62.4164 47.96-49.8159 47.96-46.0064 47.3739-41.0249 45.3227-33.1129L45.225-33.1129ZM22.173-0.586071C11.4284-0.586071 11.4284-10.6469 11.4284-11.6237 11.4284-14.261 13.8703-27.936 17.8751-33.7967 21.7822-39.3643 26.5685-42.49 32.6245-42.49 43.2715-42.49 43.4668-31.5501 43.4668-29.5965 43.4668-22.5637 37.2154-0.586071 22.173-0.586071Z" transform="matrix(1.0003 0 -0 1 1120 1053.66)"/><path d="M32.6245-29.4988C33.2106-32.0385 35.4572-41.0249 42.2947-41.0249 42.7831-41.0249 45.1273-41.0249 47.1786-39.755 44.4436-39.2666 42.49-36.8247 42.49-34.4804 42.49-32.9176 43.5645-31.0617 46.2018-31.0617 48.3507-31.0617 51.4764-32.8199 51.4764-36.727 51.4764-41.8063 45.7134-43.1738 42.3924-43.1738 36.727-43.1738 33.3083-37.9968 32.1361-35.7502 29.6942-42.197 24.4196-43.1738 21.5869-43.1738 11.4284-43.1738 5.86069-30.5733 5.86069-28.1313 5.86069-27.1546 6.83748-27.1546 7.03283-27.1546 7.81426-27.1546 8.10729-27.3499 8.30265-28.229 11.6237-38.5829 18.0705-41.0249 21.3915-41.0249 23.2474-41.0249 26.6662-40.1458 26.6662-34.4804 26.6662-31.4524 25.0056-24.9079 21.3915-11.233 19.8287-5.17695 16.4099-1.07446 12.1121-1.07446 11.526-1.07446 9.27943-1.07446 7.22819-2.34427 9.67014-2.83267 11.8191-4.88391 11.8191-7.6189 11.8191-10.2562 9.67014-11.0376 8.20497-11.0376 5.27463-11.0376 2.83267-8.49801 2.83267-5.3723 2.83267-0.879106 7.71658 1.07446 12.0144 1.07446 18.4612 1.07446 21.9776-5.76302 22.2706-6.34909 23.4428-2.73499 26.9592 1.07446 32.8199 1.07446 42.8807 1.07446 48.4484-11.526 48.4484-13.968 48.4484-14.9448 47.5693-14.9448 47.2763-14.9448 46.3972-14.9448 46.2018-14.5541 46.0064-13.8703 42.7831-3.41873 36.1409-1.07446 33.0152-1.07446 29.2058-1.07446 27.6429-4.20017 27.6429-7.52122 27.6429-9.67014 28.229-11.8191 29.3035-16.1169L32.6245-29.4988Z" transform="matrix(1.0003 0 -0 1 1177.3 1053.66)"/><path d="M21.4013-45.4008C21.4697-45.5376 21.6748-46.4265 21.6748-46.4948 21.6748-46.8367 21.4013-47.4521 20.5808-47.4521 19.2133-47.4521 13.5382-46.9051 11.8288-46.7683 11.2818-46.7 10.3246-46.6316 10.3246-45.1957 10.3246-44.2385 11.2818-44.2385 12.1023-44.2385 15.3843-44.2385 15.3843-43.7599 15.3843-43.2129 15.3843-42.7342 15.2476-42.324 15.1108-41.7086L5.46998-3.00849C5.12811-1.77774 5.12811-1.64099 5.12811-1.50425 5.12811-0.478624 5.94861 0.683743 7.45285 0.683743 9.29896 0.683743 10.1878-0.683743 10.5981-2.18799 10.7348-2.4615 13.675-14.4955 13.9485-15.4527 18.8031-14.9741 22.7004-13.4015 22.7004-9.84596 22.7004-9.50409 22.7004-9.16222 22.5637-8.47847 22.2902-7.45285 22.2902-7.11097 22.2902-6.35885 22.2902-1.50425 26.2559 0.683743 29.5379 0.683743 36.1703 0.683743 38.2215-9.70921 38.2215-9.77759 38.2215-10.6665 37.3326-10.6665 37.1275-10.6665 36.1703-10.6665 36.1019-10.3246 35.76-9.02547 34.9395-6.08535 33.0934-1.23074 29.743-1.23074 27.8969-1.23074 27.3499-2.94011 27.3499-4.78623 27.3499-5.94861 27.3499-6.08535 27.7602-7.8631 27.8285-8.06822 28.102-9.23059 28.102-9.98272 28.102-16.0681 19.8971-17.0253 17.0253-17.2304 19.0082-18.4612 21.538-20.7176 22.7004-21.7432 26.1875-25.0252 29.6063-28.2388 33.4353-28.2388 34.2558-28.2388 35.1446-28.0337 35.6916-27.3499 32.7515-26.8713 32.1361-24.5465 32.1361-23.5209 32.1361-22.0167 33.2985-20.991 34.8711-20.991 36.7172-20.991 38.7685-22.4953 38.7685-25.367 38.7685-27.6234 37.1275-30.1533 33.5036-30.1533 29.6063-30.1533 26.0508-27.3499 22.5637-24.1363 19.6919-21.4013 17.4356-19.2817 14.6322-18.1193L21.4013-45.4008Z" transform="matrix(1.0003 0 -0 1 1233.14 1068.32)"/></g></g></g><g clip-path="url(#clip10)"><g clip-path="url(#clip11)"><g clip-path="url(#clip12)"><path d="M45.2337-33.1192C44.2567-39.1764 40.2511-44.6475 32.6308-44.6475 26.6712-44.6475 20.3209-43.0843 12.7006-35.464 4.59175-27.3551 3.90788-18.2693 3.90788-15.2407 3.90788-9.1835 8.20654 2.14933 21.8841 2.14933 45.136 2.14933 55.2964-30.6768 55.2964-44.6475 55.2964-60.1813 46.2106-69.951 34.1939-69.951 20.0279-69.951 15.5338-57.2504 15.5338-54.5149 15.5338-53.1471 16.3154-51.0955 19.2463-51.0955 22.4703-51.0955 24.5219-54.0264 24.5219-56.2734 24.5219-59.6928 21.4933-59.6928 19.9302-59.6928 24.2288-66.9224 31.1653-67.5085 33.9985-67.5085 41.1304-67.5085 47.9692-62.4283 47.9692-49.8254 47.9692-46.0152 47.383-41.0327 45.3313-33.1192L45.2337-33.1192ZM22.1772-0.586183C11.4305-0.586183 11.4305-10.649 11.4305-11.6259 11.4305-14.2637 13.873-27.9413 17.8785-33.8031 21.7864-39.3718 26.5735-42.4981 32.6308-42.4981 43.2797-42.4981 43.4751-31.5561 43.4751-29.6022 43.4751-22.568 37.2225-0.586183 22.1772-0.586183Z" transform="matrix(1 0 -0 1.00127 1313.25 495.366)"/><path d="M35.8548-39.0788 44.2567-39.0788C46.2106-39.0788 47.1876-39.0788 47.1876-41.0327 47.1876-42.1074 46.2106-42.1074 44.5498-42.1074L36.4409-42.1074 38.4926-53.2448C38.8834-55.2964 40.2511-62.2329 40.8373-63.4053 41.7166-65.2615 43.3774-66.727 45.4291-66.727 45.8198-66.727 48.36-66.727 50.2162-64.9684 45.9175-64.5776 44.9406-61.1582 44.9406-59.6928 44.9406-57.4458 46.6991-56.2734 48.5553-56.2734 51.0955-56.2734 53.9287-58.4227 53.9287-62.1352 53.9287-66.6293 49.4346-68.8763 45.4291-68.8763 42.1074-68.8763 35.9525-67.1178 33.0215-57.4458 32.4354-55.3941 32.1423-54.4172 29.7975-42.1074L23.0565-42.1074C21.2002-42.1074 20.1256-42.1074 20.1256-40.2511 20.1256-39.0788 21.0048-39.0788 22.8611-39.0788L29.3091-39.0788 21.9818-0.488482C20.2233 8.98811 18.5624 17.8785 13.4822 17.8785 13.0914 17.8785 10.649 17.8785 8.79272 16.12 13.2868 15.8269 14.166 12.3098 14.166 10.8444 14.166 8.59732 12.4075 7.42497 10.5513 7.42497 8.01114 7.42497 5.17794 9.5743 5.17794 13.2868 5.17794 17.6831 9.4766 20.0279 13.4822 20.0279 18.8555 20.0279 22.7634 14.2637 24.5219 10.5513 27.6482 4.39636 29.8952-7.42497 29.9929-8.10884L35.8548-39.0788Z" transform="matrix(1 0 -0 1.00127 1370.54 495.366)"/><path d="M32.3377 23.4473C32.3377 23.1542 32.3377 22.9588 30.6768 21.2979 18.4647 8.98811 15.3384-9.4766 15.3384-24.4242 15.3384-41.4235 19.0509-58.4227 31.0676-70.6348 32.3377-71.8072 32.3377-72.0026 32.3377-72.2957 32.3377-72.9796 31.9469-73.2727 31.3607-73.2727 30.3837-73.2727 21.591-66.6293 15.8269-54.2218 10.8444-43.4751 9.67199-32.6308 9.67199-24.4242 9.67199-16.8039 10.7467-4.98254 16.12 6.05721 21.9818 18.0739 30.3837 24.4242 31.3607 24.4242 31.9469 24.4242 32.3377 24.1311 32.3377 23.4473Z" transform="matrix(1 0 -0 1.00127 1428.89 495.366)"/><path d="M32.6308-29.5045C33.2169-32.0446 35.464-41.0327 42.3027-41.0327 42.7912-41.0327 45.136-41.0327 47.1876-39.7626 44.4521-39.2741 42.4981-36.8317 42.4981-34.487 42.4981-32.9239 43.5728-31.0676 46.2106-31.0676 48.36-31.0676 51.4862-32.8261 51.4862-36.734 51.4862-41.8143 45.7221-43.182 42.4004-43.182 36.734-43.182 33.3146-38.0041 32.1423-35.7571 29.6999-42.2051 24.4242-43.182 21.591-43.182 11.4305-43.182 5.86181-30.5791 5.86181-28.1367 5.86181-27.1597 6.83878-27.1597 7.03417-27.1597 7.81575-27.1597 8.10884-27.3551 8.30423-28.2344 11.6259-38.5903 18.0739-41.0327 21.3956-41.0327 23.2519-41.0327 26.6712-40.1534 26.6712-34.487 26.6712-31.4584 25.0104-24.9127 21.3956-11.2351 19.8325-5.17794 16.4131-1.07467 12.1144-1.07467 11.5282-1.07467 9.28121-1.07467 7.22957-2.34472 9.67199-2.83321 11.8213-4.88484 11.8213-7.62036 11.8213-10.2582 9.67199-11.0397 8.20654-11.0397 5.27564-11.0397 2.83321-8.49963 2.83321-5.37333 2.83321-0.879274 7.71806 1.07467 12.0167 1.07467 18.4647 1.07467 21.9818-5.76412 22.2749-6.3503 23.4473-2.73551 26.9643 1.07467 32.8261 1.07467 42.8889 1.07467 48.4576-11.5282 48.4576-13.9707 48.4576-14.9476 47.5784-14.9476 47.2853-14.9476 46.406-14.9476 46.2106-14.5568 46.0152-13.873 42.7912-3.41939 36.1478-1.07467 33.0215-1.07467 29.2114-1.07467 27.6482-4.20097 27.6482-7.52266 27.6482-9.67199 28.2344-11.8213 29.3091-16.12L32.6308-29.5045Z" transform="matrix(1 0 -0 1.00127 1466.88 495.366)"/><path d="M28.2344-24.4242C28.2344-32.0446 27.1597-43.8659 21.7864-54.9056 15.9246-66.9224 7.52266-73.2727 6.54569-73.2727 5.95951-73.2727 5.56872-72.8819 5.56872-72.2957 5.56872-72.0026 5.56872-71.8072 7.42497-70.0487 16.9993-60.3767 22.568-44.8429 22.568-24.4242 22.568-7.71806 18.9532 9.4766 6.83878 21.7864 5.56872 22.9588 5.56872 23.1542 5.56872 23.4473 5.56872 24.0334 5.95951 24.4242 6.54569 24.4242 7.52266 24.4242 16.3154 17.7808 22.0795 5.37333 27.062-5.37333 28.2344-16.2177 28.2344-24.4242Z" transform="matrix(1 0 -0 1.00127 1522.72 495.366)"/><path d="M2056.95 835.944 2304.42 835.944 2304.42 839.852 2056.95 839.852Z" transform="matrix(1 0 -0 1.00127 -743.707 -301.874)"/><path d="M45.2337-33.1192C44.2567-39.1764 40.2511-44.6475 32.6308-44.6475 26.6712-44.6475 20.3209-43.0843 12.7006-35.464 4.59175-27.3551 3.90788-18.2693 3.90788-15.2407 3.90788-9.1835 8.20654 2.14933 21.8841 2.14933 45.136 2.14933 55.2964-30.6768 55.2964-44.6475 55.2964-60.1813 46.2106-69.951 34.1939-69.951 20.0279-69.951 15.5338-57.2504 15.5338-54.5149 15.5338-53.1471 16.3154-51.0955 19.2463-51.0955 22.4703-51.0955 24.5219-54.0264 24.5219-56.2734 24.5219-59.6928 21.4933-59.6928 19.9302-59.6928 24.2288-66.9224 31.1653-67.5085 33.9985-67.5085 41.1304-67.5085 47.9692-62.4283 47.9692-49.8254 47.9692-46.0152 47.383-41.0327 45.3313-33.1192L45.2337-33.1192ZM22.1772-0.586183C11.4305-0.586183 11.4305-10.649 11.4305-11.6259 11.4305-14.2637 13.873-27.9413 17.8785-33.8031 21.7864-39.3718 26.5735-42.4981 32.6308-42.4981 43.2797-42.4981 43.4751-31.5561 43.4751-29.6022 43.4751-22.568 37.2225-0.586183 22.1772-0.586183Z" transform="matrix(1 0 -0 1.00127 1356.38 628.642)"/><path d="M32.6308-29.5045C33.2169-32.0446 35.464-41.0327 42.3027-41.0327 42.7912-41.0327 45.136-41.0327 47.1876-39.7626 44.4521-39.2741 42.4981-36.8317 42.4981-34.487 42.4981-32.9239 43.5728-31.0676 46.2106-31.0676 48.36-31.0676 51.4862-32.8261 51.4862-36.734 51.4862-41.8143 45.7221-43.182 42.4004-43.182 36.734-43.182 33.3146-38.0041 32.1423-35.7571 29.6999-42.2051 24.4242-43.182 21.591-43.182 11.4305-43.182 5.86181-30.5791 5.86181-28.1367 5.86181-27.1597 6.83878-27.1597 7.03417-27.1597 7.81575-27.1597 8.10884-27.3551 8.30423-28.2344 11.6259-38.5903 18.0739-41.0327 21.3956-41.0327 23.2519-41.0327 26.6712-40.1534 26.6712-34.487 26.6712-31.4584 25.0104-24.9127 21.3956-11.2351 19.8325-5.17794 16.4131-1.07467 12.1144-1.07467 11.5282-1.07467 9.28121-1.07467 7.22957-2.34472 9.67199-2.83321 11.8213-4.88484 11.8213-7.62036 11.8213-10.2582 9.67199-11.0397 8.20654-11.0397 5.27564-11.0397 2.83321-8.49963 2.83321-5.37333 2.83321-0.879274 7.71806 1.07467 12.0167 1.07467 18.4647 1.07467 21.9818-5.76412 22.2749-6.3503 23.4473-2.73551 26.9643 1.07467 32.8261 1.07467 42.8889 1.07467 48.4576-11.5282 48.4576-13.9707 48.4576-14.9476 47.5784-14.9476 47.2853-14.9476 46.406-14.9476 46.2106-14.5568 46.0152-13.873 42.7912-3.41939 36.1478-1.07467 33.0215-1.07467 29.2114-1.07467 27.6482-4.20097 27.6482-7.52266 27.6482-9.67199 28.2344-11.8213 29.3091-16.12L32.6308-29.5045Z" transform="matrix(1 0 -0 1.00127 1413.68 628.642)"/><path d="M21.4054-45.4095C21.4738-45.5463 21.6789-46.4353 21.6789-46.5037 21.6789-46.8456 21.4054-47.4611 20.5847-47.4611 19.217-47.4611 13.5408-46.914 11.8311-46.7773 11.284-46.7089 10.3266-46.6405 10.3266-45.2043 10.3266-44.2469 11.284-44.2469 12.1046-44.2469 15.3873-44.2469 15.3873-43.7682 15.3873-43.2211 15.3873-42.7424 15.2505-42.3321 15.1137-41.7166L5.47103-3.00906C5.12909-1.77808 5.12909-1.6413 5.12909-1.50454 5.12909-0.478715 5.94974 0.683873 7.45427 0.683873 9.30074 0.683873 10.1898-0.683873 10.6001-2.18841 10.7369-2.46197 13.6776-14.4982 13.9511-15.4556 18.8066-14.9769 22.7048-13.404 22.7048-9.84784 22.7048-9.50591 22.7048-9.16397 22.568-8.48009 22.2944-7.45427 22.2944-7.11233 22.2944-6.36007 22.2944-1.50454 26.2609 0.683873 29.5435 0.683873 36.1772 0.683873 38.2288-9.71107 38.2288-9.77945 38.2288-10.6685 37.3397-10.6685 37.1346-10.6685 36.1772-10.6685 36.1088-10.3266 35.7668-9.02719 34.9462-6.08651 33.0997-1.23098 29.7487-1.23098 27.9022-1.23098 27.3551-2.94067 27.3551-4.78714 27.3551-5.94974 27.3551-6.08651 27.7654-7.8646 27.8338-8.06976 28.1074-9.23235 28.1074-9.98462 28.1074-16.0711 19.9009-17.0286 17.0286-17.2337 19.0118-18.4647 21.5422-20.7215 22.7048-21.7473 26.1925-25.0299 29.6119-28.2442 33.4416-28.2442 34.2623-28.2442 35.1513-28.039 35.6984-27.3551 32.7578-26.8764 32.1423-24.5512 32.1423-23.5254 32.1423-22.0209 33.3049-20.9951 34.8778-20.9951 36.7243-20.9951 38.7759-22.4996 38.7759-25.3719 38.7759-27.6287 37.1346-30.159 33.51-30.159 29.6119-30.159 26.0558-27.3551 22.568-24.1409 19.6957-21.4054 17.4389-19.2854 14.635-18.1228L21.4054-45.4095Z" transform="matrix(1 0 -0 1.00127 1469.51 643.315)"/><path d="M67.1178-31.9469C68.5832-31.9469 70.4395-31.9469 70.4395-33.9008 70.4395-35.8548 68.5832-35.8548 67.2154-35.8548L8.69502-35.8548C7.32727-35.8548 5.47103-35.8548 5.47103-33.9008 5.47103-31.9469 7.32727-31.9469 8.79272-31.9469L67.1178-31.9469ZM67.2154-12.9937C68.5832-12.9937 70.4395-12.9937 70.4395-14.9476 70.4395-16.9016 68.5832-16.9016 67.1178-16.9016L8.79272-16.9016C7.32727-16.9016 5.47103-16.9016 5.47103-14.9476 5.47103-12.9937 7.32727-12.9937 8.69502-12.9937L67.2154-12.9937Z" transform="matrix(1 0 -0 1.00127 1599.57 561.542)"/><path d="M38.688-37.1248C37.1248-37.1248 35.7571-37.1248 34.3893-35.7571 32.8261-34.2916 32.6308-32.6308 32.6308-31.9469 32.6308-29.6022 34.3893-28.5275 36.2455-28.5275 39.0788-28.5275 41.7166-30.8722 41.7166-34.7801 41.7166-39.5672 37.1248-43.182 30.1883-43.182 16.9993-43.182 4.00557-29.2114 4.00557-15.4361 4.00557-6.64339 9.67199 1.07467 19.8325 1.07467 33.8031 1.07467 42.0097-9.28121 42.0097-10.4536 42.0097-11.0397 41.4235-11.7236 40.8373-11.7236 40.3488-11.7236 40.1534-11.5282 39.5672-10.7467 31.8492-1.07467 21.2002-1.07467 20.0279-1.07467 13.873-1.07467 11.2351-5.86181 11.2351-11.7236 11.2351-15.7292 13.1891-25.2058 16.5108-31.263 19.5394-36.8317 24.9127-41.0327 30.286-41.0327 33.6077-41.0327 37.3202-39.7626 38.688-37.1248Z" transform="matrix(1 0 -0 1.00127 1702.7 561.542)"/><path d="M21.4054-45.4095C21.4738-45.5463 21.6789-46.4353 21.6789-46.5037 21.6789-46.8456 21.4054-47.4611 20.5847-47.4611 19.217-47.4611 13.5408-46.914 11.8311-46.7773 11.284-46.7089 10.3266-46.6405 10.3266-45.2043 10.3266-44.2469 11.284-44.2469 12.1046-44.2469 15.3873-44.2469 15.3873-43.7682 15.3873-43.2211 15.3873-42.7424 15.2505-42.3321 15.1137-41.7166L5.47103-3.00906C5.12909-1.77808 5.12909-1.6413 5.12909-1.50454 5.12909-0.478715 5.94974 0.683873 7.45427 0.683873 9.30074 0.683873 10.1898-0.683873 10.6001-2.18841 10.7369-2.46197 13.6776-14.4982 13.9511-15.4556 18.8066-14.9769 22.7048-13.404 22.7048-9.84784 22.7048-9.50591 22.7048-9.16397 22.568-8.48009 22.2944-7.45427 22.2944-7.11233 22.2944-6.36007 22.2944-1.50454 26.2609 0.683873 29.5435 0.683873 36.1772 0.683873 38.2288-9.71107 38.2288-9.77945 38.2288-10.6685 37.3397-10.6685 37.1346-10.6685 36.1772-10.6685 36.1088-10.3266 35.7668-9.02719 34.9462-6.08651 33.0997-1.23098 29.7487-1.23098 27.9022-1.23098 27.3551-2.94067 27.3551-4.78714 27.3551-5.94974 27.3551-6.08651 27.7654-7.8646 27.8338-8.06976 28.1074-9.23235 28.1074-9.98462 28.1074-16.0711 19.9009-17.0286 17.0286-17.2337 19.0118-18.4647 21.5422-20.7215 22.7048-21.7473 26.1925-25.0299 29.6119-28.2442 33.4416-28.2442 34.2623-28.2442 35.1513-28.039 35.6984-27.3551 32.7578-26.8764 32.1423-24.5512 32.1423-23.5254 32.1423-22.0209 33.3049-20.9951 34.8778-20.9951 36.7243-20.9951 38.7759-22.4996 38.7759-25.3719 38.7759-27.6287 37.1346-30.159 33.51-30.159 29.6119-30.159 26.0558-27.3551 22.568-24.1409 19.6957-21.4054 17.4389-19.2854 14.635-18.1228L21.4054-45.4095Z" transform="matrix(1 0 -0 1.00127 1744.98 576.215)"/></g></g></g><g clip-path="url(#clip13)"><g clip-path="url(#clip14)"><g clip-path="url(#clip15)"><path d="M74.88-63.456C75.072-63.744 75.36-64.416 75.36-64.8 75.36-65.472 75.264-65.568 73.056-65.568L6.816-65.568C4.608-65.568 4.512-65.472 4.512-64.8 4.512-64.416 4.8-63.744 4.992-63.456L37.344 1.344C38.016 2.592 38.304 3.168 39.936 3.168 41.568 3.168 41.856 2.592 42.528 1.344L74.88-63.456ZM16.416-58.656 69.12-58.656 42.816-5.856 16.416-58.656Z" transform="matrix(1.00208 0 -0 1 1304.47 230)"/><path d="M35.232-38.4 43.488-38.4C45.408-38.4 46.368-38.4 46.368-40.32 46.368-41.376 45.408-41.376 43.776-41.376L35.808-41.376 37.824-52.32C38.208-54.336 39.552-61.152 40.128-62.304 40.992-64.128 42.624-65.568 44.64-65.568 45.024-65.568 47.52-65.568 49.344-63.84 45.12-63.456 44.16-60.096 44.16-58.656 44.16-56.448 45.888-55.296 47.712-55.296 50.208-55.296 52.992-57.408 52.992-61.056 52.992-65.472 48.576-67.68 44.64-67.68 41.376-67.68 35.328-65.952 32.448-56.448 31.872-54.432 31.584-53.472 29.28-41.376L22.656-41.376C20.832-41.376 19.776-41.376 19.776-39.552 19.776-38.4 20.64-38.4 22.464-38.4L28.8-38.4 21.6-0.479998C19.872 8.832 18.24 17.568 13.248 17.568 12.864 17.568 10.464 17.568 8.64 15.84 13.056 15.552 13.92 12.096 13.92 10.656 13.92 8.448 12.192 7.296 10.368 7.296 7.87199 7.296 5.088 9.408 5.088 13.056 5.088 17.376 9.312 19.68 13.248 19.68 18.528 19.68 22.368 14.016 24.096 10.368 27.168 4.32 29.376-7.296 29.472-7.968L35.232-38.4Z" transform="matrix(1.00208 0 -0 1 1384.64 230)"/><path d="M31.776 23.04C31.776 22.752 31.776 22.56 30.144 20.928 18.144 8.832 15.072-9.312 15.072-24 15.072-40.704 18.72-57.408 30.528-69.408 31.776-70.56 31.776-70.752 31.776-71.04 31.776-71.712 31.392-72 30.816-72 29.856-72 21.216-65.472 15.552-53.28 10.656-42.72 9.504-32.064 9.504-24 9.504-16.512 10.56-4.896 15.84 5.952 21.6 17.76 29.856 24 30.816 24 31.392 24 31.776 23.712 31.776 23.04Z" transform="matrix(1.00208 0 -0 1 1442.09 230)"/><path d="M32.064-28.992C32.64-31.488 34.848-40.32 41.568-40.32 42.048-40.32 44.352-40.32 46.368-39.072 43.68-38.592 41.76-36.192 41.76-33.888 41.76-32.352 42.816-30.528 45.408-30.528 47.52-30.528 50.592-32.256 50.592-36.096 50.592-41.088 44.928-42.432 41.664-42.432 36.096-42.432 32.736-37.344 31.584-35.136 29.184-41.472 24-42.432 21.216-42.432 11.232-42.432 5.76-30.048 5.76-27.648 5.76-26.688 6.72-26.688 6.912-26.688 7.68-26.688 7.968-26.88 8.16-27.744 11.424-37.92 17.76-40.32 21.024-40.32 22.848-40.32 26.208-39.456 26.208-33.888 26.208-30.912 24.576-24.48 21.024-11.04 19.488-5.088 16.128-1.056 11.904-1.056 11.328-1.056 9.12-1.056 7.104-2.304 9.504-2.784 11.616-4.8 11.616-7.488 11.616-10.08 9.504-10.848 8.064-10.848 5.184-10.848 2.784-8.352 2.784-5.28 2.784-0.864002 7.584 1.056 11.808 1.056 18.144 1.056 21.6-5.664 21.888-6.24 23.04-2.688 26.496 1.056 32.256 1.056 42.144 1.056 47.616-11.328 47.616-13.728 47.616-14.688 46.752-14.688 46.464-14.688 45.6-14.688 45.408-14.304 45.216-13.632 42.048-3.36 35.52-1.056 32.448-1.056 28.704-1.056 27.168-4.128 27.168-7.392 27.168-9.504 27.744-11.616 28.8-15.84L32.064-28.992Z" transform="matrix(1.00208 0 -0 1 1479.5 230)"/><path d="M27.744-24C27.744-31.488 26.688-43.104 21.408-53.952 15.648-65.76 7.392-72 6.432-72 5.856-72 5.472-71.616 5.472-71.04 5.472-70.752 5.472-70.56 7.296-68.832 16.704-59.328 22.176-44.064 22.176-24 22.176-7.584 18.624 9.312 6.72 21.408 5.472 22.56 5.472 22.752 5.472 23.04 5.472 23.616 5.856 24 6.432 24 7.392 24 16.032 17.472 21.696 5.28 26.592-5.28 27.744-15.936 27.744-24Z" transform="matrix(1.00208 0 -0 1 1534.48 230)"/><path d="M65.952-31.392C67.392-31.392 69.216-31.392 69.216-33.312 69.216-35.232 67.392-35.232 66.048-35.232L8.544-35.232C7.2-35.232 5.376-35.232 5.376-33.312 5.376-31.392 7.2-31.392 8.64-31.392L65.952-31.392ZM66.048-12.768C67.392-12.768 69.216-12.768 69.216-14.688 69.216-16.608 67.392-16.608 65.952-16.608L8.64-16.608C7.2-16.608 5.376-16.608 5.376-14.688 5.376-12.768 7.2-12.768 8.544-12.768L66.048-12.768Z" transform="matrix(1.00208 0 -0 1 1598.62 230)"/><path d="M38.016-36.48C36.48-36.48 35.136-36.48 33.792-35.136 32.256-33.696 32.064-32.064 32.064-31.392 32.064-29.088 33.792-28.032 35.616-28.032 38.4-28.032 40.992-30.336 40.992-34.176 40.992-38.88 36.48-42.432 29.664-42.432 16.704-42.432 3.936-28.704 3.936-15.168 3.936-6.528 9.504 1.056 19.488 1.056 33.216 1.056 41.28-9.12 41.28-10.272 41.28-10.848 40.704-11.52 40.128-11.52 39.648-11.52 39.456-11.328 38.88-10.56 31.296-1.056 20.832-1.056 19.68-1.056 13.632-1.056 11.04-5.76 11.04-11.52 11.04-15.456 12.96-24.768 16.224-30.72 19.2-36.192 24.48-40.32 29.76-40.32 33.024-40.32 36.672-39.072 38.016-36.48Z" transform="matrix(1.00208 0 -0 1 1700.16 230)"/></g></g></g><text font-family="Open Sans,Open Sans_MSFontService,sans-serif" font-weight="400" font-size="50" transform="translate(166.399 109)">Matrix notation of a function<tspan x="5.12762" y="268">Scalar notation of a function</tspan><tspan x="1019.05" y="0">Matrix notation of a gradient</tspan><tspan x="633.732" y="666">Simple derivative</tspan></text><path d="M0.5-1.19769e-06 0.500139 58.0661-0.499861 58.0661-0.5 1.19769e-06ZM6.25013 55.9828 0.000164042 68.4828-6.24987 55.9828Z" transform="matrix(-1 -8.74228e-08 -8.74228e-08 1 504.5 254.5)"/><path d="M697.584 697.007 821.101 718.164 820.932 719.15 697.416 697.993ZM820.018 712.145 831.284 720.415 817.908 724.465Z"/><path d="M10.3514 1.26578 133.868 22.4225 133.699 23.4082 10.1826 2.25143ZM11.2654 8.27063 0 0 13.3757-4.04994Z" transform="matrix(-1 -8.74228e-08 -8.74228e-08 1 1285.28 697.5)"/><path d="M0.5-9.82851e-07 0.500144 73.0354-0.499856 73.0354-0.5 9.82851e-07ZM6.25014 70.9521 0.000164042 83.4521-6.24986 70.9521Z" transform="matrix(1 0 0 -1 1484.5 371.952)"/></g></svg>