<svg width="2490" height="1557" xmlns="http://www.w3.org/2000/svg" xmlns:xlink="http://www.w3.org/1999/xlink" overflow="hidden"><defs><clipPath id="clip0"><path d="M-255-187 2235-187 2235 1370-255 1370Z" fill-rule="evenodd" clip-rule="evenodd"/></clipPath></defs><g clip-path="url(#clip0)" transform="translate(255 187)"><path d="M484 561 1695.04 578.019" stroke="#BDD7EE" stroke-width="6" stroke-miterlimit="8" fill="none" fill-rule="evenodd"/><path d="M373 282 1665.78 300.167" stroke="#BDD7EE" stroke-width="6" stroke-miterlimit="8" fill="none" fill-rule="evenodd"/><path d="M956 73 1198.54 76.4085" stroke="#BDD7EE" stroke-width="6" stroke-miterlimit="8" fill="none" fill-rule="evenodd"/><path d="M802 841 1189.57 841.606" stroke="#BDD7EE" stroke-width="6" stroke-miterlimit="8" fill="none" fill-rule="evenodd"/><path d="M1177.85 1164.14-170.5-4.50012" stroke="#41719C" stroke-width="13" stroke-miterlimit="8" fill="none" fill-rule="evenodd"/><path d="M3.41942-2.92533 179.02 202.334 172.181 208.185-3.41942 2.92533ZM182.933 193.064 190.227 222.356 162.417 210.616Z" fill="#41719C" transform="matrix(1 0 0 -1 595.5 665.856)"/><text font-family="CMU Classical Serif,CMU Classical Serif_MSFontService,sans-serif" font-style="italic" font-weight="500" font-size="125" transform="translate(800.576 528)">c<tspan font-size="83" x="57.5521" y="30">1</tspan><tspan x="556.179" y="-26">c</tspan><tspan font-size="83" x="613.731" y="4">2</tspan></text><path d="M0 0 1831.25 668.118" stroke="#41719C" stroke-width="13" stroke-miterlimit="8" fill="none" fill-rule="evenodd" transform="matrix(1 0 0 -1 277.5 1178.62)"/><path d="M1442.42 754.199 1327.47 493.9 1335.71 490.265 1450.65 750.563ZM1321.06 501.652 1322.5 471.5 1345.76 490.745Z" fill="#41719C"/><path d="M0 0 1497.92 545.833" stroke="#41719C" stroke-width="13" stroke-miterlimit="8" fill="none" fill-rule="evenodd" transform="matrix(-1 -8.74228e-08 -8.74228e-08 1 1250.42 -35.5)"/><path d="M920.5-17.5 2228.83 428.333" stroke="#41719C" stroke-width="13" stroke-miterlimit="8" fill="none" fill-rule="evenodd"/><path d="M1617.5-184.5 1773.75 1363.42" stroke="#41719C" stroke-width="13" stroke-miterlimit="8" fill="none" fill-rule="evenodd"/><path d="M694.661 169.787 753.505 312.716 745.183 316.142 686.339 173.213ZM760.114 305.128 757.91 335.234 735.147 315.407Z" fill="#41719C"/><path d="M4.20096-1.61304 67.5872 163.469 59.1853 166.695-4.20096 1.61304ZM74.3761 156.042 71.4514 186.087 49.1703 165.72Z" fill="#41719C" transform="matrix(-1 -8.74228e-08 -8.74228e-08 1 1310.95 120.5)"/><path d="M0.184511-4.49622 134.307 1.00774 133.938 10.0002-0.184511 4.49622ZM130.18-8.1692 156.603 6.42651 129.073 18.8081Z" fill="#41719C" transform="matrix(-1 -8.74228e-08 -8.74228e-08 1 1678.1 381.5)"/><text font-family="CMU Classical Serif,CMU Classical Serif_MSFontService,sans-serif" font-style="italic" font-weight="500" font-size="125" transform="translate(772.872 242)">c<tspan font-size="83" x="57.5521" y="30">3</tspan><tspan x="366.148" y="-32">c</tspan><tspan font-size="83" x="423.7" y="-2">4</tspan><tspan x="711.842" y="81">c</tspan><tspan font-size="83" x="769.394" y="111">5</tspan></text></g></svg>