<svg width="1278" height="722" xmlns="http://www.w3.org/2000/svg" xmlns:xlink="http://www.w3.org/1999/xlink" overflow="hidden"><defs><clipPath id="clip0"><path d="M-14-20 1264-20 1264 702-14 702Z" fill-rule="evenodd" clip-rule="evenodd"/></clipPath></defs><g clip-path="url(#clip0)" transform="translate(14 20)"><path d="M6.22889e-07-3 499.706-2.9999 499.706 3.0001-6.22889e-07 3ZM483.216-13.0912 505.659 0.000104575 483.216 13.0914C481.785 13.9263 479.948 13.4429 479.113 12.0117 478.279 10.5806 478.762 8.7436 480.193 7.90876L498.193-2.59123 498.193 2.59144 480.193-7.90856C478.762-8.7434 478.279-10.5804 479.113-12.0115 479.948-13.4427 481.785-13.9261 483.216-13.0912Z" fill="#5B9BD5" transform="matrix(1 0 0 -1 90 456)"/><path d="M3-6.64805e-07 3.0001 467.824-2.9999 467.824-3 6.64805e-07ZM13.0914 451.335 0.000104492 473.777-13.0912 451.335C-13.9261 449.904-13.4427 448.067-12.0115 447.232-10.5804 446.397-8.7434 446.881-7.90856 448.312L2.59144 466.312-2.59123 466.312 7.90876 448.312C8.7436 446.881 10.5806 446.397 12.0117 447.232 13.4429 448.067 13.9263 449.904 13.0914 451.335Z" fill="#5B9BD5" transform="matrix(1 0 0 -1 353 602.764)"/><path d="M560.967 488.204C561.775 488.204 562.484 488.295 563.096 488.477 563.708 488.66 564.249 488.94 564.717 489.317 565.186 489.695 565.603 490.183 565.967 490.782 566.332 491.381 566.683 492.195 567.022 493.224 567.361 494.252 567.68 495.528 567.979 497.052 568.279 498.575 568.545 500.157 568.78 501.798L569.17 501.798C571.67 498.282 573.565 495.711 574.854 494.083 576.143 492.455 577.23 491.244 578.116 490.45 579.001 489.656 579.854 489.096 580.674 488.77 581.495 488.445 582.582 488.282 583.936 488.282 585.16 488.282 586.163 488.438 586.944 488.751L585.381 495.821 582.647 495.821C582.491 494.727 582.035 494.181 581.28 494.181 581.045 494.181 580.798 494.22 580.538 494.298 580.277 494.376 579.958 494.545 579.581 494.806 579.203 495.066 578.65 495.574 577.92 496.329 577.191 497.084 576.371 498.009 575.46 499.102 574.548 500.196 573.611 501.342 572.647 502.54L569.991 505.86C570.46 508.36 570.902 510.522 571.319 512.345 571.736 514.168 572.107 515.685 572.432 516.895 572.758 518.106 573.044 519.063 573.292 519.767 573.539 520.47 573.806 520.997 574.092 521.349 574.379 521.7 574.672 521.948 574.971 522.091 575.271 522.234 575.616 522.306 576.006 522.306 576.71 522.306 577.393 522.032 578.057 521.485 578.721 520.938 579.678 519.701 580.928 517.774L583.467 519.454C581.644 522.162 579.997 524.07 578.526 525.177 577.055 526.283 575.303 526.837 573.272 526.837 572.152 526.837 571.202 526.635 570.42 526.231 569.639 525.828 568.962 525.183 568.389 524.298 567.816 523.412 567.308 522.032 566.866 520.157 566.058 516.824 565.564 514.272 565.381 512.501L564.991 512.501C562.23 516.381 560.18 519.168 558.838 520.86 557.497 522.553 556.391 523.803 555.518 524.61 554.646 525.418 553.799 525.984 552.979 526.31 552.159 526.635 551.072 526.798 549.717 526.798 548.493 526.798 547.491 526.642 546.71 526.329L548.272 519.259 551.006 519.259C551.163 520.352 551.618 520.899 552.374 520.899 552.738 520.899 553.122 520.802 553.526 520.606 553.93 520.411 554.509 519.942 555.264 519.2 556.019 518.458 557.061 517.293 558.389 515.704 559.717 514.115 561.644 511.733 564.17 508.556 563.78 506.498 563.376 504.519 562.96 502.618 562.543 500.717 562.113 498.946 561.67 497.306 561.228 495.665 560.863 494.591 560.577 494.083 560.29 493.575 559.984 493.224 559.659 493.028 559.333 492.833 558.923 492.735 558.428 492.735 557.881 492.735 557.387 492.859 556.944 493.106 556.501 493.354 556.019 493.783 555.499 494.395 554.978 495.007 554.288 495.964 553.428 497.267L550.889 495.587C552.53 493.113 554.105 491.264 555.616 490.04 557.126 488.816 558.91 488.204 560.967 488.204Z" fill-rule="evenodd"/><text fill="#000000" fill-opacity="0" font-family="Arial,Arial_MSFontService,sans-serif" font-size="38.6328" x="546.71" y="522.008">ЁЭСе</text><path d="M312.683 475.587C310.886 475.587 309.382 476.121 308.171 477.188 306.96 478.256 305.984 479.793 305.242 481.798 304.499 483.803 303.972 486.244 303.66 489.122 303.347 492 303.191 495.248 303.191 498.868 303.191 507.358 303.979 513.588 305.554 517.56 307.13 521.531 309.571 523.517 312.878 523.517 316.029 523.517 318.367 521.648 319.89 517.911 321.414 514.174 322.175 508.386 322.175 500.548 322.175 494.558 321.785 489.708 321.003 485.997 320.222 482.286 319.135 479.623 317.742 478.009 316.348 476.394 314.662 475.587 312.683 475.587ZM312.878 472.267C318.581 472.267 322.826 474.467 325.613 478.868 328.399 483.269 329.792 489.923 329.792 498.829 329.792 508.048 328.302 515.02 325.32 519.747 322.338 524.474 317.983 526.837 312.253 526.837 306.628 526.837 302.442 524.623 299.695 520.196 296.947 515.769 295.574 509.05 295.574 500.04 295.574 495.248 295.997 491.108 296.843 487.618 297.69 484.129 298.874 481.244 300.398 478.966 301.921 476.687 303.751 475.001 305.886 473.907 308.022 472.813 310.352 472.267 312.878 472.267Z" fill-rule="evenodd"/><text fill="#000000" fill-opacity="0" font-family="Arial,Arial_MSFontService,sans-serif" font-size="54.5703" x="295.574" y="520.016">0</text><path d="M44.2644 7.97932C46.8165 7.97932 49.017 8.18766 50.866 8.60432L49.3426 15.2449 45.9051 15.2449C45.5405 13.7606 45.0652 12.6929 44.4793 12.0418 43.8933 11.3908 43.0275 11.0653 41.8816 11.0653 40.3972 11.0653 39.1407 11.4754 38.1121 12.2957 37.0834 13.116 36.2045 14.3335 35.4754 15.9481 34.7462 17.5627 34.0691 19.7371 33.4441 22.4715L32.4676 26.7293 42.5066 26.7293 41.6472 30.6746 31.5691 30.6746 24.3035 64.7371C23.1056 70.3882 21.2696 74.6004 18.7957 77.3739 16.3217 80.1473 13.2097 81.534 9.45975 81.534 8.366 81.534 7.50662 81.4689 6.88162 81.3387L7.54569 77.9012C7.8061 77.9793 8.41808 78.0184 9.38162 78.0184 10.5535 78.0184 11.5561 77.7189 12.3894 77.1199 13.2228 76.521 13.9975 75.4793 14.7137 73.9949 15.4298 72.5106 16.0874 70.4533 16.6863 67.8231L25.0847 30.6746 18.4832 30.6746 19.0691 27.9793C20.8139 27.8752 22.0704 27.7319 22.8387 27.5496 23.6069 27.3673 24.2058 27.0939 24.6355 26.7293 25.0652 26.3647 25.4298 25.8895 25.7293 25.3035 26.0288 24.7176 26.4129 23.6434 26.8816 22.0809 28.2618 17.3934 30.3907 13.8713 33.2683 11.5145 36.1459 9.15771 39.8113 7.97932 44.2644 7.97932Z" fill-rule="evenodd"/><text fill="#000000" fill-opacity="0" font-family="Arial,Arial_MSFontService,sans-serif" font-size="73.5547" x="6.88162" y="72.3397">ЁЭСУ</text><path d="M134.473 4.17443C142.077 6.17964 147.917 10.5091 151.993 17.1627 156.068 23.8164 158.106 31.8437 158.106 41.2447 158.106 50.6718 156.075 58.6992 152.012 65.3268 147.95 71.9544 142.104 76.2708 134.473 78.276L133.536 75.2682C139.551 73.263 144.024 69.3046 146.954 63.3932 149.883 57.4817 151.348 49.9687 151.348 40.8541 151.348 32.052 149.89 24.7408 146.973 18.9205 144.057 13.1002 139.538 9.18745 133.419 7.18224ZM84.4783 4.17443 85.533 7.18224C79.4392 9.18745 74.9275 13.1002 71.9978 18.9205 69.0681 24.7408 67.6033 32.052 67.6033 40.8541 67.6033 49.9687 69.0681 57.4817 71.9978 63.3932 74.9275 69.3046 79.4002 73.263 85.4158 75.2682L84.4783 78.276C76.8481 76.2708 71.0017 71.9544 66.9392 65.3268 62.8767 58.6992 60.8455 50.6718 60.8455 41.2447 60.8455 31.8437 62.8832 23.8164 66.9588 17.1627 71.0343 10.5091 76.8741 6.17964 84.4783 4.17443Z" fill-rule="evenodd"/><path d="M102.444 26.0653C103.251 26.0653 103.961 26.1564 104.573 26.3387 105.185 26.521 105.725 26.8009 106.194 27.1785 106.663 27.5561 107.079 28.0444 107.444 28.6434 107.809 29.2423 108.16 30.0561 108.499 31.0848 108.837 32.1134 109.156 33.3895 109.456 34.9129 109.755 36.4364 110.022 38.0184 110.256 39.659L110.647 39.659C113.147 36.1434 115.042 33.5718 116.331 31.9442 117.62 30.3166 118.707 29.1056 119.592 28.3114 120.478 27.5171 121.331 26.9572 122.151 26.6317 122.971 26.3061 124.059 26.1434 125.413 26.1434 126.637 26.1434 127.639 26.2996 128.42 26.6121L126.858 33.6824 124.124 33.6824C123.967 32.5887 123.512 32.0418 122.756 32.0418 122.522 32.0418 122.275 32.0809 122.014 32.159 121.754 32.2371 121.435 32.4064 121.057 32.6668 120.68 32.9272 120.126 33.4351 119.397 34.1903 118.668 34.9455 117.848 35.8699 116.936 36.9637 116.025 38.0574 115.087 39.2033 114.124 40.4012L111.467 43.7215C111.936 46.2215 112.379 48.383 112.795 50.2059 113.212 52.0288 113.583 53.5457 113.909 54.7567 114.234 55.9676 114.521 56.9246 114.768 57.6278 115.016 58.3309 115.282 58.8582 115.569 59.2098 115.855 59.5614 116.148 59.8088 116.448 59.952 116.747 60.0952 117.092 60.1668 117.483 60.1668 118.186 60.1668 118.87 59.8934 119.534 59.3465 120.198 58.7996 121.155 57.5627 122.405 55.6356L124.944 57.3153C123.121 60.0236 121.474 61.9311 120.003 63.0379 118.531 64.1447 116.78 64.6981 114.749 64.6981 113.629 64.6981 112.678 64.4963 111.897 64.0926 111.116 63.689 110.439 63.0444 109.866 62.159 109.293 61.2736 108.785 59.8934 108.342 58.0184 107.535 54.6851 107.04 52.133 106.858 50.3621L106.467 50.3621C103.707 54.2423 101.656 57.0288 100.315 58.7215 98.9739 60.4142 97.8671 61.6642 96.9947 62.4715 96.1223 63.2788 95.2759 63.8452 94.4556 64.1707 93.6353 64.4963 92.5481 64.659 91.1939 64.659 89.97 64.659 88.9674 64.5028 88.1861 64.1903L89.7486 57.1199 92.483 57.1199C92.6392 58.2137 93.095 58.7606 93.8502 58.7606 94.2148 58.7606 94.5989 58.6629 95.0025 58.4676 95.4062 58.2723 95.9856 57.8035 96.7408 57.0614 97.496 56.3192 98.5377 55.1538 99.8658 53.5653 101.194 51.9767 103.121 49.5939 105.647 46.4168 105.256 44.3595 104.853 42.3804 104.436 40.4793 104.019 38.5783 103.59 36.8074 103.147 35.1668 102.704 33.5262 102.34 32.452 102.053 31.9442 101.767 31.4364 101.461 31.0848 101.135 30.8895 100.81 30.6942 100.4 30.5965 99.9049 30.5965 99.358 30.5965 98.8632 30.7202 98.4205 30.9676 97.9778 31.215 97.496 31.6447 96.9752 32.2567 96.4543 32.8686 95.7642 33.8257 94.9049 35.1278L92.3658 33.4481C94.0064 30.9741 95.5819 29.1252 97.0924 27.9012 98.6028 26.6772 100.387 26.0653 102.444 26.0653Z" fill-rule="evenodd"/><text fill="#000000" fill-opacity="0" font-family="Arial,Arial_MSFontService,sans-serif" font-size="38.6328" x="88.1861" y="59.869">ЁЭСе</text><path d="M193.175 46.7293 241.3 46.7293 241.3 51.9246 193.175 51.9246ZM193.175 30.5184 241.3 30.5184 241.3 35.7137 193.175 35.7137Z" fill-rule="evenodd"/><text fill="#000000" fill-opacity="0" font-family="Arial,Arial_MSFontService,sans-serif" font-size="21.4063" x="193.175" y="49.2489">=</text><path d="M279.056 8.17464 285.072 8.17464 285.072 80.8699 279.056 80.8699Z" fill-rule="evenodd"/><text fill="#000000" fill-opacity="0" font-family="Arial,Arial_MSFontService,sans-serif" font-size="72.6953" x="279.056" y="71.783">|</text><path d="M310.171 26.0653C310.978 26.0653 311.688 26.1564 312.299 26.3387 312.911 26.521 313.452 26.8009 313.921 27.1785 314.389 27.5561 314.806 28.0444 315.171 28.6434 315.535 29.2423 315.887 30.0561 316.225 31.0848 316.564 32.1134 316.883 33.3895 317.182 34.9129 317.482 36.4364 317.749 38.0184 317.983 39.659L318.374 39.659C320.874 36.1434 322.768 33.5718 324.057 31.9442 325.346 30.3166 326.434 29.1056 327.319 28.3114 328.204 27.5171 329.057 26.9572 329.878 26.6317 330.698 26.3061 331.785 26.1434 333.139 26.1434 334.363 26.1434 335.366 26.2996 336.147 26.6121L334.585 33.6824 331.85 33.6824C331.694 32.5887 331.238 32.0418 330.483 32.0418 330.249 32.0418 330.001 32.0809 329.741 32.159 329.48 32.2371 329.161 32.4064 328.784 32.6668 328.406 32.9272 327.853 33.4351 327.124 34.1903 326.395 34.9455 325.574 35.8699 324.663 36.9637 323.751 38.0574 322.814 39.2033 321.85 40.4012L319.194 43.7215C319.663 46.2215 320.105 48.383 320.522 50.2059 320.939 52.0288 321.31 53.5457 321.635 54.7567 321.961 55.9676 322.247 56.9246 322.495 57.6278 322.742 58.3309 323.009 58.8582 323.296 59.2098 323.582 59.5614 323.875 59.8088 324.174 59.952 324.474 60.0952 324.819 60.1668 325.21 60.1668 325.913 60.1668 326.596 59.8934 327.26 59.3465 327.924 58.7996 328.882 57.5627 330.132 55.6356L332.671 57.3153C330.848 60.0236 329.201 61.9311 327.729 63.0379 326.258 64.1447 324.507 64.6981 322.475 64.6981 321.355 64.6981 320.405 64.4963 319.624 64.0926 318.842 63.689 318.165 63.0444 317.592 62.159 317.02 61.2736 316.512 59.8934 316.069 58.0184 315.262 54.6851 314.767 52.133 314.585 50.3621L314.194 50.3621C311.434 54.2423 309.383 57.0288 308.042 58.7215 306.701 60.4142 305.594 61.6642 304.721 62.4715 303.849 63.2788 303.003 63.8452 302.182 64.1707 301.362 64.4963 300.275 64.659 298.921 64.659 297.697 64.659 296.694 64.5028 295.913 64.1903L297.475 57.1199 300.21 57.1199C300.366 58.2137 300.822 58.7606 301.577 58.7606 301.941 58.7606 302.326 58.6629 302.729 58.4676 303.133 58.2723 303.712 57.8035 304.467 57.0614 305.223 56.3192 306.264 55.1538 307.592 53.5653 308.921 51.9767 310.848 49.5939 313.374 46.4168 312.983 44.3595 312.579 42.3804 312.163 40.4793 311.746 38.5783 311.316 36.8074 310.874 35.1668 310.431 33.5262 310.066 32.452 309.78 31.9442 309.493 31.4364 309.188 31.0848 308.862 30.8895 308.536 30.6942 308.126 30.5965 307.632 30.5965 307.085 30.5965 306.59 30.7202 306.147 30.9676 305.704 31.215 305.223 31.6447 304.702 32.2567 304.181 32.8686 303.491 33.8257 302.632 35.1278L300.092 33.4481C301.733 30.9741 303.309 29.1252 304.819 27.9012 306.329 26.6772 308.113 26.0653 310.171 26.0653Z" fill-rule="evenodd"/><text fill="#000000" fill-opacity="0" font-family="Arial,Arial_MSFontService,sans-serif" font-size="38.6328" x="295.913" y="59.869">ЁЭСе</text><path d="M349.309 8.17464 355.325 8.17464 355.325 80.8699 349.309 80.8699Z" fill-rule="evenodd"/><text fill="#000000" fill-opacity="0" font-family="Arial,Arial_MSFontService,sans-serif" font-size="72.6953" x="349.309" y="71.783">|</text><path d="M6.22889e-07-3 499.706-2.9999 499.706 3.0001-6.22889e-07 3ZM483.216-13.0912 505.659 0.000104575 483.216 13.0914C481.785 13.9263 479.948 13.4429 479.113 12.0117 478.279 10.5806 478.762 8.7436 480.193 7.90876L498.193-2.59123 498.193 2.59144 480.193-7.90856C478.762-8.7434 478.279-10.5804 479.113-12.0115 479.948-13.4427 481.785-13.9261 483.216-13.0912Z" fill="#5B9BD5" transform="matrix(1 0 0 -1 713 456)"/><path d="M3-5.67739e-07 3.0001 548.824-2.9999 548.824-3 5.67739e-07ZM13.0914 532.335 0.00010489 554.777-13.0912 532.335C-13.9261 530.904-13.4427 529.067-12.0115 528.232-10.5804 527.397-8.7434 527.881-7.90856 529.312L2.59144 547.312-2.59123 547.312 7.90876 529.312C8.7436 527.881 10.5806 527.397 12.0117 528.232 13.4429 529.067 13.9263 530.904 13.0914 532.335Z" fill="#5B9BD5" transform="matrix(1 0 0 -1 975 683.763)"/><path d="M1183.46 488.204C1184.27 488.204 1184.98 488.295 1185.59 488.477 1186.2 488.66 1186.74 488.94 1187.21 489.317 1187.68 489.695 1188.1 490.183 1188.46 490.782 1188.83 491.381 1189.18 492.195 1189.52 493.224 1189.86 494.252 1190.18 495.528 1190.47 497.052 1190.77 498.575 1191.04 500.157 1191.28 501.798L1191.67 501.798C1194.17 498.282 1196.06 495.711 1197.35 494.083 1198.64 492.455 1199.73 491.244 1200.61 490.45 1201.5 489.656 1202.35 489.096 1203.17 488.77 1203.99 488.445 1205.08 488.282 1206.43 488.282 1207.66 488.282 1208.66 488.438 1209.44 488.751L1207.88 495.821 1205.14 495.821C1204.99 494.727 1204.53 494.181 1203.78 494.181 1203.54 494.181 1203.29 494.22 1203.03 494.298 1202.77 494.376 1202.45 494.545 1202.08 494.806 1201.7 495.066 1201.15 495.574 1200.42 496.329 1199.69 497.084 1198.87 498.009 1197.96 499.102 1197.04 500.196 1196.11 501.342 1195.14 502.54L1192.49 505.86C1192.96 508.36 1193.4 510.522 1193.81 512.345 1194.23 514.168 1194.6 515.685 1194.93 516.895 1195.25 518.106 1195.54 519.063 1195.79 519.767 1196.03 520.47 1196.3 520.997 1196.59 521.349 1196.87 521.7 1197.17 521.948 1197.47 522.091 1197.77 522.234 1198.11 522.306 1198.5 522.306 1199.21 522.306 1199.89 522.032 1200.55 521.485 1201.22 520.938 1202.17 519.701 1203.42 517.774L1205.96 519.454C1204.14 522.162 1202.49 524.07 1201.02 525.177 1199.55 526.283 1197.8 526.837 1195.77 526.837 1194.65 526.837 1193.7 526.635 1192.92 526.231 1192.14 525.828 1191.46 525.183 1190.89 524.298 1190.31 523.412 1189.8 522.032 1189.36 520.157 1188.55 516.824 1188.06 514.272 1187.88 512.501L1187.49 512.501C1184.73 516.381 1182.68 519.168 1181.33 520.86 1179.99 522.553 1178.89 523.803 1178.01 524.61 1177.14 525.418 1176.3 525.984 1175.47 526.31 1174.65 526.635 1173.57 526.798 1172.21 526.798 1170.99 526.798 1169.99 526.642 1169.21 526.329L1170.77 519.259 1173.5 519.259C1173.66 520.352 1174.11 520.899 1174.87 520.899 1175.23 520.899 1175.62 520.802 1176.02 520.606 1176.43 520.411 1177 519.942 1177.76 519.2 1178.52 518.458 1179.56 517.293 1180.89 515.704 1182.21 514.115 1184.14 511.733 1186.67 508.556 1186.28 506.498 1185.87 504.519 1185.46 502.618 1185.04 500.717 1184.61 498.946 1184.17 497.306 1183.72 495.665 1183.36 494.591 1183.07 494.083 1182.79 493.575 1182.48 493.224 1182.15 493.028 1181.83 492.833 1181.42 492.735 1180.92 492.735 1180.38 492.735 1179.88 492.859 1179.44 493.106 1179 493.354 1178.52 493.783 1177.99 494.395 1177.47 495.007 1176.78 495.964 1175.92 497.267L1173.39 495.587C1175.03 493.113 1176.6 491.264 1178.11 490.04 1179.62 488.816 1181.41 488.204 1183.46 488.204Z" fill-rule="evenodd"/><text fill="#000000" fill-opacity="0" font-family="Arial,Arial_MSFontService,sans-serif" font-size="38.6328" x="1169.21" y="522.008">ЁЭСе</text><path d="M933.587 475.587C931.79 475.587 930.286 476.121 929.076 477.188 927.865 478.256 926.888 479.793 926.146 481.798 925.404 483.803 924.876 486.244 924.564 489.122 924.251 492 924.095 495.248 924.095 498.868 924.095 507.358 924.883 513.588 926.458 517.56 928.034 521.531 930.475 523.517 933.783 523.517 936.934 523.517 939.271 521.648 940.794 517.911 942.318 514.174 943.079 508.386 943.079 500.548 943.079 494.558 942.689 489.708 941.908 485.997 941.126 482.286 940.039 479.623 938.646 478.009 937.253 476.394 935.566 475.587 933.587 475.587ZM933.783 472.267C939.486 472.267 943.731 474.467 946.517 478.868 949.303 483.269 950.697 489.923 950.697 498.829 950.697 508.048 949.206 515.02 946.224 519.747 943.242 524.474 938.887 526.837 933.158 526.837 927.533 526.837 923.346 524.623 920.599 520.196 917.852 515.769 916.478 509.05 916.478 500.04 916.478 495.248 916.901 491.108 917.747 487.618 918.594 484.129 919.779 481.244 921.302 478.966 922.826 476.687 924.655 475.001 926.79 473.907 928.926 472.813 931.257 472.267 933.783 472.267Z" fill-rule="evenodd"/><text fill="#000000" fill-opacity="0" font-family="Arial,Arial_MSFontService,sans-serif" font-size="54.5703" x="916.478" y="520.016">0</text><path d="M757.233 26.5803C754.811 26.5803 752.565 27.5373 750.495 29.4514 748.424 31.3655 746.738 34.2365 745.436 38.0647 744.134 41.8928 743.483 45.6819 743.483 49.4319 743.483 51.7756 743.737 53.605 744.245 54.9201 744.753 56.2352 745.423 57.1402 746.257 57.635 747.09 58.1298 748.132 58.3772 749.382 58.3772 752.194 58.3772 754.596 57.2509 756.589 54.9983 758.581 52.7457 760.28 49.3602 761.686 44.842 763.092 40.3238 763.796 36.7626 763.796 34.1584 763.796 31.5022 763.255 29.5751 762.174 28.3772 761.094 27.1793 759.447 26.5803 757.233 26.5803ZM814.069 4.74436C816.621 4.74436 818.822 4.9527 820.671 5.36936L819.147 12.01 815.71 12.01C815.345 10.5256 814.87 9.4579 814.284 8.80686 813.698 8.15582 812.832 7.8303 811.686 7.8303 810.202 7.8303 808.945 8.24046 807.917 9.06077 806.888 9.88108 806.009 11.0985 805.28 12.7131 804.551 14.3277 803.874 16.5022 803.249 19.2365L802.272 23.4944 812.311 23.4944 811.452 27.4397 801.374 27.4397 794.108 61.5022C792.91 67.1532 791.074 71.3655 788.6 74.1389 786.126 76.9123 783.014 78.299 779.264 78.299 778.171 78.299 777.311 78.2339 776.686 78.1037L777.35 74.6662C777.611 74.7444 778.223 74.7834 779.186 74.7834 780.358 74.7834 781.361 74.4839 782.194 73.885 783.027 73.286 783.802 72.2444 784.518 70.76 785.234 69.2756 785.892 67.2183 786.491 64.5881L794.889 27.4397 788.288 27.4397 788.874 24.7444C790.619 24.6402 791.875 24.497 792.643 24.3147 793.411 24.1324 794.01 23.8589 794.44 23.4944 794.87 23.1298 795.234 22.6545 795.534 22.0686 795.833 21.4826 796.217 20.4084 796.686 18.8459 798.066 14.1584 800.195 10.6363 803.073 8.27952 805.951 5.92274 809.616 4.74436 814.069 4.74436ZM759.264 4.7053C763.613 4.7053 766.869 6.18317 769.03 9.13889 771.191 12.0946 772.272 16.5673 772.272 22.5569 772.272 24.9267 772.064 27.7457 771.647 31.0139 771.23 34.2821 770.527 37.6871 769.538 41.2287 768.548 44.7704 767.402 47.7782 766.1 50.2522 764.798 52.7261 763.353 54.7704 761.764 56.385 760.176 57.9996 758.346 59.2496 756.276 60.135 754.206 61.0204 751.869 61.4631 749.264 61.4631 745.358 61.4631 742.266 60.2912 739.987 57.9475 737.708 55.6037 736.569 52.1662 736.569 47.635 736.569 43.5464 737.428 39.6142 739.147 35.8381 740.866 32.0621 743.223 29.0608 746.217 26.8342 749.212 24.6076 752.494 23.4944 756.061 23.4944 757.936 23.4944 759.577 23.7092 760.983 24.1389 762.389 24.5686 763.952 25.4084 765.671 26.6584L765.749 25.6819C765.827 24.4319 765.866 23.3511 765.866 22.4397 765.866 17.5178 765.215 13.9436 763.913 11.717 762.611 9.49046 760.579 8.37717 757.819 8.37717 755.918 8.37717 754.154 8.82639 752.526 9.72483 750.898 10.6233 749.303 12.01 747.741 13.885L744.928 13.885 744.928 10.6428C747.402 8.89801 749.323 7.65452 750.69 6.91233 752.057 6.17014 753.424 5.61676 754.792 5.25217 756.159 4.88759 757.65 4.7053 759.264 4.7053Z" fill-rule="evenodd"/><text fill="#000000" fill-opacity="0" font-family="Arial,Arial_MSFontService,sans-serif" font-size="73.5938" x="736.569" y="69.0998">ЁЭЬХЁЭСУ</text><path d="M903.778 0.939467C911.382 2.94468 917.222 7.2741 921.297 13.9277 925.373 20.5814 927.411 28.6087 927.411 38.0098 927.411 47.4369 925.379 55.4642 921.317 62.0918 917.254 68.7194 911.408 73.0358 903.778 75.041L902.84 72.0332C908.856 70.028 913.329 66.0697 916.258 60.1582 919.188 54.2468 920.653 46.7337 920.653 37.6192 920.653 28.8171 919.195 21.5059 916.278 15.6856 913.361 9.86525 908.843 5.95249 902.723 3.94728ZM853.783 0.939467 854.838 3.94728C848.744 5.95249 844.232 9.86525 841.302 15.6856 838.373 21.5059 836.908 28.8171 836.908 37.6192 836.908 46.7337 838.373 54.2468 841.302 60.1582 844.232 66.0697 848.705 70.028 854.72 72.0332L853.783 75.041C846.153 73.0358 840.306 68.7194 836.244 62.0918 832.181 55.4642 830.15 47.4369 830.15 38.0098 830.15 28.6087 832.188 20.5814 836.263 13.9277 840.339 7.2741 846.179 2.94468 853.783 0.939467Z" fill-rule="evenodd"/><path d="M871.749 22.8303C872.556 22.8303 873.265 22.9214 873.877 23.1037 874.489 23.286 875.03 23.566 875.499 23.9436 875.967 24.3212 876.384 24.8095 876.749 25.4084 877.113 26.0074 877.465 26.8212 877.803 27.8498 878.142 28.8785 878.461 30.1545 878.76 31.678 879.06 33.2014 879.327 34.7834 879.561 36.424L879.952 36.424C882.452 32.9084 884.346 30.3368 885.635 28.7092 886.924 27.0816 888.012 25.8707 888.897 25.0764 889.782 24.2821 890.635 23.7222 891.456 23.3967 892.276 23.0712 893.363 22.9084 894.717 22.9084 895.941 22.9084 896.944 23.0647 897.725 23.3772L896.163 30.4475 893.428 30.4475C893.272 29.3537 892.816 28.8069 892.061 28.8069 891.827 28.8069 891.579 28.8459 891.319 28.924 891.058 29.0022 890.739 29.1714 890.362 29.4319 889.984 29.6923 889.431 30.2001 888.702 30.9553 887.972 31.7105 887.152 32.635 886.241 33.7287 885.329 34.8225 884.392 35.9683 883.428 37.1662L880.772 40.4865C881.241 42.9865 881.683 45.148 882.1 46.9709 882.517 48.7938 882.888 50.3108 883.213 51.5217 883.539 52.7326 883.825 53.6897 884.073 54.3928 884.32 55.0959 884.587 55.6233 884.874 55.9748 885.16 56.3264 885.453 56.5738 885.752 56.717 886.052 56.8602 886.397 56.9319 886.788 56.9319 887.491 56.9319 888.174 56.6584 888.838 56.1115 889.502 55.5647 890.459 54.3277 891.709 52.4006L894.249 54.0803C892.426 56.7886 890.779 58.6962 889.307 59.803 887.836 60.9097 886.084 61.4631 884.053 61.4631 882.933 61.4631 881.983 61.2613 881.202 60.8576 880.42 60.454 879.743 59.8095 879.17 58.924 878.597 58.0386 878.09 56.6584 877.647 54.7834 876.84 51.4501 876.345 48.898 876.163 47.1272L875.772 47.1272C873.012 51.0074 870.961 53.7938 869.62 55.4865 868.279 57.1793 867.172 58.4293 866.299 59.2365 865.427 60.0438 864.581 60.6102 863.76 60.9358 862.94 61.2613 861.853 61.424 860.499 61.424 859.275 61.424 858.272 61.2678 857.491 60.9553L859.053 53.885 861.788 53.885C861.944 54.9787 862.4 55.5256 863.155 55.5256 863.519 55.5256 863.904 55.428 864.307 55.2326 864.711 55.0373 865.29 54.5686 866.045 53.8264 866.801 53.0842 867.842 51.9188 869.17 50.3303 870.499 48.7418 872.426 46.3589 874.952 43.1819 874.561 41.1246 874.157 39.1454 873.741 37.2444 873.324 35.3433 872.894 33.5725 872.452 31.9319 872.009 30.2912 871.644 29.217 871.358 28.7092 871.071 28.2014 870.765 27.8498 870.44 27.6545 870.114 27.4592 869.704 27.3615 869.209 27.3615 868.663 27.3615 868.168 27.4852 867.725 27.7326 867.282 27.98 866.801 28.4097 866.28 29.0217 865.759 29.6337 865.069 30.5907 864.209 31.8928L861.67 30.2131C863.311 27.7392 864.887 25.8902 866.397 24.6662 867.907 23.4423 869.691 22.8303 871.749 22.8303Z" fill-rule="evenodd"/><text fill="#000000" fill-opacity="0" font-family="Arial,Arial_MSFontService,sans-serif" font-size="38.6328" x="857.491" y="56.634">ЁЭСе</text><path d="M352.483 456.176 64 167" stroke="#5B9BD5" stroke-width="8" stroke-miterlimit="8" fill="none" fill-rule="evenodd"/><path d="M0 0 288.498 289.176" stroke="#5B9BD5" stroke-width="8" stroke-miterlimit="8" fill="none" fill-rule="evenodd" transform="matrix(1 0 0 -1 353 456.176)"/><path d="M741 648 978.923 648" stroke="#ED7D31" stroke-width="8" stroke-miterlimit="8" fill="none" fill-rule="evenodd"/><path d="M975 264 975 648" stroke="#ED7D31" stroke-width="8" stroke-miterlimit="8" fill="none" fill-rule="evenodd"/><path d="M971 264 1259.5 264" stroke="#ED7D31" stroke-width="8" stroke-miterlimit="8" fill="none" fill-rule="evenodd"/><path d="M937.265 236.518 939.413 236.518C939.257 239.018 939.179 242.481 939.179 246.908L939.179 280.268C939.179 281.778 939.264 282.917 939.433 283.686 939.602 284.454 939.902 285.079 940.331 285.561 940.761 286.042 941.379 286.42 942.187 286.693 942.994 286.967 944.01 287.175 945.234 287.318 946.458 287.462 948.072 287.559 950.077 287.611L950.077 290.463 921.21 290.463 921.21 287.611C924.101 287.481 926.165 287.305 927.402 287.084 928.639 286.863 929.583 286.531 930.234 286.088 930.885 285.645 931.36 285.02 931.659 284.213 931.959 283.406 932.109 282.09 932.109 280.268L932.109 248.588C932.109 247.546 931.926 246.785 931.562 246.303 931.197 245.821 930.663 245.58 929.96 245.58 929.127 245.58 927.942 246.01 926.405 246.869 924.869 247.729 922.968 248.913 920.702 250.424L918.984 247.416Z" fill-rule="evenodd"/><text fill="#000000" fill-opacity="0" font-family="Arial,Arial_MSFontService,sans-serif" font-size="53.9453" x="918.984" y="283.72">1</text><path d="M1004.09 649.037 1052.22 649.037 1052.22 654.232 1004.09 654.232Z" fill-rule="evenodd"/><text fill="#000000" fill-opacity="0" font-family="Arial,Arial_MSFontService,sans-serif" font-size="5.19531" x="1004.09" y="653.583">тИТ</text><path d="M1083.34 620.561 1085.49 620.561C1085.33 623.061 1085.25 626.524 1085.25 630.951L1085.25 664.311C1085.25 665.821 1085.34 666.96 1085.51 667.729 1085.68 668.497 1085.97 669.122 1086.4 669.604 1086.83 670.085 1087.45 670.463 1088.26 670.736 1089.07 671.01 1090.08 671.218 1091.31 671.361 1092.53 671.505 1094.15 671.602 1096.15 671.654L1096.15 674.506 1067.28 674.506 1067.28 671.654C1070.17 671.524 1072.24 671.348 1073.47 671.127 1074.71 670.906 1075.66 670.574 1076.31 670.131 1076.96 669.688 1077.43 669.063 1077.73 668.256 1078.03 667.449 1078.18 666.134 1078.18 664.311L1078.18 632.631C1078.18 631.589 1078 630.828 1077.63 630.346 1077.27 629.864 1076.74 629.623 1076.03 629.623 1075.2 629.623 1074.01 630.053 1072.48 630.912 1070.94 631.772 1069.04 632.956 1066.78 634.467L1065.06 631.459Z" fill-rule="evenodd"/><text fill="#000000" fill-opacity="0" font-family="Arial,Arial_MSFontService,sans-serif" font-size="53.9453" x="1065.06" y="667.763">1</text></g></svg>