<svg width="2035" height="1144" xmlns="http://www.w3.org/2000/svg" xmlns:xlink="http://www.w3.org/1999/xlink" overflow="hidden"><defs><clipPath id="clip0"><path d="M-18 76 2017 76 2017 1220-18 1220Z" fill-rule="evenodd" clip-rule="evenodd"/></clipPath></defs><g clip-path="url(#clip0)" transform="translate(18 -76)"><path d="M3-5.28909e-07 3.00016 924.516-2.99984 924.516-3 5.28909e-07ZM13.0915 908.027 0.000163816 930.469-13.0912 908.027C-13.926 906.595-13.4426 904.758-12.0115 903.924-10.5803 903.089-8.74335 903.572-7.9085 905.003L2.5915 923.003-2.59117 923.003 7.90882 905.003C8.74366 903.572 10.5806 903.089 12.0118 903.924 13.4429 904.758 13.9263 906.595 13.0915 908.027Z" fill="#5B9BD5" transform="matrix(1 0 0 -1 170 1066.45)"/><path d="M2.59143e-07-3 1893.11-2.99984 1893.11 3.00016-2.59143e-07 3ZM1876.62-13.0912 1899.06 0.000163734 1876.62 13.0915C1875.19 13.9263 1873.35 13.4429 1872.52 12.0118 1871.68 10.5806 1872.17 8.74367 1873.6 7.90883L1891.6-2.59117 1891.6 2.5915 1873.6-7.9085C1872.17-8.74334 1871.68-10.5803 1872.52-12.0115 1873.35-13.4426 1875.19-13.926 1876.62-13.0912Z" fill="#5B9BD5" transform="matrix(1 0 0 -1 37 971)"/><text font-family="CMU Classical Serif,CMU Classical Serif_MSFontService,sans-serif" font-style="italic" font-weight="500" font-size="125" transform="translate(1882.73 1073)">x</text><path d="M481 377C500.284 439.21 519.569 501.421 558.138 522.937 596.706 544.454 668.935 466.808 712.413 506.098 755.89 545.389 784.408 703.956 819.003 758.682 853.598 813.409 882.816 819.957 919.983 834.457 957.149 848.957 1042 845.683 1042 845.683L1042 845.683" stroke="#ED7D31" stroke-width="6" stroke-miterlimit="8" fill="none" fill-rule="evenodd"/><path d="M0 0C19.2501 62.2103 38.5001 124.421 77 145.937 115.5 167.454 187.6 89.8076 231 129.098 274.4 168.389 302.867 326.956 337.4 381.682 371.933 436.409 401.1 442.957 438.2 457.457 475.3 471.957 560 468.683 560 468.683L560 468.683" stroke="#ED7D31" stroke-width="6" stroke-miterlimit="8" fill="none" fill-rule="evenodd" transform="matrix(-1 -8.74228e-08 -8.74228e-08 1 1602 377)"/><path d="M1468.5 192.5 1569.43 192.5" stroke="#70AD47" stroke-width="13" stroke-miterlimit="8" fill="none" fill-rule="evenodd"/><text font-family="CMU Classical Serif,CMU Classical Serif_MSFontService,sans-serif" font-style="italic" font-weight="500" font-size="83" transform="translate(32.886 185)">f(x)</text><path d="M170 506 1720.45 517.005" stroke="#5B9BD5" stroke-width="6" stroke-miterlimit="8" stroke-dasharray="48 18" fill="none" fill-rule="evenodd"/><text font-family="CMU Classical Serif,CMU Classical Serif_MSFontService,sans-serif" font-style="italic" font-weight="500" font-size="125" transform="translate(67.4651 1101)">0</text><path d="M0 0 0.000164042 464.613" stroke="#00B050" stroke-width="5" stroke-miterlimit="8" fill="none" fill-rule="evenodd" transform="matrix(1 0 0 -1 544.5 971.113)"/><path d="M0 0 0.000164042 464.613" stroke="#00B050" stroke-width="5" stroke-miterlimit="8" fill="none" fill-rule="evenodd" transform="matrix(1 0 0 -1 631.5 971.113)"/><path d="M0 0 0.000164042 464.613" stroke="#00B050" stroke-width="5" stroke-miterlimit="8" fill="none" fill-rule="evenodd" transform="matrix(1 0 0 -1 718.5 971.113)"/><path d="M0 0 0.000164042 453.398" stroke="#00B050" stroke-width="5" stroke-miterlimit="8" fill="none" fill-rule="evenodd" transform="matrix(1 0 0 -1 1535.5 970.898)"/><path d="M0 0 0.000164042 453.398" stroke="#00B050" stroke-width="5" stroke-miterlimit="8" fill="none" fill-rule="evenodd" transform="matrix(1 0 0 -1 1468.5 970.898)"/><path d="M0 0 0.000164042 453.398" stroke="#00B050" stroke-width="5" stroke-miterlimit="8" fill="none" fill-rule="evenodd" transform="matrix(1 0 0 -1 1364.5 970.898)"/><rect x="544" y="958" width="87" height="30" fill="#00B050"/><rect x="1468" y="958" width="70" height="30" fill="#00B050"/><rect x="718" y="958" width="646" height="30" fill="#00B050"/><text font-family="Open Sans,Open Sans_MSFontService,sans-serif" font-weight="400" font-size="50" transform="translate(1594.22 208)">Sublevel set</text><path d="M121.225 477.335C120.365 477.323 119.52 477.348 118.689 477.411 117.858 477.475 117.372 477.652 117.23 477.944 117.263 478.074 117.656 478.153 118.411 478.181 119.166 478.209 119.94 478.22 120.734 478.215 121.208 478.213 121.694 478.165 122.193 478.071 122.691 477.977 123.175 477.844 123.645 477.674 123.292 477.571 122.91 477.489 122.499 477.428 122.088 477.368 121.663 477.337 121.225 477.335ZM124.473 458.91C122.014 458.965 119.873 459.817 118.05 461.465 116.226 463.113 114.726 465.231 113.548 467.818 112.371 470.405 111.523 473.133 111.003 476.003L108.211 492.214C108.111 492.782 108.047 493.338 108.018 493.881 107.989 494.424 107.995 494.963 108.035 495.498 108.234 497.932 109.037 499.934 110.444 501.505 111.851 503.076 113.769 503.888 116.197 503.943 117.691 503.936 119.167 503.631 120.623 503.03 122.079 502.428 123.401 501.57 124.587 500.457 125.821 499.266 126.774 497.929 127.448 496.444 128.122 494.96 128.588 493.438 128.848 491.878L128.843 491.878C129.019 490.902 129.151 489.922 129.236 488.938 129.322 487.953 129.333 486.99 129.27 486.047 129.19 485.21 129.051 484.405 128.851 483.635 128.651 482.864 128.349 482.127 127.944 481.423 127.396 480.35 126.678 479.481 125.79 478.814 124.145 479.403 122.485 479.691 120.811 479.68 119.575 479.714 118.428 479.647 117.369 479.48 116.311 479.313 115.72 478.847 115.597 478.079L115.613 477.606C115.833 476.742 116.495 476.216 117.601 476.028 118.707 475.84 119.893 475.765 121.16 475.803 121.969 475.806 122.765 475.883 123.549 476.036 124.332 476.189 125.071 476.4 125.766 476.669 126.035 476.5 126.312 476.305 126.598 476.086 126.884 475.866 127.15 475.638 127.398 475.401 128.364 474.416 129.116 473.318 129.654 472.107 130.191 470.897 130.568 469.648 130.784 468.362 130.884 467.791 130.951 467.224 130.983 466.661 131.015 466.098 131.011 465.548 130.972 465.01 130.922 464.373 130.816 463.77 130.654 463.2 130.492 462.631 130.24 462.094 129.899 461.592 129.304 460.717 128.539 460.053 127.603 459.597 126.666 459.142 125.623 458.913 124.473 458.91ZM124.476 457.378C126.064 457.383 127.543 457.672 128.914 458.245 130.285 458.818 131.469 459.643 132.465 460.72 133.142 461.464 133.685 462.305 134.093 463.242 134.502 464.179 134.75 465.171 134.839 466.217 134.867 466.618 134.865 467.023 134.834 467.432 134.802 467.841 134.747 468.263 134.669 468.697 134.39 470.215 133.828 471.637 132.981 472.962 132.135 474.287 131.082 475.456 129.822 476.469 129.505 476.733 129.184 476.972 128.858 477.187 128.533 477.401 128.217 477.609 127.91 477.809 128.511 478.181 129.064 478.61 129.568 479.097 130.073 479.584 130.558 480.114 131.022 480.686 131.745 481.729 132.323 482.86 132.756 484.079 133.189 485.298 133.456 486.579 133.558 487.924 133.604 488.597 133.603 489.295 133.556 490.019 133.51 490.742 133.436 491.474 133.336 492.214 132.975 494.008 132.278 495.714 131.245 497.333 130.212 498.951 128.929 500.372 127.397 501.597 125.718 502.869 123.926 503.823 122.022 504.457 120.118 505.092 118.202 505.409 116.275 505.408 113.984 505.378 112.047 504.771 110.463 503.586 108.878 502.402 107.716 500.823 106.975 498.849L103.806 517.2C103.777 517.337 103.699 517.449 103.571 517.535 103.444 517.622 103.294 517.667 103.123 517.669L102.789 517.669C102.586 517.669 102.42 517.602 102.291 517.468 102.162 517.334 102.086 517.133 102.064 516.865L109.395 475.669C109.938 472.573 110.884 469.642 112.232 466.875 113.58 464.108 115.285 461.848 117.348 460.094 119.411 458.34 121.787 457.435 124.476 457.378Z" fill-rule="evenodd"/><text fill="#000000" fill-opacity="0" font-family="Arial,Arial_MSFontService,sans-serif" font-size="60.2917" x="102.064" y="510.133">β</text><path d="M1011.59 1016.79C1012.28 1016.85 1013.17 1016.89 1014.25 1016.92 1015.33 1016.94 1016.42 1016.96 1017.53 1016.96 1018.64 1016.97 1019.58 1016.97 1020.37 1016.97 1021.2 1016.97 1022.24 1016.97 1023.48 1016.96 1024.73 1016.96 1025.97 1016.94 1027.19 1016.92 1028.41 1016.89 1029.39 1016.85 1030.14 1016.79L1029.82 1018.58 1027.91 1018.58C1026.11 1018.58 1024.8 1018.68 1023.98 1018.87 1023.16 1019.06 1022.64 1019.36 1022.39 1019.77 1022.15 1020.18 1021.99 1020.71 1021.91 1021.37L1016.46 1052.29C1016.24 1053.22 1016.26 1053.85 1016.52 1054.17 1016.78 1054.49 1017.57 1054.63 1018.89 1054.61L1023.64 1054.61C1027 1054.56 1029.59 1053.86 1031.43 1052.51 1033.27 1051.16 1034.63 1049.49 1035.52 1047.48 1036.41 1045.48 1037.11 1043.47 1037.62 1041.44L1039.07 1041.44 1034.81 1056.4 1004.6 1056.4 1004.92 1054.61 1006.31 1054.61C1008.45 1054.63 1009.81 1054.43 1010.38 1054.03 1010.95 1053.63 1011.28 1052.91 1011.37 1051.88L1016.76 1021.31C1017.03 1020.28 1016.95 1019.57 1016.53 1019.16 1016.1 1018.76 1014.81 1018.57 1012.66 1018.58L1011.27 1018.58Z" fill-rule="evenodd"/><text fill="#000000" fill-opacity="0" font-family="Arial,Arial_MSFontService,sans-serif" font-size="39.6067" x="1004.6" y="1051.45">L</text><path d="M1058.74 1052.28C1058 1052.27 1057.27 1052.29 1056.55 1052.34 1055.83 1052.4 1055.41 1052.55 1055.28 1052.81 1055.31 1052.92 1055.65 1052.99 1056.31 1053.01 1056.96 1053.03 1057.63 1053.04 1058.32 1053.04 1058.73 1053.04 1059.15 1053 1059.58 1052.91 1060.01 1052.83 1060.43 1052.72 1060.84 1052.57 1060.53 1052.48 1060.2 1052.41 1059.85 1052.36 1059.49 1052.31 1059.12 1052.28 1058.74 1052.28ZM1061.56 1036.33C1059.43 1036.38 1057.57 1037.11 1055.99 1038.54 1054.42 1039.97 1053.12 1041.8 1052.1 1044.04 1051.08 1046.28 1050.34 1048.64 1049.89 1051.12L1047.48 1065.16C1047.39 1065.65 1047.34 1066.13 1047.31 1066.6 1047.29 1067.07 1047.29 1067.54 1047.32 1068 1047.5 1070.11 1048.19 1071.84 1049.41 1073.2 1050.63 1074.56 1052.29 1075.26 1054.39 1075.31 1055.68 1075.31 1056.96 1075.04 1058.22 1074.52 1059.48 1074 1060.63 1073.26 1061.65 1072.29 1062.72 1071.26 1063.55 1070.11 1064.13 1068.82 1064.71 1067.54 1065.12 1066.22 1065.34 1064.87L1065.34 1064.87C1065.49 1064.02 1065.6 1063.17 1065.68 1062.32 1065.75 1061.47 1065.76 1060.64 1065.71 1059.82 1065.64 1059.09 1065.52 1058.4 1065.35 1057.73 1065.17 1057.06 1064.91 1056.43 1064.56 1055.82 1064.09 1054.89 1063.46 1054.14 1062.7 1053.56 1061.27 1054.07 1059.83 1054.32 1058.39 1054.31 1057.32 1054.34 1056.32 1054.28 1055.41 1054.13 1054.49 1053.99 1053.98 1053.59 1053.87 1052.92L1053.89 1052.51C1054.08 1051.76 1054.65 1051.31 1055.61 1051.15 1056.56 1050.98 1057.59 1050.92 1058.69 1050.95 1059.39 1050.95 1060.08 1051.02 1060.76 1051.15 1061.43 1051.29 1062.07 1051.47 1062.67 1051.7 1062.91 1051.55 1063.15 1051.39 1063.39 1051.2 1063.64 1051.01 1063.87 1050.81 1064.09 1050.6 1064.92 1049.75 1065.57 1048.8 1066.04 1047.75 1066.51 1046.7 1066.83 1045.62 1067.02 1044.51 1067.11 1044.02 1067.16 1043.52 1067.19 1043.04 1067.22 1042.55 1067.22 1042.07 1067.18 1041.61 1067.14 1041.06 1067.05 1040.54 1066.91 1040.04 1066.77 1039.55 1066.55 1039.08 1066.25 1038.65 1065.74 1037.89 1065.08 1037.32 1064.26 1036.92 1063.45 1036.53 1062.55 1036.33 1061.56 1036.33ZM1061.56 1035C1062.93 1035.01 1064.21 1035.26 1065.4 1035.75 1066.59 1036.25 1067.61 1036.96 1068.47 1037.89 1069.06 1038.54 1069.53 1039.27 1069.88 1040.08 1070.24 1040.89 1070.45 1041.75 1070.53 1042.65 1070.55 1043 1070.55 1043.35 1070.52 1043.7 1070.5 1044.06 1070.45 1044.42 1070.38 1044.8 1070.14 1046.11 1069.65 1047.34 1068.92 1048.49 1068.19 1049.64 1067.28 1050.65 1066.19 1051.53 1065.91 1051.76 1065.63 1051.96 1065.35 1052.15 1065.07 1052.34 1064.8 1052.51 1064.53 1052.69 1065.05 1053.01 1065.53 1053.38 1065.97 1053.8 1066.4 1054.22 1066.82 1054.68 1067.22 1055.18 1067.85 1056.08 1068.35 1057.06 1068.73 1058.12 1069.1 1059.17 1069.33 1060.28 1069.42 1061.44 1069.46 1062.03 1069.46 1062.63 1069.42 1063.26 1069.38 1063.88 1069.31 1064.52 1069.23 1065.16 1068.92 1066.71 1068.31 1068.19 1067.42 1069.59 1066.52 1070.99 1065.41 1072.22 1064.09 1073.28 1062.63 1074.38 1061.08 1075.21 1059.43 1075.76 1057.78 1076.31 1056.13 1076.58 1054.46 1076.58 1052.48 1076.55 1050.8 1076.03 1049.43 1075 1048.06 1073.98 1047.05 1072.61 1046.41 1070.9L1043.66 1086.79C1043.64 1086.91 1043.57 1087 1043.46 1087.08 1043.35 1087.15 1043.22 1087.19 1043.07 1087.19L1042.78 1087.19C1042.61 1087.19 1042.46 1087.14 1042.35 1087.02 1042.24 1086.9 1042.18 1086.73 1042.16 1086.5L1048.5 1050.84C1048.97 1048.16 1049.79 1045.62 1050.96 1043.22 1052.13 1040.83 1053.6 1038.87 1055.39 1037.35 1057.17 1035.83 1059.23 1035.05 1061.56 1035Z" fill-rule="evenodd"/><text fill="#000000" fill-opacity="0" font-family="Arial,Arial_MSFontService,sans-serif" font-size="52.1927" x="1042.16" y="1080.67">β</text></g></svg>