<?xml version="1.0" encoding="utf-8" standalone="no"?>
<!DOCTYPE svg PUBLIC "-//W3C//DTD SVG 1.1//EN"
  "http://www.w3.org/Graphics/SVG/1.1/DTD/svg11.dtd">
<!-- Created with matplotlib (https://matplotlib.org/) -->
<svg height="216pt" version="1.1" viewBox="0 0 360 216" width="360pt" xmlns="http://www.w3.org/2000/svg" xmlns:xlink="http://www.w3.org/1999/xlink">
 <defs>
  <style type="text/css">
*{stroke-linecap:butt;stroke-linejoin:round;}
  </style>
 </defs>
 <g id="figure_1">
  <g id="patch_1">
   <path d="M 0 216 
L 360 216 
L 360 0 
L 0 0 
z
" style="fill:#ffffff;"/>
  </g>
  <g id="axes_1">
   <g id="patch_2">
    <path d="M 74.198652 166.7 
L 349.2 166.7 
L 349.2 10.8 
L 74.198652 10.8 
z
" style="fill:#eaeaf2;"/>
   </g>
   <g id="matplotlib.axis_1">
    <g id="xtick_1">
     <g id="line2d_1">
      <path clip-path="url(#p2f45949793)" d="M 84.173449 166.7 
L 84.173449 10.8 
" style="fill:none;stroke:#ffffff;stroke-linecap:round;"/>
     </g>
     <g id="text_1">
      <!-- 0 -->
      <defs>
       <path d="M 31.78125 66.40625 
Q 24.171875 66.40625 20.328125 58.90625 
Q 16.5 51.421875 16.5 36.375 
Q 16.5 21.390625 20.328125 13.890625 
Q 24.171875 6.390625 31.78125 6.390625 
Q 39.453125 6.390625 43.28125 13.890625 
Q 47.125 21.390625 47.125 36.375 
Q 47.125 51.421875 43.28125 58.90625 
Q 39.453125 66.40625 31.78125 66.40625 
z
M 31.78125 74.21875 
Q 44.046875 74.21875 50.515625 64.515625 
Q 56.984375 54.828125 56.984375 36.375 
Q 56.984375 17.96875 50.515625 8.265625 
Q 44.046875 -1.421875 31.78125 -1.421875 
Q 19.53125 -1.421875 13.0625 8.265625 
Q 6.59375 17.96875 6.59375 36.375 
Q 6.59375 54.828125 13.0625 64.515625 
Q 19.53125 74.21875 31.78125 74.21875 
z
" id="DejaVuSans-48"/>
      </defs>
      <g style="fill:#262626;" transform="translate(80.674074 184.558281)scale(0.11 -0.11)">
       <use xlink:href="#DejaVuSans-48"/>
      </g>
     </g>
    </g>
    <g id="xtick_2">
     <g id="line2d_2">
      <path clip-path="url(#p2f45949793)" d="M 134.678747 166.7 
L 134.678747 10.8 
" style="fill:none;stroke:#ffffff;stroke-linecap:round;"/>
     </g>
     <g id="text_2">
      <!-- 20 -->
      <defs>
       <path d="M 19.1875 8.296875 
L 53.609375 8.296875 
L 53.609375 0 
L 7.328125 0 
L 7.328125 8.296875 
Q 12.9375 14.109375 22.625 23.890625 
Q 32.328125 33.6875 34.8125 36.53125 
Q 39.546875 41.84375 41.421875 45.53125 
Q 43.3125 49.21875 43.3125 52.78125 
Q 43.3125 58.59375 39.234375 62.25 
Q 35.15625 65.921875 28.609375 65.921875 
Q 23.96875 65.921875 18.8125 64.3125 
Q 13.671875 62.703125 7.8125 59.421875 
L 7.8125 69.390625 
Q 13.765625 71.78125 18.9375 73 
Q 24.125 74.21875 28.421875 74.21875 
Q 39.75 74.21875 46.484375 68.546875 
Q 53.21875 62.890625 53.21875 53.421875 
Q 53.21875 48.921875 51.53125 44.890625 
Q 49.859375 40.875 45.40625 35.40625 
Q 44.1875 33.984375 37.640625 27.21875 
Q 31.109375 20.453125 19.1875 8.296875 
z
" id="DejaVuSans-50"/>
      </defs>
      <g style="fill:#262626;" transform="translate(127.679997 184.558281)scale(0.11 -0.11)">
       <use xlink:href="#DejaVuSans-50"/>
       <use x="63.623047" xlink:href="#DejaVuSans-48"/>
      </g>
     </g>
    </g>
    <g id="xtick_3">
     <g id="line2d_3">
      <path clip-path="url(#p2f45949793)" d="M 185.184045 166.7 
L 185.184045 10.8 
" style="fill:none;stroke:#ffffff;stroke-linecap:round;"/>
     </g>
     <g id="text_3">
      <!-- 40 -->
      <defs>
       <path d="M 37.796875 64.3125 
L 12.890625 25.390625 
L 37.796875 25.390625 
z
M 35.203125 72.90625 
L 47.609375 72.90625 
L 47.609375 25.390625 
L 58.015625 25.390625 
L 58.015625 17.1875 
L 47.609375 17.1875 
L 47.609375 0 
L 37.796875 0 
L 37.796875 17.1875 
L 4.890625 17.1875 
L 4.890625 26.703125 
z
" id="DejaVuSans-52"/>
      </defs>
      <g style="fill:#262626;" transform="translate(178.185295 184.558281)scale(0.11 -0.11)">
       <use xlink:href="#DejaVuSans-52"/>
       <use x="63.623047" xlink:href="#DejaVuSans-48"/>
      </g>
     </g>
    </g>
    <g id="xtick_4">
     <g id="line2d_4">
      <path clip-path="url(#p2f45949793)" d="M 235.689343 166.7 
L 235.689343 10.8 
" style="fill:none;stroke:#ffffff;stroke-linecap:round;"/>
     </g>
     <g id="text_4">
      <!-- 60 -->
      <defs>
       <path d="M 33.015625 40.375 
Q 26.375 40.375 22.484375 35.828125 
Q 18.609375 31.296875 18.609375 23.390625 
Q 18.609375 15.53125 22.484375 10.953125 
Q 26.375 6.390625 33.015625 6.390625 
Q 39.65625 6.390625 43.53125 10.953125 
Q 47.40625 15.53125 47.40625 23.390625 
Q 47.40625 31.296875 43.53125 35.828125 
Q 39.65625 40.375 33.015625 40.375 
z
M 52.59375 71.296875 
L 52.59375 62.3125 
Q 48.875 64.0625 45.09375 64.984375 
Q 41.3125 65.921875 37.59375 65.921875 
Q 27.828125 65.921875 22.671875 59.328125 
Q 17.53125 52.734375 16.796875 39.40625 
Q 19.671875 43.65625 24.015625 45.921875 
Q 28.375 48.1875 33.59375 48.1875 
Q 44.578125 48.1875 50.953125 41.515625 
Q 57.328125 34.859375 57.328125 23.390625 
Q 57.328125 12.15625 50.6875 5.359375 
Q 44.046875 -1.421875 33.015625 -1.421875 
Q 20.359375 -1.421875 13.671875 8.265625 
Q 6.984375 17.96875 6.984375 36.375 
Q 6.984375 53.65625 15.1875 63.9375 
Q 23.390625 74.21875 37.203125 74.21875 
Q 40.921875 74.21875 44.703125 73.484375 
Q 48.484375 72.75 52.59375 71.296875 
z
" id="DejaVuSans-54"/>
      </defs>
      <g style="fill:#262626;" transform="translate(228.690593 184.558281)scale(0.11 -0.11)">
       <use xlink:href="#DejaVuSans-54"/>
       <use x="63.623047" xlink:href="#DejaVuSans-48"/>
      </g>
     </g>
    </g>
    <g id="xtick_5">
     <g id="line2d_5">
      <path clip-path="url(#p2f45949793)" d="M 286.194641 166.7 
L 286.194641 10.8 
" style="fill:none;stroke:#ffffff;stroke-linecap:round;"/>
     </g>
     <g id="text_5">
      <!-- 80 -->
      <defs>
       <path d="M 31.78125 34.625 
Q 24.75 34.625 20.71875 30.859375 
Q 16.703125 27.09375 16.703125 20.515625 
Q 16.703125 13.921875 20.71875 10.15625 
Q 24.75 6.390625 31.78125 6.390625 
Q 38.8125 6.390625 42.859375 10.171875 
Q 46.921875 13.96875 46.921875 20.515625 
Q 46.921875 27.09375 42.890625 30.859375 
Q 38.875 34.625 31.78125 34.625 
z
M 21.921875 38.8125 
Q 15.578125 40.375 12.03125 44.71875 
Q 8.5 49.078125 8.5 55.328125 
Q 8.5 64.0625 14.71875 69.140625 
Q 20.953125 74.21875 31.78125 74.21875 
Q 42.671875 74.21875 48.875 69.140625 
Q 55.078125 64.0625 55.078125 55.328125 
Q 55.078125 49.078125 51.53125 44.71875 
Q 48 40.375 41.703125 38.8125 
Q 48.828125 37.15625 52.796875 32.3125 
Q 56.78125 27.484375 56.78125 20.515625 
Q 56.78125 9.90625 50.3125 4.234375 
Q 43.84375 -1.421875 31.78125 -1.421875 
Q 19.734375 -1.421875 13.25 4.234375 
Q 6.78125 9.90625 6.78125 20.515625 
Q 6.78125 27.484375 10.78125 32.3125 
Q 14.796875 37.15625 21.921875 38.8125 
z
M 18.3125 54.390625 
Q 18.3125 48.734375 21.84375 45.5625 
Q 25.390625 42.390625 31.78125 42.390625 
Q 38.140625 42.390625 41.71875 45.5625 
Q 45.3125 48.734375 45.3125 54.390625 
Q 45.3125 60.0625 41.71875 63.234375 
Q 38.140625 66.40625 31.78125 66.40625 
Q 25.390625 66.40625 21.84375 63.234375 
Q 18.3125 60.0625 18.3125 54.390625 
z
" id="DejaVuSans-56"/>
      </defs>
      <g style="fill:#262626;" transform="translate(279.195891 184.558281)scale(0.11 -0.11)">
       <use xlink:href="#DejaVuSans-56"/>
       <use x="63.623047" xlink:href="#DejaVuSans-48"/>
      </g>
     </g>
    </g>
    <g id="xtick_6">
     <g id="line2d_6">
      <path clip-path="url(#p2f45949793)" d="M 336.699939 166.7 
L 336.699939 10.8 
" style="fill:none;stroke:#ffffff;stroke-linecap:round;"/>
     </g>
     <g id="text_6">
      <!-- 100 -->
      <defs>
       <path d="M 12.40625 8.296875 
L 28.515625 8.296875 
L 28.515625 63.921875 
L 10.984375 60.40625 
L 10.984375 69.390625 
L 28.421875 72.90625 
L 38.28125 72.90625 
L 38.28125 8.296875 
L 54.390625 8.296875 
L 54.390625 0 
L 12.40625 0 
z
" id="DejaVuSans-49"/>
      </defs>
      <g style="fill:#262626;" transform="translate(326.201814 184.558281)scale(0.11 -0.11)">
       <use xlink:href="#DejaVuSans-49"/>
       <use x="63.623047" xlink:href="#DejaVuSans-48"/>
       <use x="127.246094" xlink:href="#DejaVuSans-48"/>
      </g>
     </g>
    </g>
    <g id="text_7">
     <!-- Number of iteration, $k$ -->
     <defs>
      <path d="M 9.8125 72.90625 
L 23.09375 72.90625 
L 55.421875 11.921875 
L 55.421875 72.90625 
L 64.984375 72.90625 
L 64.984375 0 
L 51.703125 0 
L 19.390625 60.984375 
L 19.390625 0 
L 9.8125 0 
z
" id="DejaVuSans-78"/>
      <path d="M 8.5 21.578125 
L 8.5 54.6875 
L 17.484375 54.6875 
L 17.484375 21.921875 
Q 17.484375 14.15625 20.5 10.265625 
Q 23.53125 6.390625 29.59375 6.390625 
Q 36.859375 6.390625 41.078125 11.03125 
Q 45.3125 15.671875 45.3125 23.6875 
L 45.3125 54.6875 
L 54.296875 54.6875 
L 54.296875 0 
L 45.3125 0 
L 45.3125 8.40625 
Q 42.046875 3.421875 37.71875 1 
Q 33.40625 -1.421875 27.6875 -1.421875 
Q 18.265625 -1.421875 13.375 4.4375 
Q 8.5 10.296875 8.5 21.578125 
z
M 31.109375 56 
z
" id="DejaVuSans-117"/>
      <path d="M 52 44.1875 
Q 55.375 50.25 60.0625 53.125 
Q 64.75 56 71.09375 56 
Q 79.640625 56 84.28125 50.015625 
Q 88.921875 44.046875 88.921875 33.015625 
L 88.921875 0 
L 79.890625 0 
L 79.890625 32.71875 
Q 79.890625 40.578125 77.09375 44.375 
Q 74.3125 48.1875 68.609375 48.1875 
Q 61.625 48.1875 57.5625 43.546875 
Q 53.515625 38.921875 53.515625 30.90625 
L 53.515625 0 
L 44.484375 0 
L 44.484375 32.71875 
Q 44.484375 40.625 41.703125 44.40625 
Q 38.921875 48.1875 33.109375 48.1875 
Q 26.21875 48.1875 22.15625 43.53125 
Q 18.109375 38.875 18.109375 30.90625 
L 18.109375 0 
L 9.078125 0 
L 9.078125 54.6875 
L 18.109375 54.6875 
L 18.109375 46.1875 
Q 21.1875 51.21875 25.484375 53.609375 
Q 29.78125 56 35.6875 56 
Q 41.65625 56 45.828125 52.96875 
Q 50 49.953125 52 44.1875 
z
" id="DejaVuSans-109"/>
      <path d="M 48.6875 27.296875 
Q 48.6875 37.203125 44.609375 42.84375 
Q 40.53125 48.484375 33.40625 48.484375 
Q 26.265625 48.484375 22.1875 42.84375 
Q 18.109375 37.203125 18.109375 27.296875 
Q 18.109375 17.390625 22.1875 11.75 
Q 26.265625 6.109375 33.40625 6.109375 
Q 40.53125 6.109375 44.609375 11.75 
Q 48.6875 17.390625 48.6875 27.296875 
z
M 18.109375 46.390625 
Q 20.953125 51.265625 25.265625 53.625 
Q 29.59375 56 35.59375 56 
Q 45.5625 56 51.78125 48.09375 
Q 58.015625 40.1875 58.015625 27.296875 
Q 58.015625 14.40625 51.78125 6.484375 
Q 45.5625 -1.421875 35.59375 -1.421875 
Q 29.59375 -1.421875 25.265625 0.953125 
Q 20.953125 3.328125 18.109375 8.203125 
L 18.109375 0 
L 9.078125 0 
L 9.078125 75.984375 
L 18.109375 75.984375 
z
" id="DejaVuSans-98"/>
      <path d="M 56.203125 29.59375 
L 56.203125 25.203125 
L 14.890625 25.203125 
Q 15.484375 15.921875 20.484375 11.0625 
Q 25.484375 6.203125 34.421875 6.203125 
Q 39.59375 6.203125 44.453125 7.46875 
Q 49.3125 8.734375 54.109375 11.28125 
L 54.109375 2.78125 
Q 49.265625 0.734375 44.1875 -0.34375 
Q 39.109375 -1.421875 33.890625 -1.421875 
Q 20.796875 -1.421875 13.15625 6.1875 
Q 5.515625 13.8125 5.515625 26.8125 
Q 5.515625 40.234375 12.765625 48.109375 
Q 20.015625 56 32.328125 56 
Q 43.359375 56 49.78125 48.890625 
Q 56.203125 41.796875 56.203125 29.59375 
z
M 47.21875 32.234375 
Q 47.125 39.59375 43.09375 43.984375 
Q 39.0625 48.390625 32.421875 48.390625 
Q 24.90625 48.390625 20.390625 44.140625 
Q 15.875 39.890625 15.1875 32.171875 
z
" id="DejaVuSans-101"/>
      <path d="M 41.109375 46.296875 
Q 39.59375 47.171875 37.8125 47.578125 
Q 36.03125 48 33.890625 48 
Q 26.265625 48 22.1875 43.046875 
Q 18.109375 38.09375 18.109375 28.8125 
L 18.109375 0 
L 9.078125 0 
L 9.078125 54.6875 
L 18.109375 54.6875 
L 18.109375 46.1875 
Q 20.953125 51.171875 25.484375 53.578125 
Q 30.03125 56 36.53125 56 
Q 37.453125 56 38.578125 55.875 
Q 39.703125 55.765625 41.0625 55.515625 
z
" id="DejaVuSans-114"/>
      <path id="DejaVuSans-32"/>
      <path d="M 30.609375 48.390625 
Q 23.390625 48.390625 19.1875 42.75 
Q 14.984375 37.109375 14.984375 27.296875 
Q 14.984375 17.484375 19.15625 11.84375 
Q 23.34375 6.203125 30.609375 6.203125 
Q 37.796875 6.203125 41.984375 11.859375 
Q 46.1875 17.53125 46.1875 27.296875 
Q 46.1875 37.015625 41.984375 42.703125 
Q 37.796875 48.390625 30.609375 48.390625 
z
M 30.609375 56 
Q 42.328125 56 49.015625 48.375 
Q 55.71875 40.765625 55.71875 27.296875 
Q 55.71875 13.875 49.015625 6.21875 
Q 42.328125 -1.421875 30.609375 -1.421875 
Q 18.84375 -1.421875 12.171875 6.21875 
Q 5.515625 13.875 5.515625 27.296875 
Q 5.515625 40.765625 12.171875 48.375 
Q 18.84375 56 30.609375 56 
z
" id="DejaVuSans-111"/>
      <path d="M 37.109375 75.984375 
L 37.109375 68.5 
L 28.515625 68.5 
Q 23.6875 68.5 21.796875 66.546875 
Q 19.921875 64.59375 19.921875 59.515625 
L 19.921875 54.6875 
L 34.71875 54.6875 
L 34.71875 47.703125 
L 19.921875 47.703125 
L 19.921875 0 
L 10.890625 0 
L 10.890625 47.703125 
L 2.296875 47.703125 
L 2.296875 54.6875 
L 10.890625 54.6875 
L 10.890625 58.5 
Q 10.890625 67.625 15.140625 71.796875 
Q 19.390625 75.984375 28.609375 75.984375 
z
" id="DejaVuSans-102"/>
      <path d="M 9.421875 54.6875 
L 18.40625 54.6875 
L 18.40625 0 
L 9.421875 0 
z
M 9.421875 75.984375 
L 18.40625 75.984375 
L 18.40625 64.59375 
L 9.421875 64.59375 
z
" id="DejaVuSans-105"/>
      <path d="M 18.3125 70.21875 
L 18.3125 54.6875 
L 36.8125 54.6875 
L 36.8125 47.703125 
L 18.3125 47.703125 
L 18.3125 18.015625 
Q 18.3125 11.328125 20.140625 9.421875 
Q 21.96875 7.515625 27.59375 7.515625 
L 36.8125 7.515625 
L 36.8125 0 
L 27.59375 0 
Q 17.1875 0 13.234375 3.875 
Q 9.28125 7.765625 9.28125 18.015625 
L 9.28125 47.703125 
L 2.6875 47.703125 
L 2.6875 54.6875 
L 9.28125 54.6875 
L 9.28125 70.21875 
z
" id="DejaVuSans-116"/>
      <path d="M 34.28125 27.484375 
Q 23.390625 27.484375 19.1875 25 
Q 14.984375 22.515625 14.984375 16.5 
Q 14.984375 11.71875 18.140625 8.90625 
Q 21.296875 6.109375 26.703125 6.109375 
Q 34.1875 6.109375 38.703125 11.40625 
Q 43.21875 16.703125 43.21875 25.484375 
L 43.21875 27.484375 
z
M 52.203125 31.203125 
L 52.203125 0 
L 43.21875 0 
L 43.21875 8.296875 
Q 40.140625 3.328125 35.546875 0.953125 
Q 30.953125 -1.421875 24.3125 -1.421875 
Q 15.921875 -1.421875 10.953125 3.296875 
Q 6 8.015625 6 15.921875 
Q 6 25.140625 12.171875 29.828125 
Q 18.359375 34.515625 30.609375 34.515625 
L 43.21875 34.515625 
L 43.21875 35.40625 
Q 43.21875 41.609375 39.140625 45 
Q 35.0625 48.390625 27.6875 48.390625 
Q 23 48.390625 18.546875 47.265625 
Q 14.109375 46.140625 10.015625 43.890625 
L 10.015625 52.203125 
Q 14.9375 54.109375 19.578125 55.046875 
Q 24.21875 56 28.609375 56 
Q 40.484375 56 46.34375 49.84375 
Q 52.203125 43.703125 52.203125 31.203125 
z
" id="DejaVuSans-97"/>
      <path d="M 54.890625 33.015625 
L 54.890625 0 
L 45.90625 0 
L 45.90625 32.71875 
Q 45.90625 40.484375 42.875 44.328125 
Q 39.84375 48.1875 33.796875 48.1875 
Q 26.515625 48.1875 22.3125 43.546875 
Q 18.109375 38.921875 18.109375 30.90625 
L 18.109375 0 
L 9.078125 0 
L 9.078125 54.6875 
L 18.109375 54.6875 
L 18.109375 46.1875 
Q 21.34375 51.125 25.703125 53.5625 
Q 30.078125 56 35.796875 56 
Q 45.21875 56 50.046875 50.171875 
Q 54.890625 44.34375 54.890625 33.015625 
z
" id="DejaVuSans-110"/>
      <path d="M 11.71875 12.40625 
L 22.015625 12.40625 
L 22.015625 4 
L 14.015625 -11.625 
L 7.71875 -11.625 
L 11.71875 4 
z
" id="DejaVuSans-44"/>
      <path d="M 18.3125 75.984375 
L 27.296875 75.984375 
L 18.703125 31.6875 
L 49.515625 54.6875 
L 61.1875 54.6875 
L 26.8125 28.515625 
L 51.90625 0 
L 41.015625 0 
L 17.671875 26.703125 
L 12.5 0 
L 3.515625 0 
z
" id="DejaVuSans-Oblique-107"/>
     </defs>
     <g style="fill:#262626;" transform="translate(145.339326 199.964063)scale(0.12 -0.12)">
      <use transform="translate(0 0.015625)" xlink:href="#DejaVuSans-78"/>
      <use transform="translate(74.804688 0.015625)" xlink:href="#DejaVuSans-117"/>
      <use transform="translate(138.183594 0.015625)" xlink:href="#DejaVuSans-109"/>
      <use transform="translate(235.595703 0.015625)" xlink:href="#DejaVuSans-98"/>
      <use transform="translate(299.072266 0.015625)" xlink:href="#DejaVuSans-101"/>
      <use transform="translate(360.595703 0.015625)" xlink:href="#DejaVuSans-114"/>
      <use transform="translate(401.708984 0.015625)" xlink:href="#DejaVuSans-32"/>
      <use transform="translate(433.496094 0.015625)" xlink:href="#DejaVuSans-111"/>
      <use transform="translate(494.677734 0.015625)" xlink:href="#DejaVuSans-102"/>
      <use transform="translate(529.882812 0.015625)" xlink:href="#DejaVuSans-32"/>
      <use transform="translate(561.669922 0.015625)" xlink:href="#DejaVuSans-105"/>
      <use transform="translate(589.453125 0.015625)" xlink:href="#DejaVuSans-116"/>
      <use transform="translate(628.662109 0.015625)" xlink:href="#DejaVuSans-101"/>
      <use transform="translate(690.185547 0.015625)" xlink:href="#DejaVuSans-114"/>
      <use transform="translate(731.298828 0.015625)" xlink:href="#DejaVuSans-97"/>
      <use transform="translate(792.578125 0.015625)" xlink:href="#DejaVuSans-116"/>
      <use transform="translate(831.787109 0.015625)" xlink:href="#DejaVuSans-105"/>
      <use transform="translate(859.570312 0.015625)" xlink:href="#DejaVuSans-111"/>
      <use transform="translate(920.751953 0.015625)" xlink:href="#DejaVuSans-110"/>
      <use transform="translate(984.130859 0.015625)" xlink:href="#DejaVuSans-44"/>
      <use transform="translate(1015.917969 0.015625)" xlink:href="#DejaVuSans-32"/>
      <use transform="translate(1047.705078 0.015625)" xlink:href="#DejaVuSans-Oblique-107"/>
     </g>
    </g>
   </g>
   <g id="matplotlib.axis_2">
    <g id="ytick_1">
     <g id="line2d_7">
      <path clip-path="url(#p2f45949793)" d="M 74.198652 144.242427 
L 349.2 144.242427 
" style="fill:none;stroke:#ffffff;stroke-linecap:round;"/>
     </g>
     <g id="text_8">
      <!-- $\mathdefault{10^{-273}}$ -->
      <defs>
       <path d="M 10.59375 35.5 
L 73.1875 35.5 
L 73.1875 27.203125 
L 10.59375 27.203125 
z
" id="DejaVuSans-8722"/>
       <path d="M 8.203125 72.90625 
L 55.078125 72.90625 
L 55.078125 68.703125 
L 28.609375 0 
L 18.3125 0 
L 43.21875 64.59375 
L 8.203125 64.59375 
z
" id="DejaVuSans-55"/>
       <path d="M 40.578125 39.3125 
Q 47.65625 37.796875 51.625 33 
Q 55.609375 28.21875 55.609375 21.1875 
Q 55.609375 10.40625 48.1875 4.484375 
Q 40.765625 -1.421875 27.09375 -1.421875 
Q 22.515625 -1.421875 17.65625 -0.515625 
Q 12.796875 0.390625 7.625 2.203125 
L 7.625 11.71875 
Q 11.71875 9.328125 16.59375 8.109375 
Q 21.484375 6.890625 26.8125 6.890625 
Q 36.078125 6.890625 40.9375 10.546875 
Q 45.796875 14.203125 45.796875 21.1875 
Q 45.796875 27.640625 41.28125 31.265625 
Q 36.765625 34.90625 28.71875 34.90625 
L 20.21875 34.90625 
L 20.21875 43.015625 
L 29.109375 43.015625 
Q 36.375 43.015625 40.234375 45.921875 
Q 44.09375 48.828125 44.09375 54.296875 
Q 44.09375 59.90625 40.109375 62.90625 
Q 36.140625 65.921875 28.71875 65.921875 
Q 24.65625 65.921875 20.015625 65.03125 
Q 15.375 64.15625 9.8125 62.3125 
L 9.8125 71.09375 
Q 15.4375 72.65625 20.34375 73.4375 
Q 25.25 74.21875 29.59375 74.21875 
Q 40.828125 74.21875 47.359375 69.109375 
Q 53.90625 64.015625 53.90625 55.328125 
Q 53.90625 49.265625 50.4375 45.09375 
Q 46.96875 40.921875 40.578125 39.3125 
z
" id="DejaVuSans-51"/>
      </defs>
      <g style="fill:#262626;" transform="translate(29.058652 148.421568)scale(0.11 -0.11)">
       <use transform="translate(0 0.765625)" xlink:href="#DejaVuSans-49"/>
       <use transform="translate(63.623047 0.765625)" xlink:href="#DejaVuSans-48"/>
       <use transform="translate(128.203125 39.046875)scale(0.7)" xlink:href="#DejaVuSans-8722"/>
       <use transform="translate(186.855469 39.046875)scale(0.7)" xlink:href="#DejaVuSans-50"/>
       <use transform="translate(231.391602 39.046875)scale(0.7)" xlink:href="#DejaVuSans-55"/>
       <use transform="translate(275.927734 39.046875)scale(0.7)" xlink:href="#DejaVuSans-51"/>
      </g>
     </g>
    </g>
    <g id="ytick_2">
     <g id="line2d_8">
      <path clip-path="url(#p2f45949793)" d="M 74.198652 121.706251 
L 349.2 121.706251 
" style="fill:none;stroke:#ffffff;stroke-linecap:round;"/>
     </g>
     <g id="text_9">
      <!-- $\mathdefault{10^{-224}}$ -->
      <g style="fill:#262626;" transform="translate(29.058652 125.885392)scale(0.11 -0.11)">
       <use transform="translate(0 0.765625)" xlink:href="#DejaVuSans-49"/>
       <use transform="translate(63.623047 0.765625)" xlink:href="#DejaVuSans-48"/>
       <use transform="translate(128.203125 39.046875)scale(0.7)" xlink:href="#DejaVuSans-8722"/>
       <use transform="translate(186.855469 39.046875)scale(0.7)" xlink:href="#DejaVuSans-50"/>
       <use transform="translate(231.391602 39.046875)scale(0.7)" xlink:href="#DejaVuSans-50"/>
       <use transform="translate(275.927734 39.046875)scale(0.7)" xlink:href="#DejaVuSans-52"/>
      </g>
     </g>
    </g>
    <g id="ytick_3">
     <g id="line2d_9">
      <path clip-path="url(#p2f45949793)" d="M 74.198652 99.170075 
L 349.2 99.170075 
" style="fill:none;stroke:#ffffff;stroke-linecap:round;"/>
     </g>
     <g id="text_10">
      <!-- $\mathdefault{10^{-175}}$ -->
      <defs>
       <path d="M 10.796875 72.90625 
L 49.515625 72.90625 
L 49.515625 64.59375 
L 19.828125 64.59375 
L 19.828125 46.734375 
Q 21.96875 47.46875 24.109375 47.828125 
Q 26.265625 48.1875 28.421875 48.1875 
Q 40.625 48.1875 47.75 41.5 
Q 54.890625 34.8125 54.890625 23.390625 
Q 54.890625 11.625 47.5625 5.09375 
Q 40.234375 -1.421875 26.90625 -1.421875 
Q 22.3125 -1.421875 17.546875 -0.640625 
Q 12.796875 0.140625 7.71875 1.703125 
L 7.71875 11.625 
Q 12.109375 9.234375 16.796875 8.0625 
Q 21.484375 6.890625 26.703125 6.890625 
Q 35.15625 6.890625 40.078125 11.328125 
Q 45.015625 15.765625 45.015625 23.390625 
Q 45.015625 31 40.078125 35.4375 
Q 35.15625 39.890625 26.703125 39.890625 
Q 22.75 39.890625 18.8125 39.015625 
Q 14.890625 38.140625 10.796875 36.28125 
z
" id="DejaVuSans-53"/>
      </defs>
      <g style="fill:#262626;" transform="translate(29.058652 103.349216)scale(0.11 -0.11)">
       <use transform="translate(0 0.684375)" xlink:href="#DejaVuSans-49"/>
       <use transform="translate(63.623047 0.684375)" xlink:href="#DejaVuSans-48"/>
       <use transform="translate(128.203125 38.965625)scale(0.7)" xlink:href="#DejaVuSans-8722"/>
       <use transform="translate(186.855469 38.965625)scale(0.7)" xlink:href="#DejaVuSans-49"/>
       <use transform="translate(231.391602 38.965625)scale(0.7)" xlink:href="#DejaVuSans-55"/>
       <use transform="translate(275.927734 38.965625)scale(0.7)" xlink:href="#DejaVuSans-53"/>
      </g>
     </g>
    </g>
    <g id="ytick_4">
     <g id="line2d_10">
      <path clip-path="url(#p2f45949793)" d="M 74.198652 76.633899 
L 349.2 76.633899 
" style="fill:none;stroke:#ffffff;stroke-linecap:round;"/>
     </g>
     <g id="text_11">
      <!-- $\mathdefault{10^{-126}}$ -->
      <g style="fill:#262626;" transform="translate(29.058652 80.813039)scale(0.11 -0.11)">
       <use transform="translate(0 0.765625)" xlink:href="#DejaVuSans-49"/>
       <use transform="translate(63.623047 0.765625)" xlink:href="#DejaVuSans-48"/>
       <use transform="translate(128.203125 39.046875)scale(0.7)" xlink:href="#DejaVuSans-8722"/>
       <use transform="translate(186.855469 39.046875)scale(0.7)" xlink:href="#DejaVuSans-49"/>
       <use transform="translate(231.391602 39.046875)scale(0.7)" xlink:href="#DejaVuSans-50"/>
       <use transform="translate(275.927734 39.046875)scale(0.7)" xlink:href="#DejaVuSans-54"/>
      </g>
     </g>
    </g>
    <g id="ytick_5">
     <g id="line2d_11">
      <path clip-path="url(#p2f45949793)" d="M 74.198652 54.097723 
L 349.2 54.097723 
" style="fill:none;stroke:#ffffff;stroke-linecap:round;"/>
     </g>
     <g id="text_12">
      <!-- $\mathdefault{10^{-77}}$ -->
      <g style="fill:#262626;" transform="translate(34.008652 58.276863)scale(0.11 -0.11)">
       <use transform="translate(0 0.684375)" xlink:href="#DejaVuSans-49"/>
       <use transform="translate(63.623047 0.684375)" xlink:href="#DejaVuSans-48"/>
       <use transform="translate(128.203125 38.965625)scale(0.7)" xlink:href="#DejaVuSans-8722"/>
       <use transform="translate(186.855469 38.965625)scale(0.7)" xlink:href="#DejaVuSans-55"/>
       <use transform="translate(231.380664 38.965625)scale(0.7)" xlink:href="#DejaVuSans-55"/>
      </g>
     </g>
    </g>
    <g id="ytick_6">
     <g id="line2d_12">
      <path clip-path="url(#p2f45949793)" d="M 74.198652 31.561546 
L 349.2 31.561546 
" style="fill:none;stroke:#ffffff;stroke-linecap:round;"/>
     </g>
     <g id="text_13">
      <!-- $\mathdefault{10^{-28}}$ -->
      <g style="fill:#262626;" transform="translate(34.008652 35.740687)scale(0.11 -0.11)">
       <use transform="translate(0 0.765625)" xlink:href="#DejaVuSans-49"/>
       <use transform="translate(63.623047 0.765625)" xlink:href="#DejaVuSans-48"/>
       <use transform="translate(128.203125 39.046875)scale(0.7)" xlink:href="#DejaVuSans-8722"/>
       <use transform="translate(186.855469 39.046875)scale(0.7)" xlink:href="#DejaVuSans-50"/>
       <use transform="translate(231.391602 39.046875)scale(0.7)" xlink:href="#DejaVuSans-56"/>
      </g>
     </g>
    </g>
    <g id="text_14">
     <!-- Error rate upper bound -->
     <defs>
      <path d="M 9.8125 72.90625 
L 55.90625 72.90625 
L 55.90625 64.59375 
L 19.671875 64.59375 
L 19.671875 43.015625 
L 54.390625 43.015625 
L 54.390625 34.71875 
L 19.671875 34.71875 
L 19.671875 8.296875 
L 56.78125 8.296875 
L 56.78125 0 
L 9.8125 0 
z
" id="DejaVuSans-69"/>
      <path d="M 18.109375 8.203125 
L 18.109375 -20.796875 
L 9.078125 -20.796875 
L 9.078125 54.6875 
L 18.109375 54.6875 
L 18.109375 46.390625 
Q 20.953125 51.265625 25.265625 53.625 
Q 29.59375 56 35.59375 56 
Q 45.5625 56 51.78125 48.09375 
Q 58.015625 40.1875 58.015625 27.296875 
Q 58.015625 14.40625 51.78125 6.484375 
Q 45.5625 -1.421875 35.59375 -1.421875 
Q 29.59375 -1.421875 25.265625 0.953125 
Q 20.953125 3.328125 18.109375 8.203125 
z
M 48.6875 27.296875 
Q 48.6875 37.203125 44.609375 42.84375 
Q 40.53125 48.484375 33.40625 48.484375 
Q 26.265625 48.484375 22.1875 42.84375 
Q 18.109375 37.203125 18.109375 27.296875 
Q 18.109375 17.390625 22.1875 11.75 
Q 26.265625 6.109375 33.40625 6.109375 
Q 40.53125 6.109375 44.609375 11.75 
Q 48.6875 17.390625 48.6875 27.296875 
z
" id="DejaVuSans-112"/>
      <path d="M 45.40625 46.390625 
L 45.40625 75.984375 
L 54.390625 75.984375 
L 54.390625 0 
L 45.40625 0 
L 45.40625 8.203125 
Q 42.578125 3.328125 38.25 0.953125 
Q 33.9375 -1.421875 27.875 -1.421875 
Q 17.96875 -1.421875 11.734375 6.484375 
Q 5.515625 14.40625 5.515625 27.296875 
Q 5.515625 40.1875 11.734375 48.09375 
Q 17.96875 56 27.875 56 
Q 33.9375 56 38.25 53.625 
Q 42.578125 51.265625 45.40625 46.390625 
z
M 14.796875 27.296875 
Q 14.796875 17.390625 18.875 11.75 
Q 22.953125 6.109375 30.078125 6.109375 
Q 37.203125 6.109375 41.296875 11.75 
Q 45.40625 17.390625 45.40625 27.296875 
Q 45.40625 37.203125 41.296875 42.84375 
Q 37.203125 48.484375 30.078125 48.484375 
Q 22.953125 48.484375 18.875 42.84375 
Q 14.796875 37.203125 14.796875 27.296875 
z
" id="DejaVuSans-100"/>
     </defs>
     <g style="fill:#262626;" transform="translate(22.563027 157.990938)rotate(-90)scale(0.12 -0.12)">
      <use xlink:href="#DejaVuSans-69"/>
      <use x="63.183594" xlink:href="#DejaVuSans-114"/>
      <use x="104.28125" xlink:href="#DejaVuSans-114"/>
      <use x="145.363281" xlink:href="#DejaVuSans-111"/>
      <use x="206.544922" xlink:href="#DejaVuSans-114"/>
      <use x="247.658203" xlink:href="#DejaVuSans-32"/>
      <use x="279.445312" xlink:href="#DejaVuSans-114"/>
      <use x="320.558594" xlink:href="#DejaVuSans-97"/>
      <use x="381.837891" xlink:href="#DejaVuSans-116"/>
      <use x="421.046875" xlink:href="#DejaVuSans-101"/>
      <use x="482.570312" xlink:href="#DejaVuSans-32"/>
      <use x="514.357422" xlink:href="#DejaVuSans-117"/>
      <use x="577.736328" xlink:href="#DejaVuSans-112"/>
      <use x="641.212891" xlink:href="#DejaVuSans-112"/>
      <use x="704.689453" xlink:href="#DejaVuSans-101"/>
      <use x="766.212891" xlink:href="#DejaVuSans-114"/>
      <use x="807.326172" xlink:href="#DejaVuSans-32"/>
      <use x="839.113281" xlink:href="#DejaVuSans-98"/>
      <use x="902.589844" xlink:href="#DejaVuSans-111"/>
      <use x="963.771484" xlink:href="#DejaVuSans-117"/>
      <use x="1027.150391" xlink:href="#DejaVuSans-110"/>
      <use x="1090.529297" xlink:href="#DejaVuSans-100"/>
     </g>
    </g>
   </g>
   <g id="line2d_13">
    <path clip-path="url(#p2f45949793)" d="M 86.698714 18.22381 
L 89.223979 18.293035 
L 91.749243 18.333529 
L 94.274508 18.36226 
L 96.799773 18.384545 
L 99.325038 18.402754 
L 101.850303 18.418149 
L 104.375568 18.431485 
L 106.900833 18.443248 
L 109.426098 18.453771 
L 111.951363 18.463289 
L 114.476628 18.471979 
L 117.001892 18.479973 
L 119.527157 18.487374 
L 122.052422 18.494265 
L 124.577687 18.50071 
L 127.102952 18.506765 
L 129.628217 18.512473 
L 132.153482 18.517873 
L 134.678747 18.522996 
L 137.204012 18.527868 
L 139.729277 18.532514 
L 142.254541 18.536954 
L 144.779806 18.541204 
L 147.305071 18.545281 
L 149.830336 18.549198 
L 152.355601 18.552967 
L 154.880866 18.556599 
L 157.406131 18.560104 
L 159.931396 18.56349 
L 162.456661 18.566765 
L 164.981926 18.569935 
L 167.50719 18.573008 
L 170.032455 18.57599 
L 172.55772 18.578885 
L 175.082985 18.581698 
L 177.60825 18.584435 
L 180.133515 18.587098 
L 182.65878 18.589692 
L 185.184045 18.592221 
L 187.70931 18.594687 
L 190.234575 18.597094 
L 192.759839 18.599444 
L 195.285104 18.60174 
L 197.810369 18.603984 
L 200.335634 18.606179 
L 202.860899 18.608327 
L 205.386164 18.610429 
L 207.911429 18.612489 
L 210.436694 18.614506 
L 212.961959 18.616484 
L 215.487224 18.618423 
L 218.012488 18.620326 
L 220.537753 18.622192 
L 223.063018 18.624025 
L 225.588283 18.625825 
L 228.113548 18.627592 
L 230.638813 18.629329 
L 233.164078 18.631036 
L 235.689343 18.632715 
L 238.214608 18.634366 
L 240.739873 18.63599 
L 243.265137 18.637588 
L 245.790402 18.63916 
L 248.315667 18.640709 
L 250.840932 18.642234 
L 253.366197 18.643735 
L 255.891462 18.645215 
L 258.416727 18.646673 
L 260.941992 18.64811 
L 263.467257 18.649527 
L 265.992522 18.650924 
L 268.517786 18.652301 
L 271.043051 18.65366 
L 273.568316 18.655 
L 276.093581 18.656323 
L 278.618846 18.657629 
L 281.144111 18.658917 
L 283.669376 18.66019 
L 286.194641 18.661446 
L 288.719906 18.662687 
L 291.245171 18.663912 
L 293.770435 18.665123 
L 296.2957 18.666319 
L 298.820965 18.667501 
L 301.34623 18.668669 
L 303.871495 18.669823 
L 306.39676 18.670965 
L 308.922025 18.672093 
L 311.44729 18.673209 
L 313.972555 18.674313 
L 316.49782 18.675404 
L 319.023084 18.676484 
L 321.548349 18.677552 
L 324.073614 18.678609 
L 326.598879 18.679655 
L 329.124144 18.68069 
L 331.649409 18.681714 
L 334.174674 18.682728 
L 336.699939 18.683731 
" style="fill:none;stroke:#4c72b0;stroke-linecap:round;stroke-width:1.5;"/>
   </g>
   <g id="line2d_14">
    <path clip-path="url(#p2f45949793)" d="M 86.698714 18.244854 
L 89.223979 18.307989 
L 91.749243 18.413213 
L 94.274508 18.560528 
L 96.799773 18.749931 
L 99.325038 18.981425 
L 101.850303 19.255008 
L 104.375568 19.570682 
L 106.900833 19.928444 
L 109.426098 20.328297 
L 111.951363 20.770239 
L 114.476628 21.254272 
L 117.001892 21.780393 
L 119.527157 22.348605 
L 122.052422 22.958906 
L 124.577687 23.611297 
L 127.102952 24.305778 
L 129.628217 25.042349 
L 132.153482 25.821009 
L 134.678747 26.641759 
L 137.204012 27.504599 
L 139.729277 28.409529 
L 142.254541 29.356548 
L 144.779806 30.345657 
L 147.305071 31.376856 
L 149.830336 32.450145 
L 152.355601 33.565523 
L 154.880866 34.722991 
L 157.406131 35.922549 
L 159.931396 37.164197 
L 162.456661 38.447934 
L 164.981926 39.773761 
L 167.50719 41.141678 
L 170.032455 42.551685 
L 172.55772 44.003781 
L 175.082985 45.497967 
L 177.60825 47.034243 
L 180.133515 48.612609 
L 182.65878 50.233064 
L 185.184045 51.895609 
L 187.70931 53.600244 
L 190.234575 55.346969 
L 192.759839 57.135783 
L 195.285104 58.966687 
L 197.810369 60.839681 
L 200.335634 62.754765 
L 202.860899 64.711938 
L 205.386164 66.711201 
L 207.911429 68.752554 
L 210.436694 70.835997 
L 212.961959 72.961529 
L 215.487224 75.129151 
L 218.012488 77.338863 
L 220.537753 79.590665 
L 223.063018 81.884556 
L 225.588283 84.220537 
L 228.113548 86.598608 
L 230.638813 89.018769 
L 233.164078 91.481019 
L 235.689343 93.985359 
L 238.214608 96.531789 
L 240.739873 99.120308 
L 243.265137 101.750918 
L 245.790402 104.423617 
L 248.315667 107.138406 
L 250.840932 109.895284 
L 253.366197 112.694253 
L 255.891462 115.535311 
L 258.416727 118.418459 
L 260.941992 121.343696 
L 263.467257 124.311024 
L 265.992522 127.320441 
L 268.517786 130.371948 
L 271.043051 133.465544 
L 273.568316 136.601231 
L 276.093581 139.779007 
L 278.618846 142.998873 
L 281.144111 146.260828 
L 283.669376 149.564873 
L 286.194641 152.911009 
L 288.719906 156.299233 
L 291.245171 159.729548 
L 293.770435 163.201952 
L 296.2957 166.7 
L 296.702941 217 
" style="fill:none;stroke:#dd8452;stroke-linecap:round;stroke-width:1.5;"/>
   </g>
   <g id="line2d_15">
    <path clip-path="url(#p2f45949793)" d="M 86.698714 18.244854 
L 89.223979 18.265899 
L 91.749243 18.286944 
L 94.274508 18.307989 
L 96.799773 18.329034 
L 99.325038 18.350079 
L 101.850303 18.371124 
L 104.375568 18.392169 
L 106.900833 18.413213 
L 109.426098 18.434258 
L 111.951363 18.455303 
L 114.476628 18.476348 
L 117.001892 18.497393 
L 119.527157 18.518438 
L 122.052422 18.539483 
L 124.577687 18.560528 
L 127.102952 18.581572 
L 129.628217 18.602617 
L 132.153482 18.623662 
L 134.678747 18.644707 
L 137.204012 18.665752 
L 139.729277 18.686797 
L 142.254541 18.707842 
L 144.779806 18.728887 
L 147.305071 18.749931 
L 149.830336 18.770976 
L 152.355601 18.792021 
L 154.880866 18.813066 
L 157.406131 18.834111 
L 159.931396 18.855156 
L 162.456661 18.876201 
L 164.981926 18.897246 
L 167.50719 18.91829 
L 170.032455 18.939335 
L 172.55772 18.96038 
L 175.082985 18.981425 
L 177.60825 19.00247 
L 180.133515 19.023515 
L 182.65878 19.04456 
L 185.184045 19.065605 
L 187.70931 19.086649 
L 190.234575 19.107694 
L 192.759839 19.128739 
L 195.285104 19.149784 
L 197.810369 19.170829 
L 200.335634 19.191874 
L 202.860899 19.212919 
L 205.386164 19.233964 
L 207.911429 19.255008 
L 210.436694 19.276053 
L 212.961959 19.297098 
L 215.487224 19.318143 
L 218.012488 19.339188 
L 220.537753 19.360233 
L 223.063018 19.381278 
L 225.588283 19.402323 
L 228.113548 19.423367 
L 230.638813 19.444412 
L 233.164078 19.465457 
L 235.689343 19.486502 
L 238.214608 19.507547 
L 240.739873 19.528592 
L 243.265137 19.549637 
L 245.790402 19.570682 
L 248.315667 19.591726 
L 250.840932 19.612771 
L 253.366197 19.633816 
L 255.891462 19.654861 
L 258.416727 19.675906 
L 260.941992 19.696951 
L 263.467257 19.717996 
L 265.992522 19.739041 
L 268.517786 19.760085 
L 271.043051 19.78113 
L 273.568316 19.802175 
L 276.093581 19.82322 
L 278.618846 19.844265 
L 281.144111 19.86531 
L 283.669376 19.886355 
L 286.194641 19.9074 
L 288.719906 19.928444 
L 291.245171 19.949489 
L 293.770435 19.970534 
L 296.2957 19.991579 
L 298.820965 20.012624 
L 301.34623 20.033669 
L 303.871495 20.054714 
L 306.39676 20.075759 
L 308.922025 20.096803 
L 311.44729 20.117848 
L 313.972555 20.138893 
L 316.49782 20.159938 
L 319.023084 20.180983 
L 321.548349 20.202028 
L 324.073614 20.223073 
L 326.598879 20.244118 
L 329.124144 20.265162 
L 331.649409 20.286207 
L 334.174674 20.307252 
L 336.699939 20.328297 
" style="fill:none;stroke:#55a868;stroke-linecap:round;stroke-width:1.5;"/>
   </g>
   <g id="line2d_16">
    <path clip-path="url(#p2f45949793)" d="M 86.698714 18.265899 
L 89.223979 18.307989 
L 91.749243 18.392169 
L 94.274508 18.560528 
L 96.799773 18.897246 
L 99.325038 19.570682 
L 101.850303 20.917554 
L 104.375568 23.611297 
L 106.900833 28.998785 
L 109.426098 39.773761 
L 111.951363 61.323713 
L 114.476628 104.423617 
L 115.236378 217 
" style="fill:none;stroke:#c44e52;stroke-linecap:round;stroke-width:1.5;"/>
   </g>
   <g id="patch_3">
    <path d="M 74.198652 166.7 
L 74.198652 10.8 
" style="fill:none;stroke:#ffffff;stroke-linecap:square;stroke-linejoin:miter;stroke-width:1.25;"/>
   </g>
   <g id="patch_4">
    <path d="M 349.2 166.7 
L 349.2 10.8 
" style="fill:none;stroke:#ffffff;stroke-linecap:square;stroke-linejoin:miter;stroke-width:1.25;"/>
   </g>
   <g id="patch_5">
    <path d="M 74.198652 166.7 
L 349.2 166.7 
" style="fill:none;stroke:#ffffff;stroke-linecap:square;stroke-linejoin:miter;stroke-width:1.25;"/>
   </g>
   <g id="patch_6">
    <path d="M 74.198652 10.8 
L 349.2 10.8 
" style="fill:none;stroke:#ffffff;stroke-linecap:square;stroke-linejoin:miter;stroke-width:1.25;"/>
   </g>
   <g id="legend_1">
    <g id="patch_7">
     <path d="M 81.898652 161.2 
L 227.978652 161.2 
Q 230.178652 161.2 230.178652 159 
L 230.178652 95.444062 
Q 230.178652 93.244062 227.978652 93.244062 
L 81.898652 93.244062 
Q 79.698652 93.244062 79.698652 95.444062 
L 79.698652 159 
Q 79.698652 161.2 81.898652 161.2 
z
" style="fill:#eaeaf2;opacity:0.8;stroke:#cccccc;stroke-linejoin:miter;"/>
    </g>
    <g id="line2d_17">
     <path d="M 84.098652 102.152344 
L 106.098652 102.152344 
" style="fill:none;stroke:#4c72b0;stroke-linecap:round;stroke-width:1.5;"/>
    </g>
    <g id="line2d_18"/>
    <g id="text_15">
     <!-- Sublinear, $\alpha = -0.5$ -->
     <defs>
      <path d="M 53.515625 70.515625 
L 53.515625 60.890625 
Q 47.90625 63.578125 42.921875 64.890625 
Q 37.9375 66.21875 33.296875 66.21875 
Q 25.25 66.21875 20.875 63.09375 
Q 16.5 59.96875 16.5 54.203125 
Q 16.5 49.359375 19.40625 46.890625 
Q 22.3125 44.4375 30.421875 42.921875 
L 36.375 41.703125 
Q 47.40625 39.59375 52.65625 34.296875 
Q 57.90625 29 57.90625 20.125 
Q 57.90625 9.515625 50.796875 4.046875 
Q 43.703125 -1.421875 29.984375 -1.421875 
Q 24.8125 -1.421875 18.96875 -0.25 
Q 13.140625 0.921875 6.890625 3.21875 
L 6.890625 13.375 
Q 12.890625 10.015625 18.65625 8.296875 
Q 24.421875 6.59375 29.984375 6.59375 
Q 38.421875 6.59375 43.015625 9.90625 
Q 47.609375 13.234375 47.609375 19.390625 
Q 47.609375 24.75 44.3125 27.78125 
Q 41.015625 30.8125 33.5 32.328125 
L 27.484375 33.5 
Q 16.453125 35.6875 11.515625 40.375 
Q 6.59375 45.0625 6.59375 53.421875 
Q 6.59375 63.09375 13.40625 68.65625 
Q 20.21875 74.21875 32.171875 74.21875 
Q 37.3125 74.21875 42.625 73.28125 
Q 47.953125 72.359375 53.515625 70.515625 
z
" id="DejaVuSans-83"/>
      <path d="M 9.421875 75.984375 
L 18.40625 75.984375 
L 18.40625 0 
L 9.421875 0 
z
" id="DejaVuSans-108"/>
      <path d="M 40.921875 25.4375 
L 40.96875 36.71875 
Q 41.015625 48.25 32.328125 48.296875 
Q 25.828125 48.34375 21.78125 42.921875 
Q 16.703125 36.234375 14.984375 27.296875 
Q 12.890625 16.546875 15.53125 11.421875 
Q 18.265625 6.203125 24.171875 6.203125 
Q 30.71875 6.203125 36.234375 16.609375 
z
M 33.84375 55.90625 
Q 49.078125 56.15625 48.875 40.375 
Q 48.875 40.375 56.5 54.6875 
L 64.5 54.6875 
L 48.734375 25.046875 
L 48.578125 14.359375 
Q 48.578125 11.96875 49.90625 9.96875 
Q 51.421875 7.625 52.984375 7.625 
L 57.328125 7.625 
L 55.859375 0 
L 50.4375 0 
Q 45.84375 0 42.53125 4.109375 
Q 40.96875 6.15625 40.921875 10.453125 
Q 37.75 5.21875 32.28125 0.78125 
Q 29.6875 -1.265625 22.703125 -1.21875 
Q 11.28125 -1.125 7.125 6.203125 
Q 2.875 13.8125 5.515625 27.296875 
Q 8.34375 41.796875 15.765625 48.390625 
Q 24.125 55.765625 33.84375 55.90625 
z
" id="DejaVuSans-Oblique-945"/>
      <path d="M 10.59375 45.40625 
L 73.1875 45.40625 
L 73.1875 37.203125 
L 10.59375 37.203125 
z
M 10.59375 25.484375 
L 73.1875 25.484375 
L 73.1875 17.1875 
L 10.59375 17.1875 
z
" id="DejaVuSans-61"/>
      <path d="M 10.6875 12.40625 
L 21 12.40625 
L 21 0 
L 10.6875 0 
z
" id="DejaVuSans-46"/>
     </defs>
     <g style="fill:#262626;" transform="translate(114.898652 106.002344)scale(0.11 -0.11)">
      <use transform="translate(0 0.015625)" xlink:href="#DejaVuSans-83"/>
      <use transform="translate(63.476562 0.015625)" xlink:href="#DejaVuSans-117"/>
      <use transform="translate(126.855469 0.015625)" xlink:href="#DejaVuSans-98"/>
      <use transform="translate(190.332031 0.015625)" xlink:href="#DejaVuSans-108"/>
      <use transform="translate(218.115234 0.015625)" xlink:href="#DejaVuSans-105"/>
      <use transform="translate(245.898438 0.015625)" xlink:href="#DejaVuSans-110"/>
      <use transform="translate(309.277344 0.015625)" xlink:href="#DejaVuSans-101"/>
      <use transform="translate(370.800781 0.015625)" xlink:href="#DejaVuSans-97"/>
      <use transform="translate(432.080078 0.015625)" xlink:href="#DejaVuSans-114"/>
      <use transform="translate(473.193359 0.015625)" xlink:href="#DejaVuSans-44"/>
      <use transform="translate(504.980469 0.015625)" xlink:href="#DejaVuSans-32"/>
      <use transform="translate(536.767578 0.015625)" xlink:href="#DejaVuSans-Oblique-945"/>
      <use transform="translate(622.167969 0.015625)" xlink:href="#DejaVuSans-61"/>
      <use transform="translate(744.921875 0.015625)" xlink:href="#DejaVuSans-8722"/>
      <use transform="translate(848.193359 0.015625)" xlink:href="#DejaVuSans-48"/>
      <use transform="translate(911.816406 0.015625)" xlink:href="#DejaVuSans-46"/>
      <use transform="translate(943.603516 0.015625)" xlink:href="#DejaVuSans-53"/>
     </g>
    </g>
    <g id="line2d_19">
     <path d="M 84.098652 118.3 
L 106.098652 118.3 
" style="fill:none;stroke:#dd8452;stroke-linecap:round;stroke-width:1.5;"/>
    </g>
    <g id="line2d_20"/>
    <g id="text_16">
     <!-- Superlinear, $q = 0.5$ -->
     <defs>
      <path d="M 41.703125 8.203125 
Q 38.09375 3.46875 33.171875 1.015625 
Q 28.265625 -1.421875 22.3125 -1.421875 
Q 14.015625 -1.421875 9.296875 4.171875 
Q 4.59375 9.765625 4.59375 19.578125 
Q 4.59375 27.484375 7.5 34.859375 
Q 10.40625 42.234375 15.828125 48.09375 
Q 19.34375 51.90625 23.90625 53.953125 
Q 28.46875 56 33.5 56 
Q 39.546875 56 43.453125 53.609375 
Q 47.359375 51.21875 49.125 46.390625 
L 50.6875 54.59375 
L 59.71875 54.59375 
L 45.125 -20.609375 
L 36.078125 -20.609375 
z
M 13.921875 20.90625 
Q 13.921875 13.671875 16.9375 9.890625 
Q 19.96875 6.109375 25.6875 6.109375 
Q 34.1875 6.109375 40.1875 14.234375 
Q 46.1875 22.359375 46.1875 33.984375 
Q 46.1875 41.015625 43.078125 44.75 
Q 39.984375 48.484375 34.1875 48.484375 
Q 29.9375 48.484375 26.3125 46.5 
Q 22.703125 44.53125 20.015625 40.71875 
Q 17.1875 36.71875 15.546875 31.34375 
Q 13.921875 25.984375 13.921875 20.90625 
z
" id="DejaVuSans-Oblique-113"/>
     </defs>
     <g style="fill:#262626;" transform="translate(114.898652 122.15)scale(0.11 -0.11)">
      <use transform="translate(0 0.015625)" xlink:href="#DejaVuSans-83"/>
      <use transform="translate(63.476562 0.015625)" xlink:href="#DejaVuSans-117"/>
      <use transform="translate(126.855469 0.015625)" xlink:href="#DejaVuSans-112"/>
      <use transform="translate(190.332031 0.015625)" xlink:href="#DejaVuSans-101"/>
      <use transform="translate(251.855469 0.015625)" xlink:href="#DejaVuSans-114"/>
      <use transform="translate(292.96875 0.015625)" xlink:href="#DejaVuSans-108"/>
      <use transform="translate(320.751953 0.015625)" xlink:href="#DejaVuSans-105"/>
      <use transform="translate(348.535156 0.015625)" xlink:href="#DejaVuSans-110"/>
      <use transform="translate(411.914062 0.015625)" xlink:href="#DejaVuSans-101"/>
      <use transform="translate(473.4375 0.015625)" xlink:href="#DejaVuSans-97"/>
      <use transform="translate(534.716797 0.015625)" xlink:href="#DejaVuSans-114"/>
      <use transform="translate(575.830078 0.015625)" xlink:href="#DejaVuSans-44"/>
      <use transform="translate(607.617188 0.015625)" xlink:href="#DejaVuSans-32"/>
      <use transform="translate(639.404297 0.015625)" xlink:href="#DejaVuSans-Oblique-113"/>
      <use transform="translate(722.363281 0.015625)" xlink:href="#DejaVuSans-61"/>
      <use transform="translate(825.634766 0.015625)" xlink:href="#DejaVuSans-48"/>
      <use transform="translate(889.257812 0.015625)" xlink:href="#DejaVuSans-46"/>
      <use transform="translate(921.044922 0.015625)" xlink:href="#DejaVuSans-53"/>
     </g>
    </g>
    <g id="line2d_21">
     <path d="M 84.098652 134.47 
L 106.098652 134.47 
" style="fill:none;stroke:#55a868;stroke-linecap:round;stroke-width:1.5;"/>
    </g>
    <g id="line2d_22"/>
    <g id="text_17">
     <!-- Linear, $q = 0.5$ -->
     <defs>
      <path d="M 9.8125 72.90625 
L 19.671875 72.90625 
L 19.671875 8.296875 
L 55.171875 8.296875 
L 55.171875 0 
L 9.8125 0 
z
" id="DejaVuSans-76"/>
     </defs>
     <g style="fill:#262626;" transform="translate(114.898652 138.32)scale(0.11 -0.11)">
      <use transform="translate(0 0.015625)" xlink:href="#DejaVuSans-76"/>
      <use transform="translate(55.712891 0.015625)" xlink:href="#DejaVuSans-105"/>
      <use transform="translate(83.496094 0.015625)" xlink:href="#DejaVuSans-110"/>
      <use transform="translate(146.875 0.015625)" xlink:href="#DejaVuSans-101"/>
      <use transform="translate(208.398438 0.015625)" xlink:href="#DejaVuSans-97"/>
      <use transform="translate(269.677734 0.015625)" xlink:href="#DejaVuSans-114"/>
      <use transform="translate(310.791016 0.015625)" xlink:href="#DejaVuSans-44"/>
      <use transform="translate(342.578125 0.015625)" xlink:href="#DejaVuSans-32"/>
      <use transform="translate(374.365234 0.015625)" xlink:href="#DejaVuSans-Oblique-113"/>
      <use transform="translate(457.324219 0.015625)" xlink:href="#DejaVuSans-61"/>
      <use transform="translate(560.595703 0.015625)" xlink:href="#DejaVuSans-48"/>
      <use transform="translate(624.21875 0.015625)" xlink:href="#DejaVuSans-46"/>
      <use transform="translate(656.005859 0.015625)" xlink:href="#DejaVuSans-53"/>
     </g>
    </g>
    <g id="line2d_23">
     <path d="M 84.098652 150.64 
L 106.098652 150.64 
" style="fill:none;stroke:#c44e52;stroke-linecap:round;stroke-width:1.5;"/>
    </g>
    <g id="line2d_24"/>
    <g id="text_18">
     <!-- Quadratic, $q = 0.5$ -->
     <defs>
      <path d="M 39.40625 66.21875 
Q 28.65625 66.21875 22.328125 58.203125 
Q 16.015625 50.203125 16.015625 36.375 
Q 16.015625 22.609375 22.328125 14.59375 
Q 28.65625 6.59375 39.40625 6.59375 
Q 50.140625 6.59375 56.421875 14.59375 
Q 62.703125 22.609375 62.703125 36.375 
Q 62.703125 50.203125 56.421875 58.203125 
Q 50.140625 66.21875 39.40625 66.21875 
z
M 53.21875 1.3125 
L 66.21875 -12.890625 
L 54.296875 -12.890625 
L 43.5 -1.21875 
Q 41.890625 -1.3125 41.03125 -1.359375 
Q 40.1875 -1.421875 39.40625 -1.421875 
Q 24.03125 -1.421875 14.8125 8.859375 
Q 5.609375 19.140625 5.609375 36.375 
Q 5.609375 53.65625 14.8125 63.9375 
Q 24.03125 74.21875 39.40625 74.21875 
Q 54.734375 74.21875 63.90625 63.9375 
Q 73.09375 53.65625 73.09375 36.375 
Q 73.09375 23.6875 67.984375 14.640625 
Q 62.890625 5.609375 53.21875 1.3125 
z
" id="DejaVuSans-81"/>
      <path d="M 48.78125 52.59375 
L 48.78125 44.1875 
Q 44.96875 46.296875 41.140625 47.34375 
Q 37.3125 48.390625 33.40625 48.390625 
Q 24.65625 48.390625 19.8125 42.84375 
Q 14.984375 37.3125 14.984375 27.296875 
Q 14.984375 17.28125 19.8125 11.734375 
Q 24.65625 6.203125 33.40625 6.203125 
Q 37.3125 6.203125 41.140625 7.25 
Q 44.96875 8.296875 48.78125 10.40625 
L 48.78125 2.09375 
Q 45.015625 0.34375 40.984375 -0.53125 
Q 36.96875 -1.421875 32.421875 -1.421875 
Q 20.0625 -1.421875 12.78125 6.34375 
Q 5.515625 14.109375 5.515625 27.296875 
Q 5.515625 40.671875 12.859375 48.328125 
Q 20.21875 56 33.015625 56 
Q 37.15625 56 41.109375 55.140625 
Q 45.0625 54.296875 48.78125 52.59375 
z
" id="DejaVuSans-99"/>
     </defs>
     <g style="fill:#262626;" transform="translate(114.898652 154.49)scale(0.11 -0.11)">
      <use transform="translate(0 0.015625)" xlink:href="#DejaVuSans-81"/>
      <use transform="translate(78.710938 0.015625)" xlink:href="#DejaVuSans-117"/>
      <use transform="translate(142.089844 0.015625)" xlink:href="#DejaVuSans-97"/>
      <use transform="translate(203.369141 0.015625)" xlink:href="#DejaVuSans-100"/>
      <use transform="translate(266.845703 0.015625)" xlink:href="#DejaVuSans-114"/>
      <use transform="translate(307.958984 0.015625)" xlink:href="#DejaVuSans-97"/>
      <use transform="translate(369.238281 0.015625)" xlink:href="#DejaVuSans-116"/>
      <use transform="translate(408.447266 0.015625)" xlink:href="#DejaVuSans-105"/>
      <use transform="translate(436.230469 0.015625)" xlink:href="#DejaVuSans-99"/>
      <use transform="translate(491.210938 0.015625)" xlink:href="#DejaVuSans-44"/>
      <use transform="translate(522.998047 0.015625)" xlink:href="#DejaVuSans-32"/>
      <use transform="translate(554.785156 0.015625)" xlink:href="#DejaVuSans-Oblique-113"/>
      <use transform="translate(637.744141 0.015625)" xlink:href="#DejaVuSans-61"/>
      <use transform="translate(741.015625 0.015625)" xlink:href="#DejaVuSans-48"/>
      <use transform="translate(804.638672 0.015625)" xlink:href="#DejaVuSans-46"/>
      <use transform="translate(836.425781 0.015625)" xlink:href="#DejaVuSans-53"/>
     </g>
    </g>
   </g>
  </g>
 </g>
 <defs>
  <clipPath id="p2f45949793">
   <rect height="155.9" width="275.001348" x="74.198652" y="10.8"/>
  </clipPath>
 </defs>
</svg>
