<svg width="1330" height="780" xmlns="http://www.w3.org/2000/svg" xmlns:xlink="http://www.w3.org/1999/xlink" overflow="hidden"><defs><clipPath id="clip0"><path d="M-45-12 1285-12 1285 768-45 768Z" fill-rule="evenodd" clip-rule="evenodd"/></clipPath></defs><g clip-path="url(#clip0)" transform="translate(45 12)"><path d="M389 430 1054.14 430.024" stroke="#F8CBAD" stroke-width="4" stroke-miterlimit="8" fill="none" fill-rule="evenodd"/><path d="M218 276 1073.57 276.024" stroke="#F8CBAD" stroke-width="4" stroke-miterlimit="8" fill="none" fill-rule="evenodd"/><path d="M404 121 974.798 121.002" stroke="#F8CBAD" stroke-width="4" stroke-miterlimit="8" fill="none" fill-rule="evenodd"/><path d="M559 574 666.143 574.097" stroke="#F8CBAD" stroke-width="4" stroke-miterlimit="8" fill="none" fill-rule="evenodd"/><path d="M293 347 1084.52 358.123" stroke="#F8CBAD" stroke-width="4" stroke-miterlimit="8" fill="none" fill-rule="evenodd"/><path d="M206 192 1066.57 193.607" stroke="#F8CBAD" stroke-width="4" stroke-miterlimit="8" fill="none" fill-rule="evenodd"/><path d="M612 47 767.227 49.1814" stroke="#F8CBAD" stroke-width="4" stroke-miterlimit="8" fill="none" fill-rule="evenodd"/><path d="M472 502 858.438 502.097" stroke="#F8CBAD" stroke-width="4" stroke-miterlimit="8" fill="none" fill-rule="evenodd"/><path d="M652.362 657.475 68 151" stroke="#41719C" stroke-width="8" stroke-miterlimit="8" fill="none" fill-rule="evenodd"/><path d="M2.27961-1.95022 114.274 128.96 109.715 132.86-2.27961 1.95022ZM116.883 122.78 121.745 142.308 103.205 134.481Z" fill="#41719C" transform="matrix(1 0 0 -1 381 425.308)"/><text font-family="CMU Classical Serif,CMU Classical Serif_MSFontService,sans-serif" font-style="italic" font-weight="500" font-size="80" transform="translate(512.369 337)">a<tspan font-size="53" x="40.8333" y="19">1</tspan><tspan x="355.955" y="-16">a</tspan><tspan font-size="53" x="396.788" y="3">2</tspan></text><path d="M0 0 675.143 246.321" stroke="#41719C" stroke-width="8" stroke-miterlimit="8" fill="none" fill-rule="evenodd" transform="matrix(1 0 0 -1 472 646.321)"/><path d="M922.638 481.976 849.315 315.933 854.804 313.51 928.127 479.552ZM845.038 321.102 846 301 861.504 313.83Z" fill="#41719C"/><path d="M0 0 670.865 244.46" stroke="#41719C" stroke-width="8" stroke-miterlimit="8" fill="none" fill-rule="evenodd" transform="matrix(-1 -8.74228e-08 -8.74228e-08 1 735.865 0)"/><path d="M620-1 1134.35 174.271" stroke="#41719C" stroke-width="8" stroke-miterlimit="8" fill="none" fill-rule="evenodd"/><path d="M1052 50 1112.34 647.738" stroke="#41719C" stroke-width="8" stroke-miterlimit="8" fill="none" fill-rule="evenodd"/><path d="M444.774 107.858 482.206 198.777 476.658 201.062 439.226 110.142ZM486.612 193.719 485.142 213.79 469.967 200.572Z" fill="#41719C"/><path d="M2.80064-1.07536 43.1528 104.017 37.5515 106.168-2.80064 1.07536ZM47.6787 99.0655 45.7289 119.095 30.8748 105.518Z" fill="#41719C" transform="matrix(-1 -8.74228e-08 -8.74228e-08 1 838.729 77)"/><path d="M0.123007-2.99748 85.3618 0.500454 85.1158 6.49541-0.123007 2.99748ZM82.6103-5.61751 100.226 4.11297 81.8723 12.3674Z" fill="#41719C" transform="matrix(-1 -8.74228e-08 -8.74228e-08 1 1073.23 244)"/><text font-family="CMU Classical Serif,CMU Classical Serif_MSFontService,sans-serif" font-style="italic" font-weight="500" font-size="80" transform="translate(494.638 154)">a<tspan font-size="53" x="40.8333" y="19">3</tspan><tspan x="234.335" y="-20">a</tspan><tspan font-size="53" x="275.168" y="-1">4</tspan><tspan x="455.579" y="52">a</tspan><tspan font-size="53" x="496.412" y="71">5</tspan></text><path d="M2-3.13827e-07 2.0001 665.116-1.9999 665.116-2 3.13827e-07ZM8.72766 654.123 0.000104776 669.084-8.72746 654.123C-9.28402 653.169-8.96174 651.944-8.00764 651.388-7.05354 650.831-5.8289 651.153-5.27234 652.107L1.72766 664.107-1.72745 664.107 5.27254 652.107C5.8291 651.153 7.05374 650.831 8.00784 651.388 8.96195 651.944 9.28422 653.169 8.72766 654.123Z" transform="matrix(1 0 0 -1 92 688.075)"/><path d="M1.67224e-07-2 1251.68-1.9999 1251.68 2.0001-1.67224e-07 2ZM1240.69-8.72745 1255.65 0.000105067 1240.69 8.72766C1239.74 9.28422 1238.51 8.96195 1237.96 8.00784 1237.4 7.05374 1237.72 5.82911 1238.68 5.27254L1250.68-1.72745 1250.68 1.72766 1238.68-5.27234C1237.72-5.8289 1237.4-7.05353 1237.96-8.00764 1238.51-8.96174 1239.74-9.28401 1240.69-8.72745Z" transform="matrix(1 0 0 -1 7 627)"/><text font-family="CMU Classical Serif,CMU Classical Serif_MSFontService,sans-serif" font-style="italic" font-weight="500" font-size="80" transform="translate(1187.8 691)">x<tspan font-size="53" x="37" y="19">1</tspan><tspan x="-1184.37" y="-610">x</tspan><tspan font-size="53" x="-1147.37" y="-591">2</tspan></text><path d="M2.99864-0.0902393 6.33726 110.852 0.339978 111.032-2.99864 0.0902393ZM12.2443 107.673 3.78982 125.935-5.74755 108.214Z" fill="#C55A11" transform="matrix(-1 -8.74228e-08 -8.74228e-08 1 675.79 351)"/><text font-family="CMU Classical Serif,CMU Classical Serif_MSFontService,sans-serif" font-style="italic" font-weight="500" font-size="80" transform="translate(686.67 413)">c</text><path d="M132.5 215C132.5 206.44 139.44 199.5 148 199.5 156.56 199.5 163.5 206.44 163.5 215 163.5 223.56 156.56 230.5 148 230.5 139.44 230.5 132.5 223.56 132.5 215Z" stroke="#41719C" stroke-width="1.33333" stroke-miterlimit="8" fill="#FF0000" fill-rule="evenodd"/><path d="M573.5 603C573.5 594.44 580.44 587.5 589 587.5 597.56 587.5 604.5 594.44 604.5 603 604.5 611.56 597.56 618.5 589 618.5 580.44 618.5 573.5 611.56 573.5 603Z" stroke="#41719C" stroke-width="1.33333" stroke-miterlimit="8" fill="#FF0000" fill-rule="evenodd"/><path d="M667.5 23.0001C667.5 14.4396 674.664 7.50005 683.5 7.50005 692.337 7.50005 699.5 14.4396 699.5 23.0001 699.5 31.5605 692.337 38.5001 683.5 38.5001 674.664 38.5001 667.5 31.5605 667.5 23.0001Z" stroke="#41719C" stroke-width="1.33333" stroke-miterlimit="8" fill="#FF0000" fill-rule="evenodd"/><path d="M1073.5 421C1073.5 412.44 1080.44 405.5 1089 405.5 1097.56 405.5 1104.5 412.44 1104.5 421 1104.5 429.56 1097.56 436.5 1089 436.5 1080.44 436.5 1073.5 429.56 1073.5 421Z" stroke="#41719C" stroke-width="1.33333" stroke-miterlimit="8" fill="#FF0000" fill-rule="evenodd"/><path d="M1048.5 151.5C1048.5 143.216 1055.44 136.5 1064 136.5 1072.56 136.5 1079.5 143.216 1079.5 151.5 1079.5 159.784 1072.56 166.5 1064 166.5 1055.44 166.5 1048.5 159.784 1048.5 151.5Z" stroke="#41719C" stroke-width="1.33333" stroke-miterlimit="8" fill="#FF0000" fill-rule="evenodd"/></g></svg>