<svg width="1494" height="950" xmlns="http://www.w3.org/2000/svg" xmlns:xlink="http://www.w3.org/1999/xlink" overflow="hidden"><defs><clipPath id="clip0"><path d="M-45-182 1449-182 1449 768-45 768Z" fill-rule="evenodd" clip-rule="evenodd"/></clipPath></defs><g clip-path="url(#clip0)" transform="translate(45 182)"><path d="M389 430 1054.14 430.024" stroke="#F8CBAD" stroke-width="4" stroke-miterlimit="8" fill="none" fill-rule="evenodd"/><path d="M218 276 1073.57 276.024" stroke="#F8CBAD" stroke-width="4" stroke-miterlimit="8" fill="none" fill-rule="evenodd"/><path d="M404 121 974.798 121.002" stroke="#F8CBAD" stroke-width="4" stroke-miterlimit="8" fill="none" fill-rule="evenodd"/><path d="M559 574 666.143 574.097" stroke="#F8CBAD" stroke-width="4" stroke-miterlimit="8" fill="none" fill-rule="evenodd"/><path d="M293 347 1084.52 358.123" stroke="#F8CBAD" stroke-width="4" stroke-miterlimit="8" fill="none" fill-rule="evenodd"/><path d="M206 192 1066.57 193.607" stroke="#F8CBAD" stroke-width="4" stroke-miterlimit="8" fill="none" fill-rule="evenodd"/><path d="M612 47 767.227 49.1814" stroke="#F8CBAD" stroke-width="4" stroke-miterlimit="8" fill="none" fill-rule="evenodd"/><path d="M472 502 858.438 502.097" stroke="#F8CBAD" stroke-width="4" stroke-miterlimit="8" fill="none" fill-rule="evenodd"/><path d="M657.629 662.041 68 151" stroke="#000000" stroke-width="8" stroke-miterlimit="8" fill="none" fill-rule="evenodd"/><path d="M2.27961-1.95022 68.6349 75.6124 64.0757 79.5128-2.27961 1.95022ZM71.2439 69.4323 76.1065 88.9606 57.5663 81.1336Z" fill="#41719C" transform="matrix(-1 -8.74228e-08 -8.74228e-08 1 381.106 426)"/><text font-family="CMU Classical Serif,CMU Classical Serif_MSFontService,sans-serif" font-style="italic" font-weight="500" font-size="80" transform="translate(339.46 551)">a<tspan font-size="53" x="40.8333" y="19">1</tspan><tspan x="502.193" y="21">a</tspan><tspan font-size="53" x="543.026" y="40">2</tspan></text><path d="M0 0 675.143 246.321" stroke="#41719C" stroke-width="8" stroke-miterlimit="8" fill="none" fill-rule="evenodd" transform="matrix(1 0 0 -1 472 646.321)"/><path d="M928.744 479.788 950.505 529.066 945.017 531.49 923.256 482.212ZM954.782 523.898 953.82 544 938.316 531.17Z" fill="#41719C"/><path d="M0 0 1003.98 365.844" stroke="#000000" stroke-width="8" stroke-miterlimit="8" fill="none" fill-rule="evenodd" transform="matrix(-1 -8.74228e-08 -8.74228e-08 1 1068.98 -121)"/><path d="M620-1 1134.35 174.271" stroke="#41719C" stroke-width="8" stroke-miterlimit="8" fill="none" fill-rule="evenodd"/><path d="M1028-181 1111.68 647.976" stroke="#41719C" stroke-width="8" stroke-miterlimit="8" fill="none" fill-rule="evenodd"/><path d="M439.405 110.448 407.936 34.0126 413.485 31.7284 444.953 108.163ZM403.53 39.0709 405 19 420.175 32.2183Z" fill="#41719C"/><path d="M2.80064-1.07536 19.57 42.5983 13.9687 44.749-2.80064 1.07536ZM24.0959 37.6469 22.1461 57.6768 7.29205 44.0991Z" fill="#41719C" transform="matrix(1 0 0 -1 839 76.6768)"/><path d="M0.123008-2.99748 73.398 0.00952756 73.152 6.00448-0.123008 2.99748ZM70.6466-6.10843 88.2625 3.62205 69.9086 11.8764Z" fill="#41719C" transform="matrix(1 0 0 -1 1074 243.622)"/><text font-family="CMU Classical Serif,CMU Classical Serif_MSFontService,sans-serif" font-style="italic" font-weight="500" font-size="80" transform="translate(297.367 80)">a<tspan font-size="53" x="40.8333" y="19">3</tspan><tspan x="582.248" y="-24">a</tspan><tspan font-size="53" x="623.081" y="-5">4</tspan><tspan x="803.681" y="241">a</tspan><tspan font-size="53" x="844.515" y="260">5</tspan></text><path d="M2-3.13827e-07 2.0001 665.116-1.9999 665.116-2 3.13827e-07ZM8.72766 654.123 0.000104776 669.084-8.72746 654.123C-9.28402 653.169-8.96174 651.944-8.00764 651.388-7.05354 650.831-5.8289 651.153-5.27234 652.107L1.72766 664.107-1.72745 664.107 5.27254 652.107C5.8291 651.153 7.05374 650.831 8.00784 651.388 8.96195 651.944 9.28422 653.169 8.72766 654.123Z" transform="matrix(1 0 0 -1 92 688.075)"/><path d="M1.67224e-07-2 1251.68-1.9999 1251.68 2.0001-1.67224e-07 2ZM1240.69-8.72745 1255.65 0.000105067 1240.69 8.72766C1239.74 9.28422 1238.51 8.96195 1237.96 8.00784 1237.4 7.05374 1237.72 5.82911 1238.68 5.27254L1250.68-1.72745 1250.68 1.72766 1238.68-5.27234C1237.72-5.8289 1237.4-7.05353 1237.96-8.00764 1238.51-8.96174 1239.74-9.28401 1240.69-8.72745Z" transform="matrix(1 0 0 -1 7 627)"/><text font-family="CMU Classical Serif,CMU Classical Serif_MSFontService,sans-serif" font-style="italic" font-weight="500" font-size="80" transform="translate(1187.8 691)">x<tspan font-size="53" x="37" y="19">1</tspan><tspan x="-1184.37" y="-610">x</tspan><tspan font-size="53" x="-1147.37" y="-591">2</tspan></text><path d="M2.99864-0.0902393 6.33726 110.852 0.339978 111.032-2.99864 0.0902393ZM12.2443 107.673 3.78982 125.935-5.74755 108.214Z" fill="#C55A11" transform="matrix(-1 -8.74228e-08 -8.74228e-08 1 675.79 351)"/><text font-family="CMU Classical Serif,CMU Classical Serif_MSFontService,sans-serif" font-style="italic" font-weight="500" font-size="80" transform="translate(686.67 413)">c</text><path d="M132.5 215C132.5 206.44 139.44 199.5 148 199.5 156.56 199.5 163.5 206.44 163.5 215 163.5 223.56 156.56 230.5 148 230.5 139.44 230.5 132.5 223.56 132.5 215Z" stroke="#41719C" stroke-width="1.33333" stroke-miterlimit="8" fill="#FF0000" fill-rule="evenodd"/><path d="M573.5 603C573.5 594.44 580.44 587.5 589 587.5 597.56 587.5 604.5 594.44 604.5 603 604.5 611.56 597.56 618.5 589 618.5 580.44 618.5 573.5 611.56 573.5 603Z" stroke="#41719C" stroke-width="1.33333" stroke-miterlimit="8" fill="#FF0000" fill-rule="evenodd"/><path d="M667.5 23.0001C667.5 14.4396 674.664 7.50005 683.5 7.50005 692.337 7.50005 699.5 14.4396 699.5 23.0001 699.5 31.5605 692.337 38.5001 683.5 38.5001 674.664 38.5001 667.5 31.5605 667.5 23.0001Z" stroke="#41719C" stroke-width="1.33333" stroke-miterlimit="8" fill="#FF0000" fill-rule="evenodd"/><path d="M1073.5 421C1073.5 412.44 1080.44 405.5 1089 405.5 1097.56 405.5 1104.5 412.44 1104.5 421 1104.5 429.56 1097.56 436.5 1089 436.5 1080.44 436.5 1073.5 429.56 1073.5 421Z" stroke="#41719C" stroke-width="1.33333" stroke-miterlimit="8" fill="#FF0000" fill-rule="evenodd"/><path d="M1048.5 151.5C1048.5 143.216 1055.44 136.5 1064 136.5 1072.56 136.5 1079.5 143.216 1079.5 151.5 1079.5 159.784 1072.56 166.5 1064 166.5 1055.44 166.5 1048.5 159.784 1048.5 151.5Z" stroke="#41719C" stroke-width="1.33333" stroke-miterlimit="8" fill="#FF0000" fill-rule="evenodd"/><text font-family="Palatino Linotype,Palatino Linotype_MSFontService,sans-serif" font-weight="400" font-size="37" transform="translate(106.597 366)">B = [1, 3] <tspan x="0" y="45">feasible basis</tspan><tspan x="1012.28" y="-382">B = [3, 5] </tspan><tspan x="1012.28" y="-337">unfeasible basis</tspan></text><path d="M1023.5-111C1023.5-119.56 1030.44-126.5 1039-126.5 1047.56-126.5 1054.5-119.56 1054.5-111 1054.5-102.44 1047.56-95.5001 1039-95.5001 1030.44-95.5001 1023.5-102.44 1023.5-111Z" stroke="#41719C" stroke-width="1.33333" stroke-miterlimit="8" fill="#FF0000" fill-rule="evenodd"/><path d="M149.962 313.66 147.477 260.175 148.143 260.144 150.628 313.629ZM143.876 261.677 147.5 253.5 151.867 261.306Z"/><path d="M1134.48-67.8535 1085.55-87.6867 1085.8-88.3045 1134.73-68.4713ZM1085.41-83.7877 1079.5-90.5001 1088.42-91.2017Z"/></g></svg>