<svg width="1229" height="662" xmlns="http://www.w3.org/2000/svg" xmlns:xlink="http://www.w3.org/1999/xlink" overflow="hidden"><defs><clipPath id="clip0"><path d="M60 62 1289 62 1289 724 60 724Z" fill-rule="evenodd" clip-rule="evenodd"/></clipPath><clipPath id="clip1"><path d="M61 138 267 138 267 344 61 344Z" fill-rule="evenodd" clip-rule="evenodd"/></clipPath><clipPath id="clip2"><path d="M61 138 267 138 267 344 61 344Z" fill-rule="evenodd" clip-rule="evenodd"/></clipPath><clipPath id="clip3"><path d="M61 138 267 138 267 344 61 344Z" fill-rule="evenodd" clip-rule="evenodd"/></clipPath><clipPath id="clip4"><path d="M61 137 267 137 267 344 61 344Z" fill-rule="evenodd" clip-rule="evenodd"/></clipPath><clipPath id="clip5"><path d="M797 164 1203 164 1203 570 797 570Z" fill-rule="evenodd" clip-rule="evenodd"/></clipPath><clipPath id="clip6"><path d="M797 164 1203 164 1203 571 797 571Z" fill-rule="evenodd" clip-rule="evenodd"/></clipPath><clipPath id="clip7"><path d="M797 164 1203 164 1203 571 797 571Z" fill-rule="evenodd" clip-rule="evenodd"/></clipPath></defs><g clip-path="url(#clip0)" transform="translate(-60 -62)"><text font-family="CMU Classical Serif,CMU Classical Serif_MSFontService,sans-serif" font-style="italic" font-weight="500" font-size="64" transform="translate(325.932 486)">f(<tspan x="45.8333" y="0">x</tspan><tspan font-size="43" x="75.5" y="15">k</tspan><tspan x="95.1667" y="0">), f’(</tspan>x<tspan font-size="43" x="259" y="15">k</tspan><tspan x="278.667" y="0">), f’’(</tspan><tspan x="432.5" y="0">x</tspan><tspan font-size="43" x="462.167" y="15">k</tspan><tspan x="481.833" y="0">)</tspan></text><rect x="838.5" y="199.5" width="321" height="336" stroke="#000000" stroke-miterlimit="8"/><g clip-path="url(#clip1)"><g clip-path="url(#clip2)"><g clip-path="url(#clip3)"><g clip-path="url(#clip4)"><path d="M0 0C0-50.5673 40.994-91.5556 91.5556-91.5556 142.123-91.5556 183.111-50.5673 183.111 0 183.111 50.5616 142.123 91.5556 91.5556 91.5556 40.994 91.5556 0 50.5616 0 0" fill="#FFCC4D" transform="matrix(1 0 0 -1 72.4444 229.556)"/><path d="M0 0C0-7.90239-5.12711-14.3056-11.4444-14.3056-17.7618-14.3056-22.8889-7.90239-22.8889 0-22.8889 7.89667-17.7618 14.3056-11.4444 14.3056-5.12711 14.3056 0 7.89667 0 0" fill="#664500" transform="matrix(1 0 0 -1 149.158 198.083)"/><path d="M0 0C0-7.90239-5.12139-14.3056-11.4444-14.3056-17.7618-14.3056-22.8889-7.90239-22.8889 0-22.8889 7.89667-17.7618 14.3056-11.4444 14.3056-5.12139 14.3056 0 7.89667 0 0" fill="#664500" transform="matrix(1 0 0 -1 209.778 203.806)"/><path d="M0 0C-0.938444 0.497833-1.73383 1.27606-2.23739 2.27744-3.47339 4.73228-2.46628 7.58194 0.0114444 8.64628 24.4224 19.1179 44.0668 8.89233 44.8908 8.45172 47.3686 7.12989 48.3699 4.1715 47.1282 1.84828 45.8922-0.469222 42.8938-1.27606 40.4161 0.0286111 39.7122 0.394833 24.2107 8.22283 4.49194-0.240333 3.02133-0.864056 1.36189-0.726722 0 0" fill="#664500" transform="matrix(1 0 0 -1 116.339 174.239)"/><path d="M0 0C-0.778222 0.726722-1.35044 1.67661-1.57933 2.781-2.14583 5.46472-0.446333 7.96533 2.22594 8.35444 28.5024 12.2341 44.8679-2.68372 45.5603-3.31889 47.6203-5.23011 47.8206-8.33728 46.0296-10.2714 44.2442-12.1941 41.1371-12.2055 39.0828-10.3057 38.4877-9.77928 25.5097 1.75672 4.28022-1.37333 2.69517-1.60794 1.12728-1.05289 0 0" fill="#664500" transform="matrix(1 0 0 -1 145.361 249.997)"/><path d="M0 0C-0.892667 0.560778-1.63656 1.3905-2.07144 2.42622-3.1415 4.95544-1.93983 7.73644 0.600833 8.62911 25.6699 17.4184 44.5761 5.88244 45.3715 5.38461 47.7462 3.89683 48.5416 0.881222 47.1511-1.35617 45.7663-3.58783 42.7107-4.18867 40.3359-2.71806 39.6493-2.30033 24.7257 6.55767 4.47478-0.543611 2.96411-1.07006 1.31611-0.818278 0 0" fill="#664500" transform="matrix(1 0 0 -1 177.909 195.697)"/><path d="M0 0C0 0 7.23861 2.35183 8.17706 7.73644 9.167 13.2927 4.60639 14.4143 4.60639 14.4143 4.60639 14.4143 10.5632 15.6045 11.3128 22.2881 12.0167 28.5825 6.38028 30.0874 6.38028 30.0874 6.38028 30.0874 11.9308 32.3763 12.1941 38.8939 12.4115 44.3816 6.50044 47.0653 6.50044 47.0653 6.50044 47.0653 35.329 54.0464 38.2874 54.7331 41.2401 55.4254 45.8464 58.2579 44.4102 64.4322 42.9853 70.6122 37.5206 70.8297 34.6938 70.1716 31.8671 69.5078-3.89683 61.2049-16.2339 58.3323-17.5501 58.0291-23.7186 56.6042-24.4682 56.4211-27.5582 55.6944-28.9602 57.0563-26.7857 59.3509-23.8731 62.418-22.0191 65.8113-21.3668 71.4419-20.6858 77.3702-22.6943 84.6832-23.8445 87.5157-25.9846 92.7858-29.5953 96.9516-33.7668 98.3822-40.2787 100.614-44.9023 96.5453-42.5905 89.4498-39.1343 78.8351-41.3946 70.1373-47.3571 64.8843-61.3708 52.5414-67.8942 43.7407-63.551 24.9832-58.8187 4.52628-38.5048-8.64056-18.0479-3.90256-16.9664-3.66222 0 0 0 0" fill="#F4900C" transform="matrix(1 0 0 -1 159.859 339.032)"/></g></g></g></g><path d="M847.5 367.5C847.5 283 915.105 214.5 998.5 214.5 1081.9 214.5 1149.5 283 1149.5 367.5 1149.5 452 1081.9 520.5 998.5 520.5 915.105 520.5 847.5 452 847.5 367.5Z" stroke="#41719C" stroke-miterlimit="8" fill="#FFFFFF" fill-rule="evenodd"/><path d="M330 233 681 233 681 241 330 241ZM677 225 701 237 677 249Z" fill="#5B9BD5"/><g clip-path="url(#clip5)"><g clip-path="url(#clip6)"><g clip-path="url(#clip7)"><path d="M1000 206.292C911.243 206.292 839.292 278.243 839.292 367 839.292 455.757 911.243 527.708 1000 527.708 1088.76 527.708 1160.71 455.757 1160.71 367 1160.71 278.243 1088.76 206.292 1000 206.292ZM1083.86 435.597C1048.31 481.914 981.932 490.635 935.615 455.077 928.3 449.461 921.752 442.912 916.136 435.597 913.286 431.895 913.977 426.584 917.679 423.734 921.381 420.885 926.693 421.576 929.542 425.278 959.403 464.191 1015.16 471.529 1054.07 441.668 1060.22 436.944 1065.73 431.434 1070.46 425.278 1073.31 421.576 1078.62 420.885 1082.32 423.734 1086.02 426.584 1086.71 431.895 1083.86 435.597ZM1115.54 330.249 1112.33 332.659C1111.78 343.444 1110.42 359.303 1105.86 367.381 1099.68 378.123 1080.48 390.26 1061.2 390.26 1027.36 390.26 1011.12 364.42 1004.95 340.737 1004.15 338.262 1001.88 336.564 999.281 336.508 996.656 336.482 994.337 338.213 993.614 340.737 987.693 364.42 971.58 390.26 937.366 390.26 917.996 390.26 898.881 378.123 892.706 367.381 887.842 359.557 886.531 343.444 886.235 332.659L883.021 329.953C881.47 328.675 880.661 326.707 880.864 324.708L880.864 313.712C880.888 312.725 881.532 311.861 882.471 311.556 888.688 309.399 914.486 301.321 934.702 301.321 951.618 301.321 990.4 309.779 999.281 311.809 1008.16 309.906 1046.9 301.321 1063.86 301.321 1084.33 301.321 1110.17 309.399 1116.09 311.556 1116.89 311.809 1117.44 312.613 1117.7 313.966L1117.7 325.131C1117.79 327.075 1117 328.957 1115.54 330.249Z"/></g></g></g><path d="M1.20755e-06-4 327.768-3.9999 327.768 4.0001-1.20755e-06 4ZM323.768-11.9999 347.768 0.000104987 323.768 12.0001Z" fill="#5B9BD5" transform="matrix(-1 -8.74228e-08 -8.74228e-08 1 691.768 551)"/><text font-family="Segoe UI,Segoe UI_MSFontService,sans-serif" font-weight="400" font-size="96" transform="translate(826.133 184)">ORACLE<tspan x="-61.0467" y="459">Black </tspan>-<tspan x="249.12" y="459">box</tspan><tspan font-family="CMU Classical Serif,CMU Classical Serif_MSFontService,sans-serif" font-style="italic" font-weight="500" font-size="64" x="-335.635" y="14">x</tspan><tspan font-family="CMU Classical Serif,CMU Classical Serif_MSFontService,sans-serif" font-style="italic" font-weight="500" font-size="43" x="-305.968" y="29">k</tspan></text><path d="M61.5001 551C61.5001 494.391 107.615 448.5 164.5 448.5 221.385 448.5 267.5 494.391 267.5 551 267.5 607.609 221.385 653.5 164.5 653.5 107.615 653.5 61.5001 607.609 61.5001 551Z" fill="#FFCC4D" fill-rule="evenodd"/><path d="M120.773 520.345C120.773 514.448 125.576 509.668 131.502 509.668 137.428 509.668 142.231 514.448 142.231 520.345 142.231 526.242 137.428 531.022 131.502 531.022 125.576 531.022 120.773 526.242 120.773 520.345ZM186.769 520.345C186.769 514.448 191.573 509.668 197.498 509.668 203.424 509.668 208.227 514.448 208.227 520.345 208.227 526.242 203.424 531.022 197.498 531.022 191.573 531.022 186.769 526.242 186.769 520.345Z" stroke="#000000" stroke-miterlimit="8" fill="#CDA43E" fill-rule="evenodd"/><path d="M108.673 595.701C145.891 621.137 183.066 621.137 220.196 595.701" stroke="#000000" stroke-miterlimit="8" fill="none" fill-rule="evenodd"/><path d="M61.5001 551C61.5001 494.391 107.615 448.5 164.5 448.5 221.385 448.5 267.5 494.391 267.5 551 267.5 607.609 221.385 653.5 164.5 653.5 107.615 653.5 61.5001 607.609 61.5001 551Z" stroke="#000000" stroke-miterlimit="8" fill="none" fill-rule="evenodd"/></g></svg>