<svg width="1915" height="363" xmlns="http://www.w3.org/2000/svg" xmlns:xlink="http://www.w3.org/1999/xlink" overflow="hidden"><defs><clipPath id="clip0"><path d="M42 251 1957 251 1957 614 42 614Z" fill-rule="evenodd" clip-rule="evenodd"/></clipPath><clipPath id="clip1"><path d="M452 542 737 542 737 578 452 578Z" fill-rule="evenodd" clip-rule="evenodd"/></clipPath><clipPath id="clip2"><path d="M452 542 737 542 737 578 452 578Z" fill-rule="evenodd" clip-rule="evenodd"/></clipPath><clipPath id="clip3"><path d="M452 542 737 542 737 578 452 578Z" fill-rule="evenodd" clip-rule="evenodd"/></clipPath><clipPath id="clip4"><path d="M69 541 340 541 340 584 69 584Z" fill-rule="evenodd" clip-rule="evenodd"/></clipPath><clipPath id="clip5"><path d="M69 541 340 541 340 584 69 584Z" fill-rule="evenodd" clip-rule="evenodd"/></clipPath><clipPath id="clip6"><path d="M69 541 340 541 340 584 69 584Z" fill-rule="evenodd" clip-rule="evenodd"/></clipPath><clipPath id="clip7"><path d="M839 541 1131 541 1131 587 839 587Z" fill-rule="evenodd" clip-rule="evenodd"/></clipPath><clipPath id="clip8"><path d="M839 541 1131 541 1131 587 839 587Z" fill-rule="evenodd" clip-rule="evenodd"/></clipPath><clipPath id="clip9"><path d="M839 541 1131 541 1131 587 839 587Z" fill-rule="evenodd" clip-rule="evenodd"/></clipPath><clipPath id="clip10"><path d="M1227 532 1524 532 1524 589 1227 589Z" fill-rule="evenodd" clip-rule="evenodd"/></clipPath><clipPath id="clip11"><path d="M1227 532 1524 532 1524 589 1227 589Z" fill-rule="evenodd" clip-rule="evenodd"/></clipPath><clipPath id="clip12"><path d="M1227 532 1524 532 1524 589 1227 589Z" fill-rule="evenodd" clip-rule="evenodd"/></clipPath><clipPath id="clip13"><path d="M1569 458 1956 458 1956 563 1569 563Z" fill-rule="evenodd" clip-rule="evenodd"/></clipPath><clipPath id="clip14"><path d="M1569 458 1956 458 1956 563 1569 563Z" fill-rule="evenodd" clip-rule="evenodd"/></clipPath><clipPath id="clip15"><path d="M1569 458 1956 458 1956 563 1569 563Z" fill-rule="evenodd" clip-rule="evenodd"/></clipPath></defs><g clip-path="url(#clip0)" transform="translate(-42 -251)"><path d="M44.5 442.501C44.5 423.723 59.7226 408.5 78.5006 408.5L331.499 408.5C350.277 408.5 365.5 423.723 365.5 442.501L365.5 578.499C365.5 597.277 350.277 612.5 331.499 612.5L78.5006 612.5C59.7226 612.5 44.5 597.277 44.5 578.499Z" stroke="#7030A0" stroke-miterlimit="8" fill="#7030A0" fill-rule="evenodd" fill-opacity="0.219608"/><text font-family="Open Sans,Open Sans_MSFontService,sans-serif" font-weight="400" font-size="50" transform="translate(128.372 467)">Object</text><path d="M434.5 442.501C434.5 423.723 449.723 408.5 468.501 408.5L722.5 408.5C741.277 408.5 756.5 423.723 756.5 442.501L756.5 578.5C756.5 597.277 741.277 612.5 722.5 612.5L468.501 612.5C449.723 612.5 434.5 597.277 434.5 578.5Z" stroke="#7030A0" stroke-miterlimit="8" fill="#7030A0" fill-rule="evenodd" fill-opacity="0.219608"/><text font-family="Open Sans,Open Sans_MSFontService,sans-serif" font-weight="400" font-size="50" transform="translate(521.401 467)">Model</text><path d="M824.5 442.501C824.5 423.723 839.723 408.5 858.5 408.5L1112.5 408.5C1131.28 408.5 1146.5 423.723 1146.5 442.501L1146.5 578.5C1146.5 597.277 1131.28 612.5 1112.5 612.5L858.5 612.5C839.723 612.5 824.5 597.277 824.5 578.5Z" stroke="#7030A0" stroke-miterlimit="8" fill="#7030A0" fill-rule="evenodd" fill-opacity="0.219608"/><text font-family="Open Sans,Open Sans_MSFontService,sans-serif" font-weight="400" font-size="50" transform="translate(866.645 467)">Prediction</text><path d="M1215.5 442.501C1215.5 423.723 1230.72 408.5 1249.5 408.5L1503.5 408.5C1522.28 408.5 1537.5 423.723 1537.5 442.501L1537.5 578.5C1537.5 597.277 1522.28 612.5 1503.5 612.5L1249.5 612.5C1230.72 612.5 1215.5 597.277 1215.5 578.5Z" stroke="#7030A0" stroke-miterlimit="8" fill="#7030A0" fill-rule="evenodd" fill-opacity="0.219608"/><text font-family="Open Sans,Open Sans_MSFontService,sans-serif" font-weight="400" font-size="50" transform="translate(1323.61 467)">Loss</text><path d="M365.5 510 423.887 510 423.887 511 365.5 511ZM421.804 504.25 434.304 510.5 421.804 516.75Z" fill="#7030A0"/><path d="M756.5 510 814.887 510 814.887 511 756.5 511ZM812.804 504.25 825.304 510.5 812.804 516.75Z" fill="#7030A0"/><path d="M1146.5 510 1204.89 510 1204.89 511 1146.5 511ZM1202.8 504.25 1215.3 510.5 1202.8 516.75Z" fill="#7030A0"/><g clip-path="url(#clip1)"><g clip-path="url(#clip2)"><g clip-path="url(#clip3)"><path d="M30.4084-18.8021C31.2374-20.2612 32.0332-21.455 34.1224-21.6208 34.4208-21.6539 34.7524-21.6539 34.7524-22.284 34.7524-22.4166 34.6198-22.6488 34.3545-22.6488 33.5586-22.6488 32.6301-22.5493 31.8011-22.5493 30.6737-22.5493 29.4467-22.6488 28.3524-22.6488 28.1534-22.6488 27.7223-22.6488 27.7223-22.0187 27.7223-21.6539 28.0208-21.6208 28.2198-21.6208 29.0156-21.5876 30.1762-21.3223 30.1762-20.3275 30.1762-19.9627 30.0104-19.6975 29.7452-19.2332L20.7918-3.61452 19.5648-20.0622C19.5317-20.7254 19.4653-21.5876 21.8861-21.6208 22.4498-21.6208 22.7814-21.6208 22.7814-22.284 22.7814-22.6156 22.4166-22.6488 22.284-22.6488 20.9576-22.6488 19.5648-22.5493 18.2384-22.5493 17.4757-22.5493 15.5192-22.6488 14.7565-22.6488 14.5575-22.6488 14.1265-22.6488 14.1265-21.9855 14.1265-21.6208 14.4581-21.6208 14.9223-21.6208 16.3814-21.6208 16.6135-21.4218 16.6798-20.7918L16.8788-18.2384 8.48914-3.61452 7.22903-20.427C7.22903-20.8249 7.22903-21.5876 9.74925-21.6208 10.0809-21.6208 10.4456-21.6208 10.4456-22.284 10.4456-22.6488 10.0477-22.6488 9.98137-22.6488 8.65494-22.6488 7.26219-22.5493 5.90261-22.5493 4.74198-22.5493 3.54819-22.6488 2.42073-22.6488 2.25493-22.6488 1.82384-22.6488 1.82384-22.0187 1.82384-21.6208 2.12229-21.6208 2.65286-21.6208 4.31089-21.6208 4.34405-21.3223 4.41037-20.3938L5.90261-0.132644C5.93577 0.46425 5.96893 0.729535 6.43318 0.729535 6.83111 0.729535 6.93059 0.53057 7.22903 0.0331619L16.9783-16.8788 18.2052-0.132644C18.2715 0.563732 18.3379 0.729535 18.7358 0.729535 19.1669 0.729535 19.3659 0.39793 19.5317 0.0994824L30.4084-18.8021Z" transform="matrix(1 0 -0 1.0015 456.231 571.59)"/><path d="M18.1721-7.62696C18.7358-7.62696 19.3327-7.62696 19.3327-8.29018 19.3327-8.95339 18.7358-8.95339 18.1721-8.95339L4.11193-8.95339C4.50986-13.3969 8.32334-16.5804 12.999-16.5804L18.1721-16.5804C18.7358-16.5804 19.3327-16.5804 19.3327-17.2436 19.3327-17.9068 18.7358-17.9068 18.1721-17.9068L12.9327-17.9068C7.26219-17.9068 2.75234-13.5959 2.75234-8.29018 2.75234-2.98446 7.26219 1.32643 12.9327 1.32643L18.1721 1.32643C18.7358 1.32643 19.3327 1.32643 19.3327 0.663215 19.3327 0 18.7358 0 18.1721 0L12.999 0C8.32334 0 4.50986-3.18343 4.11193-7.62696L18.1721-7.62696Z" transform="matrix(1 0 -0 1.0015 501.366 571.59)"/><path d="M8.88707-10.4125 10.0809-10.4125 15.055-2.71918C15.3866-2.18861 16.1824-0.895338 16.5472-0.39793 16.7793 0 16.8788 0 17.6415 0L22.2177 0C22.8146 0 23.312 0 23.312-0.596894 23.312-0.86218 23.113-1.0943 22.8146-1.16062 21.5876-1.42591 19.9627-3.61452 19.1669-4.67566 18.9348-5.00727 17.2767-7.19587 15.055-10.7772 18.0063-11.3078 20.8581-12.5679 20.8581-16.514 20.8581-21.1234 15.9835-22.7151 12.0705-22.7151L1.65804-22.7151C1.06114-22.7151 0.53057-22.7151 0.53057-22.1182 0.53057-21.5545 1.16062-21.5545 1.42591-21.5545 3.31607-21.5545 3.48187-21.3223 3.48187-19.6643L3.48187-3.05079C3.48187-1.39275 3.31607-1.16062 1.42591-1.16062 1.16062-1.16062 0.53057-1.16062 0.53057-0.596894 0.53057 0 1.06114 0 1.65804 0L10.7441 0C11.341 0 11.8384 0 11.8384-0.596894 11.8384-1.16062 11.2746-1.16062 10.9099-1.16062 9.01971-1.16062 8.88707-1.42591 8.88707-3.05079L8.88707-10.4125ZM15.2871-12.0373C16.2156-13.2643 16.3151-15.0218 16.3151-16.4809 16.3151-18.0726 16.1161-19.8301 15.055-21.1897 16.4145-20.8912 19.6975-19.8633 19.6975-16.514 19.6975-14.3586 18.7026-12.6674 15.2871-12.0373ZM8.88707-19.7638C8.88707-20.4602 8.88707-21.5545 10.943-21.5545 13.7617-21.5545 15.1544-20.3938 15.1544-16.4809 15.1544-12.2031 14.1265-11.5731 8.88707-11.5731L8.88707-19.7638ZM4.37721-1.16062C4.6425-1.75752 4.6425-2.68602 4.6425-2.98446L4.6425-19.7306C4.6425-20.0622 4.6425-20.9576 4.37721-21.5545L8.15753-21.5545C7.72644-21.0239 7.72644-20.3607 7.72644-19.8633L7.72644-2.98446C7.72644-2.65286 7.72644-1.75752 7.99173-1.16062L4.37721-1.16062ZM11.4404-10.4125C11.6726-10.4456 11.8052-10.4788 12.0705-10.4788 12.5679-10.4788 13.2974-10.5451 13.7949-10.6114 14.2923-9.81557 17.8736-3.91296 20.626-1.16062L17.4094-1.16062 11.4404-10.4125Z" transform="matrix(1 0 -0 1.0015 532.685 571.59)"/><path d="M13.2775-9.33142C13.1847-9.51712 13.1383-9.58676 13.1383-9.60997 13.1383-9.6564 13.1615-9.67961 13.6954-10.051L16.0398-11.6991C19.1039-13.8579 20.5431-14.8792 22.1911-15.0185 22.4465-15.0417 22.725-15.0649 22.725-15.5292 22.725-15.7149 22.5625-15.8309 22.4233-15.8309 21.9358-15.8309 21.3323-15.7613 20.8216-15.7613 20.1949-15.7613 18.6396-15.8541 18.0129-15.8541 17.8736-15.8541 17.5254-15.8541 17.5254-15.3435 17.5254-15.3202 17.5254-15.0417 17.8736-15.0185 18.1522-14.9953 18.4539-14.9488 18.4539-14.6935 18.4539-14.2757 17.7343-13.765 17.4326-13.5561L7.75297-6.73162 9.58676-14.0436C9.79567-14.8328 9.81889-15.0185 11.6295-15.0185 12.0009-15.0185 12.3258-15.0185 12.3258-15.5059 12.3258-15.7149 12.1866-15.8541 11.9544-15.8541 11.2813-15.8541 9.58676-15.7613 8.9136-15.7613 8.51898-15.7613 7.70655-15.7613 7.31194-15.7845 6.84769-15.8077 6.29059-15.8541 5.84955-15.8541 5.71027-15.8541 5.36209-15.8541 5.36209-15.3435 5.36209-15.0185 5.61742-15.0185 6.1281-15.0185 6.4995-15.0185 6.59235-15.0185 7.01017-14.9721 7.47442-14.9256 7.52085-14.8792 7.52085-14.6471 7.52085-14.6007 7.52085-14.4846 7.428-14.1364L4.34074-1.81057C4.15504-1.02135 4.10861-0.835651 2.29804-0.835651 1.88021-0.835651 1.60166-0.835651 1.60166-0.324975 1.60166-0.301762 1.60166 0 1.97306 0 2.64623 0 4.31752-0.0928487 4.99068-0.0928487 5.3853-0.0928487 6.19773-0.0928487 6.59235-0.069639 7.0566-0.046426 7.63691 0 8.07795 0 8.21722 0 8.56541 0 8.56541-0.510676 8.56541-0.835651 8.28686-0.835651 7.82261-0.835651 7.7994-0.835651 7.35836-0.835651 6.94054-0.882074 6.40665-0.9285 6.40665-0.998136 6.40665-1.23026 6.40665-1.41596 6.63877-2.27482 7.49764-5.68706L11.3509-8.40292 14.7167-1.88021C14.8792-1.57845 14.8792-1.55524 14.8792-1.43918 14.8792-0.905287 14.2293-0.835651 13.8114-0.835651 13.5329-0.835651 13.2079-0.835651 13.2079-0.324975 13.2079-0.301762 13.2311 0 13.6025 0 14.2525 0 15.9238-0.0928487 16.5737-0.0928487 17.2701-0.0928487 18.1986 0 18.8485 0 19.1503 0 19.3128-0.162488 19.3128-0.487463 19.3128-0.835651 19.011-0.835651 18.7789-0.835651 18.3611-0.835651 17.6415-0.858861 17.2469-1.60166L13.2775-9.33142Z" transform="matrix(1 0 -0 1.0015 556.634 557.878)"/><path d="M16.2487-10.8867C16.5041-11.142 16.5737-11.2813 16.5737-11.4438 16.5737-11.8152 16.272-12.0241 16.0166-12.0241 15.7845-12.0241 15.7149-11.9544 15.4363-11.6759L10.3528-6.61556 5.24602-11.6991C5.0139-11.9312 4.92105-12.0241 4.71214-12.0241 4.38716-12.0241 4.13182-11.7687 4.13182-11.4438 4.13182-11.2348 4.20146-11.1652 4.48001-10.8867L9.54034-5.82634 4.48001-0.766012C4.15504-0.441037 4.13182-0.324975 4.13182-0.185701 4.13182 0.139275 4.38716 0.394611 4.71214 0.394611 4.92105 0.394611 4.99068 0.324975 5.24602 0.069639L10.3528-5.0139 15.6452 0.278549C15.7613 0.348188 15.8773 0.394611 16.0166 0.394611 16.272 0.394611 16.5737 0.185701 16.5737-0.185701 16.5737-0.371401 16.5273-0.417824 16.4577-0.487463 16.4112-0.580312 11.908-5.08354 11.1652-5.80312L16.2487-10.8867Z" transform="matrix(1 0 -0 1.0015 580.542 557.878)"/><path d="M1.74094 2.83192C1.57845 3.48187 1.53202 3.66757 0.603525 3.66757 0.301762 3.66757-0.023213 3.66757-0.023213 4.15504-0.023213 4.41037 0.185701 4.50323 0.301762 4.50323 0.905287 4.50323 1.6713 4.41037 2.29804 4.41037 3.08726 4.41037 3.96934 4.50323 4.73535 4.50323 4.94426 4.50323 5.1996 4.43359 5.1996 3.99255 5.1996 3.66757 4.87462 3.66757 4.59607 3.66757 4.0854 3.66757 3.45866 3.66757 3.45866 3.38902 3.45866 3.27296 3.62115 2.66944 3.714 2.32125 3.99255 1.09099 4.31752-0.162488 4.57286-1.13741 4.85141-0.673164 5.571 0.232123 6.96375 0.232123 9.79567 0.232123 12.9294-2.90156 12.9294-6.36022 12.9294-9.07609 11.0491-10.2367 9.44748-10.2367 8.00831-10.2367 6.77805-9.26178 6.15131-8.61184 5.7567-9.93495 4.4568-10.2367 3.76042-10.2367 2.85514-10.2367 2.29804-9.63318 1.92664-9.00645 1.46239-8.21722 1.09099-6.82447 1.09099-6.6852 1.09099-6.38344 1.41596-6.38344 1.4856-6.38344 1.81057-6.38344 1.83379-6.45307 1.99627-7.07981 2.34446-8.42614 2.7855-9.58676 3.69079-9.58676 4.29431-9.58676 4.4568-9.07609 4.4568-8.44935 4.4568-8.19401 4.41037-7.89225 4.38716-7.75297L1.74094 2.83192ZM6.1281-7.45121C7.47442-9.23857 8.63505-9.58676 9.37785-9.58676 10.2831-9.58676 11.0724-8.9136 11.0724-7.33515 11.0724-6.38344 10.5617-4.01576 9.86531-2.66944 9.285-1.53202 8.14759-0.417824 6.96375-0.417824 5.31566-0.417824 4.89784-2.20519 4.89784-2.43731 4.89784-2.53016 4.94426-2.69265 4.96747-2.7855L6.1281-7.45121Z" transform="matrix(1 0 -0 1.0015 601.268 557.878)"/><path d="M6.73162-0.0331619C6.73162-2.22177 5.90261-3.51504 4.60934-3.51504 3.51504-3.51504 2.85182-2.68602 2.85182-1.75752 2.85182-0.86218 3.51504 0 4.60934 0 5.00727 0 5.43836-0.132644 5.76996-0.431088 5.86944-0.497412 5.90261-0.53057 5.93577-0.53057 5.96893-0.53057 6.00209-0.497412 6.00209-0.0331619 6.00209 2.42073 4.84146 4.41037 3.74716 5.50468 3.38239 5.86944 3.38239 5.93577 3.38239 6.03525 3.38239 6.26737 3.54819 6.40002 3.714 6.40002 4.07877 6.40002 6.73162 3.84664 6.73162-0.0331619Z" transform="matrix(1 0 -0 1.0015 616.596 571.59)"/><path d="M7.92541-22.6488C7.92541-22.6819 7.92541-23.0135 7.49432-23.0135 6.73162-23.0135 4.31089-22.7482 3.44871-22.6819 3.18343-22.6488 2.81866-22.6156 2.81866-22.0187 2.81866-21.6208 3.11711-21.6208 3.61452-21.6208 5.20623-21.6208 5.27255-21.3887 5.27255-21.057 5.27255-20.8249 4.97411-19.6975 4.8083-19.0011L2.08912-8.19069C1.6912-6.53266 1.55855-6.00209 1.55855-4.84146 1.55855-1.6912 3.31607 0.364768 5.76996 0.364768 9.68293 0.364768 13.7617-4.57618 13.7617-9.35132 13.7617-12.3689 12.0042-14.657 9.35132-14.657 7.82593-14.657 6.46634-13.6954 5.47152-12.6674L7.92541-22.6488ZM4.8083-10.114C5.00727-10.8435 5.00727-10.9099 5.30571-11.2746 6.93059-13.4301 8.42282-13.9275 9.285-13.9275 10.4788-13.9275 11.3741-12.9327 11.3741-10.8104 11.3741-8.85391 10.2798-5.04043 9.68293-3.78032 8.58862-1.55855 7.06323-0.364768 5.76996-0.364768 4.6425-0.364768 3.54819-1.26011 3.54819-3.714 3.54819-4.34405 3.54819-4.97411 4.07877-7.06323L4.8083-10.114Z" transform="matrix(1 0 -0 1.0015 631.334 571.59)"/><path d="M18.1721-7.62696C18.7358-7.62696 19.3327-7.62696 19.3327-8.29018 19.3327-8.95339 18.7358-8.95339 18.1721-8.95339L4.11193-8.95339C4.50986-13.3969 8.32334-16.5804 12.999-16.5804L18.1721-16.5804C18.7358-16.5804 19.3327-16.5804 19.3327-17.2436 19.3327-17.9068 18.7358-17.9068 18.1721-17.9068L12.9327-17.9068C7.26219-17.9068 2.75234-13.5959 2.75234-8.29018 2.75234-2.98446 7.26219 1.32643 12.9327 1.32643L18.1721 1.32643C18.7358 1.32643 19.3327 1.32643 19.3327 0.663215 19.3327 0 18.7358 0 18.1721 0L12.999 0C8.32334 0 4.50986-3.18343 4.11193-7.62696L18.1721-7.62696Z" transform="matrix(1 0 -0 1.0015 654.776 571.59)"/><path d="M8.88707-10.4125 10.0809-10.4125 15.055-2.71918C15.3866-2.18861 16.1824-0.895338 16.5472-0.39793 16.7793 0 16.8788 0 17.6415 0L22.2177 0C22.8146 0 23.312 0 23.312-0.596894 23.312-0.86218 23.113-1.0943 22.8146-1.16062 21.5876-1.42591 19.9627-3.61452 19.1669-4.67566 18.9348-5.00727 17.2767-7.19587 15.055-10.7772 18.0063-11.3078 20.8581-12.5679 20.8581-16.514 20.8581-21.1234 15.9835-22.7151 12.0705-22.7151L1.65804-22.7151C1.06114-22.7151 0.53057-22.7151 0.53057-22.1182 0.53057-21.5545 1.16062-21.5545 1.42591-21.5545 3.31607-21.5545 3.48187-21.3223 3.48187-19.6643L3.48187-3.05079C3.48187-1.39275 3.31607-1.16062 1.42591-1.16062 1.16062-1.16062 0.53057-1.16062 0.53057-0.596894 0.53057 0 1.06114 0 1.65804 0L10.7441 0C11.341 0 11.8384 0 11.8384-0.596894 11.8384-1.16062 11.2746-1.16062 10.9099-1.16062 9.01971-1.16062 8.88707-1.42591 8.88707-3.05079L8.88707-10.4125ZM15.2871-12.0373C16.2156-13.2643 16.3151-15.0218 16.3151-16.4809 16.3151-18.0726 16.1161-19.8301 15.055-21.1897 16.4145-20.8912 19.6975-19.8633 19.6975-16.514 19.6975-14.3586 18.7026-12.6674 15.2871-12.0373ZM8.88707-19.7638C8.88707-20.4602 8.88707-21.5545 10.943-21.5545 13.7617-21.5545 15.1544-20.3938 15.1544-16.4809 15.1544-12.2031 14.1265-11.5731 8.88707-11.5731L8.88707-19.7638ZM4.37721-1.16062C4.6425-1.75752 4.6425-2.68602 4.6425-2.98446L4.6425-19.7306C4.6425-20.0622 4.6425-20.9576 4.37721-21.5545L8.15753-21.5545C7.72644-21.0239 7.72644-20.3607 7.72644-19.8633L7.72644-2.98446C7.72644-2.65286 7.72644-1.75752 7.99173-1.16062L4.37721-1.16062ZM11.4404-10.4125C11.6726-10.4456 11.8052-10.4788 12.0705-10.4788 12.5679-10.4788 13.2974-10.5451 13.7949-10.6114 14.2923-9.81557 17.8736-3.91296 20.626-1.16062L17.4094-1.16062 11.4404-10.4125Z" transform="matrix(1 0 -0 1.0015 686.094 571.59)"/><path d="M13.2775-9.33142C13.1847-9.51712 13.1383-9.58676 13.1383-9.60997 13.1383-9.6564 13.1615-9.67961 13.6954-10.051L16.0398-11.6991C19.1039-13.8579 20.5431-14.8792 22.1911-15.0185 22.4465-15.0417 22.725-15.0649 22.725-15.5292 22.725-15.7149 22.5625-15.8309 22.4233-15.8309 21.9358-15.8309 21.3323-15.7613 20.8216-15.7613 20.1949-15.7613 18.6396-15.8541 18.0129-15.8541 17.8736-15.8541 17.5254-15.8541 17.5254-15.3435 17.5254-15.3202 17.5254-15.0417 17.8736-15.0185 18.1522-14.9953 18.4539-14.9488 18.4539-14.6935 18.4539-14.2757 17.7343-13.765 17.4326-13.5561L7.75297-6.73162 9.58676-14.0436C9.79567-14.8328 9.81889-15.0185 11.6295-15.0185 12.0009-15.0185 12.3258-15.0185 12.3258-15.5059 12.3258-15.7149 12.1866-15.8541 11.9544-15.8541 11.2813-15.8541 9.58676-15.7613 8.9136-15.7613 8.51898-15.7613 7.70655-15.7613 7.31194-15.7845 6.84769-15.8077 6.29059-15.8541 5.84955-15.8541 5.71027-15.8541 5.36209-15.8541 5.36209-15.3435 5.36209-15.0185 5.61742-15.0185 6.1281-15.0185 6.4995-15.0185 6.59235-15.0185 7.01017-14.9721 7.47442-14.9256 7.52085-14.8792 7.52085-14.6471 7.52085-14.6007 7.52085-14.4846 7.428-14.1364L4.34074-1.81057C4.15504-1.02135 4.10861-0.835651 2.29804-0.835651 1.88021-0.835651 1.60166-0.835651 1.60166-0.324975 1.60166-0.301762 1.60166 0 1.97306 0 2.64623 0 4.31752-0.0928487 4.99068-0.0928487 5.3853-0.0928487 6.19773-0.0928487 6.59235-0.069639 7.0566-0.046426 7.63691 0 8.07795 0 8.21722 0 8.56541 0 8.56541-0.510676 8.56541-0.835651 8.28686-0.835651 7.82261-0.835651 7.7994-0.835651 7.35836-0.835651 6.94054-0.882074 6.40665-0.9285 6.40665-0.998136 6.40665-1.23026 6.40665-1.41596 6.63877-2.27482 7.49764-5.68706L11.3509-8.40292 14.7167-1.88021C14.8792-1.57845 14.8792-1.55524 14.8792-1.43918 14.8792-0.905287 14.2293-0.835651 13.8114-0.835651 13.5329-0.835651 13.2079-0.835651 13.2079-0.324975 13.2079-0.301762 13.2311 0 13.6025 0 14.2525 0 15.9238-0.0928487 16.5737-0.0928487 17.2701-0.0928487 18.1986 0 18.8485 0 19.1503 0 19.3128-0.162488 19.3128-0.487463 19.3128-0.835651 19.011-0.835651 18.7789-0.835651 18.3611-0.835651 17.6415-0.858861 17.2469-1.60166L13.2775-9.33142Z" transform="matrix(1 0 -0 1.0015 710.044 557.878)"/></g></g></g><g clip-path="url(#clip4)"><g clip-path="url(#clip5)"><g clip-path="url(#clip6)"><path d="M12.5565-11.3535C12.7821-12.331 13.6468-15.7897 16.2784-15.7897 16.4664-15.7897 17.3686-15.7897 18.1581-15.3009 17.1055-15.113 16.3536-14.1731 16.3536-13.2708 16.3536-12.6693 16.7671-11.955 17.7822-11.955 18.6092-11.955 19.8123-12.6317 19.8123-14.1355 19.8123-16.0904 17.5942-16.6167 16.316-16.6167 14.1355-16.6167 12.8197-14.6242 12.3686-13.7596 11.4287-16.2408 9.39861-16.6167 8.30837-16.6167 4.39855-16.6167 2.25566-11.7671 2.25566-10.8272 2.25566-10.4513 2.63161-10.4513 2.7068-10.4513 3.00755-10.4513 3.12034-10.5264 3.19553-10.8648 4.47374-14.8498 6.95497-15.7897 8.23318-15.7897 8.94747-15.7897 10.2633-15.4513 10.2633-13.2708 10.2633-12.1054 9.62418-9.58658 8.23318-4.32336 7.63167-1.99251 6.31587-0.413539 4.66171-0.413539 4.43614-0.413539 3.57147-0.413539 2.78199-0.902265 3.72185-1.09024 4.54892-1.87972 4.54892-2.93237 4.54892-3.94741 3.72185-4.24817 3.15793-4.24817 2.0301-4.24817 1.09024-3.27072 1.09024-2.06769 1.09024-0.338351 2.96996 0.413539 4.62412 0.413539 7.10535 0.413539 8.45875-2.21807 8.57153-2.44364 9.02267-1.05264 10.3761 0.413539 12.6317 0.413539 16.504 0.413539 18.6468-4.43614 18.6468-5.37601 18.6468-5.75195 18.3085-5.75195 18.1957-5.75195 17.8574-5.75195 17.7822-5.60157 17.707-5.33841 16.4664-1.3158 13.9099-0.413539 12.7069-0.413539 11.2407-0.413539 10.6392-1.61656 10.6392-2.89477 10.6392-3.72185 10.8648-4.54892 11.2783-6.20308L12.5565-11.3535Z" transform="matrix(1 0 -0 1.0155 69 575.595)"/><path d="M8.52642-16.4476C8.52642-16.8686 8.21063-17.4476 7.47377-17.4476 6.76324-17.4476 6.00007-16.7634 6.00007-16.0002 6.00007-15.5528 6.34218-15.0002 7.05272-15.0002 7.81588-15.0002 8.52642-15.737 8.52642-16.4476ZM3.15793-3.07898C3.05267-2.73687 2.92109-2.42108 2.92109-1.97371 2.92109-0.736852 3.97373 0.263159 5.42112 0.263159 8.05273 0.263159 9.21064-3.36846 9.21064-3.7632 9.21064-4.10531 8.86853-4.10531 8.78958-4.10531 8.42115-4.10531 8.39484-3.94741 8.28957-3.65794 7.6843-1.55265 6.52639-0.473689 5.50006-0.473689 4.97374-0.473689 4.84216-0.815798 4.84216-1.39475 4.84216-2.00002 5.02638-2.50003 5.26322-3.07898 5.52638-3.78952 5.81586-4.50005 6.10534-5.18427 6.34218-5.81586 7.28956-8.21063 7.39482-8.52642 7.47377-8.78958 7.55272-9.10537 7.55272-9.36853 7.55272-10.6054 6.50008-11.6054 5.05269-11.6054 2.4474-11.6054 1.23686-8.02641 1.23686-7.57904 1.23686-7.23693 1.60528-7.23693 1.68423-7.23693 2.05266-7.23693 2.07897-7.36851 2.15792-7.65799 2.84214-9.92117 4.00005-10.8686 4.97374-10.8686 5.3948-10.8686 5.63164-10.658 5.63164-9.94749 5.63164-9.34222 5.47375-8.94747 4.81585-7.31588L3.15793-3.07898Z" transform="matrix(1 0 -0 1.0155 90.4863 581.321)"/><path d="M20.6018-8.64672C21.2409-8.64672 21.9176-8.64672 21.9176-9.39861 21.9176-10.1505 21.2409-10.1505 20.6018-10.1505L4.66171-10.1505C5.11284-15.1882 9.4362-18.7972 14.737-18.7972L20.6018-18.7972C21.2409-18.7972 21.9176-18.7972 21.9176-19.5491 21.9176-20.301 21.2409-20.301 20.6018-20.301L14.6618-20.301C8.23318-20.301 3.12034-15.4137 3.12034-9.39861 3.12034-3.3835 8.23318 1.50378 14.6618 1.50378L20.6018 1.50378C21.2409 1.50378 21.9176 1.50378 21.9176 0.751889 21.9176 0 21.2409 0 20.6018 0L14.737 0C9.4362 0 5.11284-3.60906 4.66171-8.64672L20.6018-8.64672Z" transform="matrix(1 0 -0 1.0155 113.445 575.595)"/><path d="M10.0753-11.8047 11.4287-11.8047 17.0679-3.08274C17.4438-2.48123 18.3461-1.01505 18.7596-0.451134 19.0228 0 19.1356 0 20.0002 0L25.1883 0C25.865 0 26.4289 0 26.4289-0.676702 26.4289-0.977457 26.2033-1.24062 25.865-1.3158 24.474-1.61656 22.6318-4.09779 21.7296-5.30081 21.4664-5.67676 19.5867-8.15799 17.0679-12.2182 20.4138-12.8197 23.6469-14.2483 23.6469-18.722 23.6469-23.9477 18.1205-25.7522 13.6844-25.7522L1.87972-25.7522C1.20302-25.7522 0.60151-25.7522 0.60151-25.0755 0.60151-24.4364 1.3158-24.4364 1.61656-24.4364 3.75944-24.4364 3.94741-24.1732 3.94741-22.2935L3.94741-3.45869C3.94741-1.57897 3.75944-1.3158 1.61656-1.3158 1.3158-1.3158 0.60151-1.3158 0.60151-0.676702 0.60151 0 1.20302 0 1.87972 0L12.1806 0C12.8573 0 13.4212 0 13.4212-0.676702 13.4212-1.3158 12.7821-1.3158 12.3686-1.3158 10.2257-1.3158 10.0753-1.61656 10.0753-3.45869L10.0753-11.8047ZM17.331-13.6468C18.3837-15.0378 18.4965-17.0303 18.4965-18.6844 18.4965-20.489 18.2709-22.4815 17.0679-24.0228 18.6092-23.6845 22.3311-22.5191 22.3311-18.722 22.3311-16.2784 21.2033-14.3611 17.331-13.6468ZM10.0753-22.4063C10.0753-23.1958 10.0753-24.4364 12.4062-24.4364 15.6017-24.4364 17.1807-23.1206 17.1807-18.6844 17.1807-13.8348 16.0152-13.1205 10.0753-13.1205L10.0753-22.4063ZM4.96246-1.3158C5.26322-1.99251 5.26322-3.04515 5.26322-3.3835L5.26322-22.3687C5.26322-22.7446 5.26322-23.7597 4.96246-24.4364L9.24823-24.4364C8.7595-23.8349 8.7595-23.083 8.7595-22.5191L8.7595-3.3835C8.7595-3.00755 8.7595-1.99251 9.06026-1.3158L4.96246-1.3158ZM12.9701-11.8047C13.2332-11.8422 13.3836-11.8798 13.6844-11.8798 14.2483-11.8798 15.0754-11.955 15.6393-12.0302 16.2032-11.128 20.2634-4.43614 23.3837-1.3158L19.7371-1.3158 12.9701-11.8047Z" transform="matrix(1 0 -0 1.0155 148.951 575.595)"/><path d="M1.97371 3.21056C1.7895 3.94741 1.73686 4.15794 0.684219 4.15794 0.342109 4.15794-0.0263167 4.15794-0.0263167 4.71058-0.0263167 5.00006 0.21053 5.10533 0.342109 5.10533 1.02633 5.10533 1.89476 5.00006 2.60529 5.00006 3.50004 5.00006 4.50005 5.10533 5.36849 5.10533 5.60533 5.10533 5.89481 5.02638 5.89481 4.52637 5.89481 4.15794 5.52638 4.15794 5.21059 4.15794 4.63163 4.15794 3.9211 4.15794 3.9211 3.84215 3.9211 3.71057 4.10531 3.02635 4.21058 2.63161 4.52637 1.23686 4.8948-0.184213 5.18427-1.28949 5.50006-0.763169 6.31587 0.263159 7.89483 0.263159 11.1054 0.263159 14.6581-3.28951 14.6581-7.21061 14.6581-10.2896 12.5265-11.6054 10.7107-11.6054 9.07906-11.6054 7.6843-10.5001 6.97377-9.76328 6.52639-11.2633 5.05269-11.6054 4.26321-11.6054 3.23688-11.6054 2.60529-10.9212 2.18424-10.2106 1.65791-9.3159 1.23686-7.73693 1.23686-7.57904 1.23686-7.23693 1.60528-7.23693 1.68423-7.23693 2.05266-7.23693 2.07897-7.31588 2.26319-8.02641 2.65793-9.55275 3.15793-10.8686 4.18426-10.8686 4.86848-10.8686 5.05269-10.2896 5.05269-9.57906 5.05269-9.28958 5.00006-8.94747 4.97374-8.78958L1.97371 3.21056ZM6.94745-8.44747C8.47379-10.4738 9.78959-10.8686 10.6317-10.8686 11.658-10.8686 12.5528-10.1054 12.5528-8.31589 12.5528-7.23693 11.9738-4.55269 11.1843-3.02635 10.5264-1.73686 9.23695-0.473689 7.89483-0.473689 6.02639-0.473689 5.5527-2.50003 5.5527-2.76319 5.5527-2.86845 5.60533-3.05267 5.63164-3.15793L6.94745-8.44747Z" transform="matrix(1 0 -0 1.0155 176.102 559.832)"/><path d="M7.63167-0.0375958C7.63167-2.51883 6.69181-3.98501 5.22563-3.98501 3.98501-3.98501 3.23312-3.04515 3.23312-1.99251 3.23312-0.977457 3.98501 0 5.22563 0 5.67676 0 6.16549-0.150379 6.54143-0.488726 6.65421-0.563918 6.69181-0.60151 6.72941-0.60151 6.767-0.60151 6.80459-0.563918 6.80459-0.0375958 6.80459 2.74439 5.48879 5.00006 4.24817 6.24068 3.83463 6.65421 3.83463 6.72941 3.83463 6.84219 3.83463 7.10535 4.0226 7.25573 4.21058 7.25573 4.62412 7.25573 7.63167 4.36095 7.63167-0.0375958Z" transform="matrix(1 0 -0 1.0155 193.48 575.595)"/><path d="M18.2709-14.3235C18.4213-14.8498 18.4213-14.925 18.4213-15.1882 18.4213-15.8649 17.895-16.2032 17.331-16.2032 16.9551-16.2032 16.3536-15.9776 16.0152-15.4137 15.94-15.2257 15.6393-14.0603 15.4889-13.3836 15.2257-12.4062 14.9626-11.3911 14.737-10.3761L13.0453-3.60906C12.8949-3.04515 11.2783-0.413539 8.7971-0.413539 6.87978-0.413539 6.46624-2.06769 6.46624-3.45869 6.46624-5.18803 7.10535-7.51889 8.38356-10.8272 8.98507-12.3686 9.13545-12.7821 9.13545-13.534 9.13545-15.2257 7.93243-16.6167 6.0527-16.6167 2.48123-16.6167 1.09024-11.1655 1.09024-10.8272 1.09024-10.4513 1.46618-10.4513 1.54137-10.4513 1.91732-10.4513 1.95491-10.5264 2.14288-11.128 3.15793-14.6618 4.66171-15.7897 5.93992-15.7897 6.24068-15.7897 6.87978-15.7897 6.87978-14.5866 6.87978-13.6468 6.50384-12.6693 6.24068-11.955 4.7369-7.97002 4.0602-5.82714 4.0602-4.0602 4.0602-0.714294 6.42865 0.413539 8.64672 0.413539 10.1129 0.413539 11.3911-0.225567 12.4438-1.27821 11.955 0.676702 11.5039 2.51883 10.0001 4.51133 9.02267 5.78954 7.59408 6.87978 5.86473 6.87978 5.33841 6.87978 3.64666 6.767 3.00755 5.30081 3.60906 5.30081 4.09779 5.30081 4.62412 4.84968 5.00006 4.51133 5.37601 4.0226 5.37601 3.30831 5.37601 2.14288 4.36095 1.99251 3.98501 1.99251 3.12034 1.99251 1.87972 2.59402 1.87972 4.43614 1.87972 6.31587 3.53388 7.70686 5.86473 7.70686 9.73696 7.70686 13.6092 4.28577 14.6618 0.0375958L18.2709-14.3235Z" transform="matrix(1 0 -0 1.0155 210.188 575.595)"/><path d="M8.52642-16.4476C8.52642-16.8686 8.21063-17.4476 7.47377-17.4476 6.76324-17.4476 6.00007-16.7634 6.00007-16.0002 6.00007-15.5528 6.34218-15.0002 7.05272-15.0002 7.81588-15.0002 8.52642-15.737 8.52642-16.4476ZM3.15793-3.07898C3.05267-2.73687 2.92109-2.42108 2.92109-1.97371 2.92109-0.736852 3.97373 0.263159 5.42112 0.263159 8.05273 0.263159 9.21064-3.36846 9.21064-3.7632 9.21064-4.10531 8.86853-4.10531 8.78958-4.10531 8.42115-4.10531 8.39484-3.94741 8.28957-3.65794 7.6843-1.55265 6.52639-0.473689 5.50006-0.473689 4.97374-0.473689 4.84216-0.815798 4.84216-1.39475 4.84216-2.00002 5.02638-2.50003 5.26322-3.07898 5.52638-3.78952 5.81586-4.50005 6.10534-5.18427 6.34218-5.81586 7.28956-8.21063 7.39482-8.52642 7.47377-8.78958 7.55272-9.10537 7.55272-9.36853 7.55272-10.6054 6.50008-11.6054 5.05269-11.6054 2.4474-11.6054 1.23686-8.02641 1.23686-7.57904 1.23686-7.23693 1.60528-7.23693 1.68423-7.23693 2.05266-7.23693 2.07897-7.36851 2.15792-7.65799 2.84214-9.92117 4.00005-10.8686 4.97374-10.8686 5.3948-10.8686 5.63164-10.658 5.63164-9.94749 5.63164-9.34222 5.47375-8.94747 4.81585-7.31588L3.15793-3.07898Z" transform="matrix(1 0 -0 1.0155 228.62 581.321)"/><path d="M20.6018-8.64672C21.2409-8.64672 21.9176-8.64672 21.9176-9.39861 21.9176-10.1505 21.2409-10.1505 20.6018-10.1505L4.66171-10.1505C5.11284-15.1882 9.4362-18.7972 14.737-18.7972L20.6018-18.7972C21.2409-18.7972 21.9176-18.7972 21.9176-19.5491 21.9176-20.301 21.2409-20.301 20.6018-20.301L14.6618-20.301C8.23318-20.301 3.12034-15.4137 3.12034-9.39861 3.12034-3.3835 8.23318 1.50378 14.6618 1.50378L20.6018 1.50378C21.2409 1.50378 21.9176 1.50378 21.9176 0.751889 21.9176 0 21.2409 0 20.6018 0L14.737 0C9.4362 0 5.11284-3.60906 4.66171-8.64672L20.6018-8.64672Z" transform="matrix(1 0 -0 1.0155 251.579 575.595)"/><path d="M10.0753-11.8047 11.4287-11.8047 17.0679-3.08274C17.4438-2.48123 18.3461-1.01505 18.7596-0.451134 19.0228 0 19.1356 0 20.0002 0L25.1883 0C25.865 0 26.4289 0 26.4289-0.676702 26.4289-0.977457 26.2033-1.24062 25.865-1.3158 24.474-1.61656 22.6318-4.09779 21.7296-5.30081 21.4664-5.67676 19.5867-8.15799 17.0679-12.2182 20.4138-12.8197 23.6469-14.2483 23.6469-18.722 23.6469-23.9477 18.1205-25.7522 13.6844-25.7522L1.87972-25.7522C1.20302-25.7522 0.60151-25.7522 0.60151-25.0755 0.60151-24.4364 1.3158-24.4364 1.61656-24.4364 3.75944-24.4364 3.94741-24.1732 3.94741-22.2935L3.94741-3.45869C3.94741-1.57897 3.75944-1.3158 1.61656-1.3158 1.3158-1.3158 0.60151-1.3158 0.60151-0.676702 0.60151 0 1.20302 0 1.87972 0L12.1806 0C12.8573 0 13.4212 0 13.4212-0.676702 13.4212-1.3158 12.7821-1.3158 12.3686-1.3158 10.2257-1.3158 10.0753-1.61656 10.0753-3.45869L10.0753-11.8047ZM17.331-13.6468C18.3837-15.0378 18.4965-17.0303 18.4965-18.6844 18.4965-20.489 18.2709-22.4815 17.0679-24.0228 18.6092-23.6845 22.3311-22.5191 22.3311-18.722 22.3311-16.2784 21.2033-14.3611 17.331-13.6468ZM10.0753-22.4063C10.0753-23.1958 10.0753-24.4364 12.4062-24.4364 15.6017-24.4364 17.1807-23.1206 17.1807-18.6844 17.1807-13.8348 16.0152-13.1205 10.0753-13.1205L10.0753-22.4063ZM4.96246-1.3158C5.26322-1.99251 5.26322-3.04515 5.26322-3.3835L5.26322-22.3687C5.26322-22.7446 5.26322-23.7597 4.96246-24.4364L9.24823-24.4364C8.7595-23.8349 8.7595-23.083 8.7595-22.5191L8.7595-3.3835C8.7595-3.00755 8.7595-1.99251 9.06026-1.3158L4.96246-1.3158ZM12.9701-11.8047C13.2332-11.8422 13.3836-11.8798 13.6844-11.8798 14.2483-11.8798 15.0754-11.955 15.6393-12.0302 16.2032-11.128 20.2634-4.43614 23.3837-1.3158L19.7371-1.3158 12.9701-11.8047Z" transform="matrix(1 0 -0 1.0155 287.085 575.595)"/><path d="M15.0528-10.5791C14.9475-10.7896 14.8949-10.8686 14.8949-10.8949 14.8949-10.9475 14.9212-10.9738 15.5265-11.3949L18.1844-13.2633C21.6582-15.7107 23.2898-16.8686 25.1582-17.0265 25.4477-17.0528 25.7635-17.0792 25.7635-17.6055 25.7635-17.816 25.5793-17.9476 25.4214-17.9476 24.8687-17.9476 24.1845-17.8686 23.6055-17.8686 22.895-17.8686 21.1318-17.9739 20.4213-17.9739 20.2634-17.9739 19.8687-17.9739 19.8687-17.3949 19.8687-17.3686 19.8687-17.0528 20.2634-17.0265 20.5792-17.0002 20.9213-16.9476 20.9213-16.6581 20.9213-16.1844 20.1055-15.6054 19.7634-15.3686L8.78958-7.63167 10.8686-15.9212C11.1054-16.816 11.1317-17.0265 13.1844-17.0265 13.6054-17.0265 13.9739-17.0265 13.9739-17.5792 13.9739-17.816 13.816-17.9739 13.5528-17.9739 12.7896-17.9739 10.8686-17.8686 10.1054-17.8686 9.65801-17.8686 8.73695-17.8686 8.28957-17.895 7.76325-17.9213 7.13166-17.9739 6.63166-17.9739 6.47376-17.9739 6.07902-17.9739 6.07902-17.3949 6.07902-17.0265 6.3685-17.0265 6.94745-17.0265 7.36851-17.0265 7.47377-17.0265 7.94746-16.9739 8.47379-16.9213 8.52642-16.8686 8.52642-16.6055 8.52642-16.5528 8.52642-16.4212 8.42115-16.0265L4.92111-2.05266C4.71058-1.15791 4.65795-0.947382 2.60529-0.947382 2.13161-0.947382 1.81581-0.947382 1.81581-0.368426 1.81581-0.342109 1.81581 0 2.23687 0 3.00004 0 4.8948-0.105263 5.65796-0.105263 6.10534-0.105263 7.0264-0.105263 7.47377-0.07895 8.0001-0.0526334 8.658 0 9.158 0 9.3159 0 9.71064 0 9.71064-0.578956 9.71064-0.947382 9.39485-0.947382 8.86853-0.947382 8.84221-0.947382 8.34221-0.947382 7.86852-1.00001 7.26324-1.05264 7.26324-1.13159 7.26324-1.39475 7.26324-1.60528 7.52641-2.57898 8.5001-6.44745L12.8686-9.52643 16.6844-2.13161C16.8686-1.7895 16.8686-1.76318 16.8686-1.6316 16.8686-1.02633 16.1318-0.947382 15.6581-0.947382 15.3423-0.947382 14.9739-0.947382 14.9739-0.368426 14.9739-0.342109 15.0002 0 15.4212 0 16.1581 0 18.0528-0.105263 18.7897-0.105263 19.5792-0.105263 20.6318 0 21.3687 0 21.7108 0 21.895-0.184213 21.895-0.552639 21.895-0.947382 21.5529-0.947382 21.2897-0.947382 20.816-0.947382 20.0002-0.973694 19.5529-1.81581L15.0528-10.5791Z" transform="matrix(1 0 -0 1.0155 314.237 559.832)"/></g></g></g><g clip-path="url(#clip7)"><g clip-path="url(#clip8)"><g clip-path="url(#clip9)"><path d="M12.6264-35.0509 5.85865-28.1821 6.76775-27.273 12.6264-32.4246 18.4345-27.273 19.3436-28.1821 12.6264-35.0509Z" transform="matrix(1 0 -0 1.01084 842.467 576.483)"/><path d="M24.5457-19.2426C24.7477-19.9497 24.7477-20.0507 24.7477-20.4043 24.7477-21.3134 24.0407-21.7679 23.2831-21.7679 22.778-21.7679 21.9699-21.4649 21.5154-20.7073 21.4144-20.4548 21.0103-18.8891 20.8083-17.98 20.4548-16.6668 20.1012-15.3032 19.7982-13.9395L17.5254-4.84853C17.3234-4.09095 15.1517-0.555561 11.8183-0.555561 9.24252-0.555561 8.68696-2.77781 8.68696-4.64651 8.68696-6.96977 9.54555-10.1011 11.2627-14.5456 12.0708-16.6163 12.2729-17.1719 12.2729-18.182 12.2729-20.4548 10.6567-22.3235 8.1314-22.3235 3.33337-22.3235 1.46466-15.0002 1.46466-14.5456 1.46466-14.0406 1.96972-14.0406 2.07073-14.0406 2.57579-14.0406 2.62629-14.1416 2.87882-14.9496 4.24247-19.6972 6.26269-21.2123 7.97988-21.2123 8.38392-21.2123 9.24252-21.2123 9.24252-19.5962 9.24252-18.3335 8.73747-17.0204 8.38392-16.0608 6.3637-10.7072 5.4546-7.82836 5.4546-5.4546 5.4546-0.959605 8.63645 0.555561 11.6163 0.555561 13.586 0.555561 15.3032-0.303034 16.7173-1.71719 16.0608 0.909103 15.4547 3.38387 13.4345 6.06067 12.1213 7.77786 10.2021 9.24252 7.87887 9.24252 7.17179 9.24252 4.89904 9.091 4.04045 7.12129 4.84853 7.12129 5.50511 7.12129 6.21219 6.51522 6.71724 6.06067 7.2223 5.40409 7.2223 4.44449 7.2223 2.87882 5.85865 2.6768 5.35359 2.6768 4.19196 2.6768 2.52528 3.48488 2.52528 5.95966 2.52528 8.48494 4.74752 10.3536 7.87887 10.3536 13.0809 10.3536 18.283 5.75764 19.6972 0.0505074L24.5457-19.2426Z" transform="matrix(1 0 -0 1.01084 839 576.483)"/><path d="M11.4547-22.0962C11.4547-22.6619 11.0304-23.4396 10.0405-23.4396 9.08595-23.4396 8.06069-22.5204 8.06069-21.4952 8.06069-20.8942 8.52029-20.1517 9.47485-20.1517 10.5001-20.1517 11.4547-21.1416 11.4547-22.0962ZM4.24247-4.13641C4.10105-3.67681 3.92428-3.25256 3.92428-2.65154 3.92428-0.989911 5.33844 0.353537 7.28291 0.353537 10.8183 0.353537 12.3739-4.5253 12.3739-5.05561 12.3739-5.51521 11.9143-5.51521 11.8082-5.51521 11.3132-5.51521 11.2779-5.30308 11.1365-4.91419 10.3233-2.08588 8.76777-0.636369 7.38896-0.636369 6.68189-0.636369 6.50512-1.09597 6.50512-1.87376 6.50512-2.68689 6.7526-3.35862 7.07078-4.13641 7.42432-5.09096 7.81321-6.04552 8.20211-6.96472 8.52029-7.81321 9.79303-11.0304 9.93445-11.4547 10.0405-11.8082 10.1466-12.2324 10.1466-12.586 10.1466-14.2476 8.73241-15.5911 6.78795-15.5911 3.28791-15.5911 1.66163-10.7829 1.66163-10.1819 1.66163-9.72232 2.15659-9.72232 2.26265-9.72232 2.7576-9.72232 2.79296-9.89909 2.89902-10.288 3.81822-13.3284 5.37379-14.6012 6.68189-14.6012 7.24755-14.6012 7.56573-14.3183 7.56573-13.3638 7.56573-12.5506 7.35361-12.0203 6.46976-9.82839L4.24247-4.13641Z" transform="matrix(1 0 -0 1.01084 863.762 584.14)"/><path d="M34.6973-16.5153C35.4549-16.5153 36.4145-16.5153 36.4145-17.5254 36.4145-18.5355 35.4549-18.5355 34.7478-18.5355L4.495-18.5355C3.78792-18.5355 2.82831-18.5355 2.82831-17.5254 2.82831-16.5153 3.78792-16.5153 4.5455-16.5153L34.6973-16.5153ZM34.7478-6.71724C35.4549-6.71724 36.4145-6.71724 36.4145-7.72735 36.4145-8.73747 35.4549-8.73747 34.6973-8.73747L4.5455-8.73747C3.78792-8.73747 2.82831-8.73747 2.82831-7.72735 2.82831-6.71724 3.78792-6.71724 4.495-6.71724L34.7478-6.71724Z" transform="matrix(1 0 -0 1.01084 894.606 576.483)"/><path d="M46.3136-28.6367C47.5763-30.8589 48.7884-32.6771 51.9702-32.9296 52.4248-32.9801 52.9299-32.9801 52.9299-33.9397 52.9299-34.1418 52.7278-34.4953 52.3238-34.4953 51.1116-34.4953 49.6975-34.3438 48.4348-34.3438 46.7177-34.3438 44.849-34.4953 43.1823-34.4953 42.8792-34.4953 42.2227-34.4953 42.2227-33.5357 42.2227-32.9801 42.6772-32.9296 42.9802-32.9296 44.1924-32.8791 45.9601-32.4751 45.9601-30.9599 45.9601-30.4044 45.7075-30.0003 45.3035-29.2932L31.667-5.50511 29.7983-30.5559C29.7478-31.566 29.6468-32.8791 33.3337-32.9296 34.1923-32.9296 34.6973-32.9296 34.6973-33.9397 34.6973-34.4448 34.1418-34.4953 33.9397-34.4953 31.9195-34.4953 29.7983-34.3438 27.7781-34.3438 26.6164-34.3438 23.6366-34.4953 22.475-34.4953 22.1719-34.4953 21.5154-34.4953 21.5154-33.4852 21.5154-32.9296 22.0204-32.9296 22.7275-32.9296 24.9498-32.9296 25.3033-32.6266 25.4043-31.667L25.7073-27.7781 12.9294-5.50511 11.0102-31.1114C11.0102-31.7175 11.0102-32.8791 14.8486-32.9296 15.3537-32.9296 15.9093-32.9296 15.9093-33.9397 15.9093-34.4953 15.3032-34.4953 15.2022-34.4953 13.182-34.4953 11.0607-34.3438 8.98999-34.3438 7.2223-34.3438 5.40409-34.4953 3.68691-34.4953 3.43438-34.4953 2.77781-34.4953 2.77781-33.5357 2.77781-32.9296 3.23236-32.9296 4.04045-32.9296 6.56572-32.9296 6.61623-32.4751 6.71724-31.0609L8.98999-0.202025C9.0405 0.707078 9.091 1.11112 9.79808 1.11112 10.4042 1.11112 10.5557 0.808088 11.0102 0.0505074L25.8589-25.7073 27.7276-0.202025C27.8286 0.858595 27.9296 1.11112 28.5357 1.11112 29.1922 1.11112 29.4953 0.606069 29.7478 0.151517L46.3136-28.6367Z" transform="matrix(1 0 -0 1.01084 947.917 576.483)"/><path d="M16.8689-15.2527C17.1719-16.5658 18.3335-21.2123 21.8689-21.2123 22.1214-21.2123 23.3336-21.2123 24.3942-20.5558 22.98-20.3032 21.9699-19.0406 21.9699-17.8285 21.9699-17.0204 22.5255-16.0608 23.8891-16.0608 25.0003-16.0608 26.6164-16.9699 26.6164-18.9901 26.6164-21.6164 23.6366-22.3235 21.9194-22.3235 18.9901-22.3235 17.2224-19.6467 16.6163-18.485 15.3537-21.8184 12.6264-22.3235 11.1617-22.3235 5.90915-22.3235 3.03033-15.8082 3.03033-14.5456 3.03033-14.0406 3.53539-14.0406 3.6364-14.0406 4.04045-14.0406 4.19196-14.1416 4.29297-14.5961 6.01016-19.9497 9.34353-21.2123 11.0607-21.2123 12.0203-21.2123 13.788-20.7578 13.788-17.8285 13.788-16.2628 12.9294-12.8789 11.0607-5.80814 10.2526-2.6768 8.48494-0.555561 6.26269-0.555561 5.95966-0.555561 4.79803-0.555561 3.73741-1.21213 5.00005-1.46466 6.11117-2.52528 6.11117-3.93944 6.11117-5.30308 5.00005-5.70713 4.24247-5.70713 2.7273-5.70713 1.46466-4.39399 1.46466-2.77781 1.46466-0.454551 3.98994 0.555561 6.21219 0.555561 9.54555 0.555561 11.3638-2.97983 11.5153-3.28286 12.1213-1.41416 13.9395 0.555561 16.9699 0.555561 22.1719 0.555561 25.0508-5.95966 25.0508-7.2223 25.0508-7.72735 24.5962-7.72735 24.4447-7.72735 23.9902-7.72735 23.8891-7.52533 23.7881-7.17179 22.1214-1.76769 18.6871-0.555561 17.0709-0.555561 15.1012-0.555561 14.2931-2.17174 14.2931-3.88893 14.2931-5.00005 14.5961-6.11117 15.1517-8.33342L16.8689-15.2527Z" transform="matrix(1 0 -0 1.01084 1002.63 576.483)"/><path d="M11.4547-22.0962C11.4547-22.6619 11.0304-23.4396 10.0405-23.4396 9.08595-23.4396 8.06069-22.5204 8.06069-21.4952 8.06069-20.8942 8.52029-20.1517 9.47485-20.1517 10.5001-20.1517 11.4547-21.1416 11.4547-22.0962ZM4.24247-4.13641C4.10105-3.67681 3.92428-3.25256 3.92428-2.65154 3.92428-0.989911 5.33844 0.353537 7.28291 0.353537 10.8183 0.353537 12.3739-4.5253 12.3739-5.05561 12.3739-5.51521 11.9143-5.51521 11.8082-5.51521 11.3132-5.51521 11.2779-5.30308 11.1365-4.91419 10.3233-2.08588 8.76777-0.636369 7.38896-0.636369 6.68189-0.636369 6.50512-1.09597 6.50512-1.87376 6.50512-2.68689 6.7526-3.35862 7.07078-4.13641 7.42432-5.09096 7.81321-6.04552 8.20211-6.96472 8.52029-7.81321 9.79303-11.0304 9.93445-11.4547 10.0405-11.8082 10.1466-12.2324 10.1466-12.586 10.1466-14.2476 8.73241-15.5911 6.78795-15.5911 3.28791-15.5911 1.66163-10.7829 1.66163-10.1819 1.66163-9.72232 2.15659-9.72232 2.26265-9.72232 2.7576-9.72232 2.79296-9.89909 2.89902-10.288 3.81822-13.3284 5.37379-14.6012 6.68189-14.6012 7.24755-14.6012 7.56573-14.3183 7.56573-13.3638 7.56573-12.5506 7.35361-12.0203 6.46976-9.82839L4.24247-4.13641Z" transform="matrix(1 0 -0 1.01084 1031.5 584.14)"/><path d="M20.6568-11.6163 34.7478-11.6163C35.4549-11.6163 36.4145-11.6163 36.4145-12.6264 36.4145-13.6365 35.4549-13.6365 34.7478-13.6365L20.6568-13.6365 20.6568-27.7781C20.6568-28.4851 20.6568-29.4448 19.6467-29.4448 18.6366-29.4448 18.6366-28.4851 18.6366-27.7781L18.6366-13.6365 4.495-13.6365C3.78792-13.6365 2.82831-13.6365 2.82831-12.6264 2.82831-11.6163 3.78792-11.6163 4.495-11.6163L18.6366-11.6163 18.6366 2.52528C18.6366 3.23236 18.6366 4.19196 19.6467 4.19196 20.6568 4.19196 20.6568 3.23236 20.6568 2.52528L20.6568-11.6163Z" transform="matrix(1 0 -0 1.01084 1059.53 576.483)"/><path d="M12.0708-34.4953C12.0708-34.5458 12.0708-35.0509 11.4143-35.0509 10.2526-35.0509 6.56572-34.6468 5.25258-34.5458 4.84853-34.4953 4.29297-34.4448 4.29297-33.5357 4.29297-32.9296 4.74752-32.9296 5.50511-32.9296 7.92937-32.9296 8.03039-32.5761 8.03039-32.071 8.03039-31.7175 7.57584-30.0003 7.32331-28.9397L3.18185-12.4749C2.57579-9.9496 2.37376-9.14151 2.37376-7.37381 2.37376-2.57579 5.05056 0.555561 8.78797 0.555561 14.7476 0.555561 20.9598-6.96977 20.9598-14.2426 20.9598-18.8386 18.283-22.3235 14.2426-22.3235 11.9193-22.3235 9.84859-20.8588 8.33342-19.2931L12.0708-34.4953ZM7.32331-15.4042C7.62634-16.5153 7.62634-16.6163 8.08089-17.1719 10.5557-20.4548 12.8284-21.2123 14.1416-21.2123 15.9598-21.2123 17.3234-19.6972 17.3234-16.4648 17.3234-13.485 15.6567-7.67685 14.7476-5.75764 13.0809-2.37376 10.7577-0.555561 8.78797-0.555561 7.07078-0.555561 5.40409-1.91921 5.40409-5.65663 5.40409-6.61623 5.40409-7.57584 6.21219-10.7577L7.32331-15.4042Z" transform="matrix(1 0 -0 1.01084 1110.04 576.483)"/></g></g></g><g clip-path="url(#clip10)"><g clip-path="url(#clip11)"><g clip-path="url(#clip12)"><path d="M21.2355-34.3515C21.7465-36.3956 21.9169-37.0202 27.2541-37.0202 28.9575-37.0202 29.4117-37.0202 29.4117-38.099 29.4117-38.7803 28.7872-38.7803 28.5033-38.7803 26.6295-38.7803 21.9736-38.61 20.0999-38.61 18.3965-38.61 14.2516-38.7803 12.5482-38.7803 12.1508-38.7803 11.4694-38.7803 11.4694-37.6447 11.4694-37.0202 11.9805-37.0202 13.0593-37.0202 13.1728-37.0202 14.2516-37.0202 15.2169-36.9066 16.2389-36.7931 16.7499-36.7363 16.7499-35.9981 16.7499-35.771 16.6931-35.6007 16.5228-34.9193L8.91436-4.42879C8.34657-2.2144 8.23302-1.76016 3.74744-1.76016 2.78219-1.76016 2.2144-1.76016 2.2144-0.624573 2.2144 0 2.72541 0 3.74744 0L30.0363 0C31.399 0 31.4558 0 31.7965-0.965251L36.282-13.2296C36.5092-13.8542 36.5092-13.9677 36.5092-14.0245 36.5092-14.2516 36.3388-14.6491 35.8278-14.6491 35.3168-14.6491 35.26-14.3652 34.8626-13.4567 32.9321-8.23302 30.4338-1.76016 20.6109-1.76016L15.2737-1.76016C14.4787-1.76016 14.3652-1.76016 14.0245-1.81694 13.4567-1.87372 13.2864-1.9305 13.2864-2.38474 13.2864-2.55507 13.2864-2.66863 13.5703-3.69066L21.2355-34.3515Z" transform="matrix(1 0 -0 1.00389 1229.71 574.75)"/><path d="M18.794 13.6271C18.794 13.4567 18.794 13.3432 17.8287 12.3779 10.7313 5.22371 8.91436-5.5076 8.91436-14.1949 8.91436-24.0745 11.072-33.9541 18.0559-41.0515 18.794-41.7329 18.794-41.8464 18.794-42.0168 18.794-42.4142 18.5669-42.5846 18.2262-42.5846 17.6584-42.5846 12.5482-38.7236 9.19827-31.5126 6.30251-25.2668 5.62116-18.9643 5.62116-14.1949 5.62116-9.76606 6.24573-2.89575 9.36861 3.52033 12.7754 10.5042 17.6584 14.1949 18.2262 14.1949 18.5669 14.1949 18.794 14.0245 18.794 13.6271Z" transform="matrix(1 0 -0 1.00389 1268.35 574.75)"/><path d="M18.9643-17.1474C19.305-18.6236 20.6109-23.8474 24.5855-23.8474 24.8694-23.8474 26.2321-23.8474 27.4245-23.1092 25.8346-22.8253 24.699-21.4058 24.699-20.0431 24.699-19.1347 25.3236-18.0559 26.8567-18.0559 28.1058-18.0559 29.9227-19.0779 29.9227-21.3491 29.9227-24.3016 26.5728-25.0965 24.6423-25.0965 21.3491-25.0965 19.3618-22.0872 18.6804-20.7813 17.2609-24.5287 14.1949-25.0965 12.5482-25.0965 6.64319-25.0965 3.40676-17.772 3.40676-16.3525 3.40676-15.7847 3.97456-15.7847 4.08812-15.7847 4.54235-15.7847 4.71269-15.8982 4.82625-16.4093 6.75675-22.4279 10.5042-23.8474 12.4347-23.8474 13.5135-23.8474 15.5008-23.3363 15.5008-20.0431 15.5008-18.283 14.5355-14.4787 12.4347-6.52963 11.5262-3.00931 9.53894-0.624573 7.04064-0.624573 6.69997-0.624573 5.39405-0.624573 4.20167-1.3627 5.62116-1.64661 6.87031-2.83897 6.87031-4.42879 6.87031-5.96184 5.62116-6.41607 4.76947-6.41607 3.06609-6.41607 1.64661-4.93981 1.64661-3.12287 1.64661-0.511016 4.48558 0.624573 6.98387 0.624573 10.7313 0.624573 12.7754-3.34999 12.9457-3.69066 13.6271-1.58982 15.6711 0.624573 19.0779 0.624573 24.9262 0.624573 28.1626-6.69997 28.1626-8.11946 28.1626-8.68725 27.6516-8.68725 27.4812-8.68725 26.9702-8.68725 26.8567-8.46013 26.7431-8.06268 24.8694-1.98728 21.0084-0.624573 19.1914-0.624573 16.977-0.624573 16.0686-2.44152 16.0686-4.37201 16.0686-5.62116 16.4093-6.87031 17.0338-9.36861L18.9643-17.1474Z" transform="matrix(1 0 -0 1.00389 1290.43 574.75)"/><path d="M11.5262-0.0567815C11.5262-3.80422 10.1067-6.01862 7.89234-6.01862 6.01862-6.01862 4.88303-4.59913 4.88303-3.00931 4.88303-1.47627 6.01862 0 7.89234 0 8.57369 0 9.31182-0.22712 9.87962-0.738131 10.05-0.851694 10.1067-0.908469 10.1635-0.908469 10.2203-0.908469 10.2771-0.851694 10.2771-0.0567815 10.2771 4.1449 8.28979 7.55166 6.41607 9.42538 5.7915 10.05 5.7915 10.1635 5.7915 10.3338 5.7915 10.7313 6.07539 10.9584 6.3593 10.9584 6.98387 10.9584 11.5262 6.58641 11.5262-0.0567815Z" transform="matrix(1 0 -0 1.00389 1322.88 574.75)"/><path d="M27.5948-21.633C27.8219-22.4279 27.8219-22.5414 27.8219-22.9389 27.8219-23.9609 27.027-24.4719 26.1753-24.4719 25.6075-24.4719 24.699-24.1312 24.188-23.2796 24.0745-22.9957 23.6202-21.2355 23.3931-20.2135 22.9957-18.7372 22.5982-17.2042 22.2575-15.6711L19.7025-5.45082C19.4753-4.59913 17.0338-0.624573 13.2864-0.624573 10.3906-0.624573 9.76606-3.12287 9.76606-5.22371 9.76606-7.83556 10.7313-11.3559 12.6618-16.3525 13.5703-18.6804 13.7974-19.305 13.7974-20.4406 13.7974-22.9957 11.9805-25.0965 9.14149-25.0965 3.74744-25.0965 1.64661-16.8635 1.64661-16.3525 1.64661-15.7847 2.2144-15.7847 2.32795-15.7847 2.89575-15.7847 2.95253-15.8982 3.23642-16.8067 4.76947-22.144 7.04064-23.8474 8.97115-23.8474 9.42538-23.8474 10.3906-23.8474 10.3906-22.0304 10.3906-20.6109 9.82284-19.1347 9.42538-18.0559 7.15421-12.0372 6.13218-8.80081 6.13218-6.13218 6.13218-1.07881 9.70928 0.624573 13.0593 0.624573 15.2737 0.624573 17.2042-0.340677 18.794-1.9305 18.0559 1.02203 17.3745 3.80422 15.1033 6.81353 13.6271 8.74403 11.4694 10.3906 8.85759 10.3906 8.06268 10.3906 5.5076 10.2203 4.54235 8.0059 5.45082 8.0059 6.18896 8.0059 6.98387 7.32455 7.55166 6.81353 8.11946 6.07539 8.11946 4.99659 8.11946 3.23642 6.58641 3.00931 6.01862 3.00931 4.71269 3.00931 2.83897 3.91778 2.83897 6.69997 2.83897 9.53894 5.33726 11.6398 8.85759 11.6398 14.7059 11.6398 20.5541 6.47285 22.144 0.0567815L27.5948-21.633Z" transform="matrix(1 0 -0 1.00389 1348.12 574.75)"/><path d="M11.5262-0.0567815C11.5262-3.80422 10.1067-6.01862 7.89234-6.01862 6.01862-6.01862 4.88303-4.59913 4.88303-3.00931 4.88303-1.47627 6.01862 0 7.89234 0 8.57369 0 9.31182-0.22712 9.87962-0.738131 10.05-0.851694 10.1067-0.908469 10.1635-0.908469 10.2203-0.908469 10.2771-0.851694 10.2771-0.0567815 10.2771 4.1449 8.28979 7.55166 6.41607 9.42538 5.7915 10.05 5.7915 10.1635 5.7915 10.3338 5.7915 10.7313 6.07539 10.9584 6.3593 10.9584 6.98387 10.9584 11.5262 6.58641 11.5262-0.0567815Z" transform="matrix(1 0 -0 1.00389 1377.99 574.75)"/><path d="M52.0667-32.1939C53.4862-34.6922 54.8489-36.7363 58.426-37.0202 58.937-37.077 59.5048-37.077 59.5048-38.1558 59.5048-38.3829 59.2777-38.7803 58.8235-38.7803 57.4608-38.7803 55.8709-38.61 54.4515-38.61 52.521-38.61 50.4201-38.7803 48.5464-38.7803 48.2057-38.7803 47.4676-38.7803 47.4676-37.7015 47.4676-37.077 47.9786-37.0202 48.3193-37.0202 49.682-36.9634 51.6693-36.5092 51.6693-34.8058 51.6693-34.1812 51.3854-33.727 50.9311-32.9321L35.6007-6.18896 33.4999-34.3515C33.4431-35.4871 33.3295-36.9634 37.4744-37.0202 38.4397-37.0202 39.0075-37.0202 39.0075-38.1558 39.0075-38.7236 38.3829-38.7803 38.1558-38.7803 35.8846-38.7803 33.4999-38.61 31.2287-38.61 29.9227-38.61 26.5728-38.7803 25.2668-38.7803 24.9262-38.7803 24.188-38.7803 24.188-37.6447 24.188-37.0202 24.7558-37.0202 25.5507-37.0202 28.049-37.0202 28.4465-36.6795 28.56-35.6007L28.9007-31.2287 14.5355-6.18896 12.3779-34.9761C12.3779-35.6575 12.3779-36.9634 16.6931-37.0202 17.2609-37.0202 17.8855-37.0202 17.8855-38.1558 17.8855-38.7803 17.2042-38.7803 17.0906-38.7803 14.8194-38.7803 12.4347-38.61 10.1067-38.61 8.11946-38.61 6.07539-38.7803 4.1449-38.7803 3.861-38.7803 3.12287-38.7803 3.12287-37.7015 3.12287-37.0202 3.63388-37.0202 4.54235-37.0202 7.38132-37.0202 7.4381-36.5092 7.55166-34.9193L10.1067-0.22712C10.1635 0.794912 10.2203 1.24915 11.0152 1.24915 11.6966 1.24915 11.8669 0.908469 12.3779 0.0567815L29.0711-28.9007 31.1719-0.22712C31.2855 0.965251 31.399 1.24915 32.0804 1.24915 32.8185 1.24915 33.1592 0.681355 33.4431 0.170339L52.0667-32.1939Z" transform="matrix(1 0 -0 1.00389 1403.23 574.75)"/><path d="M11.5262-0.0567815C11.5262-3.80422 10.1067-6.01862 7.89234-6.01862 6.01862-6.01862 4.88303-4.59913 4.88303-3.00931 4.88303-1.47627 6.01862 0 7.89234 0 8.57369 0 9.31182-0.22712 9.87962-0.738131 10.05-0.851694 10.1067-0.908469 10.1635-0.908469 10.2203-0.908469 10.2771-0.851694 10.2771-0.0567815 10.2771 4.1449 8.28979 7.55166 6.41607 9.42538 5.7915 10.05 5.7915 10.1635 5.7915 10.3338 5.7915 10.7313 6.07539 10.9584 6.3593 10.9584 6.98387 10.9584 11.5262 6.58641 11.5262-0.0567815Z" transform="matrix(1 0 -0 1.00389 1455.28 574.75)"/><path d="M13.5703-38.7803C13.5703-38.8371 13.5703-39.4049 12.8321-39.4049 11.5262-39.4049 7.38132-38.9507 5.90506-38.8371 5.45082-38.7803 4.82625-38.7236 4.82625-37.7015 4.82625-37.0202 5.33726-37.0202 6.18896-37.0202 8.91436-37.0202 9.02793-36.6227 9.02793-36.0549 9.02793-35.6575 8.51691-33.727 8.23302-32.5346L3.5771-14.0245C2.89575-11.1855 2.66863-10.2771 2.66863-8.28979 2.66863-2.89575 5.67794 0.624573 9.87962 0.624573 16.5796 0.624573 23.5635-7.83556 23.5635-16.0118 23.5635-21.1787 20.5541-25.0965 16.0118-25.0965 13.3999-25.0965 11.072-23.4499 9.36861-21.6897L13.5703-38.7803ZM8.23302-17.3177C8.57369-18.5669 8.57369-18.6804 9.0847-19.305 11.8669-22.9957 14.422-23.8474 15.8982-23.8474 17.9423-23.8474 19.4753-22.144 19.4753-18.5101 19.4753-15.1601 17.6016-8.63047 16.5796-6.47285 14.7059-2.66863 12.094-0.624573 9.87962-0.624573 7.94912-0.624573 6.07539-2.15762 6.07539-6.3593 6.07539-7.4381 6.07539-8.51691 6.98387-12.094L8.23302-17.3177Z" transform="matrix(1 0 -0 1.00389 1480.51 574.75)"/><path d="M16.4093-14.1949C16.4093-18.6236 15.7847-25.494 12.6618-31.91 9.25504-38.8939 4.37201-42.5846 3.80422-42.5846 3.46354-42.5846 3.23642-42.3574 3.23642-42.0168 3.23642-41.8464 3.23642-41.7329 4.31524-40.7108 9.87962-35.0897 13.116-26.0618 13.116-14.1949 13.116-4.48558 11.0152 5.5076 3.97456 12.6618 3.23642 13.3432 3.23642 13.4567 3.23642 13.6271 3.23642 13.9677 3.46354 14.1949 3.80422 14.1949 4.37201 14.1949 9.48216 10.3338 12.8321 3.12287 15.7279-3.12287 16.4093-9.42538 16.4093-14.1949Z" transform="matrix(1 0 -0 1.00389 1504.88 574.75)"/></g></g></g><g clip-path="url(#clip13)"><g clip-path="url(#clip14)"><g clip-path="url(#clip15)"><path d="M11.217-24.418C11.217-25.3336 11.217-25.4099 10.3395-25.4099 7.97399-22.9681 4.61652-22.9681 3.39562-22.9681L3.39562-21.7854C4.15868-21.7854 6.40972-21.7854 8.39367-22.7774L8.39367-3.01409C8.39367-1.64058 8.27921-1.18275 4.84544-1.18275L3.62454-1.18275 3.62454 0C4.9599-0.114459 8.27921-0.114459 9.80534-0.114459 11.3315-0.114459 14.6508-0.114459 15.9861 0L15.9861-1.18275 14.7652-1.18275C11.3315-1.18275 11.217-1.60243 11.217-3.01409L11.217-24.418Z" transform="matrix(1 0 -0 1.00237 1573.32 491.738)"/><path d="M705.498 335.037 728.399 335.037 728.399 336.563 705.498 336.563Z" transform="matrix(1 0 -0 1.00237 865.914 171.454)"/><path d="M3.35747-2.25103C3.24301-1.67873 3.01409-0.801213 3.01409-0.610448 3.01409 0.0763051 3.54824 0.419684 4.12053 0.419684 4.57837 0.419684 5.26512 0.114459 5.5322-0.648603 5.57035-0.724908 6.02818-2.5181 6.2571-3.47193L7.09647-6.90571C7.32539-7.74507 7.55431-8.58444 7.74507-9.46196 7.89769-10.1106 8.20291-11.217 8.24106-11.3696 8.81336-12.5524 10.8355-16.0243 14.46-16.0243 16.1769-16.0243 16.5203-14.6126 16.5203-13.3536 16.5203-10.9881 14.6508-6.10449 14.0403-4.46391 13.697-3.58639 13.6588-3.12855 13.6588-2.70887 13.6588-0.915672 14.9942 0.419684 16.7873 0.419684 20.3737 0.419684 21.7854-5.15066 21.7854-5.45589 21.7854-5.83742 21.442-5.83742 21.3276-5.83742 20.946-5.83742 20.946-5.72296 20.7553-5.15066 19.9922-2.55626 18.7332-0.419684 16.8637-0.419684 16.2151-0.419684 15.948-0.801213 15.948-1.67873 15.948-2.63256 16.2914-3.54824 16.6347-4.3876 17.3596-6.40972 18.9621-10.6066 18.9621-12.7813 18.9621-15.3375 17.3215-16.8637 14.5745-16.8637 11.1407-16.8637 9.2712-14.4219 8.62259-13.5443 8.43183-15.6809 6.86755-16.8637 5.11251-16.8637 3.35747-16.8637 2.63256-15.3757 2.25103-14.6889 1.64058-13.3917 1.10644-11.1407 1.10644-10.9881 1.10644-10.6066 1.48797-10.6066 1.56427-10.6066 1.94581-10.6066 1.98396-10.6447 2.21288-11.4841 2.86148-14.1929 3.62454-16.0243 4.99805-16.0243 5.76111-16.0243 6.1808-15.5283 6.1808-14.2692 6.1808-13.468 6.06634-13.0483 5.57035-11.0644L3.35747-2.25103Z" transform="matrix(1 0 -0 1.00237 1571.41 543.843)"/><path d="M3.25827-1.68255C3.15144-1.33536 2.9912-0.667678 2.9912-0.587559 2.9912 0 3.47193 0.26707 3.89924 0.26707 4.37997 0.26707 4.80729-0.0801232 4.94082-0.320485 5.07436-0.560847 5.28801-1.41548 5.42155-1.97633 5.55508-2.48376 5.84887-3.71229 6.00911-4.37997 6.16935-4.96753 6.32959-5.55508 6.46313-6.16935 6.75691-7.26434 6.81032-7.478 7.58483-8.57299 8.33263-9.64128 9.58786-11.0301 11.5909-11.0301 13.1399-11.0301 13.1666-9.66799 13.1666-9.16055 13.1666-7.55812 12.0182-4.59363 11.5909-3.47193 11.2971-2.72413 11.1903-2.48376 11.1903-2.02974 11.1903-0.614266 12.3654 0.26707 13.7275 0.26707 16.3982 0.26707 17.5733-3.41852 17.5733-3.81912 17.5733-4.16631 17.2261-4.16631 17.146-4.16631 16.7721-4.16631 16.7454-4.00607 16.6385-3.71229 16.0243-1.57572 14.8759-0.480728 13.8076-0.480728 13.2467-0.480728 13.1399-0.854628 13.1399-1.41548 13.1399-2.02974 13.2734-2.37693 13.7542-3.57876 14.0747-4.40668 15.1697-7.23764 15.1697-8.73324 15.1697-11.3238 13.1132-11.7779 11.6977-11.7779 9.48104-11.7779 7.98544-10.4158 7.18422-9.3475 6.99727-11.1903 5.42155-11.7779 4.32656-11.7779 3.17815-11.7779 2.56388-10.9499 2.21669-10.3357 1.62914-9.3475 1.25524-7.82519 1.25524-7.69166 1.25524-7.34446 1.62914-7.34446 1.70926-7.34446 2.08316-7.34446 2.10986-7.42459 2.29681-8.14568 2.69742-9.7214 3.20486-11.0301 4.24644-11.0301 4.94082-11.0301 5.12777-10.4425 5.12777-9.7214 5.12777-9.21397 4.88741-8.2258 4.70046-7.50471 4.51351-6.78361 4.24644-5.68862 4.1129-5.10107L3.25827-1.68255Z" transform="matrix(1 0 -0 1.00237 1623.37 469.806)"/><path d="M48.3018 53.4143 52.9183 41.2053 51.9645 41.2053C50.4765 45.1732 46.4323 47.7676 42.0447 48.9122 41.2435 49.103 37.5045 50.095 30.1791 50.095L7.17277 50.095 26.5927 27.3176C26.8598 27.0124 26.9361 26.8979 26.9361 26.7071 26.9361 26.6308 26.9361 26.5164 26.669 26.1348L8.88966 1.83135 29.7975 1.83135C34.9101 1.83135 38.382 2.36549 38.7254 2.4418 40.7856 2.74702 44.1049 3.39562 47.119 5.30328 48.0729 5.91372 50.6673 7.63061 51.9645 10.721L52.9183 10.721 48.3018 0 3.20486 0C2.32734 0 2.28918 0.0381544 2.17472 0.26707 2.13657 0.381529 2.13657 1.10644 2.13657 1.52612L22.3195 29.1489 2.55626 52.3079C2.17472 52.7657 2.17472 52.9565 2.17472 52.9946 2.17472 53.4143 2.5181 53.4143 3.20486 53.4143L48.3018 53.4143Z" transform="matrix(1 0 -0 1.00237 1605.25 481.279)"/><path d="M8.65312-16.692C8.65312-17.1193 8.33263-17.7068 7.58483-17.7068 6.86374-17.7068 6.08923-17.0125 6.08923-16.2379 6.08923-15.7839 6.43642-15.2231 7.15751-15.2231 7.93202-15.2231 8.65312-15.9709 8.65312-16.692ZM3.20486-3.12474C3.09803-2.77754 2.96449-2.45706 2.96449-2.00304 2.96449-0.747801 4.03278 0.26707 5.50167 0.26707 8.17239 0.26707 9.3475-3.41852 9.3475-3.81912 9.3475-4.16631 9.00031-4.16631 8.92019-4.16631 8.54629-4.16631 8.51958-4.00607 8.41275-3.71229 7.79849-1.57572 6.62337-0.480728 5.58179-0.480728 5.04765-0.480728 4.91411-0.82792 4.91411-1.41548 4.91411-2.02974 5.10107-2.53718 5.34143-3.12474 5.6085-3.84583 5.90228-4.56692 6.19606-5.26131 6.43642-5.90228 7.39788-8.33263 7.50471-8.65312 7.58483-8.92019 7.66495-9.24067 7.66495-9.50774 7.66495-10.763 6.59666-11.7779 5.12777-11.7779 2.48376-11.7779 1.25524-8.14568 1.25524-7.69166 1.25524-7.34446 1.62914-7.34446 1.70926-7.34446 2.08316-7.34446 2.10986-7.478 2.18999-7.77178 2.88437-10.0686 4.05949-11.0301 5.04765-11.0301 5.47497-11.0301 5.71533-10.8164 5.71533-10.0953 5.71533-9.48104 5.55508-9.08043 4.88741-7.42459L3.20486-3.12474Z" transform="matrix(1 0 -0 1.00237 1608.09 562.732)"/><path d="M20.5111-8.9736C20.9117-8.9736 21.526-8.9736 21.526-9.64128 21.526-10.2823 20.885-10.2823 20.5378-10.2823L2.85767-10.2823C2.51047-10.2823 1.8695-10.2823 1.8695-9.64128 1.8695-8.9736 2.48376-8.9736 2.88437-8.9736L20.5111-8.9736ZM20.5378-3.09803C20.885-3.09803 21.526-3.09803 21.526-3.739 21.526-4.40668 20.9117-4.40668 20.5111-4.40668L2.88437-4.40668C2.48376-4.40668 1.8695-4.40668 1.8695-3.739 1.8695-3.09803 2.51047-3.09803 2.85767-3.09803L20.5378-3.09803Z" transform="matrix(1 0 -0 1.00237 1618.89 562.732)"/><path d="M8.94689-16.9857C8.94689-17.7068 8.89348-17.7335 8.14568-17.7335 6.43642-16.051 4.00607-16.0243 2.91108-16.0243L2.91108-15.0628C3.55205-15.0628 5.31472-15.0628 6.78361-15.8106L6.78361-2.18999C6.78361-1.30865 6.78361-0.961459 4.1129-0.961459L3.09803-0.961459 3.09803 0C3.57876-0.0267077 6.86374-0.106827 7.8519-0.106827 8.67982-0.106827 12.0449-0.0267077 12.6325 0L12.6325-0.961459 11.6176-0.961459C8.94689-0.961459 8.94689-1.30865 8.94689-2.18999L8.94689-16.9857Z" transform="matrix(1 0 -0 1.00237 1642.31 562.732)"/><path d="M6.56233-27.3176C6.56233-27.928 6.56233-28.6148 5.79926-28.6148 5.0362-28.6148 5.0362-27.7754 5.0362-27.2031L5.0362 8.1266C5.0362 8.73705 5.0362 9.53827 5.79926 9.53827 6.56233 9.53827 6.56233 8.85151 6.56233 8.24106L6.56233-27.3176ZM14.0022-27.2031C14.0022-27.8136 14.0022-28.6148 13.2391-28.6148 12.4761-28.6148 12.4761-27.928 12.4761-27.3176L12.4761 8.24106C12.4761 8.85151 12.4761 9.53827 13.2391 9.53827 14.0022 9.53827 14.0022 8.6989 14.0022 8.1266L14.0022-27.2031Z" transform="matrix(1 0 -0 1.00237 1666.72 517.61)"/><path d="M18.5424-14.5363C18.695-15.0705 18.695-15.1468 18.695-15.4138 18.695-16.1006 18.1609-16.444 17.5886-16.444 17.207-16.444 16.5966-16.2151 16.2532-15.6428 16.1769-15.452 15.8717-14.2692 15.7191-13.5825 15.452-12.5905 15.1849-11.5604 14.956-10.5302L13.2391-3.66269C13.0865-3.0904 11.4459-0.419684 8.92782-0.419684 6.98201-0.419684 6.56233-2.09842 6.56233-3.51008 6.56233-5.26512 7.21093-7.63061 8.50813-10.9881 9.11858-12.5524 9.2712-12.972 9.2712-13.7351 9.2712-15.452 8.0503-16.8637 6.14264-16.8637 2.5181-16.8637 1.10644-11.3315 1.10644-10.9881 1.10644-10.6066 1.48797-10.6066 1.56427-10.6066 1.94581-10.6066 1.98396-10.6829 2.17472-11.2933 3.20486-14.8797 4.73098-16.0243 6.02818-16.0243 6.33341-16.0243 6.98201-16.0243 6.98201-14.8034 6.98201-13.8496 6.60048-12.8576 6.33341-12.1327 4.80729-8.08845 4.12053-5.91372 4.12053-4.12053 4.12053-0.724908 6.52417 0.419684 8.7752 0.419684 10.2632 0.419684 11.5604-0.228919 12.6287-1.29721 12.1327 0.686757 11.6748 2.55626 10.1487 4.57837 9.15674 5.87557 7.70692 6.98201 5.95188 6.98201 5.41774 6.98201 3.70085 6.86755 3.05224 5.37958 3.66269 5.37958 4.15868 5.37958 4.69283 4.92175 5.07436 4.57837 5.45589 4.08238 5.45589 3.35747 5.45589 2.17472 4.42575 2.02211 4.04423 2.02211 3.1667 2.02211 1.90765 2.63256 1.90765 4.50206 1.90765 6.40972 3.58639 7.82138 5.95188 7.82138 9.88164 7.82138 13.8114 4.34945 14.8797 0.0381544L18.5424-14.5363Z" transform="matrix(1 0 -0 1.00237 1685.8 517.61)"/><path d="M8.65312-16.692C8.65312-17.1193 8.33263-17.7068 7.58483-17.7068 6.86374-17.7068 6.08923-17.0125 6.08923-16.2379 6.08923-15.7839 6.43642-15.2231 7.15751-15.2231 7.93202-15.2231 8.65312-15.9709 8.65312-16.692ZM3.20486-3.12474C3.09803-2.77754 2.96449-2.45706 2.96449-2.00304 2.96449-0.747801 4.03278 0.26707 5.50167 0.26707 8.17239 0.26707 9.3475-3.41852 9.3475-3.81912 9.3475-4.16631 9.00031-4.16631 8.92019-4.16631 8.54629-4.16631 8.51958-4.00607 8.41275-3.71229 7.79849-1.57572 6.62337-0.480728 5.58179-0.480728 5.04765-0.480728 4.91411-0.82792 4.91411-1.41548 4.91411-2.02974 5.10107-2.53718 5.34143-3.12474 5.6085-3.84583 5.90228-4.56692 6.19606-5.26131 6.43642-5.90228 7.39788-8.33263 7.50471-8.65312 7.58483-8.92019 7.66495-9.24067 7.66495-9.50774 7.66495-10.763 6.59666-11.7779 5.12777-11.7779 2.48376-11.7779 1.25524-8.14568 1.25524-7.69166 1.25524-7.34446 1.62914-7.34446 1.70926-7.34446 2.08316-7.34446 2.10986-7.478 2.18999-7.77178 2.88437-10.0686 4.05949-11.0301 5.04765-11.0301 5.47497-11.0301 5.71533-10.8164 5.71533-10.0953 5.71533-9.48104 5.55508-9.08043 4.88741-7.42459L3.20486-3.12474Z" transform="matrix(1 0 -0 1.00237 1704.5 523.347)"/><path d="M25.1429-8.7752C25.7915-8.7752 26.4782-8.7752 26.4782-9.53827 26.4782-10.3013 25.7915-10.3013 25.1429-10.3013L4.50206-10.3013C3.85346-10.3013 3.1667-10.3013 3.1667-9.53827 3.1667-8.7752 3.85346-8.7752 4.50206-8.7752L25.1429-8.7752Z" transform="matrix(1 0 -0 1.00237 1725.68 517.61)"/><path d="M9.53827-26.4782 4.42575-21.2894 5.11251-20.6027 9.53827-24.4943 13.9259-20.6027 14.6126-21.2894 9.53827-26.4782Z" transform="matrix(1 0 -0 1.00237 1766.45 517.61)"/><path d="M18.5424-14.5363C18.695-15.0705 18.695-15.1468 18.695-15.4138 18.695-16.1006 18.1609-16.444 17.5886-16.444 17.207-16.444 16.5966-16.2151 16.2532-15.6428 16.1769-15.452 15.8717-14.2692 15.7191-13.5825 15.452-12.5905 15.1849-11.5604 14.956-10.5302L13.2391-3.66269C13.0865-3.0904 11.4459-0.419684 8.92782-0.419684 6.98201-0.419684 6.56233-2.09842 6.56233-3.51008 6.56233-5.26512 7.21093-7.63061 8.50813-10.9881 9.11858-12.5524 9.2712-12.972 9.2712-13.7351 9.2712-15.452 8.0503-16.8637 6.14264-16.8637 2.5181-16.8637 1.10644-11.3315 1.10644-10.9881 1.10644-10.6066 1.48797-10.6066 1.56427-10.6066 1.94581-10.6066 1.98396-10.6829 2.17472-11.2933 3.20486-14.8797 4.73098-16.0243 6.02818-16.0243 6.33341-16.0243 6.98201-16.0243 6.98201-14.8034 6.98201-13.8496 6.60048-12.8576 6.33341-12.1327 4.80729-8.08845 4.12053-5.91372 4.12053-4.12053 4.12053-0.724908 6.52417 0.419684 8.7752 0.419684 10.2632 0.419684 11.5604-0.228919 12.6287-1.29721 12.1327 0.686757 11.6748 2.55626 10.1487 4.57837 9.15674 5.87557 7.70692 6.98201 5.95188 6.98201 5.41774 6.98201 3.70085 6.86755 3.05224 5.37958 3.66269 5.37958 4.15868 5.37958 4.69283 4.92175 5.07436 4.57837 5.45589 4.08238 5.45589 3.35747 5.45589 2.17472 4.42575 2.02211 4.04423 2.02211 3.1667 2.02211 1.90765 2.63256 1.90765 4.50206 1.90765 6.40972 3.58639 7.82138 5.95188 7.82138 9.88164 7.82138 13.8114 4.34945 14.8797 0.0381544L18.5424-14.5363Z" transform="matrix(1 0 -0 1.00237 1763.83 517.61)"/><path d="M8.65312-16.692C8.65312-17.1193 8.33263-17.7068 7.58483-17.7068 6.86374-17.7068 6.08923-17.0125 6.08923-16.2379 6.08923-15.7839 6.43642-15.2231 7.15751-15.2231 7.93202-15.2231 8.65312-15.9709 8.65312-16.692ZM3.20486-3.12474C3.09803-2.77754 2.96449-2.45706 2.96449-2.00304 2.96449-0.747801 4.03278 0.26707 5.50167 0.26707 8.17239 0.26707 9.3475-3.41852 9.3475-3.81912 9.3475-4.16631 9.00031-4.16631 8.92019-4.16631 8.54629-4.16631 8.51958-4.00607 8.41275-3.71229 7.79849-1.57572 6.62337-0.480728 5.58179-0.480728 5.04765-0.480728 4.91411-0.82792 4.91411-1.41548 4.91411-2.02974 5.10107-2.53718 5.34143-3.12474 5.6085-3.84583 5.90228-4.56692 6.19606-5.26131 6.43642-5.90228 7.39788-8.33263 7.50471-8.65312 7.58483-8.92019 7.66495-9.24067 7.66495-9.50774 7.66495-10.763 6.59666-11.7779 5.12777-11.7779 2.48376-11.7779 1.25524-8.14568 1.25524-7.69166 1.25524-7.34446 1.62914-7.34446 1.70926-7.34446 2.08316-7.34446 2.10986-7.478 2.18999-7.77178 2.88437-10.0686 4.05949-11.0301 5.04765-11.0301 5.47497-11.0301 5.71533-10.8164 5.71533-10.0953 5.71533-9.48104 5.55508-9.08043 4.88741-7.42459L3.20486-3.12474Z" transform="matrix(1 0 -0 1.00237 1782.54 523.347)"/><path d="M6.56233-27.3176C6.56233-27.928 6.56233-28.6148 5.79926-28.6148 5.0362-28.6148 5.0362-27.7754 5.0362-27.2031L5.0362 8.1266C5.0362 8.73705 5.0362 9.53827 5.79926 9.53827 6.56233 9.53827 6.56233 8.85151 6.56233 8.24106L6.56233-27.3176ZM14.0022-27.2031C14.0022-27.8136 14.0022-28.6148 13.2391-28.6148 12.4761-28.6148 12.4761-27.928 12.4761-27.3176L12.4761 8.24106C12.4761 8.85151 12.4761 9.53827 13.2391 9.53827 14.0022 9.53827 14.0022 8.6989 14.0022 8.1266L14.0022-27.2031Z" transform="matrix(1 0 -0 1.00237 1795.24 517.61)"/><path d="M13.4871-4.8607 12.5791-4.8607C12.4989-4.27314 12.2319-2.69742 11.8847-2.43035 11.671-2.27011 9.61457-2.27011 9.24067-2.27011L4.32656-2.27011C7.13081-4.75387 8.06556-5.50167 9.66799-6.75691 11.6443-8.33263 13.4871-9.98847 13.4871-12.5257 13.4871-15.7572 10.6561-17.7335 7.23764-17.7335 3.92595-17.7335 1.68255-15.41 1.68255-12.953 1.68255-11.5909 2.83096-11.4574 3.09803-11.4574 3.739-11.4574 4.51351-11.9114 4.51351-12.8728 4.51351-13.3536 4.32656-14.2883 2.93778-14.2883 3.76571-16.1845 5.58179-16.7721 6.83703-16.7721 9.50774-16.7721 10.8965-14.6889 10.8965-12.5257 10.8965-10.2021 9.24067-8.35933 8.38604-7.39788L1.94962-1.04158C1.68255-0.801213 1.68255-0.747801 1.68255 0L12.6859 0 13.4871-4.8607Z" transform="matrix(1 0 -0 1.00237 1814.32 501.82)"/><path d="M13.4871-4.8607 12.5791-4.8607C12.4989-4.27314 12.2319-2.69742 11.8847-2.43035 11.671-2.27011 9.61457-2.27011 9.24067-2.27011L4.32656-2.27011C7.13081-4.75387 8.06556-5.50167 9.66799-6.75691 11.6443-8.33263 13.4871-9.98847 13.4871-12.5257 13.4871-15.7572 10.6561-17.7335 7.23764-17.7335 3.92595-17.7335 1.68255-15.41 1.68255-12.953 1.68255-11.5909 2.83096-11.4574 3.09803-11.4574 3.739-11.4574 4.51351-11.9114 4.51351-12.8728 4.51351-13.3536 4.32656-14.2883 2.93778-14.2883 3.76571-16.1845 5.58179-16.7721 6.83703-16.7721 9.50774-16.7721 10.8965-14.6889 10.8965-12.5257 10.8965-10.2021 9.24067-8.35933 8.38604-7.39788L1.94962-1.04158C1.68255-0.801213 1.68255-0.747801 1.68255 0L12.6859 0 13.4871-4.8607Z" transform="matrix(1 0 -0 1.00237 1814.32 527.065)"/><path d="M31.8197-8.7752C29.7212-7.17277 28.6911-5.6085 28.3859-5.11251 26.669-2.47995 26.3638-0.0763051 26.3638-0.0381544 26.3638 0.419684 26.8216 0.419684 27.1268 0.419684 27.7754 0.419684 27.8136 0.343378 27.9662-0.343378 28.8437-4.08238 31.0947-7.28723 35.406-9.04228 35.8639-9.19489 35.9783-9.2712 35.9783-9.53827 35.9783-9.80534 35.7494-9.9198 35.6731-9.95795 33.9944-10.6066 29.3779-12.5142 27.928-18.9239 27.8136-19.3818 27.7754-19.4962 27.1268-19.4962 26.8216-19.4962 26.3638-19.4962 26.3638-19.0384 26.3638-18.9621 26.7071-16.5584 28.3096-14.0022 29.0726-12.8576 30.1791-11.5222 31.8197-10.3013L3.47193-10.3013C2.78517-10.3013 2.09842-10.3013 2.09842-9.53827 2.09842-8.7752 2.78517-8.7752 3.47193-8.7752L31.8197-8.7752Z" transform="matrix(1 0 -0 1.00237 1842.03 517.61)"/><path d="M4.19684-13.1247 4.19684-2.89963C4.19684-1.18275 3.77715-1.18275 1.2209-1.18275L1.2209 0C2.55626-0.0381544 4.50206-0.114459 5.5322-0.114459 6.52417-0.114459 8.50813-0.0381544 9.80534 0L9.80534-1.18275C7.24908-1.18275 6.8294-1.18275 6.8294-2.89963L6.8294-9.9198C6.8294-13.8877 9.53827-16.0243 11.9801-16.0243 14.3837-16.0243 14.8034-13.964 14.8034-11.7893L14.8034-2.89963C14.8034-1.18275 14.3837-1.18275 11.8274-1.18275L11.8274 0C13.1628-0.0381544 15.1086-0.114459 16.1387-0.114459 17.1307-0.114459 19.1147-0.0381544 20.4119 0L20.4119-1.18275C17.8556-1.18275 17.436-1.18275 17.436-2.89963L17.436-9.9198C17.436-13.8877 20.1448-16.0243 22.5866-16.0243 24.9903-16.0243 25.4099-13.964 25.4099-11.7893L25.4099-2.89963C25.4099-1.18275 24.9903-1.18275 22.434-1.18275L22.434 0C23.7694-0.0381544 25.7152-0.114459 26.7453-0.114459 27.7373-0.114459 29.7212-0.0381544 31.0184 0L31.0184-1.18275C29.0345-1.18275 28.0807-1.18275 28.0425-2.32734L28.0425-9.61457C28.0425-12.8957 28.0425-14.0785 26.8598-15.452 26.3256-16.1006 25.0666-16.8637 22.8537-16.8637 19.6488-16.8637 17.9701-14.5745 17.3215-13.1247 16.7873-16.444 13.964-16.8637 12.2471-16.8637 9.46196-16.8637 7.66877-15.2231 6.60048-12.8576L6.60048-16.8637 1.2209-16.444 1.2209-15.2612C3.89161-15.2612 4.19684-14.9942 4.19684-13.1247Z" transform="matrix(1 0 -0 1.00237 1890.78 517.61)"/><path d="M6.75309-16.8637 1.41166-16.444 1.41166-15.2612C3.89161-15.2612 4.23499-15.0323 4.23499-13.1628L4.23499-2.89963C4.23499-1.18275 3.81531-1.18275 1.25905-1.18275L1.25905 0C2.47995-0.0381544 4.54021-0.114459 5.45589-0.114459 6.79125-0.114459 8.1266-0.0381544 9.42381 0L9.42381-1.18275C6.90571-1.18275 6.75309-1.37351 6.75309-2.86148L6.75309-16.8637ZM6.90571-23.5023C6.90571-24.7232 5.95188-25.5244 4.88359-25.5244 3.70085-25.5244 2.86148-24.4943 2.86148-23.5023 2.86148-22.4722 3.70085-21.4802 4.88359-21.4802 5.95188-21.4802 6.90571-22.2814 6.90571-23.5023Z" transform="matrix(1 0 -0 1.00237 1922.58 517.61)"/><path d="M4.19684-13.1247 4.19684-2.89963C4.19684-1.18275 3.77715-1.18275 1.2209-1.18275L1.2209 0C2.55626-0.0381544 4.50206-0.114459 5.5322-0.114459 6.52417-0.114459 8.50813-0.0381544 9.80534 0L9.80534-1.18275C7.24908-1.18275 6.8294-1.18275 6.8294-2.89963L6.8294-9.9198C6.8294-13.8877 9.53827-16.0243 11.9801-16.0243 14.3837-16.0243 14.8034-13.964 14.8034-11.7893L14.8034-2.89963C14.8034-1.18275 14.3837-1.18275 11.8274-1.18275L11.8274 0C13.1628-0.0381544 15.1086-0.114459 16.1387-0.114459 17.1307-0.114459 19.1147-0.0381544 20.4119 0L20.4119-1.18275C18.4279-1.18275 17.4741-1.18275 17.436-2.32734L17.436-9.61457C17.436-12.8957 17.436-14.0785 16.2532-15.452 15.7191-16.1006 14.46-16.8637 12.2471-16.8637 9.46196-16.8637 7.66877-15.2231 6.60048-12.8576L6.60048-16.8637 1.2209-16.444 1.2209-15.2612C3.89161-15.2612 4.19684-14.9942 4.19684-13.1247Z" transform="matrix(1 0 -0 1.00237 1933.18 517.61)"/><path d="M27.6686-15.0895 28.1493-15.7839C28.7102-16.505 29.3512-17.1727 30.6598-17.2795 30.9536-17.3062 31.2741-17.3329 31.2741-17.8671 31.2741-18.054 31.1138-18.241 30.9002-18.241 30.2859-18.241 29.5114-18.1342 28.8704-18.1342 27.9357-18.1342 26.7873-18.241 25.9059-18.241 25.7724-18.241 25.3451-18.241 25.3451-17.6534 25.3451-17.3062 25.719-17.2795 25.8258-17.2795 26.4134-17.2528 27.2947-17.0926 27.2947-16.3448 27.2947-16.051 27.0009-15.5703 26.8941-15.3833L19.3627-3.01791 17.8938-16.505C17.8938-17.2528 19.4428-17.2795 19.7633-17.2795 20.1105-17.2795 20.4844-17.2795 20.4844-17.8671 20.4844-17.8938 20.4577-18.241 20.0304-18.241 19.5229-18.241 18.882-18.1876 18.3745-18.1609 17.8404-18.1342 17.146-18.1342 16.6118-18.1342 15.9976-18.1342 14.4219-18.241 13.8076-18.241 13.6741-18.241 13.2734-18.241 13.2734-17.6534 13.2734-17.2795 13.6206-17.2795 13.9678-17.2795 15.1162-17.2795 15.2498-17.0926 15.3299-16.8255 15.3566-16.6653 15.41-15.9175 15.5169-15.0895L8.17239-3.01791 6.75691-16.1044C6.75691-16.2112 6.70349-16.4783 6.70349-16.505 6.70349-17.2795 8.35933-17.2795 8.57299-17.2795 8.92019-17.2795 9.29409-17.2795 9.29409-17.8671 9.29409-17.9739 9.21397-18.241 8.86677-18.241 8.09227-18.241 6.19606-18.1342 5.42155-18.1342 4.54021-18.1342 3.41852-18.241 2.6173-18.241 2.35023-18.241 2.08316-18.1342 2.08316-17.6801 2.08316-17.2795 2.40364-17.2795 2.83096-17.2795 4.08619-17.2795 4.08619-17.1193 4.16631-16.4516L5.95569-0.18695C6.00911 0.347193 6.03582 0.534143 6.51654 0.534143 6.97056 0.534143 7.15751 0.293777 7.31776 0L15.6504-13.7275 17.1193-0.160243C17.1727 0.400608 17.3062 0.534143 17.7068 0.534143 18.1609 0.534143 18.3211 0.293777 18.5081-0.0267077L27.6686-15.0895Z" transform="matrix(1 0 -0 1.00237 1897.4 542.575)"/><path d="M5.63521-0.427316C5.63521 1.04158 5.36813 2.75083 3.55205 4.46009 3.44522 4.56692 3.3651 4.64704 3.3651 4.78058 3.3651 4.96753 3.57876 5.15448 3.739 5.15448 4.1129 5.15448 6.38301 3.01791 6.38301-0.160243 6.38301-1.81609 5.74203-3.07132 4.51351-3.07132 3.63217-3.07132 2.9912-2.37693 2.9912-1.54901 2.9912-0.694386 3.60546 0 4.54021 0 5.18119 0 5.6085-0.427316 5.63521-0.427316Z" transform="matrix(1 0 -0 1.00237 1925.28 542.575)"/><path d="M7.05069-17.7335C7.07739-17.787 7.15751-18.1342 7.15751-18.1609 7.15751-18.2944 7.05069-18.5348 6.7302-18.5348 6.19606-18.5348 3.97936-18.3211 3.31169-18.2677 3.09803-18.241 2.72413-18.2143 2.72413-17.6534 2.72413-17.2795 3.09803-17.2795 3.41852-17.2795 4.70046-17.2795 4.70046-17.0926 4.70046-16.8789 4.70046-16.692 4.43339-15.6237 4.27314-15.0094L3.65888-12.5524C3.41852-11.6443 1.94962-5.79545 1.89621-5.44826 1.76267-4.80729 1.76267-4.46009 1.76267-4.13961 1.76267-1.44219 3.47193 0.26707 5.68862 0.26707 9.02702 0.26707 12.5791-3.3651 12.5791-7.31776 12.5791-10.4425 10.4158-11.7779 8.57299-11.7779 7.18422-11.7779 6.00911-11.0033 5.20789-10.309L7.05069-17.7335ZM5.71533-0.480728C4.40668-0.480728 3.65888-1.62914 3.65888-3.20486 3.65888-4.19302 3.89924-5.10107 4.64704-8.11897 4.80729-8.62641 4.80729-8.67982 5.31472-9.26738 6.32959-10.4425 7.53141-11.0301 8.49287-11.0301 9.53445-11.0301 10.4425-10.2555 10.4425-8.43946 10.4425-7.34446 9.85494-4.62034 9.05372-3.07132 8.41275-1.76267 7.07739-0.480728 5.71533-0.480728Z" transform="matrix(1 0 -0 1.00237 1934.34 542.575)"/></g></g></g><text font-family="Open Sans,Open Sans_MSFontService,sans-serif" font-weight="400" font-size="83" transform="translate(828.535 355)">Learning</text></g></svg>