<?xml version="1.0" encoding="UTF-8" standalone="no"?>
<!-- Created with Inkscape (http://www.inkscape.org/) -->
<svg
   xmlns:dc="http://purl.org/dc/elements/1.1/"
   xmlns:cc="http://web.resource.org/cc/"
   xmlns:rdf="http://www.w3.org/1999/02/22-rdf-syntax-ns#"
   xmlns:svg="http://www.w3.org/2000/svg"
   xmlns="http://www.w3.org/2000/svg"
   xmlns:sodipodi="http://sodipodi.sourceforge.net/DTD/sodipodi-0.dtd"
   xmlns:inkscape="http://www.inkscape.org/namespaces/inkscape"
   width="290.55859"
   height="266.66995"
   id="svg2"
   sodipodi:version="0.32"
   inkscape:version="0.44"
   sodipodi:docbase="C:\Documents and Settings\Nom\Bureau"
   sodipodi:docname="knapsack_ants.svg"
   version="1.0">
  <defs
     id="defs4" />
  <sodipodi:namedview
     id="base"
     pagecolor="#ffffff"
     bordercolor="#666666"
     borderopacity="1.0"
     inkscape:pageopacity="0.0"
     inkscape:pageshadow="2"
     inkscape:zoom="0.98994949"
     inkscape:cx="26.768175"
     inkscape:cy="102.97499"
     inkscape:document-units="px"
     inkscape:current-layer="layer1"
     inkscape:window-width="1280"
     inkscape:window-height="753"
     inkscape:window-x="-4"
     inkscape:window-y="-4" />
  <metadata
     id="metadata7">
    <rdf:RDF>
      <cc:Work
         rdf:about="">
        <dc:format>image/svg+xml</dc:format>
        <dc:type
           rdf:resource="http://purl.org/dc/dcmitype/StillImage" />
      </cc:Work>
    </rdf:RDF>
  </metadata>
  <g
     inkscape:label="Calque 1"
     inkscape:groupmode="layer"
     id="layer1"
     transform="translate(-362.5089,-27.56893)">
    <path
       style="fill:black;fill-rule:evenodd;stroke:black;stroke-width:0.27217889px;stroke-linecap:butt;stroke-linejoin:miter;stroke-opacity:1"
       d="M 406.21299,139.75175 C 406.14036,139.78118 406.22601,139.80581 406.25703,139.79944 C 406.27507,139.79573 406.27614,139.78155 406.21299,139.75175 z M 406.25703,139.79944 C 406.17027,140.61017 406.01677,141.42292 406.05722,142.23758 C 405.59439,142.74978 404.93479,143.14487 404.59063,143.72455 C 403.60351,144.10094 403.84014,145.06907 405.05769,144.86107 C 405.67063,145.04273 407.01904,145.32748 405.77722,145.60076 C 405.429,145.78316 405.04579,145.95346 404.68102,146.13525 C 404.65429,146.11452 404.62708,146.09832 404.58598,146.0849 C 403.86492,145.63821 403.68329,144.8957 402.89484,144.49028 C 402.39293,144.30987 401.74989,144.40086 401.34908,144.6694 C 400.36061,145.05568 399.14204,145.0331 398.079,144.82117 C 397.79319,144.78322 397.42345,144.78226 397.24625,144.97075 C 398.09338,145.21344 399.0621,145.17517 399.89104,145.45602 C 400.62355,145.54419 401.39762,145.3589 401.91308,144.991 C 402.25762,144.82769 402.79935,144.95685 402.92483,145.23236 C 403.32849,145.63237 403.75851,146.02303 404.15924,146.42444 C 403.83488,146.63158 403.56778,146.86962 403.42282,147.17769 C 402.9044,148.21712 401.6738,147.07856 400.69596,147.484 C 400.29852,147.69293 399.92801,147.97441 399.63175,148.2897 C 398.45475,148.08818 397.29141,147.85548 396.0678,147.89986 C 394.47514,148.00111 392.9727,148.48193 391.6973,149.13349 C 392.16796,149.2458 392.60781,149.0067 392.92419,148.79307 C 393.65826,148.36788 394.58809,147.99707 395.58029,148.0816 C 396.74242,148.11693 397.27337,148.13205 399.49093,148.4526 C 399.21764,148.78223 399.02878,149.13861 398.96778,149.48934 C 399.11242,150.39915 401.23711,149.47 400.62219,150.47914 C 400.40273,151.18978 400.52564,152.08538 399.7243,152.62133 C 399.00285,152.91906 397.22298,153.38008 397.51029,153.85092 C 398.77734,153.20069 400.44701,152.61694 400.74837,151.43052 C 401.17786,150.84781 400.40981,149.68159 401.78621,149.75525 C 403.17824,149.79937 403.01627,148.64704 402.98877,148.07436 C 403.76402,147.67962 405.09313,147.94751 405.80125,148.14986 C 406.14666,148.69465 407.88735,148.38028 407.13722,149.16281 C 406.48076,149.68674 405.59213,150.07918 405.24179,150.76364 C 405.11394,151.22142 404.16467,152.03405 405.04294,152.2698 C 406.01481,151.93398 406.00911,151.01863 406.66021,150.4729 C 407.22755,149.93889 408.05654,149.56768 408.61091,149.02391 C 408.55203,148.34589 407.20549,148.46774 406.60597,148.0882 C 405.31125,147.82679 407.37706,147.48666 407.60201,146.9853 C 407.93631,146.69595 408.57751,146.20395 408.42157,146.90029 C 408.58389,147.44467 407.52502,148.50325 409.06981,148.35125 C 410.14189,148.1292 411.2212,148.12314 412.26861,147.91205 C 413.33132,148.19906 414.40361,148.64517 415.49248,148.78779 C 416.20389,148.35394 414.25971,148.29654 413.9302,147.95033 C 412.92555,147.81418 411.93153,147.44694 410.89251,147.5127 C 410.01866,147.76231 408.34581,147.83196 409.62919,147.03836 C 410.19899,146.4014 408.01764,146.18052 409.42312,145.80335 C 409.96447,145.48015 410.15325,145.4992 409.9845,146.017 C 409.89986,146.89657 411.35241,147.2554 412.38974,147.04448 C 413.6481,146.9914 414.49295,146.28364 415.64063,146.07032 C 416.80614,145.99035 418.00072,146.07705 419.14274,145.84126 C 419.6801,145.74288 420.63386,145.66991 419.55701,145.5408 C 418.46086,145.46415 417.32141,145.52599 416.24621,145.72734 C 414.98701,145.85727 413.66606,145.96526 412.6616,146.56353 C 411.87757,147.06728 411.20566,146.62916 411.24196,145.99877 C 411.08625,145.59513 410.19667,145.27031 411.26674,145.52624 C 413.67181,145.91182 416.30892,144.94689 417.27464,143.38482 C 417.89737,142.76543 418.35461,141.76882 417.34485,141.21372 C 415.95341,140.44839 413.97929,140.84063 412.66382,141.49347 C 411.80512,141.92017 410.91913,142.32528 410.00258,142.68559 C 408.84432,143.1937 409.90227,144.33651 408.87867,144.79331 C 409.41023,144.1421 409.26026,143.29929 408.12156,143.07991 C 407.97153,142.40547 409.94634,142.44177 410.57686,142.04589 C 411.56627,141.46099 412.59603,140.89034 413.50498,140.24916 C 413.72944,139.75144 415.32361,139.22598 414.93565,138.8284 C 414.08621,139.11874 413.26621,139.83322 412.50107,140.33166 C 411.90969,140.91812 411.15668,141.54877 410.02895,141.55773 C 408.62953,141.75978 407.04147,142.50695 407.16182,143.60449 C 407.03232,144.26512 408.75491,144.6569 408.63014,144.85272 C 407.84369,144.83192 406.68553,145.50157 406.7955,144.61392 C 406.59525,143.79516 404.31841,144.87291 405.3558,143.8566 C 406.13446,143.29558 406.47294,142.58334 406.54024,141.81445 C 406.78212,141.14263 406.71536,140.37471 406.57141,139.71934 C 406.45309,139.70057 406.37257,139.8048 406.25703,139.79944 z M 414.69384,138.75056 C 414.66096,138.75785 414.62494,138.7858 414.68929,138.81133 C 414.75653,138.75668 414.72674,138.74328 414.69384,138.75056 z "
       id="path2307" />
    <path
       style="fill:#c87137;fill-rule:evenodd;stroke:black;stroke-width:0.99357879px;stroke-linecap:butt;stroke-linejoin:miter;stroke-opacity:1"
       d="M 514.42334,95.951733 C 516.1131,90.379717 521.8874,82.068697 528.38358,78.778097 C 536.71588,74.557397 537.49789,69.119347 539.35233,61.604447 C 539.87232,59.497287 552.54637,57.893217 554.30974,56.553367 C 560.34475,51.967847 557.06779,44.072627 561.28986,38.369497 C 565.28762,32.969371 572.75732,29.580607 579.23874,28.267355 C 588.46632,26.397676 596.17108,38.006597 600.1791,43.420577 C 604.87013,49.757167 612.02553,52.926837 618.12798,57.563587 C 624.68431,62.545217 623.70046,71.777997 631.09106,77.767877 C 639.76467,84.797617 637.9323,86.625317 644.05414,96.961963 C 647.59362,102.93831 649.11301,107.21217 652.03141,113.12539 C 654.68756,118.50721 646.8674,118.35702 643.05697,122.21733 C 639.87239,125.4436 634.29524,129.1811 630.0939,131.30926 C 625.05353,133.86244 613.76356,130.45643 609.15353,129.28883 C 601.82918,127.43377 600.20907,126.2506 592.20182,128.27862 C 586.58619,129.7009 577.33487,128.55408 572.25861,127.2684 C 565.31515,125.5098 560.73903,123.5412 552.31542,125.24797 C 546.51814,126.42261 541.72236,127.2684 535.36369,127.2684 C 528.32335,127.2684 521.27569,123.60574 514.42334,122.21733 C 507.7035,120.85577 503.63201,116.24592 499.46594,114.13562 C 494.34639,111.54232 504.34938,102.11674 504.45174,102.01303 C 507.30952,99.117833 510.70725,98.210583 514.42334,95.951733 z "
       id="path2311" />
    <path
       id="path2317"
       d="M 615.06166,234.984 C 614.98462,234.96964 615.04349,235.03655 615.07305,235.04791 C 615.09024,235.05451 615.09879,235.04314 615.06166,234.984 z M 615.07305,235.04791 C 614.56297,235.68401 613.99558,236.28583 613.59052,236.99382 C 612.9246,237.17576 612.15606,237.15299 611.55371,237.45574 C 610.51939,237.24068 610.19685,238.18367 611.33449,238.66477 C 611.75285,239.14817 612.73511,240.11485 611.54183,239.67565 C 611.15021,239.64158 610.73564,239.57846 610.33041,239.53496 C 610.31907,239.50309 610.30488,239.47478 610.2775,239.44132 C 609.91094,238.67641 610.15819,237.9531 609.71262,237.18662 C 609.38711,236.76412 608.79644,236.49414 608.3141,236.50428 C 607.2733,236.29683 606.25909,235.62096 605.47794,234.86945 C 605.25766,234.68342 604.94675,234.48331 604.6959,234.54656 C 605.27861,235.2076 606.11518,235.69754 606.662,236.38091 C 607.23145,236.85002 607.98332,237.1112 608.61579,237.07917 C 608.99402,237.12734 609.3807,237.52813 609.33788,237.82783 C 609.46226,238.38234 609.61388,238.94318 609.73504,239.49729 C 609.35018,239.49692 608.99689,239.55344 608.70874,239.73479 C 607.7118,240.33084 607.289,238.70852 606.24683,238.52293 C 605.79945,238.48468 605.33565,238.52205 604.91616,238.62792 C 604.03342,237.82375 603.17898,237.00067 602.12443,236.37849 C 600.72838,235.60528 599.20371,235.20041 597.77825,235.06173 C 598.11414,235.41003 598.61351,235.44573 598.99514,235.43633 C 599.84263,235.47389 600.82569,235.66276 601.61584,236.26879 C 602.57565,236.92497 603.01471,237.2239 604.70974,238.68922 C 604.30188,238.81956 603.9507,239.01793 603.71027,239.28046 C 603.34168,240.12475 605.63212,240.48741 604.57023,241.00594 C 604.00232,241.4862 603.62309,242.30681 602.65924,242.32628 C 601.89109,242.18818 600.14342,241.61709 600.13162,242.16854 C 601.54934,242.30383 603.27034,242.71215 604.16368,241.87528 C 604.83954,241.61598 604.82124,240.21969 605.94086,241.02365 C 607.08957,241.81116 607.57428,240.75326 607.85981,240.25608 C 608.72557,240.34147 609.70066,241.28354 610.18803,241.83568 C 610.18531,242.48073 611.82092,243.15423 610.76729,243.409 C 609.93195,243.49645 608.97193,243.348 608.3079,243.73567 C 607.95346,244.05233 606.71587,244.22512 607.32855,244.8971 C 608.32816,245.13811 608.81676,244.36405 609.65934,244.25535 C 610.42505,244.11137 611.32339,244.24556 612.08343,244.08637 C 612.39931,243.48354 611.19946,242.86035 610.89907,242.21751 C 609.94945,241.29944 611.8728,242.12648 612.33252,241.82545 C 612.77006,241.76193 613.57534,241.69315 613.06865,242.19561 C 612.91193,242.74163 611.44945,243.0625 612.83254,243.76716 C 613.85523,244.15801 614.76759,244.73468 615.76359,245.12147 C 616.50399,245.93605 617.1667,246.88979 618.00697,247.59685 C 618.84003,247.6149 617.23342,246.51858 617.14249,246.04936 C 616.36968,245.39315 615.73038,244.54802 614.81978,244.04334 C 613.9492,243.78256 612.50264,242.93951 614.01139,242.96285 C 614.83466,242.73348 613.1164,241.37163 614.50352,241.81154 C 615.13371,241.83111 615.28245,241.94892 614.8612,242.29409 C 614.3158,242.98932 615.34584,244.07452 616.33326,244.45602 C 617.42177,245.0896 618.51488,244.94887 619.59655,245.38782 C 620.62135,245.94871 621.58079,246.66565 622.6698,247.08263 C 623.17544,247.28942 624.01811,247.74206 623.18069,247.05286 C 622.29873,246.39744 621.30566,245.83533 620.29149,245.42536 C 619.16085,244.85605 617.99002,244.23498 616.82149,244.19746 C 615.88958,244.19915 615.5598,243.46795 615.93017,242.95654 C 616.01659,242.53263 615.4424,241.77953 616.20575,242.5719 C 618.02367,244.19307 620.765,244.8018 622.42041,244.00664 C 623.2788,243.8206 624.20113,243.22764 623.64984,242.2158 C 622.89038,240.82114 621.01618,240.08741 619.55627,239.92821 C 618.603,239.82475 617.63837,239.6884 616.67216,239.49783 C 615.42268,239.30147 615.69777,240.83431 614.58938,240.66732 C 615.38813,240.40534 615.71611,239.61461 614.87525,238.81604 C 615.11242,238.1671 616.75621,239.26215 617.50068,239.26858 C 618.64933,239.30924 619.82428,239.38366 620.93549,239.33356 C 621.39284,239.03532 623.01882,239.45204 622.90636,238.90804 C 622.03438,238.69472 620.95858,238.85451 620.04544,238.86191 C 619.23121,239.0371 618.25702,239.1624 617.30232,238.56207 C 616.01469,237.97792 614.27435,237.75124 613.78411,238.74056 C 613.31893,239.22719 614.55867,240.48571 614.34802,240.58339 C 613.69682,240.14195 612.36035,240.08171 612.93145,239.39333 C 613.20412,238.59576 610.70543,238.27625 612.12703,237.97941 C 613.08529,237.92659 613.7543,237.50913 614.22544,236.89778 C 614.79131,236.4623 615.14901,235.7795 615.38102,235.1499 C 615.29148,235.07031 615.16748,235.1147 615.07305,235.04791 z M 622.74464,238.71214 C 622.71302,238.70055 622.66761,238.70468 622.70805,238.76087 C 622.79415,238.75108 622.77628,238.72374 622.74464,238.71214 z "
       style="fill:black;fill-rule:evenodd;stroke:black;stroke-width:0.27217889px;stroke-linecap:butt;stroke-linejoin:miter;stroke-opacity:1" />
    <path
       sodipodi:type="arc"
       style="fill:#b7c8be;stroke-width:1;stroke-miterlimit:4;stroke-dasharray:2, 2;stroke-dashoffset:0"
       id="path2321"
       sodipodi:cx="119.70308"
       sodipodi:cy="186.66145"
       sodipodi:rx="34.850262"
       sodipodi:ry="8.0812206"
       d="M 154.55334 186.66145 A 34.850262 8.0812206 0 1 1  84.852818,186.66145 A 34.850262 8.0812206 0 1 1  154.55334 186.66145 z"
       transform="matrix(0.503543,0,0,0.566817,319.7819,58.71295)" />
    <path
       style="fill:#f95;stroke-width:1;stroke-miterlimit:4;stroke-dasharray:2, 2;stroke-dashoffset:0"
       d="M 397.79555,164.64216 C 397.85518,168.90484 362.55207,168.91395 362.52749,164.64216 C 362.50049,159.95012 370.42753,155.20315 380.16152,155.20315 C 389.89551,155.20315 397.79555,159.43182 397.79555,164.64216 z "
       id="path2325"
       sodipodi:nodetypes="cssc" />
    <path
       sodipodi:nodetypes="cssc"
       id="path2330"
       d="M 393.83414,161.97798 C 393.56654,162.9617 386.50135,160.32637 386.77657,159.34319 C 387.07885,158.26328 388.97645,157.76498 390.92433,158.49218 C 392.87223,159.21938 394.17582,160.78103 393.83414,161.97798 z "
       style="opacity:0.63821136;fill:white;stroke-width:1;stroke-miterlimit:4;stroke-dasharray:2, 2;stroke-dashoffset:0" />
    <path
       transform="matrix(0.964821,0,0,1.086058,443.985,32.22332)"
       d="M 154.55334 186.66145 A 34.850262 8.0812206 0 1 1  84.852818,186.66145 A 34.850262 8.0812206 0 1 1  154.55334 186.66145 z"
       sodipodi:ry="8.0812206"
       sodipodi:rx="34.850262"
       sodipodi:cy="186.66145"
       sodipodi:cx="119.70308"
       id="path3235"
       style="fill:#b7c8be;stroke-width:1;stroke-miterlimit:4;stroke-dasharray:2, 2;stroke-dashoffset:0"
       sodipodi:type="arc" />
    <path
       sodipodi:nodetypes="cssc"
       id="path3237"
       d="M 593.46411,235.19054 C 593.57837,243.35811 525.93534,243.37556 525.88824,235.19054 C 525.83651,226.20029 541.02523,217.10479 559.67618,217.10479 C 578.32713,217.10479 593.46411,225.20719 593.46411,235.19054 z "
       style="fill:#5fd;stroke-width:1;stroke-miterlimit:4;stroke-dasharray:2, 2;stroke-dashoffset:0" />
    <path
       style="opacity:0.63821136;fill:white;stroke-width:1;stroke-miterlimit:4;stroke-dasharray:2, 2;stroke-dashoffset:0"
       d="M 585.8738,230.0858 C 585.36106,231.97067 571.8237,226.92121 572.35104,225.03737 C 572.93023,222.9682 576.56615,222.01342 580.29841,223.40678 C 584.03071,224.80014 586.52848,227.79237 585.8738,230.0858 z "
       id="path3239"
       sodipodi:nodetypes="cssc" />
    <path
       style="fill:black;fill-rule:evenodd;stroke:black;stroke-width:0.27217889px;stroke-linecap:butt;stroke-linejoin:miter;stroke-opacity:1"
       d="M 578.73315,262.71538 C 578.71871,262.63836 578.67758,262.71743 578.67766,262.7491 C 578.67772,262.76751 578.69141,262.77137 578.73315,262.71538 z M 578.67766,262.7491 C 577.90026,262.50324 577.13411,262.19156 576.32761,262.0696 C 575.9174,261.51437 575.66101,260.7895 575.16112,260.33719 C 574.98803,259.29502 573.99219,259.3349 573.95453,260.56951 C 573.6549,261.13425 573.10832,262.39938 573.08682,261.12802 C 572.97712,260.75054 572.88622,260.34116 572.7804,259.94758 C 572.80602,259.92549 572.8273,259.90203 572.84861,259.86441 C 573.42945,259.24629 574.19323,259.21556 574.747,258.5232 C 575.02339,258.06705 575.06177,257.41874 574.87807,256.97263 C 574.69554,255.92717 574.95941,254.7373 575.378,253.73743 C 575.47189,253.46482 575.54617,253.10262 575.39658,252.89156 C 574.99067,253.67371 574.83601,254.63078 574.39632,255.38752 C 574.16459,256.08798 574.19265,256.88343 574.45098,257.46162 C 574.5427,257.83171 574.30865,258.33706 574.01372,258.40539 C 573.54158,258.72168 573.07339,259.06566 572.60046,259.3788 C 572.46178,259.01979 572.28146,258.71078 572.00826,258.5076 C 571.09233,257.79329 572.45238,256.813 572.24897,255.77416 C 572.12302,255.34317 571.92063,254.92419 571.67038,254.57127 C 572.10137,253.45765 572.56022,252.36357 572.75944,251.15548 C 572.97614,249.57439 572.80291,248.00642 572.41731,246.62711 C 572.21386,247.06614 572.36096,247.54469 572.50758,247.89715 C 572.7787,248.70098 572.9577,249.68589 572.67802,250.6416 C 572.41286,251.77363 572.29272,252.29104 571.53865,254.40093 C 571.26978,254.06769 570.95795,253.81189 570.6263,253.68253 C 569.70587,253.64381 570.19508,255.9106 569.32797,255.10772 C 568.67499,254.75164 567.77281,254.69446 567.40647,253.80272 C 567.25776,253.03655 567.15898,251.2006 566.6405,251.3888 C 567.02647,252.75966 567.26741,254.51195 568.37047,255.04266 C 568.85641,255.57921 570.1518,255.05776 569.80657,256.39219 C 569.4872,257.74781 570.64876,257.81765 571.21551,257.90429 C 571.44862,258.74244 570.9224,259.992 570.58361,260.64591 C 569.98112,260.87639 569.94394,262.64484 569.32577,261.75439 C 568.94247,261.00705 568.73411,260.05823 568.13275,259.57908 C 567.70943,259.36296 567.10125,258.27135 566.69597,259.08541 C 566.83232,260.10458 567.73061,260.28057 568.13634,261.02699 C 568.5472,261.68898 568.74658,262.57513 569.16958,263.22635 C 569.8458,263.30313 569.99349,261.95919 570.4844,261.44687 C 570.99745,260.22973 570.92104,262.32197 571.36781,262.64189 C 571.58509,263.02695 571.94013,263.75301 571.28856,263.46204 C 570.7228,263.51314 569.8953,262.26532 569.73783,263.80957 C 569.74281,264.90439 569.53465,265.96345 569.53377,267.03192 C 569.04166,268.01658 568.39171,268.97907 568.03592,270.01801 C 568.32002,270.80134 568.76195,268.90719 569.16665,268.65289 C 569.49938,267.69522 570.05651,266.7938 570.19816,265.76239 C 570.12685,264.85639 570.39042,263.20297 570.91368,264.61827 C 571.42495,265.30309 572.07415,263.20892 572.16502,264.66127 C 572.37441,265.25598 572.31829,265.43723 571.84425,265.16912 C 570.99895,264.91168 570.35912,266.26419 570.36007,267.32274 C 570.16248,268.56661 570.68858,269.53508 570.67,270.70227 C 570.51718,271.86049 570.19523,273.01412 570.1998,274.18023 C 570.18962,274.72643 570.07195,275.6757 570.41211,274.64587 C 570.70468,273.5867 570.8701,272.45763 570.88603,271.36385 C 571.00848,270.1039 571.16466,268.78778 570.77753,267.6846 C 570.43932,266.81623 571.00202,266.24459 571.61269,266.4052 C 572.03918,266.33266 572.53402,265.52519 572.0709,266.52323 C 571.2159,268.80402 571.63853,271.58014 572.97799,272.83653 C 573.46155,273.56975 574.34765,274.2156 575.09202,273.33602 C 576.11816,272.12405 576.12532,270.11136 575.74641,268.69252 C 575.49852,267.76624 575.2772,266.81749 575.10588,265.84769 C 574.83763,264.61165 573.50766,265.42188 573.26299,264.328 C 573.79581,264.97818 574.65163,264.99838 575.09253,263.92583 C 575.78332,263.91256 575.35601,265.84093 575.61894,266.53745 C 575.99596,267.62323 576.351,268.74572 576.79912,269.76379 C 577.24243,270.08253 577.44121,271.74925 577.90786,271.44787 C 577.79178,270.55771 577.25416,269.61228 576.9174,268.76347 C 576.45992,268.06751 575.99116,267.20436 576.20609,266.09727 C 576.28566,264.68557 575.86835,262.98086 574.76875,262.8811 C 574.14695,262.62312 573.42124,264.23377 573.25406,264.07263 C 573.43046,263.30594 573.00385,262.03795 573.85205,262.32182 C 574.69426,262.28796 574.08958,259.84259 574.87991,261.06096 C 575.27532,261.93544 575.90627,262.40847 576.64653,262.62695 C 577.25701,262.99731 578.02292,263.0842 578.69382,263.07311 C 578.73568,262.96087 578.6495,262.86127 578.67766,262.7491 z M 578.0321,271.2263 C 578.03149,271.19264 578.01123,271.15178 577.97345,271.20979 C 578.01368,271.28654 578.03272,271.26 578.0321,271.2263 z "
       id="path3241" />
    <path
       id="path3247"
       d="M 377.20505,138.97042 C 377.20115,139.03232 377.25971,138.97909 377.26702,138.95472 C 377.27126,138.94055 377.25882,138.93505 377.20505,138.97042 z M 377.26702,138.95472 C 377.96748,139.28703 378.64161,139.66789 379.39937,139.91026 C 379.66962,140.41287 379.75029,141.0176 380.132,141.45756 C 380.05738,142.29098 381.03751,142.44378 381.36254,141.50118 C 381.78652,141.12205 382.61481,140.24974 382.33889,141.23149 C 382.35768,141.54202 382.3507,141.87362 382.36195,142.19582 C 382.33181,142.20809 382.3056,142.2222 382.27604,142.24722 C 381.56543,142.6156 380.81366,142.49852 380.11211,142.92899 C 379.73614,143.2289 379.54734,143.72044 379.62223,144.09739 C 379.55603,144.93506 379.02094,145.80158 378.37936,146.49347 C 378.22417,146.68583 378.06717,146.95071 378.16371,147.14061 C 378.74207,146.61383 379.11635,145.90624 379.72173,145.40524 C 380.11121,144.90921 380.26961,144.29226 380.15279,143.79998 C 380.1498,143.49845 380.49598,143.15292 380.79946,143.15469 C 381.33361,142.99842 381.87038,142.82012 382.40455,142.66642 C 382.4559,142.96808 382.55954,143.23895 382.77841,143.44556 C 383.50454,144.16367 381.94973,144.66705 381.90544,145.50349 C 381.92757,145.85815 382.02703,146.21769 382.18858,146.53521 C 381.50835,147.31232 380.80554,148.06922 380.3292,148.96165 C 379.74871,150.13774 379.55144,151.37557 379.60525,152.50744 C 379.90611,152.20727 379.87447,151.81212 379.81383,151.51403 C 379.73723,150.84585 379.79274,150.05539 380.28857,149.37187 C 380.81142,148.55008 381.04937,148.17428 382.27723,146.69049 C 382.46152,146.99633 382.70579,147.25052 382.99891,147.4111 C 383.88717,147.61044 383.9396,145.77694 384.59743,146.55419 C 385.15087,146.94833 386.01704,147.15852 386.16593,147.91185 C 386.13197,148.5285 385.79954,149.95873 386.34894,149.90951 C 386.29281,148.78408 386.46712,147.39201 385.5157,146.78062 C 385.16727,146.27844 383.78262,146.44083 384.43081,145.47811 C 385.05874,144.49435 383.94266,144.22665 383.41037,144.0556 C 383.37884,143.36803 384.18366,142.50395 384.66665,142.06344 C 385.30782,141.99719 385.75704,140.64392 386.15175,141.44266 C 386.3509,142.08805 386.33245,142.85617 386.80682,143.33547 C 387.16904,143.57967 387.50702,144.53127 388.09223,143.97985 C 388.1973,143.17088 387.36267,142.87005 387.14144,142.22123 C 386.8955,141.63639 386.90806,140.91813 386.64775,140.33935 C 386.00645,140.15571 385.54863,141.16213 384.9504,141.46571 C 384.16601,142.30729 384.7291,140.71224 384.36826,140.38387 C 384.24634,140.04769 384.06978,139.42388 384.63704,139.76771 C 385.20054,139.83263 385.71585,140.94478 386.22997,139.7861 C 386.48079,138.94317 386.93104,138.16699 387.18141,137.3454 C 387.89111,136.67875 388.74951,136.05825 389.33898,135.32477 C 389.24494,134.66996 388.37177,136.04534 387.91787,136.16635 C 387.36983,136.84159 386.6162,137.43224 386.23724,138.19939 C 386.09518,138.90933 385.45211,140.13241 385.27252,138.94751 C 384.93401,138.32662 383.81207,139.81765 384.06264,138.68389 C 383.99739,138.18793 384.09442,138.05888 384.49395,138.35241 C 385.2579,138.70614 386.19751,137.78381 386.44378,136.96951 C 386.92688,136.04924 386.64016,135.20747 386.93084,134.31321 C 387.3503,133.45059 387.93356,132.62264 388.20142,131.72495 C 388.3389,131.30675 388.6753,130.59834 388.10318,131.32772 C 387.57062,132.08842 387.14569,132.92631 386.87473,133.7646 C 386.46114,134.71105 386.00152,135.69451 386.12131,136.61429 C 386.24824,137.34446 385.56617,137.68044 385.00835,137.4444 C 384.57563,137.42162 383.90466,137.95148 384.58921,137.26921 C 385.95535,135.67258 386.19164,133.45962 385.17922,132.24656 C 384.87903,131.59356 384.16601,130.93359 383.23493,131.47294 C 381.95153,132.21601 381.47454,133.76265 381.5126,134.92368 C 381.53796,135.68174 381.53214,136.45218 381.47271,137.22964 C 381.44557,138.22968 382.93134,137.85156 382.91442,138.73793 C 382.54681,138.13972 381.71721,137.96652 381.03691,138.71019 C 380.36036,138.59312 381.22728,137.18875 381.1336,136.60462 C 381.01961,135.70009 380.93563,134.77137 380.73649,133.90581 C 380.37876,133.57902 380.57419,132.26051 380.04888,132.40634 C 379.95416,133.11233 380.2575,133.93852 380.38758,134.65338 C 380.67105,135.27292 380.92646,136.02313 380.4584,136.83499 C 380.05117,137.90606 380.0599,139.29403 381.10858,139.57333 C 381.65454,139.8863 382.73814,138.78126 382.86349,138.93599 C 382.51248,139.49315 382.63226,140.54695 381.87166,140.17236 C 381.04269,140.04324 381.06112,142.03538 380.57517,140.95273 C 380.3939,140.20732 379.88927,139.72727 379.21863,139.42286 C 378.70996,139.02556 377.98358,138.81761 377.32694,138.70255 C 377.25991,138.78117 377.32068,138.87364 377.26702,138.95472 z M 379.87601,132.55385 C 379.86875,132.57987 379.87895,132.615 379.92933,132.57736 C 379.90804,132.51093 379.88328,132.52784 379.87601,132.55385 z "
       style="fill:black;fill-rule:evenodd;stroke:black;stroke-width:0.24234682px;stroke-linecap:butt;stroke-linejoin:miter;stroke-opacity:1" />
    <path
       transform="matrix(0.503543,0,0,0.566817,369.7819,152.9986)"
       d="M 154.55334 186.66145 A 34.850262 8.0812206 0 1 1  84.852818,186.66145 A 34.850262 8.0812206 0 1 1  154.55334 186.66145 z"
       sodipodi:ry="8.0812206"
       sodipodi:rx="34.850262"
       sodipodi:cy="186.66145"
       sodipodi:cx="119.70308"
       id="path3249"
       style="fill:#b7c8be;stroke-width:1;stroke-miterlimit:4;stroke-dasharray:2, 2;stroke-dashoffset:0"
       sodipodi:type="arc" />
    <path
       sodipodi:nodetypes="cssc"
       id="path3251"
       d="M 447.79554,258.92787 C 447.85517,263.19055 412.55206,263.19966 412.52748,258.92787 C 412.50048,254.23583 420.42752,249.48886 430.16151,249.48886 C 439.8955,249.48886 447.79554,253.71753 447.79554,258.92787 z "
       style="fill:#5fd;stroke-width:1;stroke-miterlimit:4;stroke-dasharray:2, 2;stroke-dashoffset:0" />
    <path
       style="opacity:0.63821136;fill:white;stroke-width:1;stroke-miterlimit:4;stroke-dasharray:2, 2;stroke-dashoffset:0"
       d="M 443.83413,256.26369 C 443.56653,257.24741 436.50134,254.61208 436.77656,253.6289 C 437.07884,252.54899 438.97644,252.05069 440.92432,252.77789 C 442.87222,253.50509 444.17581,255.06674 443.83413,256.26369 z "
       id="path3253"
       sodipodi:nodetypes="cssc" />
    <path
       id="path3255"
       d="M 413.0307,178.65935 C 412.98499,178.5957 412.98123,178.68474 412.99473,178.71339 C 413.00259,178.73005 413.01662,178.72774 413.0307,178.65935 z M 412.99473,178.71339 C 412.18639,178.82009 411.36035,178.86241 410.57816,179.09367 C 409.97133,178.76456 409.43195,178.21662 408.7875,178.01873 C 408.18912,177.14808 407.304,177.60616 407.79302,178.74042 C 407.7609,179.37891 407.80187,180.75645 407.24369,179.61398 C 406.98438,179.31854 406.72858,178.98624 406.46597,178.67458 C 406.47982,178.64372 406.48915,178.61345 406.49251,178.57035 C 406.75673,177.76434 407.43554,177.41288 407.64377,176.5511 C 407.70084,176.02082 407.4609,175.41732 407.10548,175.09107 C 406.49718,174.22144 406.23201,173.03186 406.1875,171.94881 C 406.15704,171.66211 406.07085,171.30255 405.84592,171.17475 C 405.80966,172.05521 406.0751,172.98764 405.99747,173.85942 C 406.08437,174.59208 406.44683,175.3007 406.92583,175.71496 C 407.16572,176.01132 407.16784,176.56823 406.92965,176.75509 C 406.63601,177.24164 406.35767,177.7516 406.06198,178.23563 C 405.78425,177.9692 405.48997,177.76571 405.15642,177.69742 C 404.02411,177.4385 404.84066,175.97428 404.21624,175.1195 C 403.91955,174.78248 403.55869,174.48872 403.18248,174.27509 C 403.101,173.08375 403.05305,171.89833 402.72161,170.71963 C 402.24795,169.19566 401.42667,167.84881 400.49295,166.76284 C 400.49469,167.24671 400.8307,167.61784 401.11286,167.87498 C 401.69904,168.4882 402.27849,169.30448 402.43012,170.28867 C 402.66961,171.4264 402.78001,171.94596 402.99098,174.17662 C 402.60624,173.98869 402.2154,173.88912 401.86017,173.91247 C 401.01005,174.26741 402.41366,176.11335 401.28804,175.75352 C 400.5457,175.70768 399.70428,176.03814 398.99461,175.38564 C 398.53527,174.75466 397.66786,173.13352 397.27797,173.52368 C 398.20844,174.60185 399.16916,176.08697 400.39318,176.10031 C 401.06068,176.38041 402.0131,175.3592 402.26582,176.7142 C 402.55093,178.07744 403.63265,177.64852 404.18273,177.48686 C 404.74902,178.14728 404.80183,179.50209 404.77202,180.23795 C 404.32396,180.70199 405.03961,182.3196 404.10237,181.77497 C 403.43852,181.26044 402.84775,180.4893 402.10001,180.31009 C 401.625,180.2937 400.61158,179.56263 400.5894,180.47172 C 401.14476,181.3371 402.033,181.11589 402.71677,181.62007 C 403.36942,182.04562 403.92551,182.7638 404.58459,183.17444 C 405.22964,182.95747 404.79396,181.67755 405.02155,181.00548 C 404.97054,179.68562 405.78784,181.61313 406.32809,181.71362 C 406.68806,181.97033 407.31728,182.47755 406.60381,182.49007 C 406.113,182.77609 404.83473,181.99645 405.34643,183.46193 C 405.81483,184.45151 406.07503,185.49901 406.52696,186.46719 C 406.49842,187.56761 406.31752,188.71482 406.43548,189.80664 C 407.02473,190.39579 406.62243,188.49283 406.88126,188.09102 C 406.77686,187.08258 406.89955,186.03001 406.59083,185.03574 C 406.14236,184.2453 405.68052,182.63596 406.75416,183.69622 C 407.50744,184.0999 407.20814,181.92792 407.90584,183.20497 C 408.3475,183.65492 408.37346,183.84288 407.83048,183.80088 C 406.95573,183.92587 406.94925,185.42207 407.39865,186.3805 C 407.74672,187.59092 408.63362,188.24522 409.11135,189.31033 C 409.46368,190.42418 409.66088,191.60556 410.15912,192.65987 C 410.38134,193.15892 410.67698,194.06864 410.54873,192.99168 C 410.36495,191.90833 410.03637,190.81554 409.58735,189.81805 C 409.16439,188.62491 408.7482,187.3666 407.93011,186.53138 C 407.25581,185.88812 407.52328,185.1319 408.14448,185.01864 C 408.50007,184.77221 408.60614,183.83114 408.60954,184.93139 C 408.80149,187.3596 410.36061,189.69511 412.10624,190.26559 C 412.85492,190.72484 413.9312,190.93439 414.23276,189.82227 C 414.64869,188.28968 413.80236,186.46356 412.85795,185.33894 C 412.24094,184.60496 411.63848,183.83936 411.07236,183.03351 C 410.30565,182.02758 409.44428,183.32501 408.75917,182.43786 C 409.51729,182.80102 410.30103,182.45669 410.24594,181.29836 C 410.86604,180.99364 411.29606,182.92141 411.82936,183.4409 C 412.63091,184.26464 413.42813,185.13095 414.26542,185.86324 C 414.80201,185.96411 415.68829,187.38959 415.98327,186.91887 C 415.50096,186.16176 414.61339,185.53319 413.9487,184.90703 C 413.23941,184.47048 412.4491,183.88727 412.17468,182.7934 C 411.64859,181.48098 410.54828,180.11368 409.51,180.48924 C 408.83745,180.51904 408.86258,182.28545 408.64287,182.21033 C 408.47778,181.44112 407.5541,180.47335 408.44267,180.37107 C 409.1912,179.98355 407.60733,178.02475 408.83945,178.79347 C 409.56814,179.41802 410.34008,179.57916 411.10318,179.4634 C 411.81308,179.54017 412.54365,179.29436 413.14665,179.00004 C 413.13701,178.88063 413.01675,178.82694 412.99473,178.71339 z M 416.00194,186.66553 C 415.98711,186.6353 415.95146,186.60688 415.94181,186.67543 C 416.01077,186.7279 416.01677,186.69579 416.00194,186.66553 z "
       style="fill:black;fill-rule:evenodd;stroke:black;stroke-width:0.27217889px;stroke-linecap:butt;stroke-linejoin:miter;stroke-opacity:1" />
    <path
       style="fill:black;fill-rule:evenodd;stroke:black;stroke-width:0.27217889px;stroke-linecap:butt;stroke-linejoin:miter;stroke-opacity:1"
       d="M 460.54367,277.27103 C 460.47515,277.23301 460.56315,277.21896 460.59317,277.22904 C 460.61063,277.23491 460.60997,277.24912 460.54367,277.27103 z M 460.59317,277.22904 C 460.60538,276.41377 460.55159,275.58841 460.69055,274.78466 C 460.29326,274.22011 459.68645,273.74794 459.41514,273.13079 C 458.48095,272.63746 458.83326,271.70517 460.01659,272.05931 C 460.64705,271.95334 462.02004,271.83423 460.82053,271.41235 C 460.497,271.18906 460.13727,270.97354 459.79725,270.74886 C 459.76821,270.76619 459.73922,270.77898 459.6968,270.78731 C 458.92688,271.14325 458.65654,271.85825 457.82474,272.16504 C 457.30466,272.28324 456.6774,272.11493 456.31212,271.79975 C 455.3778,271.29645 454.16548,271.17107 453.08458,271.2525 C 452.79628,271.2555 452.42916,271.21161 452.27612,271.00302 C 453.14643,270.86486 454.10336,271.02034 454.96025,270.8421 C 455.69804,270.84343 456.44393,271.12123 456.91095,271.54894 C 457.23315,271.75284 457.78654,271.69033 457.9445,271.43208 C 458.39371,271.08398 458.86794,270.74836 459.3144,270.39851 C 459.01755,270.15356 458.78129,269.88488 458.67477,269.5615 C 458.28625,268.46688 456.92664,269.44777 456.00519,268.92673 C 455.63603,268.67114 455.30239,268.34679 455.04656,267.9979 C 453.85381,268.05518 452.67083,268.14506 451.46164,267.9526 C 449.89301,267.65892 448.45997,266.99943 447.27303,266.198 C 447.75383,266.14359 448.16143,266.43428 448.44957,266.6847 C 449.12665,267.19579 450.00464,267.67664 450.99977,267.71307 C 452.15761,267.81896 452.68646,267.86835 454.92654,267.81911 C 454.69525,267.45878 454.55101,267.08212 454.53299,266.72659 C 454.78692,265.84103 456.78322,267.02103 456.29524,265.94474 C 456.16359,265.21273 456.39421,264.33866 455.66379,263.70948 C 454.98379,263.32643 453.27296,262.65294 453.61526,262.22042 C 454.79409,263.01954 456.38064,263.80149 456.53588,265.0157 C 456.89152,265.6462 455.98769,266.71065 457.36286,266.80448 C 458.74997,266.92952 458.44943,268.05369 458.35268,268.61882 C 459.07434,269.10467 460.42612,268.99995 461.15356,268.88498 C 461.56248,268.38611 463.25219,268.90929 462.60252,268.04155 C 462.01445,267.44188 461.17999,266.94454 460.91523,266.22264 C 460.84385,265.75274 460.00016,264.83098 460.90054,264.70349 C 461.8245,265.1547 461.70782,266.06261 462.28793,266.68327 C 462.78631,267.28216 463.56416,267.75117 464.04847,268.35817 C 463.9078,269.02404 462.58598,268.73977 461.94485,269.04379 C 460.62798,269.14624 462.63729,269.73442 462.79977,270.25936 C 463.09651,270.58712 463.6733,271.15325 463.60297,270.44315 C 463.83012,269.92247 462.90746,268.74327 464.42241,269.08151 C 465.45964,269.43196 466.53025,269.56888 467.54432,269.90544 C 468.63401,269.74944 469.75248,269.43669 470.85061,269.42719 C 471.50414,269.94411 469.56736,269.76529 469.19829,270.06898 C 468.18454,270.08227 467.15332,270.32623 466.12995,270.13494 C 465.29281,269.7812 463.64077,269.50917 464.81842,270.45256 C 465.30675,271.15393 463.11472,271.10861 464.46409,271.65345 C 464.96224,272.03993 465.15194,272.04392 465.04723,271.50947 C 465.0699,270.62613 466.55525,270.44612 467.55934,270.78131 C 468.80196,270.98661 469.55473,271.79162 470.66808,272.14256 C 471.81528,272.3633 473.01155,272.42213 474.11654,272.7947 C 474.638,272.95752 475.57588,273.14563 474.49131,273.14318 C 473.39396,273.08632 472.27043,272.88673 471.22758,272.55646 C 469.99343,272.27476 468.69534,272.00735 467.77085,271.29168 C 467.05371,270.69655 466.33362,271.04994 466.29319,271.68008 C 466.08968,272.06186 465.16727,272.27639 466.26049,272.15212 C 468.69457,272.06109 471.19518,273.33875 471.96431,275.00642 C 472.50731,275.69677 472.8403,276.74147 471.77067,277.17001 C 470.29667,277.76092 468.38471,277.13215 467.15812,276.32457 C 466.35753,275.79688 465.5272,275.2873 464.66111,274.81849 C 463.57304,274.17364 464.76178,273.16758 463.80115,272.59 C 464.2498,273.30088 463.99872,274.11928 462.84181,274.19894 C 462.61109,274.8502 464.57572,275.05368 465.15358,275.52311 C 466.06474,276.2237 467.01768,276.91504 467.84216,277.66172 C 468.00459,278.18298 469.52327,278.89792 469.08994,279.24551 C 468.28199,278.85429 467.55471,278.04563 466.85566,277.45806 C 466.33977,276.80421 465.66882,276.08689 464.55051,275.94122 C 463.18592,275.57093 461.7002,274.63666 461.95278,273.56183 C 461.90437,272.89036 463.66176,272.7104 463.56166,272.50088 C 462.7785,272.42615 461.7101,271.62097 461.7116,272.51541 C 461.41353,273.30384 459.28421,271.9579 460.19067,273.09252 C 460.89554,273.74384 461.14514,274.49187 461.11869,275.26325 C 461.27729,275.95945 461.1179,276.71361 460.89551,277.34667 C 460.77579,277.35095 460.70851,277.23774 460.59317,277.22904 z M 468.84048,279.29345 C 468.80873,279.28222 468.77637,279.25011 468.84334,279.23257 C 468.90345,279.29498 468.87225,279.30467 468.84048,279.29345 z "
       id="path3257"
       inkscape:transform-center-x="13.779312"
       inkscape:transform-center-y="4.897753" />
    <path
       style="fill:black;fill-rule:evenodd;stroke:black;stroke-width:0.27217889px;stroke-linecap:butt;stroke-linejoin:miter;stroke-opacity:1"
       d="M 384.36318,189.28668 C 384.37539,189.20928 384.31014,189.26998 384.29961,189.29985 C 384.2935,189.31723 384.3051,189.32544 384.36318,189.28668 z M 384.29961,189.29985 C 383.64956,188.80768 383.03216,188.25727 382.31317,187.8721 C 382.11275,187.2115 382.1141,186.44263 381.7947,185.84894 C 381.98087,184.80902 381.02926,184.51288 380.58003,185.66348 C 380.10847,186.09514 379.16952,187.10394 379.57532,185.89889 C 379.59846,185.50647 379.65001,185.0903 379.68221,184.68403 C 379.71375,184.67181 379.74166,184.65683 379.77434,184.62853 C 380.52875,184.2408 381.25867,184.46782 382.01244,184.00107 C 382.4257,183.66392 382.67913,183.06596 382.65555,182.58408 C 382.83395,181.53792 383.4813,180.50528 384.21077,179.7035 C 384.39058,179.47813 384.58196,179.16176 384.51175,178.91276 C 383.86719,179.51366 383.40075,180.36355 382.73286,180.92919 C 382.27979,181.51149 382.03966,182.27034 382.0893,182.90168 C 382.05169,183.2811 381.66181,183.67878 381.36104,183.64433 C 380.81021,183.78411 380.25381,183.95129 379.70329,184.08784 C 379.69295,183.70311 379.6266,183.35154 379.43729,183.06855 C 378.81371,182.08859 380.42363,181.62077 380.58012,180.57384 C 380.60589,180.12557 380.55562,179.66298 380.43811,179.24662 C 381.21738,178.34181 382.01634,177.46479 382.60891,176.39331 C 383.34294,174.97626 383.70519,173.44092 383.80411,172.01215 C 383.4653,172.35761 383.44352,172.85777 383.46355,173.239 C 383.44961,174.0872 383.28819,175.07514 382.7044,175.88187 C 382.07522,176.85958 381.78863,177.30679 380.37107,179.04198 C 380.22943,178.6379 380.02136,178.2924 379.75223,178.05936 C 378.898,177.71443 378.59928,180.01408 378.05137,178.96704 C 377.55548,178.41274 376.72464,178.05651 376.67832,177.09357 C 376.79497,176.32187 377.31717,174.55898 376.7656,174.56254 C 376.66985,175.98347 376.30963,177.71518 377.17104,178.58487 C 377.44907,179.25324 378.84431,179.19607 378.07185,180.33764 C 377.31664,181.50784 378.38762,181.9629 378.89257,182.23447 C 378.83132,183.10228 377.91677,184.10323 377.37842,184.60578 C 376.73355,184.62102 376.10587,186.27476 375.82185,185.22863 C 375.71117,184.39605 375.83282,183.43228 375.42681,182.77929 C 375.10039,182.43381 374.8932,181.20151 374.23854,181.83267 C 374.02547,182.83861 374.81284,183.30546 374.94497,184.14468 C 375.11021,184.90608 375.00111,185.80781 375.1814,186.56313 C 375.79278,186.8621 376.38232,185.64535 377.01654,185.32718 C 377.90781,184.35236 377.13466,186.29799 377.44838,186.74916 C 377.52406,187.18476 377.61524,187.9878 377.09887,187.4953 C 376.54869,187.35386 376.18721,185.90088 375.52135,187.30305 C 375.15913,188.33624 374.60809,189.26431 374.24919,190.27069 C 373.45555,191.03349 372.52063,191.7225 371.83725,192.58214 C 371.84242,193.41538 372.89356,191.77886 373.36007,191.6749 C 373.9945,190.88411 374.8215,190.22152 375.30061,189.29722 C 375.53706,188.41971 376.33949,186.95023 376.35818,188.45904 C 376.61038,189.27561 377.92386,187.52008 377.52274,188.91892 C 377.52074,189.54941 377.40711,189.70137 377.05034,189.2899 C 376.34019,188.76408 375.2841,189.82394 374.93025,190.82161 C 374.32723,191.92734 374.49836,193.01611 374.0897,194.10958 C 373.55758,195.1496 372.86763,196.12864 372.48115,197.22884 C 372.28852,197.74004 371.85952,198.595 372.52514,197.7387 C 373.15574,196.83883 373.68996,195.83049 374.07153,194.8053 C 374.60913,193.65923 375.19735,192.47156 375.20231,191.30245 C 375.17466,190.37094 375.89639,190.02092 376.41792,190.37691 C 376.84408,190.45149 377.58089,189.85654 376.81009,190.64167 C 375.24018,192.50404 374.70804,195.26126 375.54899,196.89389 C 375.75887,197.74675 376.37729,198.65221 377.37339,198.07295 C 378.74635,197.27494 379.42759,195.38104 379.54607,193.91726 C 379.62294,192.96148 379.73238,191.99342 379.89596,191.02228 C 380.05744,189.76782 378.53286,190.08549 378.66892,188.97288 C 378.95304,189.76402 379.75259,190.06985 380.52744,189.20708 C 381.18274,189.42608 380.13388,191.09974 380.1482,191.8441 C 380.13954,192.99343 380.09788,194.17 380.17891,195.27938 C 380.48976,195.72824 380.11849,197.3652 380.65915,197.23763 C 380.8481,196.36005 380.65841,195.28912 380.62558,194.37654 C 380.42778,193.5675 380.2754,192.59719 380.84891,191.62614 C 381.39697,190.32274 381.57508,188.57675 380.5725,188.11426 C 380.0731,187.66281 378.84959,188.93713 378.74608,188.72928 C 379.16921,188.06603 379.19221,186.72841 379.89623,187.2801 C 380.70109,187.53046 380.95088,185.02384 381.2872,186.43662 C 381.36668,187.39303 381.80261,188.05017 382.42685,188.5041 C 382.87793,189.05761 383.57042,189.39616 384.20624,189.61054 C 384.2833,189.51882 384.23548,189.39611 384.29961,189.29985 z M 380.85047,197.07052 C 380.86117,197.03859 380.85578,196.99332 380.80074,197.0353 C 380.81292,197.12109 380.83976,197.10247 380.85047,197.07052 z "
       id="path3259" />
    <path
       sodipodi:type="arc"
       style="opacity:0.83739833;fill:red;fill-opacity:1;stroke-width:1;stroke-miterlimit:4;stroke-dasharray:2, 2;stroke-dashoffset:0"
       id="path6915"
       sodipodi:cx="486.13593"
       sodipodi:cy="139.18428"
       sodipodi:rx="3.2829957"
       sodipodi:ry="3.0304577"
       d="M 489.41892 139.18428 A 3.2829957 3.0304577 0 1 1  482.85293,139.18428 A 3.2829957 3.0304577 0 1 1  489.41892 139.18428 z"
       transform="matrix(1.543928,0,0,1.543928,-257.4666,-91.51767)" />
    <path
       transform="matrix(1.543928,0,0,1.543928,-273.1809,-85.0891)"
       d="M 489.41892 139.18428 A 3.2829957 3.0304577 0 1 1  482.85293,139.18428 A 3.2829957 3.0304577 0 1 1  489.41892 139.18428 z"
       sodipodi:ry="3.0304577"
       sodipodi:rx="3.2829957"
       sodipodi:cy="139.18428"
       sodipodi:cx="486.13593"
       id="path6932"
       style="opacity:0.83739833;fill:red;fill-opacity:1;stroke-width:1;stroke-miterlimit:4;stroke-dasharray:2, 2;stroke-dashoffset:0"
       sodipodi:type="arc" />
    <path
       sodipodi:type="arc"
       style="opacity:0.83739833;fill:red;fill-opacity:1;stroke-width:1;stroke-miterlimit:4;stroke-dasharray:2, 2;stroke-dashoffset:0"
       id="path6934"
       sodipodi:cx="486.13593"
       sodipodi:cy="139.18428"
       sodipodi:rx="3.2829957"
       sodipodi:ry="3.0304577"
       d="M 489.41892 139.18428 A 3.2829957 3.0304577 0 1 1  482.85293,139.18428 A 3.2829957 3.0304577 0 1 1  489.41892 139.18428 z"
       transform="matrix(1.543928,0,0,1.543928,-288.1809,-77.94624)" />
    <path
       transform="matrix(1.543928,0,0,1.543928,-304.6095,-72.23195)"
       d="M 489.41892 139.18428 A 3.2829957 3.0304577 0 1 1  482.85293,139.18428 A 3.2829957 3.0304577 0 1 1  489.41892 139.18428 z"
       sodipodi:ry="3.0304577"
       sodipodi:rx="3.2829957"
       sodipodi:cy="139.18428"
       sodipodi:cx="486.13593"
       id="path6936"
       style="opacity:0.83739833;fill:red;fill-opacity:1;stroke-width:1;stroke-miterlimit:4;stroke-dasharray:2, 2;stroke-dashoffset:0"
       sodipodi:type="arc" />
    <path
       sodipodi:type="arc"
       style="opacity:0.83739833;fill:red;fill-opacity:1;stroke-width:1;stroke-miterlimit:4;stroke-dasharray:2, 2;stroke-dashoffset:0"
       id="path6938"
       sodipodi:cx="486.13593"
       sodipodi:cy="139.18428"
       sodipodi:rx="3.2829957"
       sodipodi:ry="3.0304577"
       d="M 489.41892 139.18428 A 3.2829957 3.0304577 0 1 1  482.85293,139.18428 A 3.2829957 3.0304577 0 1 1  489.41892 139.18428 z"
       transform="matrix(1.543928,0,0,1.543928,-321.0381,-62.94624)" />
    <path
       transform="matrix(1.543928,0,0,1.543928,-334.6095,-52.23195)"
       d="M 489.41892 139.18428 A 3.2829957 3.0304577 0 1 1  482.85293,139.18428 A 3.2829957 3.0304577 0 1 1  489.41892 139.18428 z"
       sodipodi:ry="3.0304577"
       sodipodi:rx="3.2829957"
       sodipodi:cy="139.18428"
       sodipodi:cx="486.13593"
       id="path6940"
       style="opacity:0.83739833;fill:red;fill-opacity:1;stroke-width:1;stroke-miterlimit:4;stroke-dasharray:2, 2;stroke-dashoffset:0"
       sodipodi:type="arc" />
    <path
       sodipodi:type="arc"
       style="opacity:0.83739833;fill:#faa;fill-opacity:1;stroke-width:1;stroke-miterlimit:4;stroke-dasharray:2, 2;stroke-dashoffset:0"
       id="path6942"
       sodipodi:cx="486.13593"
       sodipodi:cy="139.18428"
       sodipodi:rx="3.2829957"
       sodipodi:ry="3.0304577"
       d="M 489.41892 139.18428 A 3.2829957 3.0304577 0 1 1  482.85293,139.18428 A 3.2829957 3.0304577 0 1 1  489.41892 139.18428 z"
       transform="translate(30.88501,-7.459748)" />
    <path
       transform="translate(10.88501,19.68311)"
       d="M 489.41892 139.18428 A 3.2829957 3.0304577 0 1 1  482.85293,139.18428 A 3.2829957 3.0304577 0 1 1  489.41892 139.18428 z"
       sodipodi:ry="3.0304577"
       sodipodi:rx="3.2829957"
       sodipodi:cy="139.18428"
       sodipodi:cx="486.13593"
       id="path6944"
       style="opacity:0.83739833;fill:#faa;fill-opacity:1;stroke-width:1;stroke-miterlimit:4;stroke-dasharray:2, 2;stroke-dashoffset:0"
       sodipodi:type="arc" />
    <path
       sodipodi:type="arc"
       style="opacity:0.83739833;fill:#faa;fill-opacity:1;stroke-width:1;stroke-miterlimit:4;stroke-dasharray:2, 2;stroke-dashoffset:0"
       id="path6946"
       sodipodi:cx="486.13593"
       sodipodi:cy="139.18428"
       sodipodi:rx="3.2829957"
       sodipodi:ry="3.0304577"
       d="M 489.41892 139.18428 A 3.2829957 3.0304577 0 1 1  482.85293,139.18428 A 3.2829957 3.0304577 0 1 1  489.41892 139.18428 z"
       transform="translate(-11.25784,43.96883)" />
    <path
       transform="translate(-27.68641,71.11169)"
       d="M 489.41892 139.18428 A 3.2829957 3.0304577 0 1 1  482.85293,139.18428 A 3.2829957 3.0304577 0 1 1  489.41892 139.18428 z"
       sodipodi:ry="3.0304577"
       sodipodi:rx="3.2829957"
       sodipodi:cy="139.18428"
       sodipodi:cx="486.13593"
       id="path6954"
       style="opacity:0.83739833;fill:#faa;fill-opacity:1;stroke-width:1;stroke-miterlimit:4;stroke-dasharray:2, 2;stroke-dashoffset:0"
       sodipodi:type="arc" />
    <path
       sodipodi:type="arc"
       style="opacity:0.83739833;fill:#faa;fill-opacity:1;stroke-width:1;stroke-miterlimit:4;stroke-dasharray:2, 2;stroke-dashoffset:0"
       id="path6956"
       sodipodi:cx="486.13593"
       sodipodi:cy="139.18428"
       sodipodi:rx="3.2829957"
       sodipodi:ry="3.0304577"
       d="M 489.41892 139.18428 A 3.2829957 3.0304577 0 1 1  482.85293,139.18428 A 3.2829957 3.0304577 0 1 1  489.41892 139.18428 z"
       transform="translate(-44.82926,96.82593)" />
    <path
       transform="matrix(1.217571,0,0,1.217571,-24.88422,-32.08292)"
       d="M 489.41892 139.18428 A 3.2829957 3.0304577 0 1 1  482.85293,139.18428 A 3.2829957 3.0304577 0 1 1  489.41892 139.18428 z"
       sodipodi:ry="3.0304577"
       sodipodi:rx="3.2829957"
       sodipodi:cy="139.18428"
       sodipodi:cx="486.13593"
       id="path6960"
       style="opacity:0.83739833;fill:#f55;fill-opacity:1;stroke-width:1;stroke-miterlimit:4;stroke-dasharray:2, 2;stroke-dashoffset:0"
       sodipodi:type="arc" />
    <path
       sodipodi:type="arc"
       style="opacity:0.83739833;fill:#f55;fill-opacity:1;stroke-width:1;stroke-miterlimit:4;stroke-dasharray:2, 2;stroke-dashoffset:0"
       id="path6962"
       sodipodi:cx="486.13593"
       sodipodi:cy="139.18428"
       sodipodi:rx="3.2829957"
       sodipodi:ry="3.0304577"
       d="M 489.41892 139.18428 A 3.2829957 3.0304577 0 1 1  482.85293,139.18428 A 3.2829957 3.0304577 0 1 1  489.41892 139.18428 z"
       transform="matrix(1.217571,0,0,1.217571,-26.31279,-16.36863)" />
    <path
       transform="matrix(1.217571,0,0,1.217571,-27.74136,5.994145e-2)"
       d="M 489.41892 139.18428 A 3.2829957 3.0304577 0 1 1  482.85293,139.18428 A 3.2829957 3.0304577 0 1 1  489.41892 139.18428 z"
       sodipodi:ry="3.0304577"
       sodipodi:rx="3.2829957"
       sodipodi:cy="139.18428"
       sodipodi:cx="486.13593"
       id="path6964"
       style="opacity:0.83739833;fill:#f55;fill-opacity:1;stroke-width:1;stroke-miterlimit:4;stroke-dasharray:2, 2;stroke-dashoffset:0"
       sodipodi:type="arc" />
    <path
       sodipodi:type="arc"
       style="opacity:0.83739833;fill:#f55;fill-opacity:1;stroke-width:1;stroke-miterlimit:4;stroke-dasharray:2, 2;stroke-dashoffset:0"
       id="path6966"
       sodipodi:cx="486.13593"
       sodipodi:cy="139.18428"
       sodipodi:rx="3.2829957"
       sodipodi:ry="3.0304577"
       d="M 489.41892 139.18428 A 3.2829957 3.0304577 0 1 1  482.85293,139.18428 A 3.2829957 3.0304577 0 1 1  489.41892 139.18428 z"
       transform="matrix(1.217571,0,0,1.217571,-27.74136,16.48851)" />
    <path
       transform="matrix(1.217571,0,0,1.217571,-29.16993,33.63137)"
       d="M 489.41892 139.18428 A 3.2829957 3.0304577 0 1 1  482.85293,139.18428 A 3.2829957 3.0304577 0 1 1  489.41892 139.18428 z"
       sodipodi:ry="3.0304577"
       sodipodi:rx="3.2829957"
       sodipodi:cy="139.18428"
       sodipodi:cx="486.13593"
       id="path6968"
       style="opacity:0.83739833;fill:#f55;fill-opacity:1;stroke-width:1;stroke-miterlimit:4;stroke-dasharray:2, 2;stroke-dashoffset:0"
       sodipodi:type="arc" />
    <path
       style="fill:none;fill-rule:evenodd;stroke:black;stroke-width:1px;stroke-linecap:butt;stroke-linejoin:miter;stroke-opacity:1"
       d="M 540.71429,106.6479 C 537.47816,112.66389 547.59824,110.02284 550,105.21932 C 550.31944,104.58045 548.57143,105.21932 547.85714,105.21932"
       id="path6970" />
    <path
       style="fill:none;fill-rule:evenodd;stroke:black;stroke-width:1px;stroke-linecap:butt;stroke-linejoin:miter;stroke-opacity:1"
       d="M 555,77.362182 C 555.87805,75.606078 552.18311,81.688145 553.57143,83.076467 C 555.05717,84.562206 557.57906,81.211695 557.85714,80.93361"
       id="path6972" />
    <path
       style="fill:none;fill-rule:evenodd;stroke:black;stroke-width:1px;stroke-linecap:butt;stroke-linejoin:miter;stroke-opacity:1"
       d="M 570.71429,76.647896 C 575.99127,81.92488 572.3989,85.461907 580,87.362182 C 580.92395,87.593168 580,85.45742 580,84.505039"
       id="path6974" />
    <path
       style="fill:none;fill-rule:evenodd;stroke:black;stroke-width:1px;stroke-linecap:butt;stroke-linejoin:miter;stroke-opacity:1"
       d="M 581.42857,60.219324 C 586.37981,61.457134 590.71429,61.22968 590.71429,68.790753 C 590.71429,69.649218 592.14286,69.743134 592.85714,70.219324"
       id="path6976" />
    <path
       style="fill:none;fill-rule:evenodd;stroke:black;stroke-width:1px;stroke-linecap:butt;stroke-linejoin:miter;stroke-opacity:1"
       d="M 599.28571,88.790753 C 599.28571,89.085384 601.22929,91.123043 602.85714,93.076467"
       id="path6978" />
    <path
       style="fill:none;fill-rule:evenodd;stroke:black;stroke-width:1px;stroke-linecap:butt;stroke-linejoin:miter;stroke-opacity:1"
       d="M 625,91.647896 C 625,95.860851 631.27509,102.97609 630,108.07647 C 629.76901,109.00041 628.09524,108.07647 627.14286,108.07647"
       id="path6980" />
    <path
       style="fill:none;fill-rule:evenodd;stroke:black;stroke-width:1px;stroke-linecap:butt;stroke-linejoin:miter;stroke-opacity:1"
       d="M 602.14286,116.6479 C 601.11845,120.74555 608.01083,121.6479 600.71429,121.6479"
       id="path6982" />
    <path
       style="fill:none;fill-rule:evenodd;stroke:black;stroke-width:1px;stroke-linecap:butt;stroke-linejoin:miter;stroke-opacity:1"
       d="M 521.42857,106.6479 C 521.28685,107.21478 519.1551,112.30097 518.57143,115.21932"
       id="path6984" />
    <path
       style="fill:none;fill-rule:evenodd;stroke:black;stroke-width:1px;stroke-linecap:butt;stroke-linejoin:miter;stroke-opacity:1"
       d="M 575.71429,43.076467 C 575.16951,45.255588 579.84028,45.059602 581.42857,46.647896"
       id="path6986" />
    <path
       style="fill:none;fill-rule:evenodd;stroke:black;stroke-width:1px;stroke-linecap:butt;stroke-linejoin:miter;stroke-opacity:1"
       d="M 600.71429,62.362182 C 600.26327,64.166242 603.57143,64.743134 605,65.93361"
       id="path6988" />
    <path
       style="fill:none;fill-rule:evenodd;stroke:black;stroke-width:1px;stroke-linecap:butt;stroke-linejoin:miter;stroke-opacity:1"
       d="M 580,109.50504 C 579.46045,111.66325 582.22882,113.79075 587.14286,113.79075"
       id="path6990" />
    <path
       style="fill:none;fill-rule:evenodd;stroke:black;stroke-width:1px;stroke-linecap:butt;stroke-linejoin:miter;stroke-opacity:1"
       d="M 552.14286,68.076467 C 551.7731,69.555501 549.76191,69.981229 548.57143,70.93361"
       id="path6992" />
    <path
       id="path6994"
       d="M 435.7228,120.87102 C 435.66788,120.92691 435.75626,120.91544 435.78218,120.89725 C 435.79726,120.88667 435.7926,120.87324 435.7228,120.87102 z M 435.78218,120.89725 C 436.0251,121.67558 436.2076,122.48232 436.56879,123.21365 C 436.34792,123.8677 435.89994,124.49258 435.81479,125.16133 C 435.05887,125.89934 435.66111,126.69343 436.69543,126.01824 C 437.33004,125.94107 438.68044,125.6659 437.64983,126.41064 C 437.40291,126.71651 437.11908,127.0252 436.85673,127.3371 C 436.82396,127.32872 436.79255,127.32468 436.74951,127.32871 C 435.91026,127.20574 435.44824,126.59677 434.56358,126.53847 C 434.03133,126.57262 433.47756,126.91191 433.21666,127.31773 C 432.46344,128.06536 431.33646,128.52941 430.27685,128.75787 C 429.99953,128.83675 429.65992,128.98296 429.57233,129.22638 C 430.44609,129.11204 431.31963,128.69156 432.19189,128.61946 C 432.89901,128.40895 433.53548,127.93102 433.86204,127.38842 C 434.11318,127.10153 434.66158,127.00452 434.88631,127.20737 C 435.41578,127.41378 435.96572,127.60113 436.49306,127.80999 C 436.27788,128.12907 436.12752,128.45372 436.11708,128.79403 C 436.05495,129.95391 434.47298,129.39887 433.73713,130.15985 C 433.45561,130.50965 433.22766,130.91529 433.08128,131.32241 C 431.92125,131.60576 430.76136,131.85506 429.65639,132.38255 C 428.23546,133.10902 427.0483,134.14785 426.13737,135.25301 C 426.61386,135.16882 426.92229,134.77447 427.12757,134.45261 C 427.63191,133.77049 428.33748,133.06038 429.28142,132.74322 C 430.36169,132.31333 430.85483,132.11598 433.01689,131.52789 C 432.89728,131.93903 432.86578,132.34113 432.94935,132.68718 C 433.44398,133.46436 435.02368,131.76666 434.86097,132.93714 C 434.94232,133.67643 435.41137,134.44921 434.88938,135.25972 C 434.34592,135.81988 432.89635,136.95091 433.34726,137.26859 C 434.25106,136.16797 435.5507,134.96818 435.35521,133.7598 C 435.51744,133.05432 434.34884,132.2899 435.64094,131.80993 C 436.93563,131.29663 436.32861,130.30384 436.07556,129.78937 C 436.62979,129.1188 437.95578,128.83584 438.68595,128.73979 C 439.21958,129.10221 440.69154,128.12131 440.31462,129.13767 C 439.92077,129.8795 439.2616,130.59306 439.21247,131.3604 C 439.27728,131.83126 438.72964,132.95446 439.6292,132.82136 C 440.38727,132.12663 440.0179,131.2891 440.39816,130.52939 C 440.70624,129.81376 441.31913,129.1434 441.61143,128.42397 C 441.28768,127.82534 440.10075,128.4728 439.39972,128.36309 C 438.10787,128.63831 439.86787,127.50444 439.8748,126.95498 C 440.0664,126.55652 440.45896,125.85004 440.5929,126.55095 C 440.95839,126.98582 440.40803,128.37827 441.76486,127.62427 C 442.66012,126.99406 443.64794,126.55913 444.52492,125.94879 C 445.6141,125.78935 446.77536,125.77206 447.8311,125.46974 C 448.3112,124.78869 446.50464,125.50945 446.0646,125.3229 C 445.08871,125.59765 444.03064,125.65616 443.10353,126.12983 C 442.4011,126.70647 440.89403,127.43586 441.75578,126.19721 C 442.02516,125.38615 439.93598,126.05127 441.07541,125.14611 C 441.44351,124.63423 441.62428,124.57661 441.67545,125.1188 C 441.9477,125.95945 443.42312,125.71081 444.29092,125.10464 C 445.42431,124.55534 445.91787,123.5699 446.88596,122.91762 C 447.92347,122.38059 449.05394,121.98491 450.00791,121.31427 C 450.46178,121.01024 451.30779,120.56387 450.26846,120.87381 C 449.23228,121.23955 448.21148,121.74958 447.30512,122.36204 C 446.20154,122.98218 445.03257,123.60675 444.34902,124.55523 C 443.83009,125.3293 443.03935,125.19464 442.82187,124.60184 C 442.51844,124.29346 441.57306,124.34933 442.65663,124.15845 C 445.01659,123.55543 447.05218,121.62106 447.31678,119.80373 C 447.64171,118.98773 447.66474,117.89148 446.51749,117.78389 C 444.93644,117.63527 443.28129,118.78047 442.3341,119.90274 C 441.71602,120.63583 441.06432,121.35997 440.36675,122.05516 C 439.50622,122.9821 440.93148,123.60972 440.17409,124.43602 C 440.40271,123.6271 439.92984,122.91351 438.79785,123.16523 C 438.3919,122.60614 440.21816,121.85383 440.63915,121.2398 C 441.31422,120.30957 442.03197,119.37636 442.61083,118.42651 C 442.61876,117.88057 443.87232,116.76429 443.35822,116.55386 C 442.69439,117.15816 442.2263,118.13988 441.7226,118.90157 C 441.41333,119.67488 440.97335,120.55304 439.94226,121.00989 C 438.73872,121.75198 437.57897,123.06924 438.126,124.02831 C 438.27,124.68594 440.00627,124.36011 439.9697,124.5894 C 439.23989,124.88318 438.44371,125.95829 438.19149,125.10016 C 437.68205,124.42864 436.02187,126.3232 436.56934,124.97808 C 437.06055,124.1536 437.08775,123.36549 436.84362,122.63329 C 436.79828,121.92069 436.43154,121.24271 436.03875,120.6987 C 435.92273,120.72855 435.89032,120.85621 435.78218,120.89725 z M 443.1054,116.57864 C 443.07813,116.59841 443.05621,116.63839 443.1254,116.63621 C 443.16535,116.55932 443.13269,116.55888 443.1054,116.57864 z "
       style="fill:black;fill-rule:evenodd;stroke:black;stroke-width:0.27217889px;stroke-linecap:butt;stroke-linejoin:miter;stroke-opacity:1" />
    <path
       style="fill:black;fill-rule:evenodd;stroke:black;stroke-width:0.27217889px;stroke-linecap:butt;stroke-linejoin:miter;stroke-opacity:1"
       d="M 480.54612,106.34596 C 480.47659,106.38208 480.56417,106.39856 480.59445,106.38929 C 480.61207,106.38391 480.6118,106.36969 480.54612,106.34596 z M 480.59445,106.38929 C 480.58434,107.20459 480.50797,108.02818 480.62488,108.83542 C 480.21228,109.38888 479.59278,109.84427 479.30467,110.45376 C 478.35733,110.92133 478.68398,111.86291 479.87657,111.5413 C 480.50387,111.6645 481.8731,111.82114 480.66248,112.21003 C 480.33297,112.42438 479.96749,112.62996 479.62143,112.84526 C 479.59286,112.82714 479.56425,112.81358 479.52208,112.80407 C 478.76219,112.4272 478.51152,111.70506 477.68843,111.37561 C 477.17178,111.24322 476.54015,111.3943 476.16638,111.69934 C 475.21862,112.17689 474.00333,112.26905 472.92507,112.15805 C 472.63696,112.14715 472.26876,112.18098 472.11008,112.3853 C 472.97629,112.54723 473.93711,112.418 474.7888,112.61963 C 475.52635,112.6385 476.27956,112.38122 476.75812,111.96646 C 477.08578,111.77147 477.63725,111.8491 477.7881,112.11158 C 478.22759,112.47184 478.69246,112.82031 479.12916,113.18225 C 478.82573,113.41898 478.58221,113.6811 478.46687,114.00143 C 478.04853,115.08502 476.71628,114.06728 475.78091,114.56289 C 475.40489,114.8083 475.06251,115.12338 474.79721,115.46513 C 473.60647,115.37523 472.42641,115.25299 471.21239,115.41228 C 469.63632,115.66289 468.18577,116.28291 466.97732,117.05156 C 467.45646,117.1191 467.87186,116.83968 468.16675,116.59724 C 468.85757,116.10488 469.74839,115.64824 470.74415,115.63907 C 471.90444,115.56494 472.43446,115.53004 474.67235,115.64056 C 474.43127,115.99443 474.27677,116.367 474.24904,116.72192 C 474.47862,117.61408 476.50648,116.48918 475.98922,117.5517 C 475.83758,118.27983 476.04419,119.15989 475.29682,119.76886 C 474.60658,120.13313 472.87796,120.75953 473.2083,121.20126 C 474.40856,120.43472 476.01591,119.69649 476.20433,118.48699 C 476.5771,117.86646 475.70276,116.77767 477.07998,116.72153 C 478.46999,116.63449 478.20034,115.50251 478.11909,114.93496 C 478.85377,114.46904 480.20219,114.61072 480.9262,114.74556 C 481.32133,115.25545 483.02473,114.77872 482.35153,115.62835 C 481.74727,116.21171 480.89949,116.68599 480.6151,117.40038 C 480.53088,117.86815 479.66226,118.76648 480.55881,118.91857 C 481.49478,118.49281 481.403,117.58207 481.99988,116.9775 C 482.51447,116.39249 483.30487,115.94494 483.80563,115.35143 C 483.68322,114.68197 482.35412,114.92993 481.72155,114.60848 C 480.40798,114.47002 482.43264,113.93706 482.60942,113.41678 C 482.91502,113.09726 483.50711,112.54712 483.41735,113.25504 C 483.63017,113.78174 482.67557,114.93523 484.19922,114.63859 C 485.24565,114.31668 486.31961,114.20912 487.34251,113.90044 C 488.42751,114.08621 489.53702,114.42946 490.63447,114.46902 C 491.30191,113.97018 489.36095,114.09592 489.00033,113.78224 C 487.98734,113.7412 486.96318,113.4691 485.93495,113.6323 C 485.08846,113.963 483.42958,114.18971 484.63261,113.2789 C 485.13996,112.59117 482.94751,112.57646 484.31127,112.06875 C 484.81983,111.69607 485.00956,111.69727 484.89027,112.22864 C 484.88874,113.11228 486.36861,113.33287 487.3815,113.02532 C 488.62929,112.8541 489.40381,112.07 490.52633,111.74967 C 491.67915,111.56041 492.87659,111.53436 493.99137,111.19219 C 494.51709,111.0437 495.45976,110.88133 494.37554,110.85409 C 493.27703,110.88089 492.14846,111.04965 491.09696,111.35124 C 489.85558,111.59906 488.55064,111.83082 487.60691,112.52092 C 486.87374,113.09619 486.1636,112.72322 486.14043,112.09221 C 485.94745,111.70501 485.03126,111.46531 486.12066,111.61945 C 488.55134,111.77708 491.08598,110.56836 491.90048,108.92237 C 492.46219,108.24715 492.82365,107.21195 491.76614,106.75428 C 490.30889,106.12325 488.38042,106.69945 487.13219,107.47314 C 486.31744,107.97872 485.47349,108.46538 484.59488,108.91032 C 483.48956,109.52512 484.65032,110.56334 483.67424,111.11441 C 484.14217,110.41608 483.91359,109.59112 482.7593,109.47983 C 482.5465,108.82249 484.51597,108.67286 485.10645,108.21943 C 486.03645,107.54405 487.00796,106.87906 487.85256,106.15522 C 488.02921,105.63859 489.56689,104.9655 489.14325,104.60617 C 488.32489,104.97514 487.57573,105.76358 486.86087,106.33179 C 486.32728,106.97127 485.63693,107.66996 484.51504,107.78497 C 483.14083,108.11776 481.6301,109.01101 481.85316,110.09235 C 481.78638,110.76225 483.53818,110.99025 483.43239,111.19693 C 482.64748,111.2502 481.55744,112.02583 481.58343,111.13177 C 481.30705,110.33548 479.14168,111.62263 480.07887,110.51324 C 480.80131,109.88146 481.07128,109.14054 481.06595,108.36873 C 481.24357,107.67713 481.10487,106.9189 480.8999,106.27998 C 480.78035,106.27243 480.70999,106.38377 480.59445,106.38929 z M 488.89519,104.55143 C 488.86313,104.56178 488.8299,104.593 488.89638,104.61236 C 488.95818,104.55163 488.92725,104.54109 488.89519,104.55143 z "
       id="path6996"
       inkscape:transform-center-x="-7.1428572"
       inkscape:transform-center-y="4.2857143" />
    <path
       id="path6998"
       d="M 498.06963,186.81932 C 498.09491,186.74515 498.02023,186.79377 498.00475,186.8214 C 497.99574,186.83747 498.00576,186.84755 498.06963,186.81932 z M 498.00475,186.8214 C 497.44859,186.22517 496.93458,185.57714 496.29219,185.07452 C 496.20788,184.38934 496.34089,183.63207 496.12789,182.99245 C 496.48943,181.9998 495.6026,181.54503 494.96293,182.60169 C 494.42442,182.9462 493.32656,183.77928 493.93275,182.66154 C 494.02276,182.27889 494.14483,181.87771 494.24614,181.48293 C 494.27932,181.47629 494.30936,181.46632 494.34642,181.44404 C 495.15607,181.19125 495.83633,181.53992 496.6589,181.20917 C 497.1238,180.94779 497.47589,180.40207 497.53521,179.92329 C 497.89014,178.92313 498.7048,178.01661 499.56081,177.35162 C 499.77657,177.16037 500.0193,176.88146 499.99278,176.62413 C 499.25483,177.10574 498.64971,177.86318 497.89481,178.30607 C 497.34872,178.80217 496.98215,179.50867 496.92292,180.13919 C 496.82088,180.50657 496.36865,180.83159 496.07822,180.74615 C 495.5116,180.78951 494.93479,180.85894 494.36902,180.89917 C 494.42471,180.51836 494.41956,180.16062 494.28153,179.84939 C 493.835,178.77711 495.50124,178.59193 495.83475,177.58727 C 495.93691,177.15003 495.9666,176.68569 495.92214,176.25534 C 496.84488,175.49737 497.78224,174.77014 498.54957,173.81598 C 499.51545,172.54561 500.13531,171.09499 500.47748,169.70427 C 500.08451,169.98661 499.97739,170.47564 499.93182,170.85467 C 499.77281,171.68796 499.44458,172.63366 498.73124,173.32847 C 497.94389,174.18395 497.58495,174.57547 495.89115,176.04226 C 495.82082,175.61988 495.67499,175.24383 495.44974,174.96816 C 494.66723,174.48201 493.97905,176.69652 493.61856,175.57111 C 493.22494,174.94006 492.46738,174.4468 492.58666,173.49016 C 492.83377,172.74984 493.6502,171.10243 493.10617,171.01148 C 492.76846,172.39501 492.11697,174.03943 492.8167,175.0438 C 492.97614,175.74992 494.36055,175.93256 493.40398,176.92496 C 492.45951,177.94853 493.43675,178.5803 493.88771,178.93432 C 493.67873,179.77882 492.60625,180.60834 491.9898,181.01127 C 491.35182,180.91584 490.45019,182.43764 490.34954,181.35832 C 490.38309,180.51909 490.66803,179.59038 490.37985,178.87752 C 490.11742,178.48123 490.12435,177.23165 489.37127,177.74135 C 488.98906,178.69594 489.68483,179.29074 489.67127,180.14019 C 489.70366,180.91865 489.44172,181.78837 489.48999,182.56341 C 490.04114,182.96266 490.83036,181.86489 491.5097,181.66003 C 492.55477,180.85226 491.4598,182.63673 491.69161,183.13494 C 491.69157,183.57708 491.64386,184.38389 491.21947,183.81021 C 490.70165,183.57663 490.59437,182.08321 489.69818,183.35063 C 489.16436,184.3065 488.46251,185.12647 487.93655,186.05652 C 487.02399,186.67212 485.98488,187.19083 485.16436,187.92072 C 485.02674,188.74253 486.34264,187.31022 486.82007,187.2877 C 487.58056,186.61726 488.50882,186.1061 489.13917,185.27751 C 489.52241,184.45348 490.56466,183.14314 490.32466,184.63286 C 490.43328,185.48055 492.02802,183.97593 491.39326,185.2854 C 491.28328,185.90623 491.14532,186.03648 490.86429,185.57 C 490.2547,184.9303 489.03269,185.79363 488.51319,186.71594 C 487.7297,187.70207 487.71182,188.80405 487.12193,189.81136 C 486.41953,190.74488 485.57211,191.59129 485.00288,192.60903 C 484.72555,193.07969 484.15646,193.84854 484.95889,193.1189 C 485.73431,192.34032 486.43335,191.43838 486.98487,190.49369 C 487.71079,189.45665 488.49375,188.38727 488.69887,187.23628 C 488.83119,186.3138 489.6022,186.09257 490.05505,186.53261 C 490.46212,186.67909 491.28996,186.21913 490.39608,186.86063 C 488.53038,188.4266 487.53386,191.05193 488.08277,192.80448 C 488.14347,193.68068 488.59768,194.67868 489.67827,194.27859 C 491.16761,193.72752 492.16317,191.97828 492.5306,190.55642 C 492.77004,189.62793 493.04364,188.69292 493.37115,187.76413 C 493.74511,186.55588 492.18865,186.60774 492.51324,185.53487 C 492.65768,186.36298 493.39302,186.80123 494.30419,186.08392 C 494.9123,186.41193 493.59229,187.88121 493.47891,188.61702 C 493.27352,189.74789 493.03096,190.89993 492.92079,192.0068 C 493.15019,192.50227 492.50402,194.05146 493.05854,194.01838 C 493.395,193.18612 493.39154,192.09852 493.5155,191.19381 C 493.45919,190.36285 493.47526,189.38076 494.20661,188.52229 C 494.96979,187.33202 495.44432,185.64233 494.53578,185.01496 C 494.12106,184.48465 492.69739,185.53058 492.631,185.30809 C 493.16147,184.72711 493.41324,183.41319 494.01236,184.07732 C 494.76244,184.46181 495.43785,182.03501 495.52724,183.48453 C 495.44173,184.44043 495.75868,185.16252 496.29594,185.71664 C 496.64555,186.33925 497.26983,186.79139 497.85953,187.1115 C 497.95116,187.03433 497.92507,186.90524 498.00475,186.8214 z M 493.27566,193.8865 C 493.29167,193.85687 493.29412,193.81134 493.23269,193.84329 C 493.23,193.92989 493.25963,193.91613 493.27566,193.8865 z "
       style="fill:black;fill-rule:evenodd;stroke:black;stroke-width:0.27217889px;stroke-linecap:butt;stroke-linejoin:miter;stroke-opacity:1" />
    <path
       style="fill:black;fill-rule:evenodd;stroke:black;stroke-width:0.27217889px;stroke-linecap:butt;stroke-linejoin:miter;stroke-opacity:1"
       d="M 574.91015,146.20875 C 574.92978,146.28461 574.96545,146.20294 574.96321,146.17135 C 574.96191,146.15298 574.94799,146.15006 574.91015,146.20875 z M 574.96321,146.17135 C 575.75552,146.36386 576.54105,146.6228 577.35398,146.68972 C 577.80093,147.21582 578.10595,147.92161 578.6354,148.33894 C 578.87885,149.36695 579.86967,149.25955 579.82342,148.02523 C 580.08402,147.44146 580.54344,146.14214 580.65122,147.40911 C 580.78629,147.77827 580.90478,148.18053 581.03707,148.56602 C 581.01301,148.5898 580.99338,148.61464 580.97467,148.65362 C 580.43713,149.30975 579.6772,149.39227 579.17172,150.12063 C 578.92694,150.59449 578.93266,151.24391 579.14622,151.67652 C 579.39931,152.70717 579.21684,153.91221 578.8671,154.9382 C 578.79193,155.21655 578.7424,155.58296 578.90598,155.78338 C 579.25785,154.97547 579.34718,154.01012 579.73448,153.22526 C 579.91812,152.51069 579.83612,151.71898 579.53912,151.15966 C 579.4225,150.79665 579.62169,150.27658 579.9113,150.18838 C 580.36088,149.84077 580.80464,149.46579 581.25522,149.12127 C 581.41795,149.47003 581.61884,149.76609 581.9052,149.95026 C 582.86751,150.60073 581.57716,151.67109 581.85063,152.69373 C 582.00554,153.11517 582.23591,153.51945 582.50955,153.85456 C 582.15516,154.99488 581.77164,156.11758 581.6549,157.33641 C 581.54604,158.92856 581.82533,160.48116 582.30369,161.83109 C 582.47686,161.37927 582.29761,160.91181 582.1274,160.57012 C 581.80233,159.78655 581.55688,158.81607 581.77103,157.84357 C 581.95871,156.69615 582.04345,156.17179 582.65253,154.01556 C 582.94341,154.32977 583.27189,154.56382 583.61156,154.67037 C 584.53249,154.6465 583.89051,152.41816 584.81013,153.16031 C 585.48577,153.47124 586.38976,153.46704 586.81579,154.33185 C 587.01617,155.08615 587.23938,156.91116 587.74389,156.6882 C 587.26573,155.3467 586.90638,153.61482 585.76983,153.16022 C 585.24859,152.65789 583.99159,153.26609 584.24542,151.9113 C 584.47203,150.53712 583.30841,150.54631 582.73708,150.49834 C 582.4476,149.67796 582.88777,148.39556 583.18139,147.72015 C 583.76683,147.4493 583.68386,145.6824 584.36106,146.52883 C 584.79422,147.24843 585.06652,148.18091 585.69903,148.61813 C 586.13604,148.80501 586.81693,149.8528 587.16601,149.01311 C 586.96077,148.00555 586.0526,147.89095 585.59713,147.1738 C 585.14228,146.54123 584.88319,145.67066 584.41696,145.04966 C 583.73708,145.01897 583.68098,146.36984 583.22598,146.91431 C 582.79675,148.16347 582.73094,146.07088 582.26348,145.78201 C 582.02056,145.4126 581.61705,144.71232 582.28687,144.95839 C 582.84786,144.86899 583.75817,146.05775 583.81042,144.50637 C 583.73113,143.41442 583.8669,142.34366 583.79524,141.2776 C 584.21937,140.2618 584.80247,139.25741 585.08689,138.19671 C 584.75027,137.43448 584.43796,139.35426 584.05147,139.63544 C 583.78452,140.61349 583.28988,141.55066 583.21857,142.58932 C 583.35123,143.48838 583.20052,145.15588 582.58239,143.77937 C 582.0258,143.13084 581.52028,145.26426 581.33101,143.82142 C 581.08172,143.2423 581.12541,143.05765 581.61655,143.29297 C 582.47738,143.49242 583.02392,142.0996 582.9511,141.04355 C 583.06378,139.78913 582.47315,138.85862 582.41244,137.69286 C 582.48627,136.52694 582.72915,135.35411 582.64543,134.19101 C 582.6185,133.64538 582.67145,132.6903 582.40199,133.74086 C 582.18201,134.81744 582.09363,135.95513 582.15199,137.04748 C 582.11537,138.31283 582.0489,139.63652 582.51003,140.71087 C 582.90642,141.55427 582.38383,142.1628 581.76367,142.04401 C 581.34307,142.14535 580.90421,142.98454 581.29849,141.95737 C 581.99668,139.6238 581.38654,136.88278 579.96487,135.72023 C 579.43265,135.02153 578.50475,134.43732 577.82181,135.36541 C 576.88032,136.64425 577.00982,138.65279 577.4842,140.04263 C 577.79439,140.94994 578.07961,141.88147 578.31638,142.83741 C 578.66794,144.05238 579.93982,143.15373 580.2582,144.22846 C 579.68246,143.61596 578.82725,143.65391 578.46019,144.75393 C 577.77189,144.81406 578.06729,142.86113 577.75768,142.18407 C 577.30782,141.1264 576.87739,140.0306 576.36118,139.04529 C 575.89725,138.75739 575.58577,137.10801 575.14067,137.44038 C 575.31691,138.3206 575.91747,139.22735 576.31108,140.05134 C 576.81476,140.71464 577.34103,141.54397 577.20177,142.6631 C 577.21823,144.07694 577.7503,145.74938 578.85414,145.77426 C 579.49203,145.98943 580.10671,144.33323 580.28444,144.48265 C 580.16051,145.25954 580.67222,146.49564 579.8067,146.27001 C 578.96873,146.36097 579.73804,148.75966 578.86682,147.59775 C 578.41295,146.75214 577.75135,146.32303 576.99796,146.15531 C 576.36374,145.82726 575.5937,145.79256 574.9251,145.84918 C 574.89095,145.964 574.9837,146.05752 574.96321,146.17135 z M 575.03174,137.66987 C 575.03464,137.70342 575.05762,137.7428 575.09139,137.68236 C 575.04604,137.60852 575.02884,137.63629 575.03174,137.66987 z "
       id="path7000" />
  </g>
</svg>
