<svg width="722" height="722" xmlns="http://www.w3.org/2000/svg" xmlns:xlink="http://www.w3.org/1999/xlink" overflow="hidden"><defs><clipPath id="clip0"><path d="M279-1 1001-1 1001 721 279 721Z" fill-rule="evenodd" clip-rule="evenodd"/></clipPath><clipPath id="clip1"><path d="M280 0 1000 0 1000 720 280 720Z" fill-rule="evenodd" clip-rule="evenodd"/></clipPath><clipPath id="clip2"><path d="M280 0 1001 0 1001 721 280 721Z" fill-rule="evenodd" clip-rule="evenodd"/></clipPath><clipPath id="clip3"><path d="M280 0 1001 0 1001 721 280 721Z" fill-rule="evenodd" clip-rule="evenodd"/></clipPath><clipPath id="clip4"><path d="M744 19 808 19 808 83 744 83Z" fill-rule="evenodd" clip-rule="evenodd"/></clipPath><clipPath id="clip5"><path d="M744 19 808 19 808 83 744 83Z" fill-rule="evenodd" clip-rule="evenodd"/></clipPath><clipPath id="clip6"><path d="M744 19 808 19 808 83 744 83Z" fill-rule="evenodd" clip-rule="evenodd"/></clipPath><clipPath id="clip7"><path d="M563 110 627 110 627 174 563 174Z" fill-rule="evenodd" clip-rule="evenodd"/></clipPath><clipPath id="clip8"><path d="M563 110 627 110 627 174 563 174Z" fill-rule="evenodd" clip-rule="evenodd"/></clipPath><clipPath id="clip9"><path d="M563 110 627 110 627 174 563 174Z" fill-rule="evenodd" clip-rule="evenodd"/></clipPath><clipPath id="clip10"><path d="M382 202 446 202 446 266 382 266Z" fill-rule="evenodd" clip-rule="evenodd"/></clipPath><clipPath id="clip11"><path d="M382 202 446 202 446 266 382 266Z" fill-rule="evenodd" clip-rule="evenodd"/></clipPath><clipPath id="clip12"><path d="M382 202 446 202 446 266 382 266Z" fill-rule="evenodd" clip-rule="evenodd"/></clipPath><clipPath id="clip13"><path d="M833 296 897 296 897 360 833 360Z" fill-rule="evenodd" clip-rule="evenodd"/></clipPath><clipPath id="clip14"><path d="M833 296 897 296 897 360 833 360Z" fill-rule="evenodd" clip-rule="evenodd"/></clipPath><clipPath id="clip15"><path d="M833 296 897 296 897 360 833 360Z" fill-rule="evenodd" clip-rule="evenodd"/></clipPath><clipPath id="clip16"><path d="M653 383 717 383 717 447 653 447Z" fill-rule="evenodd" clip-rule="evenodd"/></clipPath><clipPath id="clip17"><path d="M653 383 717 383 717 447 653 447Z" fill-rule="evenodd" clip-rule="evenodd"/></clipPath><clipPath id="clip18"><path d="M653 383 717 383 717 447 653 447Z" fill-rule="evenodd" clip-rule="evenodd"/></clipPath><clipPath id="clip19"><path d="M923 473 987 473 987 537 923 537Z" fill-rule="evenodd" clip-rule="evenodd"/></clipPath><clipPath id="clip20"><path d="M923 473 987 473 987 537 923 537Z" fill-rule="evenodd" clip-rule="evenodd"/></clipPath><clipPath id="clip21"><path d="M923 473 987 473 987 537 923 537Z" fill-rule="evenodd" clip-rule="evenodd"/></clipPath><clipPath id="clip22"><path d="M472 656 536 656 536 720 472 720Z" fill-rule="evenodd" clip-rule="evenodd"/></clipPath><clipPath id="clip23"><path d="M472 656 536 656 536 720 472 720Z" fill-rule="evenodd" clip-rule="evenodd"/></clipPath><clipPath id="clip24"><path d="M472 656 536 656 536 720 472 720Z" fill-rule="evenodd" clip-rule="evenodd"/></clipPath><clipPath id="clip25"><path d="M292 563 356 563 356 627 292 627Z" fill-rule="evenodd" clip-rule="evenodd"/></clipPath><clipPath id="clip26"><path d="M292 563 356 563 356 627 292 627Z" fill-rule="evenodd" clip-rule="evenodd"/></clipPath><clipPath id="clip27"><path d="M292 563 356 563 356 627 292 627Z" fill-rule="evenodd" clip-rule="evenodd"/></clipPath></defs><g clip-path="url(#clip0)" transform="translate(-279 1)"><g clip-path="url(#clip1)"><g clip-path="url(#clip2)"><g clip-path="url(#clip3)"><path d="M280.449 0.448878 370.224 0.448878 370.224 718.653 280.449 718.653Z" stroke="#000000" stroke-width="0.897756" fill="#FFFFFF"/><path d="M908.878 0.448878 998.653 0.448878 998.653 718.653 908.878 718.653Z" stroke="#000000" stroke-width="0.897756" fill="#FFFFFF"/><path d="M819.102 0.448878 908.878 0.448878 908.878 718.653 819.102 718.653Z" stroke="#000000" stroke-width="0.897756" fill="#FFFFFF"/><path d="M729.327 0.448878 819.102 0.448878 819.102 718.653 729.327 718.653Z" stroke="#000000" stroke-width="0.897756" fill="#FFFFFF"/><path d="M549.776 0.448878 639.551 0.448878 639.551 718.653 549.776 718.653Z" stroke="#000000" stroke-width="0.897756" fill="#FFFFFF"/><path d="M460 0.448878 549.776 0.448878 549.776 718.653 460 718.653Z" stroke="#000000" stroke-width="0.897756" fill="#FFFFFF"/><path d="M370.224 0.448878 460 0.448878 460 718.653 370.224 718.653Z" stroke="#000000" stroke-width="0.897756" fill="#FFFFFF"/><path d="M639.551 0.448878 729.327 0.448878 729.327 718.653 639.551 718.653Z" stroke="#000000" stroke-width="0.897756" fill="#FFFFFF"/><path d="M998.653 539.102 998.653 628.878 280.449 628.878 280.449 539.102Z" stroke="#000000" stroke-width="0.897756" fill="none"/><path d="M998.653 0.448883 998.653 90.2244 280.449 90.2244 280.449 0.448883Z" stroke="#000000" stroke-width="0.897756" fill="none"/><path d="M998.653 449.327 998.653 539.102 280.449 539.102 280.449 449.327Z" stroke="#000000" stroke-width="0.897756" fill="none"/><path d="M998.653 359.551 998.653 449.327 280.449 449.327 280.449 359.551Z" stroke="#000000" stroke-width="0.897756" fill="none"/><path d="M998.653 269.776 998.653 359.551 280.449 359.551 280.449 269.776Z" stroke="#000000" stroke-width="0.897756" fill="none"/><path d="M998.653 180 998.653 269.776 280.449 269.776 280.449 180Z" stroke="#000000" stroke-width="0.897756" fill="none"/><path d="M998.653 90.2245 998.653 180 280.449 180 280.449 90.2245Z" stroke="#000000" stroke-width="0.897756" fill="none"/></g></g></g><g clip-path="url(#clip4)"><g clip-path="url(#clip5)"><g clip-path="url(#clip6)"><path d="M804.049 23C801.816 23 800 24.816 800 27.048 800 28.231 800.519 29.287 801.331 30.027L784.691 43.685 777.094 26.943C778.818 26.479 780.098 24.917 780.098 23.048 780.098 20.816 778.281 19 776.049 19 773.817 19 772 20.816 772 23.048 772 24.917 773.28 26.478 775.004 26.943L767.406 43.685 750.767 30.028C751.579 29.287 752.098 28.231 752.098 27.049 752.098 24.816 750.281 23 748.049 23 745.817 23 744 24.816 744 27.048 744 29.28 745.816 31.096 748.049 31.096 748.411 31.096 748.756 31.033 749.09 30.943 749.097 30.973 749.094 31.004 749.104 31.035L758.632 60.126 757.05 60.126C756.541 60.126 756.129 60.539 756.129 61.047L756.129 65.047C756.129 65.556 756.541 65.968 757.05 65.968L795.05 65.968C795.559 65.968 795.971 65.555 795.971 65.047L795.971 61.047C795.971 60.538 795.559 60.126 795.05 60.126L793.468 60.126 802.996 31.035C803.006 31.005 803.003 30.974 803.01 30.943 803.344 31.033 803.689 31.096 804.051 31.096 806.283 31.096 808.1 29.28 808.1 27.048 808.1 24.816 806.281 23 804.049 23ZM746.098 27.048C746.098 25.972 746.973 25.096 748.049 25.096 749.125 25.097 750 25.972 750 27.048 750 28.125 749.125 29 748.049 29 746.973 29 746.098 28.125 746.098 27.048ZM794.128 64.127 757.97 64.127 757.97 61.97 794.128 61.97 794.128 64.127ZM774.098 23.048C774.098 21.972 774.973 21.096 776.049 21.096 777.125 21.097 778 21.972 778 23.048 778 24.124 777.125 25 776.049 25 774.973 25 774.098 24.124 774.098 23.048ZM791.396 60.053 760.701 60.053 752.058 33.663 767.145 46.046C767.385 46.243 767.703 46.317 768.002 46.246 768.304 46.176 768.555 45.97 768.683 45.688L776.049 29.457 783.415 45.688C783.543 45.97 783.794 46.176 784.096 46.246 784.395 46.318 784.713 46.243 784.953 46.046L800.04 33.663 791.396 60.053ZM804.049 29C802.973 29 802.098 28.125 802.098 27.048 802.098 25.972 802.973 25.096 804.049 25.096 805.125 25.097 806 25.972 806 27.048 806 28.125 805.125 29 804.049 29Z"/></g></g></g><g clip-path="url(#clip7)"><g clip-path="url(#clip8)"><g clip-path="url(#clip9)"><path d="M623.049 114C620.816 114 619 115.816 619 118.048 619 119.231 619.519 120.287 620.331 121.027L603.691 134.685 596.094 117.943C597.818 117.479 599.098 115.917 599.098 114.048 599.098 111.816 597.281 110 595.049 110 592.817 110 591 111.816 591 114.048 591 115.917 592.28 117.478 594.004 117.943L586.406 134.685 569.767 121.028C570.579 120.287 571.098 119.231 571.098 118.049 571.098 115.816 569.281 114 567.049 114 564.817 114 563 115.816 563 118.048 563 120.28 564.816 122.096 567.049 122.096 567.411 122.096 567.756 122.033 568.09 121.943 568.097 121.973 568.094 122.004 568.104 122.035L577.632 151.126 576.05 151.126C575.541 151.126 575.129 151.539 575.129 152.047L575.129 156.047C575.129 156.556 575.541 156.968 576.05 156.968L614.05 156.968C614.559 156.968 614.971 156.555 614.971 156.047L614.971 152.047C614.971 151.538 614.559 151.126 614.05 151.126L612.468 151.126 621.996 122.035C622.006 122.005 622.003 121.974 622.01 121.943 622.344 122.033 622.689 122.096 623.051 122.096 625.283 122.096 627.1 120.28 627.1 118.048 627.1 115.816 625.281 114 623.049 114ZM565.098 118.048C565.098 116.972 565.973 116.096 567.049 116.096 568.125 116.097 569 116.972 569 118.048 569 119.125 568.125 120 567.049 120 565.973 120 565.098 119.125 565.098 118.048ZM613.128 155.127 576.97 155.127 576.97 152.97 613.128 152.97 613.128 155.127ZM593.098 114.048C593.098 112.972 593.973 112.096 595.049 112.096 596.125 112.097 597 112.972 597 114.048 597 115.124 596.125 116 595.049 116 593.973 116 593.098 115.124 593.098 114.048ZM610.396 151.053 579.701 151.053 571.058 124.663 586.145 137.046C586.385 137.243 586.703 137.317 587.002 137.246 587.304 137.176 587.555 136.97 587.683 136.688L595.049 120.457 602.415 136.688C602.543 136.97 602.794 137.176 603.096 137.246 603.395 137.318 603.713 137.243 603.953 137.046L619.04 124.663 610.396 151.053ZM623.049 120C621.973 120 621.098 119.125 621.098 118.048 621.098 116.972 621.973 116.096 623.049 116.096 624.125 116.097 625 116.972 625 118.048 625 119.125 624.125 120 623.049 120Z"/></g></g></g><g clip-path="url(#clip10)"><g clip-path="url(#clip11)"><g clip-path="url(#clip12)"><path d="M442.049 206C439.816 206 438 207.816 438 210.048 438 211.231 438.519 212.287 439.331 213.027L422.691 226.685 415.094 209.943C416.818 209.479 418.098 207.917 418.098 206.048 418.098 203.816 416.281 202 414.049 202 411.817 202 410 203.816 410 206.048 410 207.917 411.28 209.478 413.004 209.943L405.406 226.685 388.767 213.028C389.579 212.287 390.098 211.231 390.098 210.049 390.098 207.816 388.281 206 386.049 206 383.817 206 382 207.816 382 210.048 382 212.28 383.816 214.096 386.049 214.096 386.411 214.096 386.756 214.033 387.09 213.943 387.097 213.973 387.094 214.004 387.104 214.035L396.632 243.126 395.05 243.126C394.541 243.126 394.129 243.539 394.129 244.047L394.129 248.047C394.129 248.556 394.541 248.968 395.05 248.968L433.05 248.968C433.559 248.968 433.971 248.555 433.971 248.047L433.971 244.047C433.971 243.538 433.559 243.126 433.05 243.126L431.468 243.126 440.996 214.035C441.006 214.005 441.003 213.974 441.01 213.943 441.344 214.033 441.689 214.096 442.051 214.096 444.283 214.096 446.1 212.28 446.1 210.048 446.1 207.816 444.281 206 442.049 206ZM384.098 210.048C384.098 208.972 384.973 208.096 386.049 208.096 387.125 208.097 388 208.972 388 210.048 388 211.125 387.125 212 386.049 212 384.973 212 384.098 211.125 384.098 210.048ZM432.128 247.127 395.97 247.127 395.97 244.97 432.128 244.97 432.128 247.127ZM412.098 206.048C412.098 204.972 412.973 204.096 414.049 204.096 415.125 204.097 416 204.972 416 206.048 416 207.124 415.125 208 414.049 208 412.973 208 412.098 207.124 412.098 206.048ZM429.396 243.053 398.701 243.053 390.058 216.663 405.145 229.046C405.385 229.243 405.703 229.317 406.002 229.246 406.304 229.176 406.555 228.97 406.683 228.688L414.049 212.457 421.415 228.688C421.543 228.97 421.794 229.176 422.096 229.246 422.395 229.318 422.713 229.243 422.953 229.046L438.04 216.663 429.396 243.053ZM442.049 212C440.973 212 440.098 211.125 440.098 210.048 440.098 208.972 440.973 208.096 442.049 208.096 443.125 208.097 444 208.972 444 210.048 444 211.125 443.125 212 442.049 212Z"/></g></g></g><g clip-path="url(#clip13)"><g clip-path="url(#clip14)"><g clip-path="url(#clip15)"><path d="M893.049 300C890.816 300 889 301.816 889 304.048 889 305.231 889.519 306.287 890.331 307.027L873.691 320.685 866.094 303.943C867.818 303.479 869.098 301.917 869.098 300.048 869.098 297.816 867.281 296 865.049 296 862.817 296 861 297.816 861 300.048 861 301.917 862.28 303.478 864.004 303.943L856.406 320.685 839.767 307.028C840.579 306.287 841.098 305.231 841.098 304.049 841.098 301.816 839.281 300 837.049 300 834.817 300 833 301.816 833 304.048 833 306.28 834.816 308.096 837.049 308.096 837.411 308.096 837.756 308.033 838.09 307.943 838.097 307.973 838.094 308.004 838.104 308.035L847.632 337.126 846.05 337.126C845.541 337.126 845.129 337.539 845.129 338.047L845.129 342.047C845.129 342.556 845.541 342.968 846.05 342.968L884.05 342.968C884.559 342.968 884.971 342.555 884.971 342.047L884.971 338.047C884.971 337.538 884.559 337.126 884.05 337.126L882.468 337.126 891.996 308.035C892.006 308.005 892.003 307.974 892.01 307.943 892.344 308.033 892.689 308.096 893.051 308.096 895.283 308.096 897.1 306.28 897.1 304.048 897.1 301.816 895.281 300 893.049 300ZM835.098 304.048C835.098 302.972 835.973 302.096 837.049 302.096 838.125 302.097 839 302.972 839 304.048 839 305.125 838.125 306 837.049 306 835.973 306 835.098 305.125 835.098 304.048ZM883.128 341.127 846.97 341.127 846.97 338.97 883.128 338.97 883.128 341.127ZM863.098 300.048C863.098 298.972 863.973 298.096 865.049 298.096 866.125 298.097 867 298.972 867 300.048 867 301.124 866.125 302 865.049 302 863.973 302 863.098 301.124 863.098 300.048ZM880.396 337.053 849.701 337.053 841.058 310.663 856.145 323.046C856.385 323.243 856.703 323.317 857.002 323.246 857.304 323.176 857.555 322.97 857.683 322.688L865.049 306.457 872.415 322.688C872.543 322.97 872.794 323.176 873.096 323.246 873.395 323.318 873.713 323.243 873.953 323.046L889.04 310.663 880.396 337.053ZM893.049 306C891.973 306 891.098 305.125 891.098 304.048 891.098 302.972 891.973 302.096 893.049 302.096 894.125 302.097 895 302.972 895 304.048 895 305.125 894.125 306 893.049 306Z"/></g></g></g><g clip-path="url(#clip16)"><g clip-path="url(#clip17)"><g clip-path="url(#clip18)"><path d="M713.049 387C710.816 387 709 388.816 709 391.048 709 392.231 709.519 393.287 710.331 394.027L693.691 407.685 686.094 390.943C687.818 390.479 689.098 388.917 689.098 387.048 689.098 384.816 687.281 383 685.049 383 682.817 383 681 384.816 681 387.048 681 388.917 682.28 390.478 684.004 390.943L676.406 407.685 659.767 394.028C660.579 393.287 661.098 392.231 661.098 391.049 661.098 388.816 659.281 387 657.049 387 654.817 387 653 388.816 653 391.048 653 393.28 654.816 395.096 657.049 395.096 657.411 395.096 657.756 395.033 658.09 394.943 658.097 394.973 658.094 395.004 658.104 395.035L667.632 424.126 666.05 424.126C665.541 424.126 665.129 424.539 665.129 425.047L665.129 429.047C665.129 429.556 665.541 429.968 666.05 429.968L704.05 429.968C704.559 429.968 704.971 429.555 704.971 429.047L704.971 425.047C704.971 424.538 704.559 424.126 704.05 424.126L702.468 424.126 711.996 395.035C712.006 395.005 712.003 394.974 712.01 394.943 712.344 395.033 712.689 395.096 713.051 395.096 715.283 395.096 717.1 393.28 717.1 391.048 717.1 388.816 715.281 387 713.049 387ZM655.098 391.048C655.098 389.972 655.973 389.096 657.049 389.096 658.125 389.097 659 389.972 659 391.048 659 392.125 658.125 393 657.049 393 655.973 393 655.098 392.125 655.098 391.048ZM703.128 428.127 666.97 428.127 666.97 425.97 703.128 425.97 703.128 428.127ZM683.098 387.048C683.098 385.972 683.973 385.096 685.049 385.096 686.125 385.097 687 385.972 687 387.048 687 388.124 686.125 389 685.049 389 683.973 389 683.098 388.124 683.098 387.048ZM700.396 424.053 669.701 424.053 661.058 397.663 676.145 410.046C676.385 410.243 676.703 410.317 677.002 410.246 677.304 410.176 677.555 409.97 677.683 409.688L685.049 393.457 692.415 409.688C692.543 409.97 692.794 410.176 693.096 410.246 693.395 410.318 693.713 410.243 693.953 410.046L709.04 397.663 700.396 424.053ZM713.049 393C711.973 393 711.098 392.125 711.098 391.048 711.098 389.972 711.973 389.096 713.049 389.096 714.125 389.097 715 389.972 715 391.048 715 392.125 714.125 393 713.049 393Z"/></g></g></g><g clip-path="url(#clip19)"><g clip-path="url(#clip20)"><g clip-path="url(#clip21)"><path d="M983.049 477C980.816 477 979 478.816 979 481.048 979 482.231 979.519 483.287 980.331 484.027L963.691 497.685 956.094 480.943C957.818 480.479 959.098 478.917 959.098 477.048 959.098 474.816 957.281 473 955.049 473 952.817 473 951 474.816 951 477.048 951 478.917 952.28 480.478 954.004 480.943L946.406 497.685 929.767 484.028C930.579 483.287 931.098 482.231 931.098 481.049 931.098 478.816 929.281 477 927.049 477 924.817 477 923 478.816 923 481.048 923 483.28 924.816 485.096 927.049 485.096 927.411 485.096 927.756 485.033 928.09 484.943 928.097 484.973 928.094 485.004 928.104 485.035L937.632 514.126 936.05 514.126C935.541 514.126 935.129 514.539 935.129 515.047L935.129 519.047C935.129 519.556 935.541 519.968 936.05 519.968L974.05 519.968C974.559 519.968 974.971 519.555 974.971 519.047L974.971 515.047C974.971 514.538 974.559 514.126 974.05 514.126L972.468 514.126 981.996 485.035C982.006 485.005 982.003 484.974 982.01 484.943 982.344 485.033 982.689 485.096 983.051 485.096 985.283 485.096 987.1 483.28 987.1 481.048 987.1 478.816 985.281 477 983.049 477ZM925.098 481.048C925.098 479.972 925.973 479.096 927.049 479.096 928.125 479.097 929 479.972 929 481.048 929 482.125 928.125 483 927.049 483 925.973 483 925.098 482.125 925.098 481.048ZM973.128 518.127 936.97 518.127 936.97 515.97 973.128 515.97 973.128 518.127ZM953.098 477.048C953.098 475.972 953.973 475.096 955.049 475.096 956.125 475.097 957 475.972 957 477.048 957 478.124 956.125 479 955.049 479 953.973 479 953.098 478.124 953.098 477.048ZM970.396 514.053 939.701 514.053 931.058 487.663 946.145 500.046C946.385 500.243 946.703 500.317 947.002 500.246 947.304 500.176 947.555 499.97 947.683 499.688L955.049 483.457 962.415 499.688C962.543 499.97 962.794 500.176 963.096 500.246 963.395 500.318 963.713 500.243 963.953 500.046L979.04 487.663 970.396 514.053ZM983.049 483C981.973 483 981.098 482.125 981.098 481.048 981.098 479.972 981.973 479.096 983.049 479.096 984.125 479.097 985 479.972 985 481.048 985 482.125 984.125 483 983.049 483Z"/></g></g></g><g clip-path="url(#clip22)"><g clip-path="url(#clip23)"><g clip-path="url(#clip24)"><path d="M532.049 660C529.816 660 528 661.816 528 664.048 528 665.231 528.519 666.287 529.331 667.027L512.691 680.685 505.094 663.943C506.818 663.479 508.098 661.917 508.098 660.048 508.098 657.816 506.281 656 504.049 656 501.817 656 500 657.816 500 660.048 500 661.917 501.28 663.478 503.004 663.943L495.406 680.685 478.767 667.028C479.579 666.287 480.098 665.231 480.098 664.049 480.098 661.816 478.281 660 476.049 660 473.817 660 472 661.816 472 664.048 472 666.28 473.816 668.096 476.049 668.096 476.411 668.096 476.756 668.033 477.09 667.943 477.097 667.973 477.094 668.004 477.104 668.035L486.632 697.126 485.05 697.126C484.541 697.126 484.129 697.539 484.129 698.047L484.129 702.047C484.129 702.556 484.541 702.968 485.05 702.968L523.05 702.968C523.559 702.968 523.971 702.555 523.971 702.047L523.971 698.047C523.971 697.538 523.559 697.126 523.05 697.126L521.468 697.126 530.996 668.035C531.006 668.005 531.003 667.974 531.01 667.943 531.344 668.033 531.689 668.096 532.051 668.096 534.283 668.096 536.1 666.28 536.1 664.048 536.1 661.816 534.281 660 532.049 660ZM474.098 664.048C474.098 662.972 474.973 662.096 476.049 662.096 477.125 662.097 478 662.972 478 664.048 478 665.125 477.125 666 476.049 666 474.973 666 474.098 665.125 474.098 664.048ZM522.128 701.127 485.97 701.127 485.97 698.97 522.128 698.97 522.128 701.127ZM502.098 660.048C502.098 658.972 502.973 658.096 504.049 658.096 505.125 658.097 506 658.972 506 660.048 506 661.124 505.125 662 504.049 662 502.973 662 502.098 661.124 502.098 660.048ZM519.396 697.053 488.701 697.053 480.058 670.663 495.145 683.046C495.385 683.243 495.703 683.317 496.002 683.246 496.304 683.176 496.555 682.97 496.683 682.688L504.049 666.457 511.415 682.688C511.543 682.97 511.794 683.176 512.096 683.246 512.395 683.318 512.713 683.243 512.953 683.046L528.04 670.663 519.396 697.053ZM532.049 666C530.973 666 530.098 665.125 530.098 664.048 530.098 662.972 530.973 662.096 532.049 662.096 533.125 662.097 534 662.972 534 664.048 534 665.125 533.125 666 532.049 666Z"/></g></g></g><g clip-path="url(#clip25)"><g clip-path="url(#clip26)"><g clip-path="url(#clip27)"><path d="M352.049 567C349.816 567 348 568.816 348 571.048 348 572.231 348.519 573.287 349.331 574.027L332.691 587.685 325.094 570.943C326.818 570.479 328.098 568.917 328.098 567.048 328.098 564.816 326.281 563 324.049 563 321.817 563 320 564.816 320 567.048 320 568.917 321.28 570.478 323.004 570.943L315.406 587.685 298.767 574.028C299.579 573.287 300.098 572.231 300.098 571.049 300.098 568.816 298.281 567 296.049 567 293.817 567 292 568.816 292 571.048 292 573.28 293.816 575.096 296.049 575.096 296.411 575.096 296.756 575.033 297.09 574.943 297.097 574.973 297.094 575.004 297.104 575.035L306.632 604.126 305.05 604.126C304.541 604.126 304.129 604.539 304.129 605.047L304.129 609.047C304.129 609.556 304.541 609.968 305.05 609.968L343.05 609.968C343.559 609.968 343.971 609.555 343.971 609.047L343.971 605.047C343.971 604.538 343.559 604.126 343.05 604.126L341.468 604.126 350.996 575.035C351.006 575.005 351.003 574.974 351.01 574.943 351.344 575.033 351.689 575.096 352.051 575.096 354.283 575.096 356.1 573.28 356.1 571.048 356.1 568.816 354.281 567 352.049 567ZM294.098 571.048C294.098 569.972 294.973 569.096 296.049 569.096 297.125 569.097 298 569.972 298 571.048 298 572.125 297.125 573 296.049 573 294.973 573 294.098 572.125 294.098 571.048ZM342.128 608.127 305.97 608.127 305.97 605.97 342.128 605.97 342.128 608.127ZM322.098 567.048C322.098 565.972 322.973 565.096 324.049 565.096 325.125 565.097 326 565.972 326 567.048 326 568.124 325.125 569 324.049 569 322.973 569 322.098 568.124 322.098 567.048ZM339.396 604.053 308.701 604.053 300.058 577.663 315.145 590.046C315.385 590.243 315.703 590.317 316.002 590.246 316.304 590.176 316.555 589.97 316.683 589.688L324.049 573.457 331.415 589.688C331.543 589.97 331.794 590.176 332.096 590.246 332.395 590.318 332.713 590.243 332.953 590.046L348.04 577.663 339.396 604.053ZM352.049 573C350.973 573 350.098 572.125 350.098 571.048 350.098 569.972 350.973 569.096 352.049 569.096 353.125 569.097 354 569.972 354 571.048 354 572.125 353.125 573 352.049 573Z"/></g></g></g></g></svg>